%TF.GenerationSoftware,KiCad,Pcbnew,9.0.6+1*%
%TF.CreationDate,Date%
%TF.ProjectId,Input-Protection,496e7075-742d-4507-926f-74656374696f,+ (Unreleased)*%
%TF.SameCoordinates,Original*%
%TF.FileFunction,Legend,Top*%
%TF.FilePolarity,Positive*%
%FSLAX46Y46*%
G04 Gerber Fmt 4.6, Leading zero omitted, Abs format (unit mm)*
G04 Created by KiCad*
%MOMM*%
%LPD*%
G01*
G04 APERTURE LIST*
G04 Aperture macros list*
%AMRoundRect*
0 Rectangle with rounded corners*
0 $1 Rounding radius*
0 $2 $3 $4 $5 $6 $7 $8 $9 X,Y pos of 4 corners*
0 Add a 4 corners polygon primitive as box body*
4,1,4,$2,$3,$4,$5,$6,$7,$8,$9,$2,$3,0*
0 Add four circle primitives for the rounded corners*
1,1,$1+$1,$2,$3*
1,1,$1+$1,$4,$5*
1,1,$1+$1,$6,$7*
1,1,$1+$1,$8,$9*
0 Add four rect primitives between the rounded corners*
20,1,$1+$1,$2,$3,$4,$5,0*
20,1,$1+$1,$4,$5,$6,$7,0*
20,1,$1+$1,$6,$7,$8,$9,0*
20,1,$1+$1,$8,$9,$2,$3,0*%
G04 Aperture macros list end*
%ADD10C,0.000000*%
%ADD11C,0.150000*%
%ADD12C,0.120000*%
%ADD13C,0.152400*%
%ADD14C,0.100000*%
%ADD15RoundRect,0.269231X0.655769X-0.430769X0.655769X0.430769X-0.655769X0.430769X-0.655769X-0.430769X0*%
%ADD16RoundRect,0.269231X-0.655769X0.430769X-0.655769X-0.430769X0.655769X-0.430769X0.655769X0.430769X0*%
%ADD17RoundRect,0.050000X-0.457200X-1.206500X0.457200X-1.206500X0.457200X1.206500X-0.457200X1.206500X0*%
%ADD18RoundRect,0.050000X-2.755900X-3.035300X2.755900X-3.035300X2.755900X3.035300X-2.755900X3.035300X0*%
%ADD19RoundRect,0.175000X-0.612500X-0.175000X0.612500X-0.175000X0.612500X0.175000X-0.612500X0.175000X0*%
%ADD20RoundRect,0.050000X-1.000000X-1.000000X1.000000X-1.000000X1.000000X1.000000X-1.000000X1.000000X0*%
%ADD21C,1.600000*%
%ADD22RoundRect,0.262500X-0.325000X-0.262500X0.325000X-0.262500X0.325000X0.262500X-0.325000X0.262500X0*%
%ADD23C,1.100000*%
%ADD24C,2.000000*%
%ADD25RoundRect,0.050000X-1.000000X-2.250000X1.000000X-2.250000X1.000000X2.250000X-1.000000X2.250000X0*%
%ADD26O,2.100000X4.100000*%
%ADD27O,4.100000X2.100000*%
%ADD28RoundRect,0.269231X-0.430769X-0.655769X0.430769X-0.655769X0.430769X0.655769X-0.430769X0.655769X0*%
%ADD29C,5.800000*%
%ADD30RoundRect,0.050000X1.000000X2.250000X-1.000000X2.250000X-1.000000X-2.250000X1.000000X-2.250000X0*%
%ADD31RoundRect,0.050000X0.401000X-0.752500X0.401000X0.752500X-0.401000X0.752500X-0.401000X-0.752500X0*%
%ADD32RoundRect,0.262500X-0.787500X0.787500X-0.787500X-0.787500X0.787500X-0.787500X0.787500X0.787500X0*%
%ADD33C,2.100000*%
%ADD34RoundRect,0.262500X0.787500X-0.787500X0.787500X0.787500X-0.787500X0.787500X-0.787500X-0.787500X0*%
%ADD35RoundRect,0.275000X0.275000X0.275000X-0.275000X0.275000X-0.275000X-0.275000X0.275000X-0.275000X0*%
%ADD36RoundRect,0.137500X0.137500X-0.212500X0.137500X0.212500X-0.137500X0.212500X-0.137500X-0.212500X0*%
%ADD37RoundRect,0.137500X-0.137500X0.212500X-0.137500X-0.212500X0.137500X-0.212500X0.137500X0.212500X0*%
%ADD38RoundRect,0.262500X0.262500X-0.325000X0.262500X0.325000X-0.262500X0.325000X-0.262500X-0.325000X0*%
%ADD39RoundRect,0.262500X-0.262500X0.325000X-0.262500X-0.325000X0.262500X-0.325000X0.262500X0.325000X0*%
%ADD40RoundRect,0.269231X0.430769X0.655769X-0.430769X0.655769X-0.430769X-0.655769X0.430769X-0.655769X0*%
G04 APERTURE END LIST*
D10*
G36*
X182891145Y-80327500D02*
G01*
X182928145Y-80331000D01*
X182965145Y-80336500D01*
X183001645Y-80343500D01*
X183037645Y-80352000D01*
X183073145Y-80363000D01*
X183108145Y-80376000D01*
X183142645Y-80390000D01*
X183176645Y-80405500D01*
X183209145Y-80423000D01*
X183241145Y-80442000D01*
X183272145Y-80463000D01*
X183302145Y-80485000D01*
X183330645Y-80508500D01*
X183358145Y-80533500D01*
X183384645Y-80560000D01*
X183409645Y-80587500D01*
X183433145Y-80616000D01*
X183455145Y-80646000D01*
X183321145Y-80739500D01*
X183304645Y-80716000D01*
X183286145Y-80693500D01*
X183266645Y-80672000D01*
X183246145Y-80651000D01*
X183224145Y-80631500D01*
X183201645Y-80613000D01*
X183178145Y-80596000D01*
X183154145Y-80579500D01*
X183129145Y-80564500D01*
X183103145Y-80551000D01*
X183077145Y-80538000D01*
X183050145Y-80527000D01*
X183022645Y-80517500D01*
X182994645Y-80509000D01*
X182966145Y-80502000D01*
X182937645Y-80496500D01*
X182908645Y-80492500D01*
X182879645Y-80490000D01*
X182850645Y-80488500D01*
X182821645Y-80489000D01*
X182792145Y-80490500D01*
X182763145Y-80493500D01*
X182734645Y-80498000D01*
X182706145Y-80504000D01*
X182677645Y-80511500D01*
X182650145Y-80520500D01*
X182622645Y-80530500D01*
X182596145Y-80541500D01*
X182569645Y-80554000D01*
X182544145Y-80568500D01*
X182519145Y-80583500D01*
X182495145Y-80600000D01*
X182472145Y-80618000D01*
X182450145Y-80636500D01*
X182428645Y-80656500D01*
X182408645Y-80677500D01*
X182389145Y-80699500D01*
X182370645Y-80722500D01*
X182353645Y-80746000D01*
X182338145Y-80770500D01*
X182323645Y-80796000D01*
X182310145Y-80822000D01*
X182298145Y-80848500D01*
X182287645Y-80875500D01*
X182278645Y-80903500D01*
X182270645Y-80931500D01*
X182264145Y-80960000D01*
X182259145Y-80988500D01*
X182255645Y-81017500D01*
X182253145Y-81046500D01*
X182252645Y-81075500D01*
X182253145Y-81105000D01*
X182255645Y-81134000D01*
X182259145Y-81163000D01*
X182264145Y-81191500D01*
X182270645Y-81220000D01*
X182278645Y-81248000D01*
X182287645Y-81275500D01*
X182298645Y-81303000D01*
X182310145Y-81329500D01*
X182323645Y-81355500D01*
X182338145Y-81380500D01*
X182353645Y-81405000D01*
X182370645Y-81429000D01*
X182388645Y-81451500D01*
X182407645Y-81473500D01*
X182428145Y-81494500D01*
X182449145Y-81514500D01*
X182471645Y-81533500D01*
X182494645Y-81551000D01*
X182518645Y-81567500D01*
X182543645Y-81583000D01*
X182569145Y-81597000D01*
X182595145Y-81609500D01*
X182622145Y-81621500D01*
X182649145Y-81632000D01*
X182677145Y-81640500D01*
X182705145Y-81648000D01*
X182733645Y-81654000D01*
X182762645Y-81658500D01*
X182791645Y-81661500D01*
X182820645Y-81663000D01*
X182850145Y-81663500D01*
X182879145Y-81662000D01*
X182908145Y-81659500D01*
X182937145Y-81655500D01*
X182965645Y-81650000D01*
X182993645Y-81643000D01*
X183021645Y-81634500D01*
X183049145Y-81625000D01*
X183076145Y-81613500D01*
X183102645Y-81602000D01*
X183128145Y-81588000D01*
X183153645Y-81573000D01*
X183177645Y-81557000D01*
X183201145Y-81539500D01*
X183223645Y-81521000D01*
X183245145Y-81501500D01*
X183265645Y-81481000D01*
X183285145Y-81459500D01*
X183303645Y-81436500D01*
X183321645Y-81413500D01*
X183454145Y-81506000D01*
X183431645Y-81536000D01*
X183408145Y-81565000D01*
X183383145Y-81592500D01*
X183357145Y-81619000D01*
X183329645Y-81643500D01*
X183300645Y-81667500D01*
X183270645Y-81689500D01*
X183239645Y-81710000D01*
X183208145Y-81729000D01*
X183175145Y-81746500D01*
X183141645Y-81762500D01*
X183107145Y-81776500D01*
X183072145Y-81788500D01*
X183036145Y-81799000D01*
X183000145Y-81807500D01*
X182963645Y-81814500D01*
X182926645Y-81820000D01*
X182889645Y-81823500D01*
X182852645Y-81825000D01*
X182815645Y-81824500D01*
X182778145Y-81822500D01*
X182741645Y-81818500D01*
X182704645Y-81812500D01*
X182668145Y-81805000D01*
X182632145Y-81795500D01*
X182596645Y-81784000D01*
X182562145Y-81771000D01*
X182527645Y-81756500D01*
X182494645Y-81740000D01*
X182461645Y-81722000D01*
X182430145Y-81702500D01*
X182399645Y-81681500D01*
X182370145Y-81659000D01*
X182341645Y-81634500D01*
X182314645Y-81609500D01*
X182288645Y-81582500D01*
X182264145Y-81554500D01*
X182241145Y-81525500D01*
X182219645Y-81495000D01*
X182199645Y-81464000D01*
X182181645Y-81431500D01*
X182164645Y-81398500D01*
X182149145Y-81364500D01*
X182135645Y-81330000D01*
X182124145Y-81294000D01*
X182114145Y-81258500D01*
X182105645Y-81222000D01*
X182099645Y-81185500D01*
X182094645Y-81148500D01*
X182092145Y-81111500D01*
X182091145Y-81074500D01*
X182092145Y-81037000D01*
X182094645Y-81000000D01*
X182099645Y-80963000D01*
X182106145Y-80926500D01*
X182114145Y-80890500D01*
X182124145Y-80854500D01*
X182136145Y-80819500D01*
X182149645Y-80785000D01*
X182164645Y-80751000D01*
X182181645Y-80718000D01*
X182200645Y-80686000D01*
X182220645Y-80654500D01*
X182242145Y-80624000D01*
X182265645Y-80595000D01*
X182290145Y-80567000D01*
X182315645Y-80540500D01*
X182343145Y-80515000D01*
X182371145Y-80491000D01*
X182401145Y-80468500D01*
X182431645Y-80447500D01*
X182463145Y-80428000D01*
X182495645Y-80410000D01*
X182529145Y-80393500D01*
X182563145Y-80379000D01*
X182598145Y-80366000D01*
X182633645Y-80355500D01*
X182669645Y-80346000D01*
X182706145Y-80338500D01*
X182742645Y-80332500D01*
X182779645Y-80328500D01*
X182817145Y-80326500D01*
X182854145Y-80326000D01*
X182891145Y-80327500D01*
G37*
G36*
X185465645Y-81150000D02*
G01*
X185090645Y-81150000D01*
X184715645Y-81150000D01*
X184715645Y-81000000D01*
X185465645Y-81000000D01*
X185465645Y-81150000D01*
G37*
G36*
X184365645Y-81150000D02*
G01*
X183715645Y-81150000D01*
X183065645Y-81150000D01*
X183065645Y-81000000D01*
X184365645Y-81000000D01*
X184365645Y-81150000D01*
G37*
G36*
X120044025Y-68799496D02*
G01*
X120062161Y-68800805D01*
X120079988Y-68802963D01*
X120097487Y-68805951D01*
X120114640Y-68809751D01*
X120131425Y-68814341D01*
X120147825Y-68819704D01*
X120163819Y-68825821D01*
X120179389Y-68832671D01*
X120194514Y-68840235D01*
X120209176Y-68848496D01*
X120223355Y-68857432D01*
X120237031Y-68867025D01*
X120250185Y-68877256D01*
X120262798Y-68888106D01*
X120274851Y-68899555D01*
X120286323Y-68911584D01*
X120297196Y-68924174D01*
X120307450Y-68937305D01*
X120317065Y-68950959D01*
X120326023Y-68965116D01*
X120334304Y-68979757D01*
X120341888Y-68994863D01*
X120348757Y-69010414D01*
X120354890Y-69026392D01*
X120360268Y-69042776D01*
X120364872Y-69059549D01*
X120368683Y-69076690D01*
X120371680Y-69094180D01*
X120373845Y-69112001D01*
X120375158Y-69130132D01*
X120375601Y-69148555D01*
X120375158Y-69166979D01*
X120373845Y-69185115D01*
X120371680Y-69202942D01*
X120368683Y-69220442D01*
X120364872Y-69237594D01*
X120360268Y-69254380D01*
X120354890Y-69270779D01*
X120348757Y-69286774D01*
X120341888Y-69302343D01*
X120334304Y-69317469D01*
X120326023Y-69332130D01*
X120317065Y-69346309D01*
X120307450Y-69359985D01*
X120297196Y-69373139D01*
X120286323Y-69385753D01*
X120274851Y-69397805D01*
X120262798Y-69409277D01*
X120250185Y-69420150D01*
X120237031Y-69430404D01*
X120223355Y-69440020D01*
X120209176Y-69448978D01*
X120194514Y-69457259D01*
X120179389Y-69464843D01*
X120163819Y-69471711D01*
X120147825Y-69477844D01*
X120131425Y-69483222D01*
X120114640Y-69487827D01*
X120097487Y-69491637D01*
X120079988Y-69494635D01*
X120062161Y-69496800D01*
X120044025Y-69498113D01*
X120025601Y-69498555D01*
X120007178Y-69498113D01*
X119989046Y-69496800D01*
X119971226Y-69494635D01*
X119953735Y-69491637D01*
X119936595Y-69487827D01*
X119919822Y-69483222D01*
X119903438Y-69477844D01*
X119887460Y-69471711D01*
X119871909Y-69464843D01*
X119856803Y-69457259D01*
X119842162Y-69448978D01*
X119828005Y-69440020D01*
X119814351Y-69430404D01*
X119801220Y-69420150D01*
X119788630Y-69409277D01*
X119776601Y-69397805D01*
X119765152Y-69385753D01*
X119754302Y-69373139D01*
X119744071Y-69359985D01*
X119734478Y-69346309D01*
X119725541Y-69332130D01*
X119717281Y-69317469D01*
X119709716Y-69302343D01*
X119702866Y-69286774D01*
X119696750Y-69270779D01*
X119691387Y-69254380D01*
X119686796Y-69237594D01*
X119682997Y-69220442D01*
X119680009Y-69202942D01*
X119677850Y-69185115D01*
X119676541Y-69166979D01*
X119676101Y-69148555D01*
X119676541Y-69130132D01*
X119677850Y-69112001D01*
X119680009Y-69094180D01*
X119682997Y-69076690D01*
X119686796Y-69059549D01*
X119691387Y-69042776D01*
X119696750Y-69026392D01*
X119702866Y-69010414D01*
X119709716Y-68994863D01*
X119717281Y-68979757D01*
X119725541Y-68965116D01*
X119734478Y-68950959D01*
X119744071Y-68937305D01*
X119754302Y-68924174D01*
X119765152Y-68911584D01*
X119776601Y-68899555D01*
X119788630Y-68888106D01*
X119801220Y-68877256D01*
X119814351Y-68867025D01*
X119828005Y-68857432D01*
X119842162Y-68848496D01*
X119856803Y-68840235D01*
X119871909Y-68832671D01*
X119887460Y-68825821D01*
X119903438Y-68819704D01*
X119919822Y-68814341D01*
X119936595Y-68809751D01*
X119953735Y-68805951D01*
X119971226Y-68802963D01*
X119989046Y-68800805D01*
X120007178Y-68799496D01*
X120025601Y-68799055D01*
X120044025Y-68799496D01*
G37*
G36*
X119326101Y-69224055D02*
G01*
X118901101Y-69224055D01*
X118476101Y-69224055D01*
X118476101Y-69074055D01*
X119326101Y-69074055D01*
X119326101Y-69224055D01*
G37*
G36*
X122351101Y-69524055D02*
G01*
X122276101Y-69524055D01*
X122201101Y-69524055D01*
X122201101Y-68774055D01*
X122351101Y-68774055D01*
X122351101Y-69524055D01*
G37*
G36*
X185165645Y-81450000D02*
G01*
X185090645Y-81450000D01*
X185015645Y-81450000D01*
X185015645Y-80700000D01*
X185165645Y-80700000D01*
X185165645Y-81450000D01*
G37*
G36*
X182140645Y-81150000D02*
G01*
X181715645Y-81150000D01*
X181290645Y-81150000D01*
X181290645Y-81000000D01*
X182140645Y-81000000D01*
X182140645Y-81150000D01*
G37*
G36*
X182858569Y-80725441D02*
G01*
X182876705Y-80726750D01*
X182894532Y-80728908D01*
X182912031Y-80731896D01*
X182929184Y-80735696D01*
X182945969Y-80740286D01*
X182962369Y-80745649D01*
X182978363Y-80751766D01*
X182993933Y-80758616D01*
X183009058Y-80766180D01*
X183023720Y-80774441D01*
X183037899Y-80783377D01*
X183051575Y-80792970D01*
X183064729Y-80803201D01*
X183077342Y-80814051D01*
X183089395Y-80825500D01*
X183100867Y-80837529D01*
X183111740Y-80850119D01*
X183121994Y-80863250D01*
X183131609Y-80876904D01*
X183140567Y-80891061D01*
X183148848Y-80905702D01*
X183156432Y-80920808D01*
X183163301Y-80936359D01*
X183169434Y-80952337D01*
X183174812Y-80968721D01*
X183179416Y-80985494D01*
X183183227Y-81002635D01*
X183186224Y-81020125D01*
X183188389Y-81037946D01*
X183189702Y-81056077D01*
X183190145Y-81074500D01*
X183189702Y-81092924D01*
X183188389Y-81111060D01*
X183186224Y-81128887D01*
X183183227Y-81146387D01*
X183179416Y-81163539D01*
X183174812Y-81180325D01*
X183169434Y-81196724D01*
X183163301Y-81212719D01*
X183156432Y-81228288D01*
X183148848Y-81243414D01*
X183140567Y-81258075D01*
X183131609Y-81272254D01*
X183121994Y-81285930D01*
X183111740Y-81299084D01*
X183100867Y-81311698D01*
X183089395Y-81323750D01*
X183077342Y-81335222D01*
X183064729Y-81346095D01*
X183051575Y-81356349D01*
X183037899Y-81365965D01*
X183023720Y-81374923D01*
X183009058Y-81383204D01*
X182993933Y-81390788D01*
X182978363Y-81397656D01*
X182962369Y-81403789D01*
X182945969Y-81409167D01*
X182929184Y-81413772D01*
X182912031Y-81417582D01*
X182894532Y-81420580D01*
X182876705Y-81422745D01*
X182858569Y-81424058D01*
X182840145Y-81424500D01*
X182821722Y-81424058D01*
X182803590Y-81422745D01*
X182785770Y-81420580D01*
X182768279Y-81417582D01*
X182751139Y-81413772D01*
X182734366Y-81409167D01*
X182717982Y-81403789D01*
X182702004Y-81397656D01*
X182686453Y-81390788D01*
X182671347Y-81383204D01*
X182656706Y-81374923D01*
X182642549Y-81365965D01*
X182628895Y-81356349D01*
X182615764Y-81346095D01*
X182603174Y-81335222D01*
X182591145Y-81323750D01*
X182579696Y-81311698D01*
X182568846Y-81299084D01*
X182558615Y-81285930D01*
X182549022Y-81272254D01*
X182540085Y-81258075D01*
X182531825Y-81243414D01*
X182524260Y-81228288D01*
X182517410Y-81212719D01*
X182511294Y-81196724D01*
X182505931Y-81180325D01*
X182501340Y-81163539D01*
X182497541Y-81146387D01*
X182494553Y-81128887D01*
X182492394Y-81111060D01*
X182491085Y-81092924D01*
X182490645Y-81074500D01*
X182491085Y-81056077D01*
X182492394Y-81037946D01*
X182494553Y-81020125D01*
X182497541Y-81002635D01*
X182501340Y-80985494D01*
X182505931Y-80968721D01*
X182511294Y-80952337D01*
X182517410Y-80936359D01*
X182524260Y-80920808D01*
X182531825Y-80905702D01*
X182540085Y-80891061D01*
X182549022Y-80876904D01*
X182558615Y-80863250D01*
X182568846Y-80850119D01*
X182579696Y-80837529D01*
X182591145Y-80825500D01*
X182603174Y-80814051D01*
X182615764Y-80803201D01*
X182628895Y-80792970D01*
X182642549Y-80783377D01*
X182656706Y-80774441D01*
X182671347Y-80766180D01*
X182686453Y-80758616D01*
X182702004Y-80751766D01*
X182717982Y-80745649D01*
X182734366Y-80740286D01*
X182751139Y-80735696D01*
X182768279Y-80731896D01*
X182785770Y-80728908D01*
X182803590Y-80726750D01*
X182821722Y-80725441D01*
X182840145Y-80725000D01*
X182858569Y-80725441D01*
G37*
G36*
X120076601Y-68401555D02*
G01*
X120113601Y-68405055D01*
X120150601Y-68410555D01*
X120187101Y-68417555D01*
X120223101Y-68426055D01*
X120258601Y-68437055D01*
X120293601Y-68450055D01*
X120328101Y-68464055D01*
X120362101Y-68479555D01*
X120394601Y-68497055D01*
X120426601Y-68516055D01*
X120457601Y-68537055D01*
X120487601Y-68559055D01*
X120516101Y-68582555D01*
X120543601Y-68607555D01*
X120570101Y-68634055D01*
X120595101Y-68661555D01*
X120618601Y-68690055D01*
X120640601Y-68720055D01*
X120506601Y-68813555D01*
X120490101Y-68790055D01*
X120471601Y-68767555D01*
X120452101Y-68746055D01*
X120431601Y-68725055D01*
X120409601Y-68705555D01*
X120387101Y-68687055D01*
X120363601Y-68670055D01*
X120339601Y-68653555D01*
X120314601Y-68638555D01*
X120288601Y-68625055D01*
X120262601Y-68612055D01*
X120235601Y-68601055D01*
X120208101Y-68591555D01*
X120180101Y-68583055D01*
X120151601Y-68576055D01*
X120123101Y-68570555D01*
X120094101Y-68566555D01*
X120065101Y-68564055D01*
X120036101Y-68562555D01*
X120007101Y-68563055D01*
X119977601Y-68564555D01*
X119948601Y-68567555D01*
X119920101Y-68572055D01*
X119891601Y-68578055D01*
X119863101Y-68585555D01*
X119835601Y-68594555D01*
X119808101Y-68604555D01*
X119781601Y-68615555D01*
X119755101Y-68628055D01*
X119729601Y-68642555D01*
X119704601Y-68657555D01*
X119680601Y-68674055D01*
X119657601Y-68692055D01*
X119635601Y-68710555D01*
X119614101Y-68730555D01*
X119594101Y-68751555D01*
X119574601Y-68773555D01*
X119556101Y-68796555D01*
X119539101Y-68820055D01*
X119523601Y-68844555D01*
X119509101Y-68870055D01*
X119495601Y-68896055D01*
X119483601Y-68922555D01*
X119473101Y-68949555D01*
X119464101Y-68977555D01*
X119456101Y-69005555D01*
X119449601Y-69034055D01*
X119444601Y-69062555D01*
X119441101Y-69091555D01*
X119438601Y-69120555D01*
X119438101Y-69149555D01*
X119438601Y-69179055D01*
X119441101Y-69208055D01*
X119444601Y-69237055D01*
X119449601Y-69265555D01*
X119456101Y-69294055D01*
X119464101Y-69322055D01*
X119473101Y-69349555D01*
X119484101Y-69377055D01*
X119495601Y-69403555D01*
X119509101Y-69429555D01*
X119523601Y-69454555D01*
X119539101Y-69479055D01*
X119556101Y-69503055D01*
X119574101Y-69525555D01*
X119593101Y-69547555D01*
X119613601Y-69568555D01*
X119634601Y-69588555D01*
X119657101Y-69607555D01*
X119680101Y-69625055D01*
X119704101Y-69641555D01*
X119729101Y-69657055D01*
X119754601Y-69671055D01*
X119780601Y-69683555D01*
X119807601Y-69695555D01*
X119834601Y-69706055D01*
X119862601Y-69714555D01*
X119890601Y-69722055D01*
X119919101Y-69728055D01*
X119948101Y-69732555D01*
X119977101Y-69735555D01*
X120006101Y-69737055D01*
X120035601Y-69737555D01*
X120064601Y-69736055D01*
X120093601Y-69733555D01*
X120122601Y-69729555D01*
X120151101Y-69724055D01*
X120179101Y-69717055D01*
X120207101Y-69708555D01*
X120234601Y-69699055D01*
X120261601Y-69687555D01*
X120288101Y-69676055D01*
X120313601Y-69662055D01*
X120339101Y-69647055D01*
X120363101Y-69631055D01*
X120386601Y-69613555D01*
X120409101Y-69595055D01*
X120430601Y-69575555D01*
X120451101Y-69555055D01*
X120470601Y-69533555D01*
X120489101Y-69510555D01*
X120507101Y-69487555D01*
X120639601Y-69580055D01*
X120617101Y-69610055D01*
X120593601Y-69639055D01*
X120568601Y-69666555D01*
X120542601Y-69693055D01*
X120515101Y-69717555D01*
X120486101Y-69741555D01*
X120456101Y-69763555D01*
X120425101Y-69784055D01*
X120393601Y-69803055D01*
X120360601Y-69820555D01*
X120327101Y-69836555D01*
X120292601Y-69850555D01*
X120257601Y-69862555D01*
X120221601Y-69873055D01*
X120185601Y-69881555D01*
X120149101Y-69888555D01*
X120112101Y-69894055D01*
X120075101Y-69897555D01*
X120038101Y-69899055D01*
X120001101Y-69898555D01*
X119963601Y-69896555D01*
X119927101Y-69892555D01*
X119890101Y-69886555D01*
X119853601Y-69879055D01*
X119817601Y-69869555D01*
X119782101Y-69858055D01*
X119747601Y-69845055D01*
X119713101Y-69830555D01*
X119680101Y-69814055D01*
X119647101Y-69796055D01*
X119615601Y-69776555D01*
X119585101Y-69755555D01*
X119555601Y-69733055D01*
X119527101Y-69708555D01*
X119500101Y-69683555D01*
X119474101Y-69656555D01*
X119449601Y-69628555D01*
X119426601Y-69599555D01*
X119405101Y-69569055D01*
X119385101Y-69538055D01*
X119367101Y-69505555D01*
X119350101Y-69472555D01*
X119334601Y-69438555D01*
X119321101Y-69404055D01*
X119309601Y-69368055D01*
X119299601Y-69332555D01*
X119291101Y-69296055D01*
X119285101Y-69259555D01*
X119280101Y-69222555D01*
X119277601Y-69185555D01*
X119276601Y-69148555D01*
X119277601Y-69111055D01*
X119280101Y-69074055D01*
X119285101Y-69037055D01*
X119291601Y-69000555D01*
X119299601Y-68964555D01*
X119309601Y-68928555D01*
X119321601Y-68893555D01*
X119335101Y-68859055D01*
X119350101Y-68825055D01*
X119367101Y-68792055D01*
X119386101Y-68760055D01*
X119406101Y-68728555D01*
X119427601Y-68698055D01*
X119451101Y-68669055D01*
X119475601Y-68641055D01*
X119501101Y-68614555D01*
X119528601Y-68589055D01*
X119556601Y-68565055D01*
X119586601Y-68542555D01*
X119617101Y-68521555D01*
X119648601Y-68502055D01*
X119681101Y-68484055D01*
X119714601Y-68467555D01*
X119748601Y-68453055D01*
X119783601Y-68440055D01*
X119819101Y-68429555D01*
X119855101Y-68420055D01*
X119891601Y-68412555D01*
X119928101Y-68406555D01*
X119965101Y-68402555D01*
X120002601Y-68400555D01*
X120039601Y-68400055D01*
X120076601Y-68401555D01*
G37*
G36*
X122651101Y-69224055D02*
G01*
X122276101Y-69224055D01*
X121901101Y-69224055D01*
X121901101Y-69074055D01*
X122651101Y-69074055D01*
X122651101Y-69224055D01*
G37*
G36*
X180630189Y-80325945D02*
G01*
X180669105Y-80328754D01*
X180707354Y-80333384D01*
X180744893Y-80339795D01*
X180781681Y-80347945D01*
X180817677Y-80357794D01*
X180852840Y-80369300D01*
X180887129Y-80382422D01*
X180920502Y-80397118D01*
X180952919Y-80413348D01*
X180984338Y-80431071D01*
X181014717Y-80450244D01*
X181044016Y-80470827D01*
X181072194Y-80492780D01*
X181099209Y-80516059D01*
X181125020Y-80540625D01*
X181149586Y-80566436D01*
X181172865Y-80593451D01*
X181194817Y-80621629D01*
X181215401Y-80650928D01*
X181234574Y-80681307D01*
X181252296Y-80712726D01*
X181268526Y-80745142D01*
X181283223Y-80778516D01*
X181296345Y-80812804D01*
X181307851Y-80847968D01*
X181317699Y-80883964D01*
X181325850Y-80920752D01*
X181332261Y-80958291D01*
X181336891Y-80996539D01*
X181339699Y-81035456D01*
X181340645Y-81075000D01*
X181339699Y-81114544D01*
X181336891Y-81153461D01*
X181332261Y-81191709D01*
X181325850Y-81229248D01*
X181317699Y-81266036D01*
X181307851Y-81302032D01*
X181296345Y-81337196D01*
X181283223Y-81371484D01*
X181268526Y-81404858D01*
X181252296Y-81437274D01*
X181234574Y-81468693D01*
X181215401Y-81499072D01*
X181194817Y-81528371D01*
X181172865Y-81556549D01*
X181149586Y-81583564D01*
X181125020Y-81609375D01*
X181099209Y-81633941D01*
X181072194Y-81657220D01*
X181044016Y-81679173D01*
X181014717Y-81699756D01*
X180984338Y-81718929D01*
X180952919Y-81736652D01*
X180920502Y-81752882D01*
X180887129Y-81767578D01*
X180852840Y-81780700D01*
X180817677Y-81792206D01*
X180781681Y-81802055D01*
X180744893Y-81810205D01*
X180707354Y-81816616D01*
X180669105Y-81821246D01*
X180630189Y-81824055D01*
X180590645Y-81825000D01*
X180551101Y-81824055D01*
X180512184Y-81821246D01*
X180473936Y-81816616D01*
X180436397Y-81810205D01*
X180399609Y-81802055D01*
X180363612Y-81792206D01*
X180328449Y-81780700D01*
X180294160Y-81767578D01*
X180260787Y-81752882D01*
X180228371Y-81736652D01*
X180196952Y-81718929D01*
X180166573Y-81699756D01*
X180137273Y-81679173D01*
X180109096Y-81657220D01*
X180082081Y-81633941D01*
X180056270Y-81609375D01*
X180031704Y-81583564D01*
X180008424Y-81556549D01*
X179986472Y-81528371D01*
X179965889Y-81499072D01*
X179946716Y-81468693D01*
X179928993Y-81437274D01*
X179912763Y-81404858D01*
X179898067Y-81371484D01*
X179884945Y-81337196D01*
X179873439Y-81302032D01*
X179863590Y-81266036D01*
X179855440Y-81229248D01*
X179849029Y-81191709D01*
X179844398Y-81153461D01*
X179841590Y-81114544D01*
X179840645Y-81075000D01*
X179840657Y-81074500D01*
X180005145Y-81074500D01*
X180005882Y-81105344D01*
X180008073Y-81135699D01*
X180011684Y-81165533D01*
X180016685Y-81194813D01*
X180023042Y-81223508D01*
X180030724Y-81251585D01*
X180039699Y-81279013D01*
X180049934Y-81305758D01*
X180061397Y-81331789D01*
X180074057Y-81357074D01*
X180087880Y-81381580D01*
X180102835Y-81405276D01*
X180118890Y-81428130D01*
X180136013Y-81450108D01*
X180154171Y-81471180D01*
X180173332Y-81491312D01*
X180193465Y-81510474D01*
X180214537Y-81528632D01*
X180236515Y-81545755D01*
X180259368Y-81561810D01*
X180283064Y-81576765D01*
X180307571Y-81590588D01*
X180332856Y-81603248D01*
X180358887Y-81614711D01*
X180385632Y-81624946D01*
X180413059Y-81633920D01*
X180441137Y-81641603D01*
X180469831Y-81647960D01*
X180499112Y-81652960D01*
X180528945Y-81656572D01*
X180559301Y-81658763D01*
X180590145Y-81659500D01*
X180620989Y-81658763D01*
X180651344Y-81656572D01*
X180681178Y-81652960D01*
X180710458Y-81647960D01*
X180739153Y-81641603D01*
X180767230Y-81633920D01*
X180794657Y-81624946D01*
X180821403Y-81614711D01*
X180847434Y-81603248D01*
X180872719Y-81590588D01*
X180897225Y-81576765D01*
X180920921Y-81561810D01*
X180943774Y-81545755D01*
X180965753Y-81528632D01*
X180986825Y-81510474D01*
X181006957Y-81491312D01*
X181026119Y-81471180D01*
X181044277Y-81450108D01*
X181061399Y-81428130D01*
X181077454Y-81405276D01*
X181092410Y-81381580D01*
X181106233Y-81357074D01*
X181118892Y-81331789D01*
X181130356Y-81305758D01*
X181140591Y-81279013D01*
X181149565Y-81251585D01*
X181157247Y-81223508D01*
X181163605Y-81194813D01*
X181168605Y-81165533D01*
X181172217Y-81135699D01*
X181174407Y-81105344D01*
X181175145Y-81074500D01*
X181174407Y-81043656D01*
X181172217Y-81013301D01*
X181168605Y-80983467D01*
X181163605Y-80954187D01*
X181157247Y-80925492D01*
X181149565Y-80897415D01*
X181140591Y-80869987D01*
X181130356Y-80843242D01*
X181118892Y-80817211D01*
X181106233Y-80791926D01*
X181092410Y-80767420D01*
X181077454Y-80743724D01*
X181061399Y-80720870D01*
X181044277Y-80698892D01*
X181026119Y-80677820D01*
X181006957Y-80657687D01*
X180986825Y-80638526D01*
X180965753Y-80620368D01*
X180943774Y-80603245D01*
X180920921Y-80587190D01*
X180897225Y-80572235D01*
X180872719Y-80558412D01*
X180847434Y-80545752D01*
X180821403Y-80534289D01*
X180794657Y-80524054D01*
X180767230Y-80515079D01*
X180739153Y-80507397D01*
X180710458Y-80501040D01*
X180681178Y-80496039D01*
X180651344Y-80492428D01*
X180620989Y-80490237D01*
X180590145Y-80489500D01*
X180559301Y-80490237D01*
X180528945Y-80492428D01*
X180499112Y-80496039D01*
X180469831Y-80501040D01*
X180441137Y-80507397D01*
X180413059Y-80515079D01*
X180385632Y-80524054D01*
X180358887Y-80534289D01*
X180332856Y-80545752D01*
X180307571Y-80558412D01*
X180283064Y-80572235D01*
X180259368Y-80587190D01*
X180236515Y-80603245D01*
X180214537Y-80620368D01*
X180193465Y-80638526D01*
X180173332Y-80657687D01*
X180154171Y-80677820D01*
X180136013Y-80698892D01*
X180118890Y-80720870D01*
X180102835Y-80743724D01*
X180087880Y-80767420D01*
X180074057Y-80791926D01*
X180061397Y-80817211D01*
X180049934Y-80843242D01*
X180039699Y-80869987D01*
X180030724Y-80897415D01*
X180023042Y-80925492D01*
X180016685Y-80954187D01*
X180011684Y-80983467D01*
X180008073Y-81013301D01*
X180005882Y-81043656D01*
X180005145Y-81074500D01*
X179840657Y-81074500D01*
X179841590Y-81035456D01*
X179844398Y-80996539D01*
X179849029Y-80958291D01*
X179855440Y-80920752D01*
X179863590Y-80883964D01*
X179873439Y-80847968D01*
X179884945Y-80812804D01*
X179898067Y-80778516D01*
X179912763Y-80745142D01*
X179928993Y-80712726D01*
X179946716Y-80681307D01*
X179965889Y-80650928D01*
X179986472Y-80621629D01*
X180008424Y-80593451D01*
X180031704Y-80566436D01*
X180056270Y-80540625D01*
X180082081Y-80516059D01*
X180109096Y-80492780D01*
X180137273Y-80470827D01*
X180166573Y-80450244D01*
X180196952Y-80431071D01*
X180228371Y-80413348D01*
X180260787Y-80397118D01*
X180294160Y-80382422D01*
X180328449Y-80369300D01*
X180363612Y-80357794D01*
X180399609Y-80347945D01*
X180436397Y-80339795D01*
X180473936Y-80333384D01*
X180512184Y-80328754D01*
X180551101Y-80325945D01*
X180590645Y-80325000D01*
X180630189Y-80325945D01*
G37*
G36*
X180965645Y-81150000D02*
G01*
X180590645Y-81150000D01*
X180215645Y-81150000D01*
X180215645Y-81000000D01*
X180965645Y-81000000D01*
X180965645Y-81150000D01*
G37*
G36*
X118151101Y-69224055D02*
G01*
X117776101Y-69224055D01*
X117401101Y-69224055D01*
X117401101Y-69074055D01*
X118151101Y-69074055D01*
X118151101Y-69224055D01*
G37*
D11*
X151615645Y-65450000D02*
X159115645Y-65450000D01*
X159115645Y-69700000D01*
X151615645Y-69700000D01*
X151615645Y-65450000D01*
D10*
G36*
X121551101Y-69224055D02*
G01*
X120901101Y-69224055D01*
X120251101Y-69224055D01*
X120251101Y-69074055D01*
X121551101Y-69074055D01*
X121551101Y-69224055D01*
G37*
D11*
X151615645Y-95450000D02*
X159115645Y-95450000D01*
X159115645Y-99700000D01*
X151615645Y-99700000D01*
X151615645Y-95450000D01*
D10*
G36*
X185130189Y-80325945D02*
G01*
X185169106Y-80328754D01*
X185207354Y-80333384D01*
X185244893Y-80339795D01*
X185281681Y-80347945D01*
X185317677Y-80357794D01*
X185352841Y-80369300D01*
X185387129Y-80382422D01*
X185420503Y-80397118D01*
X185452919Y-80413348D01*
X185484338Y-80431071D01*
X185514717Y-80450244D01*
X185544016Y-80470827D01*
X185572194Y-80492780D01*
X185599209Y-80516059D01*
X185625020Y-80540625D01*
X185649586Y-80566436D01*
X185672865Y-80593451D01*
X185694818Y-80621629D01*
X185715401Y-80650928D01*
X185734574Y-80681307D01*
X185752297Y-80712726D01*
X185768527Y-80745142D01*
X185783223Y-80778516D01*
X185796345Y-80812804D01*
X185807851Y-80847968D01*
X185817700Y-80883964D01*
X185825850Y-80920752D01*
X185832261Y-80958291D01*
X185836891Y-80996539D01*
X185839700Y-81035456D01*
X185840645Y-81075000D01*
X185839700Y-81114544D01*
X185836891Y-81153461D01*
X185832261Y-81191709D01*
X185825850Y-81229248D01*
X185817700Y-81266036D01*
X185807851Y-81302032D01*
X185796345Y-81337196D01*
X185783223Y-81371484D01*
X185768527Y-81404858D01*
X185752297Y-81437274D01*
X185734574Y-81468693D01*
X185715401Y-81499072D01*
X185694818Y-81528371D01*
X185672865Y-81556549D01*
X185649586Y-81583564D01*
X185625020Y-81609375D01*
X185599209Y-81633941D01*
X185572194Y-81657220D01*
X185544016Y-81679173D01*
X185514717Y-81699756D01*
X185484338Y-81718929D01*
X185452919Y-81736652D01*
X185420503Y-81752882D01*
X185387129Y-81767578D01*
X185352841Y-81780700D01*
X185317677Y-81792206D01*
X185281681Y-81802055D01*
X185244893Y-81810205D01*
X185207354Y-81816616D01*
X185169106Y-81821246D01*
X185130189Y-81824055D01*
X185090645Y-81825000D01*
X185051101Y-81824055D01*
X185012184Y-81821246D01*
X184973936Y-81816616D01*
X184936397Y-81810205D01*
X184899609Y-81802055D01*
X184863613Y-81792206D01*
X184828449Y-81780700D01*
X184794161Y-81767578D01*
X184760787Y-81752882D01*
X184728371Y-81736652D01*
X184696952Y-81718929D01*
X184666573Y-81699756D01*
X184637274Y-81679173D01*
X184609096Y-81657220D01*
X184582081Y-81633941D01*
X184556270Y-81609375D01*
X184531704Y-81583564D01*
X184508425Y-81556549D01*
X184486472Y-81528371D01*
X184465889Y-81499072D01*
X184446716Y-81468693D01*
X184428993Y-81437274D01*
X184412763Y-81404858D01*
X184398067Y-81371484D01*
X184384945Y-81337196D01*
X184373439Y-81302032D01*
X184363590Y-81266036D01*
X184355440Y-81229248D01*
X184349029Y-81191709D01*
X184344399Y-81153461D01*
X184341590Y-81114544D01*
X184340645Y-81075000D01*
X184340657Y-81074500D01*
X184505145Y-81074500D01*
X184505882Y-81105344D01*
X184508073Y-81135699D01*
X184511685Y-81165533D01*
X184516685Y-81194813D01*
X184523042Y-81223508D01*
X184530725Y-81251585D01*
X184539699Y-81279013D01*
X184549934Y-81305758D01*
X184561397Y-81331789D01*
X184574057Y-81357074D01*
X184587880Y-81381580D01*
X184602835Y-81405276D01*
X184618890Y-81428130D01*
X184636013Y-81450108D01*
X184654171Y-81471180D01*
X184673333Y-81491312D01*
X184693465Y-81510474D01*
X184714537Y-81528632D01*
X184736515Y-81545755D01*
X184759369Y-81561810D01*
X184783065Y-81576765D01*
X184807571Y-81590588D01*
X184832856Y-81603248D01*
X184858887Y-81614711D01*
X184885632Y-81624946D01*
X184913060Y-81633920D01*
X184941137Y-81641603D01*
X184969831Y-81647960D01*
X184999112Y-81652960D01*
X185028946Y-81656572D01*
X185059301Y-81658763D01*
X185090145Y-81659500D01*
X185120989Y-81658763D01*
X185151344Y-81656572D01*
X185181178Y-81652960D01*
X185210458Y-81647960D01*
X185239153Y-81641603D01*
X185267230Y-81633920D01*
X185294657Y-81624946D01*
X185321403Y-81614711D01*
X185347434Y-81603248D01*
X185372719Y-81590588D01*
X185397225Y-81576765D01*
X185420921Y-81561810D01*
X185443774Y-81545755D01*
X185465753Y-81528632D01*
X185486825Y-81510474D01*
X185506957Y-81491312D01*
X185526119Y-81471180D01*
X185544277Y-81450108D01*
X185561399Y-81428130D01*
X185577454Y-81405276D01*
X185592410Y-81381580D01*
X185606233Y-81357074D01*
X185618892Y-81331789D01*
X185630356Y-81305758D01*
X185640591Y-81279013D01*
X185649565Y-81251585D01*
X185657247Y-81223508D01*
X185663605Y-81194813D01*
X185668605Y-81165533D01*
X185672217Y-81135699D01*
X185674407Y-81105344D01*
X185675145Y-81074500D01*
X185674407Y-81043656D01*
X185672217Y-81013301D01*
X185668605Y-80983467D01*
X185663605Y-80954187D01*
X185657247Y-80925492D01*
X185649565Y-80897415D01*
X185640591Y-80869987D01*
X185630356Y-80843242D01*
X185618892Y-80817211D01*
X185606233Y-80791926D01*
X185592410Y-80767420D01*
X185577454Y-80743724D01*
X185561399Y-80720870D01*
X185544277Y-80698892D01*
X185526119Y-80677820D01*
X185506957Y-80657687D01*
X185486825Y-80638526D01*
X185465753Y-80620368D01*
X185443774Y-80603245D01*
X185420921Y-80587190D01*
X185397225Y-80572235D01*
X185372719Y-80558412D01*
X185347434Y-80545752D01*
X185321403Y-80534289D01*
X185294657Y-80524054D01*
X185267230Y-80515079D01*
X185239153Y-80507397D01*
X185210458Y-80501040D01*
X185181178Y-80496039D01*
X185151344Y-80492428D01*
X185120989Y-80490237D01*
X185090145Y-80489500D01*
X185059301Y-80490237D01*
X185028946Y-80492428D01*
X184999112Y-80496039D01*
X184969831Y-80501040D01*
X184941137Y-80507397D01*
X184913060Y-80515079D01*
X184885632Y-80524054D01*
X184858887Y-80534289D01*
X184832856Y-80545752D01*
X184807571Y-80558412D01*
X184783065Y-80572235D01*
X184759369Y-80587190D01*
X184736515Y-80603245D01*
X184714537Y-80620368D01*
X184693465Y-80638526D01*
X184673333Y-80657687D01*
X184654171Y-80677820D01*
X184636013Y-80698892D01*
X184618890Y-80720870D01*
X184602835Y-80743724D01*
X184587880Y-80767420D01*
X184574057Y-80791926D01*
X184561397Y-80817211D01*
X184549934Y-80843242D01*
X184539699Y-80869987D01*
X184530725Y-80897415D01*
X184523042Y-80925492D01*
X184516685Y-80954187D01*
X184511685Y-80983467D01*
X184508073Y-81013301D01*
X184505882Y-81043656D01*
X184505145Y-81074500D01*
X184340657Y-81074500D01*
X184341590Y-81035456D01*
X184344399Y-80996539D01*
X184349029Y-80958291D01*
X184355440Y-80920752D01*
X184363590Y-80883964D01*
X184373439Y-80847968D01*
X184384945Y-80812804D01*
X184398067Y-80778516D01*
X184412763Y-80745142D01*
X184428993Y-80712726D01*
X184446716Y-80681307D01*
X184465889Y-80650928D01*
X184486472Y-80621629D01*
X184508425Y-80593451D01*
X184531704Y-80566436D01*
X184556270Y-80540625D01*
X184582081Y-80516059D01*
X184609096Y-80492780D01*
X184637274Y-80470827D01*
X184666573Y-80450244D01*
X184696952Y-80431071D01*
X184728371Y-80413348D01*
X184760787Y-80397118D01*
X184794161Y-80382422D01*
X184828449Y-80369300D01*
X184863613Y-80357794D01*
X184899609Y-80347945D01*
X184936397Y-80339795D01*
X184973936Y-80333384D01*
X185012184Y-80328754D01*
X185051101Y-80325945D01*
X185090645Y-80325000D01*
X185130189Y-80325945D01*
G37*
G36*
X117815645Y-68400000D02*
G01*
X117854561Y-68402809D01*
X117892810Y-68407439D01*
X117930349Y-68413850D01*
X117967137Y-68422000D01*
X118003133Y-68431849D01*
X118038296Y-68443355D01*
X118072585Y-68456477D01*
X118105958Y-68471173D01*
X118138375Y-68487403D01*
X118169794Y-68505126D01*
X118200173Y-68524299D01*
X118229472Y-68544882D01*
X118257650Y-68566835D01*
X118284665Y-68590114D01*
X118310476Y-68614680D01*
X118335042Y-68640491D01*
X118358321Y-68667506D01*
X118380273Y-68695684D01*
X118400857Y-68724983D01*
X118420030Y-68755362D01*
X118437752Y-68786781D01*
X118453982Y-68819197D01*
X118468679Y-68852571D01*
X118481801Y-68886859D01*
X118493307Y-68922023D01*
X118503155Y-68958019D01*
X118511306Y-68994807D01*
X118517717Y-69032346D01*
X118522347Y-69070594D01*
X118525155Y-69109511D01*
X118526101Y-69149055D01*
X118525155Y-69188599D01*
X118522347Y-69227516D01*
X118517717Y-69265764D01*
X118511306Y-69303303D01*
X118503155Y-69340091D01*
X118493307Y-69376087D01*
X118481801Y-69411251D01*
X118468679Y-69445539D01*
X118453982Y-69478913D01*
X118437752Y-69511329D01*
X118420030Y-69542748D01*
X118400857Y-69573127D01*
X118380273Y-69602426D01*
X118358321Y-69630604D01*
X118335042Y-69657619D01*
X118310476Y-69683430D01*
X118284665Y-69707996D01*
X118257650Y-69731275D01*
X118229472Y-69753228D01*
X118200173Y-69773811D01*
X118169794Y-69792984D01*
X118138375Y-69810707D01*
X118105958Y-69826937D01*
X118072585Y-69841633D01*
X118038296Y-69854755D01*
X118003133Y-69866261D01*
X117967137Y-69876110D01*
X117930349Y-69884260D01*
X117892810Y-69890671D01*
X117854561Y-69895301D01*
X117815645Y-69898110D01*
X117776101Y-69899055D01*
X117736557Y-69898110D01*
X117697640Y-69895301D01*
X117659392Y-69890671D01*
X117621853Y-69884260D01*
X117585065Y-69876110D01*
X117549068Y-69866261D01*
X117513905Y-69854755D01*
X117479616Y-69841633D01*
X117446243Y-69826937D01*
X117413827Y-69810707D01*
X117382408Y-69792984D01*
X117352029Y-69773811D01*
X117322729Y-69753228D01*
X117294552Y-69731275D01*
X117267537Y-69707996D01*
X117241726Y-69683430D01*
X117217160Y-69657619D01*
X117193880Y-69630604D01*
X117171928Y-69602426D01*
X117151345Y-69573127D01*
X117132172Y-69542748D01*
X117114449Y-69511329D01*
X117098219Y-69478913D01*
X117083523Y-69445539D01*
X117070401Y-69411251D01*
X117058895Y-69376087D01*
X117049046Y-69340091D01*
X117040896Y-69303303D01*
X117034485Y-69265764D01*
X117029854Y-69227516D01*
X117027046Y-69188599D01*
X117026101Y-69149055D01*
X117026113Y-69148555D01*
X117190601Y-69148555D01*
X117191338Y-69179399D01*
X117193529Y-69209754D01*
X117197140Y-69239588D01*
X117202141Y-69268868D01*
X117208498Y-69297563D01*
X117216180Y-69325640D01*
X117225155Y-69353068D01*
X117235390Y-69379813D01*
X117246853Y-69405844D01*
X117259513Y-69431129D01*
X117273336Y-69455635D01*
X117288291Y-69479331D01*
X117304346Y-69502185D01*
X117321469Y-69524163D01*
X117339627Y-69545235D01*
X117358788Y-69565367D01*
X117378921Y-69584529D01*
X117399993Y-69602687D01*
X117421971Y-69619810D01*
X117444824Y-69635865D01*
X117468520Y-69650820D01*
X117493027Y-69664643D01*
X117518312Y-69677303D01*
X117544343Y-69688766D01*
X117571088Y-69699001D01*
X117598515Y-69707975D01*
X117626593Y-69715658D01*
X117655287Y-69722015D01*
X117684568Y-69727015D01*
X117714401Y-69730627D01*
X117744757Y-69732818D01*
X117775601Y-69733555D01*
X117806445Y-69732818D01*
X117836800Y-69730627D01*
X117866634Y-69727015D01*
X117895914Y-69722015D01*
X117924609Y-69715658D01*
X117952686Y-69707975D01*
X117980113Y-69699001D01*
X118006859Y-69688766D01*
X118032890Y-69677303D01*
X118058175Y-69664643D01*
X118082681Y-69650820D01*
X118106377Y-69635865D01*
X118129230Y-69619810D01*
X118151209Y-69602687D01*
X118172281Y-69584529D01*
X118192413Y-69565367D01*
X118211575Y-69545235D01*
X118229733Y-69524163D01*
X118246855Y-69502185D01*
X118262910Y-69479331D01*
X118277866Y-69455635D01*
X118291689Y-69431129D01*
X118304348Y-69405844D01*
X118315812Y-69379813D01*
X118326047Y-69353068D01*
X118335021Y-69325640D01*
X118342703Y-69297563D01*
X118349061Y-69268868D01*
X118354061Y-69239588D01*
X118357673Y-69209754D01*
X118359863Y-69179399D01*
X118360601Y-69148555D01*
X118359863Y-69117711D01*
X118357673Y-69087356D01*
X118354061Y-69057522D01*
X118349061Y-69028242D01*
X118342703Y-68999547D01*
X118335021Y-68971470D01*
X118326047Y-68944042D01*
X118315812Y-68917297D01*
X118304348Y-68891266D01*
X118291689Y-68865981D01*
X118277866Y-68841475D01*
X118262910Y-68817779D01*
X118246855Y-68794925D01*
X118229733Y-68772947D01*
X118211575Y-68751875D01*
X118192413Y-68731742D01*
X118172281Y-68712581D01*
X118151209Y-68694423D01*
X118129230Y-68677300D01*
X118106377Y-68661245D01*
X118082681Y-68646290D01*
X118058175Y-68632467D01*
X118032890Y-68619807D01*
X118006859Y-68608344D01*
X117980113Y-68598109D01*
X117952686Y-68589134D01*
X117924609Y-68581452D01*
X117895914Y-68575095D01*
X117866634Y-68570094D01*
X117836800Y-68566483D01*
X117806445Y-68564292D01*
X117775601Y-68563555D01*
X117744757Y-68564292D01*
X117714401Y-68566483D01*
X117684568Y-68570094D01*
X117655287Y-68575095D01*
X117626593Y-68581452D01*
X117598515Y-68589134D01*
X117571088Y-68598109D01*
X117544343Y-68608344D01*
X117518312Y-68619807D01*
X117493027Y-68632467D01*
X117468520Y-68646290D01*
X117444824Y-68661245D01*
X117421971Y-68677300D01*
X117399993Y-68694423D01*
X117378921Y-68712581D01*
X117358788Y-68731742D01*
X117339627Y-68751875D01*
X117321469Y-68772947D01*
X117304346Y-68794925D01*
X117288291Y-68817779D01*
X117273336Y-68841475D01*
X117259513Y-68865981D01*
X117246853Y-68891266D01*
X117235390Y-68917297D01*
X117225155Y-68944042D01*
X117216180Y-68971470D01*
X117208498Y-68999547D01*
X117202141Y-69028242D01*
X117197140Y-69057522D01*
X117193529Y-69087356D01*
X117191338Y-69117711D01*
X117190601Y-69148555D01*
X117026113Y-69148555D01*
X117027046Y-69109511D01*
X117029854Y-69070594D01*
X117034485Y-69032346D01*
X117040896Y-68994807D01*
X117049046Y-68958019D01*
X117058895Y-68922023D01*
X117070401Y-68886859D01*
X117083523Y-68852571D01*
X117098219Y-68819197D01*
X117114449Y-68786781D01*
X117132172Y-68755362D01*
X117151345Y-68724983D01*
X117171928Y-68695684D01*
X117193880Y-68667506D01*
X117217160Y-68640491D01*
X117241726Y-68614680D01*
X117267537Y-68590114D01*
X117294552Y-68566835D01*
X117322729Y-68544882D01*
X117352029Y-68524299D01*
X117382408Y-68505126D01*
X117413827Y-68487403D01*
X117446243Y-68471173D01*
X117479616Y-68456477D01*
X117513905Y-68443355D01*
X117549068Y-68431849D01*
X117585065Y-68422000D01*
X117621853Y-68413850D01*
X117659392Y-68407439D01*
X117697640Y-68402809D01*
X117736557Y-68400000D01*
X117776101Y-68399055D01*
X117815645Y-68400000D01*
G37*
G36*
X122315645Y-68400000D02*
G01*
X122354562Y-68402809D01*
X122392810Y-68407439D01*
X122430349Y-68413850D01*
X122467137Y-68422000D01*
X122503133Y-68431849D01*
X122538297Y-68443355D01*
X122572585Y-68456477D01*
X122605959Y-68471173D01*
X122638375Y-68487403D01*
X122669794Y-68505126D01*
X122700173Y-68524299D01*
X122729472Y-68544882D01*
X122757650Y-68566835D01*
X122784665Y-68590114D01*
X122810476Y-68614680D01*
X122835042Y-68640491D01*
X122858321Y-68667506D01*
X122880274Y-68695684D01*
X122900857Y-68724983D01*
X122920030Y-68755362D01*
X122937753Y-68786781D01*
X122953983Y-68819197D01*
X122968679Y-68852571D01*
X122981801Y-68886859D01*
X122993307Y-68922023D01*
X123003156Y-68958019D01*
X123011306Y-68994807D01*
X123017717Y-69032346D01*
X123022347Y-69070594D01*
X123025156Y-69109511D01*
X123026101Y-69149055D01*
X123025156Y-69188599D01*
X123022347Y-69227516D01*
X123017717Y-69265764D01*
X123011306Y-69303303D01*
X123003156Y-69340091D01*
X122993307Y-69376087D01*
X122981801Y-69411251D01*
X122968679Y-69445539D01*
X122953983Y-69478913D01*
X122937753Y-69511329D01*
X122920030Y-69542748D01*
X122900857Y-69573127D01*
X122880274Y-69602426D01*
X122858321Y-69630604D01*
X122835042Y-69657619D01*
X122810476Y-69683430D01*
X122784665Y-69707996D01*
X122757650Y-69731275D01*
X122729472Y-69753228D01*
X122700173Y-69773811D01*
X122669794Y-69792984D01*
X122638375Y-69810707D01*
X122605959Y-69826937D01*
X122572585Y-69841633D01*
X122538297Y-69854755D01*
X122503133Y-69866261D01*
X122467137Y-69876110D01*
X122430349Y-69884260D01*
X122392810Y-69890671D01*
X122354562Y-69895301D01*
X122315645Y-69898110D01*
X122276101Y-69899055D01*
X122236557Y-69898110D01*
X122197640Y-69895301D01*
X122159392Y-69890671D01*
X122121853Y-69884260D01*
X122085065Y-69876110D01*
X122049069Y-69866261D01*
X122013905Y-69854755D01*
X121979617Y-69841633D01*
X121946243Y-69826937D01*
X121913827Y-69810707D01*
X121882408Y-69792984D01*
X121852029Y-69773811D01*
X121822730Y-69753228D01*
X121794552Y-69731275D01*
X121767537Y-69707996D01*
X121741726Y-69683430D01*
X121717160Y-69657619D01*
X121693881Y-69630604D01*
X121671928Y-69602426D01*
X121651345Y-69573127D01*
X121632172Y-69542748D01*
X121614449Y-69511329D01*
X121598219Y-69478913D01*
X121583523Y-69445539D01*
X121570401Y-69411251D01*
X121558895Y-69376087D01*
X121549046Y-69340091D01*
X121540896Y-69303303D01*
X121534485Y-69265764D01*
X121529855Y-69227516D01*
X121527046Y-69188599D01*
X121526101Y-69149055D01*
X121526113Y-69148555D01*
X121690601Y-69148555D01*
X121691338Y-69179399D01*
X121693529Y-69209754D01*
X121697141Y-69239588D01*
X121702141Y-69268868D01*
X121708498Y-69297563D01*
X121716181Y-69325640D01*
X121725155Y-69353068D01*
X121735390Y-69379813D01*
X121746853Y-69405844D01*
X121759513Y-69431129D01*
X121773336Y-69455635D01*
X121788291Y-69479331D01*
X121804346Y-69502185D01*
X121821469Y-69524163D01*
X121839627Y-69545235D01*
X121858789Y-69565367D01*
X121878921Y-69584529D01*
X121899993Y-69602687D01*
X121921971Y-69619810D01*
X121944825Y-69635865D01*
X121968521Y-69650820D01*
X121993027Y-69664643D01*
X122018312Y-69677303D01*
X122044343Y-69688766D01*
X122071088Y-69699001D01*
X122098516Y-69707975D01*
X122126593Y-69715658D01*
X122155287Y-69722015D01*
X122184568Y-69727015D01*
X122214402Y-69730627D01*
X122244757Y-69732818D01*
X122275601Y-69733555D01*
X122306445Y-69732818D01*
X122336800Y-69730627D01*
X122366634Y-69727015D01*
X122395914Y-69722015D01*
X122424609Y-69715658D01*
X122452686Y-69707975D01*
X122480113Y-69699001D01*
X122506859Y-69688766D01*
X122532890Y-69677303D01*
X122558175Y-69664643D01*
X122582681Y-69650820D01*
X122606377Y-69635865D01*
X122629230Y-69619810D01*
X122651209Y-69602687D01*
X122672281Y-69584529D01*
X122692413Y-69565367D01*
X122711575Y-69545235D01*
X122729733Y-69524163D01*
X122746855Y-69502185D01*
X122762910Y-69479331D01*
X122777866Y-69455635D01*
X122791689Y-69431129D01*
X122804348Y-69405844D01*
X122815812Y-69379813D01*
X122826047Y-69353068D01*
X122835021Y-69325640D01*
X122842703Y-69297563D01*
X122849061Y-69268868D01*
X122854061Y-69239588D01*
X122857673Y-69209754D01*
X122859863Y-69179399D01*
X122860601Y-69148555D01*
X122859863Y-69117711D01*
X122857673Y-69087356D01*
X122854061Y-69057522D01*
X122849061Y-69028242D01*
X122842703Y-68999547D01*
X122835021Y-68971470D01*
X122826047Y-68944042D01*
X122815812Y-68917297D01*
X122804348Y-68891266D01*
X122791689Y-68865981D01*
X122777866Y-68841475D01*
X122762910Y-68817779D01*
X122746855Y-68794925D01*
X122729733Y-68772947D01*
X122711575Y-68751875D01*
X122692413Y-68731742D01*
X122672281Y-68712581D01*
X122651209Y-68694423D01*
X122629230Y-68677300D01*
X122606377Y-68661245D01*
X122582681Y-68646290D01*
X122558175Y-68632467D01*
X122532890Y-68619807D01*
X122506859Y-68608344D01*
X122480113Y-68598109D01*
X122452686Y-68589134D01*
X122424609Y-68581452D01*
X122395914Y-68575095D01*
X122366634Y-68570094D01*
X122336800Y-68566483D01*
X122306445Y-68564292D01*
X122275601Y-68563555D01*
X122244757Y-68564292D01*
X122214402Y-68566483D01*
X122184568Y-68570094D01*
X122155287Y-68575095D01*
X122126593Y-68581452D01*
X122098516Y-68589134D01*
X122071088Y-68598109D01*
X122044343Y-68608344D01*
X122018312Y-68619807D01*
X121993027Y-68632467D01*
X121968521Y-68646290D01*
X121944825Y-68661245D01*
X121921971Y-68677300D01*
X121899993Y-68694423D01*
X121878921Y-68712581D01*
X121858789Y-68731742D01*
X121839627Y-68751875D01*
X121821469Y-68772947D01*
X121804346Y-68794925D01*
X121788291Y-68817779D01*
X121773336Y-68841475D01*
X121759513Y-68865981D01*
X121746853Y-68891266D01*
X121735390Y-68917297D01*
X121725155Y-68944042D01*
X121716181Y-68971470D01*
X121708498Y-68999547D01*
X121702141Y-69028242D01*
X121697141Y-69057522D01*
X121693529Y-69087356D01*
X121691338Y-69117711D01*
X121690601Y-69148555D01*
X121526113Y-69148555D01*
X121527046Y-69109511D01*
X121529855Y-69070594D01*
X121534485Y-69032346D01*
X121540896Y-68994807D01*
X121549046Y-68958019D01*
X121558895Y-68922023D01*
X121570401Y-68886859D01*
X121583523Y-68852571D01*
X121598219Y-68819197D01*
X121614449Y-68786781D01*
X121632172Y-68755362D01*
X121651345Y-68724983D01*
X121671928Y-68695684D01*
X121693881Y-68667506D01*
X121717160Y-68640491D01*
X121741726Y-68614680D01*
X121767537Y-68590114D01*
X121794552Y-68566835D01*
X121822730Y-68544882D01*
X121852029Y-68524299D01*
X121882408Y-68505126D01*
X121913827Y-68487403D01*
X121946243Y-68471173D01*
X121979617Y-68456477D01*
X122013905Y-68443355D01*
X122049069Y-68431849D01*
X122085065Y-68422000D01*
X122121853Y-68413850D01*
X122159392Y-68407439D01*
X122197640Y-68402809D01*
X122236557Y-68400000D01*
X122276101Y-68399055D01*
X122315645Y-68400000D01*
G37*
D11*
X122652424Y-98104819D02*
X122652424Y-97104819D01*
X122652424Y-97104819D02*
X122985757Y-97819104D01*
X122985757Y-97819104D02*
X123319090Y-97104819D01*
X123319090Y-97104819D02*
X123319090Y-98104819D01*
X123747662Y-97819104D02*
X124223852Y-97819104D01*
X123652424Y-98104819D02*
X123985757Y-97104819D01*
X123985757Y-97104819D02*
X124319090Y-98104819D01*
X124557186Y-97104819D02*
X125223852Y-98104819D01*
X125223852Y-97104819D02*
X124557186Y-98104819D01*
X126366710Y-97723866D02*
X127128615Y-97723866D01*
X128080995Y-97104819D02*
X127604805Y-97104819D01*
X127604805Y-97104819D02*
X127557186Y-97581009D01*
X127557186Y-97581009D02*
X127604805Y-97533390D01*
X127604805Y-97533390D02*
X127700043Y-97485771D01*
X127700043Y-97485771D02*
X127938138Y-97485771D01*
X127938138Y-97485771D02*
X128033376Y-97533390D01*
X128033376Y-97533390D02*
X128080995Y-97581009D01*
X128080995Y-97581009D02*
X128128614Y-97676247D01*
X128128614Y-97676247D02*
X128128614Y-97914342D01*
X128128614Y-97914342D02*
X128080995Y-98009580D01*
X128080995Y-98009580D02*
X128033376Y-98057200D01*
X128033376Y-98057200D02*
X127938138Y-98104819D01*
X127938138Y-98104819D02*
X127700043Y-98104819D01*
X127700043Y-98104819D02*
X127604805Y-98057200D01*
X127604805Y-98057200D02*
X127557186Y-98009580D01*
X128747662Y-97104819D02*
X128842900Y-97104819D01*
X128842900Y-97104819D02*
X128938138Y-97152438D01*
X128938138Y-97152438D02*
X128985757Y-97200057D01*
X128985757Y-97200057D02*
X129033376Y-97295295D01*
X129033376Y-97295295D02*
X129080995Y-97485771D01*
X129080995Y-97485771D02*
X129080995Y-97723866D01*
X129080995Y-97723866D02*
X129033376Y-97914342D01*
X129033376Y-97914342D02*
X128985757Y-98009580D01*
X128985757Y-98009580D02*
X128938138Y-98057200D01*
X128938138Y-98057200D02*
X128842900Y-98104819D01*
X128842900Y-98104819D02*
X128747662Y-98104819D01*
X128747662Y-98104819D02*
X128652424Y-98057200D01*
X128652424Y-98057200D02*
X128604805Y-98009580D01*
X128604805Y-98009580D02*
X128557186Y-97914342D01*
X128557186Y-97914342D02*
X128509567Y-97723866D01*
X128509567Y-97723866D02*
X128509567Y-97485771D01*
X128509567Y-97485771D02*
X128557186Y-97295295D01*
X128557186Y-97295295D02*
X128604805Y-97200057D01*
X128604805Y-97200057D02*
X128652424Y-97152438D01*
X128652424Y-97152438D02*
X128747662Y-97104819D01*
X130128615Y-97438152D02*
X130509567Y-97438152D01*
X130271472Y-97104819D02*
X130271472Y-97961961D01*
X130271472Y-97961961D02*
X130319091Y-98057200D01*
X130319091Y-98057200D02*
X130414329Y-98104819D01*
X130414329Y-98104819D02*
X130509567Y-98104819D01*
X130985758Y-98104819D02*
X130890520Y-98057200D01*
X130890520Y-98057200D02*
X130842901Y-98009580D01*
X130842901Y-98009580D02*
X130795282Y-97914342D01*
X130795282Y-97914342D02*
X130795282Y-97628628D01*
X130795282Y-97628628D02*
X130842901Y-97533390D01*
X130842901Y-97533390D02*
X130890520Y-97485771D01*
X130890520Y-97485771D02*
X130985758Y-97438152D01*
X130985758Y-97438152D02*
X131128615Y-97438152D01*
X131128615Y-97438152D02*
X131223853Y-97485771D01*
X131223853Y-97485771D02*
X131271472Y-97533390D01*
X131271472Y-97533390D02*
X131319091Y-97628628D01*
X131319091Y-97628628D02*
X131319091Y-97914342D01*
X131319091Y-97914342D02*
X131271472Y-98009580D01*
X131271472Y-98009580D02*
X131223853Y-98057200D01*
X131223853Y-98057200D02*
X131128615Y-98104819D01*
X131128615Y-98104819D02*
X130985758Y-98104819D01*
X132509568Y-97723866D02*
X133271473Y-97723866D01*
X132890520Y-98104819D02*
X132890520Y-97342914D01*
X134223853Y-97104819D02*
X133747663Y-97104819D01*
X133747663Y-97104819D02*
X133700044Y-97581009D01*
X133700044Y-97581009D02*
X133747663Y-97533390D01*
X133747663Y-97533390D02*
X133842901Y-97485771D01*
X133842901Y-97485771D02*
X134080996Y-97485771D01*
X134080996Y-97485771D02*
X134176234Y-97533390D01*
X134176234Y-97533390D02*
X134223853Y-97581009D01*
X134223853Y-97581009D02*
X134271472Y-97676247D01*
X134271472Y-97676247D02*
X134271472Y-97914342D01*
X134271472Y-97914342D02*
X134223853Y-98009580D01*
X134223853Y-98009580D02*
X134176234Y-98057200D01*
X134176234Y-98057200D02*
X134080996Y-98104819D01*
X134080996Y-98104819D02*
X133842901Y-98104819D01*
X133842901Y-98104819D02*
X133747663Y-98057200D01*
X133747663Y-98057200D02*
X133700044Y-98009580D01*
X134890520Y-97104819D02*
X134985758Y-97104819D01*
X134985758Y-97104819D02*
X135080996Y-97152438D01*
X135080996Y-97152438D02*
X135128615Y-97200057D01*
X135128615Y-97200057D02*
X135176234Y-97295295D01*
X135176234Y-97295295D02*
X135223853Y-97485771D01*
X135223853Y-97485771D02*
X135223853Y-97723866D01*
X135223853Y-97723866D02*
X135176234Y-97914342D01*
X135176234Y-97914342D02*
X135128615Y-98009580D01*
X135128615Y-98009580D02*
X135080996Y-98057200D01*
X135080996Y-98057200D02*
X134985758Y-98104819D01*
X134985758Y-98104819D02*
X134890520Y-98104819D01*
X134890520Y-98104819D02*
X134795282Y-98057200D01*
X134795282Y-98057200D02*
X134747663Y-98009580D01*
X134747663Y-98009580D02*
X134700044Y-97914342D01*
X134700044Y-97914342D02*
X134652425Y-97723866D01*
X134652425Y-97723866D02*
X134652425Y-97485771D01*
X134652425Y-97485771D02*
X134700044Y-97295295D01*
X134700044Y-97295295D02*
X134747663Y-97200057D01*
X134747663Y-97200057D02*
X134795282Y-97152438D01*
X134795282Y-97152438D02*
X134890520Y-97104819D01*
X136271473Y-97104819D02*
X136604806Y-98104819D01*
X136604806Y-98104819D02*
X136938139Y-97104819D01*
X138223854Y-97104819D02*
X138414330Y-97104819D01*
X138414330Y-97104819D02*
X138509568Y-97152438D01*
X138509568Y-97152438D02*
X138604806Y-97247676D01*
X138604806Y-97247676D02*
X138652425Y-97438152D01*
X138652425Y-97438152D02*
X138652425Y-97771485D01*
X138652425Y-97771485D02*
X138604806Y-97961961D01*
X138604806Y-97961961D02*
X138509568Y-98057200D01*
X138509568Y-98057200D02*
X138414330Y-98104819D01*
X138414330Y-98104819D02*
X138223854Y-98104819D01*
X138223854Y-98104819D02*
X138128616Y-98057200D01*
X138128616Y-98057200D02*
X138033378Y-97961961D01*
X138033378Y-97961961D02*
X137985759Y-97771485D01*
X137985759Y-97771485D02*
X137985759Y-97438152D01*
X137985759Y-97438152D02*
X138033378Y-97247676D01*
X138033378Y-97247676D02*
X138128616Y-97152438D01*
X138128616Y-97152438D02*
X138223854Y-97104819D01*
X139080997Y-98104819D02*
X139080997Y-97104819D01*
X139080997Y-97104819D02*
X139652425Y-98104819D01*
X139652425Y-98104819D02*
X139652425Y-97104819D01*
X140890521Y-98104819D02*
X140890521Y-97104819D01*
X141366711Y-98104819D02*
X141366711Y-97104819D01*
X141366711Y-97104819D02*
X141938139Y-98104819D01*
X141938139Y-98104819D02*
X141938139Y-97104819D01*
X142414330Y-98104819D02*
X142414330Y-97104819D01*
X142414330Y-97104819D02*
X142795282Y-97104819D01*
X142795282Y-97104819D02*
X142890520Y-97152438D01*
X142890520Y-97152438D02*
X142938139Y-97200057D01*
X142938139Y-97200057D02*
X142985758Y-97295295D01*
X142985758Y-97295295D02*
X142985758Y-97438152D01*
X142985758Y-97438152D02*
X142938139Y-97533390D01*
X142938139Y-97533390D02*
X142890520Y-97581009D01*
X142890520Y-97581009D02*
X142795282Y-97628628D01*
X142795282Y-97628628D02*
X142414330Y-97628628D01*
X143414330Y-97104819D02*
X143414330Y-97914342D01*
X143414330Y-97914342D02*
X143461949Y-98009580D01*
X143461949Y-98009580D02*
X143509568Y-98057200D01*
X143509568Y-98057200D02*
X143604806Y-98104819D01*
X143604806Y-98104819D02*
X143795282Y-98104819D01*
X143795282Y-98104819D02*
X143890520Y-98057200D01*
X143890520Y-98057200D02*
X143938139Y-98009580D01*
X143938139Y-98009580D02*
X143985758Y-97914342D01*
X143985758Y-97914342D02*
X143985758Y-97104819D01*
X144319092Y-97104819D02*
X144890520Y-97104819D01*
X144604806Y-98104819D02*
X144604806Y-97104819D01*
X146176235Y-97104819D02*
X146366711Y-97104819D01*
X146366711Y-97104819D02*
X146461949Y-97152438D01*
X146461949Y-97152438D02*
X146557187Y-97247676D01*
X146557187Y-97247676D02*
X146604806Y-97438152D01*
X146604806Y-97438152D02*
X146604806Y-97771485D01*
X146604806Y-97771485D02*
X146557187Y-97961961D01*
X146557187Y-97961961D02*
X146461949Y-98057200D01*
X146461949Y-98057200D02*
X146366711Y-98104819D01*
X146366711Y-98104819D02*
X146176235Y-98104819D01*
X146176235Y-98104819D02*
X146080997Y-98057200D01*
X146080997Y-98057200D02*
X145985759Y-97961961D01*
X145985759Y-97961961D02*
X145938140Y-97771485D01*
X145938140Y-97771485D02*
X145938140Y-97438152D01*
X145938140Y-97438152D02*
X145985759Y-97247676D01*
X145985759Y-97247676D02*
X146080997Y-97152438D01*
X146080997Y-97152438D02*
X146176235Y-97104819D01*
X147033378Y-98104819D02*
X147033378Y-97104819D01*
X147033378Y-97104819D02*
X147604806Y-98104819D01*
X147604806Y-98104819D02*
X147604806Y-97104819D01*
X148557187Y-98104819D02*
X148080997Y-98104819D01*
X148080997Y-98104819D02*
X148080997Y-97104819D01*
X149080997Y-97628628D02*
X149080997Y-98104819D01*
X148747664Y-97104819D02*
X149080997Y-97628628D01*
X149080997Y-97628628D02*
X149414330Y-97104819D01*
X136440465Y-91319048D02*
X135964274Y-91652381D01*
X136440465Y-91890476D02*
X135440465Y-91890476D01*
X135440465Y-91890476D02*
X135440465Y-91509524D01*
X135440465Y-91509524D02*
X135488084Y-91414286D01*
X135488084Y-91414286D02*
X135535703Y-91366667D01*
X135535703Y-91366667D02*
X135630941Y-91319048D01*
X135630941Y-91319048D02*
X135773798Y-91319048D01*
X135773798Y-91319048D02*
X135869036Y-91366667D01*
X135869036Y-91366667D02*
X135916655Y-91414286D01*
X135916655Y-91414286D02*
X135964274Y-91509524D01*
X135964274Y-91509524D02*
X135964274Y-91890476D01*
X135440465Y-90985714D02*
X135440465Y-90366667D01*
X135440465Y-90366667D02*
X135821417Y-90700000D01*
X135821417Y-90700000D02*
X135821417Y-90557143D01*
X135821417Y-90557143D02*
X135869036Y-90461905D01*
X135869036Y-90461905D02*
X135916655Y-90414286D01*
X135916655Y-90414286D02*
X136011893Y-90366667D01*
X136011893Y-90366667D02*
X136249988Y-90366667D01*
X136249988Y-90366667D02*
X136345226Y-90414286D01*
X136345226Y-90414286D02*
X136392846Y-90461905D01*
X136392846Y-90461905D02*
X136440465Y-90557143D01*
X136440465Y-90557143D02*
X136440465Y-90842857D01*
X136440465Y-90842857D02*
X136392846Y-90938095D01*
X136392846Y-90938095D02*
X136345226Y-90985714D01*
X135440465Y-89747619D02*
X135440465Y-89652381D01*
X135440465Y-89652381D02*
X135488084Y-89557143D01*
X135488084Y-89557143D02*
X135535703Y-89509524D01*
X135535703Y-89509524D02*
X135630941Y-89461905D01*
X135630941Y-89461905D02*
X135821417Y-89414286D01*
X135821417Y-89414286D02*
X136059512Y-89414286D01*
X136059512Y-89414286D02*
X136249988Y-89461905D01*
X136249988Y-89461905D02*
X136345226Y-89509524D01*
X136345226Y-89509524D02*
X136392846Y-89557143D01*
X136392846Y-89557143D02*
X136440465Y-89652381D01*
X136440465Y-89652381D02*
X136440465Y-89747619D01*
X136440465Y-89747619D02*
X136392846Y-89842857D01*
X136392846Y-89842857D02*
X136345226Y-89890476D01*
X136345226Y-89890476D02*
X136249988Y-89938095D01*
X136249988Y-89938095D02*
X136059512Y-89985714D01*
X136059512Y-89985714D02*
X135821417Y-89985714D01*
X135821417Y-89985714D02*
X135630941Y-89938095D01*
X135630941Y-89938095D02*
X135535703Y-89890476D01*
X135535703Y-89890476D02*
X135488084Y-89842857D01*
X135488084Y-89842857D02*
X135440465Y-89747619D01*
X135535703Y-89033333D02*
X135488084Y-88985714D01*
X135488084Y-88985714D02*
X135440465Y-88890476D01*
X135440465Y-88890476D02*
X135440465Y-88652381D01*
X135440465Y-88652381D02*
X135488084Y-88557143D01*
X135488084Y-88557143D02*
X135535703Y-88509524D01*
X135535703Y-88509524D02*
X135630941Y-88461905D01*
X135630941Y-88461905D02*
X135726179Y-88461905D01*
X135726179Y-88461905D02*
X135869036Y-88509524D01*
X135869036Y-88509524D02*
X136440465Y-89080952D01*
X136440465Y-89080952D02*
X136440465Y-88461905D01*
X150850463Y-78769047D02*
X150374272Y-79102380D01*
X150850463Y-79340475D02*
X149850463Y-79340475D01*
X149850463Y-79340475D02*
X149850463Y-78959523D01*
X149850463Y-78959523D02*
X149898082Y-78864285D01*
X149898082Y-78864285D02*
X149945701Y-78816666D01*
X149945701Y-78816666D02*
X150040939Y-78769047D01*
X150040939Y-78769047D02*
X150183796Y-78769047D01*
X150183796Y-78769047D02*
X150279034Y-78816666D01*
X150279034Y-78816666D02*
X150326653Y-78864285D01*
X150326653Y-78864285D02*
X150374272Y-78959523D01*
X150374272Y-78959523D02*
X150374272Y-79340475D01*
X150183796Y-77911904D02*
X150850463Y-77911904D01*
X149802844Y-78149999D02*
X150517129Y-78388094D01*
X150517129Y-78388094D02*
X150517129Y-77769047D01*
X149850463Y-77197618D02*
X149850463Y-77102380D01*
X149850463Y-77102380D02*
X149898082Y-77007142D01*
X149898082Y-77007142D02*
X149945701Y-76959523D01*
X149945701Y-76959523D02*
X150040939Y-76911904D01*
X150040939Y-76911904D02*
X150231415Y-76864285D01*
X150231415Y-76864285D02*
X150469510Y-76864285D01*
X150469510Y-76864285D02*
X150659986Y-76911904D01*
X150659986Y-76911904D02*
X150755224Y-76959523D01*
X150755224Y-76959523D02*
X150802844Y-77007142D01*
X150802844Y-77007142D02*
X150850463Y-77102380D01*
X150850463Y-77102380D02*
X150850463Y-77197618D01*
X150850463Y-77197618D02*
X150802844Y-77292856D01*
X150802844Y-77292856D02*
X150755224Y-77340475D01*
X150755224Y-77340475D02*
X150659986Y-77388094D01*
X150659986Y-77388094D02*
X150469510Y-77435713D01*
X150469510Y-77435713D02*
X150231415Y-77435713D01*
X150231415Y-77435713D02*
X150040939Y-77388094D01*
X150040939Y-77388094D02*
X149945701Y-77340475D01*
X149945701Y-77340475D02*
X149898082Y-77292856D01*
X149898082Y-77292856D02*
X149850463Y-77197618D01*
X150850463Y-75911904D02*
X150850463Y-76483332D01*
X150850463Y-76197618D02*
X149850463Y-76197618D01*
X149850463Y-76197618D02*
X149993320Y-76292856D01*
X149993320Y-76292856D02*
X150088558Y-76388094D01*
X150088558Y-76388094D02*
X150136177Y-76483332D01*
X156020464Y-68769047D02*
X155544273Y-69102380D01*
X156020464Y-69340475D02*
X155020464Y-69340475D01*
X155020464Y-69340475D02*
X155020464Y-68959523D01*
X155020464Y-68959523D02*
X155068083Y-68864285D01*
X155068083Y-68864285D02*
X155115702Y-68816666D01*
X155115702Y-68816666D02*
X155210940Y-68769047D01*
X155210940Y-68769047D02*
X155353797Y-68769047D01*
X155353797Y-68769047D02*
X155449035Y-68816666D01*
X155449035Y-68816666D02*
X155496654Y-68864285D01*
X155496654Y-68864285D02*
X155544273Y-68959523D01*
X155544273Y-68959523D02*
X155544273Y-69340475D01*
X155020464Y-67864285D02*
X155020464Y-68340475D01*
X155020464Y-68340475D02*
X155496654Y-68388094D01*
X155496654Y-68388094D02*
X155449035Y-68340475D01*
X155449035Y-68340475D02*
X155401416Y-68245237D01*
X155401416Y-68245237D02*
X155401416Y-68007142D01*
X155401416Y-68007142D02*
X155449035Y-67911904D01*
X155449035Y-67911904D02*
X155496654Y-67864285D01*
X155496654Y-67864285D02*
X155591892Y-67816666D01*
X155591892Y-67816666D02*
X155829987Y-67816666D01*
X155829987Y-67816666D02*
X155925225Y-67864285D01*
X155925225Y-67864285D02*
X155972845Y-67911904D01*
X155972845Y-67911904D02*
X156020464Y-68007142D01*
X156020464Y-68007142D02*
X156020464Y-68245237D01*
X156020464Y-68245237D02*
X155972845Y-68340475D01*
X155972845Y-68340475D02*
X155925225Y-68388094D01*
X155020464Y-67197618D02*
X155020464Y-67102380D01*
X155020464Y-67102380D02*
X155068083Y-67007142D01*
X155068083Y-67007142D02*
X155115702Y-66959523D01*
X155115702Y-66959523D02*
X155210940Y-66911904D01*
X155210940Y-66911904D02*
X155401416Y-66864285D01*
X155401416Y-66864285D02*
X155639511Y-66864285D01*
X155639511Y-66864285D02*
X155829987Y-66911904D01*
X155829987Y-66911904D02*
X155925225Y-66959523D01*
X155925225Y-66959523D02*
X155972845Y-67007142D01*
X155972845Y-67007142D02*
X156020464Y-67102380D01*
X156020464Y-67102380D02*
X156020464Y-67197618D01*
X156020464Y-67197618D02*
X155972845Y-67292856D01*
X155972845Y-67292856D02*
X155925225Y-67340475D01*
X155925225Y-67340475D02*
X155829987Y-67388094D01*
X155829987Y-67388094D02*
X155639511Y-67435713D01*
X155639511Y-67435713D02*
X155401416Y-67435713D01*
X155401416Y-67435713D02*
X155210940Y-67388094D01*
X155210940Y-67388094D02*
X155115702Y-67340475D01*
X155115702Y-67340475D02*
X155068083Y-67292856D01*
X155068083Y-67292856D02*
X155020464Y-67197618D01*
X155020464Y-66530951D02*
X155020464Y-65911904D01*
X155020464Y-65911904D02*
X155401416Y-66245237D01*
X155401416Y-66245237D02*
X155401416Y-66102380D01*
X155401416Y-66102380D02*
X155449035Y-66007142D01*
X155449035Y-66007142D02*
X155496654Y-65959523D01*
X155496654Y-65959523D02*
X155591892Y-65911904D01*
X155591892Y-65911904D02*
X155829987Y-65911904D01*
X155829987Y-65911904D02*
X155925225Y-65959523D01*
X155925225Y-65959523D02*
X155972845Y-66007142D01*
X155972845Y-66007142D02*
X156020464Y-66102380D01*
X156020464Y-66102380D02*
X156020464Y-66388094D01*
X156020464Y-66388094D02*
X155972845Y-66483332D01*
X155972845Y-66483332D02*
X155925225Y-66530951D01*
X170518025Y-71950057D02*
X170422787Y-71902438D01*
X170422787Y-71902438D02*
X170327549Y-71807200D01*
X170327549Y-71807200D02*
X170184692Y-71664342D01*
X170184692Y-71664342D02*
X170089454Y-71616723D01*
X170089454Y-71616723D02*
X169994216Y-71616723D01*
X170041835Y-71854819D02*
X169946597Y-71807200D01*
X169946597Y-71807200D02*
X169851359Y-71711961D01*
X169851359Y-71711961D02*
X169803740Y-71521485D01*
X169803740Y-71521485D02*
X169803740Y-71188152D01*
X169803740Y-71188152D02*
X169851359Y-70997676D01*
X169851359Y-70997676D02*
X169946597Y-70902438D01*
X169946597Y-70902438D02*
X170041835Y-70854819D01*
X170041835Y-70854819D02*
X170232311Y-70854819D01*
X170232311Y-70854819D02*
X170327549Y-70902438D01*
X170327549Y-70902438D02*
X170422787Y-70997676D01*
X170422787Y-70997676D02*
X170470406Y-71188152D01*
X170470406Y-71188152D02*
X170470406Y-71521485D01*
X170470406Y-71521485D02*
X170422787Y-71711961D01*
X170422787Y-71711961D02*
X170327549Y-71807200D01*
X170327549Y-71807200D02*
X170232311Y-71854819D01*
X170232311Y-71854819D02*
X170041835Y-71854819D01*
X171327549Y-70854819D02*
X171137073Y-70854819D01*
X171137073Y-70854819D02*
X171041835Y-70902438D01*
X171041835Y-70902438D02*
X170994216Y-70950057D01*
X170994216Y-70950057D02*
X170898978Y-71092914D01*
X170898978Y-71092914D02*
X170851359Y-71283390D01*
X170851359Y-71283390D02*
X170851359Y-71664342D01*
X170851359Y-71664342D02*
X170898978Y-71759580D01*
X170898978Y-71759580D02*
X170946597Y-71807200D01*
X170946597Y-71807200D02*
X171041835Y-71854819D01*
X171041835Y-71854819D02*
X171232311Y-71854819D01*
X171232311Y-71854819D02*
X171327549Y-71807200D01*
X171327549Y-71807200D02*
X171375168Y-71759580D01*
X171375168Y-71759580D02*
X171422787Y-71664342D01*
X171422787Y-71664342D02*
X171422787Y-71426247D01*
X171422787Y-71426247D02*
X171375168Y-71331009D01*
X171375168Y-71331009D02*
X171327549Y-71283390D01*
X171327549Y-71283390D02*
X171232311Y-71235771D01*
X171232311Y-71235771D02*
X171041835Y-71235771D01*
X171041835Y-71235771D02*
X170946597Y-71283390D01*
X170946597Y-71283390D02*
X170898978Y-71331009D01*
X170898978Y-71331009D02*
X170851359Y-71426247D01*
X172041835Y-70854819D02*
X172137073Y-70854819D01*
X172137073Y-70854819D02*
X172232311Y-70902438D01*
X172232311Y-70902438D02*
X172279930Y-70950057D01*
X172279930Y-70950057D02*
X172327549Y-71045295D01*
X172327549Y-71045295D02*
X172375168Y-71235771D01*
X172375168Y-71235771D02*
X172375168Y-71473866D01*
X172375168Y-71473866D02*
X172327549Y-71664342D01*
X172327549Y-71664342D02*
X172279930Y-71759580D01*
X172279930Y-71759580D02*
X172232311Y-71807200D01*
X172232311Y-71807200D02*
X172137073Y-71854819D01*
X172137073Y-71854819D02*
X172041835Y-71854819D01*
X172041835Y-71854819D02*
X171946597Y-71807200D01*
X171946597Y-71807200D02*
X171898978Y-71759580D01*
X171898978Y-71759580D02*
X171851359Y-71664342D01*
X171851359Y-71664342D02*
X171803740Y-71473866D01*
X171803740Y-71473866D02*
X171803740Y-71235771D01*
X171803740Y-71235771D02*
X171851359Y-71045295D01*
X171851359Y-71045295D02*
X171898978Y-70950057D01*
X171898978Y-70950057D02*
X171946597Y-70902438D01*
X171946597Y-70902438D02*
X172041835Y-70854819D01*
X172756121Y-70950057D02*
X172803740Y-70902438D01*
X172803740Y-70902438D02*
X172898978Y-70854819D01*
X172898978Y-70854819D02*
X173137073Y-70854819D01*
X173137073Y-70854819D02*
X173232311Y-70902438D01*
X173232311Y-70902438D02*
X173279930Y-70950057D01*
X173279930Y-70950057D02*
X173327549Y-71045295D01*
X173327549Y-71045295D02*
X173327549Y-71140533D01*
X173327549Y-71140533D02*
X173279930Y-71283390D01*
X173279930Y-71283390D02*
X172708502Y-71854819D01*
X172708502Y-71854819D02*
X173327549Y-71854819D01*
X168080525Y-93000057D02*
X167985287Y-92952438D01*
X167985287Y-92952438D02*
X167890049Y-92857200D01*
X167890049Y-92857200D02*
X167747192Y-92714342D01*
X167747192Y-92714342D02*
X167651954Y-92666723D01*
X167651954Y-92666723D02*
X167556716Y-92666723D01*
X167604335Y-92904819D02*
X167509097Y-92857200D01*
X167509097Y-92857200D02*
X167413859Y-92761961D01*
X167413859Y-92761961D02*
X167366240Y-92571485D01*
X167366240Y-92571485D02*
X167366240Y-92238152D01*
X167366240Y-92238152D02*
X167413859Y-92047676D01*
X167413859Y-92047676D02*
X167509097Y-91952438D01*
X167509097Y-91952438D02*
X167604335Y-91904819D01*
X167604335Y-91904819D02*
X167794811Y-91904819D01*
X167794811Y-91904819D02*
X167890049Y-91952438D01*
X167890049Y-91952438D02*
X167985287Y-92047676D01*
X167985287Y-92047676D02*
X168032906Y-92238152D01*
X168032906Y-92238152D02*
X168032906Y-92571485D01*
X168032906Y-92571485D02*
X167985287Y-92761961D01*
X167985287Y-92761961D02*
X167890049Y-92857200D01*
X167890049Y-92857200D02*
X167794811Y-92904819D01*
X167794811Y-92904819D02*
X167604335Y-92904819D01*
X168890049Y-91904819D02*
X168699573Y-91904819D01*
X168699573Y-91904819D02*
X168604335Y-91952438D01*
X168604335Y-91952438D02*
X168556716Y-92000057D01*
X168556716Y-92000057D02*
X168461478Y-92142914D01*
X168461478Y-92142914D02*
X168413859Y-92333390D01*
X168413859Y-92333390D02*
X168413859Y-92714342D01*
X168413859Y-92714342D02*
X168461478Y-92809580D01*
X168461478Y-92809580D02*
X168509097Y-92857200D01*
X168509097Y-92857200D02*
X168604335Y-92904819D01*
X168604335Y-92904819D02*
X168794811Y-92904819D01*
X168794811Y-92904819D02*
X168890049Y-92857200D01*
X168890049Y-92857200D02*
X168937668Y-92809580D01*
X168937668Y-92809580D02*
X168985287Y-92714342D01*
X168985287Y-92714342D02*
X168985287Y-92476247D01*
X168985287Y-92476247D02*
X168937668Y-92381009D01*
X168937668Y-92381009D02*
X168890049Y-92333390D01*
X168890049Y-92333390D02*
X168794811Y-92285771D01*
X168794811Y-92285771D02*
X168604335Y-92285771D01*
X168604335Y-92285771D02*
X168509097Y-92333390D01*
X168509097Y-92333390D02*
X168461478Y-92381009D01*
X168461478Y-92381009D02*
X168413859Y-92476247D01*
X169604335Y-91904819D02*
X169699573Y-91904819D01*
X169699573Y-91904819D02*
X169794811Y-91952438D01*
X169794811Y-91952438D02*
X169842430Y-92000057D01*
X169842430Y-92000057D02*
X169890049Y-92095295D01*
X169890049Y-92095295D02*
X169937668Y-92285771D01*
X169937668Y-92285771D02*
X169937668Y-92523866D01*
X169937668Y-92523866D02*
X169890049Y-92714342D01*
X169890049Y-92714342D02*
X169842430Y-92809580D01*
X169842430Y-92809580D02*
X169794811Y-92857200D01*
X169794811Y-92857200D02*
X169699573Y-92904819D01*
X169699573Y-92904819D02*
X169604335Y-92904819D01*
X169604335Y-92904819D02*
X169509097Y-92857200D01*
X169509097Y-92857200D02*
X169461478Y-92809580D01*
X169461478Y-92809580D02*
X169413859Y-92714342D01*
X169413859Y-92714342D02*
X169366240Y-92523866D01*
X169366240Y-92523866D02*
X169366240Y-92285771D01*
X169366240Y-92285771D02*
X169413859Y-92095295D01*
X169413859Y-92095295D02*
X169461478Y-92000057D01*
X169461478Y-92000057D02*
X169509097Y-91952438D01*
X169509097Y-91952438D02*
X169604335Y-91904819D01*
X170890049Y-92904819D02*
X170318621Y-92904819D01*
X170604335Y-92904819D02*
X170604335Y-91904819D01*
X170604335Y-91904819D02*
X170509097Y-92047676D01*
X170509097Y-92047676D02*
X170413859Y-92142914D01*
X170413859Y-92142914D02*
X170318621Y-92190533D01*
X147190465Y-90369047D02*
X146714274Y-90702380D01*
X147190465Y-90940475D02*
X146190465Y-90940475D01*
X146190465Y-90940475D02*
X146190465Y-90559523D01*
X146190465Y-90559523D02*
X146238084Y-90464285D01*
X146238084Y-90464285D02*
X146285703Y-90416666D01*
X146285703Y-90416666D02*
X146380941Y-90369047D01*
X146380941Y-90369047D02*
X146523798Y-90369047D01*
X146523798Y-90369047D02*
X146619036Y-90416666D01*
X146619036Y-90416666D02*
X146666655Y-90464285D01*
X146666655Y-90464285D02*
X146714274Y-90559523D01*
X146714274Y-90559523D02*
X146714274Y-90940475D01*
X146190465Y-89464285D02*
X146190465Y-89940475D01*
X146190465Y-89940475D02*
X146666655Y-89988094D01*
X146666655Y-89988094D02*
X146619036Y-89940475D01*
X146619036Y-89940475D02*
X146571417Y-89845237D01*
X146571417Y-89845237D02*
X146571417Y-89607142D01*
X146571417Y-89607142D02*
X146619036Y-89511904D01*
X146619036Y-89511904D02*
X146666655Y-89464285D01*
X146666655Y-89464285D02*
X146761893Y-89416666D01*
X146761893Y-89416666D02*
X146999988Y-89416666D01*
X146999988Y-89416666D02*
X147095226Y-89464285D01*
X147095226Y-89464285D02*
X147142846Y-89511904D01*
X147142846Y-89511904D02*
X147190465Y-89607142D01*
X147190465Y-89607142D02*
X147190465Y-89845237D01*
X147190465Y-89845237D02*
X147142846Y-89940475D01*
X147142846Y-89940475D02*
X147095226Y-89988094D01*
X146190465Y-88797618D02*
X146190465Y-88702380D01*
X146190465Y-88702380D02*
X146238084Y-88607142D01*
X146238084Y-88607142D02*
X146285703Y-88559523D01*
X146285703Y-88559523D02*
X146380941Y-88511904D01*
X146380941Y-88511904D02*
X146571417Y-88464285D01*
X146571417Y-88464285D02*
X146809512Y-88464285D01*
X146809512Y-88464285D02*
X146999988Y-88511904D01*
X146999988Y-88511904D02*
X147095226Y-88559523D01*
X147095226Y-88559523D02*
X147142846Y-88607142D01*
X147142846Y-88607142D02*
X147190465Y-88702380D01*
X147190465Y-88702380D02*
X147190465Y-88797618D01*
X147190465Y-88797618D02*
X147142846Y-88892856D01*
X147142846Y-88892856D02*
X147095226Y-88940475D01*
X147095226Y-88940475D02*
X146999988Y-88988094D01*
X146999988Y-88988094D02*
X146809512Y-89035713D01*
X146809512Y-89035713D02*
X146571417Y-89035713D01*
X146571417Y-89035713D02*
X146380941Y-88988094D01*
X146380941Y-88988094D02*
X146285703Y-88940475D01*
X146285703Y-88940475D02*
X146238084Y-88892856D01*
X146238084Y-88892856D02*
X146190465Y-88797618D01*
X146190465Y-87559523D02*
X146190465Y-88035713D01*
X146190465Y-88035713D02*
X146666655Y-88083332D01*
X146666655Y-88083332D02*
X146619036Y-88035713D01*
X146619036Y-88035713D02*
X146571417Y-87940475D01*
X146571417Y-87940475D02*
X146571417Y-87702380D01*
X146571417Y-87702380D02*
X146619036Y-87607142D01*
X146619036Y-87607142D02*
X146666655Y-87559523D01*
X146666655Y-87559523D02*
X146761893Y-87511904D01*
X146761893Y-87511904D02*
X146999988Y-87511904D01*
X146999988Y-87511904D02*
X147095226Y-87559523D01*
X147095226Y-87559523D02*
X147142846Y-87607142D01*
X147142846Y-87607142D02*
X147190465Y-87702380D01*
X147190465Y-87702380D02*
X147190465Y-87940475D01*
X147190465Y-87940475D02*
X147142846Y-88035713D01*
X147142846Y-88035713D02*
X147095226Y-88083332D01*
X136520464Y-76019047D02*
X136044273Y-76352380D01*
X136520464Y-76590475D02*
X135520464Y-76590475D01*
X135520464Y-76590475D02*
X135520464Y-76209523D01*
X135520464Y-76209523D02*
X135568083Y-76114285D01*
X135568083Y-76114285D02*
X135615702Y-76066666D01*
X135615702Y-76066666D02*
X135710940Y-76019047D01*
X135710940Y-76019047D02*
X135853797Y-76019047D01*
X135853797Y-76019047D02*
X135949035Y-76066666D01*
X135949035Y-76066666D02*
X135996654Y-76114285D01*
X135996654Y-76114285D02*
X136044273Y-76209523D01*
X136044273Y-76209523D02*
X136044273Y-76590475D01*
X135520464Y-75685713D02*
X135520464Y-75066666D01*
X135520464Y-75066666D02*
X135901416Y-75399999D01*
X135901416Y-75399999D02*
X135901416Y-75257142D01*
X135901416Y-75257142D02*
X135949035Y-75161904D01*
X135949035Y-75161904D02*
X135996654Y-75114285D01*
X135996654Y-75114285D02*
X136091892Y-75066666D01*
X136091892Y-75066666D02*
X136329987Y-75066666D01*
X136329987Y-75066666D02*
X136425225Y-75114285D01*
X136425225Y-75114285D02*
X136472845Y-75161904D01*
X136472845Y-75161904D02*
X136520464Y-75257142D01*
X136520464Y-75257142D02*
X136520464Y-75542856D01*
X136520464Y-75542856D02*
X136472845Y-75638094D01*
X136472845Y-75638094D02*
X136425225Y-75685713D01*
X135520464Y-74447618D02*
X135520464Y-74352380D01*
X135520464Y-74352380D02*
X135568083Y-74257142D01*
X135568083Y-74257142D02*
X135615702Y-74209523D01*
X135615702Y-74209523D02*
X135710940Y-74161904D01*
X135710940Y-74161904D02*
X135901416Y-74114285D01*
X135901416Y-74114285D02*
X136139511Y-74114285D01*
X136139511Y-74114285D02*
X136329987Y-74161904D01*
X136329987Y-74161904D02*
X136425225Y-74209523D01*
X136425225Y-74209523D02*
X136472845Y-74257142D01*
X136472845Y-74257142D02*
X136520464Y-74352380D01*
X136520464Y-74352380D02*
X136520464Y-74447618D01*
X136520464Y-74447618D02*
X136472845Y-74542856D01*
X136472845Y-74542856D02*
X136425225Y-74590475D01*
X136425225Y-74590475D02*
X136329987Y-74638094D01*
X136329987Y-74638094D02*
X136139511Y-74685713D01*
X136139511Y-74685713D02*
X135901416Y-74685713D01*
X135901416Y-74685713D02*
X135710940Y-74638094D01*
X135710940Y-74638094D02*
X135615702Y-74590475D01*
X135615702Y-74590475D02*
X135568083Y-74542856D01*
X135568083Y-74542856D02*
X135520464Y-74447618D01*
X135853797Y-73257142D02*
X136520464Y-73257142D01*
X135472845Y-73495237D02*
X136187130Y-73733332D01*
X136187130Y-73733332D02*
X136187130Y-73114285D01*
X159846597Y-76379580D02*
X159798978Y-76427200D01*
X159798978Y-76427200D02*
X159656121Y-76474819D01*
X159656121Y-76474819D02*
X159560883Y-76474819D01*
X159560883Y-76474819D02*
X159418026Y-76427200D01*
X159418026Y-76427200D02*
X159322788Y-76331961D01*
X159322788Y-76331961D02*
X159275169Y-76236723D01*
X159275169Y-76236723D02*
X159227550Y-76046247D01*
X159227550Y-76046247D02*
X159227550Y-75903390D01*
X159227550Y-75903390D02*
X159275169Y-75712914D01*
X159275169Y-75712914D02*
X159322788Y-75617676D01*
X159322788Y-75617676D02*
X159418026Y-75522438D01*
X159418026Y-75522438D02*
X159560883Y-75474819D01*
X159560883Y-75474819D02*
X159656121Y-75474819D01*
X159656121Y-75474819D02*
X159798978Y-75522438D01*
X159798978Y-75522438D02*
X159846597Y-75570057D01*
X160751359Y-75474819D02*
X160275169Y-75474819D01*
X160275169Y-75474819D02*
X160227550Y-75951009D01*
X160227550Y-75951009D02*
X160275169Y-75903390D01*
X160275169Y-75903390D02*
X160370407Y-75855771D01*
X160370407Y-75855771D02*
X160608502Y-75855771D01*
X160608502Y-75855771D02*
X160703740Y-75903390D01*
X160703740Y-75903390D02*
X160751359Y-75951009D01*
X160751359Y-75951009D02*
X160798978Y-76046247D01*
X160798978Y-76046247D02*
X160798978Y-76284342D01*
X160798978Y-76284342D02*
X160751359Y-76379580D01*
X160751359Y-76379580D02*
X160703740Y-76427200D01*
X160703740Y-76427200D02*
X160608502Y-76474819D01*
X160608502Y-76474819D02*
X160370407Y-76474819D01*
X160370407Y-76474819D02*
X160275169Y-76427200D01*
X160275169Y-76427200D02*
X160227550Y-76379580D01*
X161418026Y-75474819D02*
X161513264Y-75474819D01*
X161513264Y-75474819D02*
X161608502Y-75522438D01*
X161608502Y-75522438D02*
X161656121Y-75570057D01*
X161656121Y-75570057D02*
X161703740Y-75665295D01*
X161703740Y-75665295D02*
X161751359Y-75855771D01*
X161751359Y-75855771D02*
X161751359Y-76093866D01*
X161751359Y-76093866D02*
X161703740Y-76284342D01*
X161703740Y-76284342D02*
X161656121Y-76379580D01*
X161656121Y-76379580D02*
X161608502Y-76427200D01*
X161608502Y-76427200D02*
X161513264Y-76474819D01*
X161513264Y-76474819D02*
X161418026Y-76474819D01*
X161418026Y-76474819D02*
X161322788Y-76427200D01*
X161322788Y-76427200D02*
X161275169Y-76379580D01*
X161275169Y-76379580D02*
X161227550Y-76284342D01*
X161227550Y-76284342D02*
X161179931Y-76093866D01*
X161179931Y-76093866D02*
X161179931Y-75855771D01*
X161179931Y-75855771D02*
X161227550Y-75665295D01*
X161227550Y-75665295D02*
X161275169Y-75570057D01*
X161275169Y-75570057D02*
X161322788Y-75522438D01*
X161322788Y-75522438D02*
X161418026Y-75474819D01*
X162132312Y-75570057D02*
X162179931Y-75522438D01*
X162179931Y-75522438D02*
X162275169Y-75474819D01*
X162275169Y-75474819D02*
X162513264Y-75474819D01*
X162513264Y-75474819D02*
X162608502Y-75522438D01*
X162608502Y-75522438D02*
X162656121Y-75570057D01*
X162656121Y-75570057D02*
X162703740Y-75665295D01*
X162703740Y-75665295D02*
X162703740Y-75760533D01*
X162703740Y-75760533D02*
X162656121Y-75903390D01*
X162656121Y-75903390D02*
X162084693Y-76474819D01*
X162084693Y-76474819D02*
X162703740Y-76474819D01*
X159846597Y-89409580D02*
X159798978Y-89457200D01*
X159798978Y-89457200D02*
X159656121Y-89504819D01*
X159656121Y-89504819D02*
X159560883Y-89504819D01*
X159560883Y-89504819D02*
X159418026Y-89457200D01*
X159418026Y-89457200D02*
X159322788Y-89361961D01*
X159322788Y-89361961D02*
X159275169Y-89266723D01*
X159275169Y-89266723D02*
X159227550Y-89076247D01*
X159227550Y-89076247D02*
X159227550Y-88933390D01*
X159227550Y-88933390D02*
X159275169Y-88742914D01*
X159275169Y-88742914D02*
X159322788Y-88647676D01*
X159322788Y-88647676D02*
X159418026Y-88552438D01*
X159418026Y-88552438D02*
X159560883Y-88504819D01*
X159560883Y-88504819D02*
X159656121Y-88504819D01*
X159656121Y-88504819D02*
X159798978Y-88552438D01*
X159798978Y-88552438D02*
X159846597Y-88600057D01*
X160751359Y-88504819D02*
X160275169Y-88504819D01*
X160275169Y-88504819D02*
X160227550Y-88981009D01*
X160227550Y-88981009D02*
X160275169Y-88933390D01*
X160275169Y-88933390D02*
X160370407Y-88885771D01*
X160370407Y-88885771D02*
X160608502Y-88885771D01*
X160608502Y-88885771D02*
X160703740Y-88933390D01*
X160703740Y-88933390D02*
X160751359Y-88981009D01*
X160751359Y-88981009D02*
X160798978Y-89076247D01*
X160798978Y-89076247D02*
X160798978Y-89314342D01*
X160798978Y-89314342D02*
X160751359Y-89409580D01*
X160751359Y-89409580D02*
X160703740Y-89457200D01*
X160703740Y-89457200D02*
X160608502Y-89504819D01*
X160608502Y-89504819D02*
X160370407Y-89504819D01*
X160370407Y-89504819D02*
X160275169Y-89457200D01*
X160275169Y-89457200D02*
X160227550Y-89409580D01*
X161418026Y-88504819D02*
X161513264Y-88504819D01*
X161513264Y-88504819D02*
X161608502Y-88552438D01*
X161608502Y-88552438D02*
X161656121Y-88600057D01*
X161656121Y-88600057D02*
X161703740Y-88695295D01*
X161703740Y-88695295D02*
X161751359Y-88885771D01*
X161751359Y-88885771D02*
X161751359Y-89123866D01*
X161751359Y-89123866D02*
X161703740Y-89314342D01*
X161703740Y-89314342D02*
X161656121Y-89409580D01*
X161656121Y-89409580D02*
X161608502Y-89457200D01*
X161608502Y-89457200D02*
X161513264Y-89504819D01*
X161513264Y-89504819D02*
X161418026Y-89504819D01*
X161418026Y-89504819D02*
X161322788Y-89457200D01*
X161322788Y-89457200D02*
X161275169Y-89409580D01*
X161275169Y-89409580D02*
X161227550Y-89314342D01*
X161227550Y-89314342D02*
X161179931Y-89123866D01*
X161179931Y-89123866D02*
X161179931Y-88885771D01*
X161179931Y-88885771D02*
X161227550Y-88695295D01*
X161227550Y-88695295D02*
X161275169Y-88600057D01*
X161275169Y-88600057D02*
X161322788Y-88552438D01*
X161322788Y-88552438D02*
X161418026Y-88504819D01*
X162703740Y-89504819D02*
X162132312Y-89504819D01*
X162418026Y-89504819D02*
X162418026Y-88504819D01*
X162418026Y-88504819D02*
X162322788Y-88647676D01*
X162322788Y-88647676D02*
X162227550Y-88742914D01*
X162227550Y-88742914D02*
X162132312Y-88790533D01*
X124979930Y-68604819D02*
X124979930Y-69319104D01*
X124979930Y-69319104D02*
X124932311Y-69461961D01*
X124932311Y-69461961D02*
X124837073Y-69557200D01*
X124837073Y-69557200D02*
X124694216Y-69604819D01*
X124694216Y-69604819D02*
X124598978Y-69604819D01*
X125979930Y-69604819D02*
X125408502Y-69604819D01*
X125694216Y-69604819D02*
X125694216Y-68604819D01*
X125694216Y-68604819D02*
X125598978Y-68747676D01*
X125598978Y-68747676D02*
X125503740Y-68842914D01*
X125503740Y-68842914D02*
X125408502Y-68890533D01*
X126598978Y-68604819D02*
X126694216Y-68604819D01*
X126694216Y-68604819D02*
X126789454Y-68652438D01*
X126789454Y-68652438D02*
X126837073Y-68700057D01*
X126837073Y-68700057D02*
X126884692Y-68795295D01*
X126884692Y-68795295D02*
X126932311Y-68985771D01*
X126932311Y-68985771D02*
X126932311Y-69223866D01*
X126932311Y-69223866D02*
X126884692Y-69414342D01*
X126884692Y-69414342D02*
X126837073Y-69509580D01*
X126837073Y-69509580D02*
X126789454Y-69557200D01*
X126789454Y-69557200D02*
X126694216Y-69604819D01*
X126694216Y-69604819D02*
X126598978Y-69604819D01*
X126598978Y-69604819D02*
X126503740Y-69557200D01*
X126503740Y-69557200D02*
X126456121Y-69509580D01*
X126456121Y-69509580D02*
X126408502Y-69414342D01*
X126408502Y-69414342D02*
X126360883Y-69223866D01*
X126360883Y-69223866D02*
X126360883Y-68985771D01*
X126360883Y-68985771D02*
X126408502Y-68795295D01*
X126408502Y-68795295D02*
X126456121Y-68700057D01*
X126456121Y-68700057D02*
X126503740Y-68652438D01*
X126503740Y-68652438D02*
X126598978Y-68604819D01*
X127884692Y-69604819D02*
X127313264Y-69604819D01*
X127598978Y-69604819D02*
X127598978Y-68604819D01*
X127598978Y-68604819D02*
X127503740Y-68747676D01*
X127503740Y-68747676D02*
X127408502Y-68842914D01*
X127408502Y-68842914D02*
X127313264Y-68890533D01*
X164590465Y-93419046D02*
X164114274Y-93752379D01*
X164590465Y-93990474D02*
X163590465Y-93990474D01*
X163590465Y-93990474D02*
X163590465Y-93609522D01*
X163590465Y-93609522D02*
X163638084Y-93514284D01*
X163638084Y-93514284D02*
X163685703Y-93466665D01*
X163685703Y-93466665D02*
X163780941Y-93419046D01*
X163780941Y-93419046D02*
X163923798Y-93419046D01*
X163923798Y-93419046D02*
X164019036Y-93466665D01*
X164019036Y-93466665D02*
X164066655Y-93514284D01*
X164066655Y-93514284D02*
X164114274Y-93609522D01*
X164114274Y-93609522D02*
X164114274Y-93990474D01*
X163590465Y-92561903D02*
X163590465Y-92752379D01*
X163590465Y-92752379D02*
X163638084Y-92847617D01*
X163638084Y-92847617D02*
X163685703Y-92895236D01*
X163685703Y-92895236D02*
X163828560Y-92990474D01*
X163828560Y-92990474D02*
X164019036Y-93038093D01*
X164019036Y-93038093D02*
X164399988Y-93038093D01*
X164399988Y-93038093D02*
X164495226Y-92990474D01*
X164495226Y-92990474D02*
X164542846Y-92942855D01*
X164542846Y-92942855D02*
X164590465Y-92847617D01*
X164590465Y-92847617D02*
X164590465Y-92657141D01*
X164590465Y-92657141D02*
X164542846Y-92561903D01*
X164542846Y-92561903D02*
X164495226Y-92514284D01*
X164495226Y-92514284D02*
X164399988Y-92466665D01*
X164399988Y-92466665D02*
X164161893Y-92466665D01*
X164161893Y-92466665D02*
X164066655Y-92514284D01*
X164066655Y-92514284D02*
X164019036Y-92561903D01*
X164019036Y-92561903D02*
X163971417Y-92657141D01*
X163971417Y-92657141D02*
X163971417Y-92847617D01*
X163971417Y-92847617D02*
X164019036Y-92942855D01*
X164019036Y-92942855D02*
X164066655Y-92990474D01*
X164066655Y-92990474D02*
X164161893Y-93038093D01*
X163590465Y-91847617D02*
X163590465Y-91752379D01*
X163590465Y-91752379D02*
X163638084Y-91657141D01*
X163638084Y-91657141D02*
X163685703Y-91609522D01*
X163685703Y-91609522D02*
X163780941Y-91561903D01*
X163780941Y-91561903D02*
X163971417Y-91514284D01*
X163971417Y-91514284D02*
X164209512Y-91514284D01*
X164209512Y-91514284D02*
X164399988Y-91561903D01*
X164399988Y-91561903D02*
X164495226Y-91609522D01*
X164495226Y-91609522D02*
X164542846Y-91657141D01*
X164542846Y-91657141D02*
X164590465Y-91752379D01*
X164590465Y-91752379D02*
X164590465Y-91847617D01*
X164590465Y-91847617D02*
X164542846Y-91942855D01*
X164542846Y-91942855D02*
X164495226Y-91990474D01*
X164495226Y-91990474D02*
X164399988Y-92038093D01*
X164399988Y-92038093D02*
X164209512Y-92085712D01*
X164209512Y-92085712D02*
X163971417Y-92085712D01*
X163971417Y-92085712D02*
X163780941Y-92038093D01*
X163780941Y-92038093D02*
X163685703Y-91990474D01*
X163685703Y-91990474D02*
X163638084Y-91942855D01*
X163638084Y-91942855D02*
X163590465Y-91847617D01*
X163685703Y-91133331D02*
X163638084Y-91085712D01*
X163638084Y-91085712D02*
X163590465Y-90990474D01*
X163590465Y-90990474D02*
X163590465Y-90752379D01*
X163590465Y-90752379D02*
X163638084Y-90657141D01*
X163638084Y-90657141D02*
X163685703Y-90609522D01*
X163685703Y-90609522D02*
X163780941Y-90561903D01*
X163780941Y-90561903D02*
X163876179Y-90561903D01*
X163876179Y-90561903D02*
X164019036Y-90609522D01*
X164019036Y-90609522D02*
X164590465Y-91180950D01*
X164590465Y-91180950D02*
X164590465Y-90561903D01*
X170190465Y-69269047D02*
X169714274Y-69602380D01*
X170190465Y-69840475D02*
X169190465Y-69840475D01*
X169190465Y-69840475D02*
X169190465Y-69459523D01*
X169190465Y-69459523D02*
X169238084Y-69364285D01*
X169238084Y-69364285D02*
X169285703Y-69316666D01*
X169285703Y-69316666D02*
X169380941Y-69269047D01*
X169380941Y-69269047D02*
X169523798Y-69269047D01*
X169523798Y-69269047D02*
X169619036Y-69316666D01*
X169619036Y-69316666D02*
X169666655Y-69364285D01*
X169666655Y-69364285D02*
X169714274Y-69459523D01*
X169714274Y-69459523D02*
X169714274Y-69840475D01*
X169190465Y-68411904D02*
X169190465Y-68602380D01*
X169190465Y-68602380D02*
X169238084Y-68697618D01*
X169238084Y-68697618D02*
X169285703Y-68745237D01*
X169285703Y-68745237D02*
X169428560Y-68840475D01*
X169428560Y-68840475D02*
X169619036Y-68888094D01*
X169619036Y-68888094D02*
X169999988Y-68888094D01*
X169999988Y-68888094D02*
X170095226Y-68840475D01*
X170095226Y-68840475D02*
X170142846Y-68792856D01*
X170142846Y-68792856D02*
X170190465Y-68697618D01*
X170190465Y-68697618D02*
X170190465Y-68507142D01*
X170190465Y-68507142D02*
X170142846Y-68411904D01*
X170142846Y-68411904D02*
X170095226Y-68364285D01*
X170095226Y-68364285D02*
X169999988Y-68316666D01*
X169999988Y-68316666D02*
X169761893Y-68316666D01*
X169761893Y-68316666D02*
X169666655Y-68364285D01*
X169666655Y-68364285D02*
X169619036Y-68411904D01*
X169619036Y-68411904D02*
X169571417Y-68507142D01*
X169571417Y-68507142D02*
X169571417Y-68697618D01*
X169571417Y-68697618D02*
X169619036Y-68792856D01*
X169619036Y-68792856D02*
X169666655Y-68840475D01*
X169666655Y-68840475D02*
X169761893Y-68888094D01*
X169190465Y-67697618D02*
X169190465Y-67602380D01*
X169190465Y-67602380D02*
X169238084Y-67507142D01*
X169238084Y-67507142D02*
X169285703Y-67459523D01*
X169285703Y-67459523D02*
X169380941Y-67411904D01*
X169380941Y-67411904D02*
X169571417Y-67364285D01*
X169571417Y-67364285D02*
X169809512Y-67364285D01*
X169809512Y-67364285D02*
X169999988Y-67411904D01*
X169999988Y-67411904D02*
X170095226Y-67459523D01*
X170095226Y-67459523D02*
X170142846Y-67507142D01*
X170142846Y-67507142D02*
X170190465Y-67602380D01*
X170190465Y-67602380D02*
X170190465Y-67697618D01*
X170190465Y-67697618D02*
X170142846Y-67792856D01*
X170142846Y-67792856D02*
X170095226Y-67840475D01*
X170095226Y-67840475D02*
X169999988Y-67888094D01*
X169999988Y-67888094D02*
X169809512Y-67935713D01*
X169809512Y-67935713D02*
X169571417Y-67935713D01*
X169571417Y-67935713D02*
X169380941Y-67888094D01*
X169380941Y-67888094D02*
X169285703Y-67840475D01*
X169285703Y-67840475D02*
X169238084Y-67792856D01*
X169238084Y-67792856D02*
X169190465Y-67697618D01*
X169523798Y-66507142D02*
X170190465Y-66507142D01*
X169142846Y-66745237D02*
X169857131Y-66983332D01*
X169857131Y-66983332D02*
X169857131Y-66364285D01*
X127346597Y-93274820D02*
X127013264Y-92798629D01*
X126775169Y-93274820D02*
X126775169Y-92274820D01*
X126775169Y-92274820D02*
X127156121Y-92274820D01*
X127156121Y-92274820D02*
X127251359Y-92322439D01*
X127251359Y-92322439D02*
X127298978Y-92370058D01*
X127298978Y-92370058D02*
X127346597Y-92465296D01*
X127346597Y-92465296D02*
X127346597Y-92608153D01*
X127346597Y-92608153D02*
X127298978Y-92703391D01*
X127298978Y-92703391D02*
X127251359Y-92751010D01*
X127251359Y-92751010D02*
X127156121Y-92798629D01*
X127156121Y-92798629D02*
X126775169Y-92798629D01*
X127727550Y-92370058D02*
X127775169Y-92322439D01*
X127775169Y-92322439D02*
X127870407Y-92274820D01*
X127870407Y-92274820D02*
X128108502Y-92274820D01*
X128108502Y-92274820D02*
X128203740Y-92322439D01*
X128203740Y-92322439D02*
X128251359Y-92370058D01*
X128251359Y-92370058D02*
X128298978Y-92465296D01*
X128298978Y-92465296D02*
X128298978Y-92560534D01*
X128298978Y-92560534D02*
X128251359Y-92703391D01*
X128251359Y-92703391D02*
X127679931Y-93274820D01*
X127679931Y-93274820D02*
X128298978Y-93274820D01*
X128918026Y-92274820D02*
X129013264Y-92274820D01*
X129013264Y-92274820D02*
X129108502Y-92322439D01*
X129108502Y-92322439D02*
X129156121Y-92370058D01*
X129156121Y-92370058D02*
X129203740Y-92465296D01*
X129203740Y-92465296D02*
X129251359Y-92655772D01*
X129251359Y-92655772D02*
X129251359Y-92893867D01*
X129251359Y-92893867D02*
X129203740Y-93084343D01*
X129203740Y-93084343D02*
X129156121Y-93179581D01*
X129156121Y-93179581D02*
X129108502Y-93227201D01*
X129108502Y-93227201D02*
X129013264Y-93274820D01*
X129013264Y-93274820D02*
X128918026Y-93274820D01*
X128918026Y-93274820D02*
X128822788Y-93227201D01*
X128822788Y-93227201D02*
X128775169Y-93179581D01*
X128775169Y-93179581D02*
X128727550Y-93084343D01*
X128727550Y-93084343D02*
X128679931Y-92893867D01*
X128679931Y-92893867D02*
X128679931Y-92655772D01*
X128679931Y-92655772D02*
X128727550Y-92465296D01*
X128727550Y-92465296D02*
X128775169Y-92370058D01*
X128775169Y-92370058D02*
X128822788Y-92322439D01*
X128822788Y-92322439D02*
X128918026Y-92274820D01*
X130203740Y-93274820D02*
X129632312Y-93274820D01*
X129918026Y-93274820D02*
X129918026Y-92274820D01*
X129918026Y-92274820D02*
X129822788Y-92417677D01*
X129822788Y-92417677D02*
X129727550Y-92512915D01*
X129727550Y-92512915D02*
X129632312Y-92560534D01*
X130518025Y-71235557D02*
X130422787Y-71187938D01*
X130422787Y-71187938D02*
X130327549Y-71092700D01*
X130327549Y-71092700D02*
X130184692Y-70949842D01*
X130184692Y-70949842D02*
X130089454Y-70902223D01*
X130089454Y-70902223D02*
X129994216Y-70902223D01*
X130041835Y-71140319D02*
X129946597Y-71092700D01*
X129946597Y-71092700D02*
X129851359Y-70997461D01*
X129851359Y-70997461D02*
X129803740Y-70806985D01*
X129803740Y-70806985D02*
X129803740Y-70473652D01*
X129803740Y-70473652D02*
X129851359Y-70283176D01*
X129851359Y-70283176D02*
X129946597Y-70187938D01*
X129946597Y-70187938D02*
X130041835Y-70140319D01*
X130041835Y-70140319D02*
X130232311Y-70140319D01*
X130232311Y-70140319D02*
X130327549Y-70187938D01*
X130327549Y-70187938D02*
X130422787Y-70283176D01*
X130422787Y-70283176D02*
X130470406Y-70473652D01*
X130470406Y-70473652D02*
X130470406Y-70806985D01*
X130470406Y-70806985D02*
X130422787Y-70997461D01*
X130422787Y-70997461D02*
X130327549Y-71092700D01*
X130327549Y-71092700D02*
X130232311Y-71140319D01*
X130232311Y-71140319D02*
X130041835Y-71140319D01*
X130851359Y-70235557D02*
X130898978Y-70187938D01*
X130898978Y-70187938D02*
X130994216Y-70140319D01*
X130994216Y-70140319D02*
X131232311Y-70140319D01*
X131232311Y-70140319D02*
X131327549Y-70187938D01*
X131327549Y-70187938D02*
X131375168Y-70235557D01*
X131375168Y-70235557D02*
X131422787Y-70330795D01*
X131422787Y-70330795D02*
X131422787Y-70426033D01*
X131422787Y-70426033D02*
X131375168Y-70568890D01*
X131375168Y-70568890D02*
X130803740Y-71140319D01*
X130803740Y-71140319D02*
X131422787Y-71140319D01*
X132041835Y-70140319D02*
X132137073Y-70140319D01*
X132137073Y-70140319D02*
X132232311Y-70187938D01*
X132232311Y-70187938D02*
X132279930Y-70235557D01*
X132279930Y-70235557D02*
X132327549Y-70330795D01*
X132327549Y-70330795D02*
X132375168Y-70521271D01*
X132375168Y-70521271D02*
X132375168Y-70759366D01*
X132375168Y-70759366D02*
X132327549Y-70949842D01*
X132327549Y-70949842D02*
X132279930Y-71045080D01*
X132279930Y-71045080D02*
X132232311Y-71092700D01*
X132232311Y-71092700D02*
X132137073Y-71140319D01*
X132137073Y-71140319D02*
X132041835Y-71140319D01*
X132041835Y-71140319D02*
X131946597Y-71092700D01*
X131946597Y-71092700D02*
X131898978Y-71045080D01*
X131898978Y-71045080D02*
X131851359Y-70949842D01*
X131851359Y-70949842D02*
X131803740Y-70759366D01*
X131803740Y-70759366D02*
X131803740Y-70521271D01*
X131803740Y-70521271D02*
X131851359Y-70330795D01*
X131851359Y-70330795D02*
X131898978Y-70235557D01*
X131898978Y-70235557D02*
X131946597Y-70187938D01*
X131946597Y-70187938D02*
X132041835Y-70140319D01*
X133327549Y-71140319D02*
X132756121Y-71140319D01*
X133041835Y-71140319D02*
X133041835Y-70140319D01*
X133041835Y-70140319D02*
X132946597Y-70283176D01*
X132946597Y-70283176D02*
X132851359Y-70378414D01*
X132851359Y-70378414D02*
X132756121Y-70426033D01*
X156020464Y-98769047D02*
X155544273Y-99102380D01*
X156020464Y-99340475D02*
X155020464Y-99340475D01*
X155020464Y-99340475D02*
X155020464Y-98959523D01*
X155020464Y-98959523D02*
X155068083Y-98864285D01*
X155068083Y-98864285D02*
X155115702Y-98816666D01*
X155115702Y-98816666D02*
X155210940Y-98769047D01*
X155210940Y-98769047D02*
X155353797Y-98769047D01*
X155353797Y-98769047D02*
X155449035Y-98816666D01*
X155449035Y-98816666D02*
X155496654Y-98864285D01*
X155496654Y-98864285D02*
X155544273Y-98959523D01*
X155544273Y-98959523D02*
X155544273Y-99340475D01*
X155020464Y-97864285D02*
X155020464Y-98340475D01*
X155020464Y-98340475D02*
X155496654Y-98388094D01*
X155496654Y-98388094D02*
X155449035Y-98340475D01*
X155449035Y-98340475D02*
X155401416Y-98245237D01*
X155401416Y-98245237D02*
X155401416Y-98007142D01*
X155401416Y-98007142D02*
X155449035Y-97911904D01*
X155449035Y-97911904D02*
X155496654Y-97864285D01*
X155496654Y-97864285D02*
X155591892Y-97816666D01*
X155591892Y-97816666D02*
X155829987Y-97816666D01*
X155829987Y-97816666D02*
X155925225Y-97864285D01*
X155925225Y-97864285D02*
X155972845Y-97911904D01*
X155972845Y-97911904D02*
X156020464Y-98007142D01*
X156020464Y-98007142D02*
X156020464Y-98245237D01*
X156020464Y-98245237D02*
X155972845Y-98340475D01*
X155972845Y-98340475D02*
X155925225Y-98388094D01*
X155020464Y-97197618D02*
X155020464Y-97102380D01*
X155020464Y-97102380D02*
X155068083Y-97007142D01*
X155068083Y-97007142D02*
X155115702Y-96959523D01*
X155115702Y-96959523D02*
X155210940Y-96911904D01*
X155210940Y-96911904D02*
X155401416Y-96864285D01*
X155401416Y-96864285D02*
X155639511Y-96864285D01*
X155639511Y-96864285D02*
X155829987Y-96911904D01*
X155829987Y-96911904D02*
X155925225Y-96959523D01*
X155925225Y-96959523D02*
X155972845Y-97007142D01*
X155972845Y-97007142D02*
X156020464Y-97102380D01*
X156020464Y-97102380D02*
X156020464Y-97197618D01*
X156020464Y-97197618D02*
X155972845Y-97292856D01*
X155972845Y-97292856D02*
X155925225Y-97340475D01*
X155925225Y-97340475D02*
X155829987Y-97388094D01*
X155829987Y-97388094D02*
X155639511Y-97435713D01*
X155639511Y-97435713D02*
X155401416Y-97435713D01*
X155401416Y-97435713D02*
X155210940Y-97388094D01*
X155210940Y-97388094D02*
X155115702Y-97340475D01*
X155115702Y-97340475D02*
X155068083Y-97292856D01*
X155068083Y-97292856D02*
X155020464Y-97197618D01*
X155353797Y-96007142D02*
X156020464Y-96007142D01*
X154972845Y-96245237D02*
X155687130Y-96483332D01*
X155687130Y-96483332D02*
X155687130Y-95864285D01*
X175579930Y-80604819D02*
X175579930Y-81319104D01*
X175579930Y-81319104D02*
X175532311Y-81461961D01*
X175532311Y-81461961D02*
X175437073Y-81557200D01*
X175437073Y-81557200D02*
X175294216Y-81604819D01*
X175294216Y-81604819D02*
X175198978Y-81604819D01*
X176579930Y-81604819D02*
X176008502Y-81604819D01*
X176294216Y-81604819D02*
X176294216Y-80604819D01*
X176294216Y-80604819D02*
X176198978Y-80747676D01*
X176198978Y-80747676D02*
X176103740Y-80842914D01*
X176103740Y-80842914D02*
X176008502Y-80890533D01*
X177198978Y-80604819D02*
X177294216Y-80604819D01*
X177294216Y-80604819D02*
X177389454Y-80652438D01*
X177389454Y-80652438D02*
X177437073Y-80700057D01*
X177437073Y-80700057D02*
X177484692Y-80795295D01*
X177484692Y-80795295D02*
X177532311Y-80985771D01*
X177532311Y-80985771D02*
X177532311Y-81223866D01*
X177532311Y-81223866D02*
X177484692Y-81414342D01*
X177484692Y-81414342D02*
X177437073Y-81509580D01*
X177437073Y-81509580D02*
X177389454Y-81557200D01*
X177389454Y-81557200D02*
X177294216Y-81604819D01*
X177294216Y-81604819D02*
X177198978Y-81604819D01*
X177198978Y-81604819D02*
X177103740Y-81557200D01*
X177103740Y-81557200D02*
X177056121Y-81509580D01*
X177056121Y-81509580D02*
X177008502Y-81414342D01*
X177008502Y-81414342D02*
X176960883Y-81223866D01*
X176960883Y-81223866D02*
X176960883Y-80985771D01*
X176960883Y-80985771D02*
X177008502Y-80795295D01*
X177008502Y-80795295D02*
X177056121Y-80700057D01*
X177056121Y-80700057D02*
X177103740Y-80652438D01*
X177103740Y-80652438D02*
X177198978Y-80604819D01*
X178389454Y-80938152D02*
X178389454Y-81604819D01*
X178151359Y-80557200D02*
X177913264Y-81271485D01*
X177913264Y-81271485D02*
X178532311Y-81271485D01*
X153470465Y-84264285D02*
X154279988Y-84264285D01*
X154279988Y-84264285D02*
X154375226Y-84216666D01*
X154375226Y-84216666D02*
X154422846Y-84169047D01*
X154422846Y-84169047D02*
X154470465Y-84073809D01*
X154470465Y-84073809D02*
X154470465Y-83883333D01*
X154470465Y-83883333D02*
X154422846Y-83788095D01*
X154422846Y-83788095D02*
X154375226Y-83740476D01*
X154375226Y-83740476D02*
X154279988Y-83692857D01*
X154279988Y-83692857D02*
X153470465Y-83692857D01*
X153470465Y-82740476D02*
X153470465Y-83216666D01*
X153470465Y-83216666D02*
X153946655Y-83264285D01*
X153946655Y-83264285D02*
X153899036Y-83216666D01*
X153899036Y-83216666D02*
X153851417Y-83121428D01*
X153851417Y-83121428D02*
X153851417Y-82883333D01*
X153851417Y-82883333D02*
X153899036Y-82788095D01*
X153899036Y-82788095D02*
X153946655Y-82740476D01*
X153946655Y-82740476D02*
X154041893Y-82692857D01*
X154041893Y-82692857D02*
X154279988Y-82692857D01*
X154279988Y-82692857D02*
X154375226Y-82740476D01*
X154375226Y-82740476D02*
X154422846Y-82788095D01*
X154422846Y-82788095D02*
X154470465Y-82883333D01*
X154470465Y-82883333D02*
X154470465Y-83121428D01*
X154470465Y-83121428D02*
X154422846Y-83216666D01*
X154422846Y-83216666D02*
X154375226Y-83264285D01*
X153470465Y-82073809D02*
X153470465Y-81978571D01*
X153470465Y-81978571D02*
X153518084Y-81883333D01*
X153518084Y-81883333D02*
X153565703Y-81835714D01*
X153565703Y-81835714D02*
X153660941Y-81788095D01*
X153660941Y-81788095D02*
X153851417Y-81740476D01*
X153851417Y-81740476D02*
X154089512Y-81740476D01*
X154089512Y-81740476D02*
X154279988Y-81788095D01*
X154279988Y-81788095D02*
X154375226Y-81835714D01*
X154375226Y-81835714D02*
X154422846Y-81883333D01*
X154422846Y-81883333D02*
X154470465Y-81978571D01*
X154470465Y-81978571D02*
X154470465Y-82073809D01*
X154470465Y-82073809D02*
X154422846Y-82169047D01*
X154422846Y-82169047D02*
X154375226Y-82216666D01*
X154375226Y-82216666D02*
X154279988Y-82264285D01*
X154279988Y-82264285D02*
X154089512Y-82311904D01*
X154089512Y-82311904D02*
X153851417Y-82311904D01*
X153851417Y-82311904D02*
X153660941Y-82264285D01*
X153660941Y-82264285D02*
X153565703Y-82216666D01*
X153565703Y-82216666D02*
X153518084Y-82169047D01*
X153518084Y-82169047D02*
X153470465Y-82073809D01*
X154470465Y-80788095D02*
X154470465Y-81359523D01*
X154470465Y-81073809D02*
X153470465Y-81073809D01*
X153470465Y-81073809D02*
X153613322Y-81169047D01*
X153613322Y-81169047D02*
X153708560Y-81264285D01*
X153708560Y-81264285D02*
X153756179Y-81359523D01*
X115279930Y-91854819D02*
X115279930Y-92569104D01*
X115279930Y-92569104D02*
X115232311Y-92711961D01*
X115232311Y-92711961D02*
X115137073Y-92807200D01*
X115137073Y-92807200D02*
X114994216Y-92854819D01*
X114994216Y-92854819D02*
X114898978Y-92854819D01*
X116279930Y-92854819D02*
X115708502Y-92854819D01*
X115994216Y-92854819D02*
X115994216Y-91854819D01*
X115994216Y-91854819D02*
X115898978Y-91997676D01*
X115898978Y-91997676D02*
X115803740Y-92092914D01*
X115803740Y-92092914D02*
X115708502Y-92140533D01*
X116898978Y-91854819D02*
X116994216Y-91854819D01*
X116994216Y-91854819D02*
X117089454Y-91902438D01*
X117089454Y-91902438D02*
X117137073Y-91950057D01*
X117137073Y-91950057D02*
X117184692Y-92045295D01*
X117184692Y-92045295D02*
X117232311Y-92235771D01*
X117232311Y-92235771D02*
X117232311Y-92473866D01*
X117232311Y-92473866D02*
X117184692Y-92664342D01*
X117184692Y-92664342D02*
X117137073Y-92759580D01*
X117137073Y-92759580D02*
X117089454Y-92807200D01*
X117089454Y-92807200D02*
X116994216Y-92854819D01*
X116994216Y-92854819D02*
X116898978Y-92854819D01*
X116898978Y-92854819D02*
X116803740Y-92807200D01*
X116803740Y-92807200D02*
X116756121Y-92759580D01*
X116756121Y-92759580D02*
X116708502Y-92664342D01*
X116708502Y-92664342D02*
X116660883Y-92473866D01*
X116660883Y-92473866D02*
X116660883Y-92235771D01*
X116660883Y-92235771D02*
X116708502Y-92045295D01*
X116708502Y-92045295D02*
X116756121Y-91950057D01*
X116756121Y-91950057D02*
X116803740Y-91902438D01*
X116803740Y-91902438D02*
X116898978Y-91854819D01*
X117613264Y-91950057D02*
X117660883Y-91902438D01*
X117660883Y-91902438D02*
X117756121Y-91854819D01*
X117756121Y-91854819D02*
X117994216Y-91854819D01*
X117994216Y-91854819D02*
X118089454Y-91902438D01*
X118089454Y-91902438D02*
X118137073Y-91950057D01*
X118137073Y-91950057D02*
X118184692Y-92045295D01*
X118184692Y-92045295D02*
X118184692Y-92140533D01*
X118184692Y-92140533D02*
X118137073Y-92283390D01*
X118137073Y-92283390D02*
X117565645Y-92854819D01*
X117565645Y-92854819D02*
X118184692Y-92854819D01*
X185279930Y-91854819D02*
X185279930Y-92569104D01*
X185279930Y-92569104D02*
X185232311Y-92711961D01*
X185232311Y-92711961D02*
X185137073Y-92807200D01*
X185137073Y-92807200D02*
X184994216Y-92854819D01*
X184994216Y-92854819D02*
X184898978Y-92854819D01*
X186279930Y-92854819D02*
X185708502Y-92854819D01*
X185994216Y-92854819D02*
X185994216Y-91854819D01*
X185994216Y-91854819D02*
X185898978Y-91997676D01*
X185898978Y-91997676D02*
X185803740Y-92092914D01*
X185803740Y-92092914D02*
X185708502Y-92140533D01*
X186898978Y-91854819D02*
X186994216Y-91854819D01*
X186994216Y-91854819D02*
X187089454Y-91902438D01*
X187089454Y-91902438D02*
X187137073Y-91950057D01*
X187137073Y-91950057D02*
X187184692Y-92045295D01*
X187184692Y-92045295D02*
X187232311Y-92235771D01*
X187232311Y-92235771D02*
X187232311Y-92473866D01*
X187232311Y-92473866D02*
X187184692Y-92664342D01*
X187184692Y-92664342D02*
X187137073Y-92759580D01*
X187137073Y-92759580D02*
X187089454Y-92807200D01*
X187089454Y-92807200D02*
X186994216Y-92854819D01*
X186994216Y-92854819D02*
X186898978Y-92854819D01*
X186898978Y-92854819D02*
X186803740Y-92807200D01*
X186803740Y-92807200D02*
X186756121Y-92759580D01*
X186756121Y-92759580D02*
X186708502Y-92664342D01*
X186708502Y-92664342D02*
X186660883Y-92473866D01*
X186660883Y-92473866D02*
X186660883Y-92235771D01*
X186660883Y-92235771D02*
X186708502Y-92045295D01*
X186708502Y-92045295D02*
X186756121Y-91950057D01*
X186756121Y-91950057D02*
X186803740Y-91902438D01*
X186803740Y-91902438D02*
X186898978Y-91854819D01*
X187565645Y-91854819D02*
X188184692Y-91854819D01*
X188184692Y-91854819D02*
X187851359Y-92235771D01*
X187851359Y-92235771D02*
X187994216Y-92235771D01*
X187994216Y-92235771D02*
X188089454Y-92283390D01*
X188089454Y-92283390D02*
X188137073Y-92331009D01*
X188137073Y-92331009D02*
X188184692Y-92426247D01*
X188184692Y-92426247D02*
X188184692Y-92664342D01*
X188184692Y-92664342D02*
X188137073Y-92759580D01*
X188137073Y-92759580D02*
X188089454Y-92807200D01*
X188089454Y-92807200D02*
X187994216Y-92854819D01*
X187994216Y-92854819D02*
X187708502Y-92854819D01*
X187708502Y-92854819D02*
X187613264Y-92807200D01*
X187613264Y-92807200D02*
X187565645Y-92759580D01*
X170446597Y-89274819D02*
X170113264Y-88798628D01*
X169875169Y-89274819D02*
X169875169Y-88274819D01*
X169875169Y-88274819D02*
X170256121Y-88274819D01*
X170256121Y-88274819D02*
X170351359Y-88322438D01*
X170351359Y-88322438D02*
X170398978Y-88370057D01*
X170398978Y-88370057D02*
X170446597Y-88465295D01*
X170446597Y-88465295D02*
X170446597Y-88608152D01*
X170446597Y-88608152D02*
X170398978Y-88703390D01*
X170398978Y-88703390D02*
X170351359Y-88751009D01*
X170351359Y-88751009D02*
X170256121Y-88798628D01*
X170256121Y-88798628D02*
X169875169Y-88798628D01*
X171303740Y-88274819D02*
X171113264Y-88274819D01*
X171113264Y-88274819D02*
X171018026Y-88322438D01*
X171018026Y-88322438D02*
X170970407Y-88370057D01*
X170970407Y-88370057D02*
X170875169Y-88512914D01*
X170875169Y-88512914D02*
X170827550Y-88703390D01*
X170827550Y-88703390D02*
X170827550Y-89084342D01*
X170827550Y-89084342D02*
X170875169Y-89179580D01*
X170875169Y-89179580D02*
X170922788Y-89227200D01*
X170922788Y-89227200D02*
X171018026Y-89274819D01*
X171018026Y-89274819D02*
X171208502Y-89274819D01*
X171208502Y-89274819D02*
X171303740Y-89227200D01*
X171303740Y-89227200D02*
X171351359Y-89179580D01*
X171351359Y-89179580D02*
X171398978Y-89084342D01*
X171398978Y-89084342D02*
X171398978Y-88846247D01*
X171398978Y-88846247D02*
X171351359Y-88751009D01*
X171351359Y-88751009D02*
X171303740Y-88703390D01*
X171303740Y-88703390D02*
X171208502Y-88655771D01*
X171208502Y-88655771D02*
X171018026Y-88655771D01*
X171018026Y-88655771D02*
X170922788Y-88703390D01*
X170922788Y-88703390D02*
X170875169Y-88751009D01*
X170875169Y-88751009D02*
X170827550Y-88846247D01*
X172018026Y-88274819D02*
X172113264Y-88274819D01*
X172113264Y-88274819D02*
X172208502Y-88322438D01*
X172208502Y-88322438D02*
X172256121Y-88370057D01*
X172256121Y-88370057D02*
X172303740Y-88465295D01*
X172303740Y-88465295D02*
X172351359Y-88655771D01*
X172351359Y-88655771D02*
X172351359Y-88893866D01*
X172351359Y-88893866D02*
X172303740Y-89084342D01*
X172303740Y-89084342D02*
X172256121Y-89179580D01*
X172256121Y-89179580D02*
X172208502Y-89227200D01*
X172208502Y-89227200D02*
X172113264Y-89274819D01*
X172113264Y-89274819D02*
X172018026Y-89274819D01*
X172018026Y-89274819D02*
X171922788Y-89227200D01*
X171922788Y-89227200D02*
X171875169Y-89179580D01*
X171875169Y-89179580D02*
X171827550Y-89084342D01*
X171827550Y-89084342D02*
X171779931Y-88893866D01*
X171779931Y-88893866D02*
X171779931Y-88655771D01*
X171779931Y-88655771D02*
X171827550Y-88465295D01*
X171827550Y-88465295D02*
X171875169Y-88370057D01*
X171875169Y-88370057D02*
X171922788Y-88322438D01*
X171922788Y-88322438D02*
X172018026Y-88274819D01*
X172684693Y-88274819D02*
X173303740Y-88274819D01*
X173303740Y-88274819D02*
X172970407Y-88655771D01*
X172970407Y-88655771D02*
X173113264Y-88655771D01*
X173113264Y-88655771D02*
X173208502Y-88703390D01*
X173208502Y-88703390D02*
X173256121Y-88751009D01*
X173256121Y-88751009D02*
X173303740Y-88846247D01*
X173303740Y-88846247D02*
X173303740Y-89084342D01*
X173303740Y-89084342D02*
X173256121Y-89179580D01*
X173256121Y-89179580D02*
X173208502Y-89227200D01*
X173208502Y-89227200D02*
X173113264Y-89274819D01*
X173113264Y-89274819D02*
X172827550Y-89274819D01*
X172827550Y-89274819D02*
X172732312Y-89227200D01*
X172732312Y-89227200D02*
X172684693Y-89179580D01*
X164620464Y-98519048D02*
X164144273Y-98852381D01*
X164620464Y-99090476D02*
X163620464Y-99090476D01*
X163620464Y-99090476D02*
X163620464Y-98709524D01*
X163620464Y-98709524D02*
X163668083Y-98614286D01*
X163668083Y-98614286D02*
X163715702Y-98566667D01*
X163715702Y-98566667D02*
X163810940Y-98519048D01*
X163810940Y-98519048D02*
X163953797Y-98519048D01*
X163953797Y-98519048D02*
X164049035Y-98566667D01*
X164049035Y-98566667D02*
X164096654Y-98614286D01*
X164096654Y-98614286D02*
X164144273Y-98709524D01*
X164144273Y-98709524D02*
X164144273Y-99090476D01*
X163620464Y-97661905D02*
X163620464Y-97852381D01*
X163620464Y-97852381D02*
X163668083Y-97947619D01*
X163668083Y-97947619D02*
X163715702Y-97995238D01*
X163715702Y-97995238D02*
X163858559Y-98090476D01*
X163858559Y-98090476D02*
X164049035Y-98138095D01*
X164049035Y-98138095D02*
X164429987Y-98138095D01*
X164429987Y-98138095D02*
X164525225Y-98090476D01*
X164525225Y-98090476D02*
X164572845Y-98042857D01*
X164572845Y-98042857D02*
X164620464Y-97947619D01*
X164620464Y-97947619D02*
X164620464Y-97757143D01*
X164620464Y-97757143D02*
X164572845Y-97661905D01*
X164572845Y-97661905D02*
X164525225Y-97614286D01*
X164525225Y-97614286D02*
X164429987Y-97566667D01*
X164429987Y-97566667D02*
X164191892Y-97566667D01*
X164191892Y-97566667D02*
X164096654Y-97614286D01*
X164096654Y-97614286D02*
X164049035Y-97661905D01*
X164049035Y-97661905D02*
X164001416Y-97757143D01*
X164001416Y-97757143D02*
X164001416Y-97947619D01*
X164001416Y-97947619D02*
X164049035Y-98042857D01*
X164049035Y-98042857D02*
X164096654Y-98090476D01*
X164096654Y-98090476D02*
X164191892Y-98138095D01*
X163620464Y-96947619D02*
X163620464Y-96852381D01*
X163620464Y-96852381D02*
X163668083Y-96757143D01*
X163668083Y-96757143D02*
X163715702Y-96709524D01*
X163715702Y-96709524D02*
X163810940Y-96661905D01*
X163810940Y-96661905D02*
X164001416Y-96614286D01*
X164001416Y-96614286D02*
X164239511Y-96614286D01*
X164239511Y-96614286D02*
X164429987Y-96661905D01*
X164429987Y-96661905D02*
X164525225Y-96709524D01*
X164525225Y-96709524D02*
X164572845Y-96757143D01*
X164572845Y-96757143D02*
X164620464Y-96852381D01*
X164620464Y-96852381D02*
X164620464Y-96947619D01*
X164620464Y-96947619D02*
X164572845Y-97042857D01*
X164572845Y-97042857D02*
X164525225Y-97090476D01*
X164525225Y-97090476D02*
X164429987Y-97138095D01*
X164429987Y-97138095D02*
X164239511Y-97185714D01*
X164239511Y-97185714D02*
X164001416Y-97185714D01*
X164001416Y-97185714D02*
X163810940Y-97138095D01*
X163810940Y-97138095D02*
X163715702Y-97090476D01*
X163715702Y-97090476D02*
X163668083Y-97042857D01*
X163668083Y-97042857D02*
X163620464Y-96947619D01*
X164620464Y-95661905D02*
X164620464Y-96233333D01*
X164620464Y-95947619D02*
X163620464Y-95947619D01*
X163620464Y-95947619D02*
X163763321Y-96042857D01*
X163763321Y-96042857D02*
X163858559Y-96138095D01*
X163858559Y-96138095D02*
X163906178Y-96233333D01*
X153020464Y-68769047D02*
X152544273Y-69102380D01*
X153020464Y-69340475D02*
X152020464Y-69340475D01*
X152020464Y-69340475D02*
X152020464Y-68959523D01*
X152020464Y-68959523D02*
X152068083Y-68864285D01*
X152068083Y-68864285D02*
X152115702Y-68816666D01*
X152115702Y-68816666D02*
X152210940Y-68769047D01*
X152210940Y-68769047D02*
X152353797Y-68769047D01*
X152353797Y-68769047D02*
X152449035Y-68816666D01*
X152449035Y-68816666D02*
X152496654Y-68864285D01*
X152496654Y-68864285D02*
X152544273Y-68959523D01*
X152544273Y-68959523D02*
X152544273Y-69340475D01*
X152020464Y-67864285D02*
X152020464Y-68340475D01*
X152020464Y-68340475D02*
X152496654Y-68388094D01*
X152496654Y-68388094D02*
X152449035Y-68340475D01*
X152449035Y-68340475D02*
X152401416Y-68245237D01*
X152401416Y-68245237D02*
X152401416Y-68007142D01*
X152401416Y-68007142D02*
X152449035Y-67911904D01*
X152449035Y-67911904D02*
X152496654Y-67864285D01*
X152496654Y-67864285D02*
X152591892Y-67816666D01*
X152591892Y-67816666D02*
X152829987Y-67816666D01*
X152829987Y-67816666D02*
X152925225Y-67864285D01*
X152925225Y-67864285D02*
X152972845Y-67911904D01*
X152972845Y-67911904D02*
X153020464Y-68007142D01*
X153020464Y-68007142D02*
X153020464Y-68245237D01*
X153020464Y-68245237D02*
X152972845Y-68340475D01*
X152972845Y-68340475D02*
X152925225Y-68388094D01*
X152020464Y-67197618D02*
X152020464Y-67102380D01*
X152020464Y-67102380D02*
X152068083Y-67007142D01*
X152068083Y-67007142D02*
X152115702Y-66959523D01*
X152115702Y-66959523D02*
X152210940Y-66911904D01*
X152210940Y-66911904D02*
X152401416Y-66864285D01*
X152401416Y-66864285D02*
X152639511Y-66864285D01*
X152639511Y-66864285D02*
X152829987Y-66911904D01*
X152829987Y-66911904D02*
X152925225Y-66959523D01*
X152925225Y-66959523D02*
X152972845Y-67007142D01*
X152972845Y-67007142D02*
X153020464Y-67102380D01*
X153020464Y-67102380D02*
X153020464Y-67197618D01*
X153020464Y-67197618D02*
X152972845Y-67292856D01*
X152972845Y-67292856D02*
X152925225Y-67340475D01*
X152925225Y-67340475D02*
X152829987Y-67388094D01*
X152829987Y-67388094D02*
X152639511Y-67435713D01*
X152639511Y-67435713D02*
X152401416Y-67435713D01*
X152401416Y-67435713D02*
X152210940Y-67388094D01*
X152210940Y-67388094D02*
X152115702Y-67340475D01*
X152115702Y-67340475D02*
X152068083Y-67292856D01*
X152068083Y-67292856D02*
X152020464Y-67197618D01*
X152020464Y-66530951D02*
X152020464Y-65864285D01*
X152020464Y-65864285D02*
X153020464Y-66292856D01*
X150850463Y-73769047D02*
X150374272Y-74102380D01*
X150850463Y-74340475D02*
X149850463Y-74340475D01*
X149850463Y-74340475D02*
X149850463Y-73959523D01*
X149850463Y-73959523D02*
X149898082Y-73864285D01*
X149898082Y-73864285D02*
X149945701Y-73816666D01*
X149945701Y-73816666D02*
X150040939Y-73769047D01*
X150040939Y-73769047D02*
X150183796Y-73769047D01*
X150183796Y-73769047D02*
X150279034Y-73816666D01*
X150279034Y-73816666D02*
X150326653Y-73864285D01*
X150326653Y-73864285D02*
X150374272Y-73959523D01*
X150374272Y-73959523D02*
X150374272Y-74340475D01*
X150183796Y-72911904D02*
X150850463Y-72911904D01*
X149802844Y-73149999D02*
X150517129Y-73388094D01*
X150517129Y-73388094D02*
X150517129Y-72769047D01*
X149850463Y-72197618D02*
X149850463Y-72102380D01*
X149850463Y-72102380D02*
X149898082Y-72007142D01*
X149898082Y-72007142D02*
X149945701Y-71959523D01*
X149945701Y-71959523D02*
X150040939Y-71911904D01*
X150040939Y-71911904D02*
X150231415Y-71864285D01*
X150231415Y-71864285D02*
X150469510Y-71864285D01*
X150469510Y-71864285D02*
X150659986Y-71911904D01*
X150659986Y-71911904D02*
X150755224Y-71959523D01*
X150755224Y-71959523D02*
X150802844Y-72007142D01*
X150802844Y-72007142D02*
X150850463Y-72102380D01*
X150850463Y-72102380D02*
X150850463Y-72197618D01*
X150850463Y-72197618D02*
X150802844Y-72292856D01*
X150802844Y-72292856D02*
X150755224Y-72340475D01*
X150755224Y-72340475D02*
X150659986Y-72388094D01*
X150659986Y-72388094D02*
X150469510Y-72435713D01*
X150469510Y-72435713D02*
X150231415Y-72435713D01*
X150231415Y-72435713D02*
X150040939Y-72388094D01*
X150040939Y-72388094D02*
X149945701Y-72340475D01*
X149945701Y-72340475D02*
X149898082Y-72292856D01*
X149898082Y-72292856D02*
X149850463Y-72197618D01*
X149945701Y-71483332D02*
X149898082Y-71435713D01*
X149898082Y-71435713D02*
X149850463Y-71340475D01*
X149850463Y-71340475D02*
X149850463Y-71102380D01*
X149850463Y-71102380D02*
X149898082Y-71007142D01*
X149898082Y-71007142D02*
X149945701Y-70959523D01*
X149945701Y-70959523D02*
X150040939Y-70911904D01*
X150040939Y-70911904D02*
X150136177Y-70911904D01*
X150136177Y-70911904D02*
X150279034Y-70959523D01*
X150279034Y-70959523D02*
X150850463Y-71530951D01*
X150850463Y-71530951D02*
X150850463Y-70911904D01*
X158020464Y-98769047D02*
X157544273Y-99102380D01*
X158020464Y-99340475D02*
X157020464Y-99340475D01*
X157020464Y-99340475D02*
X157020464Y-98959523D01*
X157020464Y-98959523D02*
X157068083Y-98864285D01*
X157068083Y-98864285D02*
X157115702Y-98816666D01*
X157115702Y-98816666D02*
X157210940Y-98769047D01*
X157210940Y-98769047D02*
X157353797Y-98769047D01*
X157353797Y-98769047D02*
X157449035Y-98816666D01*
X157449035Y-98816666D02*
X157496654Y-98864285D01*
X157496654Y-98864285D02*
X157544273Y-98959523D01*
X157544273Y-98959523D02*
X157544273Y-99340475D01*
X157020464Y-97864285D02*
X157020464Y-98340475D01*
X157020464Y-98340475D02*
X157496654Y-98388094D01*
X157496654Y-98388094D02*
X157449035Y-98340475D01*
X157449035Y-98340475D02*
X157401416Y-98245237D01*
X157401416Y-98245237D02*
X157401416Y-98007142D01*
X157401416Y-98007142D02*
X157449035Y-97911904D01*
X157449035Y-97911904D02*
X157496654Y-97864285D01*
X157496654Y-97864285D02*
X157591892Y-97816666D01*
X157591892Y-97816666D02*
X157829987Y-97816666D01*
X157829987Y-97816666D02*
X157925225Y-97864285D01*
X157925225Y-97864285D02*
X157972845Y-97911904D01*
X157972845Y-97911904D02*
X158020464Y-98007142D01*
X158020464Y-98007142D02*
X158020464Y-98245237D01*
X158020464Y-98245237D02*
X157972845Y-98340475D01*
X157972845Y-98340475D02*
X157925225Y-98388094D01*
X157020464Y-97197618D02*
X157020464Y-97102380D01*
X157020464Y-97102380D02*
X157068083Y-97007142D01*
X157068083Y-97007142D02*
X157115702Y-96959523D01*
X157115702Y-96959523D02*
X157210940Y-96911904D01*
X157210940Y-96911904D02*
X157401416Y-96864285D01*
X157401416Y-96864285D02*
X157639511Y-96864285D01*
X157639511Y-96864285D02*
X157829987Y-96911904D01*
X157829987Y-96911904D02*
X157925225Y-96959523D01*
X157925225Y-96959523D02*
X157972845Y-97007142D01*
X157972845Y-97007142D02*
X158020464Y-97102380D01*
X158020464Y-97102380D02*
X158020464Y-97197618D01*
X158020464Y-97197618D02*
X157972845Y-97292856D01*
X157972845Y-97292856D02*
X157925225Y-97340475D01*
X157925225Y-97340475D02*
X157829987Y-97388094D01*
X157829987Y-97388094D02*
X157639511Y-97435713D01*
X157639511Y-97435713D02*
X157401416Y-97435713D01*
X157401416Y-97435713D02*
X157210940Y-97388094D01*
X157210940Y-97388094D02*
X157115702Y-97340475D01*
X157115702Y-97340475D02*
X157068083Y-97292856D01*
X157068083Y-97292856D02*
X157020464Y-97197618D01*
X158020464Y-95911904D02*
X158020464Y-96483332D01*
X158020464Y-96197618D02*
X157020464Y-96197618D01*
X157020464Y-96197618D02*
X157163321Y-96292856D01*
X157163321Y-96292856D02*
X157258559Y-96388094D01*
X157258559Y-96388094D02*
X157306178Y-96483332D01*
X129875169Y-87954820D02*
X129875169Y-86954820D01*
X129875169Y-86954820D02*
X130113264Y-86954820D01*
X130113264Y-86954820D02*
X130256121Y-87002439D01*
X130256121Y-87002439D02*
X130351359Y-87097677D01*
X130351359Y-87097677D02*
X130398978Y-87192915D01*
X130398978Y-87192915D02*
X130446597Y-87383391D01*
X130446597Y-87383391D02*
X130446597Y-87526248D01*
X130446597Y-87526248D02*
X130398978Y-87716724D01*
X130398978Y-87716724D02*
X130351359Y-87811962D01*
X130351359Y-87811962D02*
X130256121Y-87907201D01*
X130256121Y-87907201D02*
X130113264Y-87954820D01*
X130113264Y-87954820D02*
X129875169Y-87954820D01*
X130827550Y-87050058D02*
X130875169Y-87002439D01*
X130875169Y-87002439D02*
X130970407Y-86954820D01*
X130970407Y-86954820D02*
X131208502Y-86954820D01*
X131208502Y-86954820D02*
X131303740Y-87002439D01*
X131303740Y-87002439D02*
X131351359Y-87050058D01*
X131351359Y-87050058D02*
X131398978Y-87145296D01*
X131398978Y-87145296D02*
X131398978Y-87240534D01*
X131398978Y-87240534D02*
X131351359Y-87383391D01*
X131351359Y-87383391D02*
X130779931Y-87954820D01*
X130779931Y-87954820D02*
X131398978Y-87954820D01*
X132018026Y-86954820D02*
X132113264Y-86954820D01*
X132113264Y-86954820D02*
X132208502Y-87002439D01*
X132208502Y-87002439D02*
X132256121Y-87050058D01*
X132256121Y-87050058D02*
X132303740Y-87145296D01*
X132303740Y-87145296D02*
X132351359Y-87335772D01*
X132351359Y-87335772D02*
X132351359Y-87573867D01*
X132351359Y-87573867D02*
X132303740Y-87764343D01*
X132303740Y-87764343D02*
X132256121Y-87859581D01*
X132256121Y-87859581D02*
X132208502Y-87907201D01*
X132208502Y-87907201D02*
X132113264Y-87954820D01*
X132113264Y-87954820D02*
X132018026Y-87954820D01*
X132018026Y-87954820D02*
X131922788Y-87907201D01*
X131922788Y-87907201D02*
X131875169Y-87859581D01*
X131875169Y-87859581D02*
X131827550Y-87764343D01*
X131827550Y-87764343D02*
X131779931Y-87573867D01*
X131779931Y-87573867D02*
X131779931Y-87335772D01*
X131779931Y-87335772D02*
X131827550Y-87145296D01*
X131827550Y-87145296D02*
X131875169Y-87050058D01*
X131875169Y-87050058D02*
X131922788Y-87002439D01*
X131922788Y-87002439D02*
X132018026Y-86954820D01*
X133303740Y-87954820D02*
X132732312Y-87954820D01*
X133018026Y-87954820D02*
X133018026Y-86954820D01*
X133018026Y-86954820D02*
X132922788Y-87097677D01*
X132922788Y-87097677D02*
X132827550Y-87192915D01*
X132827550Y-87192915D02*
X132732312Y-87240534D01*
X130446597Y-89274819D02*
X130113264Y-88798628D01*
X129875169Y-89274819D02*
X129875169Y-88274819D01*
X129875169Y-88274819D02*
X130256121Y-88274819D01*
X130256121Y-88274819D02*
X130351359Y-88322438D01*
X130351359Y-88322438D02*
X130398978Y-88370057D01*
X130398978Y-88370057D02*
X130446597Y-88465295D01*
X130446597Y-88465295D02*
X130446597Y-88608152D01*
X130446597Y-88608152D02*
X130398978Y-88703390D01*
X130398978Y-88703390D02*
X130351359Y-88751009D01*
X130351359Y-88751009D02*
X130256121Y-88798628D01*
X130256121Y-88798628D02*
X129875169Y-88798628D01*
X130827550Y-88370057D02*
X130875169Y-88322438D01*
X130875169Y-88322438D02*
X130970407Y-88274819D01*
X130970407Y-88274819D02*
X131208502Y-88274819D01*
X131208502Y-88274819D02*
X131303740Y-88322438D01*
X131303740Y-88322438D02*
X131351359Y-88370057D01*
X131351359Y-88370057D02*
X131398978Y-88465295D01*
X131398978Y-88465295D02*
X131398978Y-88560533D01*
X131398978Y-88560533D02*
X131351359Y-88703390D01*
X131351359Y-88703390D02*
X130779931Y-89274819D01*
X130779931Y-89274819D02*
X131398978Y-89274819D01*
X132018026Y-88274819D02*
X132113264Y-88274819D01*
X132113264Y-88274819D02*
X132208502Y-88322438D01*
X132208502Y-88322438D02*
X132256121Y-88370057D01*
X132256121Y-88370057D02*
X132303740Y-88465295D01*
X132303740Y-88465295D02*
X132351359Y-88655771D01*
X132351359Y-88655771D02*
X132351359Y-88893866D01*
X132351359Y-88893866D02*
X132303740Y-89084342D01*
X132303740Y-89084342D02*
X132256121Y-89179580D01*
X132256121Y-89179580D02*
X132208502Y-89227200D01*
X132208502Y-89227200D02*
X132113264Y-89274819D01*
X132113264Y-89274819D02*
X132018026Y-89274819D01*
X132018026Y-89274819D02*
X131922788Y-89227200D01*
X131922788Y-89227200D02*
X131875169Y-89179580D01*
X131875169Y-89179580D02*
X131827550Y-89084342D01*
X131827550Y-89084342D02*
X131779931Y-88893866D01*
X131779931Y-88893866D02*
X131779931Y-88655771D01*
X131779931Y-88655771D02*
X131827550Y-88465295D01*
X131827550Y-88465295D02*
X131875169Y-88370057D01*
X131875169Y-88370057D02*
X131922788Y-88322438D01*
X131922788Y-88322438D02*
X132018026Y-88274819D01*
X132732312Y-88370057D02*
X132779931Y-88322438D01*
X132779931Y-88322438D02*
X132875169Y-88274819D01*
X132875169Y-88274819D02*
X133113264Y-88274819D01*
X133113264Y-88274819D02*
X133208502Y-88322438D01*
X133208502Y-88322438D02*
X133256121Y-88370057D01*
X133256121Y-88370057D02*
X133303740Y-88465295D01*
X133303740Y-88465295D02*
X133303740Y-88560533D01*
X133303740Y-88560533D02*
X133256121Y-88703390D01*
X133256121Y-88703390D02*
X132684693Y-89274819D01*
X132684693Y-89274819D02*
X133303740Y-89274819D01*
X158020464Y-73390475D02*
X157020464Y-73390475D01*
X157020464Y-73390475D02*
X157020464Y-73152380D01*
X157020464Y-73152380D02*
X157068083Y-73009523D01*
X157068083Y-73009523D02*
X157163321Y-72914285D01*
X157163321Y-72914285D02*
X157258559Y-72866666D01*
X157258559Y-72866666D02*
X157449035Y-72819047D01*
X157449035Y-72819047D02*
X157591892Y-72819047D01*
X157591892Y-72819047D02*
X157782368Y-72866666D01*
X157782368Y-72866666D02*
X157877606Y-72914285D01*
X157877606Y-72914285D02*
X157972845Y-73009523D01*
X157972845Y-73009523D02*
X158020464Y-73152380D01*
X158020464Y-73152380D02*
X158020464Y-73390475D01*
X157020464Y-71914285D02*
X157020464Y-72390475D01*
X157020464Y-72390475D02*
X157496654Y-72438094D01*
X157496654Y-72438094D02*
X157449035Y-72390475D01*
X157449035Y-72390475D02*
X157401416Y-72295237D01*
X157401416Y-72295237D02*
X157401416Y-72057142D01*
X157401416Y-72057142D02*
X157449035Y-71961904D01*
X157449035Y-71961904D02*
X157496654Y-71914285D01*
X157496654Y-71914285D02*
X157591892Y-71866666D01*
X157591892Y-71866666D02*
X157829987Y-71866666D01*
X157829987Y-71866666D02*
X157925225Y-71914285D01*
X157925225Y-71914285D02*
X157972845Y-71961904D01*
X157972845Y-71961904D02*
X158020464Y-72057142D01*
X158020464Y-72057142D02*
X158020464Y-72295237D01*
X158020464Y-72295237D02*
X157972845Y-72390475D01*
X157972845Y-72390475D02*
X157925225Y-72438094D01*
X157020464Y-71247618D02*
X157020464Y-71152380D01*
X157020464Y-71152380D02*
X157068083Y-71057142D01*
X157068083Y-71057142D02*
X157115702Y-71009523D01*
X157115702Y-71009523D02*
X157210940Y-70961904D01*
X157210940Y-70961904D02*
X157401416Y-70914285D01*
X157401416Y-70914285D02*
X157639511Y-70914285D01*
X157639511Y-70914285D02*
X157829987Y-70961904D01*
X157829987Y-70961904D02*
X157925225Y-71009523D01*
X157925225Y-71009523D02*
X157972845Y-71057142D01*
X157972845Y-71057142D02*
X158020464Y-71152380D01*
X158020464Y-71152380D02*
X158020464Y-71247618D01*
X158020464Y-71247618D02*
X157972845Y-71342856D01*
X157972845Y-71342856D02*
X157925225Y-71390475D01*
X157925225Y-71390475D02*
X157829987Y-71438094D01*
X157829987Y-71438094D02*
X157639511Y-71485713D01*
X157639511Y-71485713D02*
X157401416Y-71485713D01*
X157401416Y-71485713D02*
X157210940Y-71438094D01*
X157210940Y-71438094D02*
X157115702Y-71390475D01*
X157115702Y-71390475D02*
X157068083Y-71342856D01*
X157068083Y-71342856D02*
X157020464Y-71247618D01*
X158020464Y-69961904D02*
X158020464Y-70533332D01*
X158020464Y-70247618D02*
X157020464Y-70247618D01*
X157020464Y-70247618D02*
X157163321Y-70342856D01*
X157163321Y-70342856D02*
X157258559Y-70438094D01*
X157258559Y-70438094D02*
X157306178Y-70533332D01*
X153020464Y-98769047D02*
X152544273Y-99102380D01*
X153020464Y-99340475D02*
X152020464Y-99340475D01*
X152020464Y-99340475D02*
X152020464Y-98959523D01*
X152020464Y-98959523D02*
X152068083Y-98864285D01*
X152068083Y-98864285D02*
X152115702Y-98816666D01*
X152115702Y-98816666D02*
X152210940Y-98769047D01*
X152210940Y-98769047D02*
X152353797Y-98769047D01*
X152353797Y-98769047D02*
X152449035Y-98816666D01*
X152449035Y-98816666D02*
X152496654Y-98864285D01*
X152496654Y-98864285D02*
X152544273Y-98959523D01*
X152544273Y-98959523D02*
X152544273Y-99340475D01*
X152020464Y-97864285D02*
X152020464Y-98340475D01*
X152020464Y-98340475D02*
X152496654Y-98388094D01*
X152496654Y-98388094D02*
X152449035Y-98340475D01*
X152449035Y-98340475D02*
X152401416Y-98245237D01*
X152401416Y-98245237D02*
X152401416Y-98007142D01*
X152401416Y-98007142D02*
X152449035Y-97911904D01*
X152449035Y-97911904D02*
X152496654Y-97864285D01*
X152496654Y-97864285D02*
X152591892Y-97816666D01*
X152591892Y-97816666D02*
X152829987Y-97816666D01*
X152829987Y-97816666D02*
X152925225Y-97864285D01*
X152925225Y-97864285D02*
X152972845Y-97911904D01*
X152972845Y-97911904D02*
X153020464Y-98007142D01*
X153020464Y-98007142D02*
X153020464Y-98245237D01*
X153020464Y-98245237D02*
X152972845Y-98340475D01*
X152972845Y-98340475D02*
X152925225Y-98388094D01*
X152020464Y-97197618D02*
X152020464Y-97102380D01*
X152020464Y-97102380D02*
X152068083Y-97007142D01*
X152068083Y-97007142D02*
X152115702Y-96959523D01*
X152115702Y-96959523D02*
X152210940Y-96911904D01*
X152210940Y-96911904D02*
X152401416Y-96864285D01*
X152401416Y-96864285D02*
X152639511Y-96864285D01*
X152639511Y-96864285D02*
X152829987Y-96911904D01*
X152829987Y-96911904D02*
X152925225Y-96959523D01*
X152925225Y-96959523D02*
X152972845Y-97007142D01*
X152972845Y-97007142D02*
X153020464Y-97102380D01*
X153020464Y-97102380D02*
X153020464Y-97197618D01*
X153020464Y-97197618D02*
X152972845Y-97292856D01*
X152972845Y-97292856D02*
X152925225Y-97340475D01*
X152925225Y-97340475D02*
X152829987Y-97388094D01*
X152829987Y-97388094D02*
X152639511Y-97435713D01*
X152639511Y-97435713D02*
X152401416Y-97435713D01*
X152401416Y-97435713D02*
X152210940Y-97388094D01*
X152210940Y-97388094D02*
X152115702Y-97340475D01*
X152115702Y-97340475D02*
X152068083Y-97292856D01*
X152068083Y-97292856D02*
X152020464Y-97197618D01*
X152020464Y-96007142D02*
X152020464Y-96197618D01*
X152020464Y-96197618D02*
X152068083Y-96292856D01*
X152068083Y-96292856D02*
X152115702Y-96340475D01*
X152115702Y-96340475D02*
X152258559Y-96435713D01*
X152258559Y-96435713D02*
X152449035Y-96483332D01*
X152449035Y-96483332D02*
X152829987Y-96483332D01*
X152829987Y-96483332D02*
X152925225Y-96435713D01*
X152925225Y-96435713D02*
X152972845Y-96388094D01*
X152972845Y-96388094D02*
X153020464Y-96292856D01*
X153020464Y-96292856D02*
X153020464Y-96102380D01*
X153020464Y-96102380D02*
X152972845Y-96007142D01*
X152972845Y-96007142D02*
X152925225Y-95959523D01*
X152925225Y-95959523D02*
X152829987Y-95911904D01*
X152829987Y-95911904D02*
X152591892Y-95911904D01*
X152591892Y-95911904D02*
X152496654Y-95959523D01*
X152496654Y-95959523D02*
X152449035Y-96007142D01*
X152449035Y-96007142D02*
X152401416Y-96102380D01*
X152401416Y-96102380D02*
X152401416Y-96292856D01*
X152401416Y-96292856D02*
X152449035Y-96388094D01*
X152449035Y-96388094D02*
X152496654Y-96435713D01*
X152496654Y-96435713D02*
X152591892Y-96483332D01*
X136440465Y-86319048D02*
X135964274Y-86652381D01*
X136440465Y-86890476D02*
X135440465Y-86890476D01*
X135440465Y-86890476D02*
X135440465Y-86509524D01*
X135440465Y-86509524D02*
X135488084Y-86414286D01*
X135488084Y-86414286D02*
X135535703Y-86366667D01*
X135535703Y-86366667D02*
X135630941Y-86319048D01*
X135630941Y-86319048D02*
X135773798Y-86319048D01*
X135773798Y-86319048D02*
X135869036Y-86366667D01*
X135869036Y-86366667D02*
X135916655Y-86414286D01*
X135916655Y-86414286D02*
X135964274Y-86509524D01*
X135964274Y-86509524D02*
X135964274Y-86890476D01*
X135440465Y-85985714D02*
X135440465Y-85366667D01*
X135440465Y-85366667D02*
X135821417Y-85700000D01*
X135821417Y-85700000D02*
X135821417Y-85557143D01*
X135821417Y-85557143D02*
X135869036Y-85461905D01*
X135869036Y-85461905D02*
X135916655Y-85414286D01*
X135916655Y-85414286D02*
X136011893Y-85366667D01*
X136011893Y-85366667D02*
X136249988Y-85366667D01*
X136249988Y-85366667D02*
X136345226Y-85414286D01*
X136345226Y-85414286D02*
X136392846Y-85461905D01*
X136392846Y-85461905D02*
X136440465Y-85557143D01*
X136440465Y-85557143D02*
X136440465Y-85842857D01*
X136440465Y-85842857D02*
X136392846Y-85938095D01*
X136392846Y-85938095D02*
X136345226Y-85985714D01*
X135440465Y-84747619D02*
X135440465Y-84652381D01*
X135440465Y-84652381D02*
X135488084Y-84557143D01*
X135488084Y-84557143D02*
X135535703Y-84509524D01*
X135535703Y-84509524D02*
X135630941Y-84461905D01*
X135630941Y-84461905D02*
X135821417Y-84414286D01*
X135821417Y-84414286D02*
X136059512Y-84414286D01*
X136059512Y-84414286D02*
X136249988Y-84461905D01*
X136249988Y-84461905D02*
X136345226Y-84509524D01*
X136345226Y-84509524D02*
X136392846Y-84557143D01*
X136392846Y-84557143D02*
X136440465Y-84652381D01*
X136440465Y-84652381D02*
X136440465Y-84747619D01*
X136440465Y-84747619D02*
X136392846Y-84842857D01*
X136392846Y-84842857D02*
X136345226Y-84890476D01*
X136345226Y-84890476D02*
X136249988Y-84938095D01*
X136249988Y-84938095D02*
X136059512Y-84985714D01*
X136059512Y-84985714D02*
X135821417Y-84985714D01*
X135821417Y-84985714D02*
X135630941Y-84938095D01*
X135630941Y-84938095D02*
X135535703Y-84890476D01*
X135535703Y-84890476D02*
X135488084Y-84842857D01*
X135488084Y-84842857D02*
X135440465Y-84747619D01*
X136440465Y-83461905D02*
X136440465Y-84033333D01*
X136440465Y-83747619D02*
X135440465Y-83747619D01*
X135440465Y-83747619D02*
X135583322Y-83842857D01*
X135583322Y-83842857D02*
X135678560Y-83938095D01*
X135678560Y-83938095D02*
X135726179Y-84033333D01*
X157870465Y-95040475D02*
X156870465Y-95040475D01*
X156870465Y-95040475D02*
X156870465Y-94802380D01*
X156870465Y-94802380D02*
X156918084Y-94659523D01*
X156918084Y-94659523D02*
X157013322Y-94564285D01*
X157013322Y-94564285D02*
X157108560Y-94516666D01*
X157108560Y-94516666D02*
X157299036Y-94469047D01*
X157299036Y-94469047D02*
X157441893Y-94469047D01*
X157441893Y-94469047D02*
X157632369Y-94516666D01*
X157632369Y-94516666D02*
X157727607Y-94564285D01*
X157727607Y-94564285D02*
X157822846Y-94659523D01*
X157822846Y-94659523D02*
X157870465Y-94802380D01*
X157870465Y-94802380D02*
X157870465Y-95040475D01*
X156870465Y-93564285D02*
X156870465Y-94040475D01*
X156870465Y-94040475D02*
X157346655Y-94088094D01*
X157346655Y-94088094D02*
X157299036Y-94040475D01*
X157299036Y-94040475D02*
X157251417Y-93945237D01*
X157251417Y-93945237D02*
X157251417Y-93707142D01*
X157251417Y-93707142D02*
X157299036Y-93611904D01*
X157299036Y-93611904D02*
X157346655Y-93564285D01*
X157346655Y-93564285D02*
X157441893Y-93516666D01*
X157441893Y-93516666D02*
X157679988Y-93516666D01*
X157679988Y-93516666D02*
X157775226Y-93564285D01*
X157775226Y-93564285D02*
X157822846Y-93611904D01*
X157822846Y-93611904D02*
X157870465Y-93707142D01*
X157870465Y-93707142D02*
X157870465Y-93945237D01*
X157870465Y-93945237D02*
X157822846Y-94040475D01*
X157822846Y-94040475D02*
X157775226Y-94088094D01*
X156870465Y-92897618D02*
X156870465Y-92802380D01*
X156870465Y-92802380D02*
X156918084Y-92707142D01*
X156918084Y-92707142D02*
X156965703Y-92659523D01*
X156965703Y-92659523D02*
X157060941Y-92611904D01*
X157060941Y-92611904D02*
X157251417Y-92564285D01*
X157251417Y-92564285D02*
X157489512Y-92564285D01*
X157489512Y-92564285D02*
X157679988Y-92611904D01*
X157679988Y-92611904D02*
X157775226Y-92659523D01*
X157775226Y-92659523D02*
X157822846Y-92707142D01*
X157822846Y-92707142D02*
X157870465Y-92802380D01*
X157870465Y-92802380D02*
X157870465Y-92897618D01*
X157870465Y-92897618D02*
X157822846Y-92992856D01*
X157822846Y-92992856D02*
X157775226Y-93040475D01*
X157775226Y-93040475D02*
X157679988Y-93088094D01*
X157679988Y-93088094D02*
X157489512Y-93135713D01*
X157489512Y-93135713D02*
X157251417Y-93135713D01*
X157251417Y-93135713D02*
X157060941Y-93088094D01*
X157060941Y-93088094D02*
X156965703Y-93040475D01*
X156965703Y-93040475D02*
X156918084Y-92992856D01*
X156918084Y-92992856D02*
X156870465Y-92897618D01*
X156965703Y-92183332D02*
X156918084Y-92135713D01*
X156918084Y-92135713D02*
X156870465Y-92040475D01*
X156870465Y-92040475D02*
X156870465Y-91802380D01*
X156870465Y-91802380D02*
X156918084Y-91707142D01*
X156918084Y-91707142D02*
X156965703Y-91659523D01*
X156965703Y-91659523D02*
X157060941Y-91611904D01*
X157060941Y-91611904D02*
X157156179Y-91611904D01*
X157156179Y-91611904D02*
X157299036Y-91659523D01*
X157299036Y-91659523D02*
X157870465Y-92230951D01*
X157870465Y-92230951D02*
X157870465Y-91611904D01*
X145495225Y-75406546D02*
X145542845Y-75454165D01*
X145542845Y-75454165D02*
X145590464Y-75597022D01*
X145590464Y-75597022D02*
X145590464Y-75692260D01*
X145590464Y-75692260D02*
X145542845Y-75835117D01*
X145542845Y-75835117D02*
X145447606Y-75930355D01*
X145447606Y-75930355D02*
X145352368Y-75977974D01*
X145352368Y-75977974D02*
X145161892Y-76025593D01*
X145161892Y-76025593D02*
X145019035Y-76025593D01*
X145019035Y-76025593D02*
X144828559Y-75977974D01*
X144828559Y-75977974D02*
X144733321Y-75930355D01*
X144733321Y-75930355D02*
X144638083Y-75835117D01*
X144638083Y-75835117D02*
X144590464Y-75692260D01*
X144590464Y-75692260D02*
X144590464Y-75597022D01*
X144590464Y-75597022D02*
X144638083Y-75454165D01*
X144638083Y-75454165D02*
X144685702Y-75406546D01*
X144923797Y-74549403D02*
X145590464Y-74549403D01*
X144542845Y-74787498D02*
X145257130Y-75025593D01*
X145257130Y-75025593D02*
X145257130Y-74406546D01*
X144590464Y-73835117D02*
X144590464Y-73739879D01*
X144590464Y-73739879D02*
X144638083Y-73644641D01*
X144638083Y-73644641D02*
X144685702Y-73597022D01*
X144685702Y-73597022D02*
X144780940Y-73549403D01*
X144780940Y-73549403D02*
X144971416Y-73501784D01*
X144971416Y-73501784D02*
X145209511Y-73501784D01*
X145209511Y-73501784D02*
X145399987Y-73549403D01*
X145399987Y-73549403D02*
X145495225Y-73597022D01*
X145495225Y-73597022D02*
X145542845Y-73644641D01*
X145542845Y-73644641D02*
X145590464Y-73739879D01*
X145590464Y-73739879D02*
X145590464Y-73835117D01*
X145590464Y-73835117D02*
X145542845Y-73930355D01*
X145542845Y-73930355D02*
X145495225Y-73977974D01*
X145495225Y-73977974D02*
X145399987Y-74025593D01*
X145399987Y-74025593D02*
X145209511Y-74073212D01*
X145209511Y-74073212D02*
X144971416Y-74073212D01*
X144971416Y-74073212D02*
X144780940Y-74025593D01*
X144780940Y-74025593D02*
X144685702Y-73977974D01*
X144685702Y-73977974D02*
X144638083Y-73930355D01*
X144638083Y-73930355D02*
X144590464Y-73835117D01*
X145590464Y-72549403D02*
X145590464Y-73120831D01*
X145590464Y-72835117D02*
X144590464Y-72835117D01*
X144590464Y-72835117D02*
X144733321Y-72930355D01*
X144733321Y-72930355D02*
X144828559Y-73025593D01*
X144828559Y-73025593D02*
X144876178Y-73120831D01*
X146725225Y-80869047D02*
X146772845Y-80916666D01*
X146772845Y-80916666D02*
X146820464Y-81059523D01*
X146820464Y-81059523D02*
X146820464Y-81154761D01*
X146820464Y-81154761D02*
X146772845Y-81297618D01*
X146772845Y-81297618D02*
X146677606Y-81392856D01*
X146677606Y-81392856D02*
X146582368Y-81440475D01*
X146582368Y-81440475D02*
X146391892Y-81488094D01*
X146391892Y-81488094D02*
X146249035Y-81488094D01*
X146249035Y-81488094D02*
X146058559Y-81440475D01*
X146058559Y-81440475D02*
X145963321Y-81392856D01*
X145963321Y-81392856D02*
X145868083Y-81297618D01*
X145868083Y-81297618D02*
X145820464Y-81154761D01*
X145820464Y-81154761D02*
X145820464Y-81059523D01*
X145820464Y-81059523D02*
X145868083Y-80916666D01*
X145868083Y-80916666D02*
X145915702Y-80869047D01*
X146153797Y-80011904D02*
X146820464Y-80011904D01*
X145772845Y-80249999D02*
X146487130Y-80488094D01*
X146487130Y-80488094D02*
X146487130Y-79869047D01*
X145820464Y-79297618D02*
X145820464Y-79202380D01*
X145820464Y-79202380D02*
X145868083Y-79107142D01*
X145868083Y-79107142D02*
X145915702Y-79059523D01*
X145915702Y-79059523D02*
X146010940Y-79011904D01*
X146010940Y-79011904D02*
X146201416Y-78964285D01*
X146201416Y-78964285D02*
X146439511Y-78964285D01*
X146439511Y-78964285D02*
X146629987Y-79011904D01*
X146629987Y-79011904D02*
X146725225Y-79059523D01*
X146725225Y-79059523D02*
X146772845Y-79107142D01*
X146772845Y-79107142D02*
X146820464Y-79202380D01*
X146820464Y-79202380D02*
X146820464Y-79297618D01*
X146820464Y-79297618D02*
X146772845Y-79392856D01*
X146772845Y-79392856D02*
X146725225Y-79440475D01*
X146725225Y-79440475D02*
X146629987Y-79488094D01*
X146629987Y-79488094D02*
X146439511Y-79535713D01*
X146439511Y-79535713D02*
X146201416Y-79535713D01*
X146201416Y-79535713D02*
X146010940Y-79488094D01*
X146010940Y-79488094D02*
X145915702Y-79440475D01*
X145915702Y-79440475D02*
X145868083Y-79392856D01*
X145868083Y-79392856D02*
X145820464Y-79297618D01*
X145915702Y-78583332D02*
X145868083Y-78535713D01*
X145868083Y-78535713D02*
X145820464Y-78440475D01*
X145820464Y-78440475D02*
X145820464Y-78202380D01*
X145820464Y-78202380D02*
X145868083Y-78107142D01*
X145868083Y-78107142D02*
X145915702Y-78059523D01*
X145915702Y-78059523D02*
X146010940Y-78011904D01*
X146010940Y-78011904D02*
X146106178Y-78011904D01*
X146106178Y-78011904D02*
X146249035Y-78059523D01*
X146249035Y-78059523D02*
X146820464Y-78630951D01*
X146820464Y-78630951D02*
X146820464Y-78011904D01*
X147688859Y-80554819D02*
X147688859Y-81364342D01*
X147688859Y-81364342D02*
X147736478Y-81459580D01*
X147736478Y-81459580D02*
X147784097Y-81507200D01*
X147784097Y-81507200D02*
X147879335Y-81554819D01*
X147879335Y-81554819D02*
X148069811Y-81554819D01*
X148069811Y-81554819D02*
X148165049Y-81507200D01*
X148165049Y-81507200D02*
X148212668Y-81459580D01*
X148212668Y-81459580D02*
X148260287Y-81364342D01*
X148260287Y-81364342D02*
X148260287Y-80554819D01*
X149165049Y-80888152D02*
X149165049Y-81554819D01*
X148926954Y-80507200D02*
X148688859Y-81221485D01*
X148688859Y-81221485D02*
X149307906Y-81221485D01*
X149879335Y-80554819D02*
X149974573Y-80554819D01*
X149974573Y-80554819D02*
X150069811Y-80602438D01*
X150069811Y-80602438D02*
X150117430Y-80650057D01*
X150117430Y-80650057D02*
X150165049Y-80745295D01*
X150165049Y-80745295D02*
X150212668Y-80935771D01*
X150212668Y-80935771D02*
X150212668Y-81173866D01*
X150212668Y-81173866D02*
X150165049Y-81364342D01*
X150165049Y-81364342D02*
X150117430Y-81459580D01*
X150117430Y-81459580D02*
X150069811Y-81507200D01*
X150069811Y-81507200D02*
X149974573Y-81554819D01*
X149974573Y-81554819D02*
X149879335Y-81554819D01*
X149879335Y-81554819D02*
X149784097Y-81507200D01*
X149784097Y-81507200D02*
X149736478Y-81459580D01*
X149736478Y-81459580D02*
X149688859Y-81364342D01*
X149688859Y-81364342D02*
X149641240Y-81173866D01*
X149641240Y-81173866D02*
X149641240Y-80935771D01*
X149641240Y-80935771D02*
X149688859Y-80745295D01*
X149688859Y-80745295D02*
X149736478Y-80650057D01*
X149736478Y-80650057D02*
X149784097Y-80602438D01*
X149784097Y-80602438D02*
X149879335Y-80554819D01*
X151165049Y-81554819D02*
X150593621Y-81554819D01*
X150879335Y-81554819D02*
X150879335Y-80554819D01*
X150879335Y-80554819D02*
X150784097Y-80697676D01*
X150784097Y-80697676D02*
X150688859Y-80792914D01*
X150688859Y-80792914D02*
X150593621Y-80840533D01*
X141696597Y-84834818D02*
X141363264Y-84358627D01*
X141125169Y-84834818D02*
X141125169Y-83834818D01*
X141125169Y-83834818D02*
X141506121Y-83834818D01*
X141506121Y-83834818D02*
X141601359Y-83882437D01*
X141601359Y-83882437D02*
X141648978Y-83930056D01*
X141648978Y-83930056D02*
X141696597Y-84025294D01*
X141696597Y-84025294D02*
X141696597Y-84168151D01*
X141696597Y-84168151D02*
X141648978Y-84263389D01*
X141648978Y-84263389D02*
X141601359Y-84311008D01*
X141601359Y-84311008D02*
X141506121Y-84358627D01*
X141506121Y-84358627D02*
X141125169Y-84358627D01*
X142553740Y-84168151D02*
X142553740Y-84834818D01*
X142315645Y-83787199D02*
X142077550Y-84501484D01*
X142077550Y-84501484D02*
X142696597Y-84501484D01*
X143268026Y-83834818D02*
X143363264Y-83834818D01*
X143363264Y-83834818D02*
X143458502Y-83882437D01*
X143458502Y-83882437D02*
X143506121Y-83930056D01*
X143506121Y-83930056D02*
X143553740Y-84025294D01*
X143553740Y-84025294D02*
X143601359Y-84215770D01*
X143601359Y-84215770D02*
X143601359Y-84453865D01*
X143601359Y-84453865D02*
X143553740Y-84644341D01*
X143553740Y-84644341D02*
X143506121Y-84739579D01*
X143506121Y-84739579D02*
X143458502Y-84787199D01*
X143458502Y-84787199D02*
X143363264Y-84834818D01*
X143363264Y-84834818D02*
X143268026Y-84834818D01*
X143268026Y-84834818D02*
X143172788Y-84787199D01*
X143172788Y-84787199D02*
X143125169Y-84739579D01*
X143125169Y-84739579D02*
X143077550Y-84644341D01*
X143077550Y-84644341D02*
X143029931Y-84453865D01*
X143029931Y-84453865D02*
X143029931Y-84215770D01*
X143029931Y-84215770D02*
X143077550Y-84025294D01*
X143077550Y-84025294D02*
X143125169Y-83930056D01*
X143125169Y-83930056D02*
X143172788Y-83882437D01*
X143172788Y-83882437D02*
X143268026Y-83834818D01*
X143934693Y-83834818D02*
X144553740Y-83834818D01*
X144553740Y-83834818D02*
X144220407Y-84215770D01*
X144220407Y-84215770D02*
X144363264Y-84215770D01*
X144363264Y-84215770D02*
X144458502Y-84263389D01*
X144458502Y-84263389D02*
X144506121Y-84311008D01*
X144506121Y-84311008D02*
X144553740Y-84406246D01*
X144553740Y-84406246D02*
X144553740Y-84644341D01*
X144553740Y-84644341D02*
X144506121Y-84739579D01*
X144506121Y-84739579D02*
X144458502Y-84787199D01*
X144458502Y-84787199D02*
X144363264Y-84834818D01*
X144363264Y-84834818D02*
X144077550Y-84834818D01*
X144077550Y-84834818D02*
X143982312Y-84787199D01*
X143982312Y-84787199D02*
X143934693Y-84739579D01*
X158520464Y-68769047D02*
X158044273Y-69102380D01*
X158520464Y-69340475D02*
X157520464Y-69340475D01*
X157520464Y-69340475D02*
X157520464Y-68959523D01*
X157520464Y-68959523D02*
X157568083Y-68864285D01*
X157568083Y-68864285D02*
X157615702Y-68816666D01*
X157615702Y-68816666D02*
X157710940Y-68769047D01*
X157710940Y-68769047D02*
X157853797Y-68769047D01*
X157853797Y-68769047D02*
X157949035Y-68816666D01*
X157949035Y-68816666D02*
X157996654Y-68864285D01*
X157996654Y-68864285D02*
X158044273Y-68959523D01*
X158044273Y-68959523D02*
X158044273Y-69340475D01*
X157520464Y-67864285D02*
X157520464Y-68340475D01*
X157520464Y-68340475D02*
X157996654Y-68388094D01*
X157996654Y-68388094D02*
X157949035Y-68340475D01*
X157949035Y-68340475D02*
X157901416Y-68245237D01*
X157901416Y-68245237D02*
X157901416Y-68007142D01*
X157901416Y-68007142D02*
X157949035Y-67911904D01*
X157949035Y-67911904D02*
X157996654Y-67864285D01*
X157996654Y-67864285D02*
X158091892Y-67816666D01*
X158091892Y-67816666D02*
X158329987Y-67816666D01*
X158329987Y-67816666D02*
X158425225Y-67864285D01*
X158425225Y-67864285D02*
X158472845Y-67911904D01*
X158472845Y-67911904D02*
X158520464Y-68007142D01*
X158520464Y-68007142D02*
X158520464Y-68245237D01*
X158520464Y-68245237D02*
X158472845Y-68340475D01*
X158472845Y-68340475D02*
X158425225Y-68388094D01*
X157520464Y-67197618D02*
X157520464Y-67102380D01*
X157520464Y-67102380D02*
X157568083Y-67007142D01*
X157568083Y-67007142D02*
X157615702Y-66959523D01*
X157615702Y-66959523D02*
X157710940Y-66911904D01*
X157710940Y-66911904D02*
X157901416Y-66864285D01*
X157901416Y-66864285D02*
X158139511Y-66864285D01*
X158139511Y-66864285D02*
X158329987Y-66911904D01*
X158329987Y-66911904D02*
X158425225Y-66959523D01*
X158425225Y-66959523D02*
X158472845Y-67007142D01*
X158472845Y-67007142D02*
X158520464Y-67102380D01*
X158520464Y-67102380D02*
X158520464Y-67197618D01*
X158520464Y-67197618D02*
X158472845Y-67292856D01*
X158472845Y-67292856D02*
X158425225Y-67340475D01*
X158425225Y-67340475D02*
X158329987Y-67388094D01*
X158329987Y-67388094D02*
X158139511Y-67435713D01*
X158139511Y-67435713D02*
X157901416Y-67435713D01*
X157901416Y-67435713D02*
X157710940Y-67388094D01*
X157710940Y-67388094D02*
X157615702Y-67340475D01*
X157615702Y-67340475D02*
X157568083Y-67292856D01*
X157568083Y-67292856D02*
X157520464Y-67197618D01*
X157615702Y-66483332D02*
X157568083Y-66435713D01*
X157568083Y-66435713D02*
X157520464Y-66340475D01*
X157520464Y-66340475D02*
X157520464Y-66102380D01*
X157520464Y-66102380D02*
X157568083Y-66007142D01*
X157568083Y-66007142D02*
X157615702Y-65959523D01*
X157615702Y-65959523D02*
X157710940Y-65911904D01*
X157710940Y-65911904D02*
X157806178Y-65911904D01*
X157806178Y-65911904D02*
X157949035Y-65959523D01*
X157949035Y-65959523D02*
X158520464Y-66530951D01*
X158520464Y-66530951D02*
X158520464Y-65911904D01*
X136520464Y-81019047D02*
X136044273Y-81352380D01*
X136520464Y-81590475D02*
X135520464Y-81590475D01*
X135520464Y-81590475D02*
X135520464Y-81209523D01*
X135520464Y-81209523D02*
X135568083Y-81114285D01*
X135568083Y-81114285D02*
X135615702Y-81066666D01*
X135615702Y-81066666D02*
X135710940Y-81019047D01*
X135710940Y-81019047D02*
X135853797Y-81019047D01*
X135853797Y-81019047D02*
X135949035Y-81066666D01*
X135949035Y-81066666D02*
X135996654Y-81114285D01*
X135996654Y-81114285D02*
X136044273Y-81209523D01*
X136044273Y-81209523D02*
X136044273Y-81590475D01*
X135520464Y-80685713D02*
X135520464Y-80066666D01*
X135520464Y-80066666D02*
X135901416Y-80399999D01*
X135901416Y-80399999D02*
X135901416Y-80257142D01*
X135901416Y-80257142D02*
X135949035Y-80161904D01*
X135949035Y-80161904D02*
X135996654Y-80114285D01*
X135996654Y-80114285D02*
X136091892Y-80066666D01*
X136091892Y-80066666D02*
X136329987Y-80066666D01*
X136329987Y-80066666D02*
X136425225Y-80114285D01*
X136425225Y-80114285D02*
X136472845Y-80161904D01*
X136472845Y-80161904D02*
X136520464Y-80257142D01*
X136520464Y-80257142D02*
X136520464Y-80542856D01*
X136520464Y-80542856D02*
X136472845Y-80638094D01*
X136472845Y-80638094D02*
X136425225Y-80685713D01*
X135520464Y-79447618D02*
X135520464Y-79352380D01*
X135520464Y-79352380D02*
X135568083Y-79257142D01*
X135568083Y-79257142D02*
X135615702Y-79209523D01*
X135615702Y-79209523D02*
X135710940Y-79161904D01*
X135710940Y-79161904D02*
X135901416Y-79114285D01*
X135901416Y-79114285D02*
X136139511Y-79114285D01*
X136139511Y-79114285D02*
X136329987Y-79161904D01*
X136329987Y-79161904D02*
X136425225Y-79209523D01*
X136425225Y-79209523D02*
X136472845Y-79257142D01*
X136472845Y-79257142D02*
X136520464Y-79352380D01*
X136520464Y-79352380D02*
X136520464Y-79447618D01*
X136520464Y-79447618D02*
X136472845Y-79542856D01*
X136472845Y-79542856D02*
X136425225Y-79590475D01*
X136425225Y-79590475D02*
X136329987Y-79638094D01*
X136329987Y-79638094D02*
X136139511Y-79685713D01*
X136139511Y-79685713D02*
X135901416Y-79685713D01*
X135901416Y-79685713D02*
X135710940Y-79638094D01*
X135710940Y-79638094D02*
X135615702Y-79590475D01*
X135615702Y-79590475D02*
X135568083Y-79542856D01*
X135568083Y-79542856D02*
X135520464Y-79447618D01*
X135520464Y-78780951D02*
X135520464Y-78161904D01*
X135520464Y-78161904D02*
X135901416Y-78495237D01*
X135901416Y-78495237D02*
X135901416Y-78352380D01*
X135901416Y-78352380D02*
X135949035Y-78257142D01*
X135949035Y-78257142D02*
X135996654Y-78209523D01*
X135996654Y-78209523D02*
X136091892Y-78161904D01*
X136091892Y-78161904D02*
X136329987Y-78161904D01*
X136329987Y-78161904D02*
X136425225Y-78209523D01*
X136425225Y-78209523D02*
X136472845Y-78257142D01*
X136472845Y-78257142D02*
X136520464Y-78352380D01*
X136520464Y-78352380D02*
X136520464Y-78638094D01*
X136520464Y-78638094D02*
X136472845Y-78733332D01*
X136472845Y-78733332D02*
X136425225Y-78780951D01*
X169875169Y-87954820D02*
X169875169Y-86954820D01*
X169875169Y-86954820D02*
X170113264Y-86954820D01*
X170113264Y-86954820D02*
X170256121Y-87002439D01*
X170256121Y-87002439D02*
X170351359Y-87097677D01*
X170351359Y-87097677D02*
X170398978Y-87192915D01*
X170398978Y-87192915D02*
X170446597Y-87383391D01*
X170446597Y-87383391D02*
X170446597Y-87526248D01*
X170446597Y-87526248D02*
X170398978Y-87716724D01*
X170398978Y-87716724D02*
X170351359Y-87811962D01*
X170351359Y-87811962D02*
X170256121Y-87907201D01*
X170256121Y-87907201D02*
X170113264Y-87954820D01*
X170113264Y-87954820D02*
X169875169Y-87954820D01*
X171303740Y-86954820D02*
X171113264Y-86954820D01*
X171113264Y-86954820D02*
X171018026Y-87002439D01*
X171018026Y-87002439D02*
X170970407Y-87050058D01*
X170970407Y-87050058D02*
X170875169Y-87192915D01*
X170875169Y-87192915D02*
X170827550Y-87383391D01*
X170827550Y-87383391D02*
X170827550Y-87764343D01*
X170827550Y-87764343D02*
X170875169Y-87859581D01*
X170875169Y-87859581D02*
X170922788Y-87907201D01*
X170922788Y-87907201D02*
X171018026Y-87954820D01*
X171018026Y-87954820D02*
X171208502Y-87954820D01*
X171208502Y-87954820D02*
X171303740Y-87907201D01*
X171303740Y-87907201D02*
X171351359Y-87859581D01*
X171351359Y-87859581D02*
X171398978Y-87764343D01*
X171398978Y-87764343D02*
X171398978Y-87526248D01*
X171398978Y-87526248D02*
X171351359Y-87431010D01*
X171351359Y-87431010D02*
X171303740Y-87383391D01*
X171303740Y-87383391D02*
X171208502Y-87335772D01*
X171208502Y-87335772D02*
X171018026Y-87335772D01*
X171018026Y-87335772D02*
X170922788Y-87383391D01*
X170922788Y-87383391D02*
X170875169Y-87431010D01*
X170875169Y-87431010D02*
X170827550Y-87526248D01*
X172018026Y-86954820D02*
X172113264Y-86954820D01*
X172113264Y-86954820D02*
X172208502Y-87002439D01*
X172208502Y-87002439D02*
X172256121Y-87050058D01*
X172256121Y-87050058D02*
X172303740Y-87145296D01*
X172303740Y-87145296D02*
X172351359Y-87335772D01*
X172351359Y-87335772D02*
X172351359Y-87573867D01*
X172351359Y-87573867D02*
X172303740Y-87764343D01*
X172303740Y-87764343D02*
X172256121Y-87859581D01*
X172256121Y-87859581D02*
X172208502Y-87907201D01*
X172208502Y-87907201D02*
X172113264Y-87954820D01*
X172113264Y-87954820D02*
X172018026Y-87954820D01*
X172018026Y-87954820D02*
X171922788Y-87907201D01*
X171922788Y-87907201D02*
X171875169Y-87859581D01*
X171875169Y-87859581D02*
X171827550Y-87764343D01*
X171827550Y-87764343D02*
X171779931Y-87573867D01*
X171779931Y-87573867D02*
X171779931Y-87335772D01*
X171779931Y-87335772D02*
X171827550Y-87145296D01*
X171827550Y-87145296D02*
X171875169Y-87050058D01*
X171875169Y-87050058D02*
X171922788Y-87002439D01*
X171922788Y-87002439D02*
X172018026Y-86954820D01*
X173303740Y-87954820D02*
X172732312Y-87954820D01*
X173018026Y-87954820D02*
X173018026Y-86954820D01*
X173018026Y-86954820D02*
X172922788Y-87097677D01*
X172922788Y-87097677D02*
X172827550Y-87192915D01*
X172827550Y-87192915D02*
X172732312Y-87240534D01*
D12*
%TO.C,R302*%
X136905645Y-90927065D02*
X136905645Y-89472937D01*
X138725645Y-90927065D02*
X138725645Y-89472937D01*
%TO.C,R401*%
X147655645Y-76922936D02*
X147655645Y-78377064D01*
X149475645Y-76922936D02*
X149475645Y-78377064D01*
%TO.C,R503*%
X154655645Y-75172935D02*
X154655645Y-76627063D01*
X156475645Y-75172935D02*
X156475645Y-76627063D01*
D13*
%TO.C,Q602*%
X168085845Y-74174200D02*
X168085845Y-80625800D01*
X168085845Y-80625800D02*
X175045445Y-80625800D01*
X168477005Y-74174200D02*
X168085845Y-74174200D01*
X175045445Y-74174200D02*
X174654285Y-74174200D01*
X175045445Y-80625800D02*
X175045445Y-74174200D01*
D14*
X170549645Y-82988000D02*
X170041645Y-82480000D01*
X170549645Y-81972000D01*
X170549645Y-82988000D01*
G36*
X170549645Y-82988000D02*
G01*
X170041645Y-82480000D01*
X170549645Y-81972000D01*
X170549645Y-82988000D01*
G37*
D12*
%TO.C,Q601*%
X168368145Y-93290000D02*
X169888145Y-93290000D01*
X168368145Y-93340000D02*
X168368145Y-93290000D01*
X168368145Y-95240000D02*
X168368145Y-94460000D01*
X168368145Y-96410000D02*
X168368145Y-96360000D01*
X169888145Y-93290000D02*
X169888145Y-94290000D01*
X169888145Y-95410000D02*
X169888145Y-96410000D01*
X169888145Y-96410000D02*
X168368145Y-96410000D01*
X168068145Y-94800000D02*
X167588145Y-94800000D01*
X167828145Y-94470000D01*
X168068145Y-94800000D01*
G36*
X168068145Y-94800000D02*
G01*
X167588145Y-94800000D01*
X167828145Y-94470000D01*
X168068145Y-94800000D01*
G37*
%TO.C,TP101*%
X124115645Y-88337500D02*
X126515645Y-88337500D01*
X124115645Y-90737500D02*
X124115645Y-88337500D01*
X126515645Y-88337500D02*
X126515645Y-90737500D01*
X126515645Y-90737500D02*
X124115645Y-90737500D01*
%TO.C,R505*%
X147655645Y-89977064D02*
X147655645Y-88522936D01*
X149475645Y-89977064D02*
X149475645Y-88522936D01*
%TO.C,TP103*%
X178765644Y-84850000D02*
G75*
G02*
X176865646Y-84850000I-949999J0D01*
G01*
X176865646Y-84850000D02*
G75*
G02*
X178765644Y-84850000I949999J0D01*
G01*
%TO.C,R304*%
X136905645Y-74172936D02*
X136905645Y-75627064D01*
X138725645Y-74172936D02*
X138725645Y-75627064D01*
%TO.C,C502*%
X160819378Y-76940000D02*
X161111912Y-76940000D01*
X160819378Y-77960000D02*
X161111912Y-77960000D01*
%TO.C,C501*%
X160819378Y-87140000D02*
X161111912Y-87140000D01*
X160819378Y-88160000D02*
X161111912Y-88160000D01*
%TO.C,TP401*%
X150965645Y-69250000D02*
G75*
G02*
X149565645Y-69250000I-700000J0D01*
G01*
X149565645Y-69250000D02*
G75*
G02*
X150965645Y-69250000I700000J0D01*
G01*
%TO.C,TP403*%
X144915645Y-79050000D02*
G75*
G02*
X143515645Y-79050000I-700000J0D01*
G01*
X143515645Y-79050000D02*
G75*
G02*
X144915645Y-79050000I700000J0D01*
G01*
%TO.C,J101*%
X112245645Y-70530000D02*
X112245645Y-79770000D01*
X112245645Y-79770000D02*
X120365645Y-79770000D01*
X125765645Y-79770000D02*
X126985645Y-79770000D01*
X126985645Y-70530000D02*
X112245645Y-70530000D01*
X126985645Y-72200000D02*
X126985645Y-70530000D01*
X126985645Y-79770000D02*
X126985645Y-78100000D01*
%TO.C,R602*%
X165055645Y-93027063D02*
X165055645Y-91572935D01*
X166875645Y-93027063D02*
X166875645Y-91572935D01*
%TO.C,TP503*%
X170015644Y-98900000D02*
G75*
G02*
X168115646Y-98900000I-949999J0D01*
G01*
X168115646Y-98900000D02*
G75*
G02*
X170015644Y-98900000I949999J0D01*
G01*
%TO.C,R604*%
X170655645Y-68877064D02*
X170655645Y-67422936D01*
X172475645Y-68877064D02*
X172475645Y-67422936D01*
%TO.C,R201*%
X127738581Y-93740000D02*
X129192709Y-93740000D01*
X127738581Y-95560000D02*
X129192709Y-95560000D01*
D13*
%TO.C,Q201*%
X128085845Y-74174200D02*
X128085845Y-80625800D01*
X128085845Y-80625800D02*
X135045445Y-80625800D01*
X128477005Y-74174200D02*
X128085845Y-74174200D01*
X135045445Y-74174200D02*
X134654285Y-74174200D01*
X135045445Y-80625800D02*
X135045445Y-74174200D01*
D14*
X130549645Y-82988000D02*
X130041645Y-82480000D01*
X130549645Y-81972000D01*
X130549645Y-82988000D01*
G36*
X130549645Y-82988000D02*
G01*
X130041645Y-82480000D01*
X130549645Y-81972000D01*
X130549645Y-82988000D01*
G37*
D12*
%TO.C,R504*%
X154655645Y-89927065D02*
X154655645Y-88472937D01*
X156475645Y-89927065D02*
X156475645Y-88472937D01*
%TO.C,TP104*%
X176615645Y-88337500D02*
X179015645Y-88337500D01*
X176615645Y-90737500D02*
X176615645Y-88337500D01*
X179015645Y-88337500D02*
X179015645Y-90737500D01*
X179015645Y-90737500D02*
X176615645Y-90737500D01*
%TO.C,J104*%
X176145645Y-70530000D02*
X176145645Y-72200000D01*
X176145645Y-78100000D02*
X176145645Y-79770000D01*
X176145645Y-79770000D02*
X190885645Y-79770000D01*
X177365645Y-70530000D02*
X176145645Y-70530000D01*
X190885645Y-70530000D02*
X182765645Y-70530000D01*
X190885645Y-79770000D02*
X190885645Y-70530000D01*
%TO.C,TP303*%
X142515644Y-77400000D02*
G75*
G02*
X140615646Y-77400000I-949999J0D01*
G01*
X140615646Y-77400000D02*
G75*
G02*
X142515644Y-77400000I949999J0D01*
G01*
D11*
%TO.C,U501*%
X154740645Y-84625001D02*
X154740645Y-80474999D01*
X159890645Y-84625001D02*
X159890645Y-80474999D01*
D12*
X154740645Y-85050000D02*
X154410645Y-85290000D01*
X154410645Y-84810000D01*
X154740645Y-85050000D01*
G36*
X154740645Y-85050000D02*
G01*
X154410645Y-85290000D01*
X154410645Y-84810000D01*
X154740645Y-85050000D01*
G37*
%TO.C,J102*%
X112928145Y-83725000D02*
X120468145Y-83725000D01*
X112928145Y-85445000D02*
X112928145Y-83725000D01*
X112928145Y-91575000D02*
X112928145Y-86045000D01*
X120468144Y-91575000D02*
X112928145Y-91575000D01*
X120468145Y-83725000D02*
X120468144Y-91575000D01*
X112928145Y-85745000D02*
X112318146Y-86185000D01*
X112318146Y-85305000D01*
X112928145Y-85745000D01*
G36*
X112928145Y-85745000D02*
G01*
X112318146Y-86185000D01*
X112318146Y-85305000D01*
X112928145Y-85745000D01*
G37*
%TO.C,TP102*%
X126265644Y-84850000D02*
G75*
G02*
X124365646Y-84850000I-949999J0D01*
G01*
X124365646Y-84850000D02*
G75*
G02*
X126265644Y-84850000I949999J0D01*
G01*
%TO.C,TP501*%
X152765645Y-85400000D02*
G75*
G02*
X151365645Y-85400000I-700000J0D01*
G01*
X151365645Y-85400000D02*
G75*
G02*
X152765645Y-85400000I700000J0D01*
G01*
%TO.C,J103*%
X182663145Y-91557500D02*
X182663146Y-83707500D01*
X182663146Y-83707500D02*
X190203145Y-83707500D01*
X190203145Y-83707500D02*
X190203145Y-89237500D01*
X190203145Y-89837500D02*
X190203145Y-91557500D01*
X190203145Y-91557500D02*
X182663145Y-91557500D01*
X190813144Y-89977500D02*
X190203145Y-89537500D01*
X190813144Y-89097500D01*
X190813144Y-89977500D01*
G36*
X190813144Y-89977500D02*
G01*
X190203145Y-89537500D01*
X190813144Y-89097500D01*
X190813144Y-89977500D01*
G37*
%TO.C,TP301*%
X140365645Y-70950000D02*
X142765645Y-70950000D01*
X140365645Y-73350000D02*
X140365645Y-70950000D01*
X142765645Y-70950000D02*
X142765645Y-73350000D01*
X142765645Y-73350000D02*
X140365645Y-73350000D01*
%TO.C,R603*%
X170838581Y-89740000D02*
X172292709Y-89740000D01*
X170838581Y-91560000D02*
X172292709Y-91560000D01*
%TO.C,R601*%
X165055645Y-96672937D02*
X165055645Y-98127065D01*
X166875645Y-96672937D02*
X166875645Y-98127065D01*
%TO.C,R507*%
X151655645Y-75172936D02*
X151655645Y-76627064D01*
X153475645Y-75172936D02*
X153475645Y-76627064D01*
%TO.C,TP302*%
X142515644Y-87700000D02*
G75*
G02*
X140615646Y-87700000I-949999J0D01*
G01*
X140615646Y-87700000D02*
G75*
G02*
X142515644Y-87700000I949999J0D01*
G01*
%TO.C,R402*%
X147655645Y-71922936D02*
X147655645Y-73377064D01*
X149475645Y-71922936D02*
X149475645Y-73377064D01*
%TO.C,TP502*%
X153865645Y-72400000D02*
G75*
G02*
X152465645Y-72400000I-700000J0D01*
G01*
X152465645Y-72400000D02*
G75*
G02*
X153865645Y-72400000I700000J0D01*
G01*
%TO.C,R501*%
X157055645Y-88472937D02*
X157055645Y-89927065D01*
X158875645Y-88472937D02*
X158875645Y-89927065D01*
%TO.C,D201*%
X133575645Y-84800000D02*
X130315645Y-84800000D01*
X133575645Y-86500000D02*
X130315645Y-86500000D01*
X133575645Y-86500000D02*
X133575645Y-84800000D01*
%TO.C,R202*%
X130838581Y-89740000D02*
X132292709Y-89740000D01*
X130838581Y-91560000D02*
X132292709Y-91560000D01*
%TO.C,D501*%
X154715645Y-73310000D02*
X154715645Y-70650000D01*
X154715645Y-73310000D02*
X156415645Y-73310000D01*
X156415645Y-73310000D02*
X156415645Y-70650000D01*
%TO.C,R506*%
X151655645Y-89927065D02*
X151655645Y-88472937D01*
X153475645Y-89927065D02*
X153475645Y-88472937D01*
%TO.C,R301*%
X136905645Y-85927065D02*
X136905645Y-84472937D01*
X138725645Y-85927065D02*
X138725645Y-84472937D01*
%TO.C,D502*%
X154715645Y-91740000D02*
X154715645Y-94400000D01*
X156415645Y-91740000D02*
X154715645Y-91740000D01*
X156415645Y-91740000D02*
X156415645Y-94400000D01*
%TO.C,C401*%
X146055645Y-74433766D02*
X146055645Y-74141232D01*
X147075645Y-74433766D02*
X147075645Y-74141232D01*
%TO.C,C402*%
X145855645Y-83266234D02*
X145855645Y-83558768D01*
X146875645Y-83266234D02*
X146875645Y-83558768D01*
%TO.C,U401*%
X148643145Y-81940000D02*
X150163145Y-81940000D01*
X148643145Y-81990000D02*
X148643145Y-81940000D01*
X148643145Y-83890000D02*
X148643145Y-83110000D01*
X148643145Y-85060000D02*
X148643145Y-85010000D01*
X150163145Y-81940000D02*
X150163145Y-82940000D01*
X150163145Y-84060000D02*
X150163145Y-85060000D01*
X150163145Y-85060000D02*
X148643145Y-85060000D01*
X148343145Y-83450000D02*
X147863145Y-83450000D01*
X148103145Y-83120000D01*
X148343145Y-83450000D01*
G36*
X148343145Y-83450000D02*
G01*
X147863145Y-83450000D01*
X148103145Y-83120000D01*
X148343145Y-83450000D01*
G37*
%TO.C,R403*%
X143542709Y-81640000D02*
X142088581Y-81640000D01*
X143542709Y-83460000D02*
X142088581Y-83460000D01*
%TO.C,R502*%
X157055645Y-76627063D02*
X157055645Y-75172935D01*
X158875645Y-76627063D02*
X158875645Y-75172935D01*
%TO.C,R303*%
X136905645Y-79172936D02*
X136905645Y-80627064D01*
X138725645Y-79172936D02*
X138725645Y-80627064D01*
%TO.C,D601*%
X173575645Y-84800000D02*
X170315645Y-84800000D01*
X173575645Y-86500000D02*
X170315645Y-86500000D01*
X173575645Y-86500000D02*
X173575645Y-84800000D01*
%TO.C,TP201*%
X134065644Y-94650000D02*
G75*
G02*
X132165646Y-94650000I-949999J0D01*
G01*
X132165646Y-94650000D02*
G75*
G02*
X134065644Y-94650000I949999J0D01*
G01*
%TD*%
%LPC*%
D15*
%TO.C,R302*%
X137815645Y-91750002D03*
X137815645Y-88650000D03*
%TD*%
D16*
%TO.C,R401*%
X148565645Y-76099999D03*
X148565645Y-79200001D03*
%TD*%
%TO.C,R503*%
X155565645Y-74349998D03*
X155565645Y-77450000D03*
%TD*%
D17*
%TO.C,Q602*%
X169279645Y-82543500D03*
D18*
X171565645Y-75685500D03*
D17*
X173851645Y-82543500D03*
%TD*%
D19*
%TO.C,Q601*%
X168190645Y-93900000D03*
X168190645Y-95800000D03*
X170065645Y-94850000D03*
%TD*%
D20*
%TO.C,TP101*%
X125315645Y-89537500D03*
%TD*%
D15*
%TO.C,R505*%
X148565645Y-90800001D03*
X148565645Y-87699999D03*
%TD*%
D21*
%TO.C,TP103*%
X177815645Y-84850000D03*
%TD*%
D16*
%TO.C,R304*%
X137815645Y-73349999D03*
X137815645Y-76450001D03*
%TD*%
D22*
%TO.C,C502*%
X160103145Y-77450000D03*
X161828145Y-77450000D03*
%TD*%
%TO.C,C501*%
X160103145Y-87650000D03*
X161828145Y-87650000D03*
%TD*%
D23*
%TO.C,TP401*%
X150265645Y-69250000D03*
%TD*%
%TO.C,TP403*%
X144215645Y-79050000D03*
%TD*%
D24*
%TO.C,FID902*%
X120565645Y-97650000D03*
%TD*%
D25*
%TO.C,J101*%
X126265645Y-75150000D03*
D26*
X120065645Y-75150000D03*
D27*
X123065645Y-79850000D03*
%TD*%
D15*
%TO.C,R602*%
X165965645Y-93850000D03*
X165965645Y-90749998D03*
%TD*%
D21*
%TO.C,TP503*%
X169065645Y-98900000D03*
%TD*%
D15*
%TO.C,R604*%
X171565645Y-69700001D03*
X171565645Y-66599999D03*
%TD*%
D28*
%TO.C,R201*%
X126915644Y-94650000D03*
X130015646Y-94650000D03*
%TD*%
D17*
%TO.C,Q201*%
X129279645Y-82543500D03*
D18*
X131565645Y-75685500D03*
D17*
X133851645Y-82543500D03*
%TD*%
D29*
%TO.C,H901*%
X115565645Y-65650000D03*
%TD*%
D15*
%TO.C,R504*%
X155565645Y-90750002D03*
X155565645Y-87650000D03*
%TD*%
D20*
%TO.C,TP104*%
X177815645Y-89537500D03*
%TD*%
D30*
%TO.C,J104*%
X176865645Y-75150000D03*
D26*
X183065645Y-75150000D03*
D27*
X180065645Y-70450000D03*
%TD*%
D21*
%TO.C,TP303*%
X141565645Y-77400000D03*
%TD*%
D31*
%TO.C,U501*%
X155410645Y-85047500D03*
X156680645Y-85047500D03*
X157950645Y-85047500D03*
X159220645Y-85047500D03*
X159220645Y-80052500D03*
X157950645Y-80052500D03*
X156680645Y-80052500D03*
X155410645Y-80052500D03*
%TD*%
D32*
%TO.C,J102*%
X116648145Y-85745000D03*
D33*
X116648145Y-89555000D03*
%TD*%
D29*
%TO.C,H902*%
X115565645Y-97650000D03*
%TD*%
D21*
%TO.C,TP102*%
X125315645Y-84850000D03*
%TD*%
D23*
%TO.C,TP501*%
X152065645Y-85400000D03*
%TD*%
D24*
%TO.C,FID903*%
X182565645Y-65650000D03*
%TD*%
D34*
%TO.C,J103*%
X186483145Y-89537500D03*
D33*
X186483145Y-85727500D03*
%TD*%
D20*
%TO.C,TP301*%
X141565645Y-72150000D03*
%TD*%
D28*
%TO.C,R603*%
X170015645Y-90650000D03*
X173115645Y-90650000D03*
%TD*%
D29*
%TO.C,H903*%
X187565645Y-65650000D03*
%TD*%
D16*
%TO.C,R601*%
X165965645Y-95850000D03*
X165965645Y-98950002D03*
%TD*%
%TO.C,R507*%
X152565645Y-74349999D03*
X152565645Y-77450001D03*
%TD*%
D29*
%TO.C,H904*%
X187565645Y-97650000D03*
%TD*%
D21*
%TO.C,TP302*%
X141565645Y-87700000D03*
%TD*%
D16*
%TO.C,R402*%
X148565645Y-71099999D03*
X148565645Y-74200001D03*
%TD*%
D23*
%TO.C,TP502*%
X153165645Y-72400000D03*
%TD*%
D24*
%TO.C,FID901*%
X120565645Y-65650000D03*
%TD*%
D16*
%TO.C,R501*%
X157965645Y-87650000D03*
X157965645Y-90750002D03*
%TD*%
D35*
%TO.C,D201*%
X132815644Y-85650000D03*
X130315646Y-85650000D03*
%TD*%
D28*
%TO.C,R202*%
X130015645Y-90650000D03*
X133115645Y-90650000D03*
%TD*%
D36*
%TO.C,D501*%
X155565645Y-72750000D03*
X155565645Y-70650000D03*
%TD*%
D15*
%TO.C,R506*%
X152565645Y-90750002D03*
X152565645Y-87650000D03*
%TD*%
%TO.C,R301*%
X137815645Y-86750002D03*
X137815645Y-83650000D03*
%TD*%
D37*
%TO.C,D502*%
X155565645Y-92300000D03*
X155565645Y-94400000D03*
%TD*%
D38*
%TO.C,C401*%
X146565645Y-75150000D03*
X146565645Y-73424998D03*
%TD*%
D39*
%TO.C,C402*%
X146365645Y-82550000D03*
X146365645Y-84275002D03*
%TD*%
D19*
%TO.C,U401*%
X148465645Y-82550000D03*
X148465645Y-84450000D03*
X150340645Y-83500000D03*
%TD*%
D40*
%TO.C,R403*%
X144365646Y-82550000D03*
X141265644Y-82550000D03*
%TD*%
D15*
%TO.C,R502*%
X157965645Y-77450000D03*
X157965645Y-74349998D03*
%TD*%
D16*
%TO.C,R303*%
X137815645Y-78349999D03*
X137815645Y-81450001D03*
%TD*%
D35*
%TO.C,D601*%
X172815644Y-85650000D03*
X170315646Y-85650000D03*
%TD*%
D21*
%TO.C,TP201*%
X133115645Y-94650000D03*
%TD*%
%LPD*%
M02*
