%TF.GenerationSoftware,KiCad,Pcbnew,9.0.7+1*%
%TF.CreationDate,Date%
%TF.ProjectId,Input-Protection,496e7075-742d-4507-926f-74656374696f,1.0.0+ (Unreleased)*%
%TF.SameCoordinates,Original*%
%TF.FileFunction,Copper,L1,Top*%
%TF.FilePolarity,Positive*%
%FSLAX46Y46*%
G04 Gerber Fmt 4.6, Leading zero omitted, Abs format (unit mm)*
G04 Created by KiCad*
%MOMM*%
%LPD*%
G01*
G04 APERTURE LIST*
G04 Aperture macros list*
%AMRoundRect*
0 Rectangle with rounded corners*
0 $1 Rounding radius*
0 $2 $3 $4 $5 $6 $7 $8 $9 X,Y pos of 4 corners*
0 Add a 4 corners polygon primitive as box body*
4,1,4,$2,$3,$4,$5,$6,$7,$8,$9,$2,$3,0*
0 Add four circle primitives for the rounded corners*
1,1,$1+$1,$2,$3*
1,1,$1+$1,$4,$5*
1,1,$1+$1,$6,$7*
1,1,$1+$1,$8,$9*
0 Add four rect primitives between the rounded corners*
20,1,$1+$1,$2,$3,$4,$5,0*
20,1,$1+$1,$4,$5,$6,$7,0*
20,1,$1+$1,$6,$7,$8,$9,0*
20,1,$1+$1,$8,$9,$2,$3,0*%
G04 Aperture macros list end*
%TA.AperFunction,NonConductor*%
%ADD10C,0.000000*%
%TD*%
%TA.AperFunction,NonConductor*%
%ADD11C,0.165463*%
%TD*%
%ADD12C,0.250000*%
%TA.AperFunction,NonConductor*%
%ADD13C,0.250000*%
%TD*%
%TA.AperFunction,EtchedComponent*%
%ADD14C,0.200000*%
%TD*%
%TA.AperFunction,EtchedComponent*%
%ADD15C,0.000000*%
%TD*%
%TA.AperFunction,SMDPad,CuDef*%
%ADD16RoundRect,0.112500X0.187500X0.112500X-0.187500X0.112500X-0.187500X-0.112500X0.187500X-0.112500X0*%
%TD*%
%TA.AperFunction,SMDPad,CuDef*%
%ADD17RoundRect,0.250000X0.400000X0.625000X-0.400000X0.625000X-0.400000X-0.625000X0.400000X-0.625000X0*%
%TD*%
%TA.AperFunction,SMDPad,CuDef*%
%ADD18RoundRect,0.237500X-0.300000X-0.237500X0.300000X-0.237500X0.300000X0.237500X-0.300000X0.237500X0*%
%TD*%
%TA.AperFunction,SMDPad,CuDef*%
%ADD19R,0.914400X2.413000*%
%TD*%
%TA.AperFunction,SMDPad,CuDef*%
%ADD20R,5.511800X6.070600*%
%TD*%
%TA.AperFunction,SMDPad,CuDef*%
%ADD21RoundRect,0.250000X-0.625000X0.400000X-0.625000X-0.400000X0.625000X-0.400000X0.625000X0.400000X0*%
%TD*%
%TA.AperFunction,SMDPad,CuDef*%
%ADD22RoundRect,0.150000X-0.825000X-0.150000X0.825000X-0.150000X0.825000X0.150000X-0.825000X0.150000X0*%
%TD*%
%TA.AperFunction,ComponentPad*%
%ADD23R,1.500000X1.500000*%
%TD*%
%TA.AperFunction,SMDPad,CuDef*%
%ADD24C,1.000000*%
%TD*%
%TA.AperFunction,SMDPad,CuDef*%
%ADD25RoundRect,0.250000X0.625000X-0.400000X0.625000X0.400000X-0.625000X0.400000X-0.625000X-0.400000X0*%
%TD*%
%TA.AperFunction,ComponentPad*%
%ADD26R,2.000000X4.500000*%
%TD*%
%TA.AperFunction,ComponentPad*%
%ADD27O,2.000000X4.000000*%
%TD*%
%TA.AperFunction,ComponentPad*%
%ADD28O,4.000000X2.000000*%
%TD*%
%TA.AperFunction,SMDPad,CuDef*%
%ADD29RoundRect,0.237500X0.237500X-0.300000X0.237500X0.300000X-0.237500X0.300000X-0.237500X-0.300000X0*%
%TD*%
%TA.AperFunction,SMDPad,CuDef*%
%ADD30RoundRect,0.250000X0.250000X0.250000X-0.250000X0.250000X-0.250000X-0.250000X0.250000X-0.250000X0*%
%TD*%
%TA.AperFunction,SMDPad,CuDef*%
%ADD31RoundRect,0.250000X-0.400000X-0.625000X0.400000X-0.625000X0.400000X0.625000X-0.400000X0.625000X0*%
%TD*%
%TA.AperFunction,SMDPad,CuDef*%
%ADD32RoundRect,0.237500X0.300000X0.237500X-0.300000X0.237500X-0.300000X-0.237500X0.300000X-0.237500X0*%
%TD*%
%TA.AperFunction,ComponentPad*%
%ADD33C,5.700000*%
%TD*%
%TA.AperFunction,ComponentPad*%
%ADD34RoundRect,0.250000X-0.750000X0.750000X-0.750000X-0.750000X0.750000X-0.750000X0.750000X0.750000X0*%
%TD*%
%TA.AperFunction,ComponentPad*%
%ADD35C,2.000000*%
%TD*%
%TA.AperFunction,SMDPad,CuDef*%
%ADD36R,1.000000X1.500000*%
%TD*%
%TA.AperFunction,ComponentPad*%
%ADD37RoundRect,0.250000X0.750000X-0.750000X0.750000X0.750000X-0.750000X0.750000X-0.750000X-0.750000X0*%
%TD*%
%TA.AperFunction,SMDPad,CuDef*%
%ADD38RoundRect,0.250000X-0.325000X-0.450000X0.325000X-0.450000X0.325000X0.450000X-0.325000X0.450000X0*%
%TD*%
%TA.AperFunction,SMDPad,CuDef*%
%ADD39RoundRect,0.150000X0.150000X-0.587500X0.150000X0.587500X-0.150000X0.587500X-0.150000X-0.587500X0*%
%TD*%
%TA.AperFunction,SMDPad,CuDef*%
%ADD40RoundRect,0.150000X-0.512500X-0.150000X0.512500X-0.150000X0.512500X0.150000X-0.512500X0.150000X0*%
%TD*%
%TA.AperFunction,ViaPad*%
%ADD41C,0.550000*%
%TD*%
%TA.AperFunction,Conductor*%
%ADD42C,0.300000*%
%TD*%
%TA.AperFunction,Conductor*%
%ADD43C,0.200000*%
%TD*%
%TA.AperFunction,Conductor*%
%ADD44C,0.350000*%
%TD*%
G04 APERTURE END LIST*
D10*
%TA.AperFunction,NonConductor*%
G36*
X140575422Y-98618277D02*
G01*
X140596981Y-98619384D01*
X140618251Y-98621250D01*
X140639232Y-98623893D01*
X140659923Y-98627333D01*
X140680325Y-98631586D01*
X140700437Y-98636672D01*
X140720260Y-98642607D01*
X140730027Y-98645881D01*
X140739649Y-98649336D01*
X140749127Y-98652971D01*
X140758459Y-98656787D01*
X140767647Y-98660785D01*
X140776691Y-98664963D01*
X140785590Y-98669322D01*
X140794343Y-98673861D01*
X140802953Y-98678582D01*
X140811417Y-98683484D01*
X140819737Y-98688566D01*
X140827912Y-98693829D01*
X140835943Y-98699273D01*
X140843829Y-98704898D01*
X140851570Y-98710704D01*
X140859166Y-98716691D01*
X140866889Y-98723113D01*
X140874432Y-98729650D01*
X140881793Y-98736309D01*
X140888974Y-98743097D01*
X140895973Y-98750021D01*
X140902792Y-98757087D01*
X140909430Y-98764303D01*
X140915887Y-98771674D01*
X140922163Y-98779209D01*
X140928258Y-98786912D01*
X140934172Y-98794793D01*
X140939906Y-98802856D01*
X140945458Y-98811109D01*
X140950830Y-98819559D01*
X140956021Y-98828212D01*
X140961031Y-98837076D01*
X140966131Y-98845830D01*
X140971015Y-98854731D01*
X140975681Y-98863782D01*
X140980131Y-98872984D01*
X140984363Y-98882340D01*
X140988378Y-98891851D01*
X140992176Y-98901521D01*
X140995758Y-98911352D01*
X140999122Y-98921345D01*
X141002269Y-98931503D01*
X141005199Y-98941829D01*
X141007912Y-98952324D01*
X141010408Y-98962991D01*
X141012687Y-98973832D01*
X141014749Y-98984850D01*
X141016593Y-98996046D01*
X140843733Y-98996046D01*
X140840622Y-98982882D01*
X140837077Y-98970025D01*
X140833098Y-98957494D01*
X140828685Y-98945307D01*
X140823838Y-98933481D01*
X140821251Y-98927709D01*
X140818556Y-98922035D01*
X140815753Y-98916460D01*
X140812841Y-98910987D01*
X140809820Y-98905618D01*
X140806691Y-98900355D01*
X140803182Y-98895472D01*
X140799598Y-98890661D01*
X140795937Y-98885922D01*
X140792198Y-98881256D01*
X140788376Y-98876661D01*
X140784472Y-98872140D01*
X140780481Y-98867690D01*
X140776402Y-98863313D01*
X140772233Y-98859009D01*
X140767970Y-98854777D01*
X140763613Y-98850617D01*
X140759159Y-98846529D01*
X140754605Y-98842514D01*
X140749950Y-98838571D01*
X140745190Y-98834700D01*
X140740325Y-98830902D01*
X140735641Y-98827483D01*
X140730853Y-98824171D01*
X140725966Y-98820962D01*
X140720984Y-98817856D01*
X140715912Y-98814848D01*
X140710753Y-98811938D01*
X140705513Y-98809123D01*
X140700196Y-98806401D01*
X140694807Y-98803769D01*
X140689350Y-98801225D01*
X140678251Y-98796393D01*
X140666935Y-98791886D01*
X140655438Y-98787687D01*
X140643277Y-98784431D01*
X140631081Y-98781610D01*
X140618812Y-98779222D01*
X140606434Y-98777269D01*
X140593912Y-98775750D01*
X140581210Y-98774665D01*
X140568290Y-98774013D01*
X140555117Y-98773796D01*
X140543052Y-98773995D01*
X140531167Y-98774589D01*
X140519457Y-98775577D01*
X140507922Y-98776956D01*
X140496559Y-98778723D01*
X140485365Y-98780877D01*
X140474339Y-98783416D01*
X140463477Y-98786337D01*
X140452778Y-98789637D01*
X140442240Y-98793315D01*
X140431860Y-98797368D01*
X140421636Y-98801795D01*
X140411566Y-98806592D01*
X140401647Y-98811757D01*
X140391878Y-98817289D01*
X140382255Y-98823185D01*
X140372832Y-98829443D01*
X140363662Y-98836060D01*
X140354745Y-98843034D01*
X140346082Y-98850364D01*
X140337672Y-98858045D01*
X140329515Y-98866078D01*
X140321611Y-98874458D01*
X140313960Y-98883185D01*
X140306562Y-98892255D01*
X140299418Y-98901666D01*
X140292527Y-98911417D01*
X140285889Y-98921505D01*
X140279505Y-98931927D01*
X140273373Y-98942681D01*
X140267495Y-98953766D01*
X140261870Y-98965178D01*
X140256552Y-98977188D01*
X140251594Y-98989492D01*
X140246992Y-99002095D01*
X140242746Y-99015001D01*
X140238853Y-99028214D01*
X140235310Y-99041739D01*
X140232115Y-99055581D01*
X140229266Y-99069743D01*
X140226760Y-99084232D01*
X140224596Y-99099050D01*
X140222771Y-99114203D01*
X140221283Y-99129695D01*
X140220130Y-99145531D01*
X140219309Y-99161714D01*
X140218818Y-99178251D01*
X140218655Y-99195145D01*
X140218818Y-99211784D01*
X140219309Y-99228129D01*
X140220130Y-99244175D01*
X140221283Y-99259919D01*
X140222771Y-99275356D01*
X140224596Y-99290480D01*
X140226760Y-99305288D01*
X140229266Y-99319774D01*
X140232115Y-99333935D01*
X140235310Y-99347767D01*
X140238853Y-99361263D01*
X140242746Y-99374420D01*
X140246992Y-99387234D01*
X140251594Y-99399700D01*
X140256552Y-99411812D01*
X140261870Y-99423568D01*
X140267495Y-99435252D01*
X140273373Y-99446571D01*
X140279505Y-99457525D01*
X140285889Y-99468110D01*
X140292527Y-99478324D01*
X140299418Y-99488165D01*
X140306562Y-99497630D01*
X140313960Y-99506719D01*
X140321611Y-99515427D01*
X140329515Y-99523753D01*
X140337672Y-99531695D01*
X140346082Y-99539251D01*
X140354745Y-99546417D01*
X140363662Y-99553192D01*
X140372832Y-99559574D01*
X140382255Y-99565561D01*
X140391878Y-99571439D01*
X140401647Y-99576922D01*
X140411566Y-99582012D01*
X140421636Y-99586710D01*
X140431860Y-99591020D01*
X140442240Y-99594943D01*
X140452778Y-99598481D01*
X140463477Y-99601638D01*
X140474339Y-99604415D01*
X140485365Y-99606814D01*
X140496559Y-99608838D01*
X140507922Y-99610488D01*
X140519457Y-99611768D01*
X140531167Y-99612680D01*
X140543052Y-99613225D01*
X140555117Y-99613406D01*
X140567844Y-99613189D01*
X140580534Y-99612538D01*
X140593153Y-99611453D01*
X140605663Y-99609934D01*
X140618028Y-99607980D01*
X140630212Y-99605593D01*
X140642180Y-99602771D01*
X140653894Y-99599516D01*
X140665900Y-99595316D01*
X140677600Y-99590810D01*
X140688973Y-99585978D01*
X140700003Y-99580802D01*
X140705384Y-99578079D01*
X140710672Y-99575264D01*
X140715864Y-99572354D01*
X140720960Y-99569347D01*
X140725956Y-99566240D01*
X140730850Y-99563032D01*
X140735641Y-99559719D01*
X140740325Y-99556300D01*
X140745190Y-99552773D01*
X140749950Y-99549138D01*
X140754605Y-99545394D01*
X140759159Y-99541541D01*
X140763613Y-99537580D01*
X140767970Y-99533511D01*
X140772233Y-99529333D01*
X140776402Y-99525046D01*
X140780481Y-99520651D01*
X140784472Y-99516148D01*
X140788376Y-99511536D01*
X140792198Y-99506815D01*
X140795937Y-99501986D01*
X140799598Y-99497048D01*
X140803182Y-99492002D01*
X140806691Y-99486848D01*
X140809820Y-99481602D01*
X140812841Y-99476279D01*
X140815753Y-99470875D01*
X140818556Y-99465385D01*
X140821251Y-99459804D01*
X140823838Y-99454129D01*
X140826315Y-99448354D01*
X140828685Y-99442475D01*
X140830946Y-99436487D01*
X140833098Y-99430387D01*
X140835142Y-99424169D01*
X140837077Y-99417829D01*
X140838904Y-99411362D01*
X140840622Y-99404764D01*
X140842232Y-99398030D01*
X140843733Y-99391157D01*
X141016593Y-99391157D01*
X141015021Y-99401520D01*
X141013199Y-99411775D01*
X141011134Y-99421922D01*
X141008829Y-99431960D01*
X141006288Y-99441890D01*
X141003517Y-99451711D01*
X141000520Y-99461423D01*
X140997301Y-99471027D01*
X140993866Y-99480523D01*
X140990217Y-99489910D01*
X140986361Y-99499188D01*
X140982301Y-99508358D01*
X140978042Y-99517420D01*
X140973589Y-99526373D01*
X140968946Y-99535217D01*
X140964118Y-99543953D01*
X140959125Y-99552562D01*
X140953983Y-99561027D01*
X140948688Y-99569347D01*
X140943234Y-99577522D01*
X140937617Y-99585552D01*
X140931833Y-99593438D01*
X140925877Y-99601179D01*
X140919745Y-99608776D01*
X140913432Y-99616228D01*
X140906934Y-99623535D01*
X140900245Y-99630697D01*
X140893363Y-99637715D01*
X140886281Y-99644588D01*
X140878996Y-99651316D01*
X140871503Y-99657900D01*
X140863797Y-99664339D01*
X140856201Y-99670615D01*
X140848460Y-99676710D01*
X140840574Y-99682624D01*
X140832543Y-99688358D01*
X140824368Y-99693910D01*
X140816048Y-99699282D01*
X140807584Y-99704473D01*
X140798975Y-99709483D01*
X140790221Y-99714312D01*
X140781322Y-99718960D01*
X140772279Y-99723428D01*
X140763090Y-99727714D01*
X140753758Y-99731820D01*
X140744280Y-99735745D01*
X140734658Y-99739489D01*
X140724891Y-99743052D01*
X140714998Y-99746416D01*
X140704996Y-99749563D01*
X140694885Y-99752493D01*
X140684666Y-99755206D01*
X140674338Y-99757702D01*
X140663902Y-99759981D01*
X140653358Y-99762043D01*
X140642705Y-99763888D01*
X140631943Y-99765516D01*
X140621073Y-99766927D01*
X140610094Y-99768121D01*
X140599007Y-99769097D01*
X140587811Y-99769857D01*
X140576507Y-99770399D01*
X140553573Y-99770834D01*
X140535468Y-99770562D01*
X140517614Y-99769748D01*
X140500008Y-99768392D01*
X140482649Y-99766493D01*
X140465534Y-99764051D01*
X140448661Y-99761067D01*
X140432028Y-99757540D01*
X140415632Y-99753470D01*
X140399471Y-99748858D01*
X140383543Y-99743703D01*
X140367845Y-99738006D01*
X140352376Y-99731766D01*
X140337133Y-99724983D01*
X140322114Y-99717658D01*
X140307316Y-99709790D01*
X140292738Y-99701380D01*
X140278739Y-99692464D01*
X140265104Y-99683079D01*
X140251836Y-99673229D01*
X140238936Y-99662916D01*
X140226406Y-99652141D01*
X140214250Y-99640907D01*
X140202469Y-99629217D01*
X140191066Y-99617072D01*
X140180043Y-99604475D01*
X140169401Y-99591428D01*
X140159144Y-99577933D01*
X140149274Y-99563993D01*
X140139792Y-99549610D01*
X140130702Y-99534786D01*
X140122005Y-99519523D01*
X140113703Y-99503825D01*
X140105582Y-99487420D01*
X140098001Y-99470620D01*
X140090958Y-99453427D01*
X140084451Y-99435843D01*
X140078478Y-99417869D01*
X140073035Y-99399510D01*
X140068122Y-99380765D01*
X140063736Y-99361639D01*
X140059874Y-99342133D01*
X140056534Y-99322249D01*
X140053714Y-99301990D01*
X140051412Y-99281358D01*
X140049626Y-99260355D01*
X140048353Y-99238984D01*
X140047590Y-99217246D01*
X140047337Y-99195145D01*
X140047590Y-99172771D01*
X140048353Y-99150796D01*
X140049626Y-99129219D01*
X140051412Y-99108039D01*
X140053714Y-99087257D01*
X140056534Y-99066874D01*
X140059874Y-99046888D01*
X140063736Y-99027300D01*
X140068122Y-99008110D01*
X140073035Y-98989318D01*
X140078478Y-98970924D01*
X140084451Y-98952927D01*
X140090958Y-98935329D01*
X140098001Y-98918128D01*
X140105582Y-98901326D01*
X140113703Y-98884921D01*
X140122005Y-98868968D01*
X140130705Y-98853517D01*
X140139803Y-98838563D01*
X140149298Y-98824102D01*
X140159191Y-98810129D01*
X140169483Y-98796640D01*
X140180172Y-98783630D01*
X140191259Y-98771096D01*
X140202744Y-98759031D01*
X140214627Y-98747432D01*
X140226908Y-98736294D01*
X140239587Y-98725613D01*
X140252664Y-98715385D01*
X140266138Y-98705604D01*
X140280011Y-98696265D01*
X140294281Y-98687366D01*
X140308588Y-98678956D01*
X140323148Y-98671088D01*
X140337961Y-98663763D01*
X140353027Y-98656980D01*
X140368347Y-98650740D01*
X140383919Y-98645043D01*
X140399745Y-98639888D01*
X140415825Y-98635276D01*
X140432157Y-98631206D01*
X140448742Y-98627680D01*
X140465581Y-98624695D01*
X140482673Y-98622253D01*
X140500018Y-98620354D01*
X140517617Y-98618998D01*
X140535468Y-98618184D01*
X140553573Y-98617913D01*
X140575422Y-98618277D01*
G37*
%TD.AperFunction*%
%TA.AperFunction,NonConductor*%
G36*
X136524690Y-99300096D02*
G01*
X136535398Y-99318062D01*
X136546684Y-99337330D01*
X136558549Y-99358046D01*
X136570992Y-99380353D01*
X136577941Y-99392076D01*
X136584907Y-99404107D01*
X136598966Y-99429163D01*
X136613315Y-99455666D01*
X136628098Y-99483761D01*
X136642230Y-99513278D01*
X136656651Y-99543953D01*
X136659591Y-99550442D01*
X136659159Y-99545497D01*
X136654336Y-99482217D01*
X136652021Y-99421253D01*
X136649706Y-99364918D01*
X136648814Y-99338271D01*
X136648355Y-99313794D01*
X136648187Y-99291342D01*
X136648162Y-99270771D01*
X136648162Y-98631803D01*
X136822567Y-98631803D01*
X136822567Y-99755399D01*
X136623468Y-99755399D01*
X136243791Y-99158103D01*
X136213888Y-99108136D01*
X136199298Y-99083658D01*
X136185142Y-99059326D01*
X136170021Y-99033232D01*
X136154466Y-99005692D01*
X136120319Y-98945114D01*
X136102063Y-98910074D01*
X136081927Y-98871995D01*
X136065418Y-98841258D01*
X136069387Y-98940483D01*
X136071436Y-98975475D01*
X136073052Y-99008586D01*
X136075560Y-99068586D01*
X136077682Y-99118361D01*
X136078382Y-99138907D01*
X136078647Y-99156560D01*
X136078647Y-99755399D01*
X135904242Y-99755399D01*
X135904242Y-98631803D01*
X136101798Y-98631803D01*
X136524690Y-99300096D01*
G37*
%TD.AperFunction*%
%TA.AperFunction,NonConductor*%
G36*
X138025434Y-99755399D02*
G01*
X137840226Y-99755399D01*
X137736326Y-99459066D01*
X137294513Y-99459066D01*
X137193540Y-99755399D01*
X137008331Y-99755399D01*
X137164823Y-99315530D01*
X137343421Y-99315530D01*
X137686000Y-99315530D01*
X137621062Y-99130322D01*
X137608040Y-99090628D01*
X137594439Y-99047750D01*
X137580259Y-99001400D01*
X137565500Y-98951287D01*
X137532317Y-98837655D01*
X137513844Y-98773531D01*
X137512446Y-98768530D01*
X137492960Y-98839777D01*
X137460548Y-98954374D01*
X137445813Y-99004438D01*
X137431802Y-99050451D01*
X137418659Y-99092412D01*
X137406529Y-99130322D01*
X137343421Y-99315530D01*
X137164823Y-99315530D01*
X137408073Y-98631803D01*
X137619519Y-98631803D01*
X138025434Y-99755399D01*
G37*
%TD.AperFunction*%
%TA.AperFunction,NonConductor*%
G36*
X141640953Y-98618058D02*
G01*
X141654859Y-98618497D01*
X141668580Y-98619235D01*
X141682113Y-98620276D01*
X141695456Y-98621624D01*
X141708607Y-98623284D01*
X141721563Y-98625261D01*
X141734323Y-98627559D01*
X141746884Y-98630182D01*
X141759243Y-98633136D01*
X141771400Y-98636424D01*
X141783350Y-98640051D01*
X141795092Y-98644022D01*
X141806625Y-98648341D01*
X141817944Y-98653012D01*
X141829049Y-98658041D01*
X141839901Y-98663087D01*
X141850461Y-98668384D01*
X141860727Y-98673929D01*
X141870697Y-98679721D01*
X141880369Y-98685757D01*
X141889739Y-98692035D01*
X141898807Y-98698553D01*
X141907570Y-98705308D01*
X141916025Y-98712298D01*
X141924170Y-98719521D01*
X141932004Y-98726975D01*
X141939523Y-98734657D01*
X141946726Y-98742565D01*
X141953610Y-98750697D01*
X141960172Y-98759050D01*
X141966412Y-98767623D01*
X141972597Y-98776649D01*
X141978418Y-98785788D01*
X141983873Y-98795044D01*
X141988960Y-98804423D01*
X141993676Y-98813929D01*
X141998018Y-98823565D01*
X142001986Y-98833337D01*
X142005575Y-98843249D01*
X142008785Y-98853306D01*
X142011613Y-98863513D01*
X142014057Y-98873873D01*
X142016114Y-98884391D01*
X142017782Y-98895072D01*
X142019059Y-98905920D01*
X142019943Y-98916940D01*
X142020431Y-98928136D01*
X141852200Y-98928136D01*
X141850843Y-98918714D01*
X141849086Y-98909546D01*
X141846926Y-98900637D01*
X141844362Y-98891987D01*
X141841391Y-98883600D01*
X141838011Y-98875477D01*
X141834219Y-98867621D01*
X141830014Y-98860034D01*
X141825392Y-98852718D01*
X141820352Y-98845676D01*
X141814892Y-98838910D01*
X141809009Y-98832422D01*
X141802701Y-98826214D01*
X141795966Y-98820288D01*
X141788801Y-98814648D01*
X141781204Y-98809295D01*
X141773246Y-98803977D01*
X141765004Y-98799019D01*
X141756481Y-98794417D01*
X141747683Y-98790171D01*
X141738613Y-98786278D01*
X141729277Y-98782734D01*
X141719678Y-98779540D01*
X141709821Y-98776691D01*
X141699712Y-98774185D01*
X141689353Y-98772021D01*
X141678750Y-98770196D01*
X141667908Y-98768708D01*
X141656831Y-98767555D01*
X141645522Y-98766734D01*
X141633988Y-98766243D01*
X141622232Y-98766080D01*
X141613895Y-98766170D01*
X141605671Y-98766438D01*
X141597565Y-98766883D01*
X141589580Y-98767502D01*
X141581722Y-98768293D01*
X141573996Y-98769254D01*
X141566405Y-98770382D01*
X141558954Y-98771674D01*
X141551647Y-98773130D01*
X141544490Y-98774746D01*
X141537487Y-98776520D01*
X141530642Y-98778451D01*
X141523959Y-98780535D01*
X141517444Y-98782770D01*
X141511101Y-98785155D01*
X141504934Y-98787687D01*
X141498659Y-98790363D01*
X141492566Y-98793182D01*
X141486659Y-98796141D01*
X141480939Y-98799238D01*
X141475410Y-98802471D01*
X141470072Y-98805837D01*
X141464929Y-98809334D01*
X141459983Y-98812960D01*
X141455236Y-98816713D01*
X141450689Y-98820590D01*
X141446347Y-98824589D01*
X141442210Y-98828708D01*
X141438281Y-98832944D01*
X141434562Y-98837296D01*
X141431056Y-98841761D01*
X141427764Y-98846336D01*
X141424400Y-98851003D01*
X141421253Y-98855744D01*
X141418323Y-98860563D01*
X141415610Y-98865460D01*
X141413114Y-98870439D01*
X141410835Y-98875501D01*
X141408773Y-98880649D01*
X141406928Y-98885886D01*
X141405300Y-98891213D01*
X141403890Y-98896632D01*
X141402696Y-98902147D01*
X141401719Y-98907759D01*
X141400959Y-98913470D01*
X141400417Y-98919283D01*
X141400091Y-98925200D01*
X141399983Y-98931223D01*
X141400109Y-98937789D01*
X141400489Y-98944179D01*
X141401122Y-98950397D01*
X141402009Y-98956448D01*
X141403148Y-98962336D01*
X141404541Y-98968066D01*
X141406187Y-98973642D01*
X141408086Y-98979069D01*
X141410238Y-98984351D01*
X141412644Y-98989493D01*
X141415303Y-98994499D01*
X141418215Y-98999374D01*
X141421380Y-99004122D01*
X141424798Y-99008749D01*
X141428470Y-99013258D01*
X141432395Y-99017654D01*
X141436501Y-99021651D01*
X141440718Y-99025539D01*
X141445048Y-99029320D01*
X141449493Y-99032991D01*
X141454056Y-99036554D01*
X141458738Y-99040009D01*
X141463543Y-99043355D01*
X141468472Y-99046592D01*
X141473527Y-99049722D01*
X141478712Y-99052742D01*
X141484027Y-99055654D01*
X141489476Y-99058457D01*
X141495061Y-99061152D01*
X141500784Y-99063739D01*
X141506646Y-99066217D01*
X141512651Y-99068586D01*
X141524221Y-99073584D01*
X141535754Y-99078184D01*
X141547215Y-99082422D01*
X141558568Y-99086335D01*
X141569776Y-99089959D01*
X141580802Y-99093329D01*
X141602169Y-99099454D01*
X141711751Y-99128779D01*
X141738639Y-99136062D01*
X141752256Y-99140011D01*
X141765962Y-99144213D01*
X141779741Y-99148704D01*
X141793575Y-99153521D01*
X141807444Y-99158700D01*
X141821332Y-99164277D01*
X141835590Y-99170282D01*
X141849451Y-99176720D01*
X141862950Y-99183593D01*
X141876123Y-99190900D01*
X141889007Y-99198641D01*
X141901637Y-99206817D01*
X141914050Y-99215426D01*
X141926283Y-99224469D01*
X141932288Y-99229155D01*
X141938148Y-99233953D01*
X141943863Y-99238869D01*
X141949434Y-99243907D01*
X141954860Y-99249071D01*
X141960141Y-99254367D01*
X141965278Y-99259798D01*
X141970270Y-99265370D01*
X141975117Y-99271086D01*
X141979820Y-99276951D01*
X141984378Y-99282970D01*
X141988791Y-99289148D01*
X141993059Y-99295488D01*
X141997183Y-99301995D01*
X142001162Y-99308674D01*
X142004997Y-99315530D01*
X142008633Y-99322276D01*
X142012017Y-99329204D01*
X142015154Y-99336312D01*
X142018043Y-99343601D01*
X142020689Y-99351070D01*
X142023093Y-99358721D01*
X142025257Y-99366553D01*
X142027183Y-99374565D01*
X142028875Y-99382758D01*
X142030334Y-99391133D01*
X142031562Y-99399688D01*
X142032561Y-99408424D01*
X142033335Y-99417340D01*
X142033885Y-99426438D01*
X142034213Y-99435717D01*
X142034322Y-99445176D01*
X142034141Y-99456968D01*
X142033595Y-99468613D01*
X142032684Y-99480109D01*
X142031404Y-99491454D01*
X142029753Y-99502644D01*
X142027729Y-99513679D01*
X142025330Y-99524556D01*
X142022553Y-99535272D01*
X142019396Y-99545825D01*
X142015858Y-99556213D01*
X142011935Y-99566434D01*
X142007625Y-99576485D01*
X142002927Y-99586365D01*
X141997837Y-99596070D01*
X141992354Y-99605599D01*
X141986476Y-99614950D01*
X141979964Y-99624084D01*
X141973158Y-99632967D01*
X141966054Y-99641602D01*
X141958646Y-99649990D01*
X141950932Y-99658134D01*
X141942905Y-99666036D01*
X141934562Y-99673698D01*
X141925897Y-99681123D01*
X141916908Y-99688313D01*
X141907588Y-99695270D01*
X141897933Y-99701996D01*
X141887940Y-99708494D01*
X141877602Y-99714766D01*
X141866917Y-99720814D01*
X141855879Y-99726641D01*
X141844483Y-99732248D01*
X141832491Y-99737294D01*
X141820241Y-99742015D01*
X141807729Y-99746410D01*
X141794950Y-99750479D01*
X141781899Y-99754223D01*
X141768573Y-99757642D01*
X141754967Y-99760735D01*
X141741075Y-99763502D01*
X141726894Y-99765944D01*
X141712420Y-99768060D01*
X141697647Y-99769851D01*
X141682570Y-99771316D01*
X141667187Y-99772455D01*
X141651491Y-99773269D01*
X141635479Y-99773758D01*
X141619146Y-99773920D01*
X141603374Y-99773758D01*
X141587889Y-99773272D01*
X141572689Y-99772465D01*
X141557772Y-99771340D01*
X141543135Y-99769898D01*
X141528776Y-99768141D01*
X141514693Y-99766073D01*
X141500883Y-99763695D01*
X141487345Y-99761009D01*
X141474075Y-99758019D01*
X141461073Y-99754725D01*
X141448335Y-99751130D01*
X141435859Y-99747238D01*
X141423643Y-99743049D01*
X141411685Y-99738566D01*
X141399983Y-99733791D01*
X141388570Y-99728727D01*
X141377480Y-99723376D01*
X141366711Y-99717741D01*
X141356261Y-99711822D01*
X141346128Y-99705623D01*
X141336309Y-99699146D01*
X141326801Y-99692394D01*
X141317604Y-99685367D01*
X141308714Y-99678070D01*
X141300129Y-99670503D01*
X141291847Y-99662670D01*
X141283866Y-99654572D01*
X141276184Y-99646211D01*
X141268797Y-99637591D01*
X141261705Y-99628713D01*
X141254904Y-99619579D01*
X141248701Y-99610210D01*
X141242828Y-99600625D01*
X141237289Y-99590822D01*
X141232090Y-99580802D01*
X141227234Y-99570565D01*
X141222727Y-99560111D01*
X141218572Y-99549439D01*
X141214775Y-99538551D01*
X141211339Y-99527446D01*
X141208269Y-99516124D01*
X141205571Y-99504585D01*
X141203247Y-99492828D01*
X141201304Y-99480855D01*
X141199744Y-99468664D01*
X141198574Y-99456257D01*
X141197797Y-99443632D01*
X141369115Y-99443632D01*
X141370074Y-99451084D01*
X141371219Y-99458388D01*
X141372554Y-99465543D01*
X141374083Y-99472547D01*
X141375811Y-99479397D01*
X141377742Y-99486091D01*
X141379882Y-99492627D01*
X141382234Y-99499002D01*
X141384803Y-99505214D01*
X141387594Y-99511261D01*
X141390610Y-99517141D01*
X141393858Y-99522852D01*
X141397340Y-99528391D01*
X141401062Y-99533755D01*
X141405028Y-99538943D01*
X141409243Y-99543953D01*
X141413657Y-99549072D01*
X141418217Y-99554009D01*
X141422927Y-99558766D01*
X141427788Y-99563342D01*
X141432803Y-99567737D01*
X141437974Y-99571951D01*
X141443303Y-99575985D01*
X141448793Y-99579837D01*
X141454446Y-99583509D01*
X141460263Y-99587000D01*
X141466248Y-99590309D01*
X141472402Y-99593438D01*
X141478728Y-99596387D01*
X141485229Y-99599154D01*
X141491905Y-99601740D01*
X141498761Y-99604146D01*
X141505725Y-99606660D01*
X141512729Y-99608996D01*
X141519780Y-99611155D01*
X141526879Y-99613141D01*
X141534033Y-99614954D01*
X141541246Y-99616598D01*
X141548523Y-99618075D01*
X141555867Y-99619386D01*
X141563283Y-99620535D01*
X141570776Y-99621524D01*
X141578351Y-99622354D01*
X141586011Y-99623028D01*
X141593762Y-99623548D01*
X141601608Y-99623917D01*
X141617603Y-99624210D01*
X141626502Y-99624119D01*
X141635259Y-99623848D01*
X141643875Y-99623396D01*
X141652354Y-99622763D01*
X141660697Y-99621949D01*
X141668906Y-99620954D01*
X141676985Y-99619778D01*
X141684934Y-99618422D01*
X141692757Y-99616884D01*
X141700455Y-99615166D01*
X141708032Y-99613267D01*
X141715488Y-99611187D01*
X141722827Y-99608926D01*
X141730051Y-99606485D01*
X141737162Y-99603862D01*
X141744162Y-99601059D01*
X141751288Y-99598110D01*
X141758197Y-99595048D01*
X141764889Y-99591869D01*
X141771364Y-99588567D01*
X141777622Y-99585139D01*
X141783663Y-99581579D01*
X141789487Y-99577884D01*
X141795094Y-99574049D01*
X141800484Y-99570070D01*
X141805657Y-99565940D01*
X141810613Y-99561658D01*
X141815351Y-99557217D01*
X141819873Y-99552613D01*
X141824178Y-99547842D01*
X141828265Y-99542899D01*
X141832136Y-99537779D01*
X141836061Y-99532534D01*
X141839732Y-99527214D01*
X141843151Y-99521817D01*
X141846316Y-99516341D01*
X141849228Y-99510783D01*
X141851887Y-99505142D01*
X141854292Y-99499415D01*
X141856444Y-99493600D01*
X141858343Y-99487694D01*
X141859989Y-99481696D01*
X141861382Y-99475602D01*
X141862522Y-99469412D01*
X141863408Y-99463122D01*
X141864041Y-99456730D01*
X141864421Y-99450234D01*
X141864547Y-99443632D01*
X141864439Y-99437356D01*
X141864113Y-99431255D01*
X141863571Y-99425326D01*
X141862811Y-99419565D01*
X141861834Y-99413966D01*
X141860640Y-99408526D01*
X141859230Y-99403239D01*
X141857602Y-99398102D01*
X141855757Y-99393109D01*
X141853695Y-99388256D01*
X141851416Y-99383540D01*
X141848920Y-99378954D01*
X141846207Y-99374495D01*
X141843277Y-99370158D01*
X141840130Y-99365938D01*
X141836766Y-99361832D01*
X141833220Y-99358106D01*
X141829528Y-99354453D01*
X141825687Y-99350871D01*
X141821694Y-99347362D01*
X141817547Y-99343926D01*
X141813244Y-99340562D01*
X141808783Y-99337270D01*
X141804161Y-99334051D01*
X141799377Y-99330903D01*
X141794428Y-99327829D01*
X141789311Y-99324826D01*
X141784025Y-99321896D01*
X141778567Y-99319039D01*
X141772935Y-99316253D01*
X141767126Y-99313540D01*
X141761139Y-99310900D01*
X141748834Y-99305763D01*
X141736204Y-99300771D01*
X141723212Y-99295924D01*
X141709821Y-99291221D01*
X141695997Y-99286664D01*
X141681702Y-99282250D01*
X141666901Y-99277982D01*
X141651557Y-99273858D01*
X141520368Y-99238360D01*
X141503512Y-99233585D01*
X141487095Y-99228524D01*
X141471121Y-99223177D01*
X141455594Y-99217548D01*
X141440519Y-99211639D01*
X141425901Y-99205451D01*
X141411745Y-99198988D01*
X141398054Y-99192251D01*
X141384833Y-99185243D01*
X141372087Y-99177965D01*
X141359821Y-99170421D01*
X141348038Y-99162613D01*
X141336744Y-99154542D01*
X141325942Y-99146211D01*
X141315638Y-99137623D01*
X141305836Y-99128779D01*
X141296322Y-99119373D01*
X141287454Y-99109673D01*
X141279228Y-99099675D01*
X141271640Y-99089374D01*
X141264684Y-99078765D01*
X141258358Y-99067844D01*
X141252655Y-99056607D01*
X141247572Y-99045049D01*
X141243104Y-99033165D01*
X141239246Y-99020951D01*
X141235994Y-99008403D01*
X141233344Y-98995515D01*
X141231290Y-98982284D01*
X141229829Y-98968705D01*
X141228956Y-98954773D01*
X141228665Y-98940483D01*
X141228865Y-98928420D01*
X141229464Y-98916540D01*
X141230466Y-98904845D01*
X141231873Y-98893337D01*
X141233686Y-98882020D01*
X141235909Y-98870895D01*
X141238543Y-98859964D01*
X141241591Y-98849230D01*
X141245055Y-98838695D01*
X141248938Y-98828361D01*
X141253240Y-98818231D01*
X141257966Y-98808306D01*
X141263116Y-98798589D01*
X141268694Y-98789083D01*
X141274701Y-98779789D01*
X141281140Y-98770710D01*
X141287670Y-98761848D01*
X141294522Y-98753208D01*
X141301695Y-98744794D01*
X141309188Y-98736610D01*
X141316996Y-98728662D01*
X141325119Y-98720953D01*
X141333554Y-98713489D01*
X141342299Y-98706273D01*
X141351351Y-98699310D01*
X141360708Y-98692605D01*
X141370368Y-98686162D01*
X141380329Y-98679986D01*
X141390588Y-98674082D01*
X141401144Y-98668453D01*
X141411993Y-98663105D01*
X141423134Y-98658041D01*
X141434511Y-98653012D01*
X141446068Y-98648341D01*
X141457806Y-98644022D01*
X141469725Y-98640051D01*
X141481825Y-98636424D01*
X141494106Y-98633136D01*
X141506568Y-98630182D01*
X141519211Y-98627559D01*
X141532034Y-98625261D01*
X141545039Y-98623284D01*
X141558224Y-98621624D01*
X141571590Y-98620276D01*
X141585137Y-98619235D01*
X141598865Y-98618497D01*
X141612774Y-98618058D01*
X141626863Y-98617913D01*
X141640953Y-98618058D01*
G37*
%TD.AperFunction*%
%TA.AperFunction,NonConductor*%
G36*
X134121656Y-98632074D02*
G01*
X134141898Y-98632886D01*
X134161746Y-98634235D01*
X134181203Y-98636120D01*
X134200272Y-98638539D01*
X134218953Y-98641489D01*
X134237251Y-98644968D01*
X134255166Y-98648974D01*
X134272702Y-98653504D01*
X134289859Y-98658557D01*
X134306642Y-98664130D01*
X134323052Y-98670220D01*
X134339090Y-98676826D01*
X134354761Y-98683945D01*
X134370065Y-98691575D01*
X134385005Y-98699713D01*
X134399547Y-98708340D01*
X134413657Y-98717435D01*
X134427338Y-98726996D01*
X134440591Y-98737020D01*
X134453420Y-98747506D01*
X134465825Y-98758450D01*
X134477811Y-98769851D01*
X134489377Y-98781706D01*
X134500528Y-98794014D01*
X134511265Y-98806772D01*
X134521591Y-98819977D01*
X134531507Y-98833627D01*
X134541017Y-98847721D01*
X134550122Y-98862256D01*
X134558824Y-98877229D01*
X134567126Y-98892638D01*
X134574704Y-98908464D01*
X134581810Y-98924685D01*
X134588440Y-98941300D01*
X134594594Y-98958305D01*
X134600268Y-98975700D01*
X134605461Y-98993481D01*
X134610170Y-99011646D01*
X134614393Y-99030194D01*
X134618128Y-99049121D01*
X134621372Y-99068426D01*
X134624123Y-99088106D01*
X134626379Y-99108160D01*
X134628137Y-99128584D01*
X134629396Y-99149376D01*
X134630153Y-99170535D01*
X134630406Y-99192058D01*
X134630153Y-99213853D01*
X134629396Y-99235252D01*
X134628137Y-99256258D01*
X134626379Y-99276872D01*
X134624123Y-99297098D01*
X134621372Y-99316938D01*
X134618128Y-99336392D01*
X134614393Y-99355465D01*
X134610170Y-99374158D01*
X134605461Y-99392474D01*
X134600268Y-99410414D01*
X134594594Y-99427981D01*
X134588440Y-99445177D01*
X134581810Y-99462005D01*
X134574704Y-99478466D01*
X134567126Y-99494564D01*
X134558806Y-99509974D01*
X134550052Y-99524947D01*
X134540864Y-99539481D01*
X134531242Y-99553575D01*
X134521186Y-99567226D01*
X134510696Y-99580431D01*
X134499771Y-99593188D01*
X134488413Y-99605496D01*
X134476620Y-99617351D01*
X134464394Y-99628753D01*
X134451733Y-99639697D01*
X134438638Y-99650182D01*
X134425109Y-99660207D01*
X134411146Y-99669767D01*
X134396749Y-99678862D01*
X134381918Y-99687489D01*
X134366671Y-99695628D01*
X134351026Y-99703258D01*
X134334983Y-99710377D01*
X134318542Y-99716983D01*
X134301703Y-99723073D01*
X134284467Y-99728646D01*
X134266832Y-99733698D01*
X134248800Y-99738229D01*
X134230369Y-99742235D01*
X134211541Y-99745714D01*
X134192315Y-99748664D01*
X134172691Y-99751083D01*
X134152669Y-99752968D01*
X134132249Y-99754317D01*
X134111431Y-99755128D01*
X134090215Y-99755399D01*
X133812403Y-99755399D01*
X133725972Y-99755399D01*
X133725972Y-99605689D01*
X133725972Y-98783057D01*
X133897290Y-98783057D01*
X133897290Y-99605689D01*
X134080955Y-99605689D01*
X134096708Y-99605491D01*
X134112133Y-99604899D01*
X134127228Y-99603919D01*
X134141991Y-99602554D01*
X134156420Y-99600810D01*
X134170511Y-99598690D01*
X134184263Y-99596199D01*
X134197674Y-99593342D01*
X134210742Y-99590123D01*
X134223463Y-99586547D01*
X134235836Y-99582619D01*
X134247859Y-99578342D01*
X134259529Y-99573722D01*
X134270844Y-99568762D01*
X134281802Y-99563468D01*
X134292401Y-99557844D01*
X134302928Y-99551603D01*
X134313095Y-99545035D01*
X134322905Y-99538137D01*
X134332360Y-99530907D01*
X134341463Y-99523342D01*
X134350215Y-99515440D01*
X134358619Y-99507198D01*
X134366677Y-99498616D01*
X134374391Y-99489690D01*
X134381764Y-99480418D01*
X134388798Y-99470797D01*
X134395495Y-99460827D01*
X134401858Y-99450503D01*
X134407888Y-99439825D01*
X134413588Y-99428789D01*
X134418960Y-99417394D01*
X134424023Y-99405673D01*
X134428793Y-99393658D01*
X134433264Y-99381345D01*
X134437432Y-99368729D01*
X134441293Y-99355805D01*
X134444842Y-99342569D01*
X134448074Y-99329017D01*
X134450985Y-99315144D01*
X134453571Y-99300945D01*
X134455827Y-99286416D01*
X134457747Y-99271553D01*
X134459329Y-99256350D01*
X134460568Y-99240804D01*
X134461458Y-99224909D01*
X134461995Y-99208662D01*
X134462175Y-99192058D01*
X134461995Y-99175726D01*
X134461458Y-99159719D01*
X134460568Y-99144038D01*
X134459329Y-99128682D01*
X134457747Y-99113652D01*
X134455827Y-99098947D01*
X134453571Y-99084569D01*
X134450985Y-99070515D01*
X134448074Y-99056787D01*
X134444842Y-99043385D01*
X134441293Y-99030308D01*
X134437432Y-99017557D01*
X134433264Y-99005132D01*
X134428793Y-98993031D01*
X134424023Y-98981257D01*
X134418960Y-98969808D01*
X134413588Y-98958414D01*
X134407894Y-98947381D01*
X134401878Y-98936710D01*
X134395543Y-98926400D01*
X134388892Y-98916452D01*
X134381927Y-98906866D01*
X134374650Y-98897642D01*
X134367063Y-98888780D01*
X134359168Y-98880279D01*
X134350969Y-98872140D01*
X134342466Y-98864363D01*
X134333663Y-98856947D01*
X134324561Y-98849893D01*
X134315163Y-98843201D01*
X134305471Y-98836871D01*
X134295488Y-98830902D01*
X134284924Y-98825024D01*
X134274070Y-98819541D01*
X134262921Y-98814451D01*
X134251476Y-98809753D01*
X134239733Y-98805443D01*
X134227689Y-98801520D01*
X134215343Y-98797982D01*
X134202690Y-98794825D01*
X134189731Y-98792049D01*
X134176462Y-98789650D01*
X134162880Y-98787626D01*
X134148985Y-98785975D01*
X134134773Y-98784695D01*
X134120242Y-98783783D01*
X134105390Y-98783238D01*
X134090215Y-98783057D01*
X133897290Y-98783057D01*
X133725972Y-98783057D01*
X133725972Y-98631803D01*
X133897290Y-98631803D01*
X134101019Y-98631803D01*
X134121656Y-98632074D01*
G37*
%TD.AperFunction*%
%TA.AperFunction,NonConductor*%
G36*
X138709127Y-99276945D02*
G01*
X138712023Y-99284176D01*
X138714938Y-99291969D01*
X138717889Y-99300304D01*
X138720895Y-99309163D01*
X138727141Y-99328383D01*
X138733821Y-99349485D01*
X138760059Y-99445176D01*
X138767872Y-99470401D01*
X138775107Y-99495336D01*
X138778507Y-99507786D01*
X138781763Y-99520272D01*
X138784874Y-99532830D01*
X138787840Y-99545496D01*
X138793169Y-99564687D01*
X138797100Y-99548583D01*
X138810991Y-99498230D01*
X138817936Y-99472836D01*
X138824882Y-99446719D01*
X138831827Y-99421566D01*
X138838772Y-99397137D01*
X138845717Y-99373576D01*
X138852663Y-99351028D01*
X138855620Y-99339742D01*
X138858667Y-99329035D01*
X138861751Y-99318906D01*
X138864817Y-99309356D01*
X138875814Y-99276945D01*
X139118128Y-98631803D01*
X139371246Y-98631803D01*
X139371246Y-99755399D01*
X139201472Y-99755399D01*
X139201472Y-99151929D01*
X139201472Y-99068586D01*
X139203015Y-98966721D01*
X139206102Y-98857140D01*
X139206994Y-98829648D01*
X139207452Y-98802735D01*
X139207466Y-98799146D01*
X139205137Y-98807172D01*
X139196576Y-98835942D01*
X139187581Y-98864857D01*
X139179237Y-98893530D01*
X139170604Y-98921770D01*
X139161970Y-98949720D01*
X139153626Y-98977525D01*
X139144655Y-99003811D01*
X139136263Y-99029229D01*
X139121215Y-99076303D01*
X139106360Y-99118168D01*
X139100162Y-99135989D01*
X139097434Y-99144185D01*
X139094977Y-99151929D01*
X138865010Y-99755399D01*
X138716843Y-99755399D01*
X138485333Y-99151929D01*
X138479280Y-99136013D01*
X138472793Y-99118361D01*
X138469432Y-99108883D01*
X138466016Y-99098972D01*
X138462565Y-99088626D01*
X138459095Y-99077846D01*
X138451861Y-99055274D01*
X138444047Y-99031544D01*
X138435655Y-99006657D01*
X138426684Y-98980612D01*
X138418316Y-98953458D01*
X138409513Y-98925435D01*
X138391186Y-98867944D01*
X138382817Y-98838981D01*
X138374015Y-98809873D01*
X138371929Y-98803131D01*
X138372665Y-98850966D01*
X138375751Y-98960548D01*
X138377295Y-99063956D01*
X138378187Y-99088554D01*
X138378645Y-99111415D01*
X138378814Y-99132540D01*
X138378838Y-99151929D01*
X138378838Y-99755399D01*
X138212151Y-99755399D01*
X138212151Y-98631803D01*
X138465269Y-98631803D01*
X138709127Y-99276945D01*
G37*
%TD.AperFunction*%
D11*
X141979041Y-98430321D02*
X133796737Y-98430321D01*
X133796737Y-95613188D01*
X141979041Y-95613188D01*
X141979041Y-98430321D01*
D10*
%TA.AperFunction,NonConductor*%
G36*
X139816672Y-99755399D02*
G01*
X139643811Y-99755399D01*
X139643811Y-98631803D01*
X139816672Y-98631803D01*
X139816672Y-99755399D01*
G37*
%TD.AperFunction*%
%TA.AperFunction,NonConductor*%
G36*
X136560001Y-96622028D02*
G01*
X136577081Y-96650822D01*
X136593618Y-96679327D01*
X136625210Y-96735468D01*
X136655065Y-96790452D01*
X136683473Y-96844278D01*
X136696351Y-96872789D01*
X136709518Y-96902783D01*
X136722975Y-96934297D01*
X136736721Y-96967365D01*
X136737349Y-96968917D01*
X136739036Y-96964664D01*
X136752926Y-96931373D01*
X136766817Y-96899745D01*
X136780708Y-96869708D01*
X136794598Y-96841191D01*
X136822524Y-96787414D01*
X136851319Y-96732767D01*
X136866313Y-96705209D01*
X136881849Y-96677543D01*
X136898037Y-96649804D01*
X136914984Y-96622028D01*
X137331704Y-95902801D01*
X137729903Y-95902801D01*
X136905724Y-97254824D01*
X136905724Y-98150000D01*
X136563087Y-98150000D01*
X136563087Y-97254824D01*
X135735821Y-95902801D01*
X136137107Y-95902801D01*
X136560001Y-96622028D01*
G37*
%TD.AperFunction*%
%TA.AperFunction,NonConductor*%
G36*
X134900302Y-95903163D02*
G01*
X134931731Y-95904248D01*
X134962501Y-95906057D01*
X134992606Y-95908589D01*
X135022041Y-95911844D01*
X135050803Y-95915824D01*
X135078886Y-95920526D01*
X135106287Y-95925952D01*
X135133001Y-95932102D01*
X135159022Y-95938975D01*
X135184348Y-95946571D01*
X135208972Y-95954891D01*
X135232891Y-95963934D01*
X135256100Y-95973701D01*
X135278595Y-95984192D01*
X135300371Y-95995405D01*
X135322003Y-96006691D01*
X135342911Y-96018550D01*
X135363096Y-96030980D01*
X135382557Y-96043974D01*
X135401295Y-96057530D01*
X135419309Y-96071641D01*
X135436600Y-96086304D01*
X135453168Y-96101515D01*
X135469012Y-96117267D01*
X135484133Y-96133558D01*
X135498530Y-96150383D01*
X135512203Y-96167736D01*
X135525153Y-96185615D01*
X135537380Y-96204013D01*
X135548883Y-96222926D01*
X135559663Y-96242351D01*
X135570299Y-96262754D01*
X135580216Y-96283456D01*
X135589418Y-96304465D01*
X135597911Y-96325791D01*
X135605698Y-96347442D01*
X135612784Y-96369428D01*
X135619174Y-96391758D01*
X135624872Y-96414440D01*
X135629883Y-96437484D01*
X135634211Y-96460899D01*
X135637861Y-96484694D01*
X135640837Y-96508877D01*
X135643144Y-96533459D01*
X135644786Y-96558447D01*
X135645768Y-96583851D01*
X135646094Y-96609681D01*
X135645768Y-96635510D01*
X135644786Y-96660909D01*
X135643144Y-96685883D01*
X135640837Y-96710436D01*
X135637861Y-96734574D01*
X135634211Y-96758300D01*
X135629883Y-96781619D01*
X135624872Y-96804536D01*
X135619174Y-96827055D01*
X135612784Y-96849180D01*
X135605698Y-96870917D01*
X135597911Y-96892269D01*
X135589418Y-96913241D01*
X135580216Y-96933838D01*
X135570299Y-96954065D01*
X135559663Y-96973925D01*
X135548341Y-96993314D01*
X135536367Y-97012124D01*
X135523743Y-97030355D01*
X135510467Y-97048008D01*
X135496540Y-97065082D01*
X135481962Y-97081577D01*
X135466733Y-97097493D01*
X135450853Y-97112831D01*
X135434322Y-97127590D01*
X135417139Y-97141770D01*
X135399305Y-97155371D01*
X135380821Y-97168394D01*
X135361685Y-97180837D01*
X135341898Y-97192702D01*
X135321460Y-97203988D01*
X135300371Y-97214696D01*
X135278594Y-97225332D01*
X135256094Y-97235248D01*
X135236336Y-97243078D01*
X135732525Y-98150000D01*
X135340499Y-98150000D01*
X134886277Y-97300915D01*
X134865130Y-97301127D01*
X134408281Y-97301127D01*
X134408281Y-98150000D01*
X134065645Y-98150000D01*
X134065645Y-97007880D01*
X134065645Y-96199135D01*
X134408281Y-96199135D01*
X134408281Y-97007880D01*
X134831175Y-97007880D01*
X134871834Y-97007156D01*
X134910467Y-97004986D01*
X134929024Y-97003358D01*
X134947075Y-97001368D01*
X134964619Y-96999017D01*
X134981657Y-96996304D01*
X134998188Y-96993229D01*
X135014213Y-96989793D01*
X135029732Y-96985995D01*
X135044744Y-96981835D01*
X135059249Y-96977313D01*
X135073249Y-96972430D01*
X135086741Y-96967184D01*
X135099728Y-96961578D01*
X135112245Y-96955100D01*
X135124332Y-96948392D01*
X135135994Y-96941440D01*
X135147236Y-96934230D01*
X135158061Y-96926749D01*
X135168476Y-96918983D01*
X135178483Y-96910919D01*
X135188088Y-96902542D01*
X135197295Y-96893840D01*
X135206108Y-96884799D01*
X135214533Y-96875405D01*
X135222573Y-96865645D01*
X135230234Y-96855505D01*
X135237519Y-96844972D01*
X135244433Y-96834031D01*
X135250981Y-96822671D01*
X135256588Y-96811529D01*
X135261834Y-96800099D01*
X135266717Y-96788378D01*
X135271239Y-96776369D01*
X135275399Y-96764070D01*
X135279197Y-96751481D01*
X135282633Y-96738604D01*
X135285708Y-96725436D01*
X135288421Y-96711980D01*
X135290773Y-96698234D01*
X135292762Y-96684198D01*
X135294390Y-96669874D01*
X135295656Y-96655260D01*
X135296560Y-96640356D01*
X135297103Y-96625163D01*
X135297284Y-96609681D01*
X135297103Y-96594163D01*
X135296560Y-96578867D01*
X135295656Y-96563797D01*
X135294390Y-96548957D01*
X135292762Y-96534353D01*
X135290773Y-96519988D01*
X135288421Y-96505868D01*
X135285708Y-96491996D01*
X135282633Y-96478378D01*
X135279197Y-96465017D01*
X135275399Y-96451918D01*
X135271239Y-96439086D01*
X135266717Y-96426526D01*
X135261834Y-96414241D01*
X135256588Y-96402237D01*
X135250981Y-96390517D01*
X135244433Y-96379122D01*
X135237519Y-96368084D01*
X135230234Y-96357398D01*
X135222573Y-96347061D01*
X135214533Y-96337067D01*
X135206108Y-96327413D01*
X135197295Y-96318093D01*
X135188088Y-96309103D01*
X135178483Y-96300438D01*
X135168476Y-96292095D01*
X135158061Y-96284068D01*
X135147236Y-96276354D01*
X135135994Y-96268946D01*
X135124332Y-96261842D01*
X135112245Y-96255036D01*
X135099728Y-96248524D01*
X135086741Y-96242374D01*
X135073249Y-96236653D01*
X135059249Y-96231357D01*
X135044744Y-96226482D01*
X135029732Y-96222023D01*
X135014213Y-96217975D01*
X134998188Y-96214335D01*
X134981657Y-96211096D01*
X134964619Y-96208256D01*
X134947075Y-96205809D01*
X134929024Y-96203751D01*
X134910467Y-96202077D01*
X134891404Y-96200783D01*
X134871834Y-96199864D01*
X134851758Y-96199316D01*
X134831175Y-96199135D01*
X134408281Y-96199135D01*
X134065645Y-96199135D01*
X134065645Y-95902801D01*
X134868216Y-95902801D01*
X134900302Y-95903163D01*
G37*
%TD.AperFunction*%
%TA.AperFunction,NonConductor*%
G36*
X135132091Y-98991416D02*
G01*
X135140631Y-99005813D01*
X135148899Y-99020065D01*
X135164695Y-99048136D01*
X135179623Y-99075628D01*
X135193827Y-99102541D01*
X135200266Y-99116796D01*
X135206849Y-99131793D01*
X135213578Y-99147550D01*
X135220451Y-99164084D01*
X135220765Y-99164860D01*
X135221608Y-99162733D01*
X135228553Y-99146088D01*
X135235499Y-99130274D01*
X135242444Y-99115256D01*
X135249389Y-99100998D01*
X135263352Y-99074108D01*
X135277749Y-99046785D01*
X135285246Y-99033006D01*
X135293015Y-99019173D01*
X135301108Y-99005303D01*
X135309582Y-98991416D01*
X135517941Y-98631803D01*
X135717040Y-98631803D01*
X135304952Y-99307813D01*
X135304952Y-99755399D01*
X135133634Y-99755399D01*
X135133634Y-99307813D01*
X134720002Y-98631803D01*
X134920645Y-98631803D01*
X135132091Y-98991416D01*
G37*
%TD.AperFunction*%
%TA.AperFunction,NonConductor*%
G36*
X141100950Y-97239390D02*
G01*
X141122365Y-97275323D01*
X141144937Y-97313860D01*
X141168667Y-97355290D01*
X141193554Y-97399905D01*
X141207451Y-97423351D01*
X141221384Y-97447412D01*
X141249503Y-97497525D01*
X141278200Y-97550531D01*
X141307766Y-97606721D01*
X141336030Y-97665756D01*
X141364872Y-97727107D01*
X141370751Y-97740085D01*
X141369888Y-97730193D01*
X141360242Y-97603634D01*
X141355612Y-97481705D01*
X141350981Y-97369036D01*
X141349197Y-97315741D01*
X141348281Y-97266786D01*
X141347944Y-97221882D01*
X141347895Y-97180741D01*
X141347895Y-95902801D01*
X141696705Y-95902801D01*
X141696705Y-98150000D01*
X141298506Y-98150000D01*
X140539150Y-96955404D01*
X140479342Y-96855468D01*
X140450163Y-96806513D01*
X140421851Y-96757848D01*
X140391609Y-96705661D01*
X140360499Y-96650581D01*
X140292204Y-96529424D01*
X140255693Y-96459344D01*
X140215420Y-96383186D01*
X140182401Y-96321712D01*
X140190339Y-96520163D01*
X140194439Y-96590147D01*
X140197670Y-96656369D01*
X140202687Y-96776369D01*
X140206931Y-96875918D01*
X140208329Y-96917012D01*
X140208860Y-96952317D01*
X140208860Y-98150000D01*
X139860050Y-98150000D01*
X139860050Y-95902801D01*
X140255162Y-95902801D01*
X141100950Y-97239390D01*
G37*
%TD.AperFunction*%
%TA.AperFunction,NonConductor*%
G36*
X139610051Y-98150000D02*
G01*
X139239633Y-98150000D01*
X139031833Y-97557332D01*
X138148204Y-97557332D01*
X137946257Y-98150000D01*
X137575840Y-98150000D01*
X137888825Y-97270259D01*
X138246021Y-97270259D01*
X138931180Y-97270259D01*
X138801305Y-96899841D01*
X138775260Y-96820452D01*
X138748058Y-96734697D01*
X138719697Y-96641996D01*
X138690180Y-96541771D01*
X138623813Y-96314505D01*
X138586868Y-96186257D01*
X138584072Y-96176255D01*
X138545100Y-96318749D01*
X138480276Y-96547945D01*
X138450807Y-96648073D01*
X138422784Y-96740099D01*
X138396498Y-96824021D01*
X138372238Y-96899841D01*
X138246021Y-97270259D01*
X137888825Y-97270259D01*
X138375325Y-95902801D01*
X138798218Y-95902801D01*
X139610051Y-98150000D01*
G37*
%TD.AperFunction*%
D12*
D13*
X143420594Y-98694857D02*
X143468213Y-98647238D01*
X143468213Y-98647238D02*
X143563451Y-98599619D01*
X143563451Y-98599619D02*
X143801546Y-98599619D01*
X143801546Y-98599619D02*
X143896784Y-98647238D01*
X143896784Y-98647238D02*
X143944403Y-98694857D01*
X143944403Y-98694857D02*
X143992022Y-98790095D01*
X143992022Y-98790095D02*
X143992022Y-98885333D01*
X143992022Y-98885333D02*
X143944403Y-99028190D01*
X143944403Y-99028190D02*
X143372975Y-99599619D01*
X143372975Y-99599619D02*
X143992022Y-99599619D01*
X144611070Y-98599619D02*
X144706308Y-98599619D01*
X144706308Y-98599619D02*
X144801546Y-98647238D01*
X144801546Y-98647238D02*
X144849165Y-98694857D01*
X144849165Y-98694857D02*
X144896784Y-98790095D01*
X144896784Y-98790095D02*
X144944403Y-98980571D01*
X144944403Y-98980571D02*
X144944403Y-99218666D01*
X144944403Y-99218666D02*
X144896784Y-99409142D01*
X144896784Y-99409142D02*
X144849165Y-99504380D01*
X144849165Y-99504380D02*
X144801546Y-99552000D01*
X144801546Y-99552000D02*
X144706308Y-99599619D01*
X144706308Y-99599619D02*
X144611070Y-99599619D01*
X144611070Y-99599619D02*
X144515832Y-99552000D01*
X144515832Y-99552000D02*
X144468213Y-99504380D01*
X144468213Y-99504380D02*
X144420594Y-99409142D01*
X144420594Y-99409142D02*
X144372975Y-99218666D01*
X144372975Y-99218666D02*
X144372975Y-98980571D01*
X144372975Y-98980571D02*
X144420594Y-98790095D01*
X144420594Y-98790095D02*
X144468213Y-98694857D01*
X144468213Y-98694857D02*
X144515832Y-98647238D01*
X144515832Y-98647238D02*
X144611070Y-98599619D01*
X145325356Y-98694857D02*
X145372975Y-98647238D01*
X145372975Y-98647238D02*
X145468213Y-98599619D01*
X145468213Y-98599619D02*
X145706308Y-98599619D01*
X145706308Y-98599619D02*
X145801546Y-98647238D01*
X145801546Y-98647238D02*
X145849165Y-98694857D01*
X145849165Y-98694857D02*
X145896784Y-98790095D01*
X145896784Y-98790095D02*
X145896784Y-98885333D01*
X145896784Y-98885333D02*
X145849165Y-99028190D01*
X145849165Y-99028190D02*
X145277737Y-99599619D01*
X145277737Y-99599619D02*
X145896784Y-99599619D01*
X146753927Y-98599619D02*
X146563451Y-98599619D01*
X146563451Y-98599619D02*
X146468213Y-98647238D01*
X146468213Y-98647238D02*
X146420594Y-98694857D01*
X146420594Y-98694857D02*
X146325356Y-98837714D01*
X146325356Y-98837714D02*
X146277737Y-99028190D01*
X146277737Y-99028190D02*
X146277737Y-99409142D01*
X146277737Y-99409142D02*
X146325356Y-99504380D01*
X146325356Y-99504380D02*
X146372975Y-99552000D01*
X146372975Y-99552000D02*
X146468213Y-99599619D01*
X146468213Y-99599619D02*
X146658689Y-99599619D01*
X146658689Y-99599619D02*
X146753927Y-99552000D01*
X146753927Y-99552000D02*
X146801546Y-99504380D01*
X146801546Y-99504380D02*
X146849165Y-99409142D01*
X146849165Y-99409142D02*
X146849165Y-99171047D01*
X146849165Y-99171047D02*
X146801546Y-99075809D01*
X146801546Y-99075809D02*
X146753927Y-99028190D01*
X146753927Y-99028190D02*
X146658689Y-98980571D01*
X146658689Y-98980571D02*
X146468213Y-98980571D01*
X146468213Y-98980571D02*
X146372975Y-99028190D01*
X146372975Y-99028190D02*
X146325356Y-99075809D01*
X146325356Y-99075809D02*
X146277737Y-99171047D01*
D12*
D13*
X143468213Y-96599619D02*
X143468213Y-95599619D01*
X143944403Y-96599619D02*
X143944403Y-95599619D01*
X143944403Y-95599619D02*
X144515831Y-96599619D01*
X144515831Y-96599619D02*
X144515831Y-95599619D01*
X144992022Y-96599619D02*
X144992022Y-95599619D01*
X144992022Y-95599619D02*
X145372974Y-95599619D01*
X145372974Y-95599619D02*
X145468212Y-95647238D01*
X145468212Y-95647238D02*
X145515831Y-95694857D01*
X145515831Y-95694857D02*
X145563450Y-95790095D01*
X145563450Y-95790095D02*
X145563450Y-95932952D01*
X145563450Y-95932952D02*
X145515831Y-96028190D01*
X145515831Y-96028190D02*
X145468212Y-96075809D01*
X145468212Y-96075809D02*
X145372974Y-96123428D01*
X145372974Y-96123428D02*
X144992022Y-96123428D01*
X145992022Y-95599619D02*
X145992022Y-96409142D01*
X145992022Y-96409142D02*
X146039641Y-96504380D01*
X146039641Y-96504380D02*
X146087260Y-96552000D01*
X146087260Y-96552000D02*
X146182498Y-96599619D01*
X146182498Y-96599619D02*
X146372974Y-96599619D01*
X146372974Y-96599619D02*
X146468212Y-96552000D01*
X146468212Y-96552000D02*
X146515831Y-96504380D01*
X146515831Y-96504380D02*
X146563450Y-96409142D01*
X146563450Y-96409142D02*
X146563450Y-95599619D01*
X146896784Y-95599619D02*
X147468212Y-95599619D01*
X147182498Y-96599619D02*
X147182498Y-95599619D01*
X148563451Y-96599619D02*
X148563451Y-95599619D01*
X148563451Y-95599619D02*
X148944403Y-95599619D01*
X148944403Y-95599619D02*
X149039641Y-95647238D01*
X149039641Y-95647238D02*
X149087260Y-95694857D01*
X149087260Y-95694857D02*
X149134879Y-95790095D01*
X149134879Y-95790095D02*
X149134879Y-95932952D01*
X149134879Y-95932952D02*
X149087260Y-96028190D01*
X149087260Y-96028190D02*
X149039641Y-96075809D01*
X149039641Y-96075809D02*
X148944403Y-96123428D01*
X148944403Y-96123428D02*
X148563451Y-96123428D01*
X150134879Y-96599619D02*
X149801546Y-96123428D01*
X149563451Y-96599619D02*
X149563451Y-95599619D01*
X149563451Y-95599619D02*
X149944403Y-95599619D01*
X149944403Y-95599619D02*
X150039641Y-95647238D01*
X150039641Y-95647238D02*
X150087260Y-95694857D01*
X150087260Y-95694857D02*
X150134879Y-95790095D01*
X150134879Y-95790095D02*
X150134879Y-95932952D01*
X150134879Y-95932952D02*
X150087260Y-96028190D01*
X150087260Y-96028190D02*
X150039641Y-96075809D01*
X150039641Y-96075809D02*
X149944403Y-96123428D01*
X149944403Y-96123428D02*
X149563451Y-96123428D01*
X150753927Y-95599619D02*
X150944403Y-95599619D01*
X150944403Y-95599619D02*
X151039641Y-95647238D01*
X151039641Y-95647238D02*
X151134879Y-95742476D01*
X151134879Y-95742476D02*
X151182498Y-95932952D01*
X151182498Y-95932952D02*
X151182498Y-96266285D01*
X151182498Y-96266285D02*
X151134879Y-96456761D01*
X151134879Y-96456761D02*
X151039641Y-96552000D01*
X151039641Y-96552000D02*
X150944403Y-96599619D01*
X150944403Y-96599619D02*
X150753927Y-96599619D01*
X150753927Y-96599619D02*
X150658689Y-96552000D01*
X150658689Y-96552000D02*
X150563451Y-96456761D01*
X150563451Y-96456761D02*
X150515832Y-96266285D01*
X150515832Y-96266285D02*
X150515832Y-95932952D01*
X150515832Y-95932952D02*
X150563451Y-95742476D01*
X150563451Y-95742476D02*
X150658689Y-95647238D01*
X150658689Y-95647238D02*
X150753927Y-95599619D01*
X151468213Y-95599619D02*
X152039641Y-95599619D01*
X151753927Y-96599619D02*
X151753927Y-95599619D01*
X152372975Y-96075809D02*
X152706308Y-96075809D01*
X152849165Y-96599619D02*
X152372975Y-96599619D01*
X152372975Y-96599619D02*
X152372975Y-95599619D01*
X152372975Y-95599619D02*
X152849165Y-95599619D01*
X153849165Y-96504380D02*
X153801546Y-96552000D01*
X153801546Y-96552000D02*
X153658689Y-96599619D01*
X153658689Y-96599619D02*
X153563451Y-96599619D01*
X153563451Y-96599619D02*
X153420594Y-96552000D01*
X153420594Y-96552000D02*
X153325356Y-96456761D01*
X153325356Y-96456761D02*
X153277737Y-96361523D01*
X153277737Y-96361523D02*
X153230118Y-96171047D01*
X153230118Y-96171047D02*
X153230118Y-96028190D01*
X153230118Y-96028190D02*
X153277737Y-95837714D01*
X153277737Y-95837714D02*
X153325356Y-95742476D01*
X153325356Y-95742476D02*
X153420594Y-95647238D01*
X153420594Y-95647238D02*
X153563451Y-95599619D01*
X153563451Y-95599619D02*
X153658689Y-95599619D01*
X153658689Y-95599619D02*
X153801546Y-95647238D01*
X153801546Y-95647238D02*
X153849165Y-95694857D01*
X154134880Y-95599619D02*
X154706308Y-95599619D01*
X154420594Y-96599619D02*
X154420594Y-95599619D01*
X155039642Y-96599619D02*
X155039642Y-95599619D01*
X155706308Y-95599619D02*
X155896784Y-95599619D01*
X155896784Y-95599619D02*
X155992022Y-95647238D01*
X155992022Y-95647238D02*
X156087260Y-95742476D01*
X156087260Y-95742476D02*
X156134879Y-95932952D01*
X156134879Y-95932952D02*
X156134879Y-96266285D01*
X156134879Y-96266285D02*
X156087260Y-96456761D01*
X156087260Y-96456761D02*
X155992022Y-96552000D01*
X155992022Y-96552000D02*
X155896784Y-96599619D01*
X155896784Y-96599619D02*
X155706308Y-96599619D01*
X155706308Y-96599619D02*
X155611070Y-96552000D01*
X155611070Y-96552000D02*
X155515832Y-96456761D01*
X155515832Y-96456761D02*
X155468213Y-96266285D01*
X155468213Y-96266285D02*
X155468213Y-95932952D01*
X155468213Y-95932952D02*
X155515832Y-95742476D01*
X155515832Y-95742476D02*
X155611070Y-95647238D01*
X155611070Y-95647238D02*
X155706308Y-95599619D01*
X156563451Y-96599619D02*
X156563451Y-95599619D01*
X156563451Y-95599619D02*
X157134879Y-96599619D01*
X157134879Y-96599619D02*
X157134879Y-95599619D01*
D12*
G36*
X147376880Y-97732681D02*
G01*
X147389290Y-97745092D01*
X147414641Y-97795793D01*
X147414641Y-97879633D01*
X147389289Y-97930336D01*
X147370358Y-97949268D01*
X147319657Y-97974619D01*
X147093213Y-97974619D01*
X147093213Y-97700809D01*
X147281263Y-97700809D01*
X147376880Y-97732681D01*
G37*
G36*
X147322739Y-97249969D02*
G01*
X147341671Y-97268902D01*
X147367022Y-97319603D01*
X147367022Y-97355824D01*
X147341671Y-97406525D01*
X147322739Y-97425458D01*
X147272038Y-97450809D01*
X147093213Y-97450809D01*
X147093213Y-97224619D01*
X147272038Y-97224619D01*
X147322739Y-97249969D01*
G37*
G36*
X147789641Y-98349619D02*
G01*
X146718213Y-98349619D01*
X146718213Y-97099619D01*
X146843213Y-97099619D01*
X146843213Y-98099619D01*
X146845615Y-98124005D01*
X146864279Y-98169065D01*
X146898767Y-98203553D01*
X146943827Y-98222217D01*
X146968213Y-98224619D01*
X147349165Y-98224619D01*
X147373551Y-98222217D01*
X147377699Y-98220498D01*
X147382181Y-98220180D01*
X147405067Y-98211422D01*
X147500304Y-98163804D01*
X147510800Y-98157196D01*
X147513850Y-98155933D01*
X147517283Y-98153114D01*
X147521042Y-98150749D01*
X147523204Y-98148255D01*
X147532792Y-98140387D01*
X147580411Y-98092768D01*
X147588278Y-98083180D01*
X147590771Y-98081019D01*
X147593137Y-98077259D01*
X147595956Y-98073825D01*
X147597218Y-98070776D01*
X147603825Y-98060282D01*
X147651444Y-97965044D01*
X147660202Y-97942158D01*
X147660520Y-97937677D01*
X147662239Y-97933528D01*
X147664641Y-97909142D01*
X147664641Y-97766285D01*
X147662239Y-97741899D01*
X147660520Y-97737749D01*
X147660202Y-97733269D01*
X147651444Y-97710383D01*
X147603825Y-97615145D01*
X147597218Y-97604650D01*
X147595955Y-97601600D01*
X147593136Y-97598165D01*
X147590771Y-97594408D01*
X147588279Y-97592246D01*
X147580410Y-97582658D01*
X147548080Y-97550329D01*
X147548336Y-97550018D01*
X147549599Y-97546967D01*
X147556206Y-97536473D01*
X147603825Y-97441235D01*
X147612583Y-97418349D01*
X147612901Y-97413868D01*
X147614620Y-97409719D01*
X147617022Y-97385333D01*
X147617022Y-97290095D01*
X147614620Y-97265709D01*
X147612901Y-97261559D01*
X147612583Y-97257079D01*
X147603825Y-97234193D01*
X147556206Y-97138955D01*
X147549599Y-97128460D01*
X147548336Y-97125410D01*
X147545517Y-97121975D01*
X147543152Y-97118218D01*
X147540660Y-97116056D01*
X147532791Y-97106468D01*
X147485172Y-97058850D01*
X147475586Y-97050983D01*
X147473423Y-97048489D01*
X147469661Y-97046120D01*
X147466230Y-97043305D01*
X147463183Y-97042043D01*
X147452685Y-97035434D01*
X147357448Y-96987816D01*
X147334562Y-96979058D01*
X147330080Y-96978739D01*
X147325932Y-96977021D01*
X147301546Y-96974619D01*
X146968213Y-96974619D01*
X146943827Y-96977021D01*
X146898767Y-96995685D01*
X146864279Y-97030173D01*
X146845615Y-97075233D01*
X146843213Y-97099619D01*
X146718213Y-97099619D01*
X146718213Y-96849619D01*
X147789641Y-96849619D01*
X147789641Y-98349619D01*
G37*
D13*
X144039641Y-98099619D02*
X143706308Y-97623428D01*
X143468213Y-98099619D02*
X143468213Y-97099619D01*
X143468213Y-97099619D02*
X143849165Y-97099619D01*
X143849165Y-97099619D02*
X143944403Y-97147238D01*
X143944403Y-97147238D02*
X143992022Y-97194857D01*
X143992022Y-97194857D02*
X144039641Y-97290095D01*
X144039641Y-97290095D02*
X144039641Y-97432952D01*
X144039641Y-97432952D02*
X143992022Y-97528190D01*
X143992022Y-97528190D02*
X143944403Y-97575809D01*
X143944403Y-97575809D02*
X143849165Y-97623428D01*
X143849165Y-97623428D02*
X143468213Y-97623428D01*
X144468213Y-97575809D02*
X144801546Y-97575809D01*
X144944403Y-98099619D02*
X144468213Y-98099619D01*
X144468213Y-98099619D02*
X144468213Y-97099619D01*
X144468213Y-97099619D02*
X144944403Y-97099619D01*
X145230118Y-97099619D02*
X145563451Y-98099619D01*
X145563451Y-98099619D02*
X145896784Y-97099619D01*
D12*
D13*
X129851359Y-98099619D02*
X129279931Y-98099619D01*
X129565645Y-98099619D02*
X129565645Y-97099619D01*
X129565645Y-97099619D02*
X129470407Y-97242476D01*
X129470407Y-97242476D02*
X129375169Y-97337714D01*
X129375169Y-97337714D02*
X129279931Y-97385333D01*
%TO.C,ID901*%
D14*
X128565645Y-96650000D02*
X130565645Y-96650000D01*
X130565645Y-98650000D01*
X128565645Y-98650000D01*
X128565645Y-96650000D01*
D15*
%TA.AperFunction,EtchedComponent*%
%TO.C,JP503*%
G36*
X158215645Y-64550000D02*
G01*
X157715645Y-64550000D01*
X157715645Y-63950000D01*
X158215645Y-63950000D01*
X158215645Y-64550000D01*
G37*
%TD.AperFunction*%
%TA.AperFunction,EtchedComponent*%
%TO.C,JP502*%
G36*
X158215645Y-68450000D02*
G01*
X157715645Y-68450000D01*
X157715645Y-67850000D01*
X158215645Y-67850000D01*
X158215645Y-68450000D01*
G37*
%TD.AperFunction*%
%TA.AperFunction,EtchedComponent*%
%TO.C,JP501*%
G36*
X158215645Y-89450000D02*
G01*
X157715645Y-89450000D01*
X157715645Y-88850000D01*
X158215645Y-88850000D01*
X158215645Y-89450000D01*
G37*
%TD.AperFunction*%
%TD*%
D16*
%TO.P,D501,1,K*%
%TO.N,/ARCHITECTURE/5. COMPARATOR/~{OC_DETECT}*%
X156615645Y-61150000D03*
%TO.P,D501,2,A*%
%TO.N,/ARCHITECTURE/5. COMPARATOR/LATCH_IN*%
X154515645Y-61150000D03*
%TD*%
D17*
%TO.P,R503,1*%
%TO.N,Net-(U501A--)*%
X156615646Y-85650000D03*
%TO.P,R503,2*%
%TO.N,/ARCHITECTURE/5. COMPARATOR/~{12V_FAULT}*%
X153515644Y-85650000D03*
%TD*%
D18*
%TO.P,C501,1*%
%TO.N,VCC_5V*%
X159665645Y-76550000D03*
%TO.P,C501,2*%
%TO.N,GND*%
X161390645Y-76550000D03*
%TD*%
D19*
%TO.P,Q602,1*%
%TO.N,Net-(D601-A)*%
X175279645Y-78508000D03*
D20*
%TO.P,Q602,2*%
%TO.N,/ARCHITECTURE/1. INTERCONNECTS/VOUT*%
X177565645Y-71650000D03*
D19*
%TO.P,Q602,3*%
%TO.N,/ARCHITECTURE/2. POLARITY PROTECTION/VPROT*%
X179851645Y-78508000D03*
%TD*%
D21*
%TO.P,R402,1*%
%TO.N,GND*%
X171815646Y-56049998D03*
%TO.P,R402,2*%
%TO.N,VREF_2V5*%
X171815646Y-59150000D03*
%TD*%
%TO.P,R506,1*%
%TO.N,/ARCHITECTURE/5. COMPARATOR/LATCH_IN*%
X155065645Y-63099999D03*
%TO.P,R506,2*%
%TO.N,VCC_5V*%
X155065645Y-66200001D03*
%TD*%
%TO.P,R305,1*%
%TO.N,GND*%
X149065645Y-69599999D03*
%TO.P,R305,2*%
%TO.N,/ARCHITECTURE/3. SENSING/VSENSE_17V*%
X149065645Y-72700001D03*
%TD*%
D22*
%TO.P,U501,1*%
%TO.N,/ARCHITECTURE/5. COMPARATOR/~{12V_FAULT}*%
X152590645Y-76745000D03*
%TO.P,U501,2,-*%
%TO.N,Net-(U501A--)*%
X152590645Y-78015000D03*
%TO.P,U501,3,+*%
%TO.N,VREF_2V5*%
X152590645Y-79285000D03*
%TO.P,U501,4,V-*%
%TO.N,GND*%
X152590645Y-80555000D03*
%TO.P,U501,5,+*%
%TO.N,Net-(U501B-+)*%
X157540645Y-80555000D03*
%TO.P,U501,6,-*%
%TO.N,VREF_2V5*%
X157540645Y-79285000D03*
%TO.P,U501,7*%
%TO.N,/ARCHITECTURE/5. COMPARATOR/~{17V_FAULT}*%
X157540645Y-78015000D03*
%TO.P,U501,8,V+*%
%TO.N,VCC_5V*%
X157540645Y-76745000D03*
%TD*%
D23*
%TO.P,TP101,1,1*%
%TO.N,GND*%
X132315645Y-86650000D03*
%TD*%
D24*
%TO.P,TP401,1,1*%
%TO.N,VREF_2V5*%
X175265647Y-59249999D03*
%TD*%
%TO.P,TP103,1,1*%
%TO.N,/ARCHITECTURE/1. INTERCONNECTS/VOUT*%
X182815645Y-80650000D03*
%TD*%
%TO.P,TP302,1,1*%
%TO.N,/ARCHITECTURE/3. SENSING/VSENSE_12V*%
X151315645Y-83650000D03*
%TD*%
%TO.P,TP303,1,1*%
%TO.N,/ARCHITECTURE/3. SENSING/VSENSE_17V*%
X151315645Y-73650000D03*
%TD*%
D25*
%TO.P,R601,1*%
%TO.N,Net-(Q601-B)*%
X166065645Y-83750002D03*
%TO.P,R601,2*%
%TO.N,/ARCHITECTURE/5. COMPARATOR/EN_OK*%
X166065645Y-80650000D03*
%TD*%
D24*
%TO.P,FID902,*%
%TO.N,*%
X126565645Y-97650000D03*
%TD*%
D17*
%TO.P,R511,1*%
%TO.N,GND*%
X145415647Y-69900000D03*
%TO.P,R511,2*%
%TO.N,/ARCHITECTURE/5. COMPARATOR/V_ISENSE*%
X142315645Y-69900000D03*
%TD*%
D24*
%TO.P,TP502,1,1*%
%TO.N,/ARCHITECTURE/5. COMPARATOR/~{OC_DETECT}*%
X145064645Y-55650000D03*
%TD*%
D21*
%TO.P,R508,1*%
%TO.N,/ARCHITECTURE/5. COMPARATOR/LATCH_IN*%
X152565645Y-61150000D03*
%TO.P,R508,2*%
%TO.N,/ARCHITECTURE/5. COMPARATOR/~{OC_FAULT}*%
X152565645Y-64250002D03*
%TD*%
D26*
%TO.P,J101,1*%
%TO.N,/ARCHITECTURE/1. INTERCONNECTS/VIN*%
X132265645Y-71650000D03*
D27*
%TO.P,J101,2*%
%TO.N,GND*%
X126065645Y-71650000D03*
D28*
%TO.P,J101,3*%
%TO.N,unconnected-(J101-Pad3)*%
X129065645Y-76350000D03*
%TD*%
D24*
%TO.P,TP402,1,1*%
%TO.N,VCC_5V*%
X169015645Y-67150000D03*
%TD*%
D29*
%TO.P,C506,1*%
%TO.N,/ARCHITECTURE/5. COMPARATOR/EN_OK*%
X166065645Y-75400000D03*
%TO.P,C506,2*%
%TO.N,GND*%
X166065645Y-73674998D03*
%TD*%
D30*
%TO.P,D201,1,K*%
%TO.N,/ARCHITECTURE/2. POLARITY PROTECTION/VPROT*%
X138815644Y-84650000D03*
%TO.P,D201,2,A*%
%TO.N,Net-(D201-A)*%
X136315646Y-84650000D03*
%TD*%
D18*
%TO.P,C502,1*%
%TO.N,VCC_5V*%
X152165645Y-58400000D03*
%TO.P,C502,2*%
%TO.N,GND*%
X153890647Y-58400000D03*
%TD*%
D31*
%TO.P,R604,1*%
%TO.N,/ARCHITECTURE/1. INTERCONNECTS/VOUT*%
X177565645Y-65400000D03*
%TO.P,R604,2*%
%TO.N,GND*%
X180665647Y-65400000D03*
%TD*%
D24*
%TO.P,TP501,1,1*%
%TO.N,/ARCHITECTURE/5. COMPARATOR/~{12V_FAULT}*%
X158565645Y-85650000D03*
%TD*%
D29*
%TO.P,C402,1*%
%TO.N,VCC_5V*%
X167315646Y-62262501D03*
%TO.P,C402,2*%
%TO.N,GND*%
X167315646Y-60537499D03*
%TD*%
D19*
%TO.P,Q201,1*%
%TO.N,Net-(D201-A)*%
X135279645Y-78508000D03*
D20*
%TO.P,Q201,2*%
%TO.N,/ARCHITECTURE/1. INTERCONNECTS/VIN*%
X137565645Y-71650000D03*
D19*
%TO.P,Q201,3*%
%TO.N,/ARCHITECTURE/2. POLARITY PROTECTION/VPROT*%
X139851645Y-78508000D03*
%TD*%
D32*
%TO.P,C504,1*%
%TO.N,/ARCHITECTURE/5. COMPARATOR/V_ISENSE*%
X140315645Y-63900000D03*
%TO.P,C504,2*%
%TO.N,GND*%
X138590643Y-63900000D03*
%TD*%
D33*
%TO.P,H901,1,1*%
%TO.N,GND*%
X121565645Y-55650000D03*
%TD*%
D31*
%TO.P,R603,1*%
%TO.N,Net-(D601-A)*%
X176015645Y-82150000D03*
%TO.P,R603,2*%
%TO.N,/ARCHITECTURE/2. POLARITY PROTECTION/VPROT*%
X179115645Y-82150000D03*
%TD*%
D25*
%TO.P,R302,1*%
%TO.N,/ARCHITECTURE/3. SENSING/VSENSE_12V*%
X149065645Y-82700001D03*
%TO.P,R302,2*%
%TO.N,/ARCHITECTURE/3. SENSING/ISENSE_N*%
X149065645Y-79599999D03*
%TD*%
D24*
%TO.P,TP506,1,1*%
%TO.N,/ARCHITECTURE/5. COMPARATOR/EN_OK*%
X164065645Y-78650000D03*
%TD*%
%TO.P,TP505,1,1*%
%TO.N,/ARCHITECTURE/5. COMPARATOR/V_ISENSE*%
X142315645Y-66150000D03*
%TD*%
D23*
%TO.P,TP104,1,1*%
%TO.N,GND*%
X182815645Y-86650000D03*
%TD*%
D26*
%TO.P,J104,1*%
%TO.N,/ARCHITECTURE/1. INTERCONNECTS/VOUT*%
X182865645Y-71650000D03*
D27*
%TO.P,J104,2*%
%TO.N,GND*%
X189065645Y-71650000D03*
D28*
%TO.P,J104,3*%
%TO.N,unconnected-(J104-Pad3)*%
X186065645Y-66950000D03*
%TD*%
D31*
%TO.P,R505,1*%
%TO.N,/ARCHITECTURE/3. SENSING/VSENSE_17V*%
X153515644Y-74150000D03*
%TO.P,R505,2*%
%TO.N,Net-(U501B-+)*%
X156615646Y-74150000D03*
%TD*%
D34*
%TO.P,J102,1,Pin_1*%
%TO.N,/ARCHITECTURE/1. INTERCONNECTS/VIN*%
X122565645Y-81650000D03*
D35*
%TO.P,J102,2,Pin_2*%
%TO.N,GND*%
X122565645Y-85460000D03*
%TD*%
D25*
%TO.P,R504,1*%
%TO.N,Net-(U502A-+)*%
X142315645Y-58950001D03*
%TO.P,R504,2*%
%TO.N,/ARCHITECTURE/5. COMPARATOR/~{OC_DETECT}*%
X142315645Y-55849999D03*
%TD*%
D33*
%TO.P,H902,1,1*%
%TO.N,GND*%
X121565645Y-97650000D03*
%TD*%
D32*
%TO.P,C401,1*%
%TO.N,VREF_2V5*%
X169678147Y-57400000D03*
%TO.P,C401,2*%
%TO.N,GND*%
X167953145Y-57400000D03*
%TD*%
D24*
%TO.P,TP102,1,1*%
%TO.N,/ARCHITECTURE/1. INTERCONNECTS/VIN*%
X132315645Y-80650000D03*
%TD*%
D36*
%TO.P,JP503,1,A*%
%TO.N,/ARCHITECTURE/5. COMPARATOR/EN_OK*%
X158615644Y-64250000D03*
%TO.P,JP503,2,B*%
%TO.N,/ARCHITECTURE/5. COMPARATOR/~{OC_FAULT}*%
X157315646Y-64250000D03*
%TD*%
D21*
%TO.P,R304,1*%
%TO.N,/ARCHITECTURE/3. SENSING/VSENSE_17V*%
X149065645Y-74599999D03*
%TO.P,R304,2*%
%TO.N,/ARCHITECTURE/3. SENSING/ISENSE_N*%
X149065645Y-77700001D03*
%TD*%
D24*
%TO.P,TP201,1,1*%
%TO.N,/ARCHITECTURE/2. POLARITY PROTECTION/VPROT*%
X141065645Y-82150000D03*
%TD*%
D17*
%TO.P,R301,1*%
%TO.N,/ARCHITECTURE/3. SENSING/ISENSE_N*%
X145615646Y-78650000D03*
%TO.P,R301,2*%
%TO.N,/ARCHITECTURE/2. POLARITY PROTECTION/VPROT*%
X142515644Y-78650000D03*
%TD*%
D24*
%TO.P,FID903,*%
%TO.N,*%
X188565645Y-55650000D03*
%TD*%
D30*
%TO.P,D601,1,K*%
%TO.N,/ARCHITECTURE/2. POLARITY PROTECTION/VPROT*%
X178815644Y-84650000D03*
%TO.P,D601,2,A*%
%TO.N,Net-(D601-A)*%
X176315646Y-84650000D03*
%TD*%
D31*
%TO.P,R202,1*%
%TO.N,Net-(D201-A)*%
X136015645Y-82150000D03*
%TO.P,R202,2*%
%TO.N,/ARCHITECTURE/2. POLARITY PROTECTION/VPROT*%
X139115645Y-82150000D03*
%TD*%
D37*
%TO.P,J103,1,Pin_1*%
%TO.N,GND*%
X192565645Y-85460000D03*
D35*
%TO.P,J103,2,Pin_2*%
%TO.N,/ARCHITECTURE/1. INTERCONNECTS/VOUT*%
X192565645Y-81650000D03*
%TD*%
D36*
%TO.P,JP502,1,A*%
%TO.N,/ARCHITECTURE/5. COMPARATOR/EN_OK*%
X158615644Y-68150000D03*
%TO.P,JP502,2,B*%
%TO.N,/ARCHITECTURE/5. COMPARATOR/~{17V_FAULT}*%
X157315646Y-68150000D03*
%TD*%
D33*
%TO.P,H903,1,1*%
%TO.N,GND*%
X193565645Y-55650000D03*
%TD*%
D17*
%TO.P,R507,1*%
%TO.N,Net-(U501B-+)*%
X156615646Y-71650000D03*
%TO.P,R507,2*%
%TO.N,/ARCHITECTURE/5. COMPARATOR/~{17V_FAULT}*%
X153515644Y-71650000D03*
%TD*%
D32*
%TO.P,C403,1*%
%TO.N,VCC_5V*%
X168540649Y-64150000D03*
%TO.P,C403,2*%
%TO.N,GND*%
X166815647Y-64150000D03*
%TD*%
D33*
%TO.P,H904,1,1*%
%TO.N,GND*%
X193565645Y-97650000D03*
%TD*%
D23*
%TO.P,TP301,1,1*%
%TO.N,GND*%
X159815645Y-82400000D03*
%TD*%
D38*
%TO.P,D502,1,K*%
%TO.N,/ARCHITECTURE/5. COMPARATOR/EN_OK*%
X166040646Y-78650000D03*
%TO.P,D502,2,A*%
%TO.N,Net-(D502-A)*%
X168090644Y-78650000D03*
%TD*%
D31*
%TO.P,R403,1*%
%TO.N,VCC_5V*%
X170465645Y-64962500D03*
%TO.P,R403,2*%
%TO.N,/ARCHITECTURE/2. POLARITY PROTECTION/VPROT*%
X173565647Y-64962500D03*
%TD*%
D17*
%TO.P,R501,1*%
%TO.N,Net-(U501A--)*%
X156615646Y-83150000D03*
%TO.P,R501,2*%
%TO.N,/ARCHITECTURE/3. SENSING/VSENSE_12V*%
X153515644Y-83150000D03*
%TD*%
D24*
%TO.P,TP503,1,1*%
%TO.N,/ARCHITECTURE/5. COMPARATOR/~{17V_FAULT}*%
X158565645Y-71650000D03*
%TD*%
D39*
%TO.P,Q601,1,B*%
%TO.N,Net-(Q601-B)*%
X175365645Y-88587500D03*
%TO.P,Q601,2,E*%
%TO.N,GND*%
X177265645Y-88587500D03*
%TO.P,Q601,3,C*%
%TO.N,Net-(D601-A)*%
X176315645Y-86712499D03*
%TD*%
D24*
%TO.P,FID901,*%
%TO.N,*%
X126565645Y-55650000D03*
%TD*%
D21*
%TO.P,R509,1*%
%TO.N,/ARCHITECTURE/5. COMPARATOR/EN_OK*%
X168565645Y-80650000D03*
%TO.P,R509,2*%
%TO.N,VCC_5V*%
X168565645Y-83750002D03*
%TD*%
D22*
%TO.P,U502,1*%
%TO.N,/ARCHITECTURE/5. COMPARATOR/~{OC_DETECT}*%
X145065645Y-58610000D03*
%TO.P,U502,2,-*%
%TO.N,VREF_2V5*%
X145065645Y-59880000D03*
%TO.P,U502,3,+*%
%TO.N,Net-(U502A-+)*%
X145065645Y-61150000D03*
%TO.P,U502,4,V-*%
%TO.N,GND*%
X145065645Y-62420000D03*
%TO.P,U502,5,+*%
%TO.N,VREF_2V5*%
X150015645Y-62420000D03*
%TO.P,U502,6,-*%
%TO.N,/ARCHITECTURE/5. COMPARATOR/LATCH_IN*%
X150015645Y-61150000D03*
%TO.P,U502,7*%
%TO.N,/ARCHITECTURE/5. COMPARATOR/~{OC_FAULT}*%
X150015645Y-59880000D03*
%TO.P,U502,8,V+*%
%TO.N,VCC_5V*%
X150015645Y-58610000D03*
%TD*%
D39*
%TO.P,U401,1,K*%
%TO.N,VCC_5V*%
X172565646Y-62650000D03*
%TO.P,U401,2,A*%
%TO.N,GND*%
X174465646Y-62650000D03*
%TO.P,U401,3,NC*%
%TO.N,unconnected-(U401-NC-Pad3)*%
X173515646Y-60774999D03*
%TD*%
D40*
%TO.P,U503,1*%
%TO.N,/ARCHITECTURE/5. COMPARATOR/V_ISENSE*%
X142928145Y-73200000D03*
%TO.P,U503,2,GND*%
%TO.N,GND*%
X142928145Y-74150000D03*
%TO.P,U503,3,+*%
%TO.N,/ARCHITECTURE/2. POLARITY PROTECTION/VPROT*%
X142928145Y-75100000D03*
%TO.P,U503,4,-*%
%TO.N,/ARCHITECTURE/3. SENSING/ISENSE_N*%
X145203145Y-75100000D03*
%TO.P,U503,5,V+*%
%TO.N,VCC_5V*%
X145203145Y-73200000D03*
%TD*%
D29*
%TO.P,C503,1*%
%TO.N,GND*%
X151315645Y-87375002D03*
%TO.P,C503,2*%
%TO.N,/ARCHITECTURE/3. SENSING/VSENSE_12V*%
X151315645Y-85650000D03*
%TD*%
D21*
%TO.P,R510,1*%
%TO.N,Net-(D502-A)*%
X171065645Y-78700001D03*
%TO.P,R510,2*%
%TO.N,VCC_5V*%
X171065645Y-81800003D03*
%TD*%
D31*
%TO.P,R201,1*%
%TO.N,GND*%
X135965643Y-87650000D03*
%TO.P,R201,2*%
%TO.N,Net-(D201-A)*%
X139065645Y-87650000D03*
%TD*%
D21*
%TO.P,R602,1*%
%TO.N,Net-(Q601-B)*%
X175315645Y-90650000D03*
%TO.P,R602,2*%
%TO.N,GND*%
X175315645Y-93750002D03*
%TD*%
D29*
%TO.P,C505,1*%
%TO.N,/ARCHITECTURE/3. SENSING/VSENSE_17V*%
X151315645Y-71762501D03*
%TO.P,C505,2*%
%TO.N,GND*%
X151315645Y-70037499D03*
%TD*%
D21*
%TO.P,R401,1*%
%TO.N,VREF_2V5*%
X169315645Y-59150000D03*
%TO.P,R401,2*%
%TO.N,VCC_5V*%
X169315645Y-62250002D03*
%TD*%
D25*
%TO.P,R502,1*%
%TO.N,/ARCHITECTURE/5. COMPARATOR/V_ISENSE*%
X142315645Y-63850002D03*
%TO.P,R502,2*%
%TO.N,Net-(U502A-+)*%
X142315645Y-60750000D03*
%TD*%
D23*
%TO.P,TP507,1,1*%
%TO.N,GND*%
X156565645Y-55650000D03*
%TD*%
D25*
%TO.P,R303,1*%
%TO.N,GND*%
X149065645Y-87700001D03*
%TO.P,R303,2*%
%TO.N,/ARCHITECTURE/3. SENSING/VSENSE_12V*%
X149065645Y-84599999D03*
%TD*%
D24*
%TO.P,TP504,1,1*%
%TO.N,/ARCHITECTURE/5. COMPARATOR/~{OC_FAULT}*%
X158565645Y-61150000D03*
%TD*%
D36*
%TO.P,JP501,1,A*%
%TO.N,/ARCHITECTURE/5. COMPARATOR/EN_OK*%
X158615644Y-89150000D03*
%TO.P,JP501,2,B*%
%TO.N,/ARCHITECTURE/5. COMPARATOR/~{12V_FAULT}*%
X157315646Y-89150000D03*
%TD*%
D41*
%TO.N,/ARCHITECTURE/2. POLARITY PROTECTION/VPROT*%
X144065645Y-78650000D03*
X178815645Y-78650000D03*
X178815645Y-79150000D03*
X144065645Y-79150000D03*
X144065645Y-78150000D03*
X178815645Y-78150000D03*
%TO.N,VREF_2V5*%
X146190647Y-76650000D03*
X154365645Y-80350000D03*
X155765645Y-80350000D03*
X150065645Y-76650000D03*
X145065645Y-76650000D03*
X151065645Y-77250000D03*
%TO.N,GND*%
X167065645Y-73650000D03*
X181065645Y-66900000D03*
X137565645Y-63900000D03*
X161390645Y-75450000D03*
X167965646Y-58350001D03*
X175565647Y-62650000D03*
X149065645Y-88900000D03*
X177265645Y-89950000D03*
X151065645Y-80550000D03*
X171815645Y-54900000D03*
X141565645Y-74150000D03*
X167315645Y-59400000D03*
X175315645Y-95150000D03*
X165765645Y-64150000D03*
X151315645Y-68900000D03*
X151315645Y-88400000D03*
X145065645Y-63650000D03*
X149065645Y-68400000D03*
X146565645Y-69900000D03*
X155065645Y-58400000D03*
%TO.N,VCC_5V*%
X147065645Y-73650000D03*
X169015645Y-68650000D03*
%TD*%
D42*
%TO.N,/ARCHITECTURE/2. POLARITY PROTECTION/VPROT*%
X142565645Y-75462499D02*
X142565645Y-78650000D01*
D43*
X179065645Y-75650000D02*
X174315645Y-75650000D01*
X179851645Y-76436000D02*
X179065645Y-75650000D01*
D42*
X142928145Y-75099999D02*
X142565645Y-75462499D01*
D43*
X179851645Y-78508000D02*
X179851645Y-76436000D01*
X174315645Y-75650000D02*
X173565647Y-74900002D01*
X173565647Y-74900002D02*
X173565647Y-64962500D01*
D44*
%TO.N,VREF_2V5*%
X153300645Y-79285000D02*
X154365645Y-80350000D01*
X143065645Y-57400000D02*
X141565645Y-57400000D01*
X145065645Y-59880000D02*
X146255645Y-59880000D01*
X143642521Y-59431875D02*
X143642521Y-57976876D01*
X166678147Y-54400000D02*
X169678147Y-57400000D01*
X144065645Y-67150000D02*
X144065645Y-75650000D01*
X155765645Y-80350000D02*
X156830645Y-79285000D01*
X146255645Y-59880000D02*
X148795645Y-62420000D01*
X148795645Y-62420000D02*
X149015645Y-62420000D01*
X150065645Y-76650000D02*
X146190647Y-76650000D01*
X148795645Y-62420000D02*
X144065645Y-67150000D01*
X140815645Y-56650000D02*
X140815645Y-55150000D01*
X140815645Y-55150000D02*
X141565645Y-54400000D01*
X149015645Y-62420000D02*
X150015645Y-62420000D01*
X141565645Y-54400000D02*
X166678147Y-54400000D01*
X144065645Y-75650000D02*
X145065645Y-76650000D01*
X152590645Y-79285000D02*
X153300645Y-79285000D01*
X151615646Y-79285000D02*
X152590645Y-79285000D01*
X143642521Y-57976876D02*
X143065645Y-57400000D01*
X141565645Y-57400000D02*
X140815645Y-56650000D01*
X151065645Y-77250000D02*
X151065645Y-78734999D01*
X145065645Y-59880000D02*
X144090646Y-59880000D01*
X156830645Y-79285000D02*
X157540645Y-79285000D01*
X151065645Y-78734999D02*
X151615646Y-79285000D01*
X144090646Y-59880000D02*
X143642521Y-59431875D01*
D43*
%TO.N,GND*%
X181065645Y-65799998D02*
X180665647Y-65400000D01*
X171815646Y-56049998D02*
X171815645Y-54900000D01*
X181065645Y-66900000D02*
X181065645Y-65799998D01*
X175565647Y-62650000D02*
X174465646Y-62650000D01*
X151315645Y-88400000D02*
X151315645Y-87375002D01*
X151065645Y-80550000D02*
X152585645Y-80550000D01*
X149065645Y-88900000D02*
X149065645Y-87700001D01*
X165765645Y-64150000D02*
X166815646Y-64150000D01*
X177265645Y-89950000D02*
X177265645Y-88587500D01*
X152595645Y-80550000D02*
X152590645Y-80555000D01*
X145065645Y-63650000D02*
X145065645Y-62420000D01*
X151315645Y-68900000D02*
X151315645Y-70037499D01*
X137565645Y-63900000D02*
X138590643Y-63900000D01*
X155065645Y-58400000D02*
X153890647Y-58400000D01*
X167965646Y-57412501D02*
X167953145Y-57400000D01*
X152585645Y-80550000D02*
X152590645Y-80555000D01*
X167065645Y-73650000D02*
X166090643Y-73650000D01*
X166090643Y-73650000D02*
X166065645Y-73674998D01*
X161390645Y-76550000D02*
X161390645Y-75450000D01*
X167965646Y-58350001D02*
X167965646Y-57412501D01*
D44*
X141565645Y-74150000D02*
X142928145Y-74150000D01*
D43*
X149065645Y-69599999D02*
X149065645Y-68400000D01*
X167315645Y-59400000D02*
X167315647Y-60537499D01*
X175315645Y-95150000D02*
X175315645Y-93750002D01*
X145415647Y-69900000D02*
X146565645Y-69900000D01*
%TO.N,VCC_5V*%
X147065645Y-73650000D02*
X146615645Y-73200000D01*
X151965645Y-58550000D02*
X151905645Y-58610000D01*
X148980645Y-58610000D02*
X148565645Y-59025000D01*
X147815645Y-75900000D02*
X153565645Y-75900000D01*
X150015645Y-58610000D02*
X148980645Y-58610000D01*
X167203147Y-62150000D02*
X167315646Y-62262501D01*
X152115646Y-66200001D02*
X155065645Y-66200001D01*
X170415642Y-81800003D02*
X168565645Y-83650000D01*
X148565645Y-59025000D02*
X148565645Y-61375000D01*
X148565645Y-61375000D02*
X148965645Y-61775000D01*
X151905645Y-58610000D02*
X150015645Y-58610000D01*
X153565645Y-75900000D02*
X156315645Y-78650000D01*
X155065645Y-67650000D02*
X155065645Y-66200001D01*
X147065645Y-73650000D02*
X147065645Y-75150000D01*
X156315645Y-78650000D02*
X159065645Y-78650000D01*
X171915642Y-81800003D02*
X172565645Y-81150000D01*
X171065645Y-81800003D02*
X170415642Y-81800003D01*
X151816751Y-70898894D02*
X155065645Y-67650000D01*
X147065645Y-75150000D02*
X147815645Y-75900000D01*
X152165645Y-58550000D02*
X151965645Y-58550000D01*
X146615645Y-73200000D02*
X145203146Y-73200000D01*
X151340645Y-65425000D02*
X152115646Y-66200001D01*
X148965645Y-61775000D02*
X151090645Y-61775000D01*
X151090645Y-61775000D02*
X151340645Y-62025000D01*
X145203145Y-73200001D02*
X147504252Y-70898894D01*
X172565645Y-81150000D02*
X172565645Y-72200000D01*
X171065645Y-81800003D02*
X171915642Y-81800003D01*
X172565645Y-72200000D02*
X169015645Y-68650000D01*
X147504252Y-70898894D02*
X151816751Y-70898894D01*
X151340645Y-62025000D02*
X151340645Y-65425000D01*
X168565645Y-83650000D02*
X168565645Y-83750002D01*
X145203146Y-73200000D02*
X145203145Y-73200001D01*
X159665645Y-78050000D02*
X159665645Y-76550000D01*
X159065645Y-78650000D02*
X159665645Y-78050000D01*
X157540645Y-76745000D02*
X159470645Y-76745000D01*
X159470645Y-76745000D02*
X159665645Y-76550000D01*
X169015645Y-68650000D02*
X169015645Y-67150000D01*
%TO.N,Net-(Q601-B)*%
X170903143Y-88587500D02*
X175365645Y-88587500D01*
X166065645Y-83750002D02*
X170903143Y-88587500D01*
X175315645Y-90650000D02*
X175315645Y-88637500D01*
X175315645Y-88637500D02*
X175365645Y-88587500D01*
%TO.N,/ARCHITECTURE/3. SENSING/VSENSE_12V*%
X151315645Y-83650000D02*
X153015644Y-83650000D01*
X151315645Y-85650000D02*
X151315645Y-83650000D01*
X153015644Y-83650000D02*
X153515644Y-83150000D01*
%TO.N,/ARCHITECTURE/3. SENSING/VSENSE_17V*%
X151315645Y-73650000D02*
X153015644Y-73650000D01*
X151315645Y-71762501D02*
X151315645Y-73650000D01*
X153015644Y-73650000D02*
X153515644Y-74150000D01*
%TO.N,Net-(U502A-+)*%
X145065645Y-61150000D02*
X142715645Y-61150000D01*
X142315645Y-60750000D02*
X142315645Y-58950001D01*
D42*
%TO.N,/ARCHITECTURE/3. SENSING/ISENSE_N*%
X145665647Y-75562501D02*
X145665647Y-78650000D01*
X145203145Y-75099999D02*
X145665647Y-75562501D01*
D43*
%TO.N,/ARCHITECTURE/5. COMPARATOR/V_ISENSE*%
X142928145Y-73200001D02*
X142315645Y-72587501D01*
X142315645Y-72587501D02*
X142315645Y-69900000D01*
%TO.N,/ARCHITECTURE/5. COMPARATOR/~{12V_FAULT}*%
X151015645Y-81400000D02*
X150565645Y-80950000D01*
X150770645Y-76745000D02*
X152590645Y-76745000D01*
X153515644Y-85650000D02*
X153515644Y-87599999D01*
X150565645Y-76950000D02*
X150770645Y-76745000D01*
X157315646Y-89650000D02*
X157315646Y-87899999D01*
X154565645Y-84599999D02*
X154565645Y-82150000D01*
X155565645Y-89650000D02*
X157315646Y-89650000D01*
X153815645Y-81400000D02*
X151015645Y-81400000D01*
X153515644Y-85650000D02*
X154565645Y-84599999D01*
X150565645Y-80950000D02*
X150565645Y-76950000D01*
X158565645Y-86650000D02*
X158565645Y-85650000D01*
X157315646Y-87899999D02*
X158565645Y-86650000D01*
X153515644Y-87599999D02*
X155565645Y-89650000D01*
X154565645Y-82150000D02*
X153815645Y-81400000D01*
%TO.N,/ARCHITECTURE/5. COMPARATOR/LATCH_IN*%
X150015645Y-61150000D02*
X152065645Y-61150000D01*
X155015645Y-61150000D02*
X155015645Y-63049999D01*
X155015645Y-63049999D02*
X155065645Y-63099999D01*
X152565645Y-61150000D02*
X155015645Y-61150000D01*
%TO.N,/ARCHITECTURE/5. COMPARATOR/~{OC_DETECT}*%
X156565645Y-61100000D02*
X156565645Y-58650000D01*
X142315645Y-55849999D02*
X145065645Y-55849999D01*
X145025645Y-58650000D02*
X145065645Y-58610000D01*
X156565645Y-58650000D02*
X153565645Y-55650000D01*
X145065645Y-55650000D02*
X145065645Y-58610000D01*
X153565645Y-55650000D02*
X145065645Y-55650000D01*
X145065645Y-55849999D02*
X145065645Y-58610000D01*
X156615645Y-61150000D02*
X156565645Y-61100000D01*
%TO.N,Net-(D502-A)*%
X171015644Y-78650000D02*
X171065645Y-78700001D01*
X168090644Y-78650000D02*
X171015644Y-78650000D01*
%TO.N,Net-(U501A--)*%
X156615646Y-82300001D02*
X155065645Y-80750000D01*
X156615646Y-85650000D02*
X156741645Y-85775999D01*
X155065645Y-79515001D02*
X153565644Y-78015000D01*
X156615646Y-83150000D02*
X156615646Y-85650000D01*
X153565644Y-78015000D02*
X152590645Y-78015000D01*
X156615646Y-83150000D02*
X156615646Y-82300001D01*
X155065645Y-80750000D02*
X155065645Y-79515001D01*
%TO.N,Net-(U501B-+)*%
X162315645Y-79650000D02*
X162315645Y-75150000D01*
X157540645Y-80555000D02*
X161410645Y-80555000D01*
X161410645Y-80555000D02*
X162315645Y-79650000D01*
X156615646Y-71650000D02*
X156615646Y-74150000D01*
X161315645Y-74150000D02*
X156615646Y-74150000D01*
X162315645Y-75150000D02*
X161315645Y-74150000D01*
%TO.N,/ARCHITECTURE/5. COMPARATOR/EN_OK*%
X163065645Y-71650000D02*
X163065645Y-77650000D01*
X158615644Y-64250000D02*
X158615644Y-65949999D01*
X163065645Y-79650000D02*
X163065645Y-84699999D01*
X164065645Y-71400000D02*
X164065645Y-78650000D01*
X158615644Y-68150000D02*
X159565645Y-68150000D01*
X158615644Y-65949999D02*
X164065645Y-71400000D01*
X163065645Y-77650000D02*
X164065645Y-78650000D01*
X158665643Y-64200001D02*
X158615644Y-64250000D01*
X159565645Y-68150000D02*
X163065645Y-71650000D01*
X163065645Y-84699999D02*
X158615644Y-89150000D01*
X164065645Y-78650000D02*
X163065645Y-79650000D01*
%TO.N,/ARCHITECTURE/5. COMPARATOR/~{17V_FAULT}*%
X155065645Y-76514999D02*
X156565646Y-78015000D01*
X158565645Y-70650000D02*
X158565645Y-71650000D01*
X157315646Y-69400001D02*
X158565645Y-70650000D01*
X156065645Y-68150000D02*
X157315646Y-68150000D01*
X156565646Y-78015000D02*
X157540645Y-78015000D01*
X153515644Y-71650000D02*
X155065645Y-73200001D01*
X157315646Y-68150000D02*
X157315646Y-69400001D01*
X155065645Y-73200001D02*
X155065645Y-76514999D01*
X153515644Y-71650000D02*
X153515644Y-70700001D01*
X153515644Y-70700001D02*
X156065645Y-68150000D01*
%TO.N,/ARCHITECTURE/5. COMPARATOR/~{OC_FAULT}*%
X157315644Y-64250002D02*
X157315646Y-64250000D01*
X158065645Y-62150002D02*
X158065645Y-62150000D01*
X150015645Y-59880000D02*
X154295645Y-59880000D01*
X157315646Y-62900001D02*
X157315646Y-64250000D01*
X154295645Y-59880000D02*
X157315646Y-62900001D01*
X157315646Y-62900001D02*
X158065645Y-62150002D01*
X152465643Y-64150000D02*
X152565645Y-64250002D01*
X158565645Y-61650000D02*
X158065645Y-62150000D01*
X152565645Y-64250002D02*
X157315644Y-64250002D01*
X158565645Y-61150000D02*
X158565645Y-61650000D01*
%TD*%
%TA.AperFunction,Conductor*%
%TO.N,/ARCHITECTURE/5. COMPARATOR/~{OC_DETECT}*%
G36*
X144793364Y-55244066D02*
G01*
X144794056Y-55244996D01*
X145062931Y-55645953D01*
X145064693Y-55654732D01*
X145064685Y-55654774D01*
X144969513Y-56128382D01*
X144964523Y-56135818D01*
X144955737Y-56137548D01*
X144955212Y-56137429D01*
X144755325Y-56087594D01*
X144754309Y-56087292D01*
X144606299Y-56035780D01*
X144606121Y-56035716D01*
X144543423Y-56012750D01*
X144543416Y-56012748D01*
X144374496Y-55967996D01*
X144261580Y-55954749D01*
X144261568Y-55954748D01*
X144128007Y-55950370D01*
X144119850Y-55946674D01*
X144116690Y-55938676D01*
X144116690Y-55761100D01*
X144120117Y-55752827D01*
X144127774Y-55749416D01*
X144202585Y-55745485D01*
X144273452Y-55732479D01*
X144331706Y-55711783D01*
X144379763Y-55684202D01*
X144454954Y-55611597D01*
X144518356Y-55521089D01*
X144553757Y-55468117D01*
X144554383Y-55467267D01*
X144654477Y-55343787D01*
X144656119Y-55342132D01*
X144776895Y-55242486D01*
X144785455Y-55239865D01*
X144793364Y-55244066D01*
G37*
%TD.AperFunction*%
%TD*%
%TA.AperFunction,Conductor*%
%TO.N,/ARCHITECTURE/2. POLARITY PROTECTION/VPROT*%
G36*
X179415645Y-79500000D02*
G01*
X178775243Y-79500000D01*
X178772822Y-79499289D01*
X178770377Y-79499904D01*
X178739482Y-79489499D01*
X178708204Y-79480315D01*
X178705814Y-79478160D01*
X178704161Y-79477604D01*
X178678415Y-79453462D01*
X178542817Y-79283965D01*
X178516309Y-79219319D01*
X178515645Y-79206503D01*
X178515645Y-78093497D01*
X178535330Y-78026458D01*
X178542817Y-78016035D01*
X178678415Y-77846538D01*
X178735666Y-77806486D01*
X178775243Y-77800000D01*
X179415645Y-77800000D01*
X179415645Y-79500000D01*
G37*
%TD.AperFunction*%
%TD*%
%TA.AperFunction,Conductor*%
%TO.N,VREF_2V5*%
G36*
X145995946Y-59628068D02*
G01*
X146000918Y-59633656D01*
X146013218Y-59662604D01*
X146045622Y-59695296D01*
X146144713Y-59746002D01*
X146266124Y-59780983D01*
X146381784Y-59804854D01*
X146418040Y-59812083D01*
X146425481Y-59817060D01*
X146427224Y-59825844D01*
X146424023Y-59831829D01*
X146196225Y-60059627D01*
X146187952Y-60063054D01*
X146186113Y-60062909D01*
X146126119Y-60053362D01*
X146126118Y-60053362D01*
X146056801Y-60059627D01*
X146049299Y-60060305D01*
X145990185Y-60095391D01*
X145966534Y-60126417D01*
X145966534Y-60126418D01*
X145952312Y-60158854D01*
X145945852Y-60165055D01*
X145937955Y-60165275D01*
X145101949Y-59891417D01*
X145095153Y-59885585D01*
X145094472Y-59876656D01*
X145100304Y-59869860D01*
X145102503Y-59869013D01*
X145987064Y-59626946D01*
X145995946Y-59628068D01*
G37*
%TD.AperFunction*%
%TD*%
%TA.AperFunction,Conductor*%
%TO.N,VCC_5V*%
G36*
X170203603Y-81522284D02*
G01*
X171060083Y-81797283D01*
X171066911Y-81803074D01*
X171067884Y-81805700D01*
X171217002Y-82428977D01*
X171215594Y-82437820D01*
X171208345Y-82443078D01*
X171201679Y-82442714D01*
X171084424Y-82400726D01*
X171084419Y-82400725D01*
X170952596Y-82365945D01*
X170952589Y-82365943D01*
X170952583Y-82365942D01*
X170818910Y-82341544D01*
X170818907Y-82341543D01*
X170818899Y-82341542D01*
X170681634Y-82326990D01*
X170613864Y-82324863D01*
X170546097Y-82322737D01*
X170546096Y-82322737D01*
X170546095Y-82322737D01*
X170546078Y-82322737D01*
X170292258Y-82343111D01*
X170078889Y-82395163D01*
X169915713Y-82468731D01*
X169809867Y-82549152D01*
X169801207Y-82551429D01*
X169794516Y-82548109D01*
X169668163Y-82421756D01*
X169664736Y-82413483D01*
X169667738Y-82405658D01*
X169742354Y-82322737D01*
X169789683Y-82270140D01*
X169789691Y-82270130D01*
X169789695Y-82270126D01*
X169977639Y-82017737D01*
X170105883Y-81798763D01*
X170172003Y-81634168D01*
X170188485Y-81531569D01*
X170193180Y-81523946D01*
X170201892Y-81521875D01*
X170203603Y-81522284D01*
G37*
%TD.AperFunction*%
%TD*%
%TA.AperFunction,Conductor*%
%TO.N,Net-(U502A-+)*%
G36*
X144192079Y-60864304D02*
G01*
X144766634Y-61051995D01*
X145032598Y-61138878D01*
X145039398Y-61144705D01*
X145040087Y-61153633D01*
X145034260Y-61160433D01*
X145032598Y-61161122D01*
X144193593Y-61435200D01*
X144184665Y-61434511D01*
X144179127Y-61428499D01*
X144173763Y-61415354D01*
X144144434Y-61373174D01*
X144104298Y-61338157D01*
X144104292Y-61338153D01*
X144034338Y-61299707D01*
X143956753Y-61273253D01*
X143866198Y-61255408D01*
X143866188Y-61255407D01*
X143866187Y-61255407D01*
X143854856Y-61254595D01*
X143801510Y-61250777D01*
X143793502Y-61246768D01*
X143790645Y-61239107D01*
X143790645Y-61060268D01*
X143794072Y-61051995D01*
X143800824Y-61048668D01*
X143944624Y-61029855D01*
X144064598Y-60985967D01*
X144142433Y-60928983D01*
X144178435Y-60869376D01*
X144185644Y-60864068D01*
X144192079Y-60864304D01*
G37*
%TD.AperFunction*%
%TD*%
%TA.AperFunction,Conductor*%
%TO.N,GND*%
G36*
X145073903Y-62427285D02*
G01*
X145348899Y-62703198D01*
X145352312Y-62711476D01*
X145348871Y-62719744D01*
X145342122Y-62723059D01*
X145326837Y-62725048D01*
X145326834Y-62725048D01*
X145326832Y-62725049D01*
X145326830Y-62725050D01*
X145286121Y-62743262D01*
X145252114Y-62772153D01*
X145214243Y-62826689D01*
X145214241Y-62826693D01*
X145188080Y-62889411D01*
X145188079Y-62889416D01*
X145170949Y-62960663D01*
X145167672Y-62997331D01*
X145166598Y-63009342D01*
X145162448Y-63017277D01*
X145154944Y-63020000D01*
X144976889Y-63020000D01*
X144968616Y-63016573D01*
X144965198Y-63008766D01*
X144965178Y-63008283D01*
X144964743Y-62997333D01*
X144940022Y-62879911D01*
X144940021Y-62879909D01*
X144940021Y-62879908D01*
X144894272Y-62790384D01*
X144894271Y-62790383D01*
X144894270Y-62790381D01*
X144836603Y-62738134D01*
X144822489Y-62734527D01*
X144785506Y-62725075D01*
X144778339Y-62719706D01*
X144777067Y-62710842D01*
X144780114Y-62705481D01*
X145057359Y-62427313D01*
X145065626Y-62423873D01*
X145073903Y-62427285D01*
G37*
%TD.AperFunction*%
%TD*%
%TA.AperFunction,Conductor*%
%TO.N,GND*%
G36*
X154286068Y-57955764D02*
G01*
X154289109Y-57959819D01*
X154308932Y-58003627D01*
X154350518Y-58060573D01*
X154403186Y-58111825D01*
X154479156Y-58166637D01*
X154563433Y-58212417D01*
X154660974Y-58252269D01*
X154756854Y-58280336D01*
X154893008Y-58298637D01*
X154900748Y-58303135D01*
X154903147Y-58310232D01*
X154903147Y-58489086D01*
X154899720Y-58497359D01*
X154892447Y-58500743D01*
X154823052Y-58506697D01*
X154823042Y-58506699D01*
X154732601Y-58525762D01*
X154732580Y-58525768D01*
X154558211Y-58590077D01*
X154421784Y-58673146D01*
X154331104Y-58763262D01*
X154289571Y-58841735D01*
X154282672Y-58847444D01*
X154273757Y-58846603D01*
X154270349Y-58843879D01*
X153997514Y-58525768D01*
X153896178Y-58407615D01*
X153893394Y-58399106D01*
X153896178Y-58392384D01*
X154269570Y-57957027D01*
X154277557Y-57952979D01*
X154286068Y-57955764D01*
G37*
%TD.AperFunction*%
%TD*%
%TA.AperFunction,Conductor*%
%TO.N,GND*%
G36*
X146059410Y-69267869D02*
G01*
X146062820Y-69275173D01*
X146067257Y-69327224D01*
X146085384Y-69401762D01*
X146085385Y-69401765D01*
X146113517Y-69471296D01*
X146154813Y-69542392D01*
X146154818Y-69542401D01*
X146195740Y-69594859D01*
X146204533Y-69606131D01*
X146264901Y-69665702D01*
X146329890Y-69715315D01*
X146460028Y-69780638D01*
X146556057Y-69798242D01*
X146563574Y-69803103D01*
X146565645Y-69809749D01*
X146565645Y-69989901D01*
X146562218Y-69998174D01*
X146555655Y-70001475D01*
X146483627Y-70012116D01*
X146417832Y-70035902D01*
X146417829Y-70035903D01*
X146350540Y-70071457D01*
X146228570Y-70168274D01*
X146136604Y-70286133D01*
X146136602Y-70286136D01*
X146080345Y-70414703D01*
X146080344Y-70414708D01*
X146064043Y-70526826D01*
X146059462Y-70534520D01*
X146050782Y-70536721D01*
X146044167Y-70533391D01*
X145549718Y-70035902D01*
X145422843Y-69908246D01*
X145419442Y-69899964D01*
X145422843Y-69891753D01*
X146042864Y-69267918D01*
X146051126Y-69264467D01*
X146059410Y-69267869D01*
G37*
%TD.AperFunction*%
%TD*%
%TA.AperFunction,Conductor*%
%TO.N,Net-(U501B-+)*%
G36*
X156623347Y-71657967D02*
G01*
X156624454Y-71659074D01*
X157235217Y-72357633D01*
X157238083Y-72366117D01*
X157234110Y-72374142D01*
X157230267Y-72376380D01*
X157175479Y-72395515D01*
X157175477Y-72395516D01*
X157107798Y-72433434D01*
X157107785Y-72433444D01*
X157044364Y-72482489D01*
X157044362Y-72482491D01*
X156975664Y-72551923D01*
X156975660Y-72551927D01*
X156913838Y-72631209D01*
X156913836Y-72631212D01*
X156853182Y-72728409D01*
X156802616Y-72830065D01*
X156735018Y-73028653D01*
X156716992Y-73164835D01*
X156712509Y-73172587D01*
X156705393Y-73175000D01*
X156525840Y-73175000D01*
X156517567Y-73171573D01*
X156514250Y-73164903D01*
X156494229Y-73020141D01*
X156494229Y-73020139D01*
X156424330Y-72820342D01*
X156373053Y-72728414D01*
X156324632Y-72641604D01*
X156324626Y-72641595D01*
X156212972Y-72506704D01*
X156212965Y-72506698D01*
X156098783Y-72417923D01*
X156098784Y-72417923D01*
X155999738Y-72376908D01*
X155993405Y-72370576D01*
X155993404Y-72361622D01*
X155995402Y-72358402D01*
X156606838Y-71659073D01*
X156614863Y-71655101D01*
X156623347Y-71657967D01*
G37*
%TD.AperFunction*%
%TD*%
%TA.AperFunction,Conductor*%
%TO.N,/ARCHITECTURE/1. INTERCONNECTS/VOUT*%
G36*
X181865645Y-69400000D02*
G01*
X183741645Y-69400000D01*
X183808684Y-69419685D01*
X183854439Y-69472489D01*
X183865645Y-69524000D01*
X183865645Y-78475000D01*
X186040645Y-80650000D01*
X192441645Y-80650000D01*
X192508684Y-80669685D01*
X192554439Y-80722489D01*
X192565645Y-80774000D01*
X192565645Y-82526000D01*
X192545960Y-82593039D01*
X192493156Y-82638794D01*
X192441645Y-82650000D01*
X183915245Y-82650000D01*
X183848206Y-82630315D01*
X183829728Y-82615793D01*
X181804128Y-80686650D01*
X181769158Y-80626162D01*
X181765645Y-80596857D01*
X181765645Y-76187500D01*
X180278145Y-74700000D01*
X174939645Y-74700000D01*
X174872606Y-74680315D01*
X174826851Y-74627511D01*
X174815645Y-74576000D01*
X174815645Y-68625516D01*
X180315645Y-68625516D01*
X180315645Y-68600000D01*
X181865645Y-69400000D01*
G37*
%TD.AperFunction*%
%TD*%
%TA.AperFunction,Conductor*%
%TO.N,/ARCHITECTURE/3. SENSING/ISENSE_N*%
G36*
X149206322Y-77069685D02*
G01*
X149226964Y-77086319D01*
X149879326Y-77738681D01*
X149912811Y-77800004D01*
X149915645Y-77826362D01*
X149915645Y-79579888D01*
X149895960Y-79646927D01*
X149879326Y-79667569D01*
X149333214Y-80213681D01*
X149271891Y-80247166D01*
X149245533Y-80250000D01*
X147067007Y-80250000D01*
X146999968Y-80230315D01*
X146979326Y-80213681D01*
X146265645Y-79500000D01*
X145342007Y-79500000D01*
X145274968Y-79480315D01*
X145254326Y-79463681D01*
X145001964Y-79211319D01*
X144968479Y-79149996D01*
X144965645Y-79123638D01*
X144965645Y-78176362D01*
X144985330Y-78109323D01*
X145001964Y-78088681D01*
X145254326Y-77836319D01*
X145315649Y-77802834D01*
X145342007Y-77800000D01*
X146265645Y-77800000D01*
X146979326Y-77086319D01*
X147040649Y-77052834D01*
X147067007Y-77050000D01*
X149139283Y-77050000D01*
X149206322Y-77069685D01*
G37*
%TD.AperFunction*%
%TD*%
%TA.AperFunction,Conductor*%
%TO.N,Net-(D502-A)*%
G36*
X168626652Y-78092525D02*
G01*
X168630262Y-78099539D01*
X168632467Y-78116212D01*
X168650978Y-78177969D01*
X168650979Y-78177971D01*
X168680264Y-78235846D01*
X168726723Y-78299038D01*
X168783478Y-78356062D01*
X168783486Y-78356068D01*
X168859165Y-78414239D01*
X168859168Y-78414241D01*
X168859171Y-78414243D01*
X168941172Y-78462894D01*
X169028127Y-78502497D01*
X169112833Y-78530587D01*
X169230702Y-78548490D01*
X169238366Y-78553119D01*
X169240644Y-78560056D01*
X169240644Y-78739718D01*
X169237217Y-78747991D01*
X169230448Y-78751321D01*
X169136299Y-78763523D01*
X169136295Y-78763524D01*
X168969177Y-78823120D01*
X168969169Y-78823124D01*
X168822785Y-78911778D01*
X168717103Y-79012409D01*
X168717101Y-79012411D01*
X168652993Y-79117139D01*
X168652991Y-79117144D01*
X168632104Y-79203875D01*
X168626835Y-79211116D01*
X168617990Y-79212511D01*
X168612181Y-79209125D01*
X168183100Y-78750000D01*
X168097109Y-78657988D01*
X168093965Y-78649604D01*
X168097110Y-78642011D01*
X168184512Y-78548489D01*
X168610117Y-78093082D01*
X168618267Y-78089380D01*
X168626652Y-78092525D01*
G37*
%TD.AperFunction*%
%TD*%
%TA.AperFunction,Conductor*%
%TO.N,/ARCHITECTURE/3. SENSING/VSENSE_12V*%
G36*
X151602890Y-83241163D02*
G01*
X151603260Y-83241421D01*
X151786597Y-83374880D01*
X151939746Y-83481570D01*
X151939746Y-83481571D01*
X151939747Y-83481571D01*
X151939748Y-83481572D01*
X152000121Y-83509248D01*
X152069302Y-83529685D01*
X152172651Y-83544961D01*
X152294781Y-83549574D01*
X152302918Y-83553311D01*
X152306038Y-83561266D01*
X152306038Y-83738958D01*
X152302611Y-83747231D01*
X152295015Y-83750638D01*
X152123309Y-83760586D01*
X151994708Y-83792826D01*
X151994706Y-83792826D01*
X151994706Y-83792827D01*
X151891914Y-83847433D01*
X151891912Y-83847434D01*
X151891909Y-83847436D01*
X151786600Y-83925117D01*
X151786541Y-83925160D01*
X151603260Y-84058578D01*
X151594554Y-84060677D01*
X151586915Y-84056005D01*
X151586657Y-84055635D01*
X151319015Y-83656515D01*
X151317253Y-83647735D01*
X151319015Y-83643483D01*
X151586658Y-83244363D01*
X151594110Y-83239401D01*
X151602890Y-83241163D01*
G37*
%TD.AperFunction*%
%TD*%
%TA.AperFunction,Conductor*%
%TO.N,GND*%
G36*
X151323260Y-87380533D02*
G01*
X151602591Y-87620107D01*
X151758616Y-87753925D01*
X151762665Y-87761912D01*
X151759880Y-87770423D01*
X151755822Y-87773465D01*
X151712022Y-87793284D01*
X151712016Y-87793288D01*
X151655069Y-87834876D01*
X151603825Y-87887535D01*
X151603816Y-87887545D01*
X151549009Y-87963510D01*
X151549006Y-87963515D01*
X151503230Y-88047785D01*
X151463376Y-88145328D01*
X151435308Y-88241210D01*
X151417008Y-88377361D01*
X151412509Y-88385104D01*
X151405412Y-88387502D01*
X151226559Y-88387502D01*
X151218286Y-88384075D01*
X151214902Y-88376802D01*
X151208946Y-88307406D01*
X151208944Y-88307396D01*
X151189882Y-88216955D01*
X151189881Y-88216951D01*
X151189879Y-88216942D01*
X151125568Y-88042568D01*
X151042498Y-87906139D01*
X151024010Y-87887535D01*
X150952384Y-87815460D01*
X150873909Y-87773926D01*
X150868200Y-87767027D01*
X150869041Y-87758112D01*
X150871765Y-87754704D01*
X150872673Y-87753925D01*
X151308029Y-87380533D01*
X151316539Y-87377749D01*
X151323260Y-87380533D01*
G37*
%TD.AperFunction*%
%TD*%
%TA.AperFunction,Conductor*%
%TO.N,Net-(Q601-B)*%
G36*
X175412478Y-89353427D02*
G01*
X175415902Y-89361436D01*
X175415968Y-89364388D01*
X175425671Y-89438103D01*
X175448291Y-89520645D01*
X175525225Y-89689033D01*
X175626406Y-89829146D01*
X175626405Y-89829146D01*
X175678482Y-89875637D01*
X175736814Y-89927715D01*
X175850022Y-89985330D01*
X175850024Y-89985331D01*
X175943231Y-90001164D01*
X175950814Y-90005928D01*
X175952807Y-90014658D01*
X175949520Y-90020997D01*
X175323893Y-90642802D01*
X175315609Y-90646204D01*
X175307397Y-90642802D01*
X175074656Y-90411483D01*
X174682283Y-90021508D01*
X174678832Y-90013248D01*
X174682234Y-90004964D01*
X174688865Y-90001631D01*
X174763058Y-89990957D01*
X174829280Y-89965771D01*
X174891374Y-89929840D01*
X174958446Y-89876327D01*
X175018907Y-89813056D01*
X175078779Y-89732976D01*
X175128774Y-89647740D01*
X175196283Y-89477030D01*
X175214130Y-89359936D01*
X175218764Y-89352275D01*
X175225696Y-89350000D01*
X175404205Y-89350000D01*
X175412478Y-89353427D01*
G37*
%TD.AperFunction*%
%TD*%
%TA.AperFunction,Conductor*%
%TO.N,/ARCHITECTURE/5. COMPARATOR/~{OC_DETECT}*%
G36*
X145351890Y-55241163D02*
G01*
X145352260Y-55241421D01*
X145535597Y-55374880D01*
X145688746Y-55481570D01*
X145688746Y-55481571D01*
X145688747Y-55481571D01*
X145688748Y-55481572D01*
X145749121Y-55509248D01*
X145818302Y-55529685D01*
X145921651Y-55544961D01*
X146043781Y-55549574D01*
X146051918Y-55553311D01*
X146055038Y-55561266D01*
X146055038Y-55738958D01*
X146051611Y-55747231D01*
X146044015Y-55750638D01*
X145872309Y-55760586D01*
X145743708Y-55792826D01*
X145743706Y-55792826D01*
X145743706Y-55792827D01*
X145640914Y-55847433D01*
X145640912Y-55847434D01*
X145640909Y-55847436D01*
X145535600Y-55925117D01*
X145535541Y-55925160D01*
X145352260Y-56058578D01*
X145343554Y-56060677D01*
X145335915Y-56056005D01*
X145335657Y-56055635D01*
X145068013Y-55656514D01*
X145066252Y-55647737D01*
X145068013Y-55643486D01*
X145335658Y-55244363D01*
X145343110Y-55239401D01*
X145351890Y-55241163D01*
G37*
%TD.AperFunction*%
%TD*%
%TA.AperFunction,Conductor*%
%TO.N,VREF_2V5*%
G36*
X149846073Y-62364279D02*
G01*
X149982598Y-62408878D01*
X149989398Y-62414705D01*
X149990087Y-62423633D01*
X149984260Y-62430433D01*
X149982598Y-62431122D01*
X149142888Y-62705430D01*
X149133960Y-62704741D01*
X149128759Y-62699477D01*
X149113078Y-62667631D01*
X149113077Y-62667630D01*
X149084009Y-62637413D01*
X149084008Y-62637412D01*
X149037153Y-62616326D01*
X149007326Y-62602902D01*
X149007321Y-62602900D01*
X148919553Y-62592544D01*
X148919550Y-62592544D01*
X148858338Y-62593501D01*
X148836985Y-62593835D01*
X148807674Y-62594661D01*
X148799308Y-62591469D01*
X148795650Y-62583295D01*
X148795645Y-62582966D01*
X148795645Y-62257033D01*
X148799072Y-62248760D01*
X148807345Y-62245333D01*
X148807615Y-62245337D01*
X148837050Y-62246166D01*
X148929627Y-62247097D01*
X148929633Y-62247096D01*
X148929634Y-62247096D01*
X148974150Y-62239894D01*
X149028577Y-62231091D01*
X149094178Y-62193968D01*
X149116965Y-62166563D01*
X149128874Y-62140848D01*
X149135459Y-62134783D01*
X149143120Y-62134645D01*
X149846073Y-62364279D01*
G37*
%TD.AperFunction*%
%TD*%
%TA.AperFunction,Conductor*%
%TO.N,/ARCHITECTURE/5. COMPARATOR/LATCH_IN*%
G36*
X155112619Y-61803426D02*
G01*
X155116039Y-61811291D01*
X155116419Y-61822216D01*
X155127716Y-61895579D01*
X155151855Y-61976574D01*
X155151857Y-61976579D01*
X155231965Y-62140845D01*
X155336985Y-62277859D01*
X155336986Y-62277860D01*
X155336988Y-62277862D01*
X155391426Y-62323708D01*
X155451969Y-62374697D01*
X155451970Y-62374697D01*
X155451972Y-62374699D01*
X155570266Y-62431314D01*
X155570268Y-62431314D01*
X155570270Y-62431315D01*
X155668887Y-62446638D01*
X155676536Y-62451294D01*
X155678652Y-62459995D01*
X155675527Y-62466306D01*
X155073703Y-63092612D01*
X155065500Y-63096203D01*
X155057211Y-63092990D01*
X154408114Y-62476665D01*
X154404474Y-62468483D01*
X154407685Y-62460124D01*
X154414540Y-62456595D01*
X154472173Y-62448503D01*
X154535773Y-62425032D01*
X154595448Y-62390668D01*
X154660644Y-62338174D01*
X154719491Y-62275479D01*
X154778819Y-62194181D01*
X154828408Y-62107188D01*
X154868098Y-62017282D01*
X154896270Y-61930237D01*
X154912340Y-61822216D01*
X154914161Y-61809977D01*
X154918768Y-61802298D01*
X154925734Y-61799999D01*
X155104346Y-61799999D01*
X155112619Y-61803426D01*
G37*
%TD.AperFunction*%
%TD*%
%TA.AperFunction,Conductor*%
%TO.N,VCC_5V*%
G36*
X171696429Y-81160868D02*
G01*
X171698438Y-81163429D01*
X171744434Y-81242676D01*
X171744436Y-81242678D01*
X171785629Y-81284064D01*
X171831882Y-81315330D01*
X171890512Y-81340097D01*
X171952558Y-81353647D01*
X171982759Y-81354995D01*
X172028052Y-81357018D01*
X172028055Y-81357017D01*
X172028061Y-81357018D01*
X172102691Y-81348714D01*
X172177598Y-81329591D01*
X172177599Y-81329590D01*
X172177601Y-81329590D01*
X172185648Y-81326321D01*
X172244334Y-81302484D01*
X172321551Y-81250098D01*
X172330320Y-81248290D01*
X172336391Y-81251508D01*
X172462896Y-81378013D01*
X172466323Y-81386286D01*
X172463091Y-81394360D01*
X172383396Y-81477943D01*
X172170234Y-81731748D01*
X172170226Y-81731758D01*
X172028649Y-81938690D01*
X172028647Y-81938695D01*
X171959256Y-82081838D01*
X171952184Y-82116869D01*
X171943487Y-82159949D01*
X171938490Y-82167381D01*
X171929703Y-82169103D01*
X171927430Y-82168397D01*
X171080537Y-81807360D01*
X171074270Y-81800963D01*
X171074362Y-81792009D01*
X171076691Y-81788487D01*
X171131238Y-81731761D01*
X171679886Y-81161191D01*
X171688090Y-81157604D01*
X171696429Y-81160868D01*
G37*
%TD.AperFunction*%
%TD*%
%TA.AperFunction,Conductor*%
%TO.N,Net-(U502A-+)*%
G36*
X142412478Y-59453427D02*
G01*
X142415902Y-59461436D01*
X142415968Y-59464388D01*
X142425671Y-59538103D01*
X142448291Y-59620645D01*
X142525225Y-59789033D01*
X142626406Y-59929146D01*
X142626405Y-59929146D01*
X142678482Y-59975637D01*
X142736814Y-60027715D01*
X142850022Y-60085330D01*
X142850024Y-60085331D01*
X142943231Y-60101164D01*
X142950814Y-60105928D01*
X142952807Y-60114658D01*
X142949520Y-60120997D01*
X142323893Y-60742802D01*
X142315609Y-60746204D01*
X142307397Y-60742802D01*
X142074656Y-60511483D01*
X141682283Y-60121508D01*
X141678832Y-60113248D01*
X141682234Y-60104964D01*
X141688865Y-60101631D01*
X141763058Y-60090957D01*
X141829280Y-60065771D01*
X141891374Y-60029840D01*
X141958446Y-59976327D01*
X142018907Y-59913056D01*
X142078779Y-59832976D01*
X142128774Y-59747740D01*
X142196283Y-59577030D01*
X142214130Y-59459936D01*
X142218764Y-59452275D01*
X142225696Y-59450000D01*
X142404205Y-59450000D01*
X142412478Y-59453427D01*
G37*
%TD.AperFunction*%
%TD*%
%TA.AperFunction,Conductor*%
%TO.N,GND*%
G36*
X149322653Y-68451075D02*
G01*
X149330081Y-68456077D01*
X149331797Y-68464865D01*
X149331499Y-68466026D01*
X149293245Y-68588646D01*
X149292282Y-68590883D01*
X149242565Y-68679583D01*
X149242298Y-68680036D01*
X149226913Y-68704802D01*
X149183163Y-68800426D01*
X149183160Y-68800435D01*
X149170336Y-68863456D01*
X149170335Y-68863463D01*
X149170335Y-68863466D01*
X149166281Y-68933691D01*
X149162384Y-68941752D01*
X149154601Y-68944716D01*
X148976580Y-68944716D01*
X148968307Y-68941289D01*
X148964907Y-68933806D01*
X148960148Y-68863466D01*
X148959386Y-68852196D01*
X148942553Y-68783037D01*
X148888848Y-68679806D01*
X148840826Y-68594895D01*
X148840120Y-68593412D01*
X148816527Y-68533341D01*
X148816086Y-68531980D01*
X148799000Y-68465584D01*
X148800257Y-68456719D01*
X148807415Y-68451338D01*
X148807987Y-68451206D01*
X149063325Y-68399470D01*
X149067965Y-68399470D01*
X149322653Y-68451075D01*
G37*
%TD.AperFunction*%
%TD*%
%TA.AperFunction,Conductor*%
%TO.N,GND*%
G36*
X167960769Y-57405164D02*
G01*
X168416745Y-57773796D01*
X168421024Y-57781663D01*
X168418488Y-57790251D01*
X168413134Y-57793979D01*
X168360769Y-57811671D01*
X168360759Y-57811676D01*
X168304225Y-57847231D01*
X168253278Y-57893652D01*
X168198743Y-57961791D01*
X168153124Y-58038257D01*
X168153123Y-58038260D01*
X168113333Y-58127465D01*
X168113323Y-58127490D01*
X168085272Y-58215581D01*
X168085268Y-58215600D01*
X168067107Y-58339990D01*
X168062521Y-58347682D01*
X168055530Y-58350000D01*
X167876937Y-58350000D01*
X167868664Y-58346573D01*
X167865244Y-58338717D01*
X167864824Y-58326923D01*
X167854038Y-58253906D01*
X167831103Y-58172137D01*
X167769185Y-58038258D01*
X167761677Y-58022024D01*
X167761676Y-58022023D01*
X167761675Y-58022020D01*
X167675621Y-57909329D01*
X167582844Y-57838338D01*
X167582840Y-57838336D01*
X167582839Y-57838336D01*
X167504566Y-57811961D01*
X167497820Y-57806072D01*
X167497215Y-57797138D01*
X167500628Y-57792043D01*
X167945742Y-57405429D01*
X167954234Y-57402592D01*
X167960769Y-57405164D01*
G37*
%TD.AperFunction*%
%TD*%
%TA.AperFunction,Conductor*%
%TO.N,/ARCHITECTURE/3. SENSING/VSENSE_12V*%
G36*
X152881860Y-82714954D02*
G01*
X153130234Y-82885176D01*
X153507691Y-83143864D01*
X153512578Y-83151368D01*
X153511197Y-83159387D01*
X153029785Y-83989058D01*
X153022669Y-83994494D01*
X153013793Y-83993306D01*
X153010201Y-83990064D01*
X152987205Y-83958423D01*
X152987199Y-83958416D01*
X152943198Y-83921651D01*
X152861902Y-83876574D01*
X152861888Y-83876568D01*
X152763357Y-83838673D01*
X152613745Y-83798421D01*
X152613727Y-83798417D01*
X152460412Y-83770552D01*
X152460398Y-83770550D01*
X152226365Y-83750900D01*
X152218408Y-83746793D01*
X152215644Y-83739241D01*
X152215644Y-83560289D01*
X152219071Y-83552016D01*
X152225848Y-83548685D01*
X152258675Y-83544456D01*
X152296809Y-83539544D01*
X152296810Y-83539543D01*
X152296814Y-83539543D01*
X152365328Y-83516508D01*
X152434896Y-83481309D01*
X152434901Y-83481305D01*
X152434904Y-83481304D01*
X152455545Y-83467350D01*
X152506170Y-83433130D01*
X152575369Y-83373762D01*
X152698230Y-83229128D01*
X152790516Y-83062467D01*
X152846791Y-82885180D01*
X152863611Y-82723393D01*
X152867874Y-82715522D01*
X152876457Y-82712969D01*
X152881860Y-82714954D01*
G37*
%TD.AperFunction*%
%TD*%
%TA.AperFunction,Conductor*%
%TO.N,/ARCHITECTURE/3. SENSING/VSENSE_12V*%
G36*
X149668822Y-82119685D02*
G01*
X149689464Y-82136319D01*
X149879326Y-82326181D01*
X149912811Y-82387504D01*
X149915645Y-82413862D01*
X149915645Y-82953125D01*
X150112520Y-83150000D01*
X151191645Y-83150000D01*
X151258684Y-83169685D01*
X151304439Y-83222489D01*
X151315645Y-83274000D01*
X151315645Y-84026000D01*
X151295960Y-84093039D01*
X151243156Y-84138794D01*
X151191645Y-84150000D01*
X150112519Y-84150000D01*
X149915645Y-84346874D01*
X149915645Y-84886138D01*
X149895960Y-84953177D01*
X149879326Y-84973819D01*
X149689464Y-85163681D01*
X149628141Y-85197166D01*
X149601783Y-85200000D01*
X148626382Y-85200000D01*
X148559343Y-85180315D01*
X148538701Y-85163681D01*
X148251964Y-84876944D01*
X148218479Y-84815621D01*
X148215645Y-84789263D01*
X148215645Y-82576362D01*
X148235330Y-82509323D01*
X148251964Y-82488681D01*
X148604326Y-82136319D01*
X148665649Y-82102834D01*
X148692007Y-82100000D01*
X149601783Y-82100000D01*
X149668822Y-82119685D01*
G37*
%TD.AperFunction*%
%TD*%
%TA.AperFunction,Conductor*%
%TO.N,GND*%
G36*
X166432537Y-63703396D02*
G01*
X166435945Y-63706120D01*
X166810114Y-64142383D01*
X166812899Y-64150894D01*
X166810114Y-64157617D01*
X166436723Y-64592971D01*
X166428736Y-64597020D01*
X166420225Y-64594235D01*
X166417185Y-64590181D01*
X166397362Y-64546373D01*
X166355776Y-64489427D01*
X166303108Y-64438175D01*
X166303105Y-64438172D01*
X166303103Y-64438171D01*
X166281690Y-64422722D01*
X166227138Y-64383363D01*
X166142860Y-64337583D01*
X166045319Y-64297731D01*
X166045320Y-64297731D01*
X165949438Y-64269663D01*
X165813288Y-64251363D01*
X165805545Y-64246864D01*
X165803147Y-64239767D01*
X165803147Y-64060913D01*
X165806574Y-64052640D01*
X165813845Y-64049256D01*
X165854359Y-64045779D01*
X165883243Y-64043301D01*
X165883245Y-64043300D01*
X165883251Y-64043300D01*
X165973708Y-64024234D01*
X166148083Y-63959923D01*
X166284511Y-63876853D01*
X166375191Y-63786737D01*
X166416723Y-63708263D01*
X166423622Y-63702555D01*
X166432537Y-63703396D01*
G37*
%TD.AperFunction*%
%TD*%
%TA.AperFunction,Conductor*%
%TO.N,VCC_5V*%
G36*
X158421624Y-76460488D02*
G01*
X158427161Y-76466500D01*
X158432523Y-76479638D01*
X158432530Y-76479651D01*
X158461852Y-76521820D01*
X158461856Y-76521825D01*
X158501993Y-76556843D01*
X158571955Y-76595293D01*
X158571957Y-76595294D01*
X158649536Y-76621746D01*
X158740091Y-76639591D01*
X158740094Y-76639591D01*
X158740103Y-76639593D01*
X158804780Y-76644222D01*
X158812788Y-76648231D01*
X158815645Y-76655892D01*
X158815645Y-76834731D01*
X158812218Y-76843004D01*
X158805463Y-76846332D01*
X158661666Y-76865144D01*
X158661664Y-76865145D01*
X158541693Y-76909031D01*
X158541688Y-76909034D01*
X158463860Y-76966012D01*
X158463857Y-76966015D01*
X158427856Y-77025621D01*
X158420645Y-77030931D01*
X158414208Y-77030694D01*
X157849841Y-76846332D01*
X157573690Y-76756121D01*
X157566891Y-76750295D01*
X157566202Y-76741367D01*
X157572029Y-76734567D01*
X157573689Y-76733878D01*
X158412697Y-76459799D01*
X158421624Y-76460488D01*
G37*
%TD.AperFunction*%
%TD*%
%TA.AperFunction,Conductor*%
%TO.N,VCC_5V*%
G36*
X155073891Y-66207197D02*
G01*
X155699005Y-66828490D01*
X155702457Y-66836751D01*
X155699055Y-66845035D01*
X155692423Y-66848368D01*
X155618233Y-66859042D01*
X155552009Y-66884230D01*
X155489921Y-66920156D01*
X155422843Y-66973673D01*
X155422839Y-66973676D01*
X155362385Y-67036941D01*
X155302507Y-67117028D01*
X155252515Y-67202260D01*
X155185006Y-67372971D01*
X155179073Y-67411900D01*
X155167839Y-67485612D01*
X155167160Y-67490064D01*
X155162526Y-67497726D01*
X155155594Y-67500001D01*
X154977085Y-67500001D01*
X154968812Y-67496574D01*
X154965388Y-67488565D01*
X154965321Y-67485612D01*
X154965321Y-67485608D01*
X154955619Y-67411900D01*
X154932999Y-67329358D01*
X154856067Y-67160970D01*
X154754885Y-67020855D01*
X154754884Y-67020854D01*
X154754885Y-67020854D01*
X154696553Y-66968777D01*
X154644477Y-66922286D01*
X154531267Y-66864669D01*
X154454880Y-66851692D01*
X154438057Y-66848835D01*
X154430475Y-66844071D01*
X154428482Y-66835340D01*
X154431768Y-66829003D01*
X155057398Y-66207197D01*
X155065681Y-66203796D01*
X155073891Y-66207197D01*
G37*
%TD.AperFunction*%
%TD*%
%TA.AperFunction,Conductor*%
%TO.N,/ARCHITECTURE/3. SENSING/VSENSE_17V*%
G36*
X149668822Y-72127945D02*
G01*
X149689464Y-72144579D01*
X149879326Y-72334441D01*
X149912811Y-72395764D01*
X149915645Y-72422122D01*
X149915645Y-72961385D01*
X150112520Y-73158260D01*
X151191645Y-73158260D01*
X151258684Y-73177945D01*
X151304439Y-73230749D01*
X151315645Y-73282260D01*
X151315645Y-74034260D01*
X151295960Y-74101299D01*
X151243156Y-74147054D01*
X151191645Y-74158260D01*
X150112519Y-74158260D01*
X149915645Y-74355134D01*
X149915645Y-74894398D01*
X149895960Y-74961437D01*
X149879326Y-74982079D01*
X149689464Y-75171941D01*
X149628141Y-75205426D01*
X149601783Y-75208260D01*
X148626382Y-75208260D01*
X148559343Y-75188575D01*
X148538701Y-75171941D01*
X148251964Y-74885204D01*
X148218479Y-74823881D01*
X148215645Y-74797523D01*
X148215645Y-72584622D01*
X148235330Y-72517583D01*
X148251964Y-72496941D01*
X148604326Y-72144579D01*
X148665649Y-72111094D01*
X148692007Y-72108260D01*
X149601783Y-72108260D01*
X149668822Y-72127945D01*
G37*
%TD.AperFunction*%
%TD*%
%TA.AperFunction,Conductor*%
%TO.N,/ARCHITECTURE/2. POLARITY PROTECTION/VPROT*%
G36*
X141581322Y-77319685D02*
G01*
X141601964Y-77336319D01*
X142065645Y-77800000D01*
X144114283Y-77800000D01*
X144181322Y-77819685D01*
X144201964Y-77836319D01*
X144379326Y-78013681D01*
X144412811Y-78075004D01*
X144415645Y-78101362D01*
X144415645Y-79198638D01*
X144395960Y-79265677D01*
X144379326Y-79286319D01*
X144201964Y-79463681D01*
X144140641Y-79497166D01*
X144114283Y-79500000D01*
X141859394Y-79500000D01*
X141565645Y-79793749D01*
X141565645Y-82047818D01*
X141545960Y-82114857D01*
X141528336Y-82136479D01*
X141039287Y-82614661D01*
X140977591Y-82647455D01*
X140952596Y-82650000D01*
X140015644Y-82650000D01*
X139315645Y-83349999D01*
X139315645Y-84908795D01*
X139307000Y-84938235D01*
X139300477Y-84968222D01*
X139296722Y-84973237D01*
X139295960Y-84975834D01*
X139279326Y-84996476D01*
X139162121Y-85113681D01*
X139100798Y-85147166D01*
X139074440Y-85150000D01*
X138607632Y-85150000D01*
X138540593Y-85130315D01*
X138519951Y-85113681D01*
X138351964Y-84945694D01*
X138318479Y-84884371D01*
X138315645Y-84858013D01*
X138315645Y-84201362D01*
X138335330Y-84134323D01*
X138351964Y-84113681D01*
X138465645Y-84000000D01*
X138465645Y-81588862D01*
X138474289Y-81559421D01*
X138480813Y-81529435D01*
X138484567Y-81524419D01*
X138485330Y-81521823D01*
X138501964Y-81501181D01*
X138666826Y-81336319D01*
X138728149Y-81302834D01*
X138754507Y-81300000D01*
X139237520Y-81300000D01*
X139415645Y-81121875D01*
X139415645Y-77424000D01*
X139435330Y-77356961D01*
X139488134Y-77311206D01*
X139539645Y-77300000D01*
X141514283Y-77300000D01*
X141581322Y-77319685D01*
G37*
%TD.AperFunction*%
%TD*%
%TA.AperFunction,Conductor*%
%TO.N,/ARCHITECTURE/2. POLARITY PROTECTION/VPROT*%
G36*
X180258684Y-77306365D02*
G01*
X180304439Y-77359169D01*
X180315645Y-77410680D01*
X180315645Y-79885318D01*
X180295960Y-79952357D01*
X180279326Y-79972999D01*
X179765645Y-80486679D01*
X179765645Y-82835318D01*
X179745960Y-82902357D01*
X179729326Y-82922999D01*
X179315645Y-83336679D01*
X179315645Y-84898285D01*
X179307110Y-84927348D01*
X179300870Y-84956986D01*
X179296782Y-84962522D01*
X179295960Y-84965324D01*
X179279911Y-84985376D01*
X179163883Y-85102961D01*
X179102784Y-85136853D01*
X179077272Y-85139854D01*
X178617487Y-85145979D01*
X178550191Y-85127189D01*
X178528740Y-85110253D01*
X178352550Y-84936394D01*
X178318657Y-84875295D01*
X178315645Y-84848131D01*
X178315645Y-84188042D01*
X178335330Y-84121003D01*
X178351964Y-84100361D01*
X178465645Y-83986680D01*
X178465645Y-81286680D01*
X178465645Y-80688042D01*
X178485330Y-80621003D01*
X178501964Y-80600361D01*
X178615646Y-80486679D01*
X179415645Y-79686680D01*
X179415645Y-79500000D01*
X179415645Y-77410680D01*
X179435330Y-77343641D01*
X179488134Y-77297886D01*
X179539645Y-77286680D01*
X180191645Y-77286680D01*
X180258684Y-77306365D01*
G37*
%TD.AperFunction*%
%TD*%
%TA.AperFunction,Conductor*%
%TO.N,VREF_2V5*%
G36*
X144010347Y-59550039D02*
G01*
X144103452Y-59618107D01*
X144174704Y-59649083D01*
X144254403Y-59671323D01*
X144353310Y-59686157D01*
X144461734Y-59690618D01*
X144594268Y-59683650D01*
X144737260Y-59664440D01*
X144907771Y-59629207D01*
X145073093Y-59584336D01*
X145081973Y-59585476D01*
X145087447Y-59592562D01*
X145087823Y-59596508D01*
X145067067Y-59871242D01*
X145063026Y-59879234D01*
X145056945Y-59881959D01*
X144098809Y-60009567D01*
X144090155Y-60007262D01*
X144086867Y-60003335D01*
X144075599Y-59981503D01*
X144035908Y-59950709D01*
X144023673Y-59944176D01*
X143915248Y-59886282D01*
X143828535Y-59841833D01*
X143827278Y-59841086D01*
X143766430Y-59799567D01*
X143761527Y-59792073D01*
X143763359Y-59783308D01*
X143764746Y-59781634D01*
X143995170Y-59551210D01*
X144003442Y-59547784D01*
X144010347Y-59550039D01*
G37*
%TD.AperFunction*%
%TD*%
%TA.AperFunction,Conductor*%
%TO.N,/ARCHITECTURE/3. SENSING/VSENSE_17V*%
G36*
X153025742Y-73305726D02*
G01*
X153028737Y-73309135D01*
X153278829Y-73740147D01*
X153397342Y-73944394D01*
X153511197Y-74140612D01*
X153512385Y-74149488D01*
X153507691Y-74156135D01*
X152882463Y-74584631D01*
X152873702Y-74586481D01*
X152866198Y-74581594D01*
X152864179Y-74575820D01*
X152856573Y-74470209D01*
X152856573Y-74470206D01*
X152836754Y-74372021D01*
X152807077Y-74278582D01*
X152765918Y-74184891D01*
X152716385Y-74098153D01*
X152657971Y-74016690D01*
X152593802Y-73944390D01*
X152457632Y-73832709D01*
X152392651Y-73801028D01*
X152327671Y-73769348D01*
X152225353Y-73751676D01*
X152217783Y-73746891D01*
X152215644Y-73740147D01*
X152215644Y-73560745D01*
X152219071Y-73552472D01*
X152226348Y-73549087D01*
X152465290Y-73528731D01*
X152707764Y-73478168D01*
X152875330Y-73417138D01*
X152973097Y-73355088D01*
X153009340Y-73307879D01*
X153017093Y-73303407D01*
X153025742Y-73305726D01*
G37*
%TD.AperFunction*%
%TD*%
%TA.AperFunction,Conductor*%
%TO.N,GND*%
G36*
X174765390Y-62366773D02*
G01*
X174768705Y-62373522D01*
X174770694Y-62388807D01*
X174770695Y-62388813D01*
X174776404Y-62401574D01*
X174788908Y-62429523D01*
X174817799Y-62463530D01*
X174872335Y-62501401D01*
X174872339Y-62501403D01*
X174935057Y-62527564D01*
X174935062Y-62527566D01*
X175006309Y-62544696D01*
X175054988Y-62549047D01*
X175062923Y-62553197D01*
X175065646Y-62560701D01*
X175065646Y-62738756D01*
X175062219Y-62747029D01*
X175054412Y-62750447D01*
X175042977Y-62750902D01*
X175042975Y-62750902D01*
X174925554Y-62775623D01*
X174836030Y-62821372D01*
X174836029Y-62821373D01*
X174783780Y-62879042D01*
X174770721Y-62930138D01*
X174765352Y-62937305D01*
X174756488Y-62938577D01*
X174751126Y-62935528D01*
X174636589Y-62821372D01*
X174472959Y-62658285D01*
X174469519Y-62650019D01*
X174472931Y-62641741D01*
X174748846Y-62366744D01*
X174757122Y-62363332D01*
X174765390Y-62366773D01*
G37*
%TD.AperFunction*%
%TD*%
%TA.AperFunction,Conductor*%
%TO.N,Net-(D601-A)*%
G36*
X175663782Y-77319685D02*
G01*
X175709537Y-77372489D01*
X175720743Y-77424000D01*
X175720743Y-79700000D01*
X176629639Y-80613800D01*
X176662959Y-80675213D01*
X176665722Y-80701056D01*
X176670743Y-84000000D01*
X176784424Y-84113681D01*
X176817909Y-84175004D01*
X176820743Y-84201362D01*
X176820743Y-84897816D01*
X176818607Y-84920733D01*
X176615645Y-85999997D01*
X176583970Y-87292784D01*
X176574827Y-87321313D01*
X176568103Y-87350502D01*
X176563592Y-87356375D01*
X176562649Y-87359321D01*
X176546608Y-87378495D01*
X176509456Y-87414748D01*
X176447727Y-87447480D01*
X176422855Y-87450000D01*
X176204458Y-87450000D01*
X176137419Y-87430315D01*
X176116624Y-87413528D01*
X176047427Y-87344089D01*
X176014049Y-87282708D01*
X176011262Y-87256133D01*
X176015645Y-86000000D01*
X175822865Y-84971478D01*
X175820743Y-84948634D01*
X175820743Y-83350000D01*
X175407783Y-82987036D01*
X175370424Y-82927993D01*
X175365645Y-82893898D01*
X175365645Y-80500000D01*
X174851964Y-79986319D01*
X174818479Y-79924996D01*
X174815645Y-79898638D01*
X174815645Y-77424000D01*
X174835330Y-77356961D01*
X174888134Y-77311206D01*
X174939645Y-77300000D01*
X175596743Y-77300000D01*
X175663782Y-77319685D01*
G37*
%TD.AperFunction*%
%TD*%
%TA.AperFunction,Conductor*%
%TO.N,Net-(U501A--)*%
G36*
X156623347Y-83157967D02*
G01*
X156624454Y-83159074D01*
X157235217Y-83857633D01*
X157238083Y-83866117D01*
X157234110Y-83874142D01*
X157230267Y-83876380D01*
X157175479Y-83895515D01*
X157175477Y-83895516D01*
X157107798Y-83933434D01*
X157107785Y-83933444D01*
X157044364Y-83982489D01*
X157044362Y-83982491D01*
X156975664Y-84051923D01*
X156975660Y-84051927D01*
X156913838Y-84131209D01*
X156913836Y-84131212D01*
X156853182Y-84228409D01*
X156802616Y-84330065D01*
X156735018Y-84528653D01*
X156716992Y-84664835D01*
X156712509Y-84672587D01*
X156705393Y-84675000D01*
X156525840Y-84675000D01*
X156517567Y-84671573D01*
X156514250Y-84664903D01*
X156494229Y-84520141D01*
X156494229Y-84520139D01*
X156424330Y-84320342D01*
X156373053Y-84228414D01*
X156324632Y-84141604D01*
X156324626Y-84141595D01*
X156212972Y-84006704D01*
X156212965Y-84006698D01*
X156098783Y-83917923D01*
X156098784Y-83917923D01*
X155999738Y-83876908D01*
X155993405Y-83870576D01*
X155993404Y-83861622D01*
X155995402Y-83858402D01*
X156606838Y-83159073D01*
X156614863Y-83155101D01*
X156623347Y-83157967D01*
G37*
%TD.AperFunction*%
%TD*%
%TA.AperFunction,Conductor*%
%TO.N,GND*%
G36*
X151131670Y-80284144D02*
G01*
X151254297Y-80322401D01*
X151256525Y-80323360D01*
X151303743Y-80349826D01*
X151345229Y-80373079D01*
X151345682Y-80373347D01*
X151370438Y-80388726D01*
X151370443Y-80388729D01*
X151466078Y-80432484D01*
X151529111Y-80445310D01*
X151599336Y-80449363D01*
X151607397Y-80453261D01*
X151610361Y-80461044D01*
X151610361Y-80639065D01*
X151606934Y-80647338D01*
X151599451Y-80650738D01*
X151517837Y-80656259D01*
X151448680Y-80673092D01*
X151345458Y-80726792D01*
X151260540Y-80774817D01*
X151259057Y-80775523D01*
X151198987Y-80799117D01*
X151197626Y-80799558D01*
X151131230Y-80816644D01*
X151122364Y-80815387D01*
X151116983Y-80808229D01*
X151116847Y-80807636D01*
X151065115Y-80552319D01*
X151065115Y-80547680D01*
X151116720Y-80292990D01*
X151121722Y-80285563D01*
X151130510Y-80283847D01*
X151131670Y-80284144D01*
G37*
%TD.AperFunction*%
%TD*%
%TA.AperFunction,Conductor*%
%TO.N,GND*%
G36*
X180674216Y-65407959D02*
G01*
X180677027Y-65409960D01*
X181308283Y-66017908D01*
X181311865Y-66026115D01*
X181309606Y-66033248D01*
X181284726Y-66067220D01*
X181284721Y-66067229D01*
X181258199Y-66125472D01*
X181221789Y-66255325D01*
X181221786Y-66255337D01*
X181195971Y-66408943D01*
X181171936Y-66679068D01*
X181165969Y-66888633D01*
X181162308Y-66896805D01*
X181154274Y-66900000D01*
X180976411Y-66900000D01*
X180968138Y-66896573D01*
X180964751Y-66889272D01*
X180963895Y-66879017D01*
X180961439Y-66849546D01*
X180944401Y-66781492D01*
X180915019Y-66710752D01*
X180873142Y-66637766D01*
X180820098Y-66565981D01*
X180820094Y-66565977D01*
X180820090Y-66565972D01*
X180690712Y-66439425D01*
X180690709Y-66439422D01*
X180542309Y-66344924D01*
X180542306Y-66344923D01*
X180385168Y-66287136D01*
X180385158Y-66287134D01*
X180240707Y-66268845D01*
X180232930Y-66264406D01*
X180230570Y-66255768D01*
X180231747Y-66251938D01*
X180658483Y-65413081D01*
X180665288Y-65407262D01*
X180674216Y-65407959D01*
G37*
%TD.AperFunction*%
%TD*%
%TA.AperFunction,Conductor*%
%TO.N,VCC_5V*%
G36*
X150896624Y-58325488D02*
G01*
X150902161Y-58331500D01*
X150907523Y-58344638D01*
X150907530Y-58344651D01*
X150936852Y-58386820D01*
X150936856Y-58386825D01*
X150976993Y-58421843D01*
X151046955Y-58460293D01*
X151046957Y-58460294D01*
X151124536Y-58486746D01*
X151215091Y-58504591D01*
X151215094Y-58504591D01*
X151215103Y-58504593D01*
X151279780Y-58509222D01*
X151287788Y-58513231D01*
X151290645Y-58520892D01*
X151290645Y-58699731D01*
X151287218Y-58708004D01*
X151280463Y-58711332D01*
X151136666Y-58730144D01*
X151136664Y-58730145D01*
X151016693Y-58774031D01*
X151016688Y-58774034D01*
X150938860Y-58831012D01*
X150938857Y-58831015D01*
X150902856Y-58890621D01*
X150895645Y-58895931D01*
X150889208Y-58895694D01*
X150324841Y-58711332D01*
X150048690Y-58621121D01*
X150041891Y-58615295D01*
X150041202Y-58606367D01*
X150047029Y-58599567D01*
X150048689Y-58598878D01*
X150887697Y-58324799D01*
X150896624Y-58325488D01*
G37*
%TD.AperFunction*%
%TD*%
%TA.AperFunction,Conductor*%
%TO.N,VREF_2V5*%
G36*
X151535347Y-78955039D02*
G01*
X151628452Y-79023107D01*
X151699704Y-79054083D01*
X151779403Y-79076323D01*
X151878310Y-79091157D01*
X151986734Y-79095618D01*
X152119268Y-79088650D01*
X152262260Y-79069440D01*
X152432771Y-79034207D01*
X152598093Y-78989336D01*
X152606973Y-78990476D01*
X152612447Y-78997562D01*
X152612823Y-79001508D01*
X152592067Y-79276242D01*
X152588026Y-79284234D01*
X152581945Y-79286959D01*
X151623809Y-79414567D01*
X151615155Y-79412262D01*
X151611867Y-79408335D01*
X151600599Y-79386503D01*
X151560908Y-79355709D01*
X151548673Y-79349176D01*
X151440248Y-79291282D01*
X151353535Y-79246833D01*
X151352278Y-79246086D01*
X151291430Y-79204567D01*
X151286527Y-79197073D01*
X151288359Y-79188308D01*
X151289746Y-79186634D01*
X151520170Y-78956210D01*
X151528442Y-78952784D01*
X151535347Y-78955039D01*
G37*
%TD.AperFunction*%
%TD*%
%TA.AperFunction,Conductor*%
%TO.N,/ARCHITECTURE/5. COMPARATOR/~{17V_FAULT}*%
G36*
X156724423Y-77718196D02*
G01*
X157496587Y-77999404D01*
X157503188Y-78005455D01*
X157503577Y-78014402D01*
X157497526Y-78021003D01*
X157494128Y-78021996D01*
X156574434Y-78144484D01*
X156565780Y-78142179D01*
X156562141Y-78137509D01*
X156548966Y-78106880D01*
X156548965Y-78106877D01*
X156548963Y-78106874D01*
X156548962Y-78106873D01*
X156505912Y-78059769D01*
X156505909Y-78059767D01*
X156505907Y-78059765D01*
X156505905Y-78059763D01*
X156382521Y-77956928D01*
X156382508Y-77956917D01*
X156292618Y-77881781D01*
X156288468Y-77873846D01*
X156291145Y-77865300D01*
X156291838Y-77864542D01*
X156416543Y-77739837D01*
X156424815Y-77736411D01*
X156432452Y-77739247D01*
X156443082Y-77748406D01*
X156524519Y-77790679D01*
X156524520Y-77790680D01*
X156601009Y-77800279D01*
X156601009Y-77800278D01*
X156601012Y-77800279D01*
X156664414Y-77777349D01*
X156691948Y-77751791D01*
X156710585Y-77722854D01*
X156717944Y-77717756D01*
X156724423Y-77718196D01*
G37*
%TD.AperFunction*%
%TD*%
%TA.AperFunction,Conductor*%
%TO.N,Net-(U501B-+)*%
G36*
X157260680Y-73516589D02*
G01*
X157264013Y-73523221D01*
X157274687Y-73597411D01*
X157299875Y-73663635D01*
X157335801Y-73725723D01*
X157335802Y-73725725D01*
X157335805Y-73725729D01*
X157389318Y-73792801D01*
X157389321Y-73792805D01*
X157444012Y-73845066D01*
X157452590Y-73853263D01*
X157532670Y-73913135D01*
X157532673Y-73913137D01*
X157617905Y-73963129D01*
X157788616Y-74030638D01*
X157905709Y-74048485D01*
X157913371Y-74053119D01*
X157915646Y-74060051D01*
X157915646Y-74238560D01*
X157912219Y-74246833D01*
X157904210Y-74250257D01*
X157901257Y-74250323D01*
X157827542Y-74260026D01*
X157745001Y-74282646D01*
X157576612Y-74359579D01*
X157436499Y-74460760D01*
X157337931Y-74571168D01*
X157280314Y-74684378D01*
X157269993Y-74745132D01*
X157264480Y-74777587D01*
X157259716Y-74785169D01*
X157250985Y-74787162D01*
X157244647Y-74783875D01*
X156978237Y-74515828D01*
X156622842Y-74158246D01*
X156619441Y-74149964D01*
X156622842Y-74141753D01*
X157244136Y-73516637D01*
X157252396Y-73513187D01*
X157260680Y-73516589D01*
G37*
%TD.AperFunction*%
%TD*%
%TA.AperFunction,Conductor*%
%TO.N,GND*%
G36*
X151413004Y-69028426D02*
G01*
X151416388Y-69035699D01*
X151422343Y-69105094D01*
X151422345Y-69105104D01*
X151441407Y-69195545D01*
X151441413Y-69195566D01*
X151505722Y-69369935D01*
X151588791Y-69506362D01*
X151659611Y-69577625D01*
X151678908Y-69597043D01*
X151720795Y-69619212D01*
X151757380Y-69638575D01*
X151763089Y-69645474D01*
X151762248Y-69654389D01*
X151759524Y-69657797D01*
X151323262Y-70031966D01*
X151314751Y-70034751D01*
X151308028Y-70031966D01*
X150872673Y-69658576D01*
X150868624Y-69650589D01*
X150871409Y-69642078D01*
X150875463Y-69639037D01*
X150919273Y-69619214D01*
X150976218Y-69577628D01*
X151027470Y-69524961D01*
X151082282Y-69448990D01*
X151128062Y-69364713D01*
X151167914Y-69267172D01*
X151195981Y-69171293D01*
X151214282Y-69035140D01*
X151218781Y-69027397D01*
X151225878Y-69024999D01*
X151404731Y-69024999D01*
X151413004Y-69028426D01*
G37*
%TD.AperFunction*%
%TD*%
%TA.AperFunction,Conductor*%
%TO.N,GND*%
G36*
X151716999Y-80269278D02*
G01*
X152211703Y-80430884D01*
X152557598Y-80543878D01*
X152564398Y-80549705D01*
X152565087Y-80558633D01*
X152559260Y-80565433D01*
X152557598Y-80566122D01*
X151718535Y-80840219D01*
X151709607Y-80839530D01*
X151704094Y-80833578D01*
X151696925Y-80816287D01*
X151696922Y-80816282D01*
X151684710Y-80799184D01*
X151666377Y-80773515D01*
X151666374Y-80773512D01*
X151666371Y-80773508D01*
X151625122Y-80738021D01*
X151625115Y-80738016D01*
X151585737Y-80716468D01*
X151554569Y-80699413D01*
X151476932Y-80672862D01*
X151476929Y-80672861D01*
X151476925Y-80672860D01*
X151389094Y-80655359D01*
X151389071Y-80655356D01*
X151326494Y-80650791D01*
X151318492Y-80646771D01*
X151315645Y-80639122D01*
X151315645Y-80460329D01*
X151319072Y-80452056D01*
X151325892Y-80448720D01*
X151468701Y-80430885D01*
X151562060Y-80397914D01*
X151589480Y-80388232D01*
X151589480Y-80388231D01*
X151589482Y-80388231D01*
X151667482Y-80332575D01*
X151703408Y-80274262D01*
X151710664Y-80269018D01*
X151716999Y-80269278D01*
G37*
%TD.AperFunction*%
%TD*%
%TA.AperFunction,Conductor*%
%TO.N,/ARCHITECTURE/5. COMPARATOR/~{12V_FAULT}*%
G36*
X153523345Y-85657967D02*
G01*
X153524452Y-85659074D01*
X154135215Y-86357633D01*
X154138081Y-86366117D01*
X154134108Y-86374142D01*
X154130265Y-86376380D01*
X154075477Y-86395515D01*
X154075475Y-86395516D01*
X154007796Y-86433434D01*
X154007783Y-86433444D01*
X153944362Y-86482489D01*
X153944360Y-86482491D01*
X153875662Y-86551923D01*
X153875658Y-86551927D01*
X153813836Y-86631209D01*
X153813834Y-86631212D01*
X153753180Y-86728409D01*
X153702614Y-86830065D01*
X153635016Y-87028653D01*
X153616990Y-87164835D01*
X153612507Y-87172587D01*
X153605391Y-87175000D01*
X153425838Y-87175000D01*
X153417565Y-87171573D01*
X153414248Y-87164903D01*
X153394227Y-87020141D01*
X153394227Y-87020139D01*
X153324328Y-86820342D01*
X153273051Y-86728414D01*
X153224630Y-86641604D01*
X153224624Y-86641595D01*
X153112970Y-86506704D01*
X153112963Y-86506698D01*
X152998781Y-86417923D01*
X152998782Y-86417923D01*
X152899736Y-86376908D01*
X152893403Y-86370576D01*
X152893402Y-86361622D01*
X152895400Y-86358402D01*
X153506836Y-85659073D01*
X153514861Y-85655101D01*
X153523345Y-85657967D01*
G37*
%TD.AperFunction*%
%TD*%
%TA.AperFunction,Conductor*%
%TO.N,Net-(U501B-+)*%
G36*
X156713725Y-72628427D02*
G01*
X156717042Y-72635097D01*
X156737063Y-72779859D01*
X156806965Y-72979665D01*
X156906660Y-73158397D01*
X156906666Y-73158406D01*
X157018320Y-73293297D01*
X157018322Y-73293299D01*
X157132508Y-73382076D01*
X157132509Y-73382077D01*
X157231553Y-73423091D01*
X157237886Y-73429423D01*
X157237887Y-73438377D01*
X157235885Y-73441602D01*
X156624454Y-74140925D01*
X156616429Y-74144898D01*
X156607945Y-74142032D01*
X156606838Y-74140925D01*
X155996074Y-73442366D01*
X155993208Y-73433882D01*
X155997181Y-73425857D01*
X156001021Y-73423620D01*
X156055811Y-73404486D01*
X156123501Y-73366561D01*
X156186930Y-73317508D01*
X156255627Y-73248078D01*
X156317457Y-73168787D01*
X156378112Y-73071586D01*
X156428675Y-72969936D01*
X156496274Y-72771345D01*
X156514300Y-72635164D01*
X156518783Y-72627413D01*
X156525899Y-72625000D01*
X156705452Y-72625000D01*
X156713725Y-72628427D01*
G37*
%TD.AperFunction*%
%TD*%
%TA.AperFunction,Conductor*%
%TO.N,/ARCHITECTURE/5. COMPARATOR/~{12V_FAULT}*%
G36*
X151717079Y-76459304D02*
G01*
X152291634Y-76646995D01*
X152557598Y-76733878D01*
X152564398Y-76739705D01*
X152565087Y-76748633D01*
X152559260Y-76755433D01*
X152557598Y-76756122D01*
X151718593Y-77030200D01*
X151709665Y-77029511D01*
X151704127Y-77023499D01*
X151698763Y-77010354D01*
X151669434Y-76968174D01*
X151629298Y-76933157D01*
X151629292Y-76933153D01*
X151559338Y-76894707D01*
X151481753Y-76868253D01*
X151391198Y-76850408D01*
X151391188Y-76850407D01*
X151391187Y-76850407D01*
X151379856Y-76849595D01*
X151326510Y-76845777D01*
X151318502Y-76841768D01*
X151315645Y-76834107D01*
X151315645Y-76655268D01*
X151319072Y-76646995D01*
X151325824Y-76643668D01*
X151469624Y-76624855D01*
X151589598Y-76580967D01*
X151667433Y-76523983D01*
X151703435Y-76464376D01*
X151710644Y-76459068D01*
X151717079Y-76459304D01*
G37*
%TD.AperFunction*%
%TD*%
%TA.AperFunction,Conductor*%
%TO.N,/ARCHITECTURE/1. INTERCONNECTS/VOUT*%
G36*
X178006379Y-64595201D02*
G01*
X178026951Y-64611765D01*
X178279256Y-64863669D01*
X178312790Y-64924966D01*
X178315645Y-64951420D01*
X178315645Y-66625516D01*
X180274599Y-68388575D01*
X180311258Y-68448050D01*
X180315645Y-68480740D01*
X180315645Y-68625516D01*
X174815645Y-68625516D01*
X174815645Y-68480740D01*
X174835330Y-68413701D01*
X174856686Y-68388578D01*
X176815645Y-66625516D01*
X176815645Y-64947791D01*
X176835330Y-64880752D01*
X176847719Y-64864571D01*
X177072479Y-64616296D01*
X177132064Y-64579808D01*
X177164405Y-64575516D01*
X177939340Y-64575516D01*
X178006379Y-64595201D01*
G37*
%TD.AperFunction*%
%TD*%
%TA.AperFunction,Conductor*%
%TO.N,Net-(Q601-B)*%
G36*
X166933208Y-83709564D02*
G01*
X166937042Y-83717657D01*
X166936687Y-83721152D01*
X166921387Y-83780639D01*
X166921384Y-83780655D01*
X166910184Y-83874674D01*
X166910323Y-83973177D01*
X166910323Y-83973184D01*
X166922984Y-84089815D01*
X166947299Y-84207323D01*
X166947303Y-84207340D01*
X166984688Y-84332452D01*
X166984689Y-84332454D01*
X166984692Y-84332461D01*
X166984693Y-84332465D01*
X167018017Y-84417866D01*
X167031367Y-84452076D01*
X167031367Y-84452077D01*
X167044980Y-84477617D01*
X167139608Y-84655160D01*
X167235387Y-84776597D01*
X167237819Y-84785215D01*
X167234473Y-84792115D01*
X167108356Y-84918232D01*
X167100083Y-84921659D01*
X167092145Y-84918554D01*
X167047002Y-84876855D01*
X166947350Y-84799384D01*
X166924955Y-84784762D01*
X166830801Y-84723286D01*
X166830796Y-84723283D01*
X166830794Y-84723282D01*
X166556939Y-84582111D01*
X166273842Y-84477617D01*
X166273821Y-84477611D01*
X166015469Y-84417864D01*
X165812387Y-84401305D01*
X165804420Y-84397217D01*
X165801677Y-84388693D01*
X165802523Y-84385181D01*
X165875914Y-84207340D01*
X166062109Y-83756148D01*
X166068432Y-83749809D01*
X166072337Y-83748927D01*
X166924777Y-83706552D01*
X166933208Y-83709564D01*
G37*
%TD.AperFunction*%
%TD*%
%TA.AperFunction,Conductor*%
%TO.N,Net-(Q601-B)*%
G36*
X175369760Y-88605971D02*
G01*
X175375867Y-88612351D01*
X175628886Y-89252188D01*
X175628742Y-89261141D01*
X175622308Y-89267370D01*
X175621802Y-89267557D01*
X175584675Y-89280290D01*
X175584671Y-89280292D01*
X175540022Y-89311025D01*
X175502923Y-89351990D01*
X175502921Y-89351993D01*
X175502919Y-89351994D01*
X175502918Y-89351997D01*
X175502406Y-89352869D01*
X175464045Y-89418161D01*
X175464044Y-89418163D01*
X175437211Y-89489812D01*
X175437209Y-89489816D01*
X175420840Y-89563082D01*
X175416545Y-89614278D01*
X175412438Y-89622236D01*
X175404886Y-89625000D01*
X175226547Y-89625000D01*
X175218274Y-89621573D01*
X175214876Y-89614125D01*
X175211268Y-89563083D01*
X175205585Y-89482666D01*
X175174589Y-89352869D01*
X175130817Y-89272777D01*
X175084526Y-89238008D01*
X175079968Y-89230300D01*
X175080869Y-89223883D01*
X175354305Y-88611879D01*
X175360808Y-88605725D01*
X175369760Y-88605971D01*
G37*
%TD.AperFunction*%
%TD*%
%TA.AperFunction,Conductor*%
%TO.N,VCC_5V*%
G36*
X154357245Y-65579759D02*
G01*
X154475484Y-65683138D01*
X155056570Y-66191193D01*
X155060543Y-66199218D01*
X155057677Y-66207702D01*
X155056570Y-66208809D01*
X154358011Y-66819572D01*
X154349527Y-66822438D01*
X154341502Y-66818465D01*
X154339264Y-66814622D01*
X154320131Y-66759836D01*
X154311129Y-66743769D01*
X154282210Y-66692152D01*
X154282208Y-66692149D01*
X154282206Y-66692146D01*
X154233153Y-66628717D01*
X154163723Y-66560020D01*
X154084432Y-66498190D01*
X154042526Y-66472040D01*
X153987235Y-66437537D01*
X153885580Y-66386971D01*
X153686991Y-66319373D01*
X153550810Y-66301346D01*
X153543058Y-66296863D01*
X153540645Y-66289747D01*
X153540645Y-66110194D01*
X153544072Y-66101921D01*
X153550740Y-66098604D01*
X153695507Y-66078583D01*
X153895305Y-66008684D01*
X154074046Y-65908984D01*
X154208944Y-65797325D01*
X154297722Y-65683138D01*
X154338737Y-65584091D01*
X154345068Y-65577760D01*
X154354022Y-65577759D01*
X154357245Y-65579759D01*
G37*
%TD.AperFunction*%
%TD*%
%TA.AperFunction,Conductor*%
%TO.N,/ARCHITECTURE/5. COMPARATOR/~{OC_DETECT}*%
G36*
X145071158Y-55653368D02*
G01*
X145470288Y-55921017D01*
X145475251Y-55928471D01*
X145473489Y-55937250D01*
X145473236Y-55937613D01*
X145340735Y-56119910D01*
X145234139Y-56273224D01*
X145206437Y-56333681D01*
X145185992Y-56402897D01*
X145170689Y-56506522D01*
X145170689Y-56506531D01*
X145166069Y-56629134D01*
X145162333Y-56637272D01*
X145154377Y-56640393D01*
X144976683Y-56640393D01*
X144968410Y-56636966D01*
X144965003Y-56629373D01*
X144957850Y-56506532D01*
X144955020Y-56457919D01*
X144922717Y-56329489D01*
X144868089Y-56226909D01*
X144790492Y-56121982D01*
X144656077Y-55937616D01*
X144653973Y-55928913D01*
X144658639Y-55921270D01*
X144658975Y-55921034D01*
X145058130Y-55653368D01*
X145066909Y-55651607D01*
X145071158Y-55653368D01*
G37*
%TD.AperFunction*%
%TD*%
%TA.AperFunction,Conductor*%
%TO.N,Net-(D502-A)*%
G36*
X170353960Y-78077552D02*
G01*
X170356838Y-78079404D01*
X171055543Y-78690294D01*
X171059516Y-78698319D01*
X171056650Y-78706803D01*
X171054669Y-78708604D01*
X170278123Y-79266535D01*
X170269405Y-79268579D01*
X170261794Y-79263860D01*
X170259899Y-79259678D01*
X170246115Y-79200283D01*
X170246115Y-79200282D01*
X170216593Y-79135058D01*
X170216590Y-79135052D01*
X170176073Y-79073888D01*
X170176069Y-79073884D01*
X170116355Y-79007216D01*
X170046543Y-78947110D01*
X170046533Y-78947103D01*
X169958239Y-78887187D01*
X169958226Y-78887179D01*
X169864737Y-78837150D01*
X169678003Y-78769374D01*
X169678002Y-78769373D01*
X169550711Y-78751419D01*
X169542997Y-78746871D01*
X169540645Y-78739834D01*
X169540645Y-78560437D01*
X169544072Y-78552164D01*
X169551013Y-78548813D01*
X169676874Y-78534412D01*
X169884888Y-78471603D01*
X170070449Y-78379878D01*
X170208488Y-78277316D01*
X170297927Y-78173008D01*
X170338477Y-78083388D01*
X170345010Y-78077264D01*
X170353960Y-78077552D01*
G37*
%TD.AperFunction*%
%TD*%
%TA.AperFunction,Conductor*%
%TO.N,GND*%
G36*
X149164025Y-68403427D02*
G01*
X149167289Y-68409755D01*
X149184171Y-68509922D01*
X149184172Y-68509926D01*
X149211730Y-68581998D01*
X149211731Y-68581999D01*
X149211732Y-68582001D01*
X149250718Y-68655473D01*
X149306607Y-68727958D01*
X149349924Y-68784138D01*
X149465318Y-68878559D01*
X149465321Y-68878560D01*
X149465323Y-68878562D01*
X149588060Y-68935319D01*
X149692743Y-68951443D01*
X149700398Y-68956090D01*
X149702526Y-68964788D01*
X149699210Y-68971305D01*
X149073893Y-69592801D01*
X149065609Y-69596203D01*
X149057397Y-69592801D01*
X148433117Y-68972336D01*
X148429665Y-68964074D01*
X148433067Y-68955790D01*
X148440142Y-68952403D01*
X148501092Y-68946014D01*
X148572259Y-68925435D01*
X148638777Y-68894630D01*
X148708261Y-68849199D01*
X148770679Y-68794922D01*
X148830364Y-68727956D01*
X148880123Y-68656211D01*
X148946283Y-68512620D01*
X148963974Y-68409717D01*
X148968753Y-68402145D01*
X148975505Y-68400000D01*
X149155752Y-68400000D01*
X149164025Y-68403427D01*
G37*
%TD.AperFunction*%
%TD*%
%TA.AperFunction,Conductor*%
%TO.N,/ARCHITECTURE/5. COMPARATOR/~{OC_DETECT}*%
G36*
X145162674Y-58013427D02*
G01*
X145166092Y-58021234D01*
X145166547Y-58032668D01*
X145166547Y-58032670D01*
X145191268Y-58150091D01*
X145237017Y-58239615D01*
X145237018Y-58239616D01*
X145237020Y-58239619D01*
X145294687Y-58291866D01*
X145345783Y-58304924D01*
X145352950Y-58310293D01*
X145354222Y-58319157D01*
X145351173Y-58324519D01*
X145073932Y-58602685D01*
X145065664Y-58606126D01*
X145057386Y-58602713D01*
X145057358Y-58602685D01*
X144782390Y-58326801D01*
X144778977Y-58318523D01*
X144782418Y-58310255D01*
X144789168Y-58306940D01*
X144804458Y-58304951D01*
X144845172Y-58286735D01*
X144879175Y-58257847D01*
X144917046Y-58203310D01*
X144943211Y-58140584D01*
X144960341Y-58069337D01*
X144964692Y-58020657D01*
X144968842Y-58012723D01*
X144976346Y-58010000D01*
X145154401Y-58010000D01*
X145162674Y-58013427D01*
G37*
%TD.AperFunction*%
%TD*%
%TA.AperFunction,Conductor*%
%TO.N,GND*%
G36*
X149162983Y-88358711D02*
G01*
X149166383Y-88366194D01*
X149171904Y-88447807D01*
X149188737Y-88516964D01*
X149229438Y-88595198D01*
X149242441Y-88620193D01*
X149290462Y-88705103D01*
X149291168Y-88706586D01*
X149314762Y-88766657D01*
X149315203Y-88768018D01*
X149332289Y-88834414D01*
X149331032Y-88843280D01*
X149323874Y-88848661D01*
X149323281Y-88848797D01*
X149067968Y-88900529D01*
X149063322Y-88900529D01*
X148808636Y-88848924D01*
X148801208Y-88843922D01*
X148799492Y-88835134D01*
X148799790Y-88833973D01*
X148838048Y-88711341D01*
X148839002Y-88709125D01*
X148888739Y-88620386D01*
X148888963Y-88620006D01*
X148904374Y-88595202D01*
X148948129Y-88499567D01*
X148960955Y-88436534D01*
X148965008Y-88366308D01*
X148968906Y-88358248D01*
X148976689Y-88355284D01*
X149154710Y-88355284D01*
X149162983Y-88358711D01*
G37*
%TD.AperFunction*%
%TD*%
%TA.AperFunction,Conductor*%
%TO.N,Net-(U502A-+)*%
G36*
X142323891Y-58957197D02*
G01*
X142949005Y-59578490D01*
X142952457Y-59586751D01*
X142949055Y-59595035D01*
X142942423Y-59598368D01*
X142868233Y-59609042D01*
X142802009Y-59634230D01*
X142739921Y-59670156D01*
X142672843Y-59723673D01*
X142672839Y-59723676D01*
X142612385Y-59786941D01*
X142552507Y-59867028D01*
X142502515Y-59952260D01*
X142435006Y-60122971D01*
X142429073Y-60161900D01*
X142417839Y-60235612D01*
X142417160Y-60240064D01*
X142412526Y-60247726D01*
X142405594Y-60250001D01*
X142227085Y-60250001D01*
X142218812Y-60246574D01*
X142215388Y-60238565D01*
X142215321Y-60235612D01*
X142215321Y-60235608D01*
X142205619Y-60161900D01*
X142182999Y-60079358D01*
X142106067Y-59910970D01*
X142004885Y-59770855D01*
X142004884Y-59770854D01*
X142004885Y-59770854D01*
X141946553Y-59718777D01*
X141894477Y-59672286D01*
X141781267Y-59614669D01*
X141704880Y-59601692D01*
X141688057Y-59598835D01*
X141680475Y-59594071D01*
X141678482Y-59585340D01*
X141681768Y-59579003D01*
X142307398Y-58957197D01*
X142315681Y-58953796D01*
X142323891Y-58957197D01*
G37*
%TD.AperFunction*%
%TD*%
%TA.AperFunction,Conductor*%
%TO.N,/ARCHITECTURE/5. COMPARATOR/V_ISENSE*%
G36*
X142931322Y-63269685D02*
G01*
X142951964Y-63286319D01*
X143129326Y-63463681D01*
X143162811Y-63525004D01*
X143165645Y-63551362D01*
X143165645Y-64198638D01*
X143145960Y-64265677D01*
X143129326Y-64286319D01*
X142965645Y-64449999D01*
X142965645Y-70125773D01*
X142956527Y-70172444D01*
X142753310Y-70672671D01*
X142709841Y-70727372D01*
X142643698Y-70749888D01*
X142638428Y-70750000D01*
X142064501Y-70750000D01*
X141997462Y-70730315D01*
X141955469Y-70685059D01*
X141680613Y-70177633D01*
X141665645Y-70118574D01*
X141665645Y-64782812D01*
X141232833Y-64350000D01*
X139985757Y-64350000D01*
X139956316Y-64341355D01*
X139926330Y-64334832D01*
X139921314Y-64331077D01*
X139918718Y-64330315D01*
X139898076Y-64313681D01*
X139801964Y-64217569D01*
X139768479Y-64156246D01*
X139765645Y-64129888D01*
X139765645Y-63726362D01*
X139785330Y-63659323D01*
X139801964Y-63638681D01*
X139954326Y-63486319D01*
X140015649Y-63452834D01*
X140042007Y-63450000D01*
X141465645Y-63450000D01*
X141465645Y-63437544D01*
X141470955Y-63419459D01*
X141471272Y-63400614D01*
X141484835Y-63372187D01*
X141485330Y-63370505D01*
X141486471Y-63368761D01*
X141528834Y-63305217D01*
X141582400Y-63260356D01*
X141632008Y-63250000D01*
X142864283Y-63250000D01*
X142931322Y-63269685D01*
G37*
%TD.AperFunction*%
%TD*%
%TA.AperFunction,Conductor*%
%TO.N,GND*%
G36*
X151412983Y-87858711D02*
G01*
X151416383Y-87866194D01*
X151421904Y-87947807D01*
X151438737Y-88016964D01*
X151479438Y-88095198D01*
X151492441Y-88120193D01*
X151540462Y-88205103D01*
X151541168Y-88206586D01*
X151564762Y-88266657D01*
X151565203Y-88268018D01*
X151582289Y-88334414D01*
X151581032Y-88343280D01*
X151573874Y-88348661D01*
X151573281Y-88348797D01*
X151317968Y-88400529D01*
X151313322Y-88400529D01*
X151058636Y-88348924D01*
X151051208Y-88343922D01*
X151049492Y-88335134D01*
X151049790Y-88333973D01*
X151088048Y-88211341D01*
X151089002Y-88209125D01*
X151138739Y-88120386D01*
X151138963Y-88120006D01*
X151154374Y-88095202D01*
X151198129Y-87999567D01*
X151210955Y-87936534D01*
X151215008Y-87866308D01*
X151218906Y-87858248D01*
X151226689Y-87855284D01*
X151404710Y-87855284D01*
X151412983Y-87858711D01*
G37*
%TD.AperFunction*%
%TD*%
%TA.AperFunction,Conductor*%
%TO.N,/ARCHITECTURE/5. COMPARATOR/~{OC_DETECT}*%
G36*
X145162674Y-58013427D02*
G01*
X145166092Y-58021234D01*
X145166547Y-58032668D01*
X145166547Y-58032670D01*
X145191268Y-58150091D01*
X145237017Y-58239615D01*
X145237018Y-58239616D01*
X145237020Y-58239619D01*
X145294687Y-58291866D01*
X145345783Y-58304924D01*
X145352950Y-58310293D01*
X145354222Y-58319157D01*
X145351173Y-58324519D01*
X145073932Y-58602685D01*
X145065664Y-58606126D01*
X145057386Y-58602713D01*
X145057358Y-58602685D01*
X144782390Y-58326801D01*
X144778977Y-58318523D01*
X144782418Y-58310255D01*
X144789168Y-58306940D01*
X144804458Y-58304951D01*
X144845172Y-58286735D01*
X144879175Y-58257847D01*
X144917046Y-58203310D01*
X144943211Y-58140584D01*
X144960341Y-58069337D01*
X144964692Y-58020657D01*
X144968842Y-58012723D01*
X144976346Y-58010000D01*
X145154401Y-58010000D01*
X145162674Y-58013427D01*
G37*
%TD.AperFunction*%
%TD*%
%TA.AperFunction,Conductor*%
%TO.N,Net-(U501A--)*%
G36*
X156210004Y-81752552D02*
G01*
X156293578Y-81832239D01*
X156293582Y-81832242D01*
X156293588Y-81832248D01*
X156367226Y-81894094D01*
X156547406Y-82045421D01*
X156646118Y-82112956D01*
X156754335Y-82186995D01*
X156754337Y-82186996D01*
X156754340Y-82186998D01*
X156897483Y-82256389D01*
X156975594Y-82272157D01*
X156983026Y-82277154D01*
X156984748Y-82285941D01*
X156984042Y-82288214D01*
X156623003Y-83135107D01*
X156616606Y-83141374D01*
X156607652Y-83141282D01*
X156604130Y-83138953D01*
X155976835Y-82535759D01*
X155973247Y-82527554D01*
X155976511Y-82519215D01*
X155979065Y-82517210D01*
X156058322Y-82471209D01*
X156099708Y-82430016D01*
X156130974Y-82383763D01*
X156155741Y-82325133D01*
X156169291Y-82263086D01*
X156172662Y-82187583D01*
X156164359Y-82112953D01*
X156164357Y-82112948D01*
X156164357Y-82112943D01*
X156154797Y-82075499D01*
X156145236Y-82038046D01*
X156118128Y-81971311D01*
X156065744Y-81894094D01*
X156063935Y-81885324D01*
X156067151Y-81879255D01*
X156193659Y-81752747D01*
X156201931Y-81749321D01*
X156210004Y-81752552D01*
G37*
%TD.AperFunction*%
%TD*%
%TA.AperFunction,Conductor*%
%TO.N,VREF_2V5*%
G36*
X153557190Y-79339581D02*
G01*
X153565253Y-79343474D01*
X153567826Y-79348249D01*
X153577818Y-79385737D01*
X153577819Y-79385739D01*
X153621231Y-79432729D01*
X153754192Y-79525145D01*
X153860307Y-79600455D01*
X153865071Y-79608036D01*
X153863077Y-79616766D01*
X153861809Y-79618268D01*
X153631653Y-79848424D01*
X153623380Y-79851851D01*
X153615913Y-79849158D01*
X153533544Y-79780871D01*
X153533534Y-79780864D01*
X153533535Y-79780864D01*
X153533532Y-79780862D01*
X153452468Y-79731570D01*
X153452466Y-79731569D01*
X153452461Y-79731566D01*
X153452457Y-79731564D01*
X153360766Y-79688661D01*
X153253035Y-79650617D01*
X153253022Y-79650613D01*
X153253019Y-79650612D01*
X153241093Y-79647560D01*
X153134587Y-79620311D01*
X153001039Y-79597415D01*
X152857353Y-79583589D01*
X152857322Y-79583587D01*
X152701159Y-79579202D01*
X152701143Y-79579203D01*
X152701137Y-79579203D01*
X152701131Y-79579203D01*
X152650817Y-79580966D01*
X152550259Y-79584491D01*
X152541871Y-79581356D01*
X152538156Y-79573208D01*
X152538333Y-79570732D01*
X152588101Y-79294489D01*
X152592940Y-79286956D01*
X152600282Y-79284884D01*
X153557190Y-79339581D01*
G37*
%TD.AperFunction*%
%TD*%
%TA.AperFunction,Conductor*%
%TO.N,Net-(U501B-+)*%
G36*
X158421624Y-80270488D02*
G01*
X158427161Y-80276500D01*
X158432523Y-80289638D01*
X158432530Y-80289651D01*
X158461852Y-80331820D01*
X158461856Y-80331825D01*
X158501993Y-80366843D01*
X158571955Y-80405293D01*
X158571957Y-80405294D01*
X158649536Y-80431746D01*
X158740091Y-80449591D01*
X158740094Y-80449591D01*
X158740103Y-80449593D01*
X158804780Y-80454222D01*
X158812788Y-80458231D01*
X158815645Y-80465892D01*
X158815645Y-80644731D01*
X158812218Y-80653004D01*
X158805463Y-80656332D01*
X158661666Y-80675144D01*
X158661664Y-80675145D01*
X158541693Y-80719031D01*
X158541688Y-80719034D01*
X158463860Y-80776012D01*
X158463857Y-80776015D01*
X158427856Y-80835621D01*
X158420645Y-80840931D01*
X158414208Y-80840694D01*
X157849841Y-80656332D01*
X157573690Y-80566121D01*
X157566891Y-80560295D01*
X157566202Y-80551367D01*
X157572029Y-80544567D01*
X157573689Y-80543878D01*
X158412697Y-80269799D01*
X158421624Y-80270488D01*
G37*
%TD.AperFunction*%
%TD*%
%TA.AperFunction,Conductor*%
%TO.N,/ARCHITECTURE/5. COMPARATOR/LATCH_IN*%
G36*
X151857245Y-60529758D02*
G01*
X151975484Y-60633137D01*
X152556570Y-61141192D01*
X152560543Y-61149217D01*
X152557677Y-61157701D01*
X152556570Y-61158808D01*
X151858011Y-61769571D01*
X151849527Y-61772437D01*
X151841502Y-61768464D01*
X151839264Y-61764621D01*
X151820131Y-61709835D01*
X151811129Y-61693768D01*
X151782210Y-61642151D01*
X151782208Y-61642148D01*
X151782206Y-61642145D01*
X151733153Y-61578716D01*
X151663723Y-61510019D01*
X151584432Y-61448189D01*
X151542526Y-61422039D01*
X151487235Y-61387536D01*
X151385580Y-61336970D01*
X151186991Y-61269372D01*
X151050810Y-61251345D01*
X151043058Y-61246862D01*
X151040645Y-61239746D01*
X151040645Y-61060193D01*
X151044072Y-61051920D01*
X151050740Y-61048603D01*
X151195507Y-61028582D01*
X151395305Y-60958683D01*
X151574046Y-60858983D01*
X151708944Y-60747324D01*
X151797722Y-60633137D01*
X151838737Y-60534090D01*
X151845068Y-60527759D01*
X151854022Y-60527758D01*
X151857245Y-60529758D01*
G37*
%TD.AperFunction*%
%TD*%
%TA.AperFunction,Conductor*%
%TO.N,Net-(U501A--)*%
G36*
X156713725Y-84128427D02*
G01*
X156717042Y-84135097D01*
X156737063Y-84279859D01*
X156806965Y-84479665D01*
X156906660Y-84658397D01*
X156906666Y-84658406D01*
X157018320Y-84793297D01*
X157018322Y-84793299D01*
X157132508Y-84882076D01*
X157132509Y-84882077D01*
X157231553Y-84923091D01*
X157237886Y-84929423D01*
X157237887Y-84938377D01*
X157235885Y-84941602D01*
X156624454Y-85640925D01*
X156616429Y-85644898D01*
X156607945Y-85642032D01*
X156606838Y-85640925D01*
X155996074Y-84942366D01*
X155993208Y-84933882D01*
X155997181Y-84925857D01*
X156001021Y-84923620D01*
X156055811Y-84904486D01*
X156123501Y-84866561D01*
X156186930Y-84817508D01*
X156255627Y-84748078D01*
X156317457Y-84668787D01*
X156378112Y-84571586D01*
X156428675Y-84469936D01*
X156496274Y-84271345D01*
X156514300Y-84135164D01*
X156518783Y-84127413D01*
X156525899Y-84125000D01*
X156705452Y-84125000D01*
X156713725Y-84128427D01*
G37*
%TD.AperFunction*%
%TD*%
%TA.AperFunction,Conductor*%
%TO.N,GND*%
G36*
X167413004Y-59528426D02*
G01*
X167416388Y-59535699D01*
X167422343Y-59605094D01*
X167422345Y-59605104D01*
X167441407Y-59695545D01*
X167441413Y-59695566D01*
X167505722Y-59869935D01*
X167588792Y-60006362D01*
X167659612Y-60077625D01*
X167678909Y-60097043D01*
X167720796Y-60119212D01*
X167757381Y-60138575D01*
X167763090Y-60145474D01*
X167762249Y-60154389D01*
X167759525Y-60157797D01*
X167323263Y-60531965D01*
X167314752Y-60534750D01*
X167308029Y-60531965D01*
X166872674Y-60158576D01*
X166868625Y-60150589D01*
X166871410Y-60142078D01*
X166875464Y-60139037D01*
X166919274Y-60119214D01*
X166976219Y-60077628D01*
X167027471Y-60024961D01*
X167082283Y-59948990D01*
X167128063Y-59864713D01*
X167167915Y-59767173D01*
X167195982Y-59671293D01*
X167214283Y-59535137D01*
X167218781Y-59527398D01*
X167225875Y-59524999D01*
X167404731Y-59524999D01*
X167413004Y-59528426D01*
G37*
%TD.AperFunction*%
%TD*%
%TA.AperFunction,Conductor*%
%TO.N,/ARCHITECTURE/5. COMPARATOR/~{OC_DETECT}*%
G36*
X145071158Y-55653368D02*
G01*
X145470288Y-55921017D01*
X145475251Y-55928471D01*
X145473489Y-55937250D01*
X145473236Y-55937613D01*
X145340735Y-56119910D01*
X145234139Y-56273224D01*
X145206437Y-56333681D01*
X145185992Y-56402897D01*
X145170689Y-56506522D01*
X145170689Y-56506531D01*
X145166069Y-56629134D01*
X145162333Y-56637272D01*
X145154377Y-56640393D01*
X144976683Y-56640393D01*
X144968410Y-56636966D01*
X144965003Y-56629373D01*
X144957850Y-56506532D01*
X144955020Y-56457919D01*
X144922717Y-56329489D01*
X144868089Y-56226909D01*
X144790492Y-56121982D01*
X144656077Y-55937616D01*
X144653973Y-55928913D01*
X144658639Y-55921270D01*
X144658975Y-55921034D01*
X145058130Y-55653368D01*
X145066909Y-55651607D01*
X145071158Y-55653368D01*
G37*
%TD.AperFunction*%
%TD*%
%TA.AperFunction,Conductor*%
%TO.N,/ARCHITECTURE/5. COMPARATOR/LATCH_IN*%
G36*
X150896624Y-60865488D02*
G01*
X150902161Y-60871500D01*
X150907523Y-60884638D01*
X150907530Y-60884651D01*
X150936852Y-60926820D01*
X150936856Y-60926825D01*
X150976993Y-60961843D01*
X151046955Y-61000293D01*
X151046957Y-61000294D01*
X151124536Y-61026746D01*
X151215091Y-61044591D01*
X151215094Y-61044591D01*
X151215103Y-61044593D01*
X151279780Y-61049222D01*
X151287788Y-61053231D01*
X151290645Y-61060892D01*
X151290645Y-61239731D01*
X151287218Y-61248004D01*
X151280463Y-61251332D01*
X151136666Y-61270144D01*
X151136664Y-61270145D01*
X151016693Y-61314031D01*
X151016688Y-61314034D01*
X150938860Y-61371012D01*
X150938857Y-61371015D01*
X150902856Y-61430621D01*
X150895645Y-61435931D01*
X150889208Y-61435694D01*
X150324841Y-61251332D01*
X150048690Y-61161121D01*
X150041891Y-61155295D01*
X150041202Y-61146367D01*
X150047029Y-61139567D01*
X150048689Y-61138878D01*
X150887697Y-60864799D01*
X150896624Y-60865488D01*
G37*
%TD.AperFunction*%
%TD*%
%TA.AperFunction,Conductor*%
%TO.N,GND*%
G36*
X151572653Y-68951075D02*
G01*
X151580081Y-68956077D01*
X151581797Y-68964865D01*
X151581499Y-68966026D01*
X151543245Y-69088646D01*
X151542282Y-69090883D01*
X151492565Y-69179583D01*
X151492298Y-69180036D01*
X151476913Y-69204802D01*
X151433163Y-69300426D01*
X151433160Y-69300435D01*
X151420336Y-69363456D01*
X151420335Y-69363463D01*
X151420335Y-69363466D01*
X151416281Y-69433691D01*
X151412384Y-69441752D01*
X151404601Y-69444716D01*
X151226580Y-69444716D01*
X151218307Y-69441289D01*
X151214907Y-69433806D01*
X151210148Y-69363466D01*
X151209386Y-69352196D01*
X151192553Y-69283037D01*
X151138848Y-69179806D01*
X151090826Y-69094895D01*
X151090120Y-69093412D01*
X151066527Y-69033341D01*
X151066086Y-69031980D01*
X151049000Y-68965584D01*
X151050257Y-68956719D01*
X151057415Y-68951338D01*
X151057987Y-68951206D01*
X151313325Y-68899470D01*
X151317965Y-68899470D01*
X151572653Y-68951075D01*
G37*
%TD.AperFunction*%
%TD*%
%TA.AperFunction,Conductor*%
%TO.N,GND*%
G36*
X133081322Y-85919685D02*
G01*
X133101964Y-85936319D01*
X133965645Y-86800000D01*
X136491645Y-86800000D01*
X136558684Y-86819685D01*
X136604439Y-86872489D01*
X136615645Y-86924000D01*
X136615645Y-88376000D01*
X136595960Y-88443039D01*
X136543156Y-88488794D01*
X136491645Y-88500000D01*
X132668705Y-88500000D01*
X132601666Y-88480315D01*
X132579009Y-88461619D01*
X131599949Y-87435937D01*
X131567899Y-87373852D01*
X131565645Y-87350318D01*
X131565645Y-86024000D01*
X131585330Y-85956961D01*
X131638134Y-85911206D01*
X131689645Y-85900000D01*
X133014283Y-85900000D01*
X133081322Y-85919685D01*
G37*
%TD.AperFunction*%
%TD*%
%TA.AperFunction,Conductor*%
%TO.N,GND*%
G36*
X138207533Y-63453396D02*
G01*
X138210941Y-63456120D01*
X138585110Y-63892383D01*
X138587895Y-63900894D01*
X138585110Y-63907617D01*
X138211719Y-64342971D01*
X138203732Y-64347020D01*
X138195221Y-64344235D01*
X138192181Y-64340181D01*
X138172358Y-64296373D01*
X138130772Y-64239427D01*
X138078104Y-64188175D01*
X138078101Y-64188172D01*
X138078099Y-64188171D01*
X138056686Y-64172722D01*
X138002134Y-64133363D01*
X137917856Y-64087583D01*
X137820315Y-64047731D01*
X137820316Y-64047731D01*
X137724434Y-64019663D01*
X137588284Y-64001363D01*
X137580541Y-63996864D01*
X137578143Y-63989767D01*
X137578143Y-63810913D01*
X137581570Y-63802640D01*
X137588841Y-63799256D01*
X137629355Y-63795779D01*
X137658239Y-63793301D01*
X137658241Y-63793300D01*
X137658247Y-63793300D01*
X137748704Y-63774234D01*
X137923079Y-63709923D01*
X138059507Y-63626853D01*
X138150187Y-63536737D01*
X138191719Y-63458263D01*
X138198618Y-63452555D01*
X138207533Y-63453396D01*
G37*
%TD.AperFunction*%
%TD*%
%TA.AperFunction,Conductor*%
%TO.N,/ARCHITECTURE/3. SENSING/VSENSE_12V*%
G36*
X151721280Y-83921012D02*
G01*
X151726243Y-83928465D01*
X151724481Y-83937245D01*
X151724223Y-83937615D01*
X151590765Y-84120950D01*
X151484074Y-84274101D01*
X151456399Y-84334471D01*
X151435959Y-84403659D01*
X151435959Y-84403660D01*
X151420684Y-84507001D01*
X151420684Y-84507003D01*
X151416070Y-84629135D01*
X151412333Y-84637273D01*
X151404378Y-84640393D01*
X151226686Y-84640393D01*
X151218413Y-84636966D01*
X151215006Y-84629370D01*
X151214992Y-84629135D01*
X151211616Y-84570862D01*
X151205058Y-84457665D01*
X151205057Y-84457661D01*
X151205057Y-84457658D01*
X151172818Y-84329061D01*
X151118212Y-84226270D01*
X151061952Y-84150000D01*
X151040525Y-84120952D01*
X150899910Y-83927785D01*
X151315645Y-83649000D01*
X151721280Y-83921012D01*
G37*
%TD.AperFunction*%
%TD*%
%TA.AperFunction,Conductor*%
%TO.N,/ARCHITECTURE/5. COMPARATOR/~{17V_FAULT}*%
G36*
X154158749Y-71387313D02*
G01*
X154165072Y-71393654D01*
X154165955Y-71397904D01*
X154166597Y-71433164D01*
X154178183Y-71563402D01*
X154201761Y-71697472D01*
X154240262Y-71848110D01*
X154289862Y-71997722D01*
X154289863Y-71997724D01*
X154350801Y-72148210D01*
X154419417Y-72291025D01*
X154562293Y-72527844D01*
X154685056Y-72676559D01*
X154687680Y-72685119D01*
X154684306Y-72692279D01*
X154557873Y-72818712D01*
X154549600Y-72822139D01*
X154542213Y-72819512D01*
X154443571Y-72739188D01*
X154443569Y-72739186D01*
X154347809Y-72680034D01*
X154296246Y-72654053D01*
X154238971Y-72625194D01*
X154238967Y-72625192D01*
X154238960Y-72625189D01*
X154011478Y-72541928D01*
X153799112Y-72499687D01*
X153799117Y-72499687D01*
X153687807Y-72497459D01*
X153618244Y-72496067D01*
X153618243Y-72496067D01*
X153618239Y-72496067D01*
X153618237Y-72496067D01*
X153486097Y-72522105D01*
X153477317Y-72520342D01*
X153472356Y-72512888D01*
X153472149Y-72510045D01*
X153472844Y-72496067D01*
X153514569Y-71656695D01*
X153518402Y-71648605D01*
X153521788Y-71646465D01*
X154149796Y-71387302D01*
X154158749Y-71387313D01*
G37*
%TD.AperFunction*%
%TD*%
%TA.AperFunction,Conductor*%
%TO.N,VCC_5V*%
G36*
X169512093Y-82577214D02*
G01*
X169638317Y-82703438D01*
X169641744Y-82711711D01*
X169638933Y-82719318D01*
X169594694Y-82771010D01*
X169594685Y-82771022D01*
X169545357Y-82845629D01*
X169496504Y-82938864D01*
X169453573Y-83042946D01*
X169433823Y-83115623D01*
X169395908Y-83255138D01*
X169377310Y-83450998D01*
X169377310Y-83451001D01*
X169377310Y-83451005D01*
X169393956Y-83617857D01*
X169393958Y-83617867D01*
X169435314Y-83738570D01*
X169434754Y-83747507D01*
X169428038Y-83753430D01*
X169424200Y-83754062D01*
X168572535Y-83750738D01*
X168564276Y-83747279D01*
X168561874Y-83743756D01*
X168506402Y-83617863D01*
X168285102Y-83115622D01*
X168284903Y-83106670D01*
X168291092Y-83100198D01*
X168295071Y-83099228D01*
X168397756Y-83092753D01*
X168397759Y-83092752D01*
X168397765Y-83092752D01*
X168496552Y-83076636D01*
X168517562Y-83073209D01*
X168658885Y-83037445D01*
X168801127Y-82989587D01*
X168951796Y-82927076D01*
X169096097Y-82855903D01*
X169342760Y-82704031D01*
X169496346Y-82576485D01*
X169504899Y-82573837D01*
X169512093Y-82577214D01*
G37*
%TD.AperFunction*%
%TD*%
%TA.AperFunction,Conductor*%
%TO.N,VCC_5V*%
G36*
X170181323Y-61669685D02*
G01*
X170201964Y-61686318D01*
X170465646Y-61950000D01*
X172548659Y-61950000D01*
X172615698Y-61969685D01*
X172636340Y-61986319D01*
X172829327Y-62179305D01*
X172862812Y-62240628D01*
X172865646Y-62266986D01*
X172865646Y-62961138D01*
X172845961Y-63028177D01*
X172829327Y-63048819D01*
X172564465Y-63313681D01*
X172503142Y-63347166D01*
X172476784Y-63350000D01*
X171515646Y-63350000D01*
X171065646Y-63800000D01*
X171065646Y-65546412D01*
X171064879Y-65549023D01*
X171065535Y-65551666D01*
X171055090Y-65582359D01*
X171045961Y-65613451D01*
X171043635Y-65616022D01*
X171043027Y-65617811D01*
X171018805Y-65643482D01*
X170972835Y-65680021D01*
X170855774Y-65773071D01*
X170791048Y-65799375D01*
X170778618Y-65800000D01*
X170065645Y-65800000D01*
X169515646Y-66350000D01*
X169515646Y-67026000D01*
X169495961Y-67093039D01*
X169443157Y-67138794D01*
X169391646Y-67150000D01*
X168639646Y-67150000D01*
X168572607Y-67130315D01*
X168526852Y-67077511D01*
X168515646Y-67026000D01*
X168515646Y-64849999D01*
X168265646Y-64600000D01*
X168115246Y-64487200D01*
X168073425Y-64431229D01*
X168065646Y-64388000D01*
X168065646Y-63250001D01*
X168065645Y-63250000D01*
X167565646Y-62750000D01*
X167092008Y-62750000D01*
X167062567Y-62741355D01*
X167032581Y-62734832D01*
X167027565Y-62731077D01*
X167024969Y-62730315D01*
X167004327Y-62713681D01*
X166901964Y-62611317D01*
X166868480Y-62549996D01*
X166865646Y-62523646D01*
X166865646Y-62007610D01*
X166885331Y-61940572D01*
X166901960Y-61919935D01*
X167035579Y-61786316D01*
X167096900Y-61752833D01*
X167123249Y-61749999D01*
X168465645Y-61749999D01*
X168529327Y-61686317D01*
X168590651Y-61652834D01*
X168617008Y-61650000D01*
X170114284Y-61650000D01*
X170181323Y-61669685D01*
G37*
%TD.AperFunction*%
%TD*%
%TA.AperFunction,Conductor*%
%TO.N,/ARCHITECTURE/3. SENSING/VSENSE_17V*%
G36*
X151602890Y-73241163D02*
G01*
X151603260Y-73241421D01*
X151786597Y-73374880D01*
X151939746Y-73481570D01*
X151939746Y-73481571D01*
X151939747Y-73481571D01*
X151939748Y-73481572D01*
X152000121Y-73509248D01*
X152069302Y-73529685D01*
X152172651Y-73544961D01*
X152294781Y-73549574D01*
X152302918Y-73553311D01*
X152306038Y-73561266D01*
X152306038Y-73738958D01*
X152302611Y-73747231D01*
X152295015Y-73750638D01*
X152123309Y-73760586D01*
X151994708Y-73792826D01*
X151994706Y-73792826D01*
X151994706Y-73792827D01*
X151891914Y-73847433D01*
X151891912Y-73847434D01*
X151891909Y-73847436D01*
X151786600Y-73925117D01*
X151786541Y-73925160D01*
X151603260Y-74058578D01*
X151594554Y-74060677D01*
X151586915Y-74056005D01*
X151586657Y-74055635D01*
X151319015Y-73656515D01*
X151317253Y-73647735D01*
X151319015Y-73643483D01*
X151586658Y-73244363D01*
X151594110Y-73239401D01*
X151602890Y-73241163D01*
G37*
%TD.AperFunction*%
%TD*%
%TA.AperFunction,Conductor*%
%TO.N,GND*%
G36*
X145162983Y-63108711D02*
G01*
X145166383Y-63116194D01*
X145171904Y-63197807D01*
X145188737Y-63266964D01*
X145229438Y-63345198D01*
X145242441Y-63370193D01*
X145290462Y-63455103D01*
X145291168Y-63456586D01*
X145314762Y-63516657D01*
X145315203Y-63518018D01*
X145332289Y-63584414D01*
X145331032Y-63593280D01*
X145323874Y-63598661D01*
X145323281Y-63598797D01*
X145067968Y-63650529D01*
X145063322Y-63650529D01*
X144808636Y-63598924D01*
X144801208Y-63593922D01*
X144799492Y-63585134D01*
X144799790Y-63583973D01*
X144838048Y-63461341D01*
X144839002Y-63459125D01*
X144888739Y-63370386D01*
X144888963Y-63370006D01*
X144904374Y-63345202D01*
X144948129Y-63249567D01*
X144960955Y-63186534D01*
X144965008Y-63116308D01*
X144968906Y-63108248D01*
X144976689Y-63105284D01*
X145154710Y-63105284D01*
X145162983Y-63108711D01*
G37*
%TD.AperFunction*%
%TD*%
%TA.AperFunction,Conductor*%
%TO.N,/ARCHITECTURE/5. COMPARATOR/EN_OK*%
G36*
X166393822Y-74869685D02*
G01*
X166414464Y-74886319D01*
X166529326Y-75001181D01*
X166562811Y-75062504D01*
X166565645Y-75088862D01*
X166565645Y-79406250D01*
X167209395Y-80050000D01*
X169089283Y-80050000D01*
X169118723Y-80058644D01*
X169148710Y-80065168D01*
X169153725Y-80068922D01*
X169156322Y-80069685D01*
X169176964Y-80086319D01*
X169329326Y-80238681D01*
X169362811Y-80300004D01*
X169365645Y-80326362D01*
X169365645Y-80898638D01*
X169345960Y-80965677D01*
X169329326Y-80986319D01*
X169101964Y-81213681D01*
X169040641Y-81247166D01*
X169014283Y-81250000D01*
X165598257Y-81250000D01*
X165531218Y-81230315D01*
X165510576Y-81213681D01*
X165301964Y-81005069D01*
X165268479Y-80943746D01*
X165265645Y-80917388D01*
X165265645Y-80101362D01*
X165285330Y-80034323D01*
X165301964Y-80013681D01*
X165565645Y-79750000D01*
X165565645Y-79375000D01*
X165340645Y-79150000D01*
X164189645Y-79150000D01*
X164122606Y-79130315D01*
X164076851Y-79077511D01*
X164065645Y-79026000D01*
X164065645Y-78274000D01*
X164085330Y-78206961D01*
X164138134Y-78161206D01*
X164189645Y-78150000D01*
X165128145Y-78150000D01*
X165565645Y-77712500D01*
X165565645Y-75151362D01*
X165585330Y-75084323D01*
X165601964Y-75063681D01*
X165779326Y-74886319D01*
X165840649Y-74852834D01*
X165867007Y-74850000D01*
X166326783Y-74850000D01*
X166393822Y-74869685D01*
G37*
%TD.AperFunction*%
%TD*%
%TA.AperFunction,Conductor*%
%TO.N,GND*%
G36*
X146508925Y-69634612D02*
G01*
X146514306Y-69641770D01*
X146514442Y-69642363D01*
X146566174Y-69897677D01*
X146566174Y-69902323D01*
X146514569Y-70157008D01*
X146509567Y-70164436D01*
X146500779Y-70166152D01*
X146499618Y-70165854D01*
X146376997Y-70127600D01*
X146374760Y-70126637D01*
X146286060Y-70076920D01*
X146285607Y-70076652D01*
X146260852Y-70061273D01*
X146260845Y-70061269D01*
X146165218Y-70017518D01*
X146165209Y-70017515D01*
X146102188Y-70004691D01*
X146102182Y-70004690D01*
X146102179Y-70004690D01*
X146066100Y-70002607D01*
X146031955Y-70000636D01*
X146023893Y-69996737D01*
X146020929Y-69988955D01*
X146020929Y-69810934D01*
X146024356Y-69802661D01*
X146031836Y-69799262D01*
X146113449Y-69793741D01*
X146182608Y-69776908D01*
X146285838Y-69723203D01*
X146370753Y-69675179D01*
X146372227Y-69674477D01*
X146432309Y-69650879D01*
X146433656Y-69650443D01*
X146500060Y-69633355D01*
X146508925Y-69634612D01*
G37*
%TD.AperFunction*%
%TD*%
%TA.AperFunction,Conductor*%
%TO.N,GND*%
G36*
X149073891Y-87707197D02*
G01*
X149539467Y-88169927D01*
X149698172Y-88327662D01*
X149701624Y-88335924D01*
X149698222Y-88344208D01*
X149691144Y-88347596D01*
X149630203Y-88353985D01*
X149630200Y-88353985D01*
X149630198Y-88353986D01*
X149602773Y-88361915D01*
X149559032Y-88374563D01*
X149492518Y-88405366D01*
X149492513Y-88405369D01*
X149423027Y-88450801D01*
X149360613Y-88505075D01*
X149360612Y-88505076D01*
X149300927Y-88572041D01*
X149251170Y-88643784D01*
X149251164Y-88643794D01*
X149185007Y-88787378D01*
X149185007Y-88787380D01*
X149167323Y-88890244D01*
X149167316Y-88890282D01*
X149162537Y-88897855D01*
X149155785Y-88900000D01*
X148975538Y-88900000D01*
X148967265Y-88896573D01*
X148964001Y-88890244D01*
X148947119Y-88790079D01*
X148947118Y-88790073D01*
X148919559Y-88718002D01*
X148919558Y-88718001D01*
X148919558Y-88718000D01*
X148880572Y-88644527D01*
X148781367Y-88515862D01*
X148768188Y-88505078D01*
X148665972Y-88421439D01*
X148665968Y-88421437D01*
X148543230Y-88364681D01*
X148543227Y-88364680D01*
X148543226Y-88364680D01*
X148438546Y-88348555D01*
X148430891Y-88343908D01*
X148428763Y-88335210D01*
X148432077Y-88328695D01*
X149057398Y-87707197D01*
X149065681Y-87703796D01*
X149073891Y-87707197D01*
G37*
%TD.AperFunction*%
%TD*%
%TA.AperFunction,Conductor*%
%TO.N,VCC_5V*%
G36*
X159673315Y-76555662D02*
G01*
X160117573Y-76941532D01*
X160121572Y-76949544D01*
X160118734Y-76958037D01*
X160113283Y-76961566D01*
X160059414Y-76977831D01*
X160003348Y-77011204D01*
X159952791Y-77055431D01*
X159952783Y-77055439D01*
X159898542Y-77121044D01*
X159898534Y-77121055D01*
X159853119Y-77195134D01*
X159813326Y-77282232D01*
X159785268Y-77368456D01*
X159767133Y-77490026D01*
X159762523Y-77497703D01*
X159755561Y-77500000D01*
X159577013Y-77500000D01*
X159568740Y-77496573D01*
X159565318Y-77488637D01*
X159565103Y-77481162D01*
X159555205Y-77407792D01*
X159533164Y-77324842D01*
X159465834Y-77172873D01*
X159382314Y-77059382D01*
X159321378Y-77011204D01*
X159292388Y-76988283D01*
X159262258Y-76977831D01*
X159216809Y-76962064D01*
X159210117Y-76956116D01*
X159209591Y-76947176D01*
X159212973Y-76942178D01*
X159213717Y-76941532D01*
X159657974Y-76555662D01*
X159666466Y-76552825D01*
X159673315Y-76555662D01*
G37*
%TD.AperFunction*%
%TD*%
%TA.AperFunction,Conductor*%
%TO.N,VCC_5V*%
G36*
X151698463Y-58026335D02*
G01*
X152157170Y-58392438D01*
X152161499Y-58400278D01*
X152159017Y-58408881D01*
X152158753Y-58409200D01*
X151783656Y-58846545D01*
X151775669Y-58850594D01*
X151767158Y-58847809D01*
X151765879Y-58846528D01*
X151749990Y-58827930D01*
X151713850Y-58802889D01*
X151627114Y-58767153D01*
X151521246Y-58741596D01*
X151521232Y-58741593D01*
X151319310Y-58716448D01*
X151164391Y-58710436D01*
X151156257Y-58706691D01*
X151153145Y-58698745D01*
X151153145Y-58520627D01*
X151156572Y-58512354D01*
X151163722Y-58508981D01*
X151208831Y-58504637D01*
X151276892Y-58486554D01*
X151348506Y-58456388D01*
X151482241Y-58369062D01*
X151586228Y-58260099D01*
X151653599Y-58140660D01*
X151679795Y-58032720D01*
X151685076Y-58025489D01*
X151693924Y-58024110D01*
X151698463Y-58026335D01*
G37*
%TD.AperFunction*%
%TD*%
%TA.AperFunction,Conductor*%
%TO.N,/ARCHITECTURE/3. SENSING/VSENSE_17V*%
G36*
X151412877Y-72663034D02*
G01*
X151416283Y-72670629D01*
X151417941Y-72699242D01*
X151426231Y-72842334D01*
X151426232Y-72842341D01*
X151426233Y-72842342D01*
X151458472Y-72970939D01*
X151513078Y-73073730D01*
X151513081Y-73073734D01*
X151590765Y-73179048D01*
X151590808Y-73179107D01*
X151724223Y-73362384D01*
X151726322Y-73371090D01*
X151721650Y-73378729D01*
X151721280Y-73378987D01*
X151315645Y-73650999D01*
X151315645Y-73651000D01*
X150899910Y-73372215D01*
X151040526Y-73179047D01*
X151147217Y-73025896D01*
X151174893Y-72965524D01*
X151195330Y-72896343D01*
X151210606Y-72792994D01*
X151215220Y-72670865D01*
X151218957Y-72662727D01*
X151226912Y-72659607D01*
X151404604Y-72659607D01*
X151412877Y-72663034D01*
G37*
%TD.AperFunction*%
%TD*%
%TA.AperFunction,Conductor*%
%TO.N,/ARCHITECTURE/5. COMPARATOR/~{OC_FAULT}*%
G36*
X153289787Y-63631537D02*
G01*
X153292025Y-63635380D01*
X153311160Y-63690168D01*
X153311161Y-63690170D01*
X153349079Y-63757849D01*
X153349089Y-63757862D01*
X153398134Y-63821283D01*
X153398136Y-63821285D01*
X153398137Y-63821286D01*
X153467567Y-63889983D01*
X153546859Y-63951813D01*
X153644059Y-64012468D01*
X153745710Y-64063031D01*
X153944300Y-64130630D01*
X154080480Y-64148656D01*
X154088232Y-64153139D01*
X154090645Y-64160255D01*
X154090645Y-64339808D01*
X154087218Y-64348081D01*
X154080548Y-64351398D01*
X153935786Y-64371418D01*
X153735981Y-64441320D01*
X153557249Y-64541015D01*
X153557240Y-64541021D01*
X153422349Y-64652675D01*
X153422343Y-64652682D01*
X153333568Y-64766864D01*
X153292553Y-64865909D01*
X153286221Y-64872242D01*
X153277267Y-64872243D01*
X153274042Y-64870241D01*
X153269087Y-64865909D01*
X152574718Y-64258809D01*
X152570746Y-64250785D01*
X152573612Y-64242301D01*
X152574719Y-64241194D01*
X152680559Y-64148656D01*
X153273280Y-63630429D01*
X153281762Y-63627564D01*
X153289787Y-63631537D01*
G37*
%TD.AperFunction*%
%TD*%
%TA.AperFunction,Conductor*%
%TO.N,/ARCHITECTURE/2. POLARITY PROTECTION/VPROT*%
G36*
X173573348Y-64970467D02*
G01*
X173574455Y-64971574D01*
X174185218Y-65670133D01*
X174188084Y-65678617D01*
X174184111Y-65686642D01*
X174180268Y-65688880D01*
X174125480Y-65708015D01*
X174125478Y-65708016D01*
X174057799Y-65745934D01*
X174057786Y-65745944D01*
X173994365Y-65794989D01*
X173994363Y-65794991D01*
X173925665Y-65864423D01*
X173925661Y-65864427D01*
X173863839Y-65943709D01*
X173863837Y-65943712D01*
X173803183Y-66040909D01*
X173752617Y-66142565D01*
X173685019Y-66341153D01*
X173666993Y-66477335D01*
X173662510Y-66485087D01*
X173655394Y-66487500D01*
X173475841Y-66487500D01*
X173467568Y-66484073D01*
X173464251Y-66477403D01*
X173444230Y-66332641D01*
X173444230Y-66332639D01*
X173374331Y-66132842D01*
X173323054Y-66040914D01*
X173274633Y-65954104D01*
X173274627Y-65954095D01*
X173162973Y-65819204D01*
X173162966Y-65819198D01*
X173048784Y-65730423D01*
X173048785Y-65730423D01*
X172949739Y-65689408D01*
X172943406Y-65683076D01*
X172943405Y-65674122D01*
X172945403Y-65670902D01*
X173556839Y-64971573D01*
X173564864Y-64967601D01*
X173573348Y-64970467D01*
G37*
%TD.AperFunction*%
%TD*%
%TA.AperFunction,Conductor*%
%TO.N,/ARCHITECTURE/3. SENSING/VSENSE_17V*%
G36*
X151323260Y-71768032D02*
G01*
X151602591Y-72007606D01*
X151758616Y-72141424D01*
X151762665Y-72149411D01*
X151759880Y-72157922D01*
X151755822Y-72160964D01*
X151712022Y-72180783D01*
X151712016Y-72180787D01*
X151655069Y-72222375D01*
X151603825Y-72275034D01*
X151603816Y-72275044D01*
X151549009Y-72351009D01*
X151549006Y-72351014D01*
X151503230Y-72435284D01*
X151463376Y-72532827D01*
X151435308Y-72628709D01*
X151417008Y-72764860D01*
X151412509Y-72772603D01*
X151405412Y-72775001D01*
X151226559Y-72775001D01*
X151218286Y-72771574D01*
X151214902Y-72764301D01*
X151208946Y-72694905D01*
X151208944Y-72694895D01*
X151189882Y-72604454D01*
X151189881Y-72604450D01*
X151189879Y-72604441D01*
X151125568Y-72430067D01*
X151042498Y-72293638D01*
X151024010Y-72275034D01*
X150952384Y-72202959D01*
X150873909Y-72161425D01*
X150868200Y-72154526D01*
X150869041Y-72145611D01*
X150871765Y-72142203D01*
X150872673Y-72141424D01*
X151308029Y-71768032D01*
X151316539Y-71765248D01*
X151323260Y-71768032D01*
G37*
%TD.AperFunction*%
%TD*%
%TA.AperFunction,Conductor*%
%TO.N,VREF_2V5*%
G36*
X169993823Y-56969685D02*
G01*
X170014456Y-56986311D01*
X170129327Y-57101181D01*
X170162811Y-57162504D01*
X170165645Y-57188862D01*
X170165645Y-58150000D01*
X170565646Y-58550000D01*
X172414284Y-58550000D01*
X172481323Y-58569685D01*
X172501964Y-58586317D01*
X172665645Y-58750000D01*
X175141646Y-58750000D01*
X175208685Y-58769685D01*
X175254440Y-58822489D01*
X175265646Y-58874000D01*
X175265646Y-59626000D01*
X175245961Y-59693039D01*
X175193157Y-59738794D01*
X175141646Y-59750000D01*
X168784195Y-59750000D01*
X168717156Y-59730315D01*
X168696514Y-59713681D01*
X168501964Y-59519131D01*
X168468479Y-59457808D01*
X168465645Y-59431458D01*
X168465645Y-58732612D01*
X168474288Y-58703176D01*
X168480812Y-58673187D01*
X168484567Y-58668170D01*
X168485330Y-58665574D01*
X168501963Y-58644933D01*
X168531269Y-58615625D01*
X168560577Y-58586318D01*
X168621899Y-58552833D01*
X168648249Y-58549999D01*
X168990646Y-58549999D01*
X169165645Y-58375000D01*
X169165645Y-57251358D01*
X169185330Y-57184323D01*
X169201959Y-57163686D01*
X169379328Y-56986317D01*
X169440649Y-56952834D01*
X169467006Y-56950000D01*
X169926787Y-56950000D01*
X169993823Y-56969685D01*
G37*
%TD.AperFunction*%
%TD*%
%TA.AperFunction,Conductor*%
%TO.N,GND*%
G36*
X137631670Y-63634144D02*
G01*
X137754297Y-63672401D01*
X137756525Y-63673360D01*
X137803743Y-63699826D01*
X137845229Y-63723079D01*
X137845682Y-63723347D01*
X137870438Y-63738726D01*
X137870443Y-63738729D01*
X137966078Y-63782484D01*
X138029111Y-63795310D01*
X138099336Y-63799363D01*
X138107397Y-63803261D01*
X138110361Y-63811044D01*
X138110361Y-63989065D01*
X138106934Y-63997338D01*
X138099451Y-64000738D01*
X138017837Y-64006259D01*
X137948680Y-64023092D01*
X137845458Y-64076792D01*
X137760540Y-64124817D01*
X137759057Y-64125523D01*
X137698987Y-64149117D01*
X137697626Y-64149558D01*
X137631230Y-64166644D01*
X137622364Y-64165387D01*
X137616983Y-64158229D01*
X137616847Y-64157636D01*
X137565115Y-63902319D01*
X137565115Y-63897680D01*
X137616720Y-63642990D01*
X137621722Y-63635563D01*
X137630510Y-63633847D01*
X137631670Y-63634144D01*
G37*
%TD.AperFunction*%
%TD*%
%TA.AperFunction,Conductor*%
%TO.N,VCC_5V*%
G36*
X159202766Y-76169928D02*
G01*
X159657388Y-76542416D01*
X159661616Y-76550310D01*
X159659023Y-76558881D01*
X159658854Y-76559083D01*
X159284206Y-76995904D01*
X159276219Y-76999953D01*
X159267708Y-76997168D01*
X159266858Y-76996361D01*
X159236866Y-76964859D01*
X159236865Y-76964858D01*
X159236863Y-76964856D01*
X159203385Y-76944466D01*
X159187292Y-76934664D01*
X159187284Y-76934661D01*
X159187282Y-76934660D01*
X159086616Y-76897691D01*
X158969315Y-76871898D01*
X158844687Y-76856872D01*
X158794839Y-76850862D01*
X158664361Y-76845464D01*
X158656237Y-76841698D01*
X158653145Y-76833774D01*
X158653145Y-76655681D01*
X158656572Y-76647408D01*
X158663780Y-76644029D01*
X158706625Y-76640120D01*
X158775296Y-76622575D01*
X158847843Y-76592929D01*
X158983358Y-76506844D01*
X159088711Y-76399478D01*
X159157104Y-76281952D01*
X159184013Y-76176094D01*
X159189371Y-76168922D01*
X159198233Y-76167639D01*
X159202766Y-76169928D01*
G37*
%TD.AperFunction*%
%TD*%
%TA.AperFunction,Conductor*%
%TO.N,GND*%
G36*
X141631245Y-73883399D02*
G01*
X141816548Y-73931705D01*
X141816726Y-73931754D01*
X141907435Y-73957382D01*
X141991662Y-73970298D01*
X142099126Y-73974554D01*
X142107255Y-73978306D01*
X142110361Y-73986245D01*
X142110361Y-74314082D01*
X142106934Y-74322355D01*
X142099469Y-74325754D01*
X141935116Y-74337131D01*
X141935112Y-74337132D01*
X141816640Y-74368270D01*
X141816617Y-74368276D01*
X141631257Y-74416597D01*
X141622387Y-74415368D01*
X141616984Y-74408226D01*
X141616844Y-74407620D01*
X141565115Y-74152319D01*
X141565115Y-74147680D01*
X141616840Y-73892399D01*
X141621841Y-73884973D01*
X141630629Y-73883257D01*
X141631245Y-73883399D01*
G37*
%TD.AperFunction*%
%TD*%
%TA.AperFunction,Conductor*%
%TO.N,/ARCHITECTURE/5. COMPARATOR/~{OC_DETECT}*%
G36*
X143039787Y-55231534D02*
G01*
X143042025Y-55235377D01*
X143061160Y-55290165D01*
X143061161Y-55290167D01*
X143099079Y-55357846D01*
X143099089Y-55357859D01*
X143148134Y-55421280D01*
X143148136Y-55421282D01*
X143148137Y-55421283D01*
X143217567Y-55489980D01*
X143296859Y-55551810D01*
X143394059Y-55612465D01*
X143495710Y-55663028D01*
X143694300Y-55730627D01*
X143830480Y-55748653D01*
X143838232Y-55753136D01*
X143840645Y-55760252D01*
X143840645Y-55939805D01*
X143837218Y-55948078D01*
X143830548Y-55951395D01*
X143685786Y-55971415D01*
X143485981Y-56041317D01*
X143307249Y-56141012D01*
X143307240Y-56141018D01*
X143172349Y-56252672D01*
X143172343Y-56252679D01*
X143083568Y-56366861D01*
X143042553Y-56465906D01*
X143036221Y-56472239D01*
X143027267Y-56472240D01*
X143024042Y-56470238D01*
X143019087Y-56465906D01*
X142324718Y-55858806D01*
X142320746Y-55850782D01*
X142323612Y-55842298D01*
X142324719Y-55841191D01*
X142430559Y-55748653D01*
X143023280Y-55230426D01*
X143031762Y-55227561D01*
X143039787Y-55231534D01*
G37*
%TD.AperFunction*%
%TD*%
%TA.AperFunction,Conductor*%
%TO.N,Net-(U502A-+)*%
G36*
X143181554Y-60318585D02*
G01*
X143182822Y-60323231D01*
X143185607Y-60370156D01*
X143185608Y-60370164D01*
X143200736Y-60456872D01*
X143226125Y-60539654D01*
X143245360Y-60582824D01*
X143264309Y-60625353D01*
X143264311Y-60625356D01*
X143264315Y-60625364D01*
X143311718Y-60705074D01*
X143311722Y-60705080D01*
X143338164Y-60739934D01*
X143371193Y-60783470D01*
X143371196Y-60783473D01*
X143371199Y-60783477D01*
X143437439Y-60853382D01*
X143509598Y-60914902D01*
X143584499Y-60965959D01*
X143725295Y-61030659D01*
X143725298Y-61030659D01*
X143725301Y-61030661D01*
X143830881Y-61048363D01*
X143838472Y-61053110D01*
X143840645Y-61059901D01*
X143840645Y-61238442D01*
X143837218Y-61246715D01*
X143829088Y-61250141D01*
X143768449Y-61250884D01*
X143750471Y-61251105D01*
X143407702Y-61271901D01*
X143407698Y-61271901D01*
X143407691Y-61271902D01*
X143157885Y-61310029D01*
X143157884Y-61310030D01*
X143012114Y-61354835D01*
X143012112Y-61354835D01*
X143012112Y-61354836D01*
X142948706Y-61394905D01*
X142939882Y-61396427D01*
X142934029Y-61393130D01*
X142325568Y-60761341D01*
X142322297Y-60753005D01*
X142325879Y-60744798D01*
X142328651Y-60742817D01*
X143165805Y-60313512D01*
X143174729Y-60312787D01*
X143181554Y-60318585D01*
G37*
%TD.AperFunction*%
%TD*%
%TA.AperFunction,Conductor*%
%TO.N,GND*%
G36*
X166448535Y-73204649D02*
G01*
X166452355Y-73209985D01*
X166468701Y-73256641D01*
X166504264Y-73312516D01*
X166504265Y-73312517D01*
X166550827Y-73362887D01*
X166550830Y-73362889D01*
X166619668Y-73417077D01*
X166619675Y-73417081D01*
X166619679Y-73417084D01*
X166697102Y-73462428D01*
X166788253Y-73502276D01*
X166878317Y-73530349D01*
X166878318Y-73530349D01*
X166878321Y-73530350D01*
X166919526Y-73536245D01*
X167005603Y-73548563D01*
X167013307Y-73553126D01*
X167015645Y-73560144D01*
X167015645Y-73738771D01*
X167012218Y-73747044D01*
X167004426Y-73750461D01*
X166989342Y-73751081D01*
X166953043Y-73756817D01*
X166916749Y-73762552D01*
X166916747Y-73762552D01*
X166916744Y-73762553D01*
X166836014Y-73786164D01*
X166687769Y-73857097D01*
X166687768Y-73857097D01*
X166576244Y-73944909D01*
X166505878Y-74039670D01*
X166479782Y-74119899D01*
X166473964Y-74126706D01*
X166465037Y-74127406D01*
X166459874Y-74124010D01*
X166071071Y-73682298D01*
X166068177Y-73673824D01*
X166070647Y-73667347D01*
X166432110Y-73206630D01*
X166439911Y-73202238D01*
X166448535Y-73204649D01*
G37*
%TD.AperFunction*%
%TD*%
%TA.AperFunction,Conductor*%
%TO.N,VCC_5V*%
G36*
X149972803Y-58601881D02*
G01*
X149980383Y-58606647D01*
X149982373Y-58615378D01*
X149977607Y-58622959D01*
X149974843Y-58624409D01*
X149199033Y-58906945D01*
X149190086Y-58906556D01*
X149185483Y-58902716D01*
X149152760Y-58856543D01*
X149152758Y-58856540D01*
X149137194Y-58844781D01*
X149115941Y-58828723D01*
X149115938Y-58828721D01*
X149115937Y-58828721D01*
X149075633Y-58812647D01*
X149020854Y-58806331D01*
X149020852Y-58806331D01*
X148967763Y-58812954D01*
X148967758Y-58812956D01*
X148888956Y-58847237D01*
X148880003Y-58847395D01*
X148876016Y-58844781D01*
X148750236Y-58719001D01*
X148746809Y-58710728D01*
X148750236Y-58702455D01*
X148751931Y-58701053D01*
X148810337Y-58661421D01*
X148953944Y-58560422D01*
X149024865Y-58490373D01*
X149040323Y-58452480D01*
X149046621Y-58446115D01*
X149053117Y-58445366D01*
X149972803Y-58601881D01*
G37*
%TD.AperFunction*%
%TD*%
%TA.AperFunction,Conductor*%
%TO.N,/ARCHITECTURE/5. COMPARATOR/~{17V_FAULT}*%
G36*
X153859793Y-70230979D02*
G01*
X153859923Y-70231107D01*
X153985681Y-70356865D01*
X153989108Y-70365138D01*
X153987420Y-70371192D01*
X153959422Y-70417495D01*
X153959421Y-70417498D01*
X153935864Y-70478126D01*
X153914486Y-70607226D01*
X153914485Y-70607233D01*
X153927134Y-70722532D01*
X153927136Y-70722539D01*
X153969449Y-70814920D01*
X153969449Y-70814921D01*
X153969450Y-70814922D01*
X154040735Y-70884345D01*
X154088964Y-70910269D01*
X154129858Y-70923789D01*
X154136637Y-70929640D01*
X154137294Y-70938571D01*
X154134987Y-70942606D01*
X153526636Y-71637346D01*
X153518608Y-71641312D01*
X153510126Y-71638440D01*
X153507278Y-71634684D01*
X153104646Y-70792342D01*
X153104170Y-70783400D01*
X153110156Y-70776740D01*
X153113127Y-70775782D01*
X153174180Y-70764778D01*
X153174185Y-70764776D01*
X153174188Y-70764776D01*
X153262797Y-70726774D01*
X153358325Y-70669601D01*
X153497832Y-70565898D01*
X153632702Y-70448462D01*
X153843249Y-70231236D01*
X153851467Y-70227681D01*
X153859793Y-70230979D01*
G37*
%TD.AperFunction*%
%TD*%
%TA.AperFunction,Conductor*%
%TO.N,Net-(Q601-B)*%
G36*
X175080164Y-88301971D02*
G01*
X175358330Y-88579213D01*
X175361771Y-88587481D01*
X175358358Y-88595759D01*
X175358330Y-88595787D01*
X175082446Y-88870754D01*
X175074168Y-88874167D01*
X175065900Y-88870726D01*
X175062585Y-88863976D01*
X175062261Y-88861493D01*
X175060596Y-88848687D01*
X175049176Y-88823164D01*
X175042382Y-88807976D01*
X175042380Y-88807974D01*
X175042380Y-88807973D01*
X175013492Y-88773970D01*
X175013491Y-88773969D01*
X174958955Y-88736098D01*
X174958951Y-88736096D01*
X174896233Y-88709935D01*
X174896229Y-88709934D01*
X174824982Y-88692804D01*
X174819430Y-88692307D01*
X174776303Y-88688452D01*
X174768368Y-88684301D01*
X174765645Y-88676798D01*
X174765645Y-88498743D01*
X174769072Y-88490470D01*
X174776877Y-88487053D01*
X174788312Y-88486598D01*
X174905734Y-88461877D01*
X174995264Y-88416125D01*
X175047511Y-88358458D01*
X175060569Y-88307360D01*
X175065938Y-88300194D01*
X175074802Y-88298922D01*
X175080164Y-88301971D01*
G37*
%TD.AperFunction*%
%TD*%
%TA.AperFunction,Conductor*%
%TO.N,/ARCHITECTURE/5. COMPARATOR/LATCH_IN*%
G36*
X153289787Y-60531535D02*
G01*
X153292025Y-60535378D01*
X153311160Y-60590166D01*
X153311161Y-60590168D01*
X153349079Y-60657847D01*
X153349089Y-60657860D01*
X153398134Y-60721281D01*
X153398136Y-60721283D01*
X153398137Y-60721284D01*
X153467567Y-60789981D01*
X153546859Y-60851811D01*
X153644059Y-60912466D01*
X153745710Y-60963029D01*
X153944300Y-61030628D01*
X154080480Y-61048654D01*
X154088232Y-61053137D01*
X154090645Y-61060253D01*
X154090645Y-61239806D01*
X154087218Y-61248079D01*
X154080548Y-61251396D01*
X153935786Y-61271416D01*
X153735981Y-61341318D01*
X153557249Y-61441013D01*
X153557240Y-61441019D01*
X153422349Y-61552673D01*
X153422343Y-61552680D01*
X153333568Y-61666862D01*
X153292553Y-61765907D01*
X153286221Y-61772240D01*
X153277267Y-61772241D01*
X153274042Y-61770239D01*
X153269087Y-61765907D01*
X152574718Y-61158807D01*
X152570746Y-61150783D01*
X152573612Y-61142299D01*
X152574719Y-61141192D01*
X152680559Y-61048654D01*
X153273280Y-60530427D01*
X153281762Y-60527562D01*
X153289787Y-60531535D01*
G37*
%TD.AperFunction*%
%TD*%
%TA.AperFunction,Conductor*%
%TO.N,Net-(U501A--)*%
G36*
X153565509Y-77887819D02*
G01*
X153569148Y-77892489D01*
X153582323Y-77923119D01*
X153582327Y-77923126D01*
X153625378Y-77970230D01*
X153625381Y-77970233D01*
X153748770Y-78073073D01*
X153748783Y-78073084D01*
X153838671Y-78148218D01*
X153842821Y-78156153D01*
X153840144Y-78164699D01*
X153839440Y-78165468D01*
X153714747Y-78290161D01*
X153706474Y-78293588D01*
X153698837Y-78290752D01*
X153688208Y-78281594D01*
X153606771Y-78239321D01*
X153606770Y-78239320D01*
X153530280Y-78229721D01*
X153530279Y-78229722D01*
X153530278Y-78229722D01*
X153503739Y-78239320D01*
X153466875Y-78252652D01*
X153439341Y-78278210D01*
X153420704Y-78307144D01*
X153413343Y-78312243D01*
X153406864Y-78311802D01*
X152634702Y-78030595D01*
X152628101Y-78024544D01*
X152627712Y-78015597D01*
X152633763Y-78008996D01*
X152637157Y-78008004D01*
X153556856Y-77885514D01*
X153565509Y-77887819D01*
G37*
%TD.AperFunction*%
%TD*%
%TA.AperFunction,Conductor*%
%TO.N,Net-(D201-A)*%
G36*
X135658684Y-77319685D02*
G01*
X135704439Y-77372489D01*
X135715645Y-77424000D01*
X135715645Y-79700000D01*
X136629326Y-80613681D01*
X136662811Y-80675004D01*
X136665645Y-80701362D01*
X136665645Y-84000000D01*
X136779326Y-84113681D01*
X136812811Y-84175004D01*
X136815645Y-84201362D01*
X136815645Y-84650001D01*
X137615645Y-85700000D01*
X138415645Y-86750000D01*
X139339283Y-86750000D01*
X139406322Y-86769685D01*
X139426964Y-86786319D01*
X139679326Y-87038681D01*
X139712811Y-87100004D01*
X139715645Y-87126362D01*
X139715645Y-88173638D01*
X139695960Y-88240677D01*
X139679326Y-88261319D01*
X139426964Y-88513681D01*
X139365641Y-88547166D01*
X139339283Y-88550000D01*
X138476922Y-88550000D01*
X138409883Y-88530315D01*
X138378422Y-88501324D01*
X138167115Y-88225000D01*
X135841145Y-85183346D01*
X135816058Y-85118135D01*
X135815645Y-85108022D01*
X135815645Y-83350000D01*
X135401964Y-82936319D01*
X135368479Y-82874996D01*
X135365645Y-82848638D01*
X135365645Y-80500000D01*
X134851964Y-79986319D01*
X134818479Y-79924996D01*
X134815645Y-79898638D01*
X134815645Y-77424000D01*
X134835330Y-77356961D01*
X134888134Y-77311206D01*
X134939645Y-77300000D01*
X135591645Y-77300000D01*
X135658684Y-77319685D01*
G37*
%TD.AperFunction*%
%TD*%
%TA.AperFunction,Conductor*%
%TO.N,GND*%
G36*
X175323891Y-93757198D02*
G01*
X175949005Y-94378491D01*
X175952457Y-94386752D01*
X175949055Y-94395036D01*
X175942423Y-94398369D01*
X175868233Y-94409043D01*
X175802009Y-94434231D01*
X175739921Y-94470157D01*
X175672843Y-94523674D01*
X175672839Y-94523677D01*
X175612385Y-94586942D01*
X175552507Y-94667029D01*
X175502515Y-94752261D01*
X175435006Y-94922972D01*
X175429073Y-94961901D01*
X175417839Y-95035613D01*
X175417160Y-95040065D01*
X175412526Y-95047727D01*
X175405594Y-95050002D01*
X175227085Y-95050002D01*
X175218812Y-95046575D01*
X175215388Y-95038566D01*
X175215321Y-95035613D01*
X175215321Y-95035609D01*
X175205619Y-94961901D01*
X175182999Y-94879359D01*
X175106067Y-94710971D01*
X175004885Y-94570856D01*
X175004884Y-94570855D01*
X175004885Y-94570855D01*
X174946553Y-94518778D01*
X174894477Y-94472287D01*
X174781267Y-94414670D01*
X174704880Y-94401693D01*
X174688057Y-94398836D01*
X174680475Y-94394072D01*
X174678482Y-94385341D01*
X174681768Y-94379004D01*
X175307398Y-93757198D01*
X175315681Y-93753797D01*
X175323891Y-93757198D01*
G37*
%TD.AperFunction*%
%TD*%
%TA.AperFunction,Conductor*%
%TO.N,/ARCHITECTURE/5. COMPARATOR/~{12V_FAULT}*%
G36*
X158572158Y-85653368D02*
G01*
X158971280Y-85921012D01*
X158976243Y-85928466D01*
X158974481Y-85937245D01*
X158974223Y-85937615D01*
X158840765Y-86120950D01*
X158734074Y-86274101D01*
X158706399Y-86334471D01*
X158685959Y-86403659D01*
X158685959Y-86403660D01*
X158670684Y-86507001D01*
X158670684Y-86507003D01*
X158666070Y-86629135D01*
X158662333Y-86637273D01*
X158654378Y-86640393D01*
X158476686Y-86640393D01*
X158468413Y-86636966D01*
X158465006Y-86629370D01*
X158464992Y-86629135D01*
X158461616Y-86570862D01*
X158455058Y-86457665D01*
X158455057Y-86457661D01*
X158455057Y-86457658D01*
X158422818Y-86329061D01*
X158368212Y-86226270D01*
X158290525Y-86120952D01*
X158157066Y-85937615D01*
X158154967Y-85928909D01*
X158159639Y-85921270D01*
X158159979Y-85921032D01*
X158559130Y-85653368D01*
X158567909Y-85651607D01*
X158572158Y-85653368D01*
G37*
%TD.AperFunction*%
%TD*%
%TA.AperFunction,Conductor*%
%TO.N,/ARCHITECTURE/3. SENSING/VSENSE_12V*%
G36*
X151413004Y-84640927D02*
G01*
X151416388Y-84648200D01*
X151422343Y-84717595D01*
X151422345Y-84717605D01*
X151441407Y-84808046D01*
X151441413Y-84808067D01*
X151505722Y-84982436D01*
X151588791Y-85118863D01*
X151659611Y-85190126D01*
X151678908Y-85209544D01*
X151720795Y-85231713D01*
X151757380Y-85251076D01*
X151763089Y-85257975D01*
X151762248Y-85266890D01*
X151759524Y-85270298D01*
X151323262Y-85644467D01*
X151314751Y-85647252D01*
X151308028Y-85644467D01*
X150872673Y-85271077D01*
X150868624Y-85263090D01*
X150871409Y-85254579D01*
X150875463Y-85251538D01*
X150919273Y-85231715D01*
X150976218Y-85190129D01*
X151027470Y-85137462D01*
X151082282Y-85061491D01*
X151128062Y-84977214D01*
X151167914Y-84879673D01*
X151195981Y-84783794D01*
X151214282Y-84647641D01*
X151218781Y-84639898D01*
X151225878Y-84637500D01*
X151404731Y-84637500D01*
X151413004Y-84640927D01*
G37*
%TD.AperFunction*%
%TD*%
%TA.AperFunction,Conductor*%
%TO.N,/ARCHITECTURE/5. COMPARATOR/~{OC_FAULT}*%
G36*
X150896624Y-59595488D02*
G01*
X150902161Y-59601500D01*
X150907523Y-59614638D01*
X150907530Y-59614651D01*
X150936852Y-59656820D01*
X150936856Y-59656825D01*
X150976993Y-59691843D01*
X151046955Y-59730293D01*
X151046957Y-59730294D01*
X151124536Y-59756746D01*
X151215091Y-59774591D01*
X151215094Y-59774591D01*
X151215103Y-59774593D01*
X151279780Y-59779222D01*
X151287788Y-59783231D01*
X151290645Y-59790892D01*
X151290645Y-59969731D01*
X151287218Y-59978004D01*
X151280463Y-59981332D01*
X151136666Y-60000144D01*
X151136664Y-60000145D01*
X151016693Y-60044031D01*
X151016688Y-60044034D01*
X150938860Y-60101012D01*
X150938857Y-60101015D01*
X150902856Y-60160621D01*
X150895645Y-60165931D01*
X150889208Y-60165694D01*
X150324841Y-59981332D01*
X150048690Y-59891121D01*
X150041891Y-59885295D01*
X150041202Y-59876367D01*
X150047029Y-59869567D01*
X150048689Y-59868878D01*
X150887697Y-59594799D01*
X150896624Y-59595488D01*
G37*
%TD.AperFunction*%
%TD*%
%TA.AperFunction,Conductor*%
%TO.N,GND*%
G36*
X171913820Y-54903427D02*
G01*
X171917121Y-54909990D01*
X171927761Y-54982018D01*
X171951548Y-55047812D01*
X171951549Y-55047815D01*
X171951551Y-55047818D01*
X171987102Y-55115106D01*
X172083920Y-55237075D01*
X172201781Y-55329043D01*
X172330352Y-55385300D01*
X172442472Y-55401601D01*
X172450165Y-55406181D01*
X172452366Y-55414861D01*
X172449036Y-55421476D01*
X171823893Y-56042800D01*
X171815609Y-56046202D01*
X171807398Y-56042800D01*
X171183563Y-55422779D01*
X171180112Y-55414518D01*
X171183514Y-55406234D01*
X171190817Y-55402824D01*
X171242873Y-55398387D01*
X171317410Y-55380259D01*
X171386935Y-55352130D01*
X171458044Y-55310828D01*
X171521776Y-55261112D01*
X171581347Y-55200744D01*
X171630960Y-55135755D01*
X171696283Y-55005617D01*
X171713887Y-54909590D01*
X171718749Y-54902071D01*
X171725395Y-54900000D01*
X171905547Y-54900000D01*
X171913820Y-54903427D01*
G37*
%TD.AperFunction*%
%TD*%
%TA.AperFunction,Conductor*%
%TO.N,/ARCHITECTURE/5. COMPARATOR/~{OC_DETECT}*%
G36*
X156663435Y-60703427D02*
G01*
X156666792Y-60710420D01*
X156674078Y-60776638D01*
X156674079Y-60776642D01*
X156704873Y-60859261D01*
X156704874Y-60859262D01*
X156704875Y-60859264D01*
X156751709Y-60909224D01*
X156781565Y-60922680D01*
X156795535Y-60924687D01*
X156803237Y-60929255D01*
X156805452Y-60937932D01*
X156802553Y-60944111D01*
X156623135Y-61142708D01*
X156615046Y-61146550D01*
X156607018Y-61143899D01*
X156382933Y-60959460D01*
X156378723Y-60951556D01*
X156381334Y-60942991D01*
X156386703Y-60939315D01*
X156399251Y-60935180D01*
X156423836Y-60912675D01*
X156453260Y-60844596D01*
X156464098Y-60765931D01*
X156465394Y-60711421D01*
X156469017Y-60703233D01*
X156477091Y-60700000D01*
X156655162Y-60700000D01*
X156663435Y-60703427D01*
G37*
%TD.AperFunction*%
%TD*%
%TA.AperFunction,Conductor*%
%TO.N,VREF_2V5*%
G36*
X157539462Y-79287833D02*
G01*
X157543189Y-79294491D01*
X157593019Y-79571082D01*
X157591113Y-79579831D01*
X157583578Y-79584671D01*
X157581384Y-79584855D01*
X157302684Y-79582000D01*
X157302672Y-79582001D01*
X157302668Y-79582001D01*
X157180260Y-79596193D01*
X157029583Y-79613664D01*
X156806814Y-79674545D01*
X156806805Y-79674548D01*
X156633913Y-79757277D01*
X156633912Y-79757277D01*
X156515325Y-79849611D01*
X156506692Y-79851989D01*
X156499864Y-79848652D01*
X156269480Y-79618268D01*
X156266053Y-79609995D01*
X156269480Y-79601722D01*
X156270970Y-79600463D01*
X156377060Y-79525171D01*
X156377130Y-79525123D01*
X156498705Y-79442139D01*
X156554501Y-79384098D01*
X156563539Y-79348386D01*
X156568890Y-79341207D01*
X156574212Y-79339576D01*
X157531006Y-79284884D01*
X157539462Y-79287833D01*
G37*
%TD.AperFunction*%
%TD*%
%TA.AperFunction,Conductor*%
%TO.N,/ARCHITECTURE/1. INTERCONNECTS/VIN*%
G36*
X140258684Y-68619685D02*
G01*
X140304439Y-68672489D01*
X140315645Y-68724000D01*
X140315645Y-74576000D01*
X140295960Y-74643039D01*
X140243156Y-74688794D01*
X140191645Y-74700000D01*
X134853144Y-74700000D01*
X133365645Y-76187499D01*
X133365645Y-80596857D01*
X133345960Y-80663896D01*
X133327162Y-80686650D01*
X131301562Y-82615793D01*
X131239441Y-82647773D01*
X131216045Y-82650000D01*
X122689645Y-82650000D01*
X122622606Y-82630315D01*
X122576851Y-82577511D01*
X122565645Y-82526000D01*
X122565645Y-80774000D01*
X122585330Y-80706961D01*
X122638134Y-80661206D01*
X122689645Y-80650000D01*
X129090645Y-80650000D01*
X131265645Y-78475000D01*
X131265645Y-76447637D01*
X131266145Y-76444481D01*
X131266145Y-76255519D01*
X131265645Y-76252362D01*
X131265645Y-69524000D01*
X131285330Y-69456961D01*
X131338134Y-69411206D01*
X131389645Y-69400000D01*
X133265644Y-69400000D01*
X133265645Y-69400000D01*
X134788886Y-68613810D01*
X134845758Y-68600000D01*
X140191645Y-68600000D01*
X140258684Y-68619685D01*
G37*
%TD.AperFunction*%
%TD*%
%TA.AperFunction,Conductor*%
%TO.N,GND*%
G36*
X177270418Y-88604499D02*
G01*
X177276327Y-88610408D01*
X177549295Y-89221364D01*
X177549541Y-89230316D01*
X177543386Y-89236819D01*
X177543035Y-89236969D01*
X177531003Y-89241880D01*
X177530993Y-89241885D01*
X177488824Y-89271207D01*
X177488819Y-89271211D01*
X177453803Y-89311346D01*
X177415350Y-89381312D01*
X177388898Y-89458891D01*
X177371053Y-89549446D01*
X177371052Y-89549459D01*
X177366423Y-89614135D01*
X177362414Y-89622143D01*
X177354753Y-89625000D01*
X177175914Y-89625000D01*
X177167641Y-89621573D01*
X177164313Y-89614818D01*
X177155762Y-89549458D01*
X177145501Y-89471023D01*
X177101613Y-89351048D01*
X177101610Y-89351043D01*
X177044632Y-89273215D01*
X177044629Y-89273212D01*
X176985914Y-89237749D01*
X176980604Y-89230538D01*
X176981280Y-89222962D01*
X177254963Y-88610407D01*
X177261466Y-88604253D01*
X177270418Y-88604499D01*
G37*
%TD.AperFunction*%
%TD*%
%TA.AperFunction,Conductor*%
%TO.N,/ARCHITECTURE/5. COMPARATOR/~{12V_FAULT}*%
G36*
X154649328Y-84524979D02*
G01*
X154652755Y-84533252D01*
X154650134Y-84540632D01*
X154647398Y-84543997D01*
X154647393Y-84544003D01*
X154598542Y-84612770D01*
X154571546Y-84650771D01*
X154571540Y-84650780D01*
X154571538Y-84650784D01*
X154496340Y-84777347D01*
X154421588Y-84924576D01*
X154421584Y-84924583D01*
X154352114Y-85084141D01*
X154352101Y-85084174D01*
X154244330Y-85400592D01*
X154183433Y-85680600D01*
X154166884Y-85890718D01*
X154162818Y-85898696D01*
X154154301Y-85901463D01*
X154150940Y-85900688D01*
X153590954Y-85680599D01*
X153522416Y-85653661D01*
X153515971Y-85647447D01*
X153515038Y-85643749D01*
X153443865Y-84791036D01*
X153446591Y-84782509D01*
X153454551Y-84778406D01*
X153458195Y-84778674D01*
X153554887Y-84801347D01*
X153658320Y-84811574D01*
X153764008Y-84810743D01*
X153878873Y-84798541D01*
X153991667Y-84775853D01*
X154100730Y-84743713D01*
X154202687Y-84703587D01*
X154364146Y-84612770D01*
X154462309Y-84524549D01*
X154470130Y-84521552D01*
X154641055Y-84521552D01*
X154649328Y-84524979D01*
G37*
%TD.AperFunction*%
%TD*%
%TA.AperFunction,Conductor*%
%TO.N,GND*%
G36*
X161487550Y-75603427D02*
G01*
X161490971Y-75611362D01*
X161491187Y-75618838D01*
X161501085Y-75692208D01*
X161511537Y-75731543D01*
X161523128Y-75775164D01*
X161590457Y-75927129D01*
X161673974Y-76040616D01*
X161673976Y-76040618D01*
X161763902Y-76111717D01*
X161839478Y-76137934D01*
X161846172Y-76143883D01*
X161846698Y-76152822D01*
X161843316Y-76157821D01*
X161398317Y-76544336D01*
X161389824Y-76547174D01*
X161382973Y-76544336D01*
X160938716Y-76158467D01*
X160934717Y-76150455D01*
X160937555Y-76141962D01*
X160943005Y-76138433D01*
X160996872Y-76122170D01*
X161052943Y-76088794D01*
X161103501Y-76044566D01*
X161157755Y-75978945D01*
X161203170Y-75904868D01*
X161242964Y-75817764D01*
X161271022Y-75731543D01*
X161289157Y-75609973D01*
X161293767Y-75602297D01*
X161300729Y-75600000D01*
X161479277Y-75600000D01*
X161487550Y-75603427D01*
G37*
%TD.AperFunction*%
%TD*%
%TA.AperFunction,Conductor*%
%TO.N,/ARCHITECTURE/5. COMPARATOR/~{OC_FAULT}*%
G36*
X158567445Y-61152569D02*
G01*
X158570697Y-61155823D01*
X158837262Y-61556465D01*
X158838992Y-61565251D01*
X158834477Y-61572354D01*
X158758486Y-61628541D01*
X158632549Y-61721657D01*
X158610571Y-61737907D01*
X158610565Y-61737912D01*
X158462928Y-61886240D01*
X158297864Y-62058824D01*
X158289669Y-62062434D01*
X158281322Y-62059192D01*
X158281136Y-62059010D01*
X158155933Y-61933807D01*
X158152506Y-61925534D01*
X158155418Y-61917810D01*
X158197743Y-61869678D01*
X158230037Y-61817623D01*
X158247226Y-61768681D01*
X158251480Y-61721654D01*
X158229857Y-61628541D01*
X158203224Y-61572354D01*
X158182523Y-61528681D01*
X158122940Y-61403051D01*
X158122323Y-61401459D01*
X158079031Y-61259902D01*
X158079888Y-61250990D01*
X158086797Y-61245294D01*
X158087909Y-61245012D01*
X158558662Y-61150831D01*
X158567445Y-61152569D01*
G37*
%TD.AperFunction*%
%TD*%
M02*
