M48
; DRILL file {KiCad 9.0.6+1} date 2026-02-09T07:39:17+0000
; FORMAT={-:-/ absolute / metric / decimal}
; #@! TF.CreationDate,2026-02-09T07:39:17+00:00
; #@! TF.GenerationSoftware,Kicad,Pcbnew,9.0.6+1
; #@! TF.FileFunction,Plated,1,2,PTH
FMAT,2
METRIC
; #@! TA.AperFunction,Plated,PTH,ViaDrill
T1C0.250
; #@! TA.AperFunction,Plated,PTH,ComponentDrill
T2C1.000
; #@! TA.AperFunction,Plated,PTH,ComponentDrill
T3C1.100
; #@! TA.AperFunction,Plated,PTH,ComponentDrill
T4C3.200
%
G90
G05
T1
X137.816Y-93.05
X142.816Y-81.95
X142.816Y-82.55
X142.816Y-83.15
X147.266Y-84.45
X160.166Y-85.05
X162.866Y-87.65
X162.966Y-77.45
X165.966Y-89.45
X168.191Y-96.925
X171.566Y-65.45
X172.816Y-81.95
X172.816Y-82.55
X172.816Y-83.15
T2
X125.316Y-89.537
X141.566Y-72.15
X177.816Y-89.537
T3
X116.648Y-85.745
X116.648Y-89.555
X186.483Y-85.727
X186.483Y-89.537
T4
X115.566Y-65.65
X115.566Y-97.65
X187.566Y-65.65
X187.566Y-97.65
T2
G00X120.066Y-74.15
M15
G01X120.066Y-76.15
M16
G05
G00X122.066Y-79.85
M15
G01X124.066Y-79.85
M16
G05
G00X126.266Y-73.9
M15
G01X126.266Y-76.4
M16
G05
G00X176.866Y-76.4
M15
G01X176.866Y-73.9
M16
G05
G00X181.066Y-70.45
M15
G01X179.066Y-70.45
M16
G05
G00X183.066Y-76.15
M15
G01X183.066Y-74.15
M16
G05
M30
