%TF.GenerationSoftware,KiCad,Pcbnew,9.0.6+1*%
%TF.CreationDate,Date%
%TF.ProjectId,Input-Protection,496e7075-742d-4507-926f-74656374696f,+ (Unreleased)*%
%TF.SameCoordinates,Original*%
%TF.FileFunction,Copper,L2,Bot*%
%TF.FilePolarity,Positive*%
%FSLAX46Y46*%
G04 Gerber Fmt 4.6, Leading zero omitted, Abs format (unit mm)*
G04 Created by KiCad*
%MOMM*%
%LPD*%
G01*
G04 APERTURE LIST*
G04 Aperture macros list*
%AMRoundRect*
0 Rectangle with rounded corners*
0 $1 Rounding radius*
0 $2 $3 $4 $5 $6 $7 $8 $9 X,Y pos of 4 corners*
0 Add a 4 corners polygon primitive as box body*
4,1,4,$2,$3,$4,$5,$6,$7,$8,$9,$2,$3,0*
0 Add four circle primitives for the rounded corners*
1,1,$1+$1,$2,$3*
1,1,$1+$1,$4,$5*
1,1,$1+$1,$6,$7*
1,1,$1+$1,$8,$9*
0 Add four rect primitives between the rounded corners*
20,1,$1+$1,$2,$3,$4,$5,0*
20,1,$1+$1,$4,$5,$6,$7,0*
20,1,$1+$1,$6,$7,$8,$9,0*
20,1,$1+$1,$8,$9,$2,$3,0*%
G04 Aperture macros list end*
%ADD10C,0.250000*%
%TA.AperFunction,NonConductor*%
%ADD11C,0.250000*%
%TD*%
%TA.AperFunction,EtchedComponent*%
%ADD12C,0.200000*%
%TD*%
%TA.AperFunction,ComponentPad*%
%ADD13R,1.500000X1.500000*%
%TD*%
%TA.AperFunction,ComponentPad*%
%ADD14R,2.000000X4.500000*%
%TD*%
%TA.AperFunction,ComponentPad*%
%ADD15O,2.000000X4.000000*%
%TD*%
%TA.AperFunction,ComponentPad*%
%ADD16O,4.000000X2.000000*%
%TD*%
%TA.AperFunction,ComponentPad*%
%ADD17C,5.700000*%
%TD*%
%TA.AperFunction,ComponentPad*%
%ADD18RoundRect,0.250000X-0.750000X0.750000X-0.750000X-0.750000X0.750000X-0.750000X0.750000X0.750000X0*%
%TD*%
%TA.AperFunction,ComponentPad*%
%ADD19C,2.000000*%
%TD*%
%TA.AperFunction,ComponentPad*%
%ADD20RoundRect,0.250000X0.750000X-0.750000X0.750000X0.750000X-0.750000X0.750000X-0.750000X-0.750000X0*%
%TD*%
%TA.AperFunction,ViaPad*%
%ADD21C,0.550000*%
%TD*%
G04 APERTURE END LIST*
D10*
D11*
X131601358Y-65194857D02*
X131553739Y-65147238D01*
X131553739Y-65147238D02*
X131458501Y-65099619D01*
X131458501Y-65099619D02*
X131220406Y-65099619D01*
X131220406Y-65099619D02*
X131125168Y-65147238D01*
X131125168Y-65147238D02*
X131077549Y-65194857D01*
X131077549Y-65194857D02*
X131029930Y-65290095D01*
X131029930Y-65290095D02*
X131029930Y-65385333D01*
X131029930Y-65385333D02*
X131077549Y-65528190D01*
X131077549Y-65528190D02*
X131648977Y-66099619D01*
X131648977Y-66099619D02*
X131029930Y-66099619D01*
%TO.C,ID901*%
D12*
X130315645Y-64650000D02*
X132315645Y-64650000D01*
X132315645Y-66650000D01*
X130315645Y-66650000D01*
X130315645Y-64650000D01*
%TD*%
D13*
%TO.P,TP101,1,1*%
%TO.N,GND*%
X131315645Y-89537500D03*
%TD*%
D14*
%TO.P,J101,1*%
%TO.N,/ARCHITECTURE/1. INTERCONNECTS/VIN*%
X132265645Y-75150000D03*
D15*
%TO.P,J101,2*%
%TO.N,GND*%
X126065645Y-75150000D03*
D16*
%TO.P,J101,3*%
%TO.N,unconnected-(J101-Pad3)*%
X129065645Y-79850000D03*
%TD*%
D17*
%TO.P,H901,1,1*%
%TO.N,GND*%
X121565645Y-65650000D03*
%TD*%
D13*
%TO.P,TP104,1,1*%
%TO.N,GND*%
X183815645Y-89537500D03*
%TD*%
D14*
%TO.P,J104,1*%
%TO.N,/ARCHITECTURE/1. INTERCONNECTS/VOUT*%
X182865645Y-75150000D03*
D15*
%TO.P,J104,2*%
%TO.N,GND*%
X189065645Y-75150000D03*
D16*
%TO.P,J104,3*%
%TO.N,unconnected-(J104-Pad3)*%
X186065645Y-70450000D03*
%TD*%
D18*
%TO.P,J102,1,Pin_1*%
%TO.N,/ARCHITECTURE/1. INTERCONNECTS/VIN*%
X122648145Y-85745000D03*
D19*
%TO.P,J102,2,Pin_2*%
%TO.N,GND*%
X122648145Y-89555000D03*
%TD*%
D17*
%TO.P,H902,1,1*%
%TO.N,GND*%
X121565645Y-97650000D03*
%TD*%
D20*
%TO.P,J103,1,Pin_1*%
%TO.N,GND*%
X192483145Y-89537500D03*
D19*
%TO.P,J103,2,Pin_2*%
%TO.N,/ARCHITECTURE/1. INTERCONNECTS/VOUT*%
X192483145Y-85727500D03*
%TD*%
D13*
%TO.P,TP301,1,1*%
%TO.N,GND*%
X147565645Y-72150000D03*
%TD*%
D17*
%TO.P,H903,1,1*%
%TO.N,GND*%
X193565645Y-65650000D03*
%TD*%
%TO.P,H904,1,1*%
%TO.N,GND*%
X193565645Y-97650000D03*
%TD*%
D21*
%TO.N,/ARCHITECTURE/2. POLARITY PROTECTION/VPROT*%
X178815645Y-83150000D03*
X148815645Y-81950000D03*
X178815645Y-81950000D03*
X178815645Y-82550000D03*
X148815645Y-82550000D03*
X148815645Y-83150000D03*
%TO.N,GND*%
X171965645Y-89450000D03*
X153265645Y-84450000D03*
X168865645Y-87650000D03*
X168965645Y-77450000D03*
X166165645Y-85050000D03*
X177565645Y-65450000D03*
X174190645Y-96925000D03*
X143815645Y-93050000D03*
%TD*%
%TA.AperFunction,Conductor*%
%TO.N,GND*%
G36*
X195069375Y-61900726D02*
G01*
X195329303Y-61916453D01*
X195344167Y-61918258D01*
X195355169Y-61920274D01*
X195596623Y-61964524D01*
X195611137Y-61968103D01*
X195856167Y-62044459D01*
X195870161Y-62049765D01*
X196104209Y-62155102D01*
X196117455Y-62162055D01*
X196337102Y-62294836D01*
X196349404Y-62303328D01*
X196551448Y-62461616D01*
X196562648Y-62471539D01*
X196744121Y-62653008D01*
X196754051Y-62664215D01*
X196912337Y-62866246D01*
X196920843Y-62878569D01*
X197052155Y-63095776D01*
X197053621Y-63098200D01*
X197060579Y-63111458D01*
X197165912Y-63345485D01*
X197171222Y-63359485D01*
X197247581Y-63604505D01*
X197251165Y-63619043D01*
X197297436Y-63871486D01*
X197299241Y-63886350D01*
X197314918Y-64145350D01*
X197315145Y-64152842D01*
X197315145Y-99146249D01*
X197314919Y-99153736D01*
X197299196Y-99413657D01*
X197297391Y-99428522D01*
X197251129Y-99680960D01*
X197247545Y-99695498D01*
X197171195Y-99940513D01*
X197165885Y-99954515D01*
X197060556Y-100188543D01*
X197053597Y-100201802D01*
X196920826Y-100421426D01*
X196912320Y-100433749D01*
X196754043Y-100635772D01*
X196744113Y-100646980D01*
X196562645Y-100828443D01*
X196551437Y-100838373D01*
X196349410Y-100996647D01*
X196337087Y-101005153D01*
X196117451Y-101137924D01*
X196104191Y-101144882D01*
X195870171Y-101250201D01*
X195856170Y-101255511D01*
X195611147Y-101331858D01*
X195596609Y-101335441D01*
X195344175Y-101381697D01*
X195329309Y-101383502D01*
X195068487Y-101399273D01*
X195061006Y-101399499D01*
X195040114Y-101399499D01*
X195021481Y-101399499D01*
X195021478Y-101399499D01*
X195011484Y-101399500D01*
X195011483Y-101399499D01*
X195011481Y-101399500D01*
X120069388Y-101399500D01*
X120061903Y-101399274D01*
X119801974Y-101383555D01*
X119787110Y-101381750D01*
X119534674Y-101335494D01*
X119520134Y-101331911D01*
X119275103Y-101255560D01*
X119261102Y-101250250D01*
X119027074Y-101144926D01*
X119013815Y-101137968D01*
X118794176Y-101005195D01*
X118781853Y-100996688D01*
X118579822Y-100838410D01*
X118568614Y-100828481D01*
X118387142Y-100647013D01*
X118377212Y-100635804D01*
X118218932Y-100433776D01*
X118210426Y-100421454D01*
X118079113Y-100204241D01*
X118077648Y-100201818D01*
X118070696Y-100188573D01*
X117965359Y-99954525D01*
X117960054Y-99940538D01*
X117883698Y-99695504D01*
X117880116Y-99680972D01*
X117867375Y-99611449D01*
X117833853Y-99428522D01*
X117832049Y-99413663D01*
X117816371Y-99154479D01*
X117816145Y-99146992D01*
X117816145Y-89436947D01*
X121148145Y-89436947D01*
X121148145Y-89673052D01*
X121185079Y-89906247D01*
X121258042Y-90130802D01*
X121365232Y-90341174D01*
X121425483Y-90424104D01*
X121425485Y-90424105D01*
X122124357Y-89725233D01*
X122135627Y-89767292D01*
X122208035Y-89892708D01*
X122310437Y-89995110D01*
X122435853Y-90067518D01*
X122477910Y-90078787D01*
X121779038Y-90777658D01*
X121861973Y-90837914D01*
X122072342Y-90945102D01*
X122296897Y-91018065D01*
X122296896Y-91018065D01*
X122530093Y-91055000D01*
X122766197Y-91055000D01*
X122999392Y-91018065D01*
X123223947Y-90945102D01*
X123434308Y-90837918D01*
X123434314Y-90837914D01*
X123517249Y-90777658D01*
X123517250Y-90777658D01*
X122818378Y-90078787D01*
X122860437Y-90067518D01*
X122985853Y-89995110D01*
X123088255Y-89892708D01*
X123160663Y-89767292D01*
X123171932Y-89725234D01*
X123870803Y-90424105D01*
X123870803Y-90424104D01*
X123931059Y-90341169D01*
X123931063Y-90341163D01*
X123934028Y-90335344D01*
X130065645Y-90335344D01*
X130072046Y-90394872D01*
X130072048Y-90394879D01*
X130122290Y-90529586D01*
X130122294Y-90529593D01*
X130208454Y-90644687D01*
X130208457Y-90644690D01*
X130323551Y-90730850D01*
X130323558Y-90730854D01*
X130458265Y-90781096D01*
X130458272Y-90781098D01*
X130517800Y-90787499D01*
X130517817Y-90787500D01*
X131065645Y-90787500D01*
X131565645Y-90787500D01*
X132113473Y-90787500D01*
X132113489Y-90787499D01*
X132173017Y-90781098D01*
X132173024Y-90781096D01*
X132307731Y-90730854D01*
X132307738Y-90730850D01*
X132422832Y-90644690D01*
X132422835Y-90644687D01*
X132508995Y-90529593D01*
X132508999Y-90529586D01*
X132559241Y-90394879D01*
X132559243Y-90394872D01*
X132565644Y-90335344D01*
X182565645Y-90335344D01*
X182572046Y-90394872D01*
X182572048Y-90394879D01*
X182622290Y-90529586D01*
X182622294Y-90529593D01*
X182708454Y-90644687D01*
X182708457Y-90644690D01*
X182823551Y-90730850D01*
X182823558Y-90730854D01*
X182958265Y-90781096D01*
X182958272Y-90781098D01*
X183017800Y-90787499D01*
X183017817Y-90787500D01*
X183565645Y-90787500D01*
X184065645Y-90787500D01*
X184613473Y-90787500D01*
X184613489Y-90787499D01*
X184673017Y-90781098D01*
X184673024Y-90781096D01*
X184807731Y-90730854D01*
X184807738Y-90730850D01*
X184922832Y-90644690D01*
X184922835Y-90644687D01*
X185008995Y-90529593D01*
X185008999Y-90529586D01*
X185059241Y-90394879D01*
X185059243Y-90394872D01*
X185065644Y-90335344D01*
X185065645Y-90335327D01*
X185065645Y-89787500D01*
X184065645Y-89787500D01*
X184065645Y-90787500D01*
X183565645Y-90787500D01*
X183565645Y-89787500D01*
X182565645Y-89787500D01*
X182565645Y-90335344D01*
X132565644Y-90335344D01*
X132565645Y-90335327D01*
X132565645Y-89787500D01*
X131565645Y-89787500D01*
X131565645Y-90787500D01*
X131065645Y-90787500D01*
X131065645Y-89787500D01*
X130065645Y-89787500D01*
X130065645Y-90335344D01*
X123934028Y-90335344D01*
X124038247Y-90130802D01*
X124111210Y-89906247D01*
X124141208Y-89716852D01*
X124141225Y-89716741D01*
X124148145Y-89673047D01*
X124148145Y-89491422D01*
X130965645Y-89491422D01*
X130965645Y-89583578D01*
X130989497Y-89672595D01*
X131035575Y-89752405D01*
X131100740Y-89817570D01*
X131180550Y-89863648D01*
X131269567Y-89887500D01*
X131361723Y-89887500D01*
X131450740Y-89863648D01*
X131530550Y-89817570D01*
X131595715Y-89752405D01*
X131641793Y-89672595D01*
X131665645Y-89583578D01*
X131665645Y-89491422D01*
X183465645Y-89491422D01*
X183465645Y-89583578D01*
X183489497Y-89672595D01*
X183535575Y-89752405D01*
X183600740Y-89817570D01*
X183680550Y-89863648D01*
X183769567Y-89887500D01*
X183861723Y-89887500D01*
X183950740Y-89863648D01*
X184030550Y-89817570D01*
X184095715Y-89752405D01*
X184141793Y-89672595D01*
X184165645Y-89583578D01*
X184165645Y-89491422D01*
X184141793Y-89402405D01*
X184095715Y-89322595D01*
X184060620Y-89287500D01*
X184065645Y-89287500D01*
X185065645Y-89287500D01*
X185065645Y-88739664D01*
X185065414Y-88737513D01*
X190983145Y-88737513D01*
X190983145Y-89287500D01*
X191992397Y-89287500D01*
X191970627Y-89325208D01*
X191933145Y-89465091D01*
X191933145Y-89609909D01*
X191970627Y-89749792D01*
X191992397Y-89787500D01*
X190983146Y-89787500D01*
X190983146Y-90337486D01*
X190993639Y-90440197D01*
X191048786Y-90606619D01*
X191048788Y-90606624D01*
X191140829Y-90755845D01*
X191264799Y-90879815D01*
X191414020Y-90971856D01*
X191414025Y-90971858D01*
X191580447Y-91027005D01*
X191580454Y-91027006D01*
X191683164Y-91037499D01*
X192233144Y-91037499D01*
X192233145Y-91037498D01*
X192233145Y-90028247D01*
X192270853Y-90050018D01*
X192410736Y-90087500D01*
X192555554Y-90087500D01*
X192695437Y-90050018D01*
X192733145Y-90028247D01*
X192733145Y-91037499D01*
X193283117Y-91037499D01*
X193283131Y-91037498D01*
X193385842Y-91027005D01*
X193552264Y-90971858D01*
X193552269Y-90971856D01*
X193701490Y-90879815D01*
X193825460Y-90755845D01*
X193917501Y-90606624D01*
X193917503Y-90606619D01*
X193972650Y-90440197D01*
X193972651Y-90440190D01*
X193983144Y-90337486D01*
X193983145Y-90337473D01*
X193983145Y-89787500D01*
X192973893Y-89787500D01*
X192995663Y-89749792D01*
X193033145Y-89609909D01*
X193033145Y-89465091D01*
X192995663Y-89325208D01*
X192973893Y-89287500D01*
X193983144Y-89287500D01*
X193983144Y-88737528D01*
X193983143Y-88737513D01*
X193972650Y-88634802D01*
X193917503Y-88468380D01*
X193917501Y-88468375D01*
X193825460Y-88319154D01*
X193701490Y-88195184D01*
X193552269Y-88103143D01*
X193552264Y-88103141D01*
X193385842Y-88047994D01*
X193385835Y-88047993D01*
X193283131Y-88037500D01*
X192733145Y-88037500D01*
X192733145Y-89046752D01*
X192695437Y-89024982D01*
X192555554Y-88987500D01*
X192410736Y-88987500D01*
X192270853Y-89024982D01*
X192233145Y-89046752D01*
X192233145Y-88037500D01*
X191683173Y-88037500D01*
X191683157Y-88037501D01*
X191580447Y-88047994D01*
X191414025Y-88103141D01*
X191414020Y-88103143D01*
X191264799Y-88195184D01*
X191140829Y-88319154D01*
X191048788Y-88468375D01*
X191048786Y-88468380D01*
X190993639Y-88634802D01*
X190993638Y-88634809D01*
X190983145Y-88737513D01*
X185065414Y-88737513D01*
X185059243Y-88680127D01*
X185059241Y-88680120D01*
X185008999Y-88545413D01*
X185008995Y-88545406D01*
X184922835Y-88430312D01*
X184922832Y-88430309D01*
X184807738Y-88344149D01*
X184807731Y-88344145D01*
X184673024Y-88293903D01*
X184673017Y-88293901D01*
X184613489Y-88287500D01*
X184065645Y-88287500D01*
X184065645Y-89287500D01*
X184060620Y-89287500D01*
X184030550Y-89257430D01*
X183950740Y-89211352D01*
X183861723Y-89187500D01*
X183769567Y-89187500D01*
X183680550Y-89211352D01*
X183600740Y-89257430D01*
X183535575Y-89322595D01*
X183489497Y-89402405D01*
X183465645Y-89491422D01*
X131665645Y-89491422D01*
X131641793Y-89402405D01*
X131595715Y-89322595D01*
X131560620Y-89287500D01*
X131565645Y-89287500D01*
X132565645Y-89287500D01*
X132565645Y-88739672D01*
X132565644Y-88739655D01*
X182565645Y-88739655D01*
X182565645Y-89287500D01*
X183565645Y-89287500D01*
X183565645Y-88287500D01*
X183017800Y-88287500D01*
X182958272Y-88293901D01*
X182958265Y-88293903D01*
X182823558Y-88344145D01*
X182823551Y-88344149D01*
X182708457Y-88430309D01*
X182708454Y-88430312D01*
X182622294Y-88545406D01*
X182622290Y-88545413D01*
X182572048Y-88680120D01*
X182572046Y-88680127D01*
X182565645Y-88739655D01*
X132565644Y-88739655D01*
X132559243Y-88680127D01*
X132559241Y-88680120D01*
X132508999Y-88545413D01*
X132508995Y-88545406D01*
X132422835Y-88430312D01*
X132422832Y-88430309D01*
X132307738Y-88344149D01*
X132307731Y-88344145D01*
X132173024Y-88293903D01*
X132173017Y-88293901D01*
X132113489Y-88287500D01*
X131565645Y-88287500D01*
X131565645Y-89287500D01*
X131560620Y-89287500D01*
X131530550Y-89257430D01*
X131450740Y-89211352D01*
X131361723Y-89187500D01*
X131269567Y-89187500D01*
X131180550Y-89211352D01*
X131100740Y-89257430D01*
X131035575Y-89322595D01*
X130989497Y-89402405D01*
X130965645Y-89491422D01*
X124148145Y-89491422D01*
X124148145Y-89436947D01*
X124111210Y-89203752D01*
X124038247Y-88979197D01*
X123943195Y-88792646D01*
X123943194Y-88792644D01*
X123931061Y-88768830D01*
X123909864Y-88739655D01*
X130065645Y-88739655D01*
X130065645Y-89287500D01*
X131065645Y-89287500D01*
X131065645Y-88287500D01*
X130517800Y-88287500D01*
X130458272Y-88293901D01*
X130458265Y-88293903D01*
X130323558Y-88344145D01*
X130323551Y-88344149D01*
X130208457Y-88430309D01*
X130208454Y-88430312D01*
X130122294Y-88545406D01*
X130122290Y-88545413D01*
X130072048Y-88680120D01*
X130072046Y-88680127D01*
X130065645Y-88739655D01*
X123909864Y-88739655D01*
X123870803Y-88685894D01*
X123870803Y-88685893D01*
X123171932Y-89384765D01*
X123160663Y-89342708D01*
X123088255Y-89217292D01*
X122985853Y-89114890D01*
X122860437Y-89042482D01*
X122818379Y-89031212D01*
X123517250Y-88332340D01*
X123517249Y-88332338D01*
X123434319Y-88272087D01*
X123223947Y-88164897D01*
X122999392Y-88091934D01*
X122999393Y-88091934D01*
X122766197Y-88055000D01*
X122530093Y-88055000D01*
X122296897Y-88091934D01*
X122072342Y-88164897D01*
X121861975Y-88272084D01*
X121779039Y-88332340D01*
X122477911Y-89031212D01*
X122435853Y-89042482D01*
X122310437Y-89114890D01*
X122208035Y-89217292D01*
X122135627Y-89342708D01*
X122124357Y-89384766D01*
X121425485Y-88685894D01*
X121365229Y-88768830D01*
X121258042Y-88979197D01*
X121185079Y-89203752D01*
X121148145Y-89436947D01*
X117816145Y-89436947D01*
X117816145Y-84940730D01*
X121447645Y-84940730D01*
X121447645Y-86549269D01*
X121450498Y-86579699D01*
X121450498Y-86579701D01*
X121495351Y-86707880D01*
X121495352Y-86707882D01*
X121575995Y-86817150D01*
X121685263Y-86897793D01*
X121727990Y-86912744D01*
X121813444Y-86942646D01*
X121843875Y-86945500D01*
X121843879Y-86945500D01*
X123452415Y-86945500D01*
X123482844Y-86942646D01*
X123482846Y-86942646D01*
X123546935Y-86920219D01*
X123611027Y-86897793D01*
X123720295Y-86817150D01*
X123800938Y-86707882D01*
X123823576Y-86643187D01*
X123845791Y-86579701D01*
X123845791Y-86579699D01*
X123848645Y-86549269D01*
X123848645Y-85633013D01*
X191282645Y-85633013D01*
X191282645Y-85821986D01*
X191312204Y-86008618D01*
X191370599Y-86188336D01*
X191456385Y-86356699D01*
X191567455Y-86509573D01*
X191701072Y-86643190D01*
X191853946Y-86754260D01*
X191933492Y-86794790D01*
X192022308Y-86840045D01*
X192022310Y-86840045D01*
X192022313Y-86840047D01*
X192118642Y-86871346D01*
X192202026Y-86898440D01*
X192388659Y-86928000D01*
X192388664Y-86928000D01*
X192577631Y-86928000D01*
X192764263Y-86898440D01*
X192766257Y-86897792D01*
X192943977Y-86840047D01*
X193112344Y-86754260D01*
X193265218Y-86643190D01*
X193398835Y-86509573D01*
X193509905Y-86356699D01*
X193595692Y-86188332D01*
X193654085Y-86008618D01*
X193683645Y-85821986D01*
X193683645Y-85633013D01*
X193654085Y-85446381D01*
X193595690Y-85266663D01*
X193509904Y-85098300D01*
X193398835Y-84945427D01*
X193265218Y-84811810D01*
X193112344Y-84700740D01*
X193057607Y-84672850D01*
X192943981Y-84614954D01*
X192764263Y-84556559D01*
X192577631Y-84527000D01*
X192577626Y-84527000D01*
X192388664Y-84527000D01*
X192388659Y-84527000D01*
X192202026Y-84556559D01*
X192022308Y-84614954D01*
X191853945Y-84700740D01*
X191766724Y-84764110D01*
X191701072Y-84811810D01*
X191701070Y-84811812D01*
X191701069Y-84811812D01*
X191567457Y-84945424D01*
X191567457Y-84945425D01*
X191567455Y-84945427D01*
X191519755Y-85011079D01*
X191456385Y-85098300D01*
X191370599Y-85266663D01*
X191312204Y-85446381D01*
X191282645Y-85633013D01*
X123848645Y-85633013D01*
X123848645Y-84940730D01*
X123845791Y-84910300D01*
X123845791Y-84910298D01*
X123800938Y-84782119D01*
X123800937Y-84782117D01*
X123720295Y-84672850D01*
X123611027Y-84592207D01*
X123611025Y-84592206D01*
X123482845Y-84547353D01*
X123452415Y-84544500D01*
X123452411Y-84544500D01*
X121843879Y-84544500D01*
X121843875Y-84544500D01*
X121813445Y-84547353D01*
X121813443Y-84547353D01*
X121685264Y-84592206D01*
X121685262Y-84592207D01*
X121575995Y-84672850D01*
X121495352Y-84782117D01*
X121495351Y-84782119D01*
X121450498Y-84910298D01*
X121450498Y-84910300D01*
X121447645Y-84940730D01*
X117816145Y-84940730D01*
X117816145Y-81774003D01*
X148287394Y-81774003D01*
X148287394Y-83326007D01*
X148292091Y-83369686D01*
X148303291Y-83421174D01*
X148305784Y-83431372D01*
X148305785Y-83431375D01*
X148348793Y-83512083D01*
X148348795Y-83512086D01*
X148394554Y-83564895D01*
X148412136Y-83582839D01*
X148412140Y-83582843D01*
X148412141Y-83582844D01*
X148412143Y-83582845D01*
X148491953Y-83627488D01*
X148491957Y-83627490D01*
X148558996Y-83647175D01*
X148616894Y-83655500D01*
X148616898Y-83655500D01*
X178968885Y-83655500D01*
X178968894Y-83655500D01*
X179012578Y-83650803D01*
X179041769Y-83644452D01*
X179064068Y-83639602D01*
X179064084Y-83639598D01*
X179064089Y-83639597D01*
X179074267Y-83637110D01*
X179154979Y-83594100D01*
X179207783Y-83548345D01*
X179225737Y-83530754D01*
X179270384Y-83450937D01*
X179290069Y-83383898D01*
X179298394Y-83326000D01*
X179298394Y-81774000D01*
X179293697Y-81730316D01*
X179289791Y-81712364D01*
X179282496Y-81678825D01*
X179282242Y-81677789D01*
X179280004Y-81668627D01*
X179236994Y-81587915D01*
X179191239Y-81535111D01*
X179191233Y-81535104D01*
X179173651Y-81517160D01*
X179173650Y-81517159D01*
X179173648Y-81517157D01*
X179173646Y-81517156D01*
X179173644Y-81517154D01*
X179093834Y-81472511D01*
X179093829Y-81472509D01*
X179026797Y-81452826D01*
X179026793Y-81452825D01*
X179026792Y-81452825D01*
X178968894Y-81444500D01*
X148616894Y-81444500D01*
X148616886Y-81444500D01*
X148573207Y-81449197D01*
X148521719Y-81460397D01*
X148511521Y-81462890D01*
X148511518Y-81462891D01*
X148430810Y-81505899D01*
X148430807Y-81505901D01*
X148377998Y-81551660D01*
X148360054Y-81569242D01*
X148360048Y-81569249D01*
X148315405Y-81649059D01*
X148315403Y-81649064D01*
X148295720Y-81716096D01*
X148295719Y-81716101D01*
X148295719Y-81716102D01*
X148287396Y-81773992D01*
X148287394Y-81774003D01*
X117816145Y-81774003D01*
X117816145Y-79755513D01*
X126865145Y-79755513D01*
X126865145Y-79944486D01*
X126894704Y-80131118D01*
X126953099Y-80310836D01*
X127038885Y-80479199D01*
X127149955Y-80632073D01*
X127283572Y-80765690D01*
X127436446Y-80876760D01*
X127515992Y-80917290D01*
X127604808Y-80962545D01*
X127604810Y-80962545D01*
X127604813Y-80962547D01*
X127701142Y-80993846D01*
X127784526Y-81020940D01*
X127971159Y-81050500D01*
X127971164Y-81050500D01*
X130160131Y-81050500D01*
X130346763Y-81020940D01*
X130526477Y-80962547D01*
X130694844Y-80876760D01*
X130847718Y-80765690D01*
X130981335Y-80632073D01*
X131092405Y-80479199D01*
X131178192Y-80310832D01*
X131236585Y-80131118D01*
X131266145Y-79944486D01*
X131266145Y-79755513D01*
X131236585Y-79568881D01*
X131178190Y-79389163D01*
X131092404Y-79220800D01*
X130981335Y-79067927D01*
X130847718Y-78934310D01*
X130694844Y-78823240D01*
X130526481Y-78737454D01*
X130346763Y-78679059D01*
X130160131Y-78649500D01*
X130160126Y-78649500D01*
X127971164Y-78649500D01*
X127971159Y-78649500D01*
X127784526Y-78679059D01*
X127604808Y-78737454D01*
X127436445Y-78823240D01*
X127349224Y-78886610D01*
X127283572Y-78934310D01*
X127283570Y-78934312D01*
X127283569Y-78934312D01*
X127149957Y-79067924D01*
X127149957Y-79067925D01*
X127149955Y-79067927D01*
X127102255Y-79133579D01*
X127038885Y-79220800D01*
X126953099Y-79389163D01*
X126894704Y-79568881D01*
X126865145Y-79755513D01*
X117816145Y-79755513D01*
X117816145Y-74031947D01*
X124565645Y-74031947D01*
X124565645Y-74900000D01*
X125565645Y-74900000D01*
X125565645Y-75400000D01*
X124565645Y-75400000D01*
X124565645Y-76268052D01*
X124602579Y-76501247D01*
X124675542Y-76725802D01*
X124782730Y-76936171D01*
X124921511Y-77127186D01*
X125088458Y-77294133D01*
X125279473Y-77432914D01*
X125489840Y-77540102D01*
X125714389Y-77613063D01*
X125714395Y-77613065D01*
X125815645Y-77629101D01*
X125815645Y-76583012D01*
X125872652Y-76615925D01*
X125999819Y-76650000D01*
X126131471Y-76650000D01*
X126258638Y-76615925D01*
X126315645Y-76583012D01*
X126315645Y-77629100D01*
X126416894Y-77613065D01*
X126416900Y-77613063D01*
X126641449Y-77540102D01*
X126851816Y-77432914D01*
X127042831Y-77294133D01*
X127209778Y-77127186D01*
X127348559Y-76936171D01*
X127455747Y-76725802D01*
X127528710Y-76501247D01*
X127565645Y-76268052D01*
X127565645Y-75400000D01*
X126565645Y-75400000D01*
X126565645Y-74900000D01*
X127565645Y-74900000D01*
X127565645Y-74031947D01*
X127528710Y-73798752D01*
X127455747Y-73574197D01*
X127348559Y-73363828D01*
X127209778Y-73172813D01*
X127042831Y-73005866D01*
X127042825Y-73005861D01*
X126999645Y-72974489D01*
X126999629Y-72974478D01*
X126869932Y-72880247D01*
X131065145Y-72880247D01*
X131065145Y-77419752D01*
X131076776Y-77478229D01*
X131076777Y-77478230D01*
X131121092Y-77544552D01*
X131187414Y-77588867D01*
X131187415Y-77588868D01*
X131245892Y-77600499D01*
X131245895Y-77600500D01*
X131245897Y-77600500D01*
X133285395Y-77600500D01*
X133285396Y-77600499D01*
X133300213Y-77597552D01*
X133343874Y-77588868D01*
X133343874Y-77588867D01*
X133343876Y-77588867D01*
X133410197Y-77544552D01*
X133454512Y-77478231D01*
X133454512Y-77478229D01*
X133454513Y-77478229D01*
X133466144Y-77419752D01*
X133466145Y-77419750D01*
X133466145Y-72947844D01*
X146315645Y-72947844D01*
X146322046Y-73007372D01*
X146322048Y-73007379D01*
X146372290Y-73142086D01*
X146372294Y-73142093D01*
X146458454Y-73257187D01*
X146458457Y-73257190D01*
X146573551Y-73343350D01*
X146573558Y-73343354D01*
X146708265Y-73393596D01*
X146708272Y-73393598D01*
X146767800Y-73399999D01*
X146767817Y-73400000D01*
X147315645Y-73400000D01*
X147815645Y-73400000D01*
X148363473Y-73400000D01*
X148363489Y-73399999D01*
X148423017Y-73393598D01*
X148423024Y-73393596D01*
X148557731Y-73343354D01*
X148557738Y-73343350D01*
X148672832Y-73257190D01*
X148672835Y-73257187D01*
X148758995Y-73142093D01*
X148758999Y-73142086D01*
X148809241Y-73007379D01*
X148809243Y-73007372D01*
X148815644Y-72947844D01*
X148815645Y-72947827D01*
X148815645Y-72880247D01*
X181665145Y-72880247D01*
X181665145Y-77419752D01*
X181676776Y-77478229D01*
X181676777Y-77478230D01*
X181721092Y-77544552D01*
X181787414Y-77588867D01*
X181787415Y-77588868D01*
X181845892Y-77600499D01*
X181845895Y-77600500D01*
X181845897Y-77600500D01*
X183885395Y-77600500D01*
X183885396Y-77600499D01*
X183900213Y-77597552D01*
X183943874Y-77588868D01*
X183943874Y-77588867D01*
X183943876Y-77588867D01*
X184010197Y-77544552D01*
X184054512Y-77478231D01*
X184054512Y-77478229D01*
X184054513Y-77478229D01*
X184066144Y-77419752D01*
X184066145Y-77419750D01*
X184066145Y-74031947D01*
X187565645Y-74031947D01*
X187565645Y-74900000D01*
X188565645Y-74900000D01*
X188565645Y-75400000D01*
X187565645Y-75400000D01*
X187565645Y-76268052D01*
X187602579Y-76501247D01*
X187675542Y-76725802D01*
X187782730Y-76936171D01*
X187921511Y-77127186D01*
X188088458Y-77294133D01*
X188279473Y-77432914D01*
X188489840Y-77540102D01*
X188714389Y-77613063D01*
X188714395Y-77613065D01*
X188815645Y-77629101D01*
X188815645Y-76583012D01*
X188872652Y-76615925D01*
X188999819Y-76650000D01*
X189131471Y-76650000D01*
X189258638Y-76615925D01*
X189315645Y-76583012D01*
X189315645Y-77629100D01*
X189416894Y-77613065D01*
X189416900Y-77613063D01*
X189641449Y-77540102D01*
X189851816Y-77432914D01*
X190042831Y-77294133D01*
X190209778Y-77127186D01*
X190348559Y-76936171D01*
X190455747Y-76725802D01*
X190528710Y-76501247D01*
X190565645Y-76268052D01*
X190565645Y-75400000D01*
X189565645Y-75400000D01*
X189565645Y-74900000D01*
X190565645Y-74900000D01*
X190565645Y-74031947D01*
X190528710Y-73798752D01*
X190455747Y-73574197D01*
X190348559Y-73363828D01*
X190209778Y-73172813D01*
X190042831Y-73005866D01*
X189851816Y-72867085D01*
X189641447Y-72759897D01*
X189416892Y-72686934D01*
X189315645Y-72670897D01*
X189315645Y-73716988D01*
X189258638Y-73684075D01*
X189131471Y-73650000D01*
X188999819Y-73650000D01*
X188872652Y-73684075D01*
X188815645Y-73716988D01*
X188815645Y-72670897D01*
X188714397Y-72686934D01*
X188489842Y-72759897D01*
X188279473Y-72867085D01*
X188088458Y-73005866D01*
X187921511Y-73172813D01*
X187782730Y-73363828D01*
X187675542Y-73574197D01*
X187602579Y-73798752D01*
X187565645Y-74031947D01*
X184066145Y-74031947D01*
X184066145Y-72880249D01*
X184066144Y-72880247D01*
X184054513Y-72821770D01*
X184054512Y-72821769D01*
X184010197Y-72755447D01*
X183943875Y-72711132D01*
X183943874Y-72711131D01*
X183885397Y-72699500D01*
X183885393Y-72699500D01*
X181845897Y-72699500D01*
X181845892Y-72699500D01*
X181787415Y-72711131D01*
X181787414Y-72711132D01*
X181721092Y-72755447D01*
X181676777Y-72821769D01*
X181676776Y-72821770D01*
X181665145Y-72880247D01*
X148815645Y-72880247D01*
X148815645Y-72400000D01*
X147815645Y-72400000D01*
X147815645Y-73400000D01*
X147315645Y-73400000D01*
X147315645Y-72400000D01*
X146315645Y-72400000D01*
X146315645Y-72947844D01*
X133466145Y-72947844D01*
X133466145Y-72880249D01*
X133466144Y-72880247D01*
X133454513Y-72821770D01*
X133454512Y-72821769D01*
X133410197Y-72755447D01*
X133343875Y-72711132D01*
X133343874Y-72711131D01*
X133285397Y-72699500D01*
X133285393Y-72699500D01*
X131245897Y-72699500D01*
X131245892Y-72699500D01*
X131187415Y-72711131D01*
X131187414Y-72711132D01*
X131121092Y-72755447D01*
X131076777Y-72821769D01*
X131076776Y-72821770D01*
X131065145Y-72880247D01*
X126869932Y-72880247D01*
X126851816Y-72867085D01*
X126641447Y-72759897D01*
X126416892Y-72686934D01*
X126315645Y-72670897D01*
X126315645Y-73716988D01*
X126258638Y-73684075D01*
X126131471Y-73650000D01*
X125999819Y-73650000D01*
X125872652Y-73684075D01*
X125815645Y-73716988D01*
X125815645Y-72670897D01*
X125714397Y-72686934D01*
X125489842Y-72759897D01*
X125279473Y-72867085D01*
X125088458Y-73005866D01*
X124921511Y-73172813D01*
X124782730Y-73363828D01*
X124675542Y-73574197D01*
X124602579Y-73798752D01*
X124565645Y-74031947D01*
X117816145Y-74031947D01*
X117816145Y-72103922D01*
X147215645Y-72103922D01*
X147215645Y-72196078D01*
X147239497Y-72285095D01*
X147285575Y-72364905D01*
X147350740Y-72430070D01*
X147430550Y-72476148D01*
X147519567Y-72500000D01*
X147611723Y-72500000D01*
X147700740Y-72476148D01*
X147780550Y-72430070D01*
X147845715Y-72364905D01*
X147891793Y-72285095D01*
X147915645Y-72196078D01*
X147915645Y-72103922D01*
X147891793Y-72014905D01*
X147845715Y-71935095D01*
X147810620Y-71900000D01*
X147815645Y-71900000D01*
X148815645Y-71900000D01*
X148815645Y-71352172D01*
X148815644Y-71352155D01*
X148809243Y-71292627D01*
X148809241Y-71292620D01*
X148758999Y-71157913D01*
X148758995Y-71157906D01*
X148672835Y-71042812D01*
X148672832Y-71042809D01*
X148557738Y-70956649D01*
X148557731Y-70956645D01*
X148423024Y-70906403D01*
X148423017Y-70906401D01*
X148363489Y-70900000D01*
X147815645Y-70900000D01*
X147815645Y-71900000D01*
X147810620Y-71900000D01*
X147780550Y-71869930D01*
X147700740Y-71823852D01*
X147611723Y-71800000D01*
X147519567Y-71800000D01*
X147430550Y-71823852D01*
X147350740Y-71869930D01*
X147285575Y-71935095D01*
X147239497Y-72014905D01*
X147215645Y-72103922D01*
X117816145Y-72103922D01*
X117816145Y-71352155D01*
X146315645Y-71352155D01*
X146315645Y-71900000D01*
X147315645Y-71900000D01*
X147315645Y-70900000D01*
X146767800Y-70900000D01*
X146708272Y-70906401D01*
X146708265Y-70906403D01*
X146573558Y-70956645D01*
X146573551Y-70956649D01*
X146458457Y-71042809D01*
X146458454Y-71042812D01*
X146372294Y-71157906D01*
X146372290Y-71157913D01*
X146322048Y-71292620D01*
X146322046Y-71292627D01*
X146315645Y-71352155D01*
X117816145Y-71352155D01*
X117816145Y-70355513D01*
X183865145Y-70355513D01*
X183865145Y-70544486D01*
X183894704Y-70731118D01*
X183953099Y-70910836D01*
X184020343Y-71042809D01*
X184038885Y-71079199D01*
X184149955Y-71232073D01*
X184283572Y-71365690D01*
X184436446Y-71476760D01*
X184515992Y-71517290D01*
X184604808Y-71562545D01*
X184604810Y-71562545D01*
X184604813Y-71562547D01*
X184701142Y-71593846D01*
X184784526Y-71620940D01*
X184971159Y-71650500D01*
X184971164Y-71650500D01*
X187160131Y-71650500D01*
X187346763Y-71620940D01*
X187526477Y-71562547D01*
X187694844Y-71476760D01*
X187847718Y-71365690D01*
X187981335Y-71232073D01*
X188092405Y-71079199D01*
X188178192Y-70910832D01*
X188236585Y-70731118D01*
X188266145Y-70544486D01*
X188266145Y-70355513D01*
X188236585Y-70168881D01*
X188178190Y-69989163D01*
X188092404Y-69820800D01*
X187981335Y-69667927D01*
X187847718Y-69534310D01*
X187694844Y-69423240D01*
X187526481Y-69337454D01*
X187346763Y-69279059D01*
X187160131Y-69249500D01*
X187160126Y-69249500D01*
X184971164Y-69249500D01*
X184971159Y-69249500D01*
X184784526Y-69279059D01*
X184604808Y-69337454D01*
X184436445Y-69423240D01*
X184349224Y-69486610D01*
X184283572Y-69534310D01*
X184283570Y-69534312D01*
X184283569Y-69534312D01*
X184149957Y-69667924D01*
X184149957Y-69667925D01*
X184149955Y-69667927D01*
X184102255Y-69733579D01*
X184038885Y-69820800D01*
X183953099Y-69989163D01*
X183894704Y-70168881D01*
X183865145Y-70355513D01*
X117816145Y-70355513D01*
X117816145Y-64610438D01*
X130015145Y-64610438D01*
X130015145Y-66689562D01*
X130028797Y-66740513D01*
X130035624Y-66765990D01*
X130035627Y-66765995D01*
X130075180Y-66834504D01*
X130075184Y-66834509D01*
X130075185Y-66834511D01*
X130131134Y-66890460D01*
X130131136Y-66890461D01*
X130131140Y-66890464D01*
X130199649Y-66930017D01*
X130199656Y-66930021D01*
X130276083Y-66950500D01*
X130276085Y-66950500D01*
X132355205Y-66950500D01*
X132355207Y-66950500D01*
X132431634Y-66930021D01*
X132500156Y-66890460D01*
X132556105Y-66834511D01*
X132595666Y-66765989D01*
X132616145Y-66689562D01*
X132616145Y-64610438D01*
X132595666Y-64534011D01*
X132595662Y-64534004D01*
X132556109Y-64465495D01*
X132556103Y-64465487D01*
X132500157Y-64409541D01*
X132500149Y-64409535D01*
X132431640Y-64369982D01*
X132431635Y-64369979D01*
X132406158Y-64363152D01*
X132355207Y-64349500D01*
X130355207Y-64349500D01*
X130276083Y-64349500D01*
X130237869Y-64359739D01*
X130199654Y-64369979D01*
X130199649Y-64369982D01*
X130131140Y-64409535D01*
X130131132Y-64409541D01*
X130075186Y-64465487D01*
X130075180Y-64465495D01*
X130035627Y-64534004D01*
X130035624Y-64534009D01*
X130021971Y-64584962D01*
X130015145Y-64610438D01*
X117816145Y-64610438D01*
X117816145Y-64153750D01*
X117816371Y-64146263D01*
X117825489Y-63995525D01*
X117832093Y-63886337D01*
X117833898Y-63871476D01*
X117880162Y-63619028D01*
X117883744Y-63604500D01*
X117960096Y-63359477D01*
X117965399Y-63345495D01*
X118070739Y-63111440D01*
X118077684Y-63098208D01*
X118210467Y-62878564D01*
X118218964Y-62866252D01*
X118377254Y-62664212D01*
X118387167Y-62653024D01*
X118568651Y-62471544D01*
X118579844Y-62461627D01*
X118781891Y-62303338D01*
X118794190Y-62294848D01*
X119013847Y-62162063D01*
X119027090Y-62155115D01*
X119261122Y-62049789D01*
X119275110Y-62044484D01*
X119520155Y-61968129D01*
X119534675Y-61964550D01*
X119787119Y-61918293D01*
X119801972Y-61916489D01*
X120062649Y-61900725D01*
X120070129Y-61900500D01*
X120109810Y-61900500D01*
X195061886Y-61900500D01*
X195069375Y-61900726D01*
G37*
%TD.AperFunction*%
%TD*%
%TA.AperFunction,Conductor*%
%TO.N,/ARCHITECTURE/2. POLARITY PROTECTION/VPROT*%
G36*
X179035933Y-81669685D02*
G01*
X179081688Y-81722489D01*
X179092894Y-81774000D01*
X179092894Y-83326000D01*
X179073209Y-83393039D01*
X179020405Y-83438794D01*
X178968894Y-83450000D01*
X148616894Y-83450000D01*
X148549855Y-83430315D01*
X148504100Y-83377511D01*
X148492894Y-83326000D01*
X148492894Y-81774000D01*
X148512579Y-81706961D01*
X148565383Y-81661206D01*
X148616894Y-81650000D01*
X178968894Y-81650000D01*
X179035933Y-81669685D01*
G37*
%TD.AperFunction*%
%TD*%
M02*
