M48
; DRILL file {KiCad 9.0.6+1} date 2026-02-09T09:03:19+0000
; FORMAT={-:-/ absolute / metric / decimal}
; #@! TF.CreationDate,2026-02-09T09:03:19+00:00
; #@! TF.GenerationSoftware,Kicad,Pcbnew,9.0.6+1
; #@! TF.FileFunction,Plated,1,2,PTH
FMAT,2
METRIC
; #@! TA.AperFunction,Plated,PTH,ViaDrill
T1C0.250
; #@! TA.AperFunction,Plated,PTH,ComponentDrill
T2C0.700
; #@! TA.AperFunction,Plated,PTH,ComponentDrill
T3C1.000
; #@! TA.AperFunction,Plated,PTH,ComponentDrill
T4C1.100
; #@! TA.AperFunction,Plated,PTH,ComponentDrill
T5C3.200
%
G90
G05
T1
X143.816Y-93.05
X148.816Y-81.95
X148.816Y-82.55
X148.816Y-83.15
X153.266Y-84.45
X166.166Y-85.05
X168.866Y-87.65
X168.966Y-77.45
X171.966Y-89.45
X174.191Y-96.925
X177.566Y-65.45
X178.816Y-81.95
X178.816Y-82.55
X178.816Y-83.15
T2
X131.316Y-89.537
X147.566Y-72.15
X183.816Y-89.537
T4
X122.648Y-85.745
X122.648Y-89.555
X192.483Y-85.727
X192.483Y-89.537
T5
X121.566Y-65.65
X121.566Y-97.65
X193.566Y-65.65
X193.566Y-97.65
T3
G00X126.066Y-74.15
M15
G01X126.066Y-76.15
M16
G05
G00X128.066Y-79.85
M15
G01X130.066Y-79.85
M16
G05
G00X132.266Y-73.9
M15
G01X132.266Y-76.4
M16
G05
G00X182.866Y-76.4
M15
G01X182.866Y-73.9
M16
G05
G00X187.066Y-70.45
M15
G01X185.066Y-70.45
M16
G05
G00X189.066Y-76.15
M15
G01X189.066Y-74.15
M16
G05
M30
