%TF.GenerationSoftware,KiCad,Pcbnew,9.0.6+1*%
%TF.CreationDate,Date%
%TF.ProjectId,Input-Protection,496e7075-742d-4507-926f-74656374696f,+ (Unreleased)*%
%TF.SameCoordinates,Original*%
%TF.FileFunction,Copper,L1,Top*%
%TF.FilePolarity,Positive*%
%FSLAX46Y46*%
G04 Gerber Fmt 4.6, Leading zero omitted, Abs format (unit mm)*
G04 Created by KiCad*
%MOMM*%
%LPD*%
G01*
G04 APERTURE LIST*
G04 Aperture macros list*
%AMRoundRect*
0 Rectangle with rounded corners*
0 $1 Rounding radius*
0 $2 $3 $4 $5 $6 $7 $8 $9 X,Y pos of 4 corners*
0 Add a 4 corners polygon primitive as box body*
4,1,4,$2,$3,$4,$5,$6,$7,$8,$9,$2,$3,0*
0 Add four circle primitives for the rounded corners*
1,1,$1+$1,$2,$3*
1,1,$1+$1,$4,$5*
1,1,$1+$1,$6,$7*
1,1,$1+$1,$8,$9*
0 Add four rect primitives between the rounded corners*
20,1,$1+$1,$2,$3,$4,$5,0*
20,1,$1+$1,$4,$5,$6,$7,0*
20,1,$1+$1,$6,$7,$8,$9,0*
20,1,$1+$1,$8,$9,$2,$3,0*%
G04 Aperture macros list end*
%TA.AperFunction,NonConductor*%
%ADD10C,0.000000*%
%TD*%
%ADD11C,0.300000*%
%TA.AperFunction,NonConductor*%
%ADD12C,0.300000*%
%TD*%
%ADD13C,0.250000*%
%TA.AperFunction,NonConductor*%
%ADD14C,0.250000*%
%TD*%
%TA.AperFunction,EtchedComponent*%
%ADD15C,0.200000*%
%TD*%
%TA.AperFunction,SMDPad,CuDef*%
%ADD16RoundRect,0.250000X0.625000X-0.400000X0.625000X0.400000X-0.625000X0.400000X-0.625000X-0.400000X0*%
%TD*%
%TA.AperFunction,SMDPad,CuDef*%
%ADD17RoundRect,0.250000X-0.625000X0.400000X-0.625000X-0.400000X0.625000X-0.400000X0.625000X0.400000X0*%
%TD*%
%TA.AperFunction,SMDPad,CuDef*%
%ADD18R,0.914400X2.413000*%
%TD*%
%TA.AperFunction,SMDPad,CuDef*%
%ADD19R,5.511800X6.070600*%
%TD*%
%TA.AperFunction,SMDPad,CuDef*%
%ADD20RoundRect,0.150000X-0.587500X-0.150000X0.587500X-0.150000X0.587500X0.150000X-0.587500X0.150000X0*%
%TD*%
%TA.AperFunction,ComponentPad*%
%ADD21R,1.500000X1.500000*%
%TD*%
%TA.AperFunction,SMDPad,CuDef*%
%ADD22C,1.500000*%
%TD*%
%TA.AperFunction,SMDPad,CuDef*%
%ADD23RoundRect,0.237500X-0.300000X-0.237500X0.300000X-0.237500X0.300000X0.237500X-0.300000X0.237500X0*%
%TD*%
%TA.AperFunction,SMDPad,CuDef*%
%ADD24C,1.000000*%
%TD*%
%TA.AperFunction,SMDPad,CuDef*%
%ADD25C,0.500000*%
%TD*%
%TA.AperFunction,ComponentPad*%
%ADD26R,2.000000X4.500000*%
%TD*%
%TA.AperFunction,ComponentPad*%
%ADD27O,2.000000X4.000000*%
%TD*%
%TA.AperFunction,ComponentPad*%
%ADD28O,4.000000X2.000000*%
%TD*%
%TA.AperFunction,SMDPad,CuDef*%
%ADD29RoundRect,0.250000X-0.400000X-0.625000X0.400000X-0.625000X0.400000X0.625000X-0.400000X0.625000X0*%
%TD*%
%TA.AperFunction,ComponentPad*%
%ADD30C,5.700000*%
%TD*%
%TA.AperFunction,SMDPad,CuDef*%
%ADD31R,0.802000X1.505000*%
%TD*%
%TA.AperFunction,ComponentPad*%
%ADD32RoundRect,0.250000X-0.750000X0.750000X-0.750000X-0.750000X0.750000X-0.750000X0.750000X0.750000X0*%
%TD*%
%TA.AperFunction,ComponentPad*%
%ADD33C,2.000000*%
%TD*%
%TA.AperFunction,ComponentPad*%
%ADD34RoundRect,0.250000X0.750000X-0.750000X0.750000X0.750000X-0.750000X0.750000X-0.750000X-0.750000X0*%
%TD*%
%TA.AperFunction,SMDPad,CuDef*%
%ADD35RoundRect,0.250000X0.250000X0.250000X-0.250000X0.250000X-0.250000X-0.250000X0.250000X-0.250000X0*%
%TD*%
%TA.AperFunction,SMDPad,CuDef*%
%ADD36RoundRect,0.112500X0.112500X-0.187500X0.112500X0.187500X-0.112500X0.187500X-0.112500X-0.187500X0*%
%TD*%
%TA.AperFunction,SMDPad,CuDef*%
%ADD37RoundRect,0.112500X-0.112500X0.187500X-0.112500X-0.187500X0.112500X-0.187500X0.112500X0.187500X0*%
%TD*%
%TA.AperFunction,SMDPad,CuDef*%
%ADD38RoundRect,0.237500X0.237500X-0.300000X0.237500X0.300000X-0.237500X0.300000X-0.237500X-0.300000X0*%
%TD*%
%TA.AperFunction,SMDPad,CuDef*%
%ADD39RoundRect,0.237500X-0.237500X0.300000X-0.237500X-0.300000X0.237500X-0.300000X0.237500X0.300000X0*%
%TD*%
%TA.AperFunction,SMDPad,CuDef*%
%ADD40RoundRect,0.250000X0.400000X0.625000X-0.400000X0.625000X-0.400000X-0.625000X0.400000X-0.625000X0*%
%TD*%
%TA.AperFunction,ViaPad*%
%ADD41C,0.550000*%
%TD*%
%TA.AperFunction,Conductor*%
%ADD42C,0.250000*%
%TD*%
%TA.AperFunction,Conductor*%
%ADD43C,0.200000*%
%TD*%
G04 APERTURE END LIST*
D10*
%TA.AperFunction,NonConductor*%
G36*
X137806908Y-62549910D02*
G01*
X138043162Y-62577179D01*
X138273720Y-62621796D01*
X138497904Y-62683082D01*
X138715034Y-62760356D01*
X138924428Y-62852938D01*
X139125408Y-62960149D01*
X139317293Y-63081308D01*
X139499404Y-63215735D01*
X139671060Y-63362752D01*
X139831581Y-63521677D01*
X139980288Y-63691830D01*
X140116500Y-63872533D01*
X140239538Y-64063104D01*
X140348721Y-64262865D01*
X140443370Y-64471134D01*
X141170260Y-63561191D01*
X140949120Y-63631731D01*
X140943675Y-63633317D01*
X140938215Y-63634612D01*
X140932748Y-63635619D01*
X140927283Y-63636344D01*
X140921829Y-63636791D01*
X140916395Y-63636965D01*
X140910988Y-63636869D01*
X140905619Y-63636508D01*
X140900296Y-63635888D01*
X140895027Y-63635012D01*
X140889821Y-63633885D01*
X140884688Y-63632511D01*
X140879635Y-63630895D01*
X140874671Y-63629042D01*
X140869806Y-63626956D01*
X140865048Y-63624641D01*
X140860405Y-63622102D01*
X140855887Y-63619344D01*
X140851502Y-63616371D01*
X140847259Y-63613187D01*
X140843167Y-63609797D01*
X140839234Y-63606206D01*
X140835469Y-63602418D01*
X140831881Y-63598438D01*
X140828479Y-63594269D01*
X140825270Y-63589917D01*
X140822265Y-63585387D01*
X140819472Y-63580681D01*
X140816900Y-63575806D01*
X140814556Y-63570766D01*
X140812451Y-63565565D01*
X140810593Y-63560207D01*
X140809006Y-63554762D01*
X140807711Y-63549302D01*
X140806703Y-63543835D01*
X140805978Y-63538370D01*
X140805531Y-63532916D01*
X140805358Y-63527481D01*
X140805454Y-63522075D01*
X140805814Y-63516706D01*
X140806435Y-63511383D01*
X140807311Y-63506114D01*
X140808438Y-63500908D01*
X140809811Y-63495775D01*
X140811427Y-63490722D01*
X140813280Y-63485758D01*
X140815367Y-63480893D01*
X140817681Y-63476135D01*
X140820220Y-63471492D01*
X140822978Y-63466974D01*
X140825952Y-63462589D01*
X140829135Y-63458346D01*
X140832525Y-63454254D01*
X140836116Y-63450321D01*
X140839904Y-63446556D01*
X140843885Y-63442968D01*
X140848053Y-63439566D01*
X140852405Y-63436357D01*
X140856936Y-63433352D01*
X140861641Y-63430559D01*
X140866516Y-63427987D01*
X140871557Y-63425643D01*
X140876758Y-63423538D01*
X140882116Y-63421680D01*
X141607706Y-63190250D01*
X141542253Y-63949024D01*
X141541624Y-63954660D01*
X141540719Y-63960198D01*
X141539547Y-63965632D01*
X141538115Y-63970955D01*
X141536430Y-63976161D01*
X141534500Y-63981244D01*
X141532332Y-63986197D01*
X141529935Y-63991014D01*
X141527315Y-63995689D01*
X141524480Y-64000216D01*
X141521437Y-64004587D01*
X141518195Y-64008797D01*
X141514760Y-64012839D01*
X141511140Y-64016708D01*
X141507343Y-64020396D01*
X141503377Y-64023898D01*
X141499248Y-64027206D01*
X141494964Y-64030316D01*
X141490533Y-64033220D01*
X141485962Y-64035912D01*
X141481259Y-64038385D01*
X141476431Y-64040634D01*
X141471486Y-64042653D01*
X141466431Y-64044434D01*
X141461275Y-64045971D01*
X141456024Y-64047258D01*
X141450685Y-64048290D01*
X141445268Y-64049058D01*
X141439778Y-64049558D01*
X141434223Y-64049783D01*
X141428612Y-64049726D01*
X141422951Y-64049381D01*
X141417316Y-64048751D01*
X141411778Y-64047847D01*
X141406344Y-64046675D01*
X141401021Y-64045242D01*
X141395815Y-64043557D01*
X141390732Y-64041628D01*
X141385779Y-64039460D01*
X141380962Y-64037063D01*
X141376287Y-64034443D01*
X141371761Y-64031608D01*
X141367389Y-64028565D01*
X141363179Y-64025323D01*
X141359136Y-64021888D01*
X141355268Y-64018269D01*
X141351579Y-64014472D01*
X141348077Y-64010505D01*
X141344768Y-64006376D01*
X141341658Y-64002092D01*
X141338754Y-63997661D01*
X141336062Y-63993090D01*
X141333587Y-63988387D01*
X141331338Y-63983560D01*
X141329319Y-63978615D01*
X141327537Y-63973560D01*
X141325999Y-63968404D01*
X141324710Y-63963153D01*
X141323678Y-63957815D01*
X141322908Y-63952397D01*
X141322407Y-63946907D01*
X141322181Y-63941353D01*
X141322237Y-63935742D01*
X141322580Y-63930081D01*
X141342524Y-63698818D01*
X140531436Y-64714153D01*
X140564378Y-64825804D01*
X140593206Y-64939152D01*
X140617835Y-65054108D01*
X140638179Y-65170588D01*
X140654152Y-65288504D01*
X140665668Y-65407771D01*
X140672641Y-65528302D01*
X140674984Y-65650010D01*
X140673080Y-65759731D01*
X140667410Y-65868501D01*
X140658038Y-65976260D01*
X140645027Y-66082942D01*
X140628439Y-66188485D01*
X140608339Y-66292827D01*
X140584788Y-66395903D01*
X140557851Y-66497651D01*
X140896958Y-66497651D01*
X140901442Y-66485721D01*
X140906368Y-66474015D01*
X140911726Y-66462541D01*
X140917504Y-66451311D01*
X140923694Y-66440334D01*
X140930284Y-66429622D01*
X140937265Y-66419183D01*
X140944626Y-66409029D01*
X140952357Y-66399169D01*
X140960448Y-66389614D01*
X140968889Y-66380374D01*
X140977669Y-66371459D01*
X140986779Y-66362880D01*
X140996207Y-66354645D01*
X141005945Y-66346767D01*
X141015981Y-66339255D01*
X141026305Y-66332119D01*
X141036908Y-66325369D01*
X141047778Y-66319016D01*
X141058907Y-66313069D01*
X141070282Y-66307540D01*
X141081896Y-66302438D01*
X141093736Y-66297773D01*
X141105793Y-66293556D01*
X141118057Y-66289797D01*
X141130517Y-66286506D01*
X141143164Y-66283693D01*
X141155987Y-66281369D01*
X141168975Y-66279544D01*
X141182119Y-66278227D01*
X141195409Y-66277430D01*
X141208833Y-66277162D01*
X141225842Y-66277592D01*
X141242628Y-66278871D01*
X141259172Y-66280976D01*
X141275452Y-66283886D01*
X141291447Y-66287582D01*
X141307137Y-66292042D01*
X141322501Y-66297245D01*
X141337517Y-66303170D01*
X141352166Y-66309797D01*
X141366425Y-66317105D01*
X141380275Y-66325072D01*
X141393695Y-66333679D01*
X141406663Y-66342903D01*
X141419159Y-66352726D01*
X141431162Y-66363124D01*
X141442651Y-66374078D01*
X141453605Y-66385567D01*
X141464003Y-66397570D01*
X141473825Y-66410066D01*
X141483050Y-66423034D01*
X141491657Y-66436454D01*
X141499624Y-66450304D01*
X141506932Y-66464563D01*
X141513559Y-66479212D01*
X141519485Y-66494228D01*
X141524688Y-66509592D01*
X141529147Y-66525282D01*
X141532843Y-66541277D01*
X141535754Y-66557557D01*
X141537859Y-66574101D01*
X141539137Y-66590888D01*
X141539567Y-66607896D01*
X141539137Y-66624903D01*
X141537859Y-66641689D01*
X141535754Y-66658231D01*
X141532843Y-66674510D01*
X141529147Y-66690504D01*
X141524688Y-66706193D01*
X141519485Y-66721556D01*
X141513559Y-66736571D01*
X141506932Y-66751219D01*
X141499624Y-66765478D01*
X141491657Y-66779327D01*
X141483050Y-66792746D01*
X141473825Y-66805714D01*
X141464003Y-66818209D01*
X141453605Y-66830212D01*
X141442651Y-66841700D01*
X141431162Y-66852654D01*
X141419159Y-66863052D01*
X141406663Y-66872874D01*
X141393695Y-66882099D01*
X141380275Y-66890705D01*
X141366425Y-66898672D01*
X141352166Y-66905980D01*
X141337517Y-66912607D01*
X141322501Y-66918532D01*
X141307137Y-66923735D01*
X141291447Y-66928195D01*
X141275452Y-66931891D01*
X141259172Y-66934801D01*
X141242628Y-66936906D01*
X141225842Y-66938184D01*
X141208833Y-66938615D01*
X141195409Y-66938347D01*
X141182119Y-66937549D01*
X141155987Y-66934407D01*
X141130517Y-66929270D01*
X141105793Y-66922220D01*
X141081896Y-66913339D01*
X141058907Y-66902707D01*
X141036908Y-66890408D01*
X141015981Y-66876522D01*
X140996207Y-66861131D01*
X140977669Y-66844317D01*
X140960448Y-66826162D01*
X140944626Y-66806747D01*
X140930284Y-66786154D01*
X140917504Y-66764465D01*
X140906368Y-66741761D01*
X140896958Y-66718125D01*
X140486360Y-66718125D01*
X140443423Y-66828733D01*
X140396433Y-66937256D01*
X140345482Y-67043600D01*
X140290665Y-67147671D01*
X140232075Y-67249376D01*
X140169806Y-67348621D01*
X140103951Y-67445313D01*
X140034603Y-67539358D01*
X139961857Y-67630663D01*
X139885805Y-67719134D01*
X139806541Y-67804678D01*
X139724159Y-67887202D01*
X139638751Y-67966611D01*
X139550413Y-68042813D01*
X139459236Y-68115713D01*
X139365315Y-68185219D01*
X139268743Y-68251237D01*
X139169614Y-68313673D01*
X139068021Y-68372434D01*
X138964057Y-68427426D01*
X138857817Y-68478557D01*
X138749393Y-68525731D01*
X138638879Y-68568857D01*
X138526369Y-68607840D01*
X138411956Y-68642587D01*
X138295734Y-68673004D01*
X138177796Y-68698998D01*
X138058235Y-68720476D01*
X137937146Y-68737343D01*
X137814621Y-68749507D01*
X137690755Y-68756874D01*
X137565640Y-68759351D01*
X137418016Y-68755901D01*
X137272157Y-68745654D01*
X137128216Y-68728765D01*
X136986348Y-68705386D01*
X136846707Y-68675672D01*
X136709447Y-68639777D01*
X136574721Y-68597856D01*
X136442684Y-68550061D01*
X136313490Y-68496547D01*
X136187292Y-68437468D01*
X136064244Y-68372978D01*
X135944502Y-68303231D01*
X135828218Y-68228382D01*
X135715546Y-68148583D01*
X135606641Y-68063988D01*
X135501656Y-67974753D01*
X135400746Y-67881031D01*
X135304065Y-67782976D01*
X135211766Y-67680741D01*
X135124003Y-67574482D01*
X135040931Y-67464351D01*
X134962703Y-67350504D01*
X134889474Y-67233093D01*
X134821396Y-67112273D01*
X134758626Y-66988198D01*
X134701316Y-66861021D01*
X134649620Y-66730898D01*
X134603692Y-66597981D01*
X134563687Y-66462425D01*
X134529758Y-66324384D01*
X134502059Y-66184012D01*
X134480744Y-66041463D01*
X134703136Y-66041463D01*
X134724029Y-66172642D01*
X134750749Y-66301795D01*
X134783154Y-66428783D01*
X134821105Y-66553465D01*
X134864461Y-66675701D01*
X134913082Y-66795351D01*
X134966828Y-66912274D01*
X135025558Y-67026331D01*
X135089132Y-67137380D01*
X135157410Y-67245281D01*
X135230252Y-67349895D01*
X135307517Y-67451081D01*
X135389064Y-67548699D01*
X135474755Y-67642608D01*
X135564447Y-67732668D01*
X135658002Y-67818739D01*
X135755279Y-67900680D01*
X135856137Y-67978351D01*
X135960436Y-68051613D01*
X136068036Y-68120324D01*
X136178797Y-68184344D01*
X136292578Y-68243533D01*
X136409238Y-68297751D01*
X136528639Y-68346858D01*
X136650639Y-68390713D01*
X136775099Y-68429175D01*
X136901877Y-68462106D01*
X137030833Y-68489363D01*
X137161828Y-68510807D01*
X137294721Y-68526299D01*
X137429372Y-68535696D01*
X137565640Y-68538860D01*
X137791705Y-68530127D01*
X138013025Y-68504362D01*
X138228951Y-68462212D01*
X138438836Y-68404325D01*
X138642031Y-68331350D01*
X138837888Y-68243934D01*
X139025759Y-68142725D01*
X139204996Y-68028372D01*
X139374951Y-67901523D01*
X139534976Y-67762826D01*
X139684423Y-67612929D01*
X139822642Y-67452480D01*
X139948988Y-67282126D01*
X140062810Y-67102518D01*
X140163462Y-66914301D01*
X140250295Y-66718125D01*
X139034513Y-66718125D01*
X139034513Y-67846956D01*
X139034134Y-67858164D01*
X139033009Y-67869230D01*
X139031157Y-67880123D01*
X139028595Y-67890810D01*
X139025344Y-67901261D01*
X139021420Y-67911443D01*
X139016843Y-67921326D01*
X139011632Y-67930878D01*
X139005804Y-67940067D01*
X138999379Y-67948862D01*
X138992374Y-67957231D01*
X138984810Y-67965142D01*
X138976703Y-67972566D01*
X138968072Y-67979468D01*
X138958937Y-67985820D01*
X138949315Y-67991587D01*
X138939326Y-67996689D01*
X138929100Y-68001069D01*
X138918673Y-68004729D01*
X138908082Y-68007670D01*
X138897364Y-68009892D01*
X138886555Y-68011396D01*
X138875691Y-68012184D01*
X138864810Y-68012256D01*
X138853948Y-68011614D01*
X138843140Y-68010257D01*
X138832425Y-68008188D01*
X138821838Y-68005408D01*
X138811416Y-68001916D01*
X138801195Y-67997714D01*
X138791213Y-67992804D01*
X138781505Y-67987185D01*
X136799128Y-66748208D01*
X136798976Y-66748125D01*
X136574086Y-66607880D01*
X137198634Y-66607880D01*
X138703778Y-67548590D01*
X138703778Y-66607896D01*
X141098586Y-66607896D01*
X141098730Y-66613565D01*
X141099156Y-66619159D01*
X141099857Y-66624673D01*
X141100827Y-66630099D01*
X141102059Y-66635430D01*
X141103546Y-66640659D01*
X141105280Y-66645779D01*
X141107255Y-66650784D01*
X141109464Y-66655666D01*
X141111900Y-66660418D01*
X141114555Y-66665034D01*
X141117424Y-66669507D01*
X141120499Y-66673829D01*
X141123773Y-66677994D01*
X141127239Y-66681994D01*
X141130890Y-66685823D01*
X141134720Y-66689474D01*
X141138721Y-66692940D01*
X141142886Y-66696213D01*
X141147209Y-66699288D01*
X141151682Y-66702156D01*
X141156299Y-66704812D01*
X141161052Y-66707248D01*
X141165935Y-66709456D01*
X141170941Y-66711431D01*
X141176062Y-66713165D01*
X141181293Y-66714652D01*
X141186625Y-66715883D01*
X141192052Y-66716854D01*
X141197567Y-66717555D01*
X141203163Y-66717981D01*
X141208833Y-66718125D01*
X141214503Y-66717981D01*
X141220099Y-66717555D01*
X141225614Y-66716854D01*
X141231041Y-66715883D01*
X141236373Y-66714652D01*
X141241603Y-66713165D01*
X141246725Y-66711431D01*
X141251730Y-66709456D01*
X141256613Y-66707248D01*
X141261366Y-66704812D01*
X141265983Y-66702156D01*
X141270456Y-66699288D01*
X141274779Y-66696213D01*
X141278944Y-66692940D01*
X141282945Y-66689474D01*
X141286774Y-66685823D01*
X141290425Y-66681994D01*
X141293891Y-66677994D01*
X141297165Y-66673829D01*
X141300240Y-66669507D01*
X141303109Y-66665034D01*
X141305764Y-66660418D01*
X141308200Y-66655666D01*
X141310409Y-66650784D01*
X141312384Y-66645779D01*
X141314118Y-66640659D01*
X141315604Y-66635430D01*
X141316836Y-66630099D01*
X141317806Y-66624673D01*
X141318508Y-66619159D01*
X141318934Y-66613565D01*
X141319077Y-66607896D01*
X141318934Y-66602226D01*
X141318508Y-66596630D01*
X141317806Y-66591115D01*
X141316836Y-66585689D01*
X141315604Y-66580356D01*
X141314118Y-66575126D01*
X141312384Y-66570005D01*
X141310409Y-66564999D01*
X141308200Y-66560116D01*
X141305764Y-66555363D01*
X141303109Y-66550746D01*
X141300240Y-66546273D01*
X141297165Y-66541950D01*
X141293891Y-66537785D01*
X141290425Y-66533784D01*
X141286774Y-66529955D01*
X141282945Y-66526304D01*
X141278944Y-66522838D01*
X141274779Y-66519564D01*
X141270456Y-66516489D01*
X141265983Y-66513620D01*
X141261366Y-66510965D01*
X141256613Y-66508529D01*
X141251730Y-66506320D01*
X141246725Y-66504345D01*
X141241603Y-66502611D01*
X141236373Y-66501124D01*
X141231041Y-66499892D01*
X141225614Y-66498922D01*
X141220099Y-66498221D01*
X141214503Y-66497795D01*
X141208833Y-66497651D01*
X141203163Y-66497795D01*
X141197567Y-66498221D01*
X141192052Y-66498922D01*
X141186625Y-66499892D01*
X141181293Y-66501124D01*
X141176062Y-66502611D01*
X141170941Y-66504345D01*
X141165935Y-66506320D01*
X141161052Y-66508529D01*
X141156299Y-66510965D01*
X141151682Y-66513620D01*
X141147209Y-66516489D01*
X141142886Y-66519564D01*
X141138721Y-66522838D01*
X141134720Y-66526304D01*
X141130890Y-66529955D01*
X141127239Y-66533784D01*
X141123773Y-66537785D01*
X141120499Y-66541950D01*
X141117424Y-66546273D01*
X141114555Y-66550746D01*
X141111900Y-66555363D01*
X141109464Y-66560116D01*
X141107255Y-66564999D01*
X141105280Y-66570005D01*
X141103546Y-66575126D01*
X141102059Y-66580356D01*
X141100827Y-66585689D01*
X141099857Y-66591115D01*
X141099156Y-66596630D01*
X141098730Y-66602226D01*
X141098586Y-66607896D01*
X138703778Y-66607896D01*
X138703778Y-66497651D01*
X139034513Y-66497651D01*
X140327940Y-66497651D01*
X140357000Y-66396351D01*
X140382425Y-66293573D01*
X140404139Y-66189392D01*
X140422071Y-66083880D01*
X140436145Y-65977113D01*
X140446289Y-65869163D01*
X140452430Y-65760104D01*
X140454493Y-65650010D01*
X140452428Y-65539873D01*
X140446283Y-65430773D01*
X140436131Y-65322784D01*
X140422045Y-65215980D01*
X140404100Y-65110434D01*
X140382368Y-65006220D01*
X140356923Y-64903413D01*
X140327839Y-64802085D01*
X139036547Y-64802269D01*
X139035531Y-65369086D01*
X139035509Y-65371378D01*
X139035456Y-65373663D01*
X139035373Y-65375941D01*
X139035259Y-65378210D01*
X139035116Y-65380471D01*
X139034944Y-65382723D01*
X139034743Y-65384965D01*
X139034513Y-65387197D01*
X139034513Y-66497651D01*
X138703778Y-66497651D01*
X138703778Y-65667153D01*
X137198634Y-66607880D01*
X136574086Y-66607880D01*
X136425434Y-66515178D01*
X136423016Y-67847257D01*
X136422785Y-67855761D01*
X136422131Y-67864153D01*
X136421063Y-67872423D01*
X136419593Y-67880560D01*
X136417731Y-67888554D01*
X136415487Y-67896395D01*
X136412872Y-67904072D01*
X136409896Y-67911575D01*
X136406570Y-67918893D01*
X136402903Y-67926016D01*
X136398907Y-67932933D01*
X136394592Y-67939635D01*
X136389968Y-67946110D01*
X136385046Y-67952349D01*
X136379836Y-67958341D01*
X136374349Y-67964075D01*
X136368595Y-67969541D01*
X136362585Y-67974729D01*
X136356328Y-67979628D01*
X136349836Y-67984229D01*
X136343119Y-67988519D01*
X136336187Y-67992490D01*
X136329051Y-67996131D01*
X136321721Y-67999431D01*
X136314208Y-68002380D01*
X136306521Y-68004967D01*
X136298673Y-68007182D01*
X136290672Y-68009015D01*
X136282529Y-68010456D01*
X136274256Y-68011493D01*
X136265861Y-68012117D01*
X136257357Y-68012316D01*
X136248853Y-68012086D01*
X136240461Y-68011431D01*
X136232191Y-68010364D01*
X136224054Y-68008894D01*
X136216059Y-68007032D01*
X136208219Y-68004788D01*
X136200542Y-68002173D01*
X136193039Y-67999196D01*
X136185721Y-67995870D01*
X136178598Y-67992203D01*
X136171681Y-67988207D01*
X136164979Y-67983892D01*
X136158504Y-67979269D01*
X136152265Y-67974347D01*
X136146273Y-67969137D01*
X136140539Y-67963650D01*
X136135073Y-67957896D01*
X136129885Y-67951885D01*
X136124986Y-67945629D01*
X136120385Y-67939136D01*
X136116095Y-67932419D01*
X136112124Y-67925487D01*
X136108483Y-67918351D01*
X136105183Y-67911021D01*
X136102235Y-67903508D01*
X136099647Y-67895821D01*
X136097432Y-67887973D01*
X136095599Y-67879972D01*
X136094159Y-67871829D01*
X136093122Y-67863556D01*
X136092498Y-67855161D01*
X136092298Y-67846656D01*
X136095398Y-66125861D01*
X136426135Y-66125861D01*
X136886526Y-66412937D01*
X138527692Y-65387197D01*
X138704962Y-65276401D01*
X138705812Y-64802319D01*
X138367206Y-64802352D01*
X138365260Y-64804491D01*
X138363275Y-64806597D01*
X138361251Y-64808670D01*
X138359189Y-64810710D01*
X138357089Y-64812716D01*
X138354951Y-64814687D01*
X138352775Y-64816622D01*
X138350563Y-64818522D01*
X138348314Y-64820385D01*
X138346028Y-64822211D01*
X138343706Y-64823999D01*
X138341349Y-64825749D01*
X138338956Y-64827460D01*
X138336528Y-64829131D01*
X138334066Y-64830762D01*
X138331569Y-64832352D01*
X136426318Y-66023152D01*
X136426135Y-66125861D01*
X136095398Y-66125861D01*
X136095550Y-66041463D01*
X134703136Y-66041463D01*
X134480744Y-66041463D01*
X134036346Y-66041463D01*
X134036346Y-66261953D01*
X133374875Y-66261953D01*
X133374875Y-66041463D01*
X133374875Y-65820989D01*
X133595365Y-65820989D01*
X133595365Y-66041463D01*
X133815855Y-66041463D01*
X133815855Y-65931234D01*
X133815855Y-65820989D01*
X133595365Y-65820989D01*
X133374875Y-65820989D01*
X133374875Y-65600499D01*
X134036346Y-65600499D01*
X134036346Y-65820989D01*
X134460933Y-65820989D01*
X134458907Y-65778456D01*
X134457458Y-65735781D01*
X134456588Y-65692965D01*
X134456297Y-65650010D01*
X134676788Y-65650010D01*
X134677100Y-65692984D01*
X134678036Y-65735806D01*
X134679595Y-65778475D01*
X134681774Y-65820989D01*
X136096033Y-65820989D01*
X136096033Y-65632867D01*
X136096033Y-63751431D01*
X136426769Y-63751431D01*
X136426769Y-65632867D01*
X137931913Y-64692141D01*
X136426769Y-63751431D01*
X136096033Y-63751431D01*
X136096033Y-63453063D01*
X136096413Y-63441855D01*
X136097538Y-63430789D01*
X136099390Y-63419897D01*
X136101952Y-63409209D01*
X136105203Y-63398759D01*
X136109127Y-63388576D01*
X136113704Y-63378693D01*
X136118915Y-63369142D01*
X136124743Y-63359953D01*
X136131168Y-63351158D01*
X136138172Y-63342789D01*
X136145737Y-63334877D01*
X136153844Y-63327454D01*
X136162475Y-63320551D01*
X136171610Y-63314200D01*
X136181232Y-63308432D01*
X136191221Y-63303331D01*
X136201447Y-63298951D01*
X136211874Y-63295291D01*
X136222465Y-63292351D01*
X136233183Y-63290129D01*
X136243992Y-63288625D01*
X136254855Y-63287837D01*
X136265737Y-63287765D01*
X136276599Y-63288407D01*
X136287406Y-63289763D01*
X136298122Y-63291832D01*
X136308709Y-63294613D01*
X136319131Y-63298105D01*
X136329351Y-63302306D01*
X136339334Y-63307216D01*
X136349042Y-63312835D01*
X138331569Y-64551895D01*
X138334066Y-64553488D01*
X138336528Y-64555121D01*
X138338954Y-64556794D01*
X138341346Y-64558505D01*
X138343702Y-64560255D01*
X138346022Y-64562043D01*
X138348305Y-64563868D01*
X138350552Y-64565730D01*
X138352762Y-64567628D01*
X138354935Y-64569562D01*
X138357071Y-64571530D01*
X138359168Y-64573533D01*
X138361227Y-64575570D01*
X138363248Y-64577641D01*
X138367172Y-64581879D01*
X138706213Y-64581829D01*
X138708264Y-63452763D01*
X138708495Y-63444260D01*
X138709149Y-63435867D01*
X138710216Y-63427598D01*
X138711687Y-63419460D01*
X138713549Y-63411466D01*
X138715793Y-63403625D01*
X138718408Y-63395949D01*
X138721384Y-63388446D01*
X138724711Y-63381128D01*
X138728377Y-63374005D01*
X138732373Y-63367087D01*
X138736688Y-63360386D01*
X138741312Y-63353910D01*
X138746234Y-63347672D01*
X138751444Y-63341680D01*
X138756931Y-63335946D01*
X138762685Y-63330480D01*
X138768695Y-63325292D01*
X138774952Y-63320392D01*
X138781444Y-63315792D01*
X138788161Y-63311501D01*
X138795093Y-63307530D01*
X138802229Y-63303890D01*
X138809559Y-63300590D01*
X138817072Y-63297641D01*
X138824758Y-63295054D01*
X138832607Y-63292839D01*
X138840608Y-63291006D01*
X138848750Y-63289565D01*
X138857024Y-63288528D01*
X138865418Y-63287904D01*
X138873923Y-63287704D01*
X138882427Y-63287935D01*
X138890819Y-63288590D01*
X138899089Y-63289657D01*
X138907226Y-63291127D01*
X138915220Y-63292989D01*
X138923061Y-63295233D01*
X138930738Y-63297848D01*
X138938241Y-63300824D01*
X138945559Y-63304151D01*
X138952682Y-63307817D01*
X138959599Y-63311813D01*
X138966301Y-63316128D01*
X138972776Y-63320752D01*
X138979015Y-63325674D01*
X138985006Y-63330884D01*
X138990741Y-63336371D01*
X138996207Y-63342125D01*
X139001395Y-63348136D01*
X139006294Y-63354392D01*
X139010895Y-63360884D01*
X139015185Y-63367601D01*
X139019156Y-63374533D01*
X139022797Y-63381669D01*
X139026097Y-63388999D01*
X139029045Y-63396513D01*
X139031633Y-63404199D01*
X139033848Y-63412048D01*
X139035681Y-63420049D01*
X139037122Y-63428191D01*
X139038159Y-63436465D01*
X139038783Y-63444859D01*
X139038982Y-63453364D01*
X139036948Y-64581779D01*
X140250179Y-64581612D01*
X140208525Y-64482585D01*
X140163336Y-64385467D01*
X140114692Y-64290338D01*
X140062676Y-64197279D01*
X140007368Y-64106373D01*
X139948849Y-64017698D01*
X139887200Y-63931338D01*
X139822502Y-63847372D01*
X139754837Y-63765881D01*
X139684284Y-63686947D01*
X139610925Y-63610651D01*
X139534841Y-63537073D01*
X139456113Y-63466295D01*
X139374822Y-63398398D01*
X139291049Y-63333462D01*
X139204876Y-63271568D01*
X139116382Y-63212799D01*
X139025649Y-63157233D01*
X138932757Y-63104954D01*
X138837789Y-63056040D01*
X138740825Y-63010575D01*
X138641946Y-62968638D01*
X138541232Y-62930311D01*
X138438766Y-62895674D01*
X138334627Y-62864809D01*
X138228897Y-62837796D01*
X138121657Y-62814717D01*
X138012988Y-62795652D01*
X137902971Y-62780683D01*
X137791686Y-62769891D01*
X137679216Y-62763356D01*
X137565640Y-62761160D01*
X137417073Y-62764922D01*
X137270446Y-62776086D01*
X137125941Y-62794471D01*
X136983739Y-62819894D01*
X136844024Y-62852174D01*
X136706977Y-62891127D01*
X136572780Y-62936573D01*
X136441615Y-62988329D01*
X136313665Y-63046212D01*
X136189111Y-63110042D01*
X136068135Y-63179635D01*
X135950921Y-63254809D01*
X135837649Y-63335383D01*
X135728501Y-63421175D01*
X135623661Y-63512002D01*
X135523310Y-63607682D01*
X135427630Y-63708033D01*
X135336803Y-63812873D01*
X135251012Y-63922020D01*
X135170437Y-64035292D01*
X135095263Y-64152507D01*
X135025670Y-64273482D01*
X134961840Y-64398036D01*
X134903957Y-64525986D01*
X134852201Y-64657151D01*
X134806756Y-64791348D01*
X134767802Y-64928395D01*
X134735522Y-65068110D01*
X134710099Y-65210311D01*
X134691714Y-65354817D01*
X134680550Y-65501444D01*
X134676788Y-65650010D01*
X134456297Y-65650010D01*
X134460346Y-65490105D01*
X134472363Y-65332287D01*
X134492151Y-65176753D01*
X134519515Y-65023699D01*
X134554259Y-64873321D01*
X134596186Y-64725814D01*
X134645100Y-64581374D01*
X134700806Y-64440199D01*
X134763108Y-64302483D01*
X134831809Y-64168422D01*
X134906714Y-64038214D01*
X134987627Y-63912053D01*
X135074351Y-63790135D01*
X135166691Y-63672657D01*
X135264450Y-63559815D01*
X135367433Y-63451805D01*
X135475444Y-63348822D01*
X135588286Y-63251063D01*
X135705764Y-63158723D01*
X135827681Y-63071999D01*
X135953842Y-62991086D01*
X136084051Y-62916181D01*
X136218111Y-62847480D01*
X136355827Y-62785178D01*
X136497003Y-62729472D01*
X136641443Y-62680558D01*
X136788950Y-62638631D01*
X136939328Y-62603887D01*
X137092383Y-62576524D01*
X137247917Y-62556735D01*
X137405734Y-62544719D01*
X137565640Y-62540670D01*
X137806908Y-62549910D01*
G37*
%TD.AperFunction*%
D11*
D12*
X142870155Y-64078328D02*
X142870155Y-62578328D01*
X143584441Y-64078328D02*
X143584441Y-62578328D01*
X143584441Y-62578328D02*
X144441584Y-64078328D01*
X144441584Y-64078328D02*
X144441584Y-62578328D01*
X145155870Y-64078328D02*
X145155870Y-62578328D01*
X145155870Y-62578328D02*
X145727299Y-62578328D01*
X145727299Y-62578328D02*
X145870156Y-62649757D01*
X145870156Y-62649757D02*
X145941585Y-62721185D01*
X145941585Y-62721185D02*
X146013013Y-62864042D01*
X146013013Y-62864042D02*
X146013013Y-63078328D01*
X146013013Y-63078328D02*
X145941585Y-63221185D01*
X145941585Y-63221185D02*
X145870156Y-63292614D01*
X145870156Y-63292614D02*
X145727299Y-63364042D01*
X145727299Y-63364042D02*
X145155870Y-63364042D01*
X146655870Y-62578328D02*
X146655870Y-63792614D01*
X146655870Y-63792614D02*
X146727299Y-63935471D01*
X146727299Y-63935471D02*
X146798728Y-64006900D01*
X146798728Y-64006900D02*
X146941585Y-64078328D01*
X146941585Y-64078328D02*
X147227299Y-64078328D01*
X147227299Y-64078328D02*
X147370156Y-64006900D01*
X147370156Y-64006900D02*
X147441585Y-63935471D01*
X147441585Y-63935471D02*
X147513013Y-63792614D01*
X147513013Y-63792614D02*
X147513013Y-62578328D01*
X148013014Y-62578328D02*
X148870157Y-62578328D01*
X148441585Y-64078328D02*
X148441585Y-62578328D01*
X150513013Y-64078328D02*
X150513013Y-62578328D01*
X150513013Y-62578328D02*
X151084442Y-62578328D01*
X151084442Y-62578328D02*
X151227299Y-62649757D01*
X151227299Y-62649757D02*
X151298728Y-62721185D01*
X151298728Y-62721185D02*
X151370156Y-62864042D01*
X151370156Y-62864042D02*
X151370156Y-63078328D01*
X151370156Y-63078328D02*
X151298728Y-63221185D01*
X151298728Y-63221185D02*
X151227299Y-63292614D01*
X151227299Y-63292614D02*
X151084442Y-63364042D01*
X151084442Y-63364042D02*
X150513013Y-63364042D01*
X152870156Y-64078328D02*
X152370156Y-63364042D01*
X152013013Y-64078328D02*
X152013013Y-62578328D01*
X152013013Y-62578328D02*
X152584442Y-62578328D01*
X152584442Y-62578328D02*
X152727299Y-62649757D01*
X152727299Y-62649757D02*
X152798728Y-62721185D01*
X152798728Y-62721185D02*
X152870156Y-62864042D01*
X152870156Y-62864042D02*
X152870156Y-63078328D01*
X152870156Y-63078328D02*
X152798728Y-63221185D01*
X152798728Y-63221185D02*
X152727299Y-63292614D01*
X152727299Y-63292614D02*
X152584442Y-63364042D01*
X152584442Y-63364042D02*
X152013013Y-63364042D01*
X153798728Y-62578328D02*
X154084442Y-62578328D01*
X154084442Y-62578328D02*
X154227299Y-62649757D01*
X154227299Y-62649757D02*
X154370156Y-62792614D01*
X154370156Y-62792614D02*
X154441585Y-63078328D01*
X154441585Y-63078328D02*
X154441585Y-63578328D01*
X154441585Y-63578328D02*
X154370156Y-63864042D01*
X154370156Y-63864042D02*
X154227299Y-64006900D01*
X154227299Y-64006900D02*
X154084442Y-64078328D01*
X154084442Y-64078328D02*
X153798728Y-64078328D01*
X153798728Y-64078328D02*
X153655871Y-64006900D01*
X153655871Y-64006900D02*
X153513013Y-63864042D01*
X153513013Y-63864042D02*
X153441585Y-63578328D01*
X153441585Y-63578328D02*
X153441585Y-63078328D01*
X153441585Y-63078328D02*
X153513013Y-62792614D01*
X153513013Y-62792614D02*
X153655871Y-62649757D01*
X153655871Y-62649757D02*
X153798728Y-62578328D01*
X154870157Y-62578328D02*
X155727300Y-62578328D01*
X155298728Y-64078328D02*
X155298728Y-62578328D01*
X156227299Y-63292614D02*
X156727299Y-63292614D01*
X156941585Y-64078328D02*
X156227299Y-64078328D01*
X156227299Y-64078328D02*
X156227299Y-62578328D01*
X156227299Y-62578328D02*
X156941585Y-62578328D01*
X158441585Y-63935471D02*
X158370157Y-64006900D01*
X158370157Y-64006900D02*
X158155871Y-64078328D01*
X158155871Y-64078328D02*
X158013014Y-64078328D01*
X158013014Y-64078328D02*
X157798728Y-64006900D01*
X157798728Y-64006900D02*
X157655871Y-63864042D01*
X157655871Y-63864042D02*
X157584442Y-63721185D01*
X157584442Y-63721185D02*
X157513014Y-63435471D01*
X157513014Y-63435471D02*
X157513014Y-63221185D01*
X157513014Y-63221185D02*
X157584442Y-62935471D01*
X157584442Y-62935471D02*
X157655871Y-62792614D01*
X157655871Y-62792614D02*
X157798728Y-62649757D01*
X157798728Y-62649757D02*
X158013014Y-62578328D01*
X158013014Y-62578328D02*
X158155871Y-62578328D01*
X158155871Y-62578328D02*
X158370157Y-62649757D01*
X158370157Y-62649757D02*
X158441585Y-62721185D01*
X158870157Y-62578328D02*
X159727300Y-62578328D01*
X159298728Y-64078328D02*
X159298728Y-62578328D01*
X160227299Y-64078328D02*
X160227299Y-62578328D01*
X161227300Y-62578328D02*
X161513014Y-62578328D01*
X161513014Y-62578328D02*
X161655871Y-62649757D01*
X161655871Y-62649757D02*
X161798728Y-62792614D01*
X161798728Y-62792614D02*
X161870157Y-63078328D01*
X161870157Y-63078328D02*
X161870157Y-63578328D01*
X161870157Y-63578328D02*
X161798728Y-63864042D01*
X161798728Y-63864042D02*
X161655871Y-64006900D01*
X161655871Y-64006900D02*
X161513014Y-64078328D01*
X161513014Y-64078328D02*
X161227300Y-64078328D01*
X161227300Y-64078328D02*
X161084443Y-64006900D01*
X161084443Y-64006900D02*
X160941585Y-63864042D01*
X160941585Y-63864042D02*
X160870157Y-63578328D01*
X160870157Y-63578328D02*
X160870157Y-63078328D01*
X160870157Y-63078328D02*
X160941585Y-62792614D01*
X160941585Y-62792614D02*
X161084443Y-62649757D01*
X161084443Y-62649757D02*
X161227300Y-62578328D01*
X162513014Y-64078328D02*
X162513014Y-62578328D01*
X162513014Y-62578328D02*
X163370157Y-64078328D01*
X163370157Y-64078328D02*
X163370157Y-62578328D01*
D11*
G36*
X148054900Y-65749757D02*
G01*
X147756841Y-65749757D01*
X147905870Y-65302669D01*
X148054900Y-65749757D01*
G37*
G36*
X148721360Y-66643818D02*
G01*
X147090381Y-66643818D01*
X147090381Y-66309567D01*
X147257048Y-66309567D01*
X147261197Y-66367948D01*
X147287371Y-66420295D01*
X147331585Y-66458642D01*
X147387109Y-66477150D01*
X147445490Y-66473001D01*
X147497837Y-66446827D01*
X147536184Y-66402613D01*
X147548172Y-66375762D01*
X147656841Y-66049757D01*
X148154900Y-66049757D01*
X148263568Y-66375762D01*
X148275556Y-66402613D01*
X148313903Y-66446828D01*
X148366251Y-66473001D01*
X148424631Y-66477151D01*
X148480155Y-66458642D01*
X148524369Y-66420295D01*
X148550543Y-66367948D01*
X148554693Y-66309568D01*
X148548173Y-66280894D01*
X148048172Y-64780894D01*
X148036184Y-64754043D01*
X148029161Y-64745946D01*
X148024369Y-64736361D01*
X148010160Y-64724037D01*
X147997837Y-64709829D01*
X147988251Y-64705036D01*
X147980155Y-64698014D01*
X147962311Y-64692065D01*
X147945490Y-64683655D01*
X147934801Y-64682895D01*
X147924631Y-64679505D01*
X147905865Y-64680838D01*
X147887109Y-64679506D01*
X147876941Y-64682895D01*
X147866251Y-64683655D01*
X147849427Y-64692066D01*
X147831585Y-64698014D01*
X147823490Y-64705034D01*
X147813903Y-64709828D01*
X147801577Y-64724039D01*
X147787371Y-64736361D01*
X147782578Y-64745945D01*
X147775556Y-64754043D01*
X147763568Y-64780894D01*
X147263568Y-66280894D01*
X147257048Y-66309567D01*
X147090381Y-66309567D01*
X147090381Y-64512838D01*
X148721360Y-64512838D01*
X148721360Y-66643818D01*
G37*
D12*
X143727298Y-66328328D02*
X143227298Y-65614042D01*
X142870155Y-66328328D02*
X142870155Y-64828328D01*
X142870155Y-64828328D02*
X143441584Y-64828328D01*
X143441584Y-64828328D02*
X143584441Y-64899757D01*
X143584441Y-64899757D02*
X143655870Y-64971185D01*
X143655870Y-64971185D02*
X143727298Y-65114042D01*
X143727298Y-65114042D02*
X143727298Y-65328328D01*
X143727298Y-65328328D02*
X143655870Y-65471185D01*
X143655870Y-65471185D02*
X143584441Y-65542614D01*
X143584441Y-65542614D02*
X143441584Y-65614042D01*
X143441584Y-65614042D02*
X142870155Y-65614042D01*
X144370155Y-65542614D02*
X144870155Y-65542614D01*
X145084441Y-66328328D02*
X144370155Y-66328328D01*
X144370155Y-66328328D02*
X144370155Y-64828328D01*
X144370155Y-64828328D02*
X145084441Y-64828328D01*
X145513013Y-64828328D02*
X146013013Y-66328328D01*
X146013013Y-66328328D02*
X146513013Y-64828328D01*
D13*
D14*
X129601359Y-66099619D02*
X129029931Y-66099619D01*
X129315645Y-66099619D02*
X129315645Y-65099619D01*
X129315645Y-65099619D02*
X129220407Y-65242476D01*
X129220407Y-65242476D02*
X129125169Y-65337714D01*
X129125169Y-65337714D02*
X129029931Y-65385333D01*
%TA.AperFunction,EtchedComponent*%
%TO.C,FID902*%
G36*
X125565645Y-97400000D02*
G01*
X127565645Y-97400000D01*
X127565645Y-97900000D01*
X125565645Y-97900000D01*
X125565645Y-97400000D01*
G37*
%TD.AperFunction*%
%TA.AperFunction,EtchedComponent*%
G36*
X126315645Y-96650000D02*
G01*
X126815645Y-96650000D01*
X126815645Y-98650000D01*
X126315645Y-98650000D01*
X126315645Y-96650000D01*
G37*
%TD.AperFunction*%
%TO.C,ID901*%
D15*
X128315645Y-64650000D02*
X130315645Y-64650000D01*
X130315645Y-66650000D01*
X128315645Y-66650000D01*
X128315645Y-64650000D01*
%TA.AperFunction,EtchedComponent*%
%TO.C,FID903*%
G36*
X187565645Y-65400000D02*
G01*
X189565645Y-65400000D01*
X189565645Y-65900000D01*
X187565645Y-65900000D01*
X187565645Y-65400000D01*
G37*
%TD.AperFunction*%
%TA.AperFunction,EtchedComponent*%
G36*
X188315645Y-64650000D02*
G01*
X188815645Y-64650000D01*
X188815645Y-66650000D01*
X188315645Y-66650000D01*
X188315645Y-64650000D01*
G37*
%TD.AperFunction*%
%TA.AperFunction,EtchedComponent*%
%TO.C,FID901*%
G36*
X125565645Y-65400000D02*
G01*
X127565645Y-65400000D01*
X127565645Y-65900000D01*
X125565645Y-65900000D01*
X125565645Y-65400000D01*
G37*
%TD.AperFunction*%
%TA.AperFunction,EtchedComponent*%
G36*
X126315645Y-64650000D02*
G01*
X126815645Y-64650000D01*
X126815645Y-66650000D01*
X126315645Y-66650000D01*
X126315645Y-64650000D01*
G37*
%TD.AperFunction*%
%TD*%
D16*
%TO.P,R302,1*%
%TO.N,GND*%
X143815645Y-91750002D03*
%TO.P,R302,2*%
%TO.N,/ARCHITECTURE/3. SENSING/VSENSE_12V*%
X143815645Y-88650000D03*
%TD*%
D17*
%TO.P,R401,1*%
%TO.N,VREF_2V5*%
X154565645Y-76099999D03*
%TO.P,R401,2*%
%TO.N,VCC_5V*%
X154565645Y-79200001D03*
%TD*%
%TO.P,R503,1*%
%TO.N,Net-(D501-K)*%
X161565645Y-74349998D03*
%TO.P,R503,2*%
%TO.N,/ARCHITECTURE/5. COMPARATOR/17V_OK*%
X161565645Y-77450000D03*
%TD*%
D18*
%TO.P,Q602,1*%
%TO.N,Net-(D601-A)*%
X175279645Y-82543500D03*
D19*
%TO.P,Q602,2*%
%TO.N,/ARCHITECTURE/1. INTERCONNECTS/VOUT*%
X177565645Y-75685500D03*
D18*
%TO.P,Q602,3*%
%TO.N,/ARCHITECTURE/2. POLARITY PROTECTION/VPROT*%
X179851645Y-82543500D03*
%TD*%
D20*
%TO.P,Q601,1,B*%
%TO.N,Net-(Q601-B)*%
X174190645Y-93900000D03*
%TO.P,Q601,2,E*%
%TO.N,GND*%
X174190645Y-95800000D03*
%TO.P,Q601,3,C*%
%TO.N,Net-(D601-A)*%
X176065645Y-94850000D03*
%TD*%
D21*
%TO.P,TP101,1,1*%
%TO.N,GND*%
X131315645Y-89537500D03*
%TD*%
D16*
%TO.P,R505,1*%
%TO.N,/ARCHITECTURE/5. COMPARATOR/EN_OK*%
X154565645Y-90800001D03*
%TO.P,R505,2*%
%TO.N,VCC_5V*%
X154565645Y-87699999D03*
%TD*%
D22*
%TO.P,TP103,1,1*%
%TO.N,/ARCHITECTURE/1. INTERCONNECTS/VOUT*%
X183815645Y-84850000D03*
%TD*%
D17*
%TO.P,R304,1*%
%TO.N,GND*%
X143815645Y-73349999D03*
%TO.P,R304,2*%
%TO.N,/ARCHITECTURE/3. SENSING/VSENSE_17V*%
X143815645Y-76450001D03*
%TD*%
D23*
%TO.P,C502,1*%
%TO.N,Net-(U501B--)*%
X166103145Y-77450000D03*
%TO.P,C502,2*%
%TO.N,GND*%
X167828145Y-77450000D03*
%TD*%
%TO.P,C501,1*%
%TO.N,Net-(U501A-+)*%
X166103145Y-87650000D03*
%TO.P,C501,2*%
%TO.N,GND*%
X167828145Y-87650000D03*
%TD*%
D24*
%TO.P,TP401,1,1*%
%TO.N,VREF_2V5*%
X156265645Y-69150000D03*
%TD*%
%TO.P,TP403,1,1*%
%TO.N,VCC_5V*%
X150215645Y-79050000D03*
%TD*%
D25*
%TO.P,FID902,*%
%TO.N,*%
X126565645Y-97650000D03*
%TD*%
D26*
%TO.P,J101,1*%
%TO.N,/ARCHITECTURE/1. INTERCONNECTS/VIN*%
X132265645Y-75150000D03*
D27*
%TO.P,J101,2*%
%TO.N,GND*%
X126065645Y-75150000D03*
D28*
%TO.P,J101,3*%
%TO.N,unconnected-(J101-Pad3)*%
X129065645Y-79850000D03*
%TD*%
D16*
%TO.P,R602,1*%
%TO.N,Net-(Q601-B)*%
X171965645Y-93850000D03*
%TO.P,R602,2*%
%TO.N,GND*%
X171965645Y-90749998D03*
%TD*%
D22*
%TO.P,TP503,1,1*%
%TO.N,/ARCHITECTURE/5. COMPARATOR/EN_OK*%
X175065645Y-98900000D03*
%TD*%
D16*
%TO.P,R604,1*%
%TO.N,/ARCHITECTURE/1. INTERCONNECTS/VOUT*%
X177565645Y-69700001D03*
%TO.P,R604,2*%
%TO.N,GND*%
X177565645Y-66599999D03*
%TD*%
D29*
%TO.P,R201,1*%
%TO.N,GND*%
X132915644Y-94650000D03*
%TO.P,R201,2*%
%TO.N,Net-(D201-A)*%
X136015646Y-94650000D03*
%TD*%
D18*
%TO.P,Q201,1*%
%TO.N,Net-(D201-A)*%
X135279645Y-82543500D03*
D19*
%TO.P,Q201,2*%
%TO.N,/ARCHITECTURE/1. INTERCONNECTS/VIN*%
X137565645Y-75685500D03*
D18*
%TO.P,Q201,3*%
%TO.N,/ARCHITECTURE/2. POLARITY PROTECTION/VPROT*%
X139851645Y-82543500D03*
%TD*%
D30*
%TO.P,H901,1,1*%
%TO.N,GND*%
X121565645Y-65650000D03*
%TD*%
D16*
%TO.P,R504,1*%
%TO.N,Net-(D502-K)*%
X161565645Y-90750002D03*
%TO.P,R504,2*%
%TO.N,/ARCHITECTURE/5. COMPARATOR/12V_OK*%
X161565645Y-87650000D03*
%TD*%
D21*
%TO.P,TP104,1,1*%
%TO.N,GND*%
X183815645Y-89537500D03*
%TD*%
D26*
%TO.P,J104,1*%
%TO.N,/ARCHITECTURE/1. INTERCONNECTS/VOUT*%
X182865645Y-75150000D03*
D27*
%TO.P,J104,2*%
%TO.N,GND*%
X189065645Y-75150000D03*
D28*
%TO.P,J104,3*%
%TO.N,unconnected-(J104-Pad3)*%
X186065645Y-70450000D03*
%TD*%
D22*
%TO.P,TP303,1,1*%
%TO.N,/ARCHITECTURE/3. SENSING/VSENSE_17V*%
X147565645Y-77400000D03*
%TD*%
D31*
%TO.P,U501,1*%
%TO.N,/ARCHITECTURE/5. COMPARATOR/12V_OK*%
X161410645Y-85047500D03*
%TO.P,U501,2,-*%
%TO.N,VREF_2V5*%
X162680645Y-85047500D03*
%TO.P,U501,3,+*%
%TO.N,Net-(U501A-+)*%
X163950645Y-85047500D03*
%TO.P,U501,4,GND*%
%TO.N,GND*%
X165220645Y-85047500D03*
%TO.P,U501,5,+*%
%TO.N,VREF_2V5*%
X165220645Y-80052500D03*
%TO.P,U501,6,-*%
%TO.N,Net-(U501B--)*%
X163950645Y-80052500D03*
%TO.P,U501,7*%
%TO.N,/ARCHITECTURE/5. COMPARATOR/17V_OK*%
X162680645Y-80052500D03*
%TO.P,U501,8,V+*%
%TO.N,VCC_5V*%
X161410645Y-80052500D03*
%TD*%
D32*
%TO.P,J102,1,Pin_1*%
%TO.N,/ARCHITECTURE/1. INTERCONNECTS/VIN*%
X122648145Y-85745000D03*
D33*
%TO.P,J102,2,Pin_2*%
%TO.N,GND*%
X122648145Y-89555000D03*
%TD*%
D30*
%TO.P,H902,1,1*%
%TO.N,GND*%
X121565645Y-97650000D03*
%TD*%
D22*
%TO.P,TP102,1,1*%
%TO.N,/ARCHITECTURE/1. INTERCONNECTS/VIN*%
X131315645Y-84850000D03*
%TD*%
D24*
%TO.P,TP501,1,1*%
%TO.N,/ARCHITECTURE/5. COMPARATOR/12V_OK*%
X158065645Y-85400000D03*
%TD*%
D25*
%TO.P,FID903,*%
%TO.N,*%
X188565645Y-65650000D03*
%TD*%
D34*
%TO.P,J103,1,Pin_1*%
%TO.N,GND*%
X192483145Y-89537500D03*
D33*
%TO.P,J103,2,Pin_2*%
%TO.N,/ARCHITECTURE/1. INTERCONNECTS/VOUT*%
X192483145Y-85727500D03*
%TD*%
D21*
%TO.P,TP301,1,1*%
%TO.N,GND*%
X147565645Y-72150000D03*
%TD*%
D29*
%TO.P,R603,1*%
%TO.N,Net-(D601-A)*%
X176015645Y-90650000D03*
%TO.P,R603,2*%
%TO.N,/ARCHITECTURE/2. POLARITY PROTECTION/VPROT*%
X179115645Y-90650000D03*
%TD*%
D30*
%TO.P,H903,1,1*%
%TO.N,GND*%
X193565645Y-65650000D03*
%TD*%
D17*
%TO.P,R601,1*%
%TO.N,Net-(Q601-B)*%
X171965645Y-95850000D03*
%TO.P,R601,2*%
%TO.N,/ARCHITECTURE/5. COMPARATOR/EN_OK*%
X171965645Y-98950002D03*
%TD*%
%TO.P,R507,1*%
%TO.N,/ARCHITECTURE/3. SENSING/VSENSE_17V*%
X158565645Y-74349999D03*
%TO.P,R507,2*%
%TO.N,/ARCHITECTURE/5. COMPARATOR/17V_OK*%
X158565645Y-77450001D03*
%TD*%
D30*
%TO.P,H904,1,1*%
%TO.N,GND*%
X193565645Y-97650000D03*
%TD*%
D22*
%TO.P,TP302,1,1*%
%TO.N,/ARCHITECTURE/3. SENSING/VSENSE_12V*%
X147565645Y-87700000D03*
%TD*%
D17*
%TO.P,R402,1*%
%TO.N,GND*%
X154565645Y-71099999D03*
%TO.P,R402,2*%
%TO.N,VREF_2V5*%
X154565645Y-74200001D03*
%TD*%
D24*
%TO.P,TP502,1,1*%
%TO.N,/ARCHITECTURE/5. COMPARATOR/17V_OK*%
X159165645Y-72400000D03*
%TD*%
D25*
%TO.P,FID901,*%
%TO.N,*%
X126565645Y-65650000D03*
%TD*%
D17*
%TO.P,R501,1*%
%TO.N,Net-(U501A-+)*%
X163965645Y-87650000D03*
%TO.P,R501,2*%
%TO.N,/ARCHITECTURE/3. SENSING/VSENSE_12V*%
X163965645Y-90750002D03*
%TD*%
D35*
%TO.P,D201,1,K*%
%TO.N,/ARCHITECTURE/2. POLARITY PROTECTION/VPROT*%
X138815644Y-85650000D03*
%TO.P,D201,2,A*%
%TO.N,Net-(D201-A)*%
X136315646Y-85650000D03*
%TD*%
D29*
%TO.P,R202,1*%
%TO.N,Net-(D201-A)*%
X136015645Y-90650000D03*
%TO.P,R202,2*%
%TO.N,/ARCHITECTURE/2. POLARITY PROTECTION/VPROT*%
X139115645Y-90650000D03*
%TD*%
D36*
%TO.P,D501,1,K*%
%TO.N,Net-(D501-K)*%
X161565645Y-72750000D03*
%TO.P,D501,2,A*%
%TO.N,/ARCHITECTURE/5. COMPARATOR/EN_OK*%
X161565645Y-70650000D03*
%TD*%
D16*
%TO.P,R506,1*%
%TO.N,/ARCHITECTURE/3. SENSING/VSENSE_12V*%
X158565645Y-90750002D03*
%TO.P,R506,2*%
%TO.N,/ARCHITECTURE/5. COMPARATOR/12V_OK*%
X158565645Y-87650000D03*
%TD*%
%TO.P,R301,1*%
%TO.N,/ARCHITECTURE/3. SENSING/VSENSE_12V*%
X143815645Y-86750002D03*
%TO.P,R301,2*%
%TO.N,/ARCHITECTURE/2. POLARITY PROTECTION/VPROT*%
X143815645Y-83650000D03*
%TD*%
D37*
%TO.P,D502,1,K*%
%TO.N,Net-(D502-K)*%
X161565645Y-92300000D03*
%TO.P,D502,2,A*%
%TO.N,/ARCHITECTURE/5. COMPARATOR/EN_OK*%
X161565645Y-94400000D03*
%TD*%
D38*
%TO.P,C401,1*%
%TO.N,VREF_2V5*%
X152565645Y-75150000D03*
%TO.P,C401,2*%
%TO.N,GND*%
X152565645Y-73424998D03*
%TD*%
D39*
%TO.P,C402,1*%
%TO.N,VCC_5V*%
X152365645Y-82550000D03*
%TO.P,C402,2*%
%TO.N,GND*%
X152365645Y-84275002D03*
%TD*%
D20*
%TO.P,U401,1,K*%
%TO.N,VCC_5V*%
X154465645Y-82550000D03*
%TO.P,U401,2,A*%
%TO.N,GND*%
X154465645Y-84450000D03*
%TO.P,U401,3,NC*%
%TO.N,unconnected-(U401-NC-Pad3)*%
X156340645Y-83500000D03*
%TD*%
D40*
%TO.P,R403,1*%
%TO.N,VCC_5V*%
X150365646Y-82550000D03*
%TO.P,R403,2*%
%TO.N,/ARCHITECTURE/2. POLARITY PROTECTION/VPROT*%
X147265644Y-82550000D03*
%TD*%
D16*
%TO.P,R502,1*%
%TO.N,Net-(U501B--)*%
X163965645Y-77450000D03*
%TO.P,R502,2*%
%TO.N,/ARCHITECTURE/3. SENSING/VSENSE_17V*%
X163965645Y-74349998D03*
%TD*%
D17*
%TO.P,R303,1*%
%TO.N,/ARCHITECTURE/3. SENSING/VSENSE_17V*%
X143815645Y-78349999D03*
%TO.P,R303,2*%
%TO.N,/ARCHITECTURE/2. POLARITY PROTECTION/VPROT*%
X143815645Y-81450001D03*
%TD*%
D35*
%TO.P,D601,1,K*%
%TO.N,/ARCHITECTURE/2. POLARITY PROTECTION/VPROT*%
X178815644Y-85650000D03*
%TO.P,D601,2,A*%
%TO.N,Net-(D601-A)*%
X176315646Y-85650000D03*
%TD*%
D22*
%TO.P,TP201,1,1*%
%TO.N,/ARCHITECTURE/2. POLARITY PROTECTION/VPROT*%
X139115645Y-94650000D03*
%TD*%
D41*
%TO.N,/ARCHITECTURE/2. POLARITY PROTECTION/VPROT*%
X178815645Y-83150000D03*
X148815645Y-81950000D03*
X178815645Y-81950000D03*
X178815645Y-82550000D03*
X148815645Y-82550000D03*
X148815645Y-83150000D03*
%TO.N,GND*%
X171965645Y-89450000D03*
X153265645Y-84450000D03*
X168865645Y-87650000D03*
X168965645Y-77450000D03*
X166165645Y-85050000D03*
X177565645Y-65450000D03*
X174190645Y-96925000D03*
X143815645Y-93050000D03*
%TD*%
D42*
%TO.N,/ARCHITECTURE/5. COMPARATOR/EN_OK*%
X166115647Y-98950002D02*
X161565645Y-94400000D01*
X165815645Y-70650000D02*
X169815645Y-74650000D01*
X158165644Y-94400000D02*
X161565645Y-94400000D01*
X172365647Y-98950002D02*
X172415649Y-98900000D01*
X169815645Y-74650000D02*
X169815645Y-96800002D01*
X161565645Y-70650000D02*
X165815645Y-70650000D01*
X171965645Y-98950002D02*
X172365647Y-98950002D01*
X171965645Y-98950002D02*
X166115647Y-98950002D01*
X172015647Y-98900000D02*
X171965645Y-98950002D01*
X169815645Y-96800002D02*
X171965645Y-98950002D01*
X175065645Y-98900000D02*
X172015647Y-98900000D01*
X154565645Y-90800001D02*
X158165644Y-94400000D01*
%TO.N,VREF_2V5*%
X166965645Y-78307500D02*
X166965645Y-72800000D01*
X165220645Y-80052500D02*
X166965645Y-78307500D01*
X156265645Y-72500001D02*
X156265645Y-69250000D01*
X163965645Y-83450000D02*
X162680645Y-84735000D01*
X154565645Y-74200001D02*
X156265645Y-72500001D01*
X165465645Y-71300000D02*
X158315645Y-71300000D01*
X158315645Y-71300000D02*
X156265645Y-69250000D01*
X163965645Y-81659000D02*
X163965645Y-83450000D01*
X165220645Y-80404000D02*
X163965645Y-81659000D01*
X166965645Y-72800000D02*
X165465645Y-71300000D01*
X162680645Y-84735000D02*
X162680645Y-85047500D01*
X165220645Y-80052500D02*
X165220645Y-80404000D01*
%TO.N,GND*%
X174190645Y-96925000D02*
X174190645Y-95800000D01*
X166165645Y-85050000D02*
X165223145Y-85050000D01*
X152365645Y-84275002D02*
X153090647Y-84275002D01*
X143815645Y-93050000D02*
X143815645Y-91750002D01*
X177565645Y-65450000D02*
X177565645Y-66599999D01*
X165223145Y-85050000D02*
X165220645Y-85047500D01*
X167828145Y-87650000D02*
X168865645Y-87650000D01*
X153090647Y-84275002D02*
X153265645Y-84450000D01*
X171965645Y-89450000D02*
X171965645Y-90749998D01*
X167828145Y-77450000D02*
X168965645Y-77450000D01*
D43*
X153265645Y-84450000D02*
X154465645Y-84450000D01*
%TO.N,/ARCHITECTURE/3. SENSING/VSENSE_12V*%
X158565645Y-90750002D02*
X156965643Y-89150000D01*
X158565645Y-90750002D02*
X158565645Y-91150000D01*
X156965643Y-89150000D02*
X149015645Y-89150000D01*
X162315645Y-93150000D02*
X163965645Y-91500000D01*
X163965645Y-91500000D02*
X163965645Y-90750002D01*
X158565645Y-91150000D02*
X160565645Y-93150000D01*
X149015645Y-89150000D02*
X147565645Y-87700000D01*
X160565645Y-93150000D02*
X162315645Y-93150000D01*
D42*
%TO.N,/ARCHITECTURE/3. SENSING/VSENSE_17V*%
X157965645Y-71923280D02*
X158214925Y-71674000D01*
D43*
X155515645Y-77650000D02*
X147815645Y-77650000D01*
D42*
X158565645Y-74349999D02*
X157965645Y-73749999D01*
X157965645Y-73749999D02*
X157965645Y-71923280D01*
X161289647Y-71674000D02*
X163965645Y-74349998D01*
X158214925Y-71674000D02*
X161289647Y-71674000D01*
D43*
X158815646Y-74349999D02*
X155515645Y-77650000D01*
X147815645Y-77650000D02*
X147565645Y-77400000D01*
D42*
%TO.N,/ARCHITECTURE/5. COMPARATOR/17V_OK*%
X159315645Y-72400000D02*
X160065645Y-73150000D01*
X160065645Y-73150000D02*
X160065645Y-75950001D01*
X160065645Y-75950001D02*
X158565645Y-77450001D01*
%TO.N,/ARCHITECTURE/5. COMPARATOR/12V_OK*%
X161058145Y-85400000D02*
X161410645Y-85047500D01*
X158065645Y-85400000D02*
X161058145Y-85400000D01*
%TD*%
%TA.AperFunction,Conductor*%
%TO.N,/ARCHITECTURE/5. COMPARATOR/12V_OK*%
G36*
X161758684Y-84219685D02*
G01*
X161804439Y-84272489D01*
X161815645Y-84324000D01*
X161815645Y-85999999D01*
X161815644Y-85999999D01*
X162445370Y-86961264D01*
X162465640Y-87028129D01*
X162465645Y-87029214D01*
X162465645Y-88168414D01*
X162445960Y-88235453D01*
X162393156Y-88281208D01*
X162341846Y-88292414D01*
X157789846Y-88299798D01*
X157722775Y-88280222D01*
X157676934Y-88227492D01*
X157665645Y-88175798D01*
X157665645Y-87124000D01*
X157685330Y-87056961D01*
X157738134Y-87011206D01*
X157789645Y-87000000D01*
X160665645Y-87000000D01*
X161015644Y-86000002D01*
X161015645Y-86000000D01*
X161015645Y-84324000D01*
X161035330Y-84256961D01*
X161088134Y-84211206D01*
X161139645Y-84200000D01*
X161691645Y-84200000D01*
X161758684Y-84219685D01*
G37*
%TD.AperFunction*%
%TD*%
%TA.AperFunction,Conductor*%
%TO.N,Net-(Q601-B)*%
G36*
X172881322Y-93169685D02*
G01*
X172901964Y-93186319D01*
X173265645Y-93550000D01*
X174841645Y-93550000D01*
X174908684Y-93569685D01*
X174954439Y-93622489D01*
X174965645Y-93674000D01*
X174965645Y-94126000D01*
X174945960Y-94193039D01*
X174893156Y-94238794D01*
X174841645Y-94250000D01*
X173265644Y-94250000D01*
X172865645Y-94649999D01*
X172865645Y-96426000D01*
X172845960Y-96493039D01*
X172793156Y-96538794D01*
X172741645Y-96550000D01*
X171189645Y-96550000D01*
X171122606Y-96530315D01*
X171076851Y-96477511D01*
X171065645Y-96426000D01*
X171065645Y-93274000D01*
X171085330Y-93206961D01*
X171138134Y-93161206D01*
X171189645Y-93150000D01*
X172814283Y-93150000D01*
X172881322Y-93169685D01*
G37*
%TD.AperFunction*%
%TD*%
%TA.AperFunction,Conductor*%
%TO.N,/ARCHITECTURE/3. SENSING/VSENSE_12V*%
G36*
X157539145Y-89581450D02*
G01*
X157584290Y-89623151D01*
X157641110Y-89667323D01*
X157683940Y-89700620D01*
X157800496Y-89776722D01*
X158074351Y-89917893D01*
X158357458Y-90022390D01*
X158615815Y-90082138D01*
X158615816Y-90082138D01*
X158615820Y-90082139D01*
X158700863Y-90089073D01*
X158818903Y-90098698D01*
X158826869Y-90102786D01*
X158829612Y-90111310D01*
X158828766Y-90114822D01*
X158569180Y-90743854D01*
X158562857Y-90750194D01*
X158558946Y-90751077D01*
X157706514Y-90793451D01*
X157698081Y-90790439D01*
X157694247Y-90782346D01*
X157694601Y-90778856D01*
X157709904Y-90719357D01*
X157721106Y-90625330D01*
X157720966Y-90526812D01*
X157708307Y-90410197D01*
X157683990Y-90292678D01*
X157646597Y-90167539D01*
X157599925Y-90047932D01*
X157586311Y-90022390D01*
X157530616Y-89917893D01*
X157491682Y-89844844D01*
X157395901Y-89723405D01*
X157393470Y-89714788D01*
X157396815Y-89707889D01*
X157522934Y-89581770D01*
X157531206Y-89578344D01*
X157539145Y-89581450D01*
G37*
%TD.AperFunction*%
%TD*%
%TA.AperFunction,Conductor*%
%TO.N,GND*%
G36*
X177688721Y-65453427D02*
G01*
X177692038Y-65460102D01*
X177702065Y-65532842D01*
X177724494Y-65599493D01*
X177758284Y-65667916D01*
X177758287Y-65667921D01*
X177848952Y-65789138D01*
X177959736Y-65879728D01*
X177959737Y-65879729D01*
X177959738Y-65879729D01*
X177959740Y-65879731D01*
X178082727Y-65935331D01*
X178177186Y-65949288D01*
X178192546Y-65951558D01*
X178200230Y-65956157D01*
X178202410Y-65964842D01*
X178199084Y-65971430D01*
X177573893Y-66592801D01*
X177565609Y-66596203D01*
X177557397Y-66592801D01*
X176933842Y-65973057D01*
X176930390Y-65964795D01*
X176933792Y-65956511D01*
X176941231Y-65953090D01*
X176979752Y-65950259D01*
X177052023Y-65934295D01*
X177118923Y-65908461D01*
X177187374Y-65869482D01*
X177248402Y-65821959D01*
X177306844Y-65761944D01*
X177355328Y-65696810D01*
X177393789Y-65628539D01*
X177421101Y-65560796D01*
X177438940Y-65459668D01*
X177443752Y-65452115D01*
X177450462Y-65450000D01*
X177680448Y-65450000D01*
X177688721Y-65453427D01*
G37*
%TD.AperFunction*%
%TD*%
%TA.AperFunction,Conductor*%
%TO.N,/ARCHITECTURE/2. POLARITY PROTECTION/VPROT*%
G36*
X139315645Y-85149999D02*
G01*
X139315645Y-86150003D01*
X139764713Y-89792440D01*
X139765645Y-89807613D01*
X139765645Y-91499986D01*
X139861584Y-94522065D01*
X139844036Y-94589696D01*
X139792710Y-94637103D01*
X139737646Y-94650000D01*
X138493644Y-94650000D01*
X138426605Y-94630315D01*
X138380850Y-94577511D01*
X138369706Y-94522065D01*
X138465645Y-91499986D01*
X138465645Y-89799990D01*
X138315750Y-86152554D01*
X138315645Y-86147462D01*
X138315645Y-85189995D01*
X138335330Y-85122956D01*
X138339015Y-85117541D01*
X139215645Y-83900000D01*
X140465643Y-83900000D01*
X139315645Y-85149999D01*
G37*
%TD.AperFunction*%
%TD*%
%TA.AperFunction,Conductor*%
%TO.N,/ARCHITECTURE/1. INTERCONNECTS/VOUT*%
G36*
X183758684Y-72669685D02*
G01*
X183804439Y-72722489D01*
X183815645Y-72774000D01*
X183815645Y-83400000D01*
X185065645Y-84650000D01*
X193441645Y-84650000D01*
X193508684Y-84669685D01*
X193554439Y-84722489D01*
X193565645Y-84774000D01*
X193565645Y-86526000D01*
X193545960Y-86593039D01*
X193493156Y-86638794D01*
X193441645Y-86650000D01*
X184117007Y-86650000D01*
X184049968Y-86630315D01*
X184029326Y-86613681D01*
X182101964Y-84686319D01*
X182068479Y-84624996D01*
X182065645Y-84598638D01*
X182065645Y-79650000D01*
X181065645Y-78650000D01*
X174939645Y-78650000D01*
X174872606Y-78630315D01*
X174826851Y-78577511D01*
X174815645Y-78526000D01*
X174815645Y-72679997D01*
X174818834Y-72666809D01*
X174817855Y-72656688D01*
X174820160Y-72650000D01*
X180365645Y-72650000D01*
X183691645Y-72650000D01*
X183758684Y-72669685D01*
G37*
%TD.AperFunction*%
%TD*%
%TA.AperFunction,Conductor*%
%TO.N,GND*%
G36*
X174198903Y-95807285D02*
G01*
X174425616Y-96034754D01*
X174474105Y-96083405D01*
X174477518Y-96091683D01*
X174474077Y-96099951D01*
X174468031Y-96103153D01*
X174444315Y-96107720D01*
X174444310Y-96107722D01*
X174411527Y-96125224D01*
X174375431Y-96162872D01*
X174349414Y-96211169D01*
X174322365Y-96313320D01*
X174316482Y-96389204D01*
X174312426Y-96397188D01*
X174304817Y-96400000D01*
X174077074Y-96400000D01*
X174068801Y-96396573D01*
X174065377Y-96388575D01*
X174065092Y-96376417D01*
X174053725Y-96300473D01*
X174047150Y-96256538D01*
X174009998Y-96168997D01*
X173959049Y-96118121D01*
X173959048Y-96118120D01*
X173927577Y-96104766D01*
X173927573Y-96104765D01*
X173927572Y-96104765D01*
X173914198Y-96103039D01*
X173906434Y-96098582D01*
X173904094Y-96089938D01*
X173907409Y-96083179D01*
X174182359Y-95807313D01*
X174190626Y-95803873D01*
X174198903Y-95807285D01*
G37*
%TD.AperFunction*%
%TD*%
%TA.AperFunction,Conductor*%
%TO.N,Net-(D601-A)*%
G36*
X175858684Y-81219685D02*
G01*
X175904439Y-81272489D01*
X175915645Y-81324000D01*
X175915645Y-83850000D01*
X176793597Y-85118153D01*
X176815572Y-85184476D01*
X176815645Y-85188734D01*
X176815645Y-86147462D01*
X176815540Y-86152554D01*
X176665645Y-89799990D01*
X176665645Y-91500002D01*
X176815495Y-94546950D01*
X176815645Y-94553041D01*
X176815645Y-95026000D01*
X176795960Y-95093039D01*
X176743156Y-95138794D01*
X176691645Y-95150000D01*
X175441379Y-95150000D01*
X175374340Y-95130315D01*
X175328585Y-95077511D01*
X175317391Y-95024278D01*
X175365645Y-91550002D01*
X175365645Y-89807613D01*
X175366577Y-89792440D01*
X175815645Y-86150003D01*
X175815645Y-85150000D01*
X174696769Y-83885183D01*
X174667094Y-83821928D01*
X174665645Y-83803024D01*
X174665645Y-81324000D01*
X174685330Y-81256961D01*
X174738134Y-81211206D01*
X174789645Y-81200000D01*
X175791645Y-81200000D01*
X175858684Y-81219685D01*
G37*
%TD.AperFunction*%
%TD*%
%TA.AperFunction,Conductor*%
%TO.N,/ARCHITECTURE/5. COMPARATOR/EN_OK*%
G36*
X161784474Y-70440465D02*
G01*
X161787763Y-70446411D01*
X161790451Y-70458980D01*
X161808093Y-70484342D01*
X161808096Y-70484345D01*
X161864950Y-70514184D01*
X161864949Y-70514184D01*
X161883427Y-70516912D01*
X161934639Y-70524476D01*
X161998049Y-70525178D01*
X161998051Y-70525177D01*
X161998053Y-70525178D01*
X162003826Y-70525120D01*
X162012134Y-70528462D01*
X162015644Y-70536700D01*
X162015645Y-70536819D01*
X162015645Y-70763180D01*
X162012218Y-70771453D01*
X162003945Y-70774880D01*
X162003828Y-70774879D01*
X161998095Y-70774821D01*
X161938252Y-70775337D01*
X161938251Y-70775337D01*
X161852311Y-70789770D01*
X161819311Y-70810785D01*
X161802812Y-70821292D01*
X161802811Y-70821292D01*
X161802811Y-70821293D01*
X161788920Y-70844791D01*
X161788919Y-70844793D01*
X161787384Y-70852878D01*
X161782473Y-70860366D01*
X161773706Y-70862190D01*
X161767496Y-70858847D01*
X161686056Y-70775000D01*
X161572561Y-70658150D01*
X161569256Y-70649830D01*
X161572561Y-70641849D01*
X161767930Y-70440705D01*
X161776152Y-70437159D01*
X161784474Y-70440465D01*
G37*
%TD.AperFunction*%
%TD*%
%TA.AperFunction,Conductor*%
%TO.N,VREF_2V5*%
G36*
X164833573Y-79936457D02*
G01*
X165212786Y-80049245D01*
X165219739Y-80054888D01*
X165221148Y-80060726D01*
X165204422Y-80794706D01*
X165200808Y-80802898D01*
X165194318Y-80806030D01*
X165137055Y-80813900D01*
X165137054Y-80813901D01*
X165068969Y-80837284D01*
X164942435Y-80907190D01*
X164942430Y-80907193D01*
X164819727Y-80998333D01*
X164632740Y-81169384D01*
X164624323Y-81172439D01*
X164616570Y-81169024D01*
X164455274Y-81007728D01*
X164451847Y-80999455D01*
X164454569Y-80991953D01*
X164481140Y-80960177D01*
X164483599Y-80957969D01*
X164496197Y-80949552D01*
X164520403Y-80913324D01*
X164521135Y-80912346D01*
X164534894Y-80895893D01*
X164595394Y-80801324D01*
X164651097Y-80694076D01*
X164700852Y-80575946D01*
X164743462Y-80448816D01*
X164800745Y-80187714D01*
X164818572Y-79946808D01*
X164822600Y-79938811D01*
X164831103Y-79936004D01*
X164833573Y-79936457D01*
G37*
%TD.AperFunction*%
%TD*%
%TA.AperFunction,Conductor*%
%TO.N,Net-(D502-K)*%
G36*
X162408684Y-90069684D02*
G01*
X162454439Y-90122488D01*
X162465645Y-90173999D01*
X162465645Y-91398637D01*
X162445960Y-91465676D01*
X162429326Y-91486318D01*
X161865645Y-92049999D01*
X161865645Y-92526000D01*
X161845960Y-92593039D01*
X161793156Y-92638794D01*
X161741645Y-92650000D01*
X161389645Y-92650000D01*
X161322606Y-92630315D01*
X161276851Y-92577511D01*
X161265645Y-92526000D01*
X161265645Y-92050000D01*
X160701964Y-91486319D01*
X160668479Y-91424996D01*
X160665645Y-91398638D01*
X160665645Y-90173999D01*
X160685330Y-90106960D01*
X160738134Y-90061205D01*
X160789644Y-90049999D01*
X162341648Y-90049999D01*
X162408684Y-90069684D01*
G37*
%TD.AperFunction*%
%TD*%
%TA.AperFunction,Conductor*%
%TO.N,/ARCHITECTURE/3. SENSING/VSENSE_12V*%
G36*
X144831171Y-85969685D02*
G01*
X144851992Y-85986499D01*
X145811496Y-86950000D01*
X147441645Y-86950000D01*
X147508684Y-86969685D01*
X147554439Y-87022489D01*
X147565645Y-87074000D01*
X147565645Y-88326000D01*
X147545960Y-88393039D01*
X147493156Y-88438794D01*
X147441645Y-88450000D01*
X145815644Y-88450000D01*
X144851964Y-89413681D01*
X144790641Y-89447166D01*
X144764283Y-89450000D01*
X142939645Y-89450000D01*
X142872606Y-89430315D01*
X142826851Y-89377511D01*
X142815645Y-89326000D01*
X142815645Y-86074000D01*
X142835330Y-86006961D01*
X142888134Y-85961206D01*
X142939645Y-85950000D01*
X144764132Y-85950000D01*
X144831171Y-85969685D01*
G37*
%TD.AperFunction*%
%TD*%
%TA.AperFunction,Conductor*%
%TO.N,/ARCHITECTURE/3. SENSING/VSENSE_17V*%
G36*
X158088759Y-73053426D02*
G01*
X158092070Y-73060058D01*
X158103686Y-73142058D01*
X158103689Y-73142071D01*
X158128258Y-73209993D01*
X158128261Y-73210000D01*
X158128263Y-73210004D01*
X158164756Y-73278342D01*
X158214108Y-73347848D01*
X158274604Y-73414984D01*
X158423065Y-73534606D01*
X158423069Y-73534608D01*
X158423068Y-73534608D01*
X158509969Y-73579930D01*
X158596873Y-73625254D01*
X158596877Y-73625255D01*
X158596879Y-73625256D01*
X158641778Y-73638574D01*
X158785214Y-73681123D01*
X158962186Y-73698167D01*
X158970091Y-73702370D01*
X158972709Y-73710934D01*
X158970925Y-73716107D01*
X158571124Y-74342415D01*
X158563784Y-74347545D01*
X158556388Y-74346756D01*
X157951102Y-74069362D01*
X157704938Y-73956549D01*
X157698845Y-73949988D01*
X157699177Y-73941040D01*
X157701023Y-73938193D01*
X157713096Y-73924460D01*
X157748567Y-73858063D01*
X157776827Y-73771325D01*
X157810909Y-73590017D01*
X157830168Y-73391329D01*
X157830169Y-73391321D01*
X157830169Y-73391320D01*
X157840297Y-73061340D01*
X157843976Y-73053176D01*
X157851991Y-73049999D01*
X158080486Y-73049999D01*
X158088759Y-73053426D01*
G37*
%TD.AperFunction*%
%TD*%
%TA.AperFunction,Conductor*%
%TO.N,GND*%
G36*
X153331670Y-84184144D02*
G01*
X153454297Y-84222401D01*
X153456525Y-84223360D01*
X153503743Y-84249826D01*
X153545229Y-84273079D01*
X153545682Y-84273347D01*
X153570438Y-84288726D01*
X153570443Y-84288729D01*
X153666078Y-84332484D01*
X153729111Y-84345310D01*
X153799336Y-84349363D01*
X153807397Y-84353261D01*
X153810361Y-84361044D01*
X153810361Y-84539065D01*
X153806934Y-84547338D01*
X153799451Y-84550738D01*
X153717837Y-84556259D01*
X153648680Y-84573092D01*
X153545458Y-84626792D01*
X153460540Y-84674817D01*
X153459057Y-84675523D01*
X153398987Y-84699117D01*
X153397626Y-84699558D01*
X153331230Y-84716644D01*
X153322364Y-84715387D01*
X153316983Y-84708229D01*
X153316847Y-84707636D01*
X153265115Y-84452319D01*
X153265115Y-84447680D01*
X153316720Y-84192990D01*
X153321722Y-84185563D01*
X153330510Y-84183847D01*
X153331670Y-84184144D01*
G37*
%TD.AperFunction*%
%TD*%
%TA.AperFunction,Conductor*%
%TO.N,/ARCHITECTURE/5. COMPARATOR/EN_OK*%
G36*
X161785030Y-94312805D02*
G01*
X161791338Y-94319161D01*
X161792158Y-94322472D01*
X161795770Y-94359853D01*
X161795770Y-94359855D01*
X161795771Y-94359858D01*
X161811777Y-94411672D01*
X161867390Y-94509511D01*
X161939408Y-94596195D01*
X162009755Y-94667599D01*
X162018976Y-94676710D01*
X162023536Y-94681215D01*
X162027013Y-94689468D01*
X162023636Y-94697761D01*
X161863469Y-94857928D01*
X161855196Y-94861355D01*
X161846923Y-94857928D01*
X161846860Y-94857865D01*
X161838221Y-94849093D01*
X161838172Y-94849044D01*
X161788533Y-94799828D01*
X161695071Y-94726646D01*
X161616600Y-94695316D01*
X161616594Y-94695316D01*
X161560688Y-94699103D01*
X161552202Y-94696243D01*
X161548224Y-94688221D01*
X161548217Y-94686761D01*
X161564510Y-94406645D01*
X161568411Y-94398585D01*
X161571749Y-94396501D01*
X161776078Y-94312771D01*
X161785030Y-94312805D01*
G37*
%TD.AperFunction*%
%TD*%
%TA.AperFunction,Conductor*%
%TO.N,GND*%
G36*
X174312856Y-96383711D02*
G01*
X174316265Y-96391329D01*
X174320883Y-96473667D01*
X174335040Y-96543753D01*
X174335043Y-96543763D01*
X174380794Y-96650101D01*
X174413710Y-96717852D01*
X174414382Y-96719572D01*
X174432171Y-96778293D01*
X174456633Y-96859044D01*
X174455752Y-96867955D01*
X174448828Y-96873633D01*
X174447759Y-96873903D01*
X174192968Y-96925529D01*
X174188322Y-96925529D01*
X173933333Y-96873863D01*
X173925905Y-96868861D01*
X173924189Y-96860073D01*
X173924401Y-96859200D01*
X173958405Y-96740219D01*
X173959061Y-96738471D01*
X174000498Y-96650095D01*
X174048250Y-96536620D01*
X174060971Y-96469027D01*
X174065061Y-96391368D01*
X174068918Y-96383287D01*
X174076745Y-96380284D01*
X174304583Y-96380284D01*
X174312856Y-96383711D01*
G37*
%TD.AperFunction*%
%TD*%
%TA.AperFunction,Conductor*%
%TO.N,/ARCHITECTURE/5. COMPARATOR/EN_OK*%
G36*
X155433056Y-90759571D02*
G01*
X155436890Y-90767664D01*
X155436508Y-90771262D01*
X155424227Y-90817274D01*
X155424223Y-90817291D01*
X155412335Y-90906664D01*
X155411777Y-91000087D01*
X155411777Y-91000094D01*
X155423824Y-91112010D01*
X155447735Y-91224961D01*
X155447741Y-91224981D01*
X155486167Y-91349464D01*
X155486179Y-91349498D01*
X155534450Y-91469006D01*
X155534453Y-91469013D01*
X155650433Y-91680372D01*
X155650434Y-91680373D01*
X155650436Y-91680375D01*
X155650438Y-91680379D01*
X155700636Y-91743298D01*
X155752981Y-91808909D01*
X155755462Y-91817514D01*
X155752108Y-91824479D01*
X155590669Y-91985918D01*
X155582396Y-91989345D01*
X155574469Y-91986250D01*
X155520755Y-91936753D01*
X155417404Y-91856005D01*
X155417402Y-91856003D01*
X155337717Y-91803045D01*
X155297132Y-91776073D01*
X155026259Y-91632059D01*
X155026258Y-91632058D01*
X155026255Y-91632057D01*
X154753882Y-91527397D01*
X154753872Y-91527393D01*
X154578929Y-91485186D01*
X154507182Y-91467876D01*
X154312328Y-91451351D01*
X154304374Y-91447237D01*
X154301659Y-91438704D01*
X154302501Y-91435233D01*
X154562109Y-90806147D01*
X154568432Y-90799807D01*
X154572337Y-90798926D01*
X155424624Y-90756559D01*
X155433056Y-90759571D01*
G37*
%TD.AperFunction*%
%TD*%
%TA.AperFunction,Conductor*%
%TO.N,GND*%
G36*
X143823891Y-91757198D02*
G01*
X144448699Y-92378186D01*
X144452151Y-92386448D01*
X144448749Y-92394732D01*
X144441949Y-92398088D01*
X144380546Y-92406017D01*
X144316635Y-92428583D01*
X144257114Y-92461687D01*
X144192831Y-92512099D01*
X144135178Y-92572393D01*
X144135166Y-92572408D01*
X144076724Y-92651708D01*
X144076720Y-92651715D01*
X144028088Y-92736910D01*
X144028080Y-92736927D01*
X143988296Y-92827694D01*
X143988291Y-92827709D01*
X143960188Y-92915875D01*
X143942104Y-93039987D01*
X143937520Y-93047680D01*
X143930526Y-93050000D01*
X143702141Y-93050000D01*
X143693868Y-93046573D01*
X143690443Y-93038512D01*
X143690431Y-93037865D01*
X143690430Y-93037849D01*
X143681574Y-92962547D01*
X143681574Y-92962544D01*
X143660098Y-92877345D01*
X143587938Y-92707794D01*
X143493159Y-92568912D01*
X143388727Y-92471695D01*
X143279704Y-92414653D01*
X143260704Y-92411384D01*
X143187991Y-92398873D01*
X143180419Y-92394092D01*
X143178444Y-92385358D01*
X143181725Y-92379046D01*
X143807398Y-91757198D01*
X143815681Y-91753797D01*
X143823891Y-91757198D01*
G37*
%TD.AperFunction*%
%TD*%
%TA.AperFunction,Conductor*%
%TO.N,GND*%
G36*
X132408684Y-88469685D02*
G01*
X132454439Y-88522489D01*
X132465645Y-88574000D01*
X132465645Y-90750000D01*
X133558066Y-93729329D01*
X133565645Y-93772017D01*
X133565645Y-95426000D01*
X133545960Y-95493039D01*
X133493156Y-95538794D01*
X133441645Y-95550000D01*
X132389645Y-95550000D01*
X132322606Y-95530315D01*
X132276851Y-95477511D01*
X132265645Y-95426000D01*
X132265645Y-93750001D01*
X132265644Y-93749998D01*
X130186983Y-90681498D01*
X130165681Y-90614955D01*
X130165645Y-90611953D01*
X130165645Y-88574000D01*
X130185330Y-88506961D01*
X130238134Y-88461206D01*
X130289645Y-88450000D01*
X132341645Y-88450000D01*
X132408684Y-88469685D01*
G37*
%TD.AperFunction*%
%TD*%
%TA.AperFunction,Conductor*%
%TO.N,/ARCHITECTURE/3. SENSING/VSENSE_17V*%
G36*
X158566934Y-74352683D02*
G01*
X158569847Y-74356442D01*
X158877012Y-74984791D01*
X158877567Y-74993728D01*
X158871639Y-75000440D01*
X158867593Y-75001578D01*
X158749491Y-75012645D01*
X158627760Y-75041038D01*
X158627757Y-75041038D01*
X158627752Y-75041040D01*
X158502064Y-75082999D01*
X158502058Y-75083001D01*
X158502045Y-75083006D01*
X158355540Y-75145220D01*
X158355532Y-75145224D01*
X158212321Y-75218375D01*
X158073819Y-75300616D01*
X158073812Y-75300621D01*
X157948577Y-75386085D01*
X157784950Y-75523434D01*
X157776410Y-75526129D01*
X157769155Y-75522746D01*
X157643204Y-75396795D01*
X157639777Y-75388522D01*
X157642818Y-75380653D01*
X157657774Y-75364203D01*
X157702003Y-75301258D01*
X157741500Y-75225028D01*
X157800458Y-75043371D01*
X157823056Y-74855548D01*
X157809548Y-74684309D01*
X157764307Y-74538181D01*
X157739089Y-74497118D01*
X157700647Y-74434518D01*
X157699238Y-74425674D01*
X157704494Y-74418425D01*
X157709695Y-74416732D01*
X158558419Y-74349916D01*
X158566934Y-74352683D01*
G37*
%TD.AperFunction*%
%TD*%
%TA.AperFunction,Conductor*%
%TO.N,VCC_5V*%
G36*
X155581322Y-78569685D02*
G01*
X155601964Y-78586319D01*
X156165645Y-79150000D01*
X161691645Y-79150000D01*
X161758684Y-79169685D01*
X161804439Y-79222489D01*
X161815645Y-79274000D01*
X161815645Y-80776000D01*
X161795960Y-80843039D01*
X161743156Y-80888794D01*
X161691645Y-80900000D01*
X156565644Y-80900000D01*
X155265645Y-81899999D01*
X155265645Y-82598638D01*
X155245960Y-82665677D01*
X155229326Y-82686319D01*
X155051964Y-82863681D01*
X154990641Y-82897166D01*
X154964283Y-82900000D01*
X152915644Y-82900000D01*
X152701964Y-83113681D01*
X152640641Y-83147166D01*
X152614283Y-83150000D01*
X151115644Y-83150000D01*
X151065645Y-83199999D01*
X151065645Y-83150000D01*
X149765645Y-83150000D01*
X149765645Y-83450000D01*
X149734973Y-83450000D01*
X149718539Y-83375271D01*
X149718549Y-83375124D01*
X149718479Y-83374996D01*
X149715645Y-83348638D01*
X149715645Y-79097583D01*
X149735330Y-79030544D01*
X149747477Y-79014631D01*
X150128702Y-78591048D01*
X150188180Y-78554387D01*
X150220870Y-78550000D01*
X155514283Y-78550000D01*
X155581322Y-78569685D01*
G37*
%TD.AperFunction*%
%TD*%
%TA.AperFunction,Conductor*%
%TO.N,/ARCHITECTURE/5. COMPARATOR/EN_OK*%
G36*
X161363793Y-94191152D02*
G01*
X161558727Y-94391848D01*
X161562033Y-94400170D01*
X161558727Y-94408152D01*
X161363360Y-94609293D01*
X161355137Y-94612840D01*
X161346815Y-94609534D01*
X161343526Y-94603587D01*
X161340839Y-94591019D01*
X161323196Y-94565657D01*
X161323193Y-94565654D01*
X161266339Y-94535815D01*
X161266340Y-94535815D01*
X161196654Y-94525524D01*
X161196643Y-94525523D01*
X161133234Y-94524821D01*
X161127462Y-94524879D01*
X161119155Y-94521535D01*
X161115646Y-94513297D01*
X161115645Y-94513180D01*
X161115645Y-94286819D01*
X161119072Y-94278546D01*
X161127345Y-94275119D01*
X161127464Y-94275120D01*
X161133197Y-94275178D01*
X161133220Y-94275177D01*
X161133241Y-94275178D01*
X161193034Y-94274663D01*
X161227253Y-94268915D01*
X161278978Y-94260229D01*
X161278979Y-94260228D01*
X161278981Y-94260228D01*
X161328478Y-94228708D01*
X161342371Y-94205208D01*
X161343906Y-94197120D01*
X161348815Y-94189633D01*
X161357582Y-94187809D01*
X161363793Y-94191152D01*
G37*
%TD.AperFunction*%
%TD*%
%TA.AperFunction,Conductor*%
%TO.N,GND*%
G36*
X165620623Y-84665264D02*
G01*
X165623809Y-84671268D01*
X165631501Y-84710589D01*
X165651069Y-84752868D01*
X165687702Y-84798821D01*
X165734597Y-84837009D01*
X165807323Y-84876498D01*
X165884439Y-84903733D01*
X165884437Y-84903733D01*
X165942990Y-84912742D01*
X166012724Y-84923473D01*
X166020380Y-84928118D01*
X166022645Y-84935037D01*
X166022645Y-85164678D01*
X166019218Y-85172951D01*
X166012405Y-85176287D01*
X165948811Y-85184284D01*
X165913475Y-85188728D01*
X165913473Y-85188728D01*
X165913470Y-85188729D01*
X165784764Y-85233314D01*
X165784759Y-85233316D01*
X165784758Y-85233317D01*
X165784757Y-85233318D01*
X165693389Y-85294422D01*
X165640032Y-85365902D01*
X165640031Y-85365904D01*
X165626227Y-85428856D01*
X165621108Y-85436203D01*
X165612293Y-85437778D01*
X165606523Y-85434621D01*
X165227936Y-85055796D01*
X165224512Y-85047521D01*
X165227940Y-85039251D01*
X165604078Y-84665217D01*
X165612360Y-84661814D01*
X165620623Y-84665264D01*
G37*
%TD.AperFunction*%
%TD*%
%TA.AperFunction,Conductor*%
%TO.N,GND*%
G36*
X155508684Y-70469685D02*
G01*
X155554439Y-70522489D01*
X155565645Y-70574000D01*
X155565645Y-71726000D01*
X155545960Y-71793039D01*
X155493156Y-71838794D01*
X155441645Y-71850000D01*
X153965644Y-71850000D01*
X153165645Y-72649999D01*
X153165645Y-73926000D01*
X153145960Y-73993039D01*
X153093156Y-74038794D01*
X153041645Y-74050000D01*
X143089645Y-74050000D01*
X143022606Y-74030315D01*
X142976851Y-73977511D01*
X142965645Y-73926000D01*
X142965645Y-72774000D01*
X142985330Y-72706961D01*
X143038134Y-72661206D01*
X143089645Y-72650000D01*
X144965645Y-72650000D01*
X146529326Y-71086319D01*
X146590649Y-71052834D01*
X146617007Y-71050000D01*
X152965645Y-71050000D01*
X153529326Y-70486319D01*
X153590649Y-70452834D01*
X153617007Y-70450000D01*
X155441645Y-70450000D01*
X155508684Y-70469685D01*
G37*
%TD.AperFunction*%
%TD*%
%TA.AperFunction,Conductor*%
%TO.N,GND*%
G36*
X168908600Y-77184893D02*
G01*
X168914279Y-77191817D01*
X168914548Y-77192886D01*
X168966174Y-77447677D01*
X168966174Y-77452323D01*
X168914508Y-77707311D01*
X168909506Y-77714739D01*
X168900718Y-77716455D01*
X168899826Y-77716238D01*
X168780869Y-77682240D01*
X168779117Y-77681583D01*
X168690745Y-77640149D01*
X168690741Y-77640147D01*
X168642010Y-77619640D01*
X168577266Y-77592395D01*
X168577262Y-77592394D01*
X168509679Y-77579675D01*
X168509677Y-77579674D01*
X168509673Y-77579674D01*
X168496532Y-77578981D01*
X168432013Y-77575583D01*
X168423932Y-77571725D01*
X168420929Y-77563899D01*
X168420929Y-77336062D01*
X168424356Y-77327789D01*
X168431972Y-77324380D01*
X168514307Y-77319762D01*
X168584402Y-77305604D01*
X168690740Y-77259853D01*
X168758499Y-77226933D01*
X168760206Y-77226264D01*
X168899690Y-77184011D01*
X168908600Y-77184893D01*
G37*
%TD.AperFunction*%
%TD*%
%TA.AperFunction,Conductor*%
%TO.N,GND*%
G36*
X168808600Y-87384893D02*
G01*
X168814279Y-87391817D01*
X168814548Y-87392886D01*
X168866174Y-87647677D01*
X168866174Y-87652323D01*
X168814508Y-87907311D01*
X168809506Y-87914739D01*
X168800718Y-87916455D01*
X168799826Y-87916238D01*
X168680869Y-87882240D01*
X168679117Y-87881583D01*
X168590745Y-87840149D01*
X168590741Y-87840147D01*
X168542010Y-87819640D01*
X168477266Y-87792395D01*
X168477262Y-87792394D01*
X168409679Y-87779675D01*
X168409677Y-87779674D01*
X168409673Y-87779674D01*
X168396532Y-87778981D01*
X168332013Y-87775583D01*
X168323932Y-87771725D01*
X168320929Y-87763899D01*
X168320929Y-87536062D01*
X168324356Y-87527789D01*
X168331972Y-87524380D01*
X168414307Y-87519762D01*
X168484402Y-87505604D01*
X168590740Y-87459853D01*
X168658499Y-87426933D01*
X168660206Y-87426264D01*
X168799690Y-87384011D01*
X168808600Y-87384893D01*
G37*
%TD.AperFunction*%
%TD*%
%TA.AperFunction,Conductor*%
%TO.N,GND*%
G36*
X177822957Y-65501136D02*
G01*
X177830384Y-65506138D01*
X177832100Y-65514926D01*
X177831883Y-65515818D01*
X177797885Y-65634775D01*
X177797228Y-65636527D01*
X177755795Y-65724899D01*
X177708040Y-65838378D01*
X177708039Y-65838382D01*
X177695320Y-65905965D01*
X177695319Y-65905975D01*
X177691229Y-65983631D01*
X177687372Y-65991713D01*
X177679545Y-65994716D01*
X177451707Y-65994716D01*
X177443434Y-65991289D01*
X177440025Y-65983671D01*
X177440023Y-65983631D01*
X177435407Y-65901337D01*
X177421249Y-65831243D01*
X177375497Y-65724904D01*
X177342580Y-65657149D01*
X177341907Y-65655430D01*
X177336181Y-65636527D01*
X177299656Y-65515953D01*
X177300538Y-65507044D01*
X177307462Y-65501365D01*
X177308519Y-65501098D01*
X177563325Y-65449470D01*
X177567965Y-65449470D01*
X177822957Y-65501136D01*
G37*
%TD.AperFunction*%
%TD*%
%TA.AperFunction,Conductor*%
%TO.N,GND*%
G36*
X153830182Y-84165635D02*
G01*
X153971966Y-84228983D01*
X154442736Y-84439318D01*
X154448891Y-84445821D01*
X154448645Y-84454773D01*
X154442736Y-84460682D01*
X153831780Y-84733650D01*
X153822828Y-84733896D01*
X153816325Y-84727741D01*
X153816174Y-84727389D01*
X153811263Y-84715354D01*
X153781934Y-84673174D01*
X153741798Y-84638157D01*
X153741792Y-84638153D01*
X153671838Y-84599707D01*
X153594253Y-84573253D01*
X153503698Y-84555408D01*
X153503688Y-84555407D01*
X153503687Y-84555407D01*
X153492356Y-84554595D01*
X153439010Y-84550777D01*
X153431002Y-84546768D01*
X153428145Y-84539107D01*
X153428145Y-84360268D01*
X153431572Y-84351995D01*
X153438324Y-84348668D01*
X153582124Y-84329855D01*
X153702098Y-84285967D01*
X153779933Y-84228983D01*
X153815396Y-84170267D01*
X153822606Y-84164959D01*
X153830182Y-84165635D01*
G37*
%TD.AperFunction*%
%TD*%
%TA.AperFunction,Conductor*%
%TO.N,GND*%
G36*
X143937856Y-92508711D02*
G01*
X143941265Y-92516329D01*
X143945883Y-92598667D01*
X143960040Y-92668753D01*
X143960043Y-92668763D01*
X144005794Y-92775101D01*
X144038710Y-92842852D01*
X144039382Y-92844572D01*
X144057171Y-92903293D01*
X144081633Y-92984044D01*
X144080752Y-92992955D01*
X144073828Y-92998633D01*
X144072759Y-92998903D01*
X143817968Y-93050529D01*
X143813322Y-93050529D01*
X143558333Y-92998863D01*
X143550905Y-92993861D01*
X143549189Y-92985073D01*
X143549401Y-92984200D01*
X143583405Y-92865219D01*
X143584061Y-92863471D01*
X143625498Y-92775095D01*
X143673250Y-92661620D01*
X143685971Y-92594027D01*
X143690061Y-92516368D01*
X143693918Y-92508287D01*
X143701745Y-92505284D01*
X143929583Y-92505284D01*
X143937856Y-92508711D01*
G37*
%TD.AperFunction*%
%TD*%
%TA.AperFunction,Conductor*%
%TO.N,/ARCHITECTURE/1. INTERCONNECTS/VIN*%
G36*
X140258684Y-72669685D02*
G01*
X140304439Y-72722489D01*
X140315645Y-72774000D01*
X140315645Y-78526000D01*
X140295960Y-78593039D01*
X140243156Y-78638794D01*
X140191645Y-78650000D01*
X134065644Y-78650000D01*
X133065645Y-79649999D01*
X133065645Y-84598638D01*
X133045960Y-84665677D01*
X133029326Y-84686319D01*
X131101964Y-86613681D01*
X131040641Y-86647166D01*
X131014283Y-86650000D01*
X121689645Y-86650000D01*
X121622606Y-86630315D01*
X121576851Y-86577511D01*
X121565645Y-86526000D01*
X121565645Y-84774000D01*
X121585330Y-84706961D01*
X121638134Y-84661206D01*
X121689645Y-84650000D01*
X130065645Y-84650000D01*
X131315645Y-83400000D01*
X131315645Y-72774000D01*
X131335330Y-72706961D01*
X131388134Y-72661206D01*
X131439645Y-72650000D01*
X140191645Y-72650000D01*
X140258684Y-72669685D01*
G37*
%TD.AperFunction*%
%TD*%
%TA.AperFunction,Conductor*%
%TO.N,/ARCHITECTURE/5. COMPARATOR/EN_OK*%
G36*
X170956819Y-97763751D02*
G01*
X171010535Y-97813250D01*
X171113881Y-97893994D01*
X171113887Y-97893999D01*
X171153729Y-97920477D01*
X171234158Y-97973930D01*
X171505031Y-98117944D01*
X171777418Y-98222610D01*
X172024101Y-98282125D01*
X172024103Y-98282125D01*
X172024107Y-98282126D01*
X172110899Y-98289486D01*
X172218962Y-98298651D01*
X172226915Y-98302765D01*
X172229630Y-98311298D01*
X172228787Y-98314772D01*
X171969180Y-98943854D01*
X171962857Y-98950195D01*
X171958946Y-98951077D01*
X171106666Y-98993443D01*
X171098233Y-98990431D01*
X171094399Y-98982338D01*
X171094780Y-98978746D01*
X171107066Y-98932716D01*
X171118954Y-98843339D01*
X171119513Y-98749908D01*
X171107467Y-98638001D01*
X171083553Y-98525037D01*
X171080908Y-98516470D01*
X171045122Y-98400538D01*
X171045110Y-98400504D01*
X171003970Y-98298651D01*
X170996838Y-98280993D01*
X170964800Y-98222608D01*
X170880856Y-98069630D01*
X170880855Y-98069629D01*
X170880854Y-98069627D01*
X170880852Y-98069624D01*
X170817753Y-97990535D01*
X170778308Y-97941093D01*
X170775827Y-97932488D01*
X170779180Y-97925524D01*
X170940621Y-97764083D01*
X170948893Y-97760657D01*
X170956819Y-97763751D01*
G37*
%TD.AperFunction*%
%TD*%
%TA.AperFunction,Conductor*%
%TO.N,Net-(D501-K)*%
G36*
X161762419Y-72469685D02*
G01*
X161783061Y-72486319D01*
X161829326Y-72532584D01*
X161862811Y-72593907D01*
X161865645Y-72620265D01*
X161865645Y-73050000D01*
X162429326Y-73613681D01*
X162462811Y-73675004D01*
X162465645Y-73701362D01*
X162465645Y-74926000D01*
X162445960Y-74993039D01*
X162393156Y-75038794D01*
X162341645Y-75050000D01*
X160789645Y-75050000D01*
X160722606Y-75030315D01*
X160676851Y-74977511D01*
X160665645Y-74926000D01*
X160665645Y-73701362D01*
X160685330Y-73634323D01*
X160701964Y-73613681D01*
X161265645Y-73050000D01*
X161265645Y-72574000D01*
X161285330Y-72506961D01*
X161338134Y-72461206D01*
X161389645Y-72450000D01*
X161695380Y-72450000D01*
X161762419Y-72469685D01*
G37*
%TD.AperFunction*%
%TD*%
%TA.AperFunction,Conductor*%
%TO.N,/ARCHITECTURE/3. SENSING/VSENSE_17V*%
G36*
X162956819Y-73163747D02*
G01*
X163010535Y-73213246D01*
X163113881Y-73293990D01*
X163113887Y-73293995D01*
X163153729Y-73320473D01*
X163234158Y-73373926D01*
X163505031Y-73517940D01*
X163777418Y-73622606D01*
X164024101Y-73682121D01*
X164024103Y-73682121D01*
X164024107Y-73682122D01*
X164110899Y-73689482D01*
X164218962Y-73698647D01*
X164226915Y-73702761D01*
X164229630Y-73711294D01*
X164228787Y-73714768D01*
X163969180Y-74343850D01*
X163962857Y-74350191D01*
X163958946Y-74351073D01*
X163106666Y-74393439D01*
X163098233Y-74390427D01*
X163094399Y-74382334D01*
X163094780Y-74378742D01*
X163107066Y-74332712D01*
X163118954Y-74243335D01*
X163119513Y-74149904D01*
X163107467Y-74037997D01*
X163083553Y-73925033D01*
X163080908Y-73916466D01*
X163045122Y-73800534D01*
X163045110Y-73800500D01*
X163003970Y-73698647D01*
X162996838Y-73680989D01*
X162964800Y-73622604D01*
X162880856Y-73469626D01*
X162880855Y-73469625D01*
X162880854Y-73469623D01*
X162880852Y-73469620D01*
X162817753Y-73390531D01*
X162778308Y-73341089D01*
X162775827Y-73332484D01*
X162779180Y-73325520D01*
X162940621Y-73164079D01*
X162948893Y-73160653D01*
X162956819Y-73163747D01*
G37*
%TD.AperFunction*%
%TD*%
%TA.AperFunction,Conductor*%
%TO.N,/ARCHITECTURE/2. POLARITY PROTECTION/VPROT*%
G36*
X144833084Y-80669685D02*
G01*
X144851562Y-80684207D01*
X145865644Y-81650000D01*
X145865645Y-81650000D01*
X148991645Y-81650000D01*
X149058684Y-81669685D01*
X149104439Y-81722489D01*
X149115645Y-81774000D01*
X149115645Y-83326000D01*
X149095960Y-83393039D01*
X149043156Y-83438794D01*
X148991645Y-83450000D01*
X145865644Y-83450000D01*
X144851069Y-84367950D01*
X144788151Y-84398331D01*
X144767876Y-84400000D01*
X142353189Y-84400000D01*
X142286150Y-84380315D01*
X142284406Y-84379174D01*
X141728175Y-84008353D01*
X141565645Y-83900000D01*
X140465645Y-83900000D01*
X139215645Y-83900000D01*
X139215645Y-81274000D01*
X139235330Y-81206961D01*
X139288134Y-81161206D01*
X139339645Y-81150000D01*
X141565645Y-81150000D01*
X142284406Y-80670826D01*
X142351105Y-80650018D01*
X142353189Y-80650000D01*
X144766045Y-80650000D01*
X144833084Y-80669685D01*
G37*
%TD.AperFunction*%
%TD*%
%TA.AperFunction,Conductor*%
%TO.N,VREF_2V5*%
G36*
X155508684Y-73419685D02*
G01*
X155554439Y-73472489D01*
X155565645Y-73524000D01*
X155565645Y-76776000D01*
X155545960Y-76843039D01*
X155493156Y-76888794D01*
X155441645Y-76900000D01*
X153689645Y-76900000D01*
X153622606Y-76880315D01*
X153576851Y-76827511D01*
X153565645Y-76776000D01*
X153565645Y-76250000D01*
X153165645Y-75850000D01*
X152189645Y-75850000D01*
X152122606Y-75830315D01*
X152076851Y-75777511D01*
X152065645Y-75726000D01*
X152065645Y-74574000D01*
X152085330Y-74506961D01*
X152138134Y-74461206D01*
X152189645Y-74450000D01*
X153165645Y-74450000D01*
X153565645Y-74050000D01*
X153565645Y-73524000D01*
X153585330Y-73456961D01*
X153638134Y-73411206D01*
X153689645Y-73400000D01*
X155441645Y-73400000D01*
X155508684Y-73419685D01*
G37*
%TD.AperFunction*%
%TD*%
%TA.AperFunction,Conductor*%
%TO.N,VREF_2V5*%
G36*
X165823729Y-79286485D02*
G01*
X165985604Y-79448360D01*
X165989031Y-79456633D01*
X165985898Y-79464601D01*
X165943040Y-79510677D01*
X165943036Y-79510682D01*
X165803621Y-79698650D01*
X165803609Y-79698671D01*
X165699503Y-79893009D01*
X165699502Y-79893010D01*
X165640114Y-80068282D01*
X165623517Y-80203363D01*
X165619106Y-80211156D01*
X165610477Y-80213549D01*
X165607450Y-80212755D01*
X165229260Y-80057045D01*
X165222914Y-80050726D01*
X165222356Y-80043419D01*
X165259519Y-79893015D01*
X165399887Y-79324922D01*
X165405198Y-79317715D01*
X165414052Y-79316373D01*
X165419667Y-79319610D01*
X165450705Y-79351797D01*
X165450707Y-79351799D01*
X165450709Y-79351800D01*
X165486332Y-79373818D01*
X165534059Y-79387725D01*
X165584091Y-79389173D01*
X165652955Y-79375280D01*
X165717602Y-79348643D01*
X165808771Y-79285156D01*
X165817517Y-79283241D01*
X165823729Y-79286485D01*
G37*
%TD.AperFunction*%
%TD*%
%TA.AperFunction,Conductor*%
%TO.N,/ARCHITECTURE/5. COMPARATOR/EN_OK*%
G36*
X171254016Y-98327741D02*
G01*
X171257210Y-98329730D01*
X171956570Y-98941194D01*
X171960543Y-98949219D01*
X171957677Y-98957703D01*
X171956570Y-98958810D01*
X171258196Y-99569411D01*
X171249712Y-99572277D01*
X171241687Y-99568304D01*
X171239400Y-99564316D01*
X171238980Y-99563063D01*
X171225070Y-99521496D01*
X171190310Y-99456268D01*
X171190307Y-99456264D01*
X171144717Y-99395590D01*
X171144550Y-99395423D01*
X171078987Y-99329804D01*
X171078982Y-99329800D01*
X171078978Y-99329796D01*
X171030209Y-99291883D01*
X171003241Y-99270918D01*
X171003238Y-99270916D01*
X170906712Y-99211710D01*
X170906692Y-99211699D01*
X170848083Y-99183403D01*
X170804878Y-99162545D01*
X170764942Y-99147580D01*
X170698546Y-99122700D01*
X170596081Y-99094572D01*
X170450883Y-99076291D01*
X170443103Y-99071858D01*
X170440645Y-99064683D01*
X170440645Y-98835296D01*
X170444072Y-98827023D01*
X170450854Y-98823691D01*
X170600058Y-98804534D01*
X170802125Y-98738631D01*
X170978940Y-98645394D01*
X171111175Y-98540246D01*
X171198274Y-98430898D01*
X171238712Y-98334030D01*
X171245062Y-98327716D01*
X171254016Y-98327741D01*
G37*
%TD.AperFunction*%
%TD*%
%TA.AperFunction,Conductor*%
%TO.N,GND*%
G36*
X172222957Y-89501136D02*
G01*
X172230384Y-89506138D01*
X172232100Y-89514926D01*
X172231883Y-89515818D01*
X172197885Y-89634775D01*
X172197228Y-89636527D01*
X172155795Y-89724899D01*
X172108040Y-89838378D01*
X172108039Y-89838382D01*
X172095320Y-89905965D01*
X172095319Y-89905975D01*
X172091229Y-89983631D01*
X172087372Y-89991713D01*
X172079545Y-89994716D01*
X171851707Y-89994716D01*
X171843434Y-89991289D01*
X171840025Y-89983671D01*
X171840023Y-89983631D01*
X171835407Y-89901337D01*
X171821249Y-89831243D01*
X171775497Y-89724904D01*
X171742580Y-89657149D01*
X171741907Y-89655430D01*
X171736181Y-89636527D01*
X171699656Y-89515953D01*
X171700538Y-89507044D01*
X171707462Y-89501365D01*
X171708519Y-89501098D01*
X171963325Y-89449470D01*
X171967965Y-89449470D01*
X172222957Y-89501136D01*
G37*
%TD.AperFunction*%
%TD*%
%TA.AperFunction,Conductor*%
%TO.N,GND*%
G36*
X168223252Y-87206129D02*
G01*
X168226404Y-87210436D01*
X168238569Y-87239077D01*
X168275081Y-87293153D01*
X168275086Y-87293160D01*
X168322296Y-87341310D01*
X168322298Y-87341312D01*
X168393227Y-87393428D01*
X168473275Y-87436586D01*
X168575176Y-87476751D01*
X168676696Y-87504648D01*
X168830387Y-87523726D01*
X168838174Y-87528146D01*
X168840645Y-87535337D01*
X168840645Y-87764412D01*
X168837218Y-87772685D01*
X168830506Y-87776007D01*
X168662180Y-87798673D01*
X168662172Y-87798675D01*
X168488607Y-87856457D01*
X168355776Y-87931924D01*
X168267689Y-88016097D01*
X168227101Y-88091858D01*
X168220174Y-88097532D01*
X168211263Y-88096646D01*
X168207907Y-88093950D01*
X168068942Y-87931924D01*
X167833676Y-87657615D01*
X167830892Y-87649106D01*
X167833676Y-87642384D01*
X168206756Y-87207391D01*
X168214741Y-87203344D01*
X168223252Y-87206129D01*
G37*
%TD.AperFunction*%
%TD*%
%TA.AperFunction,Conductor*%
%TO.N,/ARCHITECTURE/3. SENSING/VSENSE_12V*%
G36*
X163973149Y-90758818D02*
G01*
X163973175Y-90758855D01*
X164419397Y-91383995D01*
X164421414Y-91392719D01*
X164416671Y-91400315D01*
X164411389Y-91402393D01*
X164364872Y-91408468D01*
X164364867Y-91408469D01*
X164294034Y-91431735D01*
X164191708Y-91482752D01*
X164085617Y-91551240D01*
X164085609Y-91551246D01*
X163951223Y-91655413D01*
X163826247Y-91767586D01*
X163826237Y-91767596D01*
X163655708Y-91950746D01*
X163647562Y-91954466D01*
X163639172Y-91951336D01*
X163638872Y-91951046D01*
X163512887Y-91825061D01*
X163509460Y-91816788D01*
X163511499Y-91810189D01*
X163518401Y-91800092D01*
X163537067Y-91757259D01*
X163547377Y-91706790D01*
X163540038Y-91599743D01*
X163497508Y-91500711D01*
X163422209Y-91418851D01*
X163372253Y-91385988D01*
X163372248Y-91385985D01*
X163372247Y-91385985D01*
X163312682Y-91358915D01*
X163243525Y-91338883D01*
X163243513Y-91338880D01*
X163192227Y-91331087D01*
X163184563Y-91326456D01*
X163182418Y-91317762D01*
X163187049Y-91310098D01*
X163187082Y-91310073D01*
X163956819Y-90756154D01*
X163965535Y-90754104D01*
X163973149Y-90758818D01*
G37*
%TD.AperFunction*%
%TD*%
%TA.AperFunction,Conductor*%
%TO.N,GND*%
G36*
X168223252Y-77006129D02*
G01*
X168226404Y-77010436D01*
X168238569Y-77039077D01*
X168275081Y-77093153D01*
X168275086Y-77093160D01*
X168322296Y-77141310D01*
X168322298Y-77141312D01*
X168393227Y-77193428D01*
X168473275Y-77236586D01*
X168575176Y-77276751D01*
X168676696Y-77304648D01*
X168830387Y-77323726D01*
X168838174Y-77328146D01*
X168840645Y-77335337D01*
X168840645Y-77564412D01*
X168837218Y-77572685D01*
X168830506Y-77576007D01*
X168662180Y-77598673D01*
X168662172Y-77598675D01*
X168488607Y-77656457D01*
X168355776Y-77731924D01*
X168267689Y-77816097D01*
X168227101Y-77891858D01*
X168220174Y-77897532D01*
X168211263Y-77896646D01*
X168207907Y-77893950D01*
X168068942Y-77731924D01*
X167833676Y-77457615D01*
X167830892Y-77449106D01*
X167833676Y-77442384D01*
X168206756Y-77007391D01*
X168214741Y-77003344D01*
X168223252Y-77006129D01*
G37*
%TD.AperFunction*%
%TD*%
%TA.AperFunction,Conductor*%
%TO.N,Net-(U501A-+)*%
G36*
X164305249Y-84211899D02*
G01*
X164351004Y-84264703D01*
X164362210Y-84316214D01*
X164362210Y-85942214D01*
X164862210Y-86992214D01*
X164862211Y-86992215D01*
X164862212Y-86992217D01*
X165012209Y-87142213D01*
X165012210Y-87142214D01*
X166538210Y-87142214D01*
X166605249Y-87161899D01*
X166651004Y-87214703D01*
X166662210Y-87266214D01*
X166662210Y-87968214D01*
X166642525Y-88035253D01*
X166589721Y-88081008D01*
X166538210Y-88092214D01*
X165012210Y-88092214D01*
X164899410Y-88242614D01*
X164843439Y-88284435D01*
X164800210Y-88292214D01*
X163186210Y-88292214D01*
X163119171Y-88272529D01*
X163073416Y-88219725D01*
X163062210Y-88168214D01*
X163062210Y-87020231D01*
X163074255Y-86966919D01*
X163562210Y-85942214D01*
X163562210Y-84333712D01*
X163568016Y-84313938D01*
X163568963Y-84293348D01*
X163580872Y-84270153D01*
X163581895Y-84266673D01*
X163585085Y-84261951D01*
X163597502Y-84244453D01*
X163652352Y-84201172D01*
X163698627Y-84192214D01*
X164238210Y-84192214D01*
X164305249Y-84211899D01*
G37*
%TD.AperFunction*%
%TD*%
%TA.AperFunction,Conductor*%
%TO.N,VCC_5V*%
G36*
X151065645Y-86400000D02*
G01*
X151565645Y-86900000D01*
X155441645Y-86900000D01*
X155508684Y-86919685D01*
X155554439Y-86972489D01*
X155565645Y-87024000D01*
X155565645Y-88276000D01*
X155545960Y-88343039D01*
X155493156Y-88388794D01*
X155441645Y-88400000D01*
X150614681Y-88400000D01*
X150547642Y-88380315D01*
X150529872Y-88366463D01*
X150504886Y-88343039D01*
X150348613Y-88196532D01*
X149804836Y-87686741D01*
X149769392Y-87626529D01*
X149765645Y-87596278D01*
X149765645Y-83450000D01*
X149765645Y-83150000D01*
X151065645Y-83150000D01*
X151065645Y-86400000D01*
G37*
%TD.AperFunction*%
%TD*%
%TA.AperFunction,Conductor*%
%TO.N,/ARCHITECTURE/3. SENSING/VSENSE_12V*%
G36*
X158574848Y-90753829D02*
G01*
X159420085Y-91140594D01*
X159426182Y-91147152D01*
X159425856Y-91156101D01*
X159421090Y-91161352D01*
X159347972Y-91203791D01*
X159306582Y-91244987D01*
X159306579Y-91244990D01*
X159275318Y-91291238D01*
X159275318Y-91291239D01*
X159250551Y-91349869D01*
X159240090Y-91397769D01*
X159237001Y-91411915D01*
X159237000Y-91411921D01*
X159233629Y-91487410D01*
X159233630Y-91487427D01*
X159241932Y-91562045D01*
X159241934Y-91562058D01*
X159261053Y-91636945D01*
X159261056Y-91636956D01*
X159288166Y-91703695D01*
X159340547Y-91780907D01*
X159342356Y-91789677D01*
X159339138Y-91795748D01*
X159212209Y-91922677D01*
X159203936Y-91926104D01*
X159196330Y-91923294D01*
X159023016Y-91774992D01*
X158767495Y-91603035D01*
X158767494Y-91603034D01*
X158767489Y-91603031D01*
X158767481Y-91603027D01*
X158534483Y-91482855D01*
X158348680Y-91418679D01*
X158226461Y-91402267D01*
X158218717Y-91397769D01*
X158216422Y-91389114D01*
X158217747Y-91385067D01*
X158559714Y-90758859D01*
X158566686Y-90753243D01*
X158574848Y-90753829D01*
G37*
%TD.AperFunction*%
%TD*%
%TA.AperFunction,Conductor*%
%TO.N,GND*%
G36*
X172087422Y-89453427D02*
G01*
X172090847Y-89461489D01*
X172090858Y-89462135D01*
X172090859Y-89462151D01*
X172099715Y-89537453D01*
X172099715Y-89537456D01*
X172099716Y-89537457D01*
X172121192Y-89622655D01*
X172193353Y-89792206D01*
X172288131Y-89931088D01*
X172392564Y-90028305D01*
X172501586Y-90085346D01*
X172593298Y-90101125D01*
X172600870Y-90105905D01*
X172602845Y-90114640D01*
X172599562Y-90120954D01*
X171973893Y-90742800D01*
X171965609Y-90746202D01*
X171957397Y-90742800D01*
X171692864Y-90479884D01*
X171332589Y-90121811D01*
X171329138Y-90113550D01*
X171332540Y-90105266D01*
X171339339Y-90101910D01*
X171400747Y-90093981D01*
X171464654Y-90071417D01*
X171524179Y-90038310D01*
X171588455Y-89987902D01*
X171646118Y-89927599D01*
X171704568Y-89848288D01*
X171753206Y-89763080D01*
X171792993Y-89672305D01*
X171821101Y-89584123D01*
X171839186Y-89460013D01*
X171843770Y-89452320D01*
X171850764Y-89450000D01*
X172079149Y-89450000D01*
X172087422Y-89453427D01*
G37*
%TD.AperFunction*%
%TD*%
%TA.AperFunction,Conductor*%
%TO.N,/ARCHITECTURE/5. COMPARATOR/EN_OK*%
G36*
X172689413Y-98331864D02*
G01*
X172691748Y-98335997D01*
X172695971Y-98349186D01*
X172695971Y-98349187D01*
X172725316Y-98409058D01*
X172765771Y-98464761D01*
X172765781Y-98464773D01*
X172827129Y-98526331D01*
X172827136Y-98526338D01*
X172899501Y-98581522D01*
X172899505Y-98581524D01*
X172899506Y-98581525D01*
X172996787Y-98639036D01*
X173065245Y-98670461D01*
X173100886Y-98686823D01*
X173169327Y-98710974D01*
X173214854Y-98727040D01*
X173214859Y-98727041D01*
X173214872Y-98727046D01*
X173324980Y-98755327D01*
X173480326Y-98773774D01*
X173488136Y-98778152D01*
X173490645Y-98785392D01*
X173490645Y-99014198D01*
X173487218Y-99022471D01*
X173479879Y-99025861D01*
X173414233Y-99031117D01*
X173414227Y-99031118D01*
X173326273Y-99049177D01*
X173190819Y-99098315D01*
X173139576Y-99116904D01*
X173139574Y-99116904D01*
X173139574Y-99116905D01*
X172982425Y-99208881D01*
X172869383Y-99310971D01*
X172869382Y-99310972D01*
X172799138Y-99417033D01*
X172772025Y-99510851D01*
X172766436Y-99517848D01*
X172757537Y-99518843D01*
X172753958Y-99517105D01*
X171976620Y-98958605D01*
X171971901Y-98950994D01*
X171973945Y-98942276D01*
X171975740Y-98940300D01*
X172672906Y-98330756D01*
X172681388Y-98327891D01*
X172689413Y-98331864D01*
G37*
%TD.AperFunction*%
%TD*%
%TA.AperFunction,Conductor*%
%TO.N,Net-(D201-A)*%
G36*
X135858684Y-81169685D02*
G01*
X135904439Y-81222489D01*
X135915645Y-81274000D01*
X135915645Y-83900000D01*
X136792275Y-85117541D01*
X136815472Y-85183448D01*
X136815645Y-85189995D01*
X136815645Y-86147462D01*
X136815540Y-86152554D01*
X136665645Y-89799990D01*
X136665645Y-91499963D01*
X136714095Y-95424469D01*
X136695239Y-95491747D01*
X136643004Y-95538150D01*
X136590104Y-95550000D01*
X135489645Y-95550000D01*
X135422606Y-95530315D01*
X135376851Y-95477511D01*
X135365645Y-95426000D01*
X135365645Y-89807613D01*
X135366577Y-89792440D01*
X135815645Y-86150003D01*
X135815645Y-85150000D01*
X135815644Y-85149999D01*
X134698390Y-83935592D01*
X134667487Y-83872928D01*
X134665645Y-83851637D01*
X134665645Y-81274000D01*
X134685330Y-81206961D01*
X134738134Y-81161206D01*
X134789645Y-81150000D01*
X135791645Y-81150000D01*
X135858684Y-81169685D01*
G37*
%TD.AperFunction*%
%TD*%
%TA.AperFunction,Conductor*%
%TO.N,VREF_2V5*%
G36*
X163284739Y-83969995D02*
G01*
X163431038Y-84116294D01*
X163434465Y-84124567D01*
X163431038Y-84132840D01*
X163429266Y-84134295D01*
X163405092Y-84150449D01*
X163360778Y-84216768D01*
X163360778Y-84216769D01*
X163351208Y-84264876D01*
X163349529Y-84268990D01*
X163308082Y-84332459D01*
X163308070Y-84332481D01*
X163251272Y-84439114D01*
X163251257Y-84439147D01*
X163157892Y-84679069D01*
X163100472Y-84929907D01*
X163082779Y-85157053D01*
X163078720Y-85165035D01*
X163070205Y-85167809D01*
X163067678Y-85167328D01*
X162688561Y-85050856D01*
X162681659Y-85045151D01*
X162680307Y-85039193D01*
X162684781Y-84929907D01*
X162710350Y-84305311D01*
X162714112Y-84297187D01*
X162721055Y-84294134D01*
X162799977Y-84287488D01*
X162884375Y-84257558D01*
X162970282Y-84211509D01*
X163144287Y-84083911D01*
X163268548Y-83969654D01*
X163276956Y-83966578D01*
X163284739Y-83969995D01*
G37*
%TD.AperFunction*%
%TD*%
%TA.AperFunction,Conductor*%
%TO.N,GND*%
G36*
X166108600Y-84784893D02*
G01*
X166114279Y-84791817D01*
X166114548Y-84792886D01*
X166166174Y-85047677D01*
X166166174Y-85052323D01*
X166114508Y-85307311D01*
X166109506Y-85314739D01*
X166100718Y-85316455D01*
X166099826Y-85316238D01*
X165980869Y-85282240D01*
X165979117Y-85281583D01*
X165890745Y-85240149D01*
X165890741Y-85240147D01*
X165842010Y-85219640D01*
X165777266Y-85192395D01*
X165777262Y-85192394D01*
X165709679Y-85179675D01*
X165709677Y-85179674D01*
X165709673Y-85179674D01*
X165696532Y-85178981D01*
X165632013Y-85175583D01*
X165623932Y-85171725D01*
X165620929Y-85163899D01*
X165620929Y-84936062D01*
X165624356Y-84927789D01*
X165631972Y-84924380D01*
X165714307Y-84919762D01*
X165784402Y-84905604D01*
X165890740Y-84859853D01*
X165958499Y-84826933D01*
X165960206Y-84826264D01*
X166099690Y-84784011D01*
X166108600Y-84784893D01*
G37*
%TD.AperFunction*%
%TD*%
%TA.AperFunction,Conductor*%
%TO.N,/ARCHITECTURE/5. COMPARATOR/17V_OK*%
G36*
X162408684Y-76769685D02*
G01*
X162454439Y-76822489D01*
X162465645Y-76874000D01*
X162465645Y-78150000D01*
X163095612Y-79119180D01*
X163115643Y-79186117D01*
X163115645Y-79186759D01*
X163115645Y-80776000D01*
X163095960Y-80843039D01*
X163043156Y-80888794D01*
X162991645Y-80900000D01*
X162389645Y-80900000D01*
X162322606Y-80880315D01*
X162276851Y-80827511D01*
X162265645Y-80776000D01*
X162265645Y-79150001D01*
X162265645Y-79150000D01*
X160665645Y-78150000D01*
X157789645Y-78150000D01*
X157722606Y-78130315D01*
X157676851Y-78077511D01*
X157665645Y-78026000D01*
X157665645Y-76874000D01*
X157685330Y-76806961D01*
X157738134Y-76761206D01*
X157789645Y-76750000D01*
X162341645Y-76750000D01*
X162408684Y-76769685D01*
G37*
%TD.AperFunction*%
%TD*%
%TA.AperFunction,Conductor*%
%TO.N,Net-(U501B--)*%
G36*
X164870684Y-76819685D02*
G01*
X164902845Y-76849600D01*
X165015644Y-77000000D01*
X165015645Y-77000000D01*
X166541645Y-77000000D01*
X166608684Y-77019685D01*
X166654439Y-77072489D01*
X166665645Y-77124000D01*
X166665645Y-77826000D01*
X166645960Y-77893039D01*
X166593156Y-77938794D01*
X166541645Y-77950000D01*
X165015644Y-77950000D01*
X164865647Y-78099996D01*
X164365645Y-79150001D01*
X164365645Y-80734601D01*
X164358167Y-80760065D01*
X164354339Y-80786332D01*
X164347523Y-80796313D01*
X164345960Y-80801640D01*
X164335199Y-80815986D01*
X164333081Y-80818419D01*
X164323493Y-80828353D01*
X164299998Y-80856450D01*
X164299185Y-80857385D01*
X164270758Y-80875575D01*
X164242652Y-80894345D01*
X164241044Y-80894590D01*
X164240334Y-80895045D01*
X164238097Y-80895040D01*
X164205631Y-80900000D01*
X163689645Y-80900000D01*
X163622606Y-80880315D01*
X163576851Y-80827511D01*
X163565645Y-80776000D01*
X163565645Y-79150001D01*
X163077690Y-78125294D01*
X163065645Y-78071982D01*
X163065645Y-76924000D01*
X163085330Y-76856961D01*
X163138134Y-76811206D01*
X163189645Y-76800000D01*
X164803645Y-76800000D01*
X164870684Y-76819685D01*
G37*
%TD.AperFunction*%
%TD*%
%TA.AperFunction,Conductor*%
%TO.N,GND*%
G36*
X152816146Y-83887634D02*
G01*
X152818910Y-83893255D01*
X152824014Y-83920352D01*
X152843792Y-83967609D01*
X152888170Y-84034280D01*
X152947386Y-84098360D01*
X153043025Y-84178475D01*
X153070075Y-84196693D01*
X153146685Y-84248291D01*
X153323771Y-84338403D01*
X153329590Y-84345210D01*
X153328893Y-84354137D01*
X153326738Y-84357104D01*
X153166590Y-84517252D01*
X153158317Y-84520679D01*
X153154388Y-84520000D01*
X153151581Y-84518999D01*
X153151580Y-84518998D01*
X153151578Y-84518998D01*
X153131809Y-84514929D01*
X153101404Y-84508672D01*
X153046091Y-84507932D01*
X153043812Y-84507902D01*
X153043811Y-84507902D01*
X153043809Y-84507902D01*
X152926439Y-84534858D01*
X152926434Y-84534861D01*
X152823876Y-84594260D01*
X152823875Y-84594261D01*
X152745175Y-84680970D01*
X152745173Y-84680973D01*
X152702964Y-84774608D01*
X152696440Y-84780742D01*
X152687490Y-84780466D01*
X152682411Y-84776056D01*
X152512745Y-84507902D01*
X152370242Y-84282679D01*
X152368715Y-84273856D01*
X152372341Y-84267693D01*
X152799626Y-83886687D01*
X152808082Y-83883740D01*
X152816146Y-83887634D01*
G37*
%TD.AperFunction*%
%TD*%
%TA.AperFunction,Conductor*%
%TO.N,/ARCHITECTURE/2. POLARITY PROTECTION/VPROT*%
G36*
X180445960Y-83870063D02*
G01*
X180434521Y-83885183D01*
X179315645Y-85150000D01*
X179315645Y-86149995D01*
X179315646Y-86150015D01*
X179764687Y-89742336D01*
X179765645Y-89757716D01*
X179765645Y-91426000D01*
X179745960Y-91493039D01*
X179693156Y-91538794D01*
X179641645Y-91550000D01*
X178589645Y-91550000D01*
X178522606Y-91530315D01*
X178476851Y-91477511D01*
X178465645Y-91426000D01*
X178465645Y-89799990D01*
X178315750Y-86152554D01*
X178315645Y-86147462D01*
X178315645Y-85188734D01*
X178335330Y-85121695D01*
X178337676Y-85118176D01*
X179215645Y-83850000D01*
X180451851Y-83850000D01*
X180445960Y-83870063D01*
G37*
%TD.AperFunction*%
%TD*%
%TA.AperFunction,Conductor*%
%TO.N,GND*%
G36*
X153035694Y-84145434D02*
G01*
X153150730Y-84152096D01*
X153151984Y-84152236D01*
X153307443Y-84178297D01*
X153315036Y-84183044D01*
X153317048Y-84191770D01*
X153316992Y-84192078D01*
X153267098Y-84447674D01*
X153265324Y-84451961D01*
X153119921Y-84668158D01*
X153112460Y-84673111D01*
X153103683Y-84671338D01*
X153102948Y-84670801D01*
X153064795Y-84640583D01*
X153063409Y-84639289D01*
X153028412Y-84600862D01*
X153027194Y-84599271D01*
X152978072Y-84522168D01*
X152978036Y-84522111D01*
X152940700Y-84462757D01*
X152885689Y-84418298D01*
X152842104Y-84404788D01*
X152794943Y-84400889D01*
X152786980Y-84396792D01*
X152784207Y-84389229D01*
X152784207Y-84161503D01*
X152787634Y-84153230D01*
X152795705Y-84149805D01*
X152898188Y-84148056D01*
X152952345Y-84147132D01*
X152987793Y-84146395D01*
X153034803Y-84145418D01*
X153035694Y-84145434D01*
G37*
%TD.AperFunction*%
%TD*%
%TA.AperFunction,Conductor*%
%TO.N,/ARCHITECTURE/2. POLARITY PROTECTION/VPROT*%
G36*
X180408684Y-81219685D02*
G01*
X180454439Y-81272489D01*
X180465645Y-81324000D01*
X180465645Y-83803024D01*
X180458026Y-83828967D01*
X180454782Y-83850000D01*
X179215645Y-83850000D01*
X179215644Y-83849999D01*
X179215645Y-83849999D01*
X178815645Y-83450000D01*
X178689645Y-83450000D01*
X178622606Y-83430315D01*
X178576851Y-83377511D01*
X178565645Y-83326000D01*
X178565645Y-81774000D01*
X178585330Y-81706961D01*
X178638134Y-81661206D01*
X178689645Y-81650000D01*
X178865643Y-81650000D01*
X178865645Y-81650000D01*
X179178412Y-81247871D01*
X179235109Y-81207039D01*
X179276292Y-81200000D01*
X180341645Y-81200000D01*
X180408684Y-81219685D01*
G37*
%TD.AperFunction*%
%TD*%
%TA.AperFunction,Conductor*%
%TO.N,/ARCHITECTURE/1. INTERCONNECTS/VOUT*%
G36*
X178457918Y-69069685D02*
G01*
X178500542Y-69116121D01*
X180365645Y-72650000D01*
X174822901Y-72650000D01*
X174829356Y-72623319D01*
X176631048Y-69117323D01*
X176679197Y-69066694D01*
X176741337Y-69050000D01*
X178390879Y-69050000D01*
X178457918Y-69069685D01*
G37*
%TD.AperFunction*%
%TD*%
%TA.AperFunction,Conductor*%
%TO.N,/ARCHITECTURE/3. SENSING/VSENSE_17V*%
G36*
X144831171Y-75669685D02*
G01*
X144851992Y-75686499D01*
X145811496Y-76650000D01*
X147441645Y-76650000D01*
X147508684Y-76669685D01*
X147554439Y-76722489D01*
X147565645Y-76774000D01*
X147565645Y-78026000D01*
X147545960Y-78093039D01*
X147493156Y-78138794D01*
X147441645Y-78150000D01*
X145815644Y-78150000D01*
X144851964Y-79113681D01*
X144790641Y-79147166D01*
X144764283Y-79150000D01*
X142939645Y-79150000D01*
X142872606Y-79130315D01*
X142826851Y-79077511D01*
X142815645Y-79026000D01*
X142815645Y-75774000D01*
X142835330Y-75706961D01*
X142888134Y-75661206D01*
X142939645Y-75650000D01*
X144764132Y-75650000D01*
X144831171Y-75669685D01*
G37*
%TD.AperFunction*%
%TD*%
M02*
