%TF.GenerationSoftware,KiCad,Pcbnew,9.0.6+1*%
%TF.CreationDate,Date%
%TF.ProjectId,Input-Protection,496e7075-742d-4507-926f-74656374696f,+ (Unreleased)*%
%TF.SameCoordinates,Original*%
%TF.FileFunction,Copper,L1,Top*%
%TF.FilePolarity,Positive*%
%FSLAX46Y46*%
G04 Gerber Fmt 4.6, Leading zero omitted, Abs format (unit mm)*
G04 Created by KiCad*
%MOMM*%
%LPD*%
G01*
G04 APERTURE LIST*
G04 Aperture macros list*
%AMRoundRect*
0 Rectangle with rounded corners*
0 $1 Rounding radius*
0 $2 $3 $4 $5 $6 $7 $8 $9 X,Y pos of 4 corners*
0 Add a 4 corners polygon primitive as box body*
4,1,4,$2,$3,$4,$5,$6,$7,$8,$9,$2,$3,0*
0 Add four circle primitives for the rounded corners*
1,1,$1+$1,$2,$3*
1,1,$1+$1,$4,$5*
1,1,$1+$1,$6,$7*
1,1,$1+$1,$8,$9*
0 Add four rect primitives between the rounded corners*
20,1,$1+$1,$2,$3,$4,$5,0*
20,1,$1+$1,$4,$5,$6,$7,0*
20,1,$1+$1,$6,$7,$8,$9,0*
20,1,$1+$1,$8,$9,$2,$3,0*%
G04 Aperture macros list end*
%TA.AperFunction,NonConductor*%
%ADD10C,0.000000*%
%TD*%
%ADD11C,0.300000*%
%TA.AperFunction,NonConductor*%
%ADD12C,0.300000*%
%TD*%
%ADD13C,0.250000*%
%TA.AperFunction,NonConductor*%
%ADD14C,0.250000*%
%TD*%
%TA.AperFunction,EtchedComponent*%
%ADD15C,0.200000*%
%TD*%
%TA.AperFunction,SMDPad,CuDef*%
%ADD16RoundRect,0.250000X0.625000X-0.400000X0.625000X0.400000X-0.625000X0.400000X-0.625000X-0.400000X0*%
%TD*%
%TA.AperFunction,SMDPad,CuDef*%
%ADD17RoundRect,0.250000X-0.625000X0.400000X-0.625000X-0.400000X0.625000X-0.400000X0.625000X0.400000X0*%
%TD*%
%TA.AperFunction,SMDPad,CuDef*%
%ADD18R,0.914400X2.413000*%
%TD*%
%TA.AperFunction,SMDPad,CuDef*%
%ADD19R,5.511800X6.070600*%
%TD*%
%TA.AperFunction,SMDPad,CuDef*%
%ADD20RoundRect,0.150000X-0.587500X-0.150000X0.587500X-0.150000X0.587500X0.150000X-0.587500X0.150000X0*%
%TD*%
%TA.AperFunction,ComponentPad*%
%ADD21R,2.000000X2.000000*%
%TD*%
%TA.AperFunction,SMDPad,CuDef*%
%ADD22C,1.500000*%
%TD*%
%TA.AperFunction,SMDPad,CuDef*%
%ADD23RoundRect,0.237500X-0.300000X-0.237500X0.300000X-0.237500X0.300000X0.237500X-0.300000X0.237500X0*%
%TD*%
%TA.AperFunction,SMDPad,CuDef*%
%ADD24C,1.000000*%
%TD*%
%TA.AperFunction,SMDPad,CuDef*%
%ADD25C,0.500000*%
%TD*%
%TA.AperFunction,ComponentPad*%
%ADD26R,2.000000X4.500000*%
%TD*%
%TA.AperFunction,ComponentPad*%
%ADD27O,2.000000X4.000000*%
%TD*%
%TA.AperFunction,ComponentPad*%
%ADD28O,4.000000X2.000000*%
%TD*%
%TA.AperFunction,SMDPad,CuDef*%
%ADD29RoundRect,0.250000X-0.400000X-0.625000X0.400000X-0.625000X0.400000X0.625000X-0.400000X0.625000X0*%
%TD*%
%TA.AperFunction,ComponentPad*%
%ADD30C,5.700000*%
%TD*%
%TA.AperFunction,SMDPad,CuDef*%
%ADD31R,0.802000X1.505000*%
%TD*%
%TA.AperFunction,ComponentPad*%
%ADD32RoundRect,0.250000X-0.750000X0.750000X-0.750000X-0.750000X0.750000X-0.750000X0.750000X0.750000X0*%
%TD*%
%TA.AperFunction,ComponentPad*%
%ADD33C,2.000000*%
%TD*%
%TA.AperFunction,ComponentPad*%
%ADD34RoundRect,0.250000X0.750000X-0.750000X0.750000X0.750000X-0.750000X0.750000X-0.750000X-0.750000X0*%
%TD*%
%TA.AperFunction,SMDPad,CuDef*%
%ADD35RoundRect,0.250000X0.250000X0.250000X-0.250000X0.250000X-0.250000X-0.250000X0.250000X-0.250000X0*%
%TD*%
%TA.AperFunction,SMDPad,CuDef*%
%ADD36RoundRect,0.112500X0.112500X-0.187500X0.112500X0.187500X-0.112500X0.187500X-0.112500X-0.187500X0*%
%TD*%
%TA.AperFunction,SMDPad,CuDef*%
%ADD37RoundRect,0.112500X-0.112500X0.187500X-0.112500X-0.187500X0.112500X-0.187500X0.112500X0.187500X0*%
%TD*%
%TA.AperFunction,SMDPad,CuDef*%
%ADD38RoundRect,0.237500X0.237500X-0.300000X0.237500X0.300000X-0.237500X0.300000X-0.237500X-0.300000X0*%
%TD*%
%TA.AperFunction,SMDPad,CuDef*%
%ADD39RoundRect,0.237500X-0.237500X0.300000X-0.237500X-0.300000X0.237500X-0.300000X0.237500X0.300000X0*%
%TD*%
%TA.AperFunction,SMDPad,CuDef*%
%ADD40RoundRect,0.250000X0.400000X0.625000X-0.400000X0.625000X-0.400000X-0.625000X0.400000X-0.625000X0*%
%TD*%
%TA.AperFunction,ViaPad*%
%ADD41C,0.550000*%
%TD*%
%TA.AperFunction,Conductor*%
%ADD42C,0.250000*%
%TD*%
%TA.AperFunction,Conductor*%
%ADD43C,0.200000*%
%TD*%
G04 APERTURE END LIST*
D10*
%TA.AperFunction,NonConductor*%
G36*
X131806908Y-62549910D02*
G01*
X132043162Y-62577179D01*
X132273720Y-62621796D01*
X132497904Y-62683082D01*
X132715034Y-62760356D01*
X132924428Y-62852938D01*
X133125408Y-62960149D01*
X133317293Y-63081308D01*
X133499404Y-63215735D01*
X133671060Y-63362752D01*
X133831581Y-63521677D01*
X133980288Y-63691830D01*
X134116500Y-63872533D01*
X134239538Y-64063104D01*
X134348721Y-64262865D01*
X134443370Y-64471134D01*
X135170260Y-63561191D01*
X134949120Y-63631731D01*
X134943675Y-63633317D01*
X134938215Y-63634612D01*
X134932748Y-63635619D01*
X134927283Y-63636344D01*
X134921829Y-63636791D01*
X134916395Y-63636965D01*
X134910988Y-63636869D01*
X134905619Y-63636508D01*
X134900296Y-63635888D01*
X134895027Y-63635012D01*
X134889821Y-63633885D01*
X134884688Y-63632511D01*
X134879635Y-63630895D01*
X134874671Y-63629042D01*
X134869806Y-63626956D01*
X134865048Y-63624641D01*
X134860405Y-63622102D01*
X134855887Y-63619344D01*
X134851502Y-63616371D01*
X134847259Y-63613187D01*
X134843167Y-63609797D01*
X134839234Y-63606206D01*
X134835469Y-63602418D01*
X134831881Y-63598438D01*
X134828479Y-63594269D01*
X134825270Y-63589917D01*
X134822265Y-63585387D01*
X134819472Y-63580681D01*
X134816900Y-63575806D01*
X134814556Y-63570766D01*
X134812451Y-63565565D01*
X134810593Y-63560207D01*
X134809006Y-63554762D01*
X134807711Y-63549302D01*
X134806703Y-63543835D01*
X134805978Y-63538370D01*
X134805531Y-63532916D01*
X134805358Y-63527481D01*
X134805454Y-63522075D01*
X134805814Y-63516706D01*
X134806435Y-63511383D01*
X134807311Y-63506114D01*
X134808438Y-63500908D01*
X134809811Y-63495775D01*
X134811427Y-63490722D01*
X134813280Y-63485758D01*
X134815367Y-63480893D01*
X134817681Y-63476135D01*
X134820220Y-63471492D01*
X134822978Y-63466974D01*
X134825952Y-63462589D01*
X134829135Y-63458346D01*
X134832525Y-63454254D01*
X134836116Y-63450321D01*
X134839904Y-63446556D01*
X134843885Y-63442968D01*
X134848053Y-63439566D01*
X134852405Y-63436357D01*
X134856936Y-63433352D01*
X134861641Y-63430559D01*
X134866516Y-63427987D01*
X134871557Y-63425643D01*
X134876758Y-63423538D01*
X134882116Y-63421680D01*
X135607706Y-63190250D01*
X135542253Y-63949024D01*
X135541624Y-63954660D01*
X135540719Y-63960198D01*
X135539547Y-63965632D01*
X135538115Y-63970955D01*
X135536430Y-63976161D01*
X135534500Y-63981244D01*
X135532332Y-63986197D01*
X135529935Y-63991014D01*
X135527315Y-63995689D01*
X135524480Y-64000216D01*
X135521437Y-64004587D01*
X135518195Y-64008797D01*
X135514760Y-64012839D01*
X135511140Y-64016708D01*
X135507343Y-64020396D01*
X135503377Y-64023898D01*
X135499248Y-64027206D01*
X135494964Y-64030316D01*
X135490533Y-64033220D01*
X135485962Y-64035912D01*
X135481259Y-64038385D01*
X135476431Y-64040634D01*
X135471486Y-64042653D01*
X135466431Y-64044434D01*
X135461275Y-64045971D01*
X135456024Y-64047258D01*
X135450685Y-64048290D01*
X135445268Y-64049058D01*
X135439778Y-64049558D01*
X135434223Y-64049783D01*
X135428612Y-64049726D01*
X135422951Y-64049381D01*
X135417316Y-64048751D01*
X135411778Y-64047847D01*
X135406344Y-64046675D01*
X135401021Y-64045242D01*
X135395815Y-64043557D01*
X135390732Y-64041628D01*
X135385779Y-64039460D01*
X135380962Y-64037063D01*
X135376287Y-64034443D01*
X135371761Y-64031608D01*
X135367389Y-64028565D01*
X135363179Y-64025323D01*
X135359136Y-64021888D01*
X135355268Y-64018269D01*
X135351579Y-64014472D01*
X135348077Y-64010505D01*
X135344768Y-64006376D01*
X135341658Y-64002092D01*
X135338754Y-63997661D01*
X135336062Y-63993090D01*
X135333587Y-63988387D01*
X135331338Y-63983560D01*
X135329319Y-63978615D01*
X135327537Y-63973560D01*
X135325999Y-63968404D01*
X135324710Y-63963153D01*
X135323678Y-63957815D01*
X135322908Y-63952397D01*
X135322407Y-63946907D01*
X135322181Y-63941353D01*
X135322237Y-63935742D01*
X135322580Y-63930081D01*
X135342524Y-63698818D01*
X134531436Y-64714153D01*
X134564378Y-64825804D01*
X134593206Y-64939152D01*
X134617835Y-65054108D01*
X134638179Y-65170588D01*
X134654152Y-65288504D01*
X134665668Y-65407771D01*
X134672641Y-65528302D01*
X134674984Y-65650010D01*
X134673080Y-65759731D01*
X134667410Y-65868501D01*
X134658038Y-65976260D01*
X134645027Y-66082942D01*
X134628439Y-66188485D01*
X134608339Y-66292827D01*
X134584788Y-66395903D01*
X134557851Y-66497651D01*
X134896958Y-66497651D01*
X134901442Y-66485721D01*
X134906368Y-66474015D01*
X134911726Y-66462541D01*
X134917504Y-66451311D01*
X134923694Y-66440334D01*
X134930284Y-66429622D01*
X134937265Y-66419183D01*
X134944626Y-66409029D01*
X134952357Y-66399169D01*
X134960448Y-66389614D01*
X134968889Y-66380374D01*
X134977669Y-66371459D01*
X134986779Y-66362880D01*
X134996207Y-66354645D01*
X135005945Y-66346767D01*
X135015981Y-66339255D01*
X135026305Y-66332119D01*
X135036908Y-66325369D01*
X135047778Y-66319016D01*
X135058907Y-66313069D01*
X135070282Y-66307540D01*
X135081896Y-66302438D01*
X135093736Y-66297773D01*
X135105793Y-66293556D01*
X135118057Y-66289797D01*
X135130517Y-66286506D01*
X135143164Y-66283693D01*
X135155987Y-66281369D01*
X135168975Y-66279544D01*
X135182119Y-66278227D01*
X135195409Y-66277430D01*
X135208833Y-66277162D01*
X135225842Y-66277592D01*
X135242628Y-66278871D01*
X135259172Y-66280976D01*
X135275452Y-66283886D01*
X135291447Y-66287582D01*
X135307137Y-66292042D01*
X135322501Y-66297245D01*
X135337517Y-66303170D01*
X135352166Y-66309797D01*
X135366425Y-66317105D01*
X135380275Y-66325072D01*
X135393695Y-66333679D01*
X135406663Y-66342903D01*
X135419159Y-66352726D01*
X135431162Y-66363124D01*
X135442651Y-66374078D01*
X135453605Y-66385567D01*
X135464003Y-66397570D01*
X135473825Y-66410066D01*
X135483050Y-66423034D01*
X135491657Y-66436454D01*
X135499624Y-66450304D01*
X135506932Y-66464563D01*
X135513559Y-66479212D01*
X135519485Y-66494228D01*
X135524688Y-66509592D01*
X135529147Y-66525282D01*
X135532843Y-66541277D01*
X135535754Y-66557557D01*
X135537859Y-66574101D01*
X135539137Y-66590888D01*
X135539567Y-66607896D01*
X135539137Y-66624903D01*
X135537859Y-66641689D01*
X135535754Y-66658231D01*
X135532843Y-66674510D01*
X135529147Y-66690504D01*
X135524688Y-66706193D01*
X135519485Y-66721556D01*
X135513559Y-66736571D01*
X135506932Y-66751219D01*
X135499624Y-66765478D01*
X135491657Y-66779327D01*
X135483050Y-66792746D01*
X135473825Y-66805714D01*
X135464003Y-66818209D01*
X135453605Y-66830212D01*
X135442651Y-66841700D01*
X135431162Y-66852654D01*
X135419159Y-66863052D01*
X135406663Y-66872874D01*
X135393695Y-66882099D01*
X135380275Y-66890705D01*
X135366425Y-66898672D01*
X135352166Y-66905980D01*
X135337517Y-66912607D01*
X135322501Y-66918532D01*
X135307137Y-66923735D01*
X135291447Y-66928195D01*
X135275452Y-66931891D01*
X135259172Y-66934801D01*
X135242628Y-66936906D01*
X135225842Y-66938184D01*
X135208833Y-66938615D01*
X135195409Y-66938347D01*
X135182119Y-66937549D01*
X135155987Y-66934407D01*
X135130517Y-66929270D01*
X135105793Y-66922220D01*
X135081896Y-66913339D01*
X135058907Y-66902707D01*
X135036908Y-66890408D01*
X135015981Y-66876522D01*
X134996207Y-66861131D01*
X134977669Y-66844317D01*
X134960448Y-66826162D01*
X134944626Y-66806747D01*
X134930284Y-66786154D01*
X134917504Y-66764465D01*
X134906368Y-66741761D01*
X134896958Y-66718125D01*
X134486360Y-66718125D01*
X134443423Y-66828733D01*
X134396433Y-66937256D01*
X134345482Y-67043600D01*
X134290665Y-67147671D01*
X134232075Y-67249376D01*
X134169806Y-67348621D01*
X134103951Y-67445313D01*
X134034603Y-67539358D01*
X133961857Y-67630663D01*
X133885805Y-67719134D01*
X133806541Y-67804678D01*
X133724159Y-67887202D01*
X133638751Y-67966611D01*
X133550413Y-68042813D01*
X133459236Y-68115713D01*
X133365315Y-68185219D01*
X133268743Y-68251237D01*
X133169614Y-68313673D01*
X133068021Y-68372434D01*
X132964057Y-68427426D01*
X132857817Y-68478557D01*
X132749393Y-68525731D01*
X132638879Y-68568857D01*
X132526369Y-68607840D01*
X132411956Y-68642587D01*
X132295734Y-68673004D01*
X132177796Y-68698998D01*
X132058235Y-68720476D01*
X131937146Y-68737343D01*
X131814621Y-68749507D01*
X131690755Y-68756874D01*
X131565640Y-68759351D01*
X131418016Y-68755901D01*
X131272157Y-68745654D01*
X131128216Y-68728765D01*
X130986348Y-68705386D01*
X130846707Y-68675672D01*
X130709447Y-68639777D01*
X130574721Y-68597856D01*
X130442684Y-68550061D01*
X130313490Y-68496547D01*
X130187292Y-68437468D01*
X130064244Y-68372978D01*
X129944502Y-68303231D01*
X129828218Y-68228382D01*
X129715546Y-68148583D01*
X129606641Y-68063988D01*
X129501656Y-67974753D01*
X129400746Y-67881031D01*
X129304065Y-67782976D01*
X129211766Y-67680741D01*
X129124003Y-67574482D01*
X129040931Y-67464351D01*
X128962703Y-67350504D01*
X128889474Y-67233093D01*
X128821396Y-67112273D01*
X128758626Y-66988198D01*
X128701316Y-66861021D01*
X128649620Y-66730898D01*
X128603692Y-66597981D01*
X128563687Y-66462425D01*
X128529758Y-66324384D01*
X128502059Y-66184012D01*
X128480744Y-66041463D01*
X128703136Y-66041463D01*
X128724029Y-66172642D01*
X128750749Y-66301795D01*
X128783154Y-66428783D01*
X128821105Y-66553465D01*
X128864461Y-66675701D01*
X128913082Y-66795351D01*
X128966828Y-66912274D01*
X129025558Y-67026331D01*
X129089132Y-67137380D01*
X129157410Y-67245281D01*
X129230252Y-67349895D01*
X129307517Y-67451081D01*
X129389064Y-67548699D01*
X129474755Y-67642608D01*
X129564447Y-67732668D01*
X129658002Y-67818739D01*
X129755279Y-67900680D01*
X129856137Y-67978351D01*
X129960436Y-68051613D01*
X130068036Y-68120324D01*
X130178797Y-68184344D01*
X130292578Y-68243533D01*
X130409238Y-68297751D01*
X130528639Y-68346858D01*
X130650639Y-68390713D01*
X130775099Y-68429175D01*
X130901877Y-68462106D01*
X131030833Y-68489363D01*
X131161828Y-68510807D01*
X131294721Y-68526299D01*
X131429372Y-68535696D01*
X131565640Y-68538860D01*
X131791705Y-68530127D01*
X132013025Y-68504362D01*
X132228951Y-68462212D01*
X132438836Y-68404325D01*
X132642031Y-68331350D01*
X132837888Y-68243934D01*
X133025759Y-68142725D01*
X133204996Y-68028372D01*
X133374951Y-67901523D01*
X133534976Y-67762826D01*
X133684423Y-67612929D01*
X133822642Y-67452480D01*
X133948988Y-67282126D01*
X134062810Y-67102518D01*
X134163462Y-66914301D01*
X134250295Y-66718125D01*
X133034513Y-66718125D01*
X133034513Y-67846956D01*
X133034134Y-67858164D01*
X133033009Y-67869230D01*
X133031157Y-67880123D01*
X133028595Y-67890810D01*
X133025344Y-67901261D01*
X133021420Y-67911443D01*
X133016843Y-67921326D01*
X133011632Y-67930878D01*
X133005804Y-67940067D01*
X132999379Y-67948862D01*
X132992374Y-67957231D01*
X132984810Y-67965142D01*
X132976703Y-67972566D01*
X132968072Y-67979468D01*
X132958937Y-67985820D01*
X132949315Y-67991587D01*
X132939326Y-67996689D01*
X132929100Y-68001069D01*
X132918673Y-68004729D01*
X132908082Y-68007670D01*
X132897364Y-68009892D01*
X132886555Y-68011396D01*
X132875691Y-68012184D01*
X132864810Y-68012256D01*
X132853948Y-68011614D01*
X132843140Y-68010257D01*
X132832425Y-68008188D01*
X132821838Y-68005408D01*
X132811416Y-68001916D01*
X132801195Y-67997714D01*
X132791213Y-67992804D01*
X132781505Y-67987185D01*
X130799128Y-66748208D01*
X130798976Y-66748125D01*
X130574086Y-66607880D01*
X131198634Y-66607880D01*
X132703778Y-67548590D01*
X132703778Y-66607896D01*
X135098586Y-66607896D01*
X135098730Y-66613565D01*
X135099156Y-66619159D01*
X135099857Y-66624673D01*
X135100827Y-66630099D01*
X135102059Y-66635430D01*
X135103546Y-66640659D01*
X135105280Y-66645779D01*
X135107255Y-66650784D01*
X135109464Y-66655666D01*
X135111900Y-66660418D01*
X135114555Y-66665034D01*
X135117424Y-66669507D01*
X135120499Y-66673829D01*
X135123773Y-66677994D01*
X135127239Y-66681994D01*
X135130890Y-66685823D01*
X135134720Y-66689474D01*
X135138721Y-66692940D01*
X135142886Y-66696213D01*
X135147209Y-66699288D01*
X135151682Y-66702156D01*
X135156299Y-66704812D01*
X135161052Y-66707248D01*
X135165935Y-66709456D01*
X135170941Y-66711431D01*
X135176062Y-66713165D01*
X135181293Y-66714652D01*
X135186625Y-66715883D01*
X135192052Y-66716854D01*
X135197567Y-66717555D01*
X135203163Y-66717981D01*
X135208833Y-66718125D01*
X135214503Y-66717981D01*
X135220099Y-66717555D01*
X135225614Y-66716854D01*
X135231041Y-66715883D01*
X135236373Y-66714652D01*
X135241603Y-66713165D01*
X135246725Y-66711431D01*
X135251730Y-66709456D01*
X135256613Y-66707248D01*
X135261366Y-66704812D01*
X135265983Y-66702156D01*
X135270456Y-66699288D01*
X135274779Y-66696213D01*
X135278944Y-66692940D01*
X135282945Y-66689474D01*
X135286774Y-66685823D01*
X135290425Y-66681994D01*
X135293891Y-66677994D01*
X135297165Y-66673829D01*
X135300240Y-66669507D01*
X135303109Y-66665034D01*
X135305764Y-66660418D01*
X135308200Y-66655666D01*
X135310409Y-66650784D01*
X135312384Y-66645779D01*
X135314118Y-66640659D01*
X135315604Y-66635430D01*
X135316836Y-66630099D01*
X135317806Y-66624673D01*
X135318508Y-66619159D01*
X135318934Y-66613565D01*
X135319077Y-66607896D01*
X135318934Y-66602226D01*
X135318508Y-66596630D01*
X135317806Y-66591115D01*
X135316836Y-66585689D01*
X135315604Y-66580356D01*
X135314118Y-66575126D01*
X135312384Y-66570005D01*
X135310409Y-66564999D01*
X135308200Y-66560116D01*
X135305764Y-66555363D01*
X135303109Y-66550746D01*
X135300240Y-66546273D01*
X135297165Y-66541950D01*
X135293891Y-66537785D01*
X135290425Y-66533784D01*
X135286774Y-66529955D01*
X135282945Y-66526304D01*
X135278944Y-66522838D01*
X135274779Y-66519564D01*
X135270456Y-66516489D01*
X135265983Y-66513620D01*
X135261366Y-66510965D01*
X135256613Y-66508529D01*
X135251730Y-66506320D01*
X135246725Y-66504345D01*
X135241603Y-66502611D01*
X135236373Y-66501124D01*
X135231041Y-66499892D01*
X135225614Y-66498922D01*
X135220099Y-66498221D01*
X135214503Y-66497795D01*
X135208833Y-66497651D01*
X135203163Y-66497795D01*
X135197567Y-66498221D01*
X135192052Y-66498922D01*
X135186625Y-66499892D01*
X135181293Y-66501124D01*
X135176062Y-66502611D01*
X135170941Y-66504345D01*
X135165935Y-66506320D01*
X135161052Y-66508529D01*
X135156299Y-66510965D01*
X135151682Y-66513620D01*
X135147209Y-66516489D01*
X135142886Y-66519564D01*
X135138721Y-66522838D01*
X135134720Y-66526304D01*
X135130890Y-66529955D01*
X135127239Y-66533784D01*
X135123773Y-66537785D01*
X135120499Y-66541950D01*
X135117424Y-66546273D01*
X135114555Y-66550746D01*
X135111900Y-66555363D01*
X135109464Y-66560116D01*
X135107255Y-66564999D01*
X135105280Y-66570005D01*
X135103546Y-66575126D01*
X135102059Y-66580356D01*
X135100827Y-66585689D01*
X135099857Y-66591115D01*
X135099156Y-66596630D01*
X135098730Y-66602226D01*
X135098586Y-66607896D01*
X132703778Y-66607896D01*
X132703778Y-66497651D01*
X133034513Y-66497651D01*
X134327940Y-66497651D01*
X134357000Y-66396351D01*
X134382425Y-66293573D01*
X134404139Y-66189392D01*
X134422071Y-66083880D01*
X134436145Y-65977113D01*
X134446289Y-65869163D01*
X134452430Y-65760104D01*
X134454493Y-65650010D01*
X134452428Y-65539873D01*
X134446283Y-65430773D01*
X134436131Y-65322784D01*
X134422045Y-65215980D01*
X134404100Y-65110434D01*
X134382368Y-65006220D01*
X134356923Y-64903413D01*
X134327839Y-64802085D01*
X133036547Y-64802269D01*
X133035531Y-65369086D01*
X133035509Y-65371378D01*
X133035456Y-65373663D01*
X133035373Y-65375941D01*
X133035259Y-65378210D01*
X133035116Y-65380471D01*
X133034944Y-65382723D01*
X133034743Y-65384965D01*
X133034513Y-65387197D01*
X133034513Y-66497651D01*
X132703778Y-66497651D01*
X132703778Y-65667153D01*
X131198634Y-66607880D01*
X130574086Y-66607880D01*
X130425434Y-66515178D01*
X130423016Y-67847257D01*
X130422785Y-67855761D01*
X130422131Y-67864153D01*
X130421063Y-67872423D01*
X130419593Y-67880560D01*
X130417731Y-67888554D01*
X130415487Y-67896395D01*
X130412872Y-67904072D01*
X130409896Y-67911575D01*
X130406570Y-67918893D01*
X130402903Y-67926016D01*
X130398907Y-67932933D01*
X130394592Y-67939635D01*
X130389968Y-67946110D01*
X130385046Y-67952349D01*
X130379836Y-67958341D01*
X130374349Y-67964075D01*
X130368595Y-67969541D01*
X130362585Y-67974729D01*
X130356328Y-67979628D01*
X130349836Y-67984229D01*
X130343119Y-67988519D01*
X130336187Y-67992490D01*
X130329051Y-67996131D01*
X130321721Y-67999431D01*
X130314208Y-68002380D01*
X130306521Y-68004967D01*
X130298673Y-68007182D01*
X130290672Y-68009015D01*
X130282529Y-68010456D01*
X130274256Y-68011493D01*
X130265861Y-68012117D01*
X130257357Y-68012316D01*
X130248853Y-68012086D01*
X130240461Y-68011431D01*
X130232191Y-68010364D01*
X130224054Y-68008894D01*
X130216059Y-68007032D01*
X130208219Y-68004788D01*
X130200542Y-68002173D01*
X130193039Y-67999196D01*
X130185721Y-67995870D01*
X130178598Y-67992203D01*
X130171681Y-67988207D01*
X130164979Y-67983892D01*
X130158504Y-67979269D01*
X130152265Y-67974347D01*
X130146273Y-67969137D01*
X130140539Y-67963650D01*
X130135073Y-67957896D01*
X130129885Y-67951885D01*
X130124986Y-67945629D01*
X130120385Y-67939136D01*
X130116095Y-67932419D01*
X130112124Y-67925487D01*
X130108483Y-67918351D01*
X130105183Y-67911021D01*
X130102235Y-67903508D01*
X130099647Y-67895821D01*
X130097432Y-67887973D01*
X130095599Y-67879972D01*
X130094159Y-67871829D01*
X130093122Y-67863556D01*
X130092498Y-67855161D01*
X130092298Y-67846656D01*
X130095398Y-66125861D01*
X130426135Y-66125861D01*
X130886526Y-66412937D01*
X132527692Y-65387197D01*
X132704962Y-65276401D01*
X132705812Y-64802319D01*
X132367206Y-64802352D01*
X132365260Y-64804491D01*
X132363275Y-64806597D01*
X132361251Y-64808670D01*
X132359189Y-64810710D01*
X132357089Y-64812716D01*
X132354951Y-64814687D01*
X132352775Y-64816622D01*
X132350563Y-64818522D01*
X132348314Y-64820385D01*
X132346028Y-64822211D01*
X132343706Y-64823999D01*
X132341349Y-64825749D01*
X132338956Y-64827460D01*
X132336528Y-64829131D01*
X132334066Y-64830762D01*
X132331569Y-64832352D01*
X130426318Y-66023152D01*
X130426135Y-66125861D01*
X130095398Y-66125861D01*
X130095550Y-66041463D01*
X128703136Y-66041463D01*
X128480744Y-66041463D01*
X128036346Y-66041463D01*
X128036346Y-66261953D01*
X127374875Y-66261953D01*
X127374875Y-66041463D01*
X127374875Y-65820989D01*
X127595365Y-65820989D01*
X127595365Y-66041463D01*
X127815855Y-66041463D01*
X127815855Y-65931234D01*
X127815855Y-65820989D01*
X127595365Y-65820989D01*
X127374875Y-65820989D01*
X127374875Y-65600499D01*
X128036346Y-65600499D01*
X128036346Y-65820989D01*
X128460933Y-65820989D01*
X128458907Y-65778456D01*
X128457458Y-65735781D01*
X128456588Y-65692965D01*
X128456297Y-65650010D01*
X128676788Y-65650010D01*
X128677100Y-65692984D01*
X128678036Y-65735806D01*
X128679595Y-65778475D01*
X128681774Y-65820989D01*
X130096033Y-65820989D01*
X130096033Y-65632867D01*
X130096033Y-63751431D01*
X130426769Y-63751431D01*
X130426769Y-65632867D01*
X131931913Y-64692141D01*
X130426769Y-63751431D01*
X130096033Y-63751431D01*
X130096033Y-63453063D01*
X130096413Y-63441855D01*
X130097538Y-63430789D01*
X130099390Y-63419897D01*
X130101952Y-63409209D01*
X130105203Y-63398759D01*
X130109127Y-63388576D01*
X130113704Y-63378693D01*
X130118915Y-63369142D01*
X130124743Y-63359953D01*
X130131168Y-63351158D01*
X130138172Y-63342789D01*
X130145737Y-63334877D01*
X130153844Y-63327454D01*
X130162475Y-63320551D01*
X130171610Y-63314200D01*
X130181232Y-63308432D01*
X130191221Y-63303331D01*
X130201447Y-63298951D01*
X130211874Y-63295291D01*
X130222465Y-63292351D01*
X130233183Y-63290129D01*
X130243992Y-63288625D01*
X130254855Y-63287837D01*
X130265737Y-63287765D01*
X130276599Y-63288407D01*
X130287406Y-63289763D01*
X130298122Y-63291832D01*
X130308709Y-63294613D01*
X130319131Y-63298105D01*
X130329351Y-63302306D01*
X130339334Y-63307216D01*
X130349042Y-63312835D01*
X132331569Y-64551895D01*
X132334066Y-64553488D01*
X132336528Y-64555121D01*
X132338954Y-64556794D01*
X132341346Y-64558505D01*
X132343702Y-64560255D01*
X132346022Y-64562043D01*
X132348305Y-64563868D01*
X132350552Y-64565730D01*
X132352762Y-64567628D01*
X132354935Y-64569562D01*
X132357071Y-64571530D01*
X132359168Y-64573533D01*
X132361227Y-64575570D01*
X132363248Y-64577641D01*
X132367172Y-64581879D01*
X132706213Y-64581829D01*
X132708264Y-63452763D01*
X132708495Y-63444260D01*
X132709149Y-63435867D01*
X132710216Y-63427598D01*
X132711687Y-63419460D01*
X132713549Y-63411466D01*
X132715793Y-63403625D01*
X132718408Y-63395949D01*
X132721384Y-63388446D01*
X132724711Y-63381128D01*
X132728377Y-63374005D01*
X132732373Y-63367087D01*
X132736688Y-63360386D01*
X132741312Y-63353910D01*
X132746234Y-63347672D01*
X132751444Y-63341680D01*
X132756931Y-63335946D01*
X132762685Y-63330480D01*
X132768695Y-63325292D01*
X132774952Y-63320392D01*
X132781444Y-63315792D01*
X132788161Y-63311501D01*
X132795093Y-63307530D01*
X132802229Y-63303890D01*
X132809559Y-63300590D01*
X132817072Y-63297641D01*
X132824758Y-63295054D01*
X132832607Y-63292839D01*
X132840608Y-63291006D01*
X132848750Y-63289565D01*
X132857024Y-63288528D01*
X132865418Y-63287904D01*
X132873923Y-63287704D01*
X132882427Y-63287935D01*
X132890819Y-63288590D01*
X132899089Y-63289657D01*
X132907226Y-63291127D01*
X132915220Y-63292989D01*
X132923061Y-63295233D01*
X132930738Y-63297848D01*
X132938241Y-63300824D01*
X132945559Y-63304151D01*
X132952682Y-63307817D01*
X132959599Y-63311813D01*
X132966301Y-63316128D01*
X132972776Y-63320752D01*
X132979015Y-63325674D01*
X132985006Y-63330884D01*
X132990741Y-63336371D01*
X132996207Y-63342125D01*
X133001395Y-63348136D01*
X133006294Y-63354392D01*
X133010895Y-63360884D01*
X133015185Y-63367601D01*
X133019156Y-63374533D01*
X133022797Y-63381669D01*
X133026097Y-63388999D01*
X133029045Y-63396513D01*
X133031633Y-63404199D01*
X133033848Y-63412048D01*
X133035681Y-63420049D01*
X133037122Y-63428191D01*
X133038159Y-63436465D01*
X133038783Y-63444859D01*
X133038982Y-63453364D01*
X133036948Y-64581779D01*
X134250179Y-64581612D01*
X134208525Y-64482585D01*
X134163336Y-64385467D01*
X134114692Y-64290338D01*
X134062676Y-64197279D01*
X134007368Y-64106373D01*
X133948849Y-64017698D01*
X133887200Y-63931338D01*
X133822502Y-63847372D01*
X133754837Y-63765881D01*
X133684284Y-63686947D01*
X133610925Y-63610651D01*
X133534841Y-63537073D01*
X133456113Y-63466295D01*
X133374822Y-63398398D01*
X133291049Y-63333462D01*
X133204876Y-63271568D01*
X133116382Y-63212799D01*
X133025649Y-63157233D01*
X132932757Y-63104954D01*
X132837789Y-63056040D01*
X132740825Y-63010575D01*
X132641946Y-62968638D01*
X132541232Y-62930311D01*
X132438766Y-62895674D01*
X132334627Y-62864809D01*
X132228897Y-62837796D01*
X132121657Y-62814717D01*
X132012988Y-62795652D01*
X131902971Y-62780683D01*
X131791686Y-62769891D01*
X131679216Y-62763356D01*
X131565640Y-62761160D01*
X131417073Y-62764922D01*
X131270446Y-62776086D01*
X131125941Y-62794471D01*
X130983739Y-62819894D01*
X130844024Y-62852174D01*
X130706977Y-62891127D01*
X130572780Y-62936573D01*
X130441615Y-62988329D01*
X130313665Y-63046212D01*
X130189111Y-63110042D01*
X130068135Y-63179635D01*
X129950921Y-63254809D01*
X129837649Y-63335383D01*
X129728501Y-63421175D01*
X129623661Y-63512002D01*
X129523310Y-63607682D01*
X129427630Y-63708033D01*
X129336803Y-63812873D01*
X129251012Y-63922020D01*
X129170437Y-64035292D01*
X129095263Y-64152507D01*
X129025670Y-64273482D01*
X128961840Y-64398036D01*
X128903957Y-64525986D01*
X128852201Y-64657151D01*
X128806756Y-64791348D01*
X128767802Y-64928395D01*
X128735522Y-65068110D01*
X128710099Y-65210311D01*
X128691714Y-65354817D01*
X128680550Y-65501444D01*
X128676788Y-65650010D01*
X128456297Y-65650010D01*
X128460346Y-65490105D01*
X128472363Y-65332287D01*
X128492151Y-65176753D01*
X128519515Y-65023699D01*
X128554259Y-64873321D01*
X128596186Y-64725814D01*
X128645100Y-64581374D01*
X128700806Y-64440199D01*
X128763108Y-64302483D01*
X128831809Y-64168422D01*
X128906714Y-64038214D01*
X128987627Y-63912053D01*
X129074351Y-63790135D01*
X129166691Y-63672657D01*
X129264450Y-63559815D01*
X129367433Y-63451805D01*
X129475444Y-63348822D01*
X129588286Y-63251063D01*
X129705764Y-63158723D01*
X129827681Y-63071999D01*
X129953842Y-62991086D01*
X130084051Y-62916181D01*
X130218111Y-62847480D01*
X130355827Y-62785178D01*
X130497003Y-62729472D01*
X130641443Y-62680558D01*
X130788950Y-62638631D01*
X130939328Y-62603887D01*
X131092383Y-62576524D01*
X131247917Y-62556735D01*
X131405734Y-62544719D01*
X131565640Y-62540670D01*
X131806908Y-62549910D01*
G37*
%TD.AperFunction*%
D11*
D12*
X136870155Y-64078328D02*
X136870155Y-62578328D01*
X137584441Y-64078328D02*
X137584441Y-62578328D01*
X137584441Y-62578328D02*
X138441584Y-64078328D01*
X138441584Y-64078328D02*
X138441584Y-62578328D01*
X139155870Y-64078328D02*
X139155870Y-62578328D01*
X139155870Y-62578328D02*
X139727299Y-62578328D01*
X139727299Y-62578328D02*
X139870156Y-62649757D01*
X139870156Y-62649757D02*
X139941585Y-62721185D01*
X139941585Y-62721185D02*
X140013013Y-62864042D01*
X140013013Y-62864042D02*
X140013013Y-63078328D01*
X140013013Y-63078328D02*
X139941585Y-63221185D01*
X139941585Y-63221185D02*
X139870156Y-63292614D01*
X139870156Y-63292614D02*
X139727299Y-63364042D01*
X139727299Y-63364042D02*
X139155870Y-63364042D01*
X140655870Y-62578328D02*
X140655870Y-63792614D01*
X140655870Y-63792614D02*
X140727299Y-63935471D01*
X140727299Y-63935471D02*
X140798728Y-64006900D01*
X140798728Y-64006900D02*
X140941585Y-64078328D01*
X140941585Y-64078328D02*
X141227299Y-64078328D01*
X141227299Y-64078328D02*
X141370156Y-64006900D01*
X141370156Y-64006900D02*
X141441585Y-63935471D01*
X141441585Y-63935471D02*
X141513013Y-63792614D01*
X141513013Y-63792614D02*
X141513013Y-62578328D01*
X142013014Y-62578328D02*
X142870157Y-62578328D01*
X142441585Y-64078328D02*
X142441585Y-62578328D01*
X144513013Y-64078328D02*
X144513013Y-62578328D01*
X144513013Y-62578328D02*
X145084442Y-62578328D01*
X145084442Y-62578328D02*
X145227299Y-62649757D01*
X145227299Y-62649757D02*
X145298728Y-62721185D01*
X145298728Y-62721185D02*
X145370156Y-62864042D01*
X145370156Y-62864042D02*
X145370156Y-63078328D01*
X145370156Y-63078328D02*
X145298728Y-63221185D01*
X145298728Y-63221185D02*
X145227299Y-63292614D01*
X145227299Y-63292614D02*
X145084442Y-63364042D01*
X145084442Y-63364042D02*
X144513013Y-63364042D01*
X146870156Y-64078328D02*
X146370156Y-63364042D01*
X146013013Y-64078328D02*
X146013013Y-62578328D01*
X146013013Y-62578328D02*
X146584442Y-62578328D01*
X146584442Y-62578328D02*
X146727299Y-62649757D01*
X146727299Y-62649757D02*
X146798728Y-62721185D01*
X146798728Y-62721185D02*
X146870156Y-62864042D01*
X146870156Y-62864042D02*
X146870156Y-63078328D01*
X146870156Y-63078328D02*
X146798728Y-63221185D01*
X146798728Y-63221185D02*
X146727299Y-63292614D01*
X146727299Y-63292614D02*
X146584442Y-63364042D01*
X146584442Y-63364042D02*
X146013013Y-63364042D01*
X147798728Y-62578328D02*
X148084442Y-62578328D01*
X148084442Y-62578328D02*
X148227299Y-62649757D01*
X148227299Y-62649757D02*
X148370156Y-62792614D01*
X148370156Y-62792614D02*
X148441585Y-63078328D01*
X148441585Y-63078328D02*
X148441585Y-63578328D01*
X148441585Y-63578328D02*
X148370156Y-63864042D01*
X148370156Y-63864042D02*
X148227299Y-64006900D01*
X148227299Y-64006900D02*
X148084442Y-64078328D01*
X148084442Y-64078328D02*
X147798728Y-64078328D01*
X147798728Y-64078328D02*
X147655871Y-64006900D01*
X147655871Y-64006900D02*
X147513013Y-63864042D01*
X147513013Y-63864042D02*
X147441585Y-63578328D01*
X147441585Y-63578328D02*
X147441585Y-63078328D01*
X147441585Y-63078328D02*
X147513013Y-62792614D01*
X147513013Y-62792614D02*
X147655871Y-62649757D01*
X147655871Y-62649757D02*
X147798728Y-62578328D01*
X148870157Y-62578328D02*
X149727300Y-62578328D01*
X149298728Y-64078328D02*
X149298728Y-62578328D01*
X150227299Y-63292614D02*
X150727299Y-63292614D01*
X150941585Y-64078328D02*
X150227299Y-64078328D01*
X150227299Y-64078328D02*
X150227299Y-62578328D01*
X150227299Y-62578328D02*
X150941585Y-62578328D01*
X152441585Y-63935471D02*
X152370157Y-64006900D01*
X152370157Y-64006900D02*
X152155871Y-64078328D01*
X152155871Y-64078328D02*
X152013014Y-64078328D01*
X152013014Y-64078328D02*
X151798728Y-64006900D01*
X151798728Y-64006900D02*
X151655871Y-63864042D01*
X151655871Y-63864042D02*
X151584442Y-63721185D01*
X151584442Y-63721185D02*
X151513014Y-63435471D01*
X151513014Y-63435471D02*
X151513014Y-63221185D01*
X151513014Y-63221185D02*
X151584442Y-62935471D01*
X151584442Y-62935471D02*
X151655871Y-62792614D01*
X151655871Y-62792614D02*
X151798728Y-62649757D01*
X151798728Y-62649757D02*
X152013014Y-62578328D01*
X152013014Y-62578328D02*
X152155871Y-62578328D01*
X152155871Y-62578328D02*
X152370157Y-62649757D01*
X152370157Y-62649757D02*
X152441585Y-62721185D01*
X152870157Y-62578328D02*
X153727300Y-62578328D01*
X153298728Y-64078328D02*
X153298728Y-62578328D01*
X154227299Y-64078328D02*
X154227299Y-62578328D01*
X155227300Y-62578328D02*
X155513014Y-62578328D01*
X155513014Y-62578328D02*
X155655871Y-62649757D01*
X155655871Y-62649757D02*
X155798728Y-62792614D01*
X155798728Y-62792614D02*
X155870157Y-63078328D01*
X155870157Y-63078328D02*
X155870157Y-63578328D01*
X155870157Y-63578328D02*
X155798728Y-63864042D01*
X155798728Y-63864042D02*
X155655871Y-64006900D01*
X155655871Y-64006900D02*
X155513014Y-64078328D01*
X155513014Y-64078328D02*
X155227300Y-64078328D01*
X155227300Y-64078328D02*
X155084443Y-64006900D01*
X155084443Y-64006900D02*
X154941585Y-63864042D01*
X154941585Y-63864042D02*
X154870157Y-63578328D01*
X154870157Y-63578328D02*
X154870157Y-63078328D01*
X154870157Y-63078328D02*
X154941585Y-62792614D01*
X154941585Y-62792614D02*
X155084443Y-62649757D01*
X155084443Y-62649757D02*
X155227300Y-62578328D01*
X156513014Y-64078328D02*
X156513014Y-62578328D01*
X156513014Y-62578328D02*
X157370157Y-64078328D01*
X157370157Y-64078328D02*
X157370157Y-62578328D01*
D11*
G36*
X142054900Y-65749757D02*
G01*
X141756841Y-65749757D01*
X141905870Y-65302669D01*
X142054900Y-65749757D01*
G37*
G36*
X142721360Y-66643818D02*
G01*
X141090381Y-66643818D01*
X141090381Y-66309567D01*
X141257048Y-66309567D01*
X141261197Y-66367948D01*
X141287371Y-66420295D01*
X141331585Y-66458642D01*
X141387109Y-66477150D01*
X141445490Y-66473001D01*
X141497837Y-66446827D01*
X141536184Y-66402613D01*
X141548172Y-66375762D01*
X141656841Y-66049757D01*
X142154900Y-66049757D01*
X142263568Y-66375762D01*
X142275556Y-66402613D01*
X142313903Y-66446828D01*
X142366251Y-66473001D01*
X142424631Y-66477151D01*
X142480155Y-66458642D01*
X142524369Y-66420295D01*
X142550543Y-66367948D01*
X142554693Y-66309568D01*
X142548173Y-66280894D01*
X142048172Y-64780894D01*
X142036184Y-64754043D01*
X142029161Y-64745946D01*
X142024369Y-64736361D01*
X142010160Y-64724037D01*
X141997837Y-64709829D01*
X141988251Y-64705036D01*
X141980155Y-64698014D01*
X141962311Y-64692065D01*
X141945490Y-64683655D01*
X141934801Y-64682895D01*
X141924631Y-64679505D01*
X141905865Y-64680838D01*
X141887109Y-64679506D01*
X141876941Y-64682895D01*
X141866251Y-64683655D01*
X141849427Y-64692066D01*
X141831585Y-64698014D01*
X141823490Y-64705034D01*
X141813903Y-64709828D01*
X141801577Y-64724039D01*
X141787371Y-64736361D01*
X141782578Y-64745945D01*
X141775556Y-64754043D01*
X141763568Y-64780894D01*
X141263568Y-66280894D01*
X141257048Y-66309567D01*
X141090381Y-66309567D01*
X141090381Y-64512838D01*
X142721360Y-64512838D01*
X142721360Y-66643818D01*
G37*
D12*
X137727298Y-66328328D02*
X137227298Y-65614042D01*
X136870155Y-66328328D02*
X136870155Y-64828328D01*
X136870155Y-64828328D02*
X137441584Y-64828328D01*
X137441584Y-64828328D02*
X137584441Y-64899757D01*
X137584441Y-64899757D02*
X137655870Y-64971185D01*
X137655870Y-64971185D02*
X137727298Y-65114042D01*
X137727298Y-65114042D02*
X137727298Y-65328328D01*
X137727298Y-65328328D02*
X137655870Y-65471185D01*
X137655870Y-65471185D02*
X137584441Y-65542614D01*
X137584441Y-65542614D02*
X137441584Y-65614042D01*
X137441584Y-65614042D02*
X136870155Y-65614042D01*
X138370155Y-65542614D02*
X138870155Y-65542614D01*
X139084441Y-66328328D02*
X138370155Y-66328328D01*
X138370155Y-66328328D02*
X138370155Y-64828328D01*
X138370155Y-64828328D02*
X139084441Y-64828328D01*
X139513013Y-64828328D02*
X140013013Y-66328328D01*
X140013013Y-66328328D02*
X140513013Y-64828328D01*
D13*
D14*
X123601359Y-66099619D02*
X123029931Y-66099619D01*
X123315645Y-66099619D02*
X123315645Y-65099619D01*
X123315645Y-65099619D02*
X123220407Y-65242476D01*
X123220407Y-65242476D02*
X123125169Y-65337714D01*
X123125169Y-65337714D02*
X123029931Y-65385333D01*
%TA.AperFunction,EtchedComponent*%
%TO.C,FID902*%
G36*
X119565645Y-97400000D02*
G01*
X121565645Y-97400000D01*
X121565645Y-97900000D01*
X119565645Y-97900000D01*
X119565645Y-97400000D01*
G37*
%TD.AperFunction*%
%TA.AperFunction,EtchedComponent*%
G36*
X120315645Y-96650000D02*
G01*
X120815645Y-96650000D01*
X120815645Y-98650000D01*
X120315645Y-98650000D01*
X120315645Y-96650000D01*
G37*
%TD.AperFunction*%
%TO.C,ID901*%
D15*
X122315645Y-64650000D02*
X124315645Y-64650000D01*
X124315645Y-66650000D01*
X122315645Y-66650000D01*
X122315645Y-64650000D01*
%TA.AperFunction,EtchedComponent*%
%TO.C,FID903*%
G36*
X181565645Y-65400000D02*
G01*
X183565645Y-65400000D01*
X183565645Y-65900000D01*
X181565645Y-65900000D01*
X181565645Y-65400000D01*
G37*
%TD.AperFunction*%
%TA.AperFunction,EtchedComponent*%
G36*
X182315645Y-64650000D02*
G01*
X182815645Y-64650000D01*
X182815645Y-66650000D01*
X182315645Y-66650000D01*
X182315645Y-64650000D01*
G37*
%TD.AperFunction*%
%TA.AperFunction,EtchedComponent*%
%TO.C,FID901*%
G36*
X119565645Y-65400000D02*
G01*
X121565645Y-65400000D01*
X121565645Y-65900000D01*
X119565645Y-65900000D01*
X119565645Y-65400000D01*
G37*
%TD.AperFunction*%
%TA.AperFunction,EtchedComponent*%
G36*
X120315645Y-64650000D02*
G01*
X120815645Y-64650000D01*
X120815645Y-66650000D01*
X120315645Y-66650000D01*
X120315645Y-64650000D01*
G37*
%TD.AperFunction*%
%TD*%
D16*
%TO.P,R302,1*%
%TO.N,GND*%
X137815645Y-91750002D03*
%TO.P,R302,2*%
%TO.N,/ARCHITECTURE/3. SENSING/VSENSE_12V*%
X137815645Y-88650000D03*
%TD*%
D17*
%TO.P,R401,1*%
%TO.N,VREF_2V5*%
X148565645Y-76099999D03*
%TO.P,R401,2*%
%TO.N,VCC_5V*%
X148565645Y-79200001D03*
%TD*%
%TO.P,R503,1*%
%TO.N,Net-(D501-K)*%
X155565645Y-74349998D03*
%TO.P,R503,2*%
%TO.N,/ARCHITECTURE/5. COMPARATOR/17V_OK*%
X155565645Y-77450000D03*
%TD*%
D18*
%TO.P,Q602,1*%
%TO.N,Net-(D601-A)*%
X169279645Y-82543500D03*
D19*
%TO.P,Q602,2*%
%TO.N,/ARCHITECTURE/1. INTERCONNECTS/VOUT*%
X171565645Y-75685500D03*
D18*
%TO.P,Q602,3*%
%TO.N,/ARCHITECTURE/2. POLARITY PROTECTION/VPROT*%
X173851645Y-82543500D03*
%TD*%
D20*
%TO.P,Q601,1,B*%
%TO.N,Net-(Q601-B)*%
X168190645Y-93900000D03*
%TO.P,Q601,2,E*%
%TO.N,GND*%
X168190645Y-95800000D03*
%TO.P,Q601,3,C*%
%TO.N,Net-(D601-A)*%
X170065645Y-94850000D03*
%TD*%
D21*
%TO.P,TP101,1,1*%
%TO.N,GND*%
X125315645Y-89537500D03*
%TD*%
D16*
%TO.P,R505,1*%
%TO.N,/ARCHITECTURE/5. COMPARATOR/EN_OK*%
X148565645Y-90800001D03*
%TO.P,R505,2*%
%TO.N,VCC_5V*%
X148565645Y-87699999D03*
%TD*%
D22*
%TO.P,TP103,1,1*%
%TO.N,/ARCHITECTURE/1. INTERCONNECTS/VOUT*%
X177815645Y-84850000D03*
%TD*%
D17*
%TO.P,R304,1*%
%TO.N,GND*%
X137815645Y-73349999D03*
%TO.P,R304,2*%
%TO.N,/ARCHITECTURE/3. SENSING/VSENSE_17V*%
X137815645Y-76450001D03*
%TD*%
D23*
%TO.P,C502,1*%
%TO.N,Net-(U501B--)*%
X160103145Y-77450000D03*
%TO.P,C502,2*%
%TO.N,GND*%
X161828145Y-77450000D03*
%TD*%
%TO.P,C501,1*%
%TO.N,Net-(U501A-+)*%
X160103145Y-87650000D03*
%TO.P,C501,2*%
%TO.N,GND*%
X161828145Y-87650000D03*
%TD*%
D24*
%TO.P,TP401,1,1*%
%TO.N,VREF_2V5*%
X150265645Y-69250000D03*
%TD*%
%TO.P,TP403,1,1*%
%TO.N,VCC_5V*%
X144215645Y-79050000D03*
%TD*%
D25*
%TO.P,FID902,*%
%TO.N,*%
X120565645Y-97650000D03*
%TD*%
D26*
%TO.P,J101,1*%
%TO.N,/ARCHITECTURE/1. INTERCONNECTS/VIN*%
X126265645Y-75150000D03*
D27*
%TO.P,J101,2*%
%TO.N,GND*%
X120065645Y-75150000D03*
D28*
%TO.P,J101,3*%
%TO.N,unconnected-(J101-Pad3)*%
X123065645Y-79850000D03*
%TD*%
D16*
%TO.P,R602,1*%
%TO.N,Net-(Q601-B)*%
X165965645Y-93850000D03*
%TO.P,R602,2*%
%TO.N,GND*%
X165965645Y-90749998D03*
%TD*%
D22*
%TO.P,TP503,1,1*%
%TO.N,/ARCHITECTURE/5. COMPARATOR/EN_OK*%
X169065645Y-98900000D03*
%TD*%
D16*
%TO.P,R604,1*%
%TO.N,/ARCHITECTURE/1. INTERCONNECTS/VOUT*%
X171565645Y-69700001D03*
%TO.P,R604,2*%
%TO.N,GND*%
X171565645Y-66599999D03*
%TD*%
D29*
%TO.P,R201,1*%
%TO.N,GND*%
X126915644Y-94650000D03*
%TO.P,R201,2*%
%TO.N,Net-(D201-A)*%
X130015646Y-94650000D03*
%TD*%
D18*
%TO.P,Q201,1*%
%TO.N,Net-(D201-A)*%
X129279645Y-82543500D03*
D19*
%TO.P,Q201,2*%
%TO.N,/ARCHITECTURE/1. INTERCONNECTS/VIN*%
X131565645Y-75685500D03*
D18*
%TO.P,Q201,3*%
%TO.N,/ARCHITECTURE/2. POLARITY PROTECTION/VPROT*%
X133851645Y-82543500D03*
%TD*%
D30*
%TO.P,H901,1,1*%
%TO.N,GND*%
X115565645Y-65650000D03*
%TD*%
D16*
%TO.P,R504,1*%
%TO.N,Net-(D502-K)*%
X155565645Y-90750002D03*
%TO.P,R504,2*%
%TO.N,/ARCHITECTURE/5. COMPARATOR/12V_OK*%
X155565645Y-87650000D03*
%TD*%
D21*
%TO.P,TP104,1,1*%
%TO.N,GND*%
X177815645Y-89537500D03*
%TD*%
D26*
%TO.P,J104,1*%
%TO.N,/ARCHITECTURE/1. INTERCONNECTS/VOUT*%
X176865645Y-75150000D03*
D27*
%TO.P,J104,2*%
%TO.N,GND*%
X183065645Y-75150000D03*
D28*
%TO.P,J104,3*%
%TO.N,unconnected-(J104-Pad3)*%
X180065645Y-70450000D03*
%TD*%
D22*
%TO.P,TP303,1,1*%
%TO.N,/ARCHITECTURE/3. SENSING/VSENSE_17V*%
X141565645Y-77400000D03*
%TD*%
D31*
%TO.P,U501,1*%
%TO.N,/ARCHITECTURE/5. COMPARATOR/12V_OK*%
X155410645Y-85047500D03*
%TO.P,U501,2,-*%
%TO.N,VREF_2V5*%
X156680645Y-85047500D03*
%TO.P,U501,3,+*%
%TO.N,Net-(U501A-+)*%
X157950645Y-85047500D03*
%TO.P,U501,4,GND*%
%TO.N,GND*%
X159220645Y-85047500D03*
%TO.P,U501,5,+*%
%TO.N,VREF_2V5*%
X159220645Y-80052500D03*
%TO.P,U501,6,-*%
%TO.N,Net-(U501B--)*%
X157950645Y-80052500D03*
%TO.P,U501,7*%
%TO.N,/ARCHITECTURE/5. COMPARATOR/17V_OK*%
X156680645Y-80052500D03*
%TO.P,U501,8,V+*%
%TO.N,VCC_5V*%
X155410645Y-80052500D03*
%TD*%
D32*
%TO.P,J102,1,Pin_1*%
%TO.N,/ARCHITECTURE/1. INTERCONNECTS/VIN*%
X116648145Y-85745000D03*
D33*
%TO.P,J102,2,Pin_2*%
%TO.N,GND*%
X116648145Y-89555000D03*
%TD*%
D30*
%TO.P,H902,1,1*%
%TO.N,GND*%
X115565645Y-97650000D03*
%TD*%
D22*
%TO.P,TP102,1,1*%
%TO.N,/ARCHITECTURE/1. INTERCONNECTS/VIN*%
X125315645Y-84850000D03*
%TD*%
D24*
%TO.P,TP501,1,1*%
%TO.N,/ARCHITECTURE/5. COMPARATOR/12V_OK*%
X152065645Y-85400000D03*
%TD*%
D25*
%TO.P,FID903,*%
%TO.N,*%
X182565645Y-65650000D03*
%TD*%
D34*
%TO.P,J103,1,Pin_1*%
%TO.N,GND*%
X186483145Y-89537500D03*
D33*
%TO.P,J103,2,Pin_2*%
%TO.N,/ARCHITECTURE/1. INTERCONNECTS/VOUT*%
X186483145Y-85727500D03*
%TD*%
D21*
%TO.P,TP301,1,1*%
%TO.N,GND*%
X141565645Y-72150000D03*
%TD*%
D29*
%TO.P,R603,1*%
%TO.N,Net-(D601-A)*%
X170015645Y-90650000D03*
%TO.P,R603,2*%
%TO.N,/ARCHITECTURE/2. POLARITY PROTECTION/VPROT*%
X173115645Y-90650000D03*
%TD*%
D30*
%TO.P,H903,1,1*%
%TO.N,GND*%
X187565645Y-65650000D03*
%TD*%
D17*
%TO.P,R601,1*%
%TO.N,Net-(Q601-B)*%
X165965645Y-95850000D03*
%TO.P,R601,2*%
%TO.N,/ARCHITECTURE/5. COMPARATOR/EN_OK*%
X165965645Y-98950002D03*
%TD*%
%TO.P,R507,1*%
%TO.N,/ARCHITECTURE/3. SENSING/VSENSE_17V*%
X152565645Y-74349999D03*
%TO.P,R507,2*%
%TO.N,/ARCHITECTURE/5. COMPARATOR/17V_OK*%
X152565645Y-77450001D03*
%TD*%
D30*
%TO.P,H904,1,1*%
%TO.N,GND*%
X187565645Y-97650000D03*
%TD*%
D22*
%TO.P,TP302,1,1*%
%TO.N,/ARCHITECTURE/3. SENSING/VSENSE_12V*%
X141565645Y-87700000D03*
%TD*%
D17*
%TO.P,R402,1*%
%TO.N,GND*%
X148565645Y-71099999D03*
%TO.P,R402,2*%
%TO.N,VREF_2V5*%
X148565645Y-74200001D03*
%TD*%
D24*
%TO.P,TP502,1,1*%
%TO.N,/ARCHITECTURE/5. COMPARATOR/17V_OK*%
X153165645Y-72400000D03*
%TD*%
D25*
%TO.P,FID901,*%
%TO.N,*%
X120565645Y-65650000D03*
%TD*%
D17*
%TO.P,R501,1*%
%TO.N,Net-(U501A-+)*%
X157965645Y-87650000D03*
%TO.P,R501,2*%
%TO.N,/ARCHITECTURE/3. SENSING/VSENSE_12V*%
X157965645Y-90750002D03*
%TD*%
D35*
%TO.P,D201,1,K*%
%TO.N,/ARCHITECTURE/2. POLARITY PROTECTION/VPROT*%
X132815644Y-85650000D03*
%TO.P,D201,2,A*%
%TO.N,Net-(D201-A)*%
X130315646Y-85650000D03*
%TD*%
D29*
%TO.P,R202,1*%
%TO.N,Net-(D201-A)*%
X130015645Y-90650000D03*
%TO.P,R202,2*%
%TO.N,/ARCHITECTURE/2. POLARITY PROTECTION/VPROT*%
X133115645Y-90650000D03*
%TD*%
D36*
%TO.P,D501,1,K*%
%TO.N,Net-(D501-K)*%
X155565645Y-72750000D03*
%TO.P,D501,2,A*%
%TO.N,/ARCHITECTURE/5. COMPARATOR/EN_OK*%
X155565645Y-70650000D03*
%TD*%
D16*
%TO.P,R506,1*%
%TO.N,/ARCHITECTURE/3. SENSING/VSENSE_12V*%
X152565645Y-90750002D03*
%TO.P,R506,2*%
%TO.N,/ARCHITECTURE/5. COMPARATOR/12V_OK*%
X152565645Y-87650000D03*
%TD*%
%TO.P,R301,1*%
%TO.N,/ARCHITECTURE/3. SENSING/VSENSE_12V*%
X137815645Y-86750002D03*
%TO.P,R301,2*%
%TO.N,/ARCHITECTURE/2. POLARITY PROTECTION/VPROT*%
X137815645Y-83650000D03*
%TD*%
D37*
%TO.P,D502,1,K*%
%TO.N,Net-(D502-K)*%
X155565645Y-92300000D03*
%TO.P,D502,2,A*%
%TO.N,/ARCHITECTURE/5. COMPARATOR/EN_OK*%
X155565645Y-94400000D03*
%TD*%
D38*
%TO.P,C401,1*%
%TO.N,VREF_2V5*%
X146565645Y-75150000D03*
%TO.P,C401,2*%
%TO.N,GND*%
X146565645Y-73424998D03*
%TD*%
D39*
%TO.P,C402,1*%
%TO.N,VCC_5V*%
X146365645Y-82550000D03*
%TO.P,C402,2*%
%TO.N,GND*%
X146365645Y-84275002D03*
%TD*%
D20*
%TO.P,U401,1,K*%
%TO.N,VCC_5V*%
X148465645Y-82550000D03*
%TO.P,U401,2,A*%
%TO.N,GND*%
X148465645Y-84450000D03*
%TO.P,U401,3,NC*%
%TO.N,unconnected-(U401-NC-Pad3)*%
X150340645Y-83500000D03*
%TD*%
D40*
%TO.P,R403,1*%
%TO.N,VCC_5V*%
X144365646Y-82550000D03*
%TO.P,R403,2*%
%TO.N,/ARCHITECTURE/2. POLARITY PROTECTION/VPROT*%
X141265644Y-82550000D03*
%TD*%
D16*
%TO.P,R502,1*%
%TO.N,Net-(U501B--)*%
X157965645Y-77450000D03*
%TO.P,R502,2*%
%TO.N,/ARCHITECTURE/3. SENSING/VSENSE_17V*%
X157965645Y-74349998D03*
%TD*%
D17*
%TO.P,R303,1*%
%TO.N,/ARCHITECTURE/3. SENSING/VSENSE_17V*%
X137815645Y-78349999D03*
%TO.P,R303,2*%
%TO.N,/ARCHITECTURE/2. POLARITY PROTECTION/VPROT*%
X137815645Y-81450001D03*
%TD*%
D35*
%TO.P,D601,1,K*%
%TO.N,/ARCHITECTURE/2. POLARITY PROTECTION/VPROT*%
X172815644Y-85650000D03*
%TO.P,D601,2,A*%
%TO.N,Net-(D601-A)*%
X170315646Y-85650000D03*
%TD*%
D22*
%TO.P,TP201,1,1*%
%TO.N,/ARCHITECTURE/2. POLARITY PROTECTION/VPROT*%
X133115645Y-94650000D03*
%TD*%
D41*
%TO.N,/ARCHITECTURE/2. POLARITY PROTECTION/VPROT*%
X172815645Y-83150000D03*
X142815645Y-81950000D03*
X172815645Y-81950000D03*
X172815645Y-82550000D03*
X142815645Y-82550000D03*
X142815645Y-83150000D03*
%TO.N,GND*%
X165965645Y-89450000D03*
X147265645Y-84450000D03*
X162865645Y-87650000D03*
X162965645Y-77450000D03*
X160165645Y-85050000D03*
X171565645Y-65450000D03*
X168190645Y-96925000D03*
X137815645Y-93050000D03*
%TD*%
D42*
%TO.N,/ARCHITECTURE/5. COMPARATOR/EN_OK*%
X160115647Y-98950002D02*
X155565645Y-94400000D01*
X159815645Y-70650000D02*
X163815645Y-74650000D01*
X152165644Y-94400000D02*
X155565645Y-94400000D01*
X166365647Y-98950002D02*
X166415649Y-98900000D01*
X163815645Y-74650000D02*
X163815645Y-96800002D01*
X155565645Y-70650000D02*
X159815645Y-70650000D01*
X165965645Y-98950002D02*
X166365647Y-98950002D01*
X165965645Y-98950002D02*
X160115647Y-98950002D01*
X166015647Y-98900000D02*
X165965645Y-98950002D01*
X163815645Y-96800002D02*
X165965645Y-98950002D01*
X169065645Y-98900000D02*
X166015647Y-98900000D01*
X148565645Y-90800001D02*
X152165644Y-94400000D01*
%TO.N,VREF_2V5*%
X160965645Y-78307500D02*
X160965645Y-72800000D01*
X159220645Y-80052500D02*
X160965645Y-78307500D01*
X150265645Y-72500001D02*
X150265645Y-69250000D01*
X157965645Y-83450000D02*
X156680645Y-84735000D01*
X148565645Y-74200001D02*
X150265645Y-72500001D01*
X159465645Y-71300000D02*
X152315645Y-71300000D01*
X152315645Y-71300000D02*
X150265645Y-69250000D01*
X157965645Y-81659000D02*
X157965645Y-83450000D01*
X159220645Y-80404000D02*
X157965645Y-81659000D01*
X160965645Y-72800000D02*
X159465645Y-71300000D01*
X156680645Y-84735000D02*
X156680645Y-85047500D01*
X159220645Y-80052500D02*
X159220645Y-80404000D01*
%TO.N,GND*%
X168190645Y-96925000D02*
X168190645Y-95800000D01*
X160165645Y-85050000D02*
X159223145Y-85050000D01*
X146365645Y-84275002D02*
X147090647Y-84275002D01*
X137815645Y-93050000D02*
X137815645Y-91750002D01*
X171565645Y-65450000D02*
X171565645Y-66599999D01*
X159223145Y-85050000D02*
X159220645Y-85047500D01*
X161828145Y-87650000D02*
X162865645Y-87650000D01*
X147090647Y-84275002D02*
X147265645Y-84450000D01*
X165965645Y-89450000D02*
X165965645Y-90749998D01*
X161828145Y-77450000D02*
X162965645Y-77450000D01*
D43*
X147265645Y-84450000D02*
X148465645Y-84450000D01*
%TO.N,/ARCHITECTURE/3. SENSING/VSENSE_12V*%
X152565645Y-90750002D02*
X150965643Y-89150000D01*
X152565645Y-90750002D02*
X152565645Y-91150000D01*
X150965643Y-89150000D02*
X143015645Y-89150000D01*
X156315645Y-93150000D02*
X157965645Y-91500000D01*
X157965645Y-91500000D02*
X157965645Y-90750002D01*
X152565645Y-91150000D02*
X154565645Y-93150000D01*
X143015645Y-89150000D02*
X141565645Y-87700000D01*
X154565645Y-93150000D02*
X156315645Y-93150000D01*
D42*
%TO.N,/ARCHITECTURE/3. SENSING/VSENSE_17V*%
X151965645Y-71923280D02*
X152214925Y-71674000D01*
D43*
X149515645Y-77650000D02*
X141815645Y-77650000D01*
D42*
X152565645Y-74349999D02*
X151965645Y-73749999D01*
X151965645Y-73749999D02*
X151965645Y-71923280D01*
X155289647Y-71674000D02*
X157965645Y-74349998D01*
X152214925Y-71674000D02*
X155289647Y-71674000D01*
D43*
X152815646Y-74349999D02*
X149515645Y-77650000D01*
X141815645Y-77650000D02*
X141565645Y-77400000D01*
D42*
%TO.N,/ARCHITECTURE/5. COMPARATOR/17V_OK*%
X153315645Y-72400000D02*
X154065645Y-73150000D01*
X154065645Y-73150000D02*
X154065645Y-75950001D01*
X154065645Y-75950001D02*
X152565645Y-77450001D01*
%TO.N,/ARCHITECTURE/5. COMPARATOR/12V_OK*%
X155058145Y-85400000D02*
X155410645Y-85047500D01*
X152065645Y-85400000D02*
X155058145Y-85400000D01*
%TD*%
%TA.AperFunction,Conductor*%
%TO.N,/ARCHITECTURE/5. COMPARATOR/12V_OK*%
G36*
X155758684Y-84219685D02*
G01*
X155804439Y-84272489D01*
X155815645Y-84324000D01*
X155815645Y-85999999D01*
X155815644Y-85999999D01*
X156445370Y-86961264D01*
X156465640Y-87028129D01*
X156465645Y-87029214D01*
X156465645Y-88168414D01*
X156445960Y-88235453D01*
X156393156Y-88281208D01*
X156341846Y-88292414D01*
X151789846Y-88299798D01*
X151722775Y-88280222D01*
X151676934Y-88227492D01*
X151665645Y-88175798D01*
X151665645Y-87124000D01*
X151685330Y-87056961D01*
X151738134Y-87011206D01*
X151789645Y-87000000D01*
X154665645Y-87000000D01*
X155015644Y-86000002D01*
X155015645Y-86000000D01*
X155015645Y-84324000D01*
X155035330Y-84256961D01*
X155088134Y-84211206D01*
X155139645Y-84200000D01*
X155691645Y-84200000D01*
X155758684Y-84219685D01*
G37*
%TD.AperFunction*%
%TD*%
%TA.AperFunction,Conductor*%
%TO.N,/ARCHITECTURE/5. COMPARATOR/EN_OK*%
G36*
X164440645Y-99075002D02*
G01*
X164596085Y-99094573D01*
X164698539Y-99122698D01*
X164804878Y-99162545D01*
X164906701Y-99211704D01*
X165003241Y-99270918D01*
X165078987Y-99329804D01*
X165144714Y-99395587D01*
X165190310Y-99456268D01*
X165225070Y-99521496D01*
X165244974Y-99580972D01*
X165966645Y-98950002D01*
X165244974Y-98319032D01*
X165198274Y-98430898D01*
X165111175Y-98540246D01*
X164978940Y-98645394D01*
X164802125Y-98738631D01*
X164600058Y-98804534D01*
X164440645Y-98825002D01*
X164440645Y-99075002D01*
G37*
%TD.AperFunction*%
%TD*%
%TA.AperFunction,Conductor*%
%TO.N,/ARCHITECTURE/3. SENSING/VSENSE_17V*%
G36*
X152088759Y-73053426D02*
G01*
X152092070Y-73060058D01*
X152103686Y-73142058D01*
X152103689Y-73142071D01*
X152128258Y-73209993D01*
X152128261Y-73210000D01*
X152128263Y-73210004D01*
X152164756Y-73278342D01*
X152214108Y-73347848D01*
X152274604Y-73414984D01*
X152423065Y-73534606D01*
X152423069Y-73534608D01*
X152423068Y-73534608D01*
X152509969Y-73579930D01*
X152596873Y-73625254D01*
X152596877Y-73625255D01*
X152596879Y-73625256D01*
X152641778Y-73638574D01*
X152785214Y-73681123D01*
X152962186Y-73698167D01*
X152970091Y-73702370D01*
X152972709Y-73710934D01*
X152970925Y-73716107D01*
X152571124Y-74342415D01*
X152563784Y-74347545D01*
X152556388Y-74346756D01*
X151951102Y-74069362D01*
X151704938Y-73956549D01*
X151698845Y-73949988D01*
X151699177Y-73941040D01*
X151701023Y-73938193D01*
X151713096Y-73924460D01*
X151748567Y-73858063D01*
X151776827Y-73771325D01*
X151810909Y-73590017D01*
X151830168Y-73391329D01*
X151830169Y-73391321D01*
X151830169Y-73391320D01*
X151840297Y-73061340D01*
X151843976Y-73053176D01*
X151851991Y-73049999D01*
X152080486Y-73049999D01*
X152088759Y-73053426D01*
G37*
%TD.AperFunction*%
%TD*%
%TA.AperFunction,Conductor*%
%TO.N,VREF_2V5*%
G36*
X150390645Y-70240393D02*
G01*
X150395429Y-70136493D01*
X150408917Y-70049559D01*
X150456245Y-69915238D01*
X150533128Y-69796937D01*
X150557028Y-69765954D01*
X150613545Y-69690633D01*
X150668293Y-69602394D01*
X150717160Y-69491333D01*
X150756038Y-69347545D01*
X150265645Y-69249000D01*
X149775252Y-69347545D01*
X149800075Y-69448256D01*
X149830018Y-69532723D01*
X149905905Y-69673419D01*
X149974262Y-69765954D01*
X150037160Y-69851025D01*
X150090254Y-69947859D01*
X150126948Y-70072350D01*
X150140645Y-70240393D01*
X150390645Y-70240393D01*
G37*
%TD.AperFunction*%
%TD*%
%TA.AperFunction,Conductor*%
%TO.N,Net-(Q601-B)*%
G36*
X166881322Y-93169685D02*
G01*
X166901964Y-93186319D01*
X167265645Y-93550000D01*
X168841645Y-93550000D01*
X168908684Y-93569685D01*
X168954439Y-93622489D01*
X168965645Y-93674000D01*
X168965645Y-94126000D01*
X168945960Y-94193039D01*
X168893156Y-94238794D01*
X168841645Y-94250000D01*
X167265644Y-94250000D01*
X166865645Y-94649999D01*
X166865645Y-96426000D01*
X166845960Y-96493039D01*
X166793156Y-96538794D01*
X166741645Y-96550000D01*
X165189645Y-96550000D01*
X165122606Y-96530315D01*
X165076851Y-96477511D01*
X165065645Y-96426000D01*
X165065645Y-93274000D01*
X165085330Y-93206961D01*
X165138134Y-93161206D01*
X165189645Y-93150000D01*
X166814283Y-93150000D01*
X166881322Y-93169685D01*
G37*
%TD.AperFunction*%
%TD*%
%TA.AperFunction,Conductor*%
%TO.N,/ARCHITECTURE/2. POLARITY PROTECTION/VPROT*%
G36*
X133315645Y-85149999D02*
G01*
X133315645Y-86150003D01*
X133764713Y-89792440D01*
X133765645Y-89807613D01*
X133765645Y-91499986D01*
X133861584Y-94522065D01*
X133844036Y-94589696D01*
X133792710Y-94637103D01*
X133737646Y-94650000D01*
X132493644Y-94650000D01*
X132426605Y-94630315D01*
X132380850Y-94577511D01*
X132369706Y-94522065D01*
X132465645Y-91499986D01*
X132465645Y-89799990D01*
X132315750Y-86152554D01*
X132315645Y-86147462D01*
X132315645Y-85189995D01*
X132335330Y-85122956D01*
X132339015Y-85117541D01*
X133215645Y-83900000D01*
X134465643Y-83900000D01*
X133315645Y-85149999D01*
G37*
%TD.AperFunction*%
%TD*%
%TA.AperFunction,Conductor*%
%TO.N,/ARCHITECTURE/1. INTERCONNECTS/VOUT*%
G36*
X177758684Y-72669685D02*
G01*
X177804439Y-72722489D01*
X177815645Y-72774000D01*
X177815645Y-83400000D01*
X179065645Y-84650000D01*
X187441645Y-84650000D01*
X187508684Y-84669685D01*
X187554439Y-84722489D01*
X187565645Y-84774000D01*
X187565645Y-86526000D01*
X187545960Y-86593039D01*
X187493156Y-86638794D01*
X187441645Y-86650000D01*
X178117007Y-86650000D01*
X178049968Y-86630315D01*
X178029326Y-86613681D01*
X176101964Y-84686319D01*
X176068479Y-84624996D01*
X176065645Y-84598638D01*
X176065645Y-79650000D01*
X175065645Y-78650000D01*
X168939645Y-78650000D01*
X168872606Y-78630315D01*
X168826851Y-78577511D01*
X168815645Y-78526000D01*
X168815645Y-72679997D01*
X168818834Y-72666809D01*
X168817855Y-72656688D01*
X168820160Y-72650000D01*
X174365645Y-72650000D01*
X177691645Y-72650000D01*
X177758684Y-72669685D01*
G37*
%TD.AperFunction*%
%TD*%
%TA.AperFunction,Conductor*%
%TO.N,VREF_2V5*%
G36*
X151054346Y-69861925D02*
G01*
X150984261Y-69785074D01*
X150932327Y-69714065D01*
X150870813Y-69585620D01*
X150841527Y-69447604D01*
X150836518Y-69408796D01*
X150823222Y-69315572D01*
X150799540Y-69214465D01*
X150755562Y-69101379D01*
X150681380Y-68972215D01*
X150264938Y-69249293D01*
X149987860Y-69665735D01*
X150076626Y-69719396D01*
X150157526Y-69757950D01*
X150310673Y-69803777D01*
X150424441Y-69820873D01*
X150529071Y-69836551D01*
X150635086Y-69867480D01*
X150749060Y-69929562D01*
X150877570Y-70038701D01*
X151054346Y-69861925D01*
G37*
%TD.AperFunction*%
%TD*%
%TA.AperFunction,Conductor*%
%TO.N,Net-(D601-A)*%
G36*
X169858684Y-81219685D02*
G01*
X169904439Y-81272489D01*
X169915645Y-81324000D01*
X169915645Y-83850000D01*
X170793597Y-85118153D01*
X170815572Y-85184476D01*
X170815645Y-85188734D01*
X170815645Y-86147462D01*
X170815540Y-86152554D01*
X170665645Y-89799990D01*
X170665645Y-91500002D01*
X170815495Y-94546950D01*
X170815645Y-94553041D01*
X170815645Y-95026000D01*
X170795960Y-95093039D01*
X170743156Y-95138794D01*
X170691645Y-95150000D01*
X169441379Y-95150000D01*
X169374340Y-95130315D01*
X169328585Y-95077511D01*
X169317391Y-95024278D01*
X169365645Y-91550002D01*
X169365645Y-89807613D01*
X169366577Y-89792440D01*
X169815645Y-86150003D01*
X169815645Y-85150000D01*
X168696769Y-83885183D01*
X168667094Y-83821928D01*
X168665645Y-83803024D01*
X168665645Y-81324000D01*
X168685330Y-81256961D01*
X168738134Y-81211206D01*
X168789645Y-81200000D01*
X169791645Y-81200000D01*
X169858684Y-81219685D01*
G37*
%TD.AperFunction*%
%TD*%
%TA.AperFunction,Conductor*%
%TO.N,/ARCHITECTURE/5. COMPARATOR/EN_OK*%
G36*
X155785030Y-94312805D02*
G01*
X155791338Y-94319161D01*
X155792158Y-94322472D01*
X155795770Y-94359853D01*
X155795770Y-94359855D01*
X155795771Y-94359858D01*
X155811777Y-94411672D01*
X155867390Y-94509511D01*
X155939408Y-94596195D01*
X156009755Y-94667599D01*
X156018976Y-94676710D01*
X156023536Y-94681215D01*
X156027013Y-94689468D01*
X156023636Y-94697761D01*
X155863469Y-94857928D01*
X155855196Y-94861355D01*
X155846923Y-94857928D01*
X155846860Y-94857865D01*
X155838221Y-94849093D01*
X155838172Y-94849044D01*
X155788533Y-94799828D01*
X155695071Y-94726646D01*
X155616600Y-94695316D01*
X155616594Y-94695316D01*
X155560688Y-94699103D01*
X155552202Y-94696243D01*
X155548224Y-94688221D01*
X155548217Y-94686761D01*
X155564510Y-94406645D01*
X155568411Y-94398585D01*
X155571749Y-94396501D01*
X155776078Y-94312771D01*
X155785030Y-94312805D01*
G37*
%TD.AperFunction*%
%TD*%
%TA.AperFunction,Conductor*%
%TO.N,/ARCHITECTURE/3. SENSING/VSENSE_17V*%
G36*
X152566934Y-74352683D02*
G01*
X152569847Y-74356442D01*
X152877012Y-74984791D01*
X152877567Y-74993728D01*
X152871639Y-75000440D01*
X152867593Y-75001578D01*
X152749491Y-75012645D01*
X152627760Y-75041038D01*
X152627757Y-75041038D01*
X152627752Y-75041040D01*
X152502064Y-75082999D01*
X152502058Y-75083001D01*
X152502045Y-75083006D01*
X152355540Y-75145220D01*
X152355532Y-75145224D01*
X152212321Y-75218375D01*
X152073819Y-75300616D01*
X152073812Y-75300621D01*
X151948577Y-75386085D01*
X151784950Y-75523434D01*
X151776410Y-75526129D01*
X151769155Y-75522746D01*
X151643204Y-75396795D01*
X151639777Y-75388522D01*
X151642818Y-75380653D01*
X151657774Y-75364203D01*
X151702003Y-75301258D01*
X151741500Y-75225028D01*
X151800458Y-75043371D01*
X151823056Y-74855548D01*
X151809548Y-74684309D01*
X151764307Y-74538181D01*
X151739089Y-74497118D01*
X151700647Y-74434518D01*
X151699238Y-74425674D01*
X151704494Y-74418425D01*
X151709695Y-74416732D01*
X152558419Y-74349916D01*
X152566934Y-74352683D01*
G37*
%TD.AperFunction*%
%TD*%
%TA.AperFunction,Conductor*%
%TO.N,Net-(D502-K)*%
G36*
X156408684Y-90069684D02*
G01*
X156454439Y-90122488D01*
X156465645Y-90173999D01*
X156465645Y-91398637D01*
X156445960Y-91465676D01*
X156429326Y-91486318D01*
X155865645Y-92049999D01*
X155865645Y-92526000D01*
X155845960Y-92593039D01*
X155793156Y-92638794D01*
X155741645Y-92650000D01*
X155389645Y-92650000D01*
X155322606Y-92630315D01*
X155276851Y-92577511D01*
X155265645Y-92526000D01*
X155265645Y-92050000D01*
X154701964Y-91486319D01*
X154668479Y-91424996D01*
X154665645Y-91398638D01*
X154665645Y-90173999D01*
X154685330Y-90106960D01*
X154738134Y-90061205D01*
X154789644Y-90049999D01*
X156341648Y-90049999D01*
X156408684Y-90069684D01*
G37*
%TD.AperFunction*%
%TD*%
%TA.AperFunction,Conductor*%
%TO.N,/ARCHITECTURE/3. SENSING/VSENSE_12V*%
G36*
X138831171Y-85969685D02*
G01*
X138851992Y-85986499D01*
X139811496Y-86950000D01*
X141441645Y-86950000D01*
X141508684Y-86969685D01*
X141554439Y-87022489D01*
X141565645Y-87074000D01*
X141565645Y-88326000D01*
X141545960Y-88393039D01*
X141493156Y-88438794D01*
X141441645Y-88450000D01*
X139815644Y-88450000D01*
X138851964Y-89413681D01*
X138790641Y-89447166D01*
X138764283Y-89450000D01*
X136939645Y-89450000D01*
X136872606Y-89430315D01*
X136826851Y-89377511D01*
X136815645Y-89326000D01*
X136815645Y-86074000D01*
X136835330Y-86006961D01*
X136888134Y-85961206D01*
X136939645Y-85950000D01*
X138764132Y-85950000D01*
X138831171Y-85969685D01*
G37*
%TD.AperFunction*%
%TD*%
%TA.AperFunction,Conductor*%
%TO.N,/ARCHITECTURE/5. COMPARATOR/EN_OK*%
G36*
X155784474Y-70440465D02*
G01*
X155787763Y-70446411D01*
X155790451Y-70458980D01*
X155808093Y-70484342D01*
X155808096Y-70484345D01*
X155864950Y-70514184D01*
X155864949Y-70514184D01*
X155883427Y-70516912D01*
X155934639Y-70524476D01*
X155998049Y-70525178D01*
X155998051Y-70525177D01*
X155998053Y-70525178D01*
X156003826Y-70525120D01*
X156012134Y-70528462D01*
X156015644Y-70536700D01*
X156015645Y-70536819D01*
X156015645Y-70763180D01*
X156012218Y-70771453D01*
X156003945Y-70774880D01*
X156003828Y-70774879D01*
X155998095Y-70774821D01*
X155938252Y-70775337D01*
X155938251Y-70775337D01*
X155852311Y-70789770D01*
X155819311Y-70810785D01*
X155802812Y-70821292D01*
X155802811Y-70821292D01*
X155802811Y-70821293D01*
X155788920Y-70844791D01*
X155788919Y-70844793D01*
X155787384Y-70852878D01*
X155782473Y-70860366D01*
X155773706Y-70862190D01*
X155767496Y-70858847D01*
X155686056Y-70775000D01*
X155572561Y-70658150D01*
X155569256Y-70649830D01*
X155572561Y-70641849D01*
X155767930Y-70440705D01*
X155776152Y-70437159D01*
X155784474Y-70440465D01*
G37*
%TD.AperFunction*%
%TD*%
%TA.AperFunction,Conductor*%
%TO.N,/ARCHITECTURE/3. SENSING/VSENSE_17V*%
G36*
X141991606Y-76783562D02*
G01*
X141992218Y-76784002D01*
X142123747Y-76885073D01*
X142124898Y-76886084D01*
X142233332Y-76994947D01*
X142234189Y-76995908D01*
X142319429Y-77102772D01*
X142319884Y-77103382D01*
X142391037Y-77205608D01*
X142452709Y-77294334D01*
X142549846Y-77406567D01*
X142657003Y-77481892D01*
X142657005Y-77481892D01*
X142657007Y-77481894D01*
X142722809Y-77509894D01*
X142799568Y-77530964D01*
X142895531Y-77545121D01*
X142997094Y-77549515D01*
X143005210Y-77553296D01*
X143008287Y-77561204D01*
X143008287Y-77738945D01*
X143004860Y-77747218D01*
X142997250Y-77750626D01*
X142761980Y-77763971D01*
X142761963Y-77763973D01*
X142577110Y-77801725D01*
X142577104Y-77801727D01*
X142429971Y-77857029D01*
X142296842Y-77923650D01*
X142198164Y-77974224D01*
X142197336Y-77974609D01*
X141983864Y-78063743D01*
X141982746Y-78064144D01*
X141859515Y-78101446D01*
X141858761Y-78101647D01*
X141723704Y-78132874D01*
X141714871Y-78131399D01*
X141709669Y-78124111D01*
X141709604Y-78123810D01*
X141565645Y-77404993D01*
X141565599Y-77404765D01*
X141567333Y-77395986D01*
X141975375Y-76786771D01*
X141982825Y-76781805D01*
X141991606Y-76783562D01*
G37*
%TD.AperFunction*%
%TD*%
%TA.AperFunction,Conductor*%
%TO.N,/ARCHITECTURE/5. COMPARATOR/EN_OK*%
G36*
X149433056Y-90759571D02*
G01*
X149436890Y-90767664D01*
X149436508Y-90771262D01*
X149424227Y-90817274D01*
X149424223Y-90817291D01*
X149412335Y-90906664D01*
X149411777Y-91000087D01*
X149411777Y-91000094D01*
X149423824Y-91112010D01*
X149447735Y-91224961D01*
X149447741Y-91224981D01*
X149486167Y-91349464D01*
X149486179Y-91349498D01*
X149534450Y-91469006D01*
X149534453Y-91469013D01*
X149650433Y-91680372D01*
X149650434Y-91680373D01*
X149650436Y-91680375D01*
X149650438Y-91680379D01*
X149700636Y-91743298D01*
X149752981Y-91808909D01*
X149755462Y-91817514D01*
X149752108Y-91824479D01*
X149590669Y-91985918D01*
X149582396Y-91989345D01*
X149574469Y-91986250D01*
X149520755Y-91936753D01*
X149417404Y-91856005D01*
X149417402Y-91856003D01*
X149337717Y-91803045D01*
X149297132Y-91776073D01*
X149026259Y-91632059D01*
X149026258Y-91632058D01*
X149026255Y-91632057D01*
X148753882Y-91527397D01*
X148753872Y-91527393D01*
X148578929Y-91485186D01*
X148507182Y-91467876D01*
X148312328Y-91451351D01*
X148304374Y-91447237D01*
X148301659Y-91438704D01*
X148302501Y-91435233D01*
X148562109Y-90806147D01*
X148568432Y-90799807D01*
X148572337Y-90798926D01*
X149424624Y-90756559D01*
X149433056Y-90759571D01*
G37*
%TD.AperFunction*%
%TD*%
%TA.AperFunction,Conductor*%
%TO.N,/ARCHITECTURE/3. SENSING/VSENSE_12V*%
G36*
X151389463Y-89715242D02*
G01*
X151491682Y-89844844D01*
X151599925Y-90047932D01*
X151646597Y-90167539D01*
X151683990Y-90292678D01*
X151708307Y-90410197D01*
X151720966Y-90526812D01*
X151721106Y-90625330D01*
X151709904Y-90719357D01*
X151690645Y-90794240D01*
X152566352Y-90750709D01*
X152834883Y-90100002D01*
X152615815Y-90082138D01*
X152357458Y-90022390D01*
X152074351Y-89917893D01*
X151800496Y-89776722D01*
X151683940Y-89700620D01*
X151584288Y-89623149D01*
X151530885Y-89573820D01*
X151389463Y-89715242D01*
G37*
%TD.AperFunction*%
%TD*%
%TA.AperFunction,Conductor*%
%TO.N,VREF_2V5*%
G36*
X158624484Y-81176938D02*
G01*
X158819730Y-80998331D01*
X158942436Y-80907190D01*
X159068970Y-80837284D01*
X159137051Y-80813902D01*
X159201712Y-80805014D01*
X159204188Y-80805000D01*
X159221352Y-80051793D01*
X158819645Y-79932315D01*
X158800745Y-80187714D01*
X158743462Y-80448816D01*
X158700852Y-80575946D01*
X158651097Y-80694076D01*
X158595394Y-80801324D01*
X158534894Y-80895893D01*
X158447707Y-81000161D01*
X158624484Y-81176938D01*
G37*
%TD.AperFunction*%
%TD*%
%TA.AperFunction,Conductor*%
%TO.N,GND*%
G36*
X126408684Y-88469685D02*
G01*
X126454439Y-88522489D01*
X126465645Y-88574000D01*
X126465645Y-90750000D01*
X127558066Y-93729329D01*
X127565645Y-93772017D01*
X127565645Y-95426000D01*
X127545960Y-95493039D01*
X127493156Y-95538794D01*
X127441645Y-95550000D01*
X126389645Y-95550000D01*
X126322606Y-95530315D01*
X126276851Y-95477511D01*
X126265645Y-95426000D01*
X126265645Y-93750001D01*
X126265644Y-93749998D01*
X124186983Y-90681498D01*
X124165681Y-90614955D01*
X124165645Y-90611953D01*
X124165645Y-88574000D01*
X124185330Y-88506961D01*
X124238134Y-88461206D01*
X124289645Y-88450000D01*
X126341645Y-88450000D01*
X126408684Y-88469685D01*
G37*
%TD.AperFunction*%
%TD*%
%TA.AperFunction,Conductor*%
%TO.N,/ARCHITECTURE/5. COMPARATOR/EN_OK*%
G36*
X167490645Y-98775000D02*
G01*
X167324980Y-98755327D01*
X167214872Y-98727046D01*
X167100886Y-98686823D01*
X166996780Y-98639032D01*
X166899501Y-98581522D01*
X166827136Y-98526338D01*
X166765773Y-98464764D01*
X166725317Y-98409060D01*
X166695971Y-98349185D01*
X166686316Y-98319032D01*
X165964645Y-98950002D01*
X166767422Y-99526779D01*
X166799138Y-99417034D01*
X166869382Y-99310973D01*
X166982426Y-99208881D01*
X167139576Y-99116904D01*
X167326275Y-99049177D01*
X167414233Y-99031117D01*
X167490645Y-99025000D01*
X167490645Y-98775000D01*
G37*
%TD.AperFunction*%
%TD*%
%TA.AperFunction,Conductor*%
%TO.N,/ARCHITECTURE/5. COMPARATOR/12V_OK*%
G36*
X152175236Y-84912864D02*
G01*
X152306129Y-84948254D01*
X152307780Y-84948837D01*
X152417287Y-84997021D01*
X152418735Y-84997784D01*
X152505840Y-85051828D01*
X152506694Y-85052412D01*
X152581520Y-85108558D01*
X152581644Y-85108652D01*
X152612583Y-85132517D01*
X152612586Y-85132519D01*
X152612590Y-85132522D01*
X152649341Y-85156406D01*
X152730883Y-85209400D01*
X152865205Y-85256728D01*
X152952138Y-85270216D01*
X153044876Y-85274486D01*
X153052983Y-85278290D01*
X153056038Y-85286174D01*
X153056038Y-85514215D01*
X153052611Y-85522488D01*
X153045289Y-85525876D01*
X152887994Y-85538697D01*
X152763502Y-85575391D01*
X152763500Y-85575392D01*
X152666671Y-85628483D01*
X152581603Y-85691380D01*
X152581599Y-85691383D01*
X152489730Y-85759247D01*
X152488332Y-85760134D01*
X152349163Y-85835198D01*
X152347518Y-85835928D01*
X152264445Y-85865377D01*
X152263336Y-85865709D01*
X152175053Y-85887468D01*
X152166200Y-85886121D01*
X152160893Y-85878908D01*
X152160787Y-85878439D01*
X152065108Y-85402304D01*
X152065108Y-85397695D01*
X152090725Y-85270215D01*
X152160728Y-84921856D01*
X152165718Y-84914421D01*
X152174504Y-84912691D01*
X152175236Y-84912864D01*
G37*
%TD.AperFunction*%
%TD*%
%TA.AperFunction,Conductor*%
%TO.N,GND*%
G36*
X168198903Y-95807285D02*
G01*
X168425616Y-96034754D01*
X168474105Y-96083405D01*
X168477518Y-96091683D01*
X168474077Y-96099951D01*
X168468031Y-96103153D01*
X168444315Y-96107720D01*
X168444310Y-96107722D01*
X168411527Y-96125224D01*
X168375431Y-96162872D01*
X168349414Y-96211169D01*
X168322365Y-96313320D01*
X168316482Y-96389204D01*
X168312426Y-96397188D01*
X168304817Y-96400000D01*
X168077074Y-96400000D01*
X168068801Y-96396573D01*
X168065377Y-96388575D01*
X168065092Y-96376417D01*
X168053725Y-96300473D01*
X168047150Y-96256538D01*
X168009998Y-96168997D01*
X167959049Y-96118121D01*
X167959048Y-96118120D01*
X167927577Y-96104766D01*
X167927573Y-96104765D01*
X167927572Y-96104765D01*
X167914198Y-96103039D01*
X167906434Y-96098582D01*
X167904094Y-96089938D01*
X167907409Y-96083179D01*
X168182359Y-95807313D01*
X168190626Y-95803873D01*
X168198903Y-95807285D01*
G37*
%TD.AperFunction*%
%TD*%
%TA.AperFunction,Conductor*%
%TO.N,VCC_5V*%
G36*
X149581322Y-78569685D02*
G01*
X149601964Y-78586319D01*
X150165645Y-79150000D01*
X155691645Y-79150000D01*
X155758684Y-79169685D01*
X155804439Y-79222489D01*
X155815645Y-79274000D01*
X155815645Y-80776000D01*
X155795960Y-80843039D01*
X155743156Y-80888794D01*
X155691645Y-80900000D01*
X150565644Y-80900000D01*
X149265645Y-81899999D01*
X149265645Y-82598638D01*
X149245960Y-82665677D01*
X149229326Y-82686319D01*
X149051964Y-82863681D01*
X148990641Y-82897166D01*
X148964283Y-82900000D01*
X146915644Y-82900000D01*
X146701964Y-83113681D01*
X146640641Y-83147166D01*
X146614283Y-83150000D01*
X145115644Y-83150000D01*
X145065645Y-83199999D01*
X145065645Y-83150000D01*
X143765645Y-83150000D01*
X143765645Y-83450000D01*
X143734973Y-83450000D01*
X143718539Y-83375271D01*
X143718549Y-83375124D01*
X143718479Y-83374996D01*
X143715645Y-83348638D01*
X143715645Y-79097583D01*
X143735330Y-79030544D01*
X143747477Y-79014631D01*
X144128702Y-78591048D01*
X144188180Y-78554387D01*
X144220870Y-78550000D01*
X149514283Y-78550000D01*
X149581322Y-78569685D01*
G37*
%TD.AperFunction*%
%TD*%
%TA.AperFunction,Conductor*%
%TO.N,/ARCHITECTURE/3. SENSING/VSENSE_12V*%
G36*
X153345977Y-91788910D02*
G01*
X153288164Y-91703691D01*
X153261056Y-91636956D01*
X153241933Y-91562049D01*
X153233630Y-91487419D01*
X153237001Y-91411915D01*
X153250551Y-91349869D01*
X153275318Y-91291239D01*
X153306583Y-91244986D01*
X153347970Y-91203793D01*
X153440645Y-91150002D01*
X152564938Y-90749295D01*
X152209592Y-91400002D01*
X152348680Y-91418679D01*
X152534481Y-91482855D01*
X152767495Y-91603035D01*
X153023016Y-91774992D01*
X153204555Y-91930332D01*
X153345977Y-91788910D01*
G37*
%TD.AperFunction*%
%TD*%
%TA.AperFunction,Conductor*%
%TO.N,GND*%
G36*
X146816146Y-83887634D02*
G01*
X146818910Y-83893255D01*
X146824014Y-83920352D01*
X146843792Y-83967609D01*
X146888170Y-84034280D01*
X146947386Y-84098360D01*
X147043025Y-84178475D01*
X147070075Y-84196693D01*
X147146685Y-84248291D01*
X147323771Y-84338403D01*
X147329590Y-84345210D01*
X147328893Y-84354137D01*
X147326738Y-84357104D01*
X147166590Y-84517252D01*
X147158317Y-84520679D01*
X147154388Y-84520000D01*
X147151581Y-84518999D01*
X147151580Y-84518998D01*
X147151578Y-84518998D01*
X147131809Y-84514929D01*
X147101404Y-84508672D01*
X147046091Y-84507932D01*
X147043812Y-84507902D01*
X147043811Y-84507902D01*
X147043809Y-84507902D01*
X146926439Y-84534858D01*
X146926434Y-84534861D01*
X146823876Y-84594260D01*
X146823875Y-84594261D01*
X146745175Y-84680970D01*
X146745173Y-84680973D01*
X146702964Y-84774608D01*
X146696440Y-84780742D01*
X146687490Y-84780466D01*
X146682411Y-84776056D01*
X146512745Y-84507902D01*
X146370242Y-84282679D01*
X146368715Y-84273856D01*
X146372341Y-84267693D01*
X146799626Y-83886687D01*
X146808082Y-83883740D01*
X146816146Y-83887634D01*
G37*
%TD.AperFunction*%
%TD*%
%TA.AperFunction,Conductor*%
%TO.N,GND*%
G36*
X147035694Y-84145434D02*
G01*
X147150730Y-84152096D01*
X147151984Y-84152236D01*
X147307443Y-84178297D01*
X147315036Y-84183044D01*
X147317048Y-84191770D01*
X147316992Y-84192078D01*
X147267098Y-84447674D01*
X147265324Y-84451961D01*
X147119921Y-84668158D01*
X147112460Y-84673111D01*
X147103683Y-84671338D01*
X147102948Y-84670801D01*
X147064795Y-84640583D01*
X147063409Y-84639289D01*
X147028412Y-84600862D01*
X147027194Y-84599271D01*
X146978072Y-84522168D01*
X146978036Y-84522111D01*
X146940700Y-84462757D01*
X146885689Y-84418298D01*
X146842104Y-84404788D01*
X146794943Y-84400889D01*
X146786980Y-84396792D01*
X146784207Y-84389229D01*
X146784207Y-84161503D01*
X146787634Y-84153230D01*
X146795705Y-84149805D01*
X146898188Y-84148056D01*
X146952345Y-84147132D01*
X146987793Y-84146395D01*
X147034803Y-84145418D01*
X147035694Y-84145434D01*
G37*
%TD.AperFunction*%
%TD*%
%TA.AperFunction,Conductor*%
%TO.N,GND*%
G36*
X149508684Y-70469685D02*
G01*
X149554439Y-70522489D01*
X149565645Y-70574000D01*
X149565645Y-71726000D01*
X149545960Y-71793039D01*
X149493156Y-71838794D01*
X149441645Y-71850000D01*
X147965644Y-71850000D01*
X147165645Y-72649999D01*
X147165645Y-73926000D01*
X147145960Y-73993039D01*
X147093156Y-74038794D01*
X147041645Y-74050000D01*
X137089645Y-74050000D01*
X137022606Y-74030315D01*
X136976851Y-73977511D01*
X136965645Y-73926000D01*
X136965645Y-72774000D01*
X136985330Y-72706961D01*
X137038134Y-72661206D01*
X137089645Y-72650000D01*
X138965645Y-72650000D01*
X140529326Y-71086319D01*
X140590649Y-71052834D01*
X140617007Y-71050000D01*
X146965645Y-71050000D01*
X147529326Y-70486319D01*
X147590649Y-70452834D01*
X147617007Y-70450000D01*
X149441645Y-70450000D01*
X149508684Y-70469685D01*
G37*
%TD.AperFunction*%
%TD*%
%TA.AperFunction,Conductor*%
%TO.N,/ARCHITECTURE/3. SENSING/VSENSE_17V*%
G36*
X156956819Y-73163747D02*
G01*
X157010535Y-73213246D01*
X157113881Y-73293990D01*
X157113887Y-73293995D01*
X157153729Y-73320473D01*
X157234158Y-73373926D01*
X157505031Y-73517940D01*
X157777418Y-73622606D01*
X158024101Y-73682121D01*
X158024103Y-73682121D01*
X158024107Y-73682122D01*
X158110899Y-73689482D01*
X158218962Y-73698647D01*
X158226915Y-73702761D01*
X158229630Y-73711294D01*
X158228787Y-73714768D01*
X157969180Y-74343850D01*
X157962857Y-74350191D01*
X157958946Y-74351073D01*
X157106666Y-74393439D01*
X157098233Y-74390427D01*
X157094399Y-74382334D01*
X157094780Y-74378742D01*
X157107066Y-74332712D01*
X157118954Y-74243335D01*
X157119513Y-74149904D01*
X157107467Y-74037997D01*
X157083553Y-73925033D01*
X157080908Y-73916466D01*
X157045122Y-73800534D01*
X157045110Y-73800500D01*
X157003970Y-73698647D01*
X156996838Y-73680989D01*
X156964800Y-73622604D01*
X156880856Y-73469626D01*
X156880855Y-73469625D01*
X156880854Y-73469623D01*
X156880852Y-73469620D01*
X156817753Y-73390531D01*
X156778308Y-73341089D01*
X156775827Y-73332484D01*
X156779180Y-73325520D01*
X156940621Y-73164079D01*
X156948893Y-73160653D01*
X156956819Y-73163747D01*
G37*
%TD.AperFunction*%
%TD*%
%TA.AperFunction,Conductor*%
%TO.N,GND*%
G36*
X137823891Y-91757198D02*
G01*
X138448699Y-92378186D01*
X138452151Y-92386448D01*
X138448749Y-92394732D01*
X138441949Y-92398088D01*
X138380546Y-92406017D01*
X138316635Y-92428583D01*
X138257114Y-92461687D01*
X138192831Y-92512099D01*
X138135178Y-92572393D01*
X138135166Y-92572408D01*
X138076724Y-92651708D01*
X138076720Y-92651715D01*
X138028088Y-92736910D01*
X138028080Y-92736927D01*
X137988296Y-92827694D01*
X137988291Y-92827709D01*
X137960188Y-92915875D01*
X137942104Y-93039987D01*
X137937520Y-93047680D01*
X137930526Y-93050000D01*
X137702141Y-93050000D01*
X137693868Y-93046573D01*
X137690443Y-93038512D01*
X137690431Y-93037865D01*
X137690430Y-93037849D01*
X137681574Y-92962547D01*
X137681574Y-92962544D01*
X137660098Y-92877345D01*
X137587938Y-92707794D01*
X137493159Y-92568912D01*
X137388727Y-92471695D01*
X137279704Y-92414653D01*
X137260704Y-92411384D01*
X137187991Y-92398873D01*
X137180419Y-92394092D01*
X137178444Y-92385358D01*
X137181725Y-92379046D01*
X137807398Y-91757198D01*
X137815681Y-91753797D01*
X137823891Y-91757198D01*
G37*
%TD.AperFunction*%
%TD*%
%TA.AperFunction,Conductor*%
%TO.N,GND*%
G36*
X162908600Y-77184893D02*
G01*
X162914279Y-77191817D01*
X162914548Y-77192886D01*
X162966174Y-77447677D01*
X162966174Y-77452323D01*
X162914508Y-77707311D01*
X162909506Y-77714739D01*
X162900718Y-77716455D01*
X162899826Y-77716238D01*
X162780869Y-77682240D01*
X162779117Y-77681583D01*
X162690745Y-77640149D01*
X162690741Y-77640147D01*
X162642010Y-77619640D01*
X162577266Y-77592395D01*
X162577262Y-77592394D01*
X162509679Y-77579675D01*
X162509677Y-77579674D01*
X162509673Y-77579674D01*
X162496532Y-77578981D01*
X162432013Y-77575583D01*
X162423932Y-77571725D01*
X162420929Y-77563899D01*
X162420929Y-77336062D01*
X162424356Y-77327789D01*
X162431972Y-77324380D01*
X162514307Y-77319762D01*
X162584402Y-77305604D01*
X162690740Y-77259853D01*
X162758499Y-77226933D01*
X162760206Y-77226264D01*
X162899690Y-77184011D01*
X162908600Y-77184893D01*
G37*
%TD.AperFunction*%
%TD*%
%TA.AperFunction,Conductor*%
%TO.N,/ARCHITECTURE/1. INTERCONNECTS/VIN*%
G36*
X134258684Y-72669685D02*
G01*
X134304439Y-72722489D01*
X134315645Y-72774000D01*
X134315645Y-78526000D01*
X134295960Y-78593039D01*
X134243156Y-78638794D01*
X134191645Y-78650000D01*
X128065644Y-78650000D01*
X127065645Y-79649999D01*
X127065645Y-84598638D01*
X127045960Y-84665677D01*
X127029326Y-84686319D01*
X125101964Y-86613681D01*
X125040641Y-86647166D01*
X125014283Y-86650000D01*
X115689645Y-86650000D01*
X115622606Y-86630315D01*
X115576851Y-86577511D01*
X115565645Y-86526000D01*
X115565645Y-84774000D01*
X115585330Y-84706961D01*
X115638134Y-84661206D01*
X115689645Y-84650000D01*
X124065645Y-84650000D01*
X125315645Y-83400000D01*
X125315645Y-72774000D01*
X125335330Y-72706961D01*
X125388134Y-72661206D01*
X125439645Y-72650000D01*
X134191645Y-72650000D01*
X134258684Y-72669685D01*
G37*
%TD.AperFunction*%
%TD*%
%TA.AperFunction,Conductor*%
%TO.N,GND*%
G36*
X147830182Y-84165635D02*
G01*
X147971966Y-84228983D01*
X148442736Y-84439318D01*
X148448891Y-84445821D01*
X148448645Y-84454773D01*
X148442736Y-84460682D01*
X147831780Y-84733650D01*
X147822828Y-84733896D01*
X147816325Y-84727741D01*
X147816174Y-84727389D01*
X147811263Y-84715354D01*
X147781934Y-84673174D01*
X147741798Y-84638157D01*
X147741792Y-84638153D01*
X147671838Y-84599707D01*
X147594253Y-84573253D01*
X147503698Y-84555408D01*
X147503688Y-84555407D01*
X147503687Y-84555407D01*
X147492356Y-84554595D01*
X147439010Y-84550777D01*
X147431002Y-84546768D01*
X147428145Y-84539107D01*
X147428145Y-84360268D01*
X147431572Y-84351995D01*
X147438324Y-84348668D01*
X147582124Y-84329855D01*
X147702098Y-84285967D01*
X147779933Y-84228983D01*
X147815396Y-84170267D01*
X147822606Y-84164959D01*
X147830182Y-84165635D01*
G37*
%TD.AperFunction*%
%TD*%
%TA.AperFunction,Conductor*%
%TO.N,Net-(D501-K)*%
G36*
X155762419Y-72469685D02*
G01*
X155783061Y-72486319D01*
X155829326Y-72532584D01*
X155862811Y-72593907D01*
X155865645Y-72620265D01*
X155865645Y-73050000D01*
X156429326Y-73613681D01*
X156462811Y-73675004D01*
X156465645Y-73701362D01*
X156465645Y-74926000D01*
X156445960Y-74993039D01*
X156393156Y-75038794D01*
X156341645Y-75050000D01*
X154789645Y-75050000D01*
X154722606Y-75030315D01*
X154676851Y-74977511D01*
X154665645Y-74926000D01*
X154665645Y-73701362D01*
X154685330Y-73634323D01*
X154701964Y-73613681D01*
X155265645Y-73050000D01*
X155265645Y-72574000D01*
X155285330Y-72506961D01*
X155338134Y-72461206D01*
X155389645Y-72450000D01*
X155695380Y-72450000D01*
X155762419Y-72469685D01*
G37*
%TD.AperFunction*%
%TD*%
%TA.AperFunction,Conductor*%
%TO.N,/ARCHITECTURE/2. POLARITY PROTECTION/VPROT*%
G36*
X138833084Y-80669685D02*
G01*
X138851562Y-80684207D01*
X139865644Y-81650000D01*
X139865645Y-81650000D01*
X142991645Y-81650000D01*
X143058684Y-81669685D01*
X143104439Y-81722489D01*
X143115645Y-81774000D01*
X143115645Y-83326000D01*
X143095960Y-83393039D01*
X143043156Y-83438794D01*
X142991645Y-83450000D01*
X139865644Y-83450000D01*
X138851069Y-84367950D01*
X138788151Y-84398331D01*
X138767876Y-84400000D01*
X136353189Y-84400000D01*
X136286150Y-84380315D01*
X136284406Y-84379174D01*
X135728175Y-84008353D01*
X135565645Y-83900000D01*
X134465645Y-83900000D01*
X133215645Y-83900000D01*
X133215645Y-81274000D01*
X133235330Y-81206961D01*
X133288134Y-81161206D01*
X133339645Y-81150000D01*
X135565645Y-81150000D01*
X136284406Y-80670826D01*
X136351105Y-80650018D01*
X136353189Y-80650000D01*
X138766045Y-80650000D01*
X138833084Y-80669685D01*
G37*
%TD.AperFunction*%
%TD*%
%TA.AperFunction,Conductor*%
%TO.N,GND*%
G36*
X162223252Y-77006129D02*
G01*
X162226404Y-77010436D01*
X162238569Y-77039077D01*
X162275081Y-77093153D01*
X162275086Y-77093160D01*
X162322296Y-77141310D01*
X162322298Y-77141312D01*
X162393227Y-77193428D01*
X162473275Y-77236586D01*
X162575176Y-77276751D01*
X162676696Y-77304648D01*
X162830387Y-77323726D01*
X162838174Y-77328146D01*
X162840645Y-77335337D01*
X162840645Y-77564412D01*
X162837218Y-77572685D01*
X162830506Y-77576007D01*
X162662180Y-77598673D01*
X162662172Y-77598675D01*
X162488607Y-77656457D01*
X162355776Y-77731924D01*
X162267689Y-77816097D01*
X162227101Y-77891858D01*
X162220174Y-77897532D01*
X162211263Y-77896646D01*
X162207907Y-77893950D01*
X162068942Y-77731924D01*
X161833676Y-77457615D01*
X161830892Y-77449106D01*
X161833676Y-77442384D01*
X162206756Y-77007391D01*
X162214741Y-77003344D01*
X162223252Y-77006129D01*
G37*
%TD.AperFunction*%
%TD*%
%TA.AperFunction,Conductor*%
%TO.N,GND*%
G36*
X137937856Y-92508711D02*
G01*
X137941265Y-92516329D01*
X137945883Y-92598667D01*
X137960040Y-92668753D01*
X137960043Y-92668763D01*
X138005794Y-92775101D01*
X138038710Y-92842852D01*
X138039382Y-92844572D01*
X138057171Y-92903293D01*
X138081633Y-92984044D01*
X138080752Y-92992955D01*
X138073828Y-92998633D01*
X138072759Y-92998903D01*
X137817968Y-93050529D01*
X137813322Y-93050529D01*
X137558333Y-92998863D01*
X137550905Y-92993861D01*
X137549189Y-92985073D01*
X137549401Y-92984200D01*
X137583405Y-92865219D01*
X137584061Y-92863471D01*
X137625498Y-92775095D01*
X137673250Y-92661620D01*
X137685971Y-92594027D01*
X137690061Y-92516368D01*
X137693918Y-92508287D01*
X137701745Y-92505284D01*
X137929583Y-92505284D01*
X137937856Y-92508711D01*
G37*
%TD.AperFunction*%
%TD*%
%TA.AperFunction,Conductor*%
%TO.N,GND*%
G36*
X160108600Y-84784893D02*
G01*
X160114279Y-84791817D01*
X160114548Y-84792886D01*
X160166174Y-85047677D01*
X160166174Y-85052323D01*
X160114508Y-85307311D01*
X160109506Y-85314739D01*
X160100718Y-85316455D01*
X160099826Y-85316238D01*
X159980869Y-85282240D01*
X159979117Y-85281583D01*
X159890745Y-85240149D01*
X159890741Y-85240147D01*
X159842010Y-85219640D01*
X159777266Y-85192395D01*
X159777262Y-85192394D01*
X159709679Y-85179675D01*
X159709677Y-85179674D01*
X159709673Y-85179674D01*
X159696532Y-85178981D01*
X159632013Y-85175583D01*
X159623932Y-85171725D01*
X159620929Y-85163899D01*
X159620929Y-84936062D01*
X159624356Y-84927789D01*
X159631972Y-84924380D01*
X159714307Y-84919762D01*
X159784402Y-84905604D01*
X159890740Y-84859853D01*
X159958499Y-84826933D01*
X159960206Y-84826264D01*
X160099690Y-84784011D01*
X160108600Y-84784893D01*
G37*
%TD.AperFunction*%
%TD*%
%TA.AperFunction,Conductor*%
%TO.N,/ARCHITECTURE/3. SENSING/VSENSE_12V*%
G36*
X142298095Y-87557796D02*
G01*
X142303062Y-87565247D01*
X142303139Y-87565682D01*
X142337791Y-87783889D01*
X142337882Y-87784598D01*
X142355720Y-87969166D01*
X142377356Y-88164470D01*
X142377357Y-88164473D01*
X142419410Y-88315670D01*
X142419414Y-88315678D01*
X142455762Y-88391525D01*
X142455764Y-88391529D01*
X142455766Y-88391532D01*
X142506077Y-88471229D01*
X142583647Y-88569573D01*
X142583650Y-88569576D01*
X142583653Y-88569580D01*
X142643275Y-88633251D01*
X142656518Y-88647394D01*
X142679086Y-88671494D01*
X142682240Y-88679875D01*
X142678819Y-88687764D01*
X142553424Y-88813159D01*
X142545151Y-88816586D01*
X142537139Y-88813412D01*
X142440601Y-88722681D01*
X142346615Y-88647394D01*
X142260321Y-88591873D01*
X142260322Y-88591873D01*
X142260302Y-88591863D01*
X142178597Y-88552671D01*
X142178586Y-88552666D01*
X142098309Y-88526335D01*
X142098305Y-88526334D01*
X142058327Y-88518087D01*
X142016324Y-88509422D01*
X142016317Y-88509421D01*
X142016316Y-88509421D01*
X141834826Y-88490076D01*
X141716365Y-88479490D01*
X141715695Y-88479410D01*
X141516792Y-88450000D01*
X141516791Y-88450000D01*
X141419327Y-88435589D01*
X141564938Y-87699293D01*
X142289314Y-87556039D01*
X142298095Y-87557796D01*
G37*
%TD.AperFunction*%
%TD*%
%TA.AperFunction,Conductor*%
%TO.N,/ARCHITECTURE/5. COMPARATOR/EN_OK*%
G36*
X164771786Y-97932919D02*
G01*
X164880852Y-98069624D01*
X164996838Y-98280993D01*
X165045115Y-98400518D01*
X165083553Y-98525037D01*
X165107467Y-98638001D01*
X165119513Y-98749908D01*
X165118954Y-98843339D01*
X165107066Y-98932716D01*
X165090645Y-98994240D01*
X165966352Y-98950709D01*
X166234883Y-98300002D01*
X166024101Y-98282125D01*
X165777418Y-98222610D01*
X165505031Y-98117944D01*
X165234158Y-97973930D01*
X165113886Y-97893998D01*
X165010535Y-97813250D01*
X164948562Y-97756143D01*
X164771786Y-97932919D01*
G37*
%TD.AperFunction*%
%TD*%
%TA.AperFunction,Conductor*%
%TO.N,VREF_2V5*%
G36*
X149508684Y-73419685D02*
G01*
X149554439Y-73472489D01*
X149565645Y-73524000D01*
X149565645Y-76776000D01*
X149545960Y-76843039D01*
X149493156Y-76888794D01*
X149441645Y-76900000D01*
X147689645Y-76900000D01*
X147622606Y-76880315D01*
X147576851Y-76827511D01*
X147565645Y-76776000D01*
X147565645Y-76250000D01*
X147165645Y-75850000D01*
X146189645Y-75850000D01*
X146122606Y-75830315D01*
X146076851Y-75777511D01*
X146065645Y-75726000D01*
X146065645Y-74574000D01*
X146085330Y-74506961D01*
X146138134Y-74461206D01*
X146189645Y-74450000D01*
X147165645Y-74450000D01*
X147565645Y-74050000D01*
X147565645Y-73524000D01*
X147585330Y-73456961D01*
X147638134Y-73411206D01*
X147689645Y-73400000D01*
X149441645Y-73400000D01*
X149508684Y-73419685D01*
G37*
%TD.AperFunction*%
%TD*%
%TA.AperFunction,Conductor*%
%TO.N,GND*%
G36*
X168312856Y-96383711D02*
G01*
X168316265Y-96391329D01*
X168320883Y-96473667D01*
X168335040Y-96543753D01*
X168335043Y-96543763D01*
X168380794Y-96650101D01*
X168413710Y-96717852D01*
X168414382Y-96719572D01*
X168432171Y-96778293D01*
X168456633Y-96859044D01*
X168455752Y-96867955D01*
X168448828Y-96873633D01*
X168447759Y-96873903D01*
X168192968Y-96925529D01*
X168188322Y-96925529D01*
X167933333Y-96873863D01*
X167925905Y-96868861D01*
X167924189Y-96860073D01*
X167924401Y-96859200D01*
X167958405Y-96740219D01*
X167959061Y-96738471D01*
X168000498Y-96650095D01*
X168048250Y-96536620D01*
X168060971Y-96469027D01*
X168065061Y-96391368D01*
X168068918Y-96383287D01*
X168076745Y-96380284D01*
X168304583Y-96380284D01*
X168312856Y-96383711D01*
G37*
%TD.AperFunction*%
%TD*%
%TA.AperFunction,Conductor*%
%TO.N,VREF_2V5*%
G36*
X159816806Y-79279562D02*
G01*
X159717602Y-79348643D01*
X159652955Y-79375280D01*
X159584091Y-79389173D01*
X159534059Y-79387725D01*
X159486332Y-79373818D01*
X159450709Y-79351800D01*
X159418868Y-79318781D01*
X159406046Y-79300000D01*
X159219938Y-80053207D01*
X159621645Y-80218600D01*
X159640115Y-80068282D01*
X159699501Y-79893015D01*
X159803615Y-79698660D01*
X159943039Y-79510680D01*
X159993583Y-79456339D01*
X159816806Y-79279562D01*
G37*
%TD.AperFunction*%
%TD*%
%TA.AperFunction,Conductor*%
%TO.N,GND*%
G36*
X171822957Y-65501136D02*
G01*
X171830384Y-65506138D01*
X171832100Y-65514926D01*
X171831883Y-65515818D01*
X171797885Y-65634775D01*
X171797228Y-65636527D01*
X171755795Y-65724899D01*
X171708040Y-65838378D01*
X171708039Y-65838382D01*
X171695320Y-65905965D01*
X171695319Y-65905975D01*
X171691229Y-65983631D01*
X171687372Y-65991713D01*
X171679545Y-65994716D01*
X171451707Y-65994716D01*
X171443434Y-65991289D01*
X171440025Y-65983671D01*
X171440023Y-65983631D01*
X171435407Y-65901337D01*
X171421249Y-65831243D01*
X171375497Y-65724904D01*
X171342580Y-65657149D01*
X171341907Y-65655430D01*
X171336181Y-65636527D01*
X171299656Y-65515953D01*
X171300538Y-65507044D01*
X171307462Y-65501365D01*
X171308519Y-65501098D01*
X171563325Y-65449470D01*
X171567965Y-65449470D01*
X171822957Y-65501136D01*
G37*
%TD.AperFunction*%
%TD*%
%TA.AperFunction,Conductor*%
%TO.N,Net-(U501A-+)*%
G36*
X158305249Y-84211899D02*
G01*
X158351004Y-84264703D01*
X158362210Y-84316214D01*
X158362210Y-85942214D01*
X158862210Y-86992214D01*
X158862211Y-86992215D01*
X158862212Y-86992217D01*
X159012209Y-87142213D01*
X159012210Y-87142214D01*
X160538210Y-87142214D01*
X160605249Y-87161899D01*
X160651004Y-87214703D01*
X160662210Y-87266214D01*
X160662210Y-87968214D01*
X160642525Y-88035253D01*
X160589721Y-88081008D01*
X160538210Y-88092214D01*
X159012210Y-88092214D01*
X158899410Y-88242614D01*
X158843439Y-88284435D01*
X158800210Y-88292214D01*
X157186210Y-88292214D01*
X157119171Y-88272529D01*
X157073416Y-88219725D01*
X157062210Y-88168214D01*
X157062210Y-87020231D01*
X157074255Y-86966919D01*
X157562210Y-85942214D01*
X157562210Y-84333712D01*
X157568016Y-84313938D01*
X157568963Y-84293348D01*
X157580872Y-84270153D01*
X157581895Y-84266673D01*
X157585085Y-84261951D01*
X157597502Y-84244453D01*
X157652352Y-84201172D01*
X157698627Y-84192214D01*
X158238210Y-84192214D01*
X158305249Y-84211899D01*
G37*
%TD.AperFunction*%
%TD*%
%TA.AperFunction,Conductor*%
%TO.N,VCC_5V*%
G36*
X145065645Y-86400000D02*
G01*
X145565645Y-86900000D01*
X149441645Y-86900000D01*
X149508684Y-86919685D01*
X149554439Y-86972489D01*
X149565645Y-87024000D01*
X149565645Y-88276000D01*
X149545960Y-88343039D01*
X149493156Y-88388794D01*
X149441645Y-88400000D01*
X144614681Y-88400000D01*
X144547642Y-88380315D01*
X144529872Y-88366463D01*
X144504886Y-88343039D01*
X144348613Y-88196532D01*
X143804836Y-87686741D01*
X143769392Y-87626529D01*
X143765645Y-87596278D01*
X143765645Y-83450000D01*
X143765645Y-83150000D01*
X145065645Y-83150000D01*
X145065645Y-86400000D01*
G37*
%TD.AperFunction*%
%TD*%
%TA.AperFunction,Conductor*%
%TO.N,GND*%
G36*
X147331670Y-84184144D02*
G01*
X147454297Y-84222401D01*
X147456525Y-84223360D01*
X147503743Y-84249826D01*
X147545229Y-84273079D01*
X147545682Y-84273347D01*
X147570438Y-84288726D01*
X147570443Y-84288729D01*
X147666078Y-84332484D01*
X147729111Y-84345310D01*
X147799336Y-84349363D01*
X147807397Y-84353261D01*
X147810361Y-84361044D01*
X147810361Y-84539065D01*
X147806934Y-84547338D01*
X147799451Y-84550738D01*
X147717837Y-84556259D01*
X147648680Y-84573092D01*
X147545458Y-84626792D01*
X147460540Y-84674817D01*
X147459057Y-84675523D01*
X147398987Y-84699117D01*
X147397626Y-84699558D01*
X147331230Y-84716644D01*
X147322364Y-84715387D01*
X147316983Y-84708229D01*
X147316847Y-84707636D01*
X147265115Y-84452319D01*
X147265115Y-84447680D01*
X147316720Y-84192990D01*
X147321722Y-84185563D01*
X147330510Y-84183847D01*
X147331670Y-84184144D01*
G37*
%TD.AperFunction*%
%TD*%
%TA.AperFunction,Conductor*%
%TO.N,GND*%
G36*
X159620623Y-84665264D02*
G01*
X159623809Y-84671268D01*
X159631501Y-84710589D01*
X159651069Y-84752868D01*
X159687702Y-84798821D01*
X159734597Y-84837009D01*
X159807323Y-84876498D01*
X159884439Y-84903733D01*
X159884437Y-84903733D01*
X159942990Y-84912742D01*
X160012724Y-84923473D01*
X160020380Y-84928118D01*
X160022645Y-84935037D01*
X160022645Y-85164678D01*
X160019218Y-85172951D01*
X160012405Y-85176287D01*
X159948811Y-85184284D01*
X159913475Y-85188728D01*
X159913473Y-85188728D01*
X159913470Y-85188729D01*
X159784764Y-85233314D01*
X159784759Y-85233316D01*
X159784758Y-85233317D01*
X159784757Y-85233318D01*
X159693389Y-85294422D01*
X159640032Y-85365902D01*
X159640031Y-85365904D01*
X159626227Y-85428856D01*
X159621108Y-85436203D01*
X159612293Y-85437778D01*
X159606523Y-85434621D01*
X159227936Y-85055796D01*
X159224512Y-85047521D01*
X159227940Y-85039251D01*
X159604078Y-84665217D01*
X159612360Y-84661814D01*
X159620623Y-84665264D01*
G37*
%TD.AperFunction*%
%TD*%
%TA.AperFunction,Conductor*%
%TO.N,Net-(D201-A)*%
G36*
X129858684Y-81169685D02*
G01*
X129904439Y-81222489D01*
X129915645Y-81274000D01*
X129915645Y-83900000D01*
X130792275Y-85117541D01*
X130815472Y-85183448D01*
X130815645Y-85189995D01*
X130815645Y-86147462D01*
X130815540Y-86152554D01*
X130665645Y-89799990D01*
X130665645Y-91499963D01*
X130714095Y-95424469D01*
X130695239Y-95491747D01*
X130643004Y-95538150D01*
X130590104Y-95550000D01*
X129489645Y-95550000D01*
X129422606Y-95530315D01*
X129376851Y-95477511D01*
X129365645Y-95426000D01*
X129365645Y-89807613D01*
X129366577Y-89792440D01*
X129815645Y-86150003D01*
X129815645Y-85150000D01*
X129815644Y-85149999D01*
X128698390Y-83935592D01*
X128667487Y-83872928D01*
X128665645Y-83851637D01*
X128665645Y-81274000D01*
X128685330Y-81206961D01*
X128738134Y-81161206D01*
X128789645Y-81150000D01*
X129791645Y-81150000D01*
X129858684Y-81169685D01*
G37*
%TD.AperFunction*%
%TD*%
%TA.AperFunction,Conductor*%
%TO.N,GND*%
G36*
X166222957Y-89501136D02*
G01*
X166230384Y-89506138D01*
X166232100Y-89514926D01*
X166231883Y-89515818D01*
X166197885Y-89634775D01*
X166197228Y-89636527D01*
X166155795Y-89724899D01*
X166108040Y-89838378D01*
X166108039Y-89838382D01*
X166095320Y-89905965D01*
X166095319Y-89905975D01*
X166091229Y-89983631D01*
X166087372Y-89991713D01*
X166079545Y-89994716D01*
X165851707Y-89994716D01*
X165843434Y-89991289D01*
X165840025Y-89983671D01*
X165840023Y-89983631D01*
X165835407Y-89901337D01*
X165821249Y-89831243D01*
X165775497Y-89724904D01*
X165742580Y-89657149D01*
X165741907Y-89655430D01*
X165736181Y-89636527D01*
X165699656Y-89515953D01*
X165700538Y-89507044D01*
X165707462Y-89501365D01*
X165708519Y-89501098D01*
X165963325Y-89449470D01*
X165967965Y-89449470D01*
X166222957Y-89501136D01*
G37*
%TD.AperFunction*%
%TD*%
%TA.AperFunction,Conductor*%
%TO.N,GND*%
G36*
X162808600Y-87384893D02*
G01*
X162814279Y-87391817D01*
X162814548Y-87392886D01*
X162866174Y-87647677D01*
X162866174Y-87652323D01*
X162814508Y-87907311D01*
X162809506Y-87914739D01*
X162800718Y-87916455D01*
X162799826Y-87916238D01*
X162680869Y-87882240D01*
X162679117Y-87881583D01*
X162590745Y-87840149D01*
X162590741Y-87840147D01*
X162542010Y-87819640D01*
X162477266Y-87792395D01*
X162477262Y-87792394D01*
X162409679Y-87779675D01*
X162409677Y-87779674D01*
X162409673Y-87779674D01*
X162396532Y-87778981D01*
X162332013Y-87775583D01*
X162323932Y-87771725D01*
X162320929Y-87763899D01*
X162320929Y-87536062D01*
X162324356Y-87527789D01*
X162331972Y-87524380D01*
X162414307Y-87519762D01*
X162484402Y-87505604D01*
X162590740Y-87459853D01*
X162658499Y-87426933D01*
X162660206Y-87426264D01*
X162799690Y-87384011D01*
X162808600Y-87384893D01*
G37*
%TD.AperFunction*%
%TD*%
%TA.AperFunction,Conductor*%
%TO.N,/ARCHITECTURE/5. COMPARATOR/EN_OK*%
G36*
X167580056Y-99025000D02*
G01*
X167738229Y-99029986D01*
X167867619Y-99044890D01*
X167960988Y-99065650D01*
X168041765Y-99093674D01*
X168182356Y-99171626D01*
X168335815Y-99289569D01*
X168472610Y-99397627D01*
X168648967Y-99523602D01*
X169066645Y-98900000D01*
X168648967Y-98276398D01*
X168394241Y-98463501D01*
X168335814Y-98510431D01*
X168186645Y-98625413D01*
X168114457Y-98670854D01*
X168037285Y-98708176D01*
X167950194Y-98737316D01*
X167848249Y-98758209D01*
X167726515Y-98770792D01*
X167580056Y-98775000D01*
X167580056Y-99025000D01*
G37*
%TD.AperFunction*%
%TD*%
%TA.AperFunction,Conductor*%
%TO.N,/ARCHITECTURE/5. COMPARATOR/EN_OK*%
G36*
X155363793Y-94191152D02*
G01*
X155558727Y-94391848D01*
X155562033Y-94400170D01*
X155558727Y-94408152D01*
X155363360Y-94609293D01*
X155355137Y-94612840D01*
X155346815Y-94609534D01*
X155343526Y-94603587D01*
X155340839Y-94591019D01*
X155323196Y-94565657D01*
X155323193Y-94565654D01*
X155266339Y-94535815D01*
X155266340Y-94535815D01*
X155196654Y-94525524D01*
X155196643Y-94525523D01*
X155133234Y-94524821D01*
X155127462Y-94524879D01*
X155119155Y-94521535D01*
X155115646Y-94513297D01*
X155115645Y-94513180D01*
X155115645Y-94286819D01*
X155119072Y-94278546D01*
X155127345Y-94275119D01*
X155127464Y-94275120D01*
X155133197Y-94275178D01*
X155133220Y-94275177D01*
X155133241Y-94275178D01*
X155193034Y-94274663D01*
X155227253Y-94268915D01*
X155278978Y-94260229D01*
X155278979Y-94260228D01*
X155278981Y-94260228D01*
X155328478Y-94228708D01*
X155342371Y-94205208D01*
X155343906Y-94197120D01*
X155348815Y-94189633D01*
X155357582Y-94187809D01*
X155363793Y-94191152D01*
G37*
%TD.AperFunction*%
%TD*%
%TA.AperFunction,Conductor*%
%TO.N,GND*%
G36*
X166087422Y-89453427D02*
G01*
X166090847Y-89461489D01*
X166090858Y-89462135D01*
X166090859Y-89462151D01*
X166099715Y-89537453D01*
X166099715Y-89537456D01*
X166099716Y-89537457D01*
X166121192Y-89622655D01*
X166193353Y-89792206D01*
X166288131Y-89931088D01*
X166392564Y-90028305D01*
X166501586Y-90085346D01*
X166593298Y-90101125D01*
X166600870Y-90105905D01*
X166602845Y-90114640D01*
X166599562Y-90120954D01*
X165973893Y-90742800D01*
X165965609Y-90746202D01*
X165957397Y-90742800D01*
X165692864Y-90479884D01*
X165332589Y-90121811D01*
X165329138Y-90113550D01*
X165332540Y-90105266D01*
X165339339Y-90101910D01*
X165400747Y-90093981D01*
X165464654Y-90071417D01*
X165524179Y-90038310D01*
X165588455Y-89987902D01*
X165646118Y-89927599D01*
X165704568Y-89848288D01*
X165753206Y-89763080D01*
X165792993Y-89672305D01*
X165821101Y-89584123D01*
X165839186Y-89460013D01*
X165843770Y-89452320D01*
X165850764Y-89450000D01*
X166079149Y-89450000D01*
X166087422Y-89453427D01*
G37*
%TD.AperFunction*%
%TD*%
%TA.AperFunction,Conductor*%
%TO.N,/ARCHITECTURE/5. COMPARATOR/17V_OK*%
G36*
X156408684Y-76769685D02*
G01*
X156454439Y-76822489D01*
X156465645Y-76874000D01*
X156465645Y-78150000D01*
X157095612Y-79119180D01*
X157115643Y-79186117D01*
X157115645Y-79186759D01*
X157115645Y-80776000D01*
X157095960Y-80843039D01*
X157043156Y-80888794D01*
X156991645Y-80900000D01*
X156389645Y-80900000D01*
X156322606Y-80880315D01*
X156276851Y-80827511D01*
X156265645Y-80776000D01*
X156265645Y-79150001D01*
X156265645Y-79150000D01*
X154665645Y-78150000D01*
X151789645Y-78150000D01*
X151722606Y-78130315D01*
X151676851Y-78077511D01*
X151665645Y-78026000D01*
X151665645Y-76874000D01*
X151685330Y-76806961D01*
X151738134Y-76761206D01*
X151789645Y-76750000D01*
X156341645Y-76750000D01*
X156408684Y-76769685D01*
G37*
%TD.AperFunction*%
%TD*%
%TA.AperFunction,Conductor*%
%TO.N,Net-(U501B--)*%
G36*
X158870684Y-76819685D02*
G01*
X158902845Y-76849600D01*
X159015644Y-77000000D01*
X159015645Y-77000000D01*
X160541645Y-77000000D01*
X160608684Y-77019685D01*
X160654439Y-77072489D01*
X160665645Y-77124000D01*
X160665645Y-77826000D01*
X160645960Y-77893039D01*
X160593156Y-77938794D01*
X160541645Y-77950000D01*
X159015644Y-77950000D01*
X158865647Y-78099996D01*
X158365645Y-79150001D01*
X158365645Y-80734601D01*
X158358167Y-80760065D01*
X158354339Y-80786332D01*
X158347523Y-80796313D01*
X158345960Y-80801640D01*
X158335199Y-80815986D01*
X158333081Y-80818419D01*
X158323493Y-80828353D01*
X158299998Y-80856450D01*
X158299185Y-80857385D01*
X158270758Y-80875575D01*
X158242652Y-80894345D01*
X158241044Y-80894590D01*
X158240334Y-80895045D01*
X158238097Y-80895040D01*
X158205631Y-80900000D01*
X157689645Y-80900000D01*
X157622606Y-80880315D01*
X157576851Y-80827511D01*
X157565645Y-80776000D01*
X157565645Y-79150001D01*
X157077690Y-78125294D01*
X157065645Y-78071982D01*
X157065645Y-76924000D01*
X157085330Y-76856961D01*
X157138134Y-76811206D01*
X157189645Y-76800000D01*
X158803645Y-76800000D01*
X158870684Y-76819685D01*
G37*
%TD.AperFunction*%
%TD*%
%TA.AperFunction,Conductor*%
%TO.N,GND*%
G36*
X162223252Y-87206129D02*
G01*
X162226404Y-87210436D01*
X162238569Y-87239077D01*
X162275081Y-87293153D01*
X162275086Y-87293160D01*
X162322296Y-87341310D01*
X162322298Y-87341312D01*
X162393227Y-87393428D01*
X162473275Y-87436586D01*
X162575176Y-87476751D01*
X162676696Y-87504648D01*
X162830387Y-87523726D01*
X162838174Y-87528146D01*
X162840645Y-87535337D01*
X162840645Y-87764412D01*
X162837218Y-87772685D01*
X162830506Y-87776007D01*
X162662180Y-87798673D01*
X162662172Y-87798675D01*
X162488607Y-87856457D01*
X162355776Y-87931924D01*
X162267689Y-88016097D01*
X162227101Y-88091858D01*
X162220174Y-88097532D01*
X162211263Y-88096646D01*
X162207907Y-88093950D01*
X162068942Y-87931924D01*
X161833676Y-87657615D01*
X161830892Y-87649106D01*
X161833676Y-87642384D01*
X162206756Y-87207391D01*
X162214741Y-87203344D01*
X162223252Y-87206129D01*
G37*
%TD.AperFunction*%
%TD*%
%TA.AperFunction,Conductor*%
%TO.N,/ARCHITECTURE/5. COMPARATOR/17V_OK*%
G36*
X153587477Y-72132211D02*
G01*
X153587720Y-72132593D01*
X153652277Y-72238272D01*
X153652778Y-72239179D01*
X153701842Y-72338268D01*
X153702342Y-72339432D01*
X153763384Y-72505908D01*
X153795546Y-72597222D01*
X153804005Y-72621238D01*
X153880179Y-72762218D01*
X153929430Y-72826400D01*
X153942236Y-72843087D01*
X154010118Y-72916367D01*
X154019197Y-72926167D01*
X154022305Y-72934565D01*
X154018887Y-72942391D01*
X153857713Y-73103565D01*
X153849440Y-73106992D01*
X153841851Y-73104196D01*
X153721262Y-73001414D01*
X153610363Y-72944617D01*
X153610360Y-72944616D01*
X153610359Y-72944616D01*
X153504084Y-72923082D01*
X153389158Y-72919075D01*
X153389143Y-72919074D01*
X153389125Y-72919074D01*
X153370171Y-72918611D01*
X153278143Y-72916367D01*
X153276989Y-72916281D01*
X153080570Y-72891938D01*
X153072781Y-72887520D01*
X153070398Y-72878888D01*
X153070524Y-72878098D01*
X153163996Y-72404069D01*
X153168958Y-72396618D01*
X153571256Y-72128950D01*
X153580041Y-72127221D01*
X153587477Y-72132211D01*
G37*
%TD.AperFunction*%
%TD*%
%TA.AperFunction,Conductor*%
%TO.N,GND*%
G36*
X171688721Y-65453427D02*
G01*
X171692038Y-65460102D01*
X171702065Y-65532842D01*
X171724494Y-65599493D01*
X171758284Y-65667916D01*
X171758287Y-65667921D01*
X171848952Y-65789138D01*
X171959736Y-65879728D01*
X171959737Y-65879729D01*
X171959738Y-65879729D01*
X171959740Y-65879731D01*
X172082727Y-65935331D01*
X172177186Y-65949288D01*
X172192546Y-65951558D01*
X172200230Y-65956157D01*
X172202410Y-65964842D01*
X172199084Y-65971430D01*
X171573893Y-66592801D01*
X171565609Y-66596203D01*
X171557397Y-66592801D01*
X170933842Y-65973057D01*
X170930390Y-65964795D01*
X170933792Y-65956511D01*
X170941231Y-65953090D01*
X170979752Y-65950259D01*
X171052023Y-65934295D01*
X171118923Y-65908461D01*
X171187374Y-65869482D01*
X171248402Y-65821959D01*
X171306844Y-65761944D01*
X171355328Y-65696810D01*
X171393789Y-65628539D01*
X171421101Y-65560796D01*
X171438940Y-65459668D01*
X171443752Y-65452115D01*
X171450462Y-65450000D01*
X171680448Y-65450000D01*
X171688721Y-65453427D01*
G37*
%TD.AperFunction*%
%TD*%
%TA.AperFunction,Conductor*%
%TO.N,VREF_2V5*%
G36*
X157284739Y-83969995D02*
G01*
X157431038Y-84116294D01*
X157434465Y-84124567D01*
X157431038Y-84132840D01*
X157429266Y-84134295D01*
X157405092Y-84150449D01*
X157360778Y-84216768D01*
X157360778Y-84216769D01*
X157351208Y-84264876D01*
X157349529Y-84268990D01*
X157308082Y-84332459D01*
X157308070Y-84332481D01*
X157251272Y-84439114D01*
X157251257Y-84439147D01*
X157157892Y-84679069D01*
X157100472Y-84929907D01*
X157082779Y-85157053D01*
X157078720Y-85165035D01*
X157070205Y-85167809D01*
X157067678Y-85167328D01*
X156688561Y-85050856D01*
X156681659Y-85045151D01*
X156680307Y-85039193D01*
X156684781Y-84929907D01*
X156710350Y-84305311D01*
X156714112Y-84297187D01*
X156721055Y-84294134D01*
X156799977Y-84287488D01*
X156884375Y-84257558D01*
X156970282Y-84211509D01*
X157144287Y-84083911D01*
X157268548Y-83969654D01*
X157276956Y-83966578D01*
X157284739Y-83969995D01*
G37*
%TD.AperFunction*%
%TD*%
%TA.AperFunction,Conductor*%
%TO.N,/ARCHITECTURE/2. POLARITY PROTECTION/VPROT*%
G36*
X174445960Y-83870063D02*
G01*
X174434521Y-83885183D01*
X173315645Y-85150000D01*
X173315645Y-86149995D01*
X173315646Y-86150015D01*
X173764687Y-89742336D01*
X173765645Y-89757716D01*
X173765645Y-91426000D01*
X173745960Y-91493039D01*
X173693156Y-91538794D01*
X173641645Y-91550000D01*
X172589645Y-91550000D01*
X172522606Y-91530315D01*
X172476851Y-91477511D01*
X172465645Y-91426000D01*
X172465645Y-89799990D01*
X172315750Y-86152554D01*
X172315645Y-86147462D01*
X172315645Y-85188734D01*
X172335330Y-85121695D01*
X172337676Y-85118176D01*
X173215645Y-83850000D01*
X174451851Y-83850000D01*
X174445960Y-83870063D01*
G37*
%TD.AperFunction*%
%TD*%
%TA.AperFunction,Conductor*%
%TO.N,/ARCHITECTURE/2. POLARITY PROTECTION/VPROT*%
G36*
X174408684Y-81219685D02*
G01*
X174454439Y-81272489D01*
X174465645Y-81324000D01*
X174465645Y-83803024D01*
X174458026Y-83828967D01*
X174454782Y-83850000D01*
X173215645Y-83850000D01*
X173215644Y-83849999D01*
X173215645Y-83849999D01*
X172815645Y-83450000D01*
X172689645Y-83450000D01*
X172622606Y-83430315D01*
X172576851Y-83377511D01*
X172565645Y-83326000D01*
X172565645Y-81774000D01*
X172585330Y-81706961D01*
X172638134Y-81661206D01*
X172689645Y-81650000D01*
X172865643Y-81650000D01*
X172865645Y-81650000D01*
X173178412Y-81247871D01*
X173235109Y-81207039D01*
X173276292Y-81200000D01*
X174341645Y-81200000D01*
X174408684Y-81219685D01*
G37*
%TD.AperFunction*%
%TD*%
%TA.AperFunction,Conductor*%
%TO.N,/ARCHITECTURE/3. SENSING/VSENSE_12V*%
G36*
X157647446Y-91959620D02*
G01*
X157826241Y-91767593D01*
X157951227Y-91655411D01*
X158085625Y-91551235D01*
X158191703Y-91482755D01*
X158294034Y-91431735D01*
X158364869Y-91408469D01*
X158429681Y-91400005D01*
X158430823Y-91400002D01*
X157966352Y-90749295D01*
X157163868Y-91326779D01*
X157243521Y-91338882D01*
X157312682Y-91358915D01*
X157372253Y-91385988D01*
X157422209Y-91418851D01*
X157497508Y-91500711D01*
X157540038Y-91599743D01*
X157547377Y-91706790D01*
X157537067Y-91757259D01*
X157518401Y-91800092D01*
X157506025Y-91818199D01*
X157647446Y-91959620D01*
G37*
%TD.AperFunction*%
%TD*%
%TA.AperFunction,Conductor*%
%TO.N,/ARCHITECTURE/1. INTERCONNECTS/VOUT*%
G36*
X172457918Y-69069685D02*
G01*
X172500542Y-69116121D01*
X174365645Y-72650000D01*
X168822901Y-72650000D01*
X168829356Y-72623319D01*
X170631048Y-69117323D01*
X170679197Y-69066694D01*
X170741337Y-69050000D01*
X172390879Y-69050000D01*
X172457918Y-69069685D01*
G37*
%TD.AperFunction*%
%TD*%
%TA.AperFunction,Conductor*%
%TO.N,/ARCHITECTURE/3. SENSING/VSENSE_17V*%
G36*
X138831171Y-75669685D02*
G01*
X138851992Y-75686499D01*
X139811496Y-76650000D01*
X141441645Y-76650000D01*
X141508684Y-76669685D01*
X141554439Y-76722489D01*
X141565645Y-76774000D01*
X141565645Y-78026000D01*
X141545960Y-78093039D01*
X141493156Y-78138794D01*
X141441645Y-78150000D01*
X139815644Y-78150000D01*
X138851964Y-79113681D01*
X138790641Y-79147166D01*
X138764283Y-79150000D01*
X136939645Y-79150000D01*
X136872606Y-79130315D01*
X136826851Y-79077511D01*
X136815645Y-79026000D01*
X136815645Y-75774000D01*
X136835330Y-75706961D01*
X136888134Y-75661206D01*
X136939645Y-75650000D01*
X138764132Y-75650000D01*
X138831171Y-75669685D01*
G37*
%TD.AperFunction*%
%TD*%
M02*
