%TF.GenerationSoftware,KiCad,Pcbnew,9.0.7+1*%
%TF.CreationDate,Date%
%TF.ProjectId,Input-Protection,496e7075-742d-4507-926f-74656374696f,1.0.0*%
%TF.SameCoordinates,Original*%
%TF.FileFunction,Copper,L1,Top*%
%TF.FilePolarity,Positive*%
%FSLAX46Y46*%
G04 Gerber Fmt 4.6, Leading zero omitted, Abs format (unit mm)*
G04 Created by KiCad*
%MOMM*%
%LPD*%
G01*
G04 APERTURE LIST*
G04 Aperture macros list*
%AMRoundRect*
0 Rectangle with rounded corners*
0 $1 Rounding radius*
0 $2 $3 $4 $5 $6 $7 $8 $9 X,Y pos of 4 corners*
0 Add a 4 corners polygon primitive as box body*
4,1,4,$2,$3,$4,$5,$6,$7,$8,$9,$2,$3,0*
0 Add four circle primitives for the rounded corners*
1,1,$1+$1,$2,$3*
1,1,$1+$1,$4,$5*
1,1,$1+$1,$6,$7*
1,1,$1+$1,$8,$9*
0 Add four rect primitives between the rounded corners*
20,1,$1+$1,$2,$3,$4,$5,0*
20,1,$1+$1,$4,$5,$6,$7,0*
20,1,$1+$1,$6,$7,$8,$9,0*
20,1,$1+$1,$8,$9,$2,$3,0*%
G04 Aperture macros list end*
%TA.AperFunction,NonConductor*%
%ADD10C,0.000000*%
%TD*%
%ADD11C,0.300000*%
%TA.AperFunction,NonConductor*%
%ADD12C,0.300000*%
%TD*%
%ADD13C,0.250000*%
%TA.AperFunction,NonConductor*%
%ADD14C,0.250000*%
%TD*%
%TA.AperFunction,EtchedComponent*%
%ADD15C,0.200000*%
%TD*%
%TA.AperFunction,EtchedComponent*%
%ADD16C,0.000000*%
%TD*%
%TA.AperFunction,SMDPad,CuDef*%
%ADD17RoundRect,0.112500X0.187500X0.112500X-0.187500X0.112500X-0.187500X-0.112500X0.187500X-0.112500X0*%
%TD*%
%TA.AperFunction,SMDPad,CuDef*%
%ADD18RoundRect,0.250000X0.400000X0.625000X-0.400000X0.625000X-0.400000X-0.625000X0.400000X-0.625000X0*%
%TD*%
%TA.AperFunction,SMDPad,CuDef*%
%ADD19RoundRect,0.237500X-0.300000X-0.237500X0.300000X-0.237500X0.300000X0.237500X-0.300000X0.237500X0*%
%TD*%
%TA.AperFunction,SMDPad,CuDef*%
%ADD20R,0.914400X2.413000*%
%TD*%
%TA.AperFunction,SMDPad,CuDef*%
%ADD21R,5.511800X6.070600*%
%TD*%
%TA.AperFunction,SMDPad,CuDef*%
%ADD22RoundRect,0.250000X-0.625000X0.400000X-0.625000X-0.400000X0.625000X-0.400000X0.625000X0.400000X0*%
%TD*%
%TA.AperFunction,SMDPad,CuDef*%
%ADD23RoundRect,0.150000X-0.825000X-0.150000X0.825000X-0.150000X0.825000X0.150000X-0.825000X0.150000X0*%
%TD*%
%TA.AperFunction,ComponentPad*%
%ADD24R,1.500000X1.500000*%
%TD*%
%TA.AperFunction,SMDPad,CuDef*%
%ADD25C,1.000000*%
%TD*%
%TA.AperFunction,SMDPad,CuDef*%
%ADD26RoundRect,0.250000X0.625000X-0.400000X0.625000X0.400000X-0.625000X0.400000X-0.625000X-0.400000X0*%
%TD*%
%TA.AperFunction,SMDPad,CuDef*%
%ADD27C,0.500000*%
%TD*%
%TA.AperFunction,ComponentPad*%
%ADD28R,2.000000X4.500000*%
%TD*%
%TA.AperFunction,ComponentPad*%
%ADD29O,2.000000X4.000000*%
%TD*%
%TA.AperFunction,ComponentPad*%
%ADD30O,4.000000X2.000000*%
%TD*%
%TA.AperFunction,SMDPad,CuDef*%
%ADD31RoundRect,0.237500X0.237500X-0.300000X0.237500X0.300000X-0.237500X0.300000X-0.237500X-0.300000X0*%
%TD*%
%TA.AperFunction,SMDPad,CuDef*%
%ADD32RoundRect,0.250000X0.250000X0.250000X-0.250000X0.250000X-0.250000X-0.250000X0.250000X-0.250000X0*%
%TD*%
%TA.AperFunction,SMDPad,CuDef*%
%ADD33RoundRect,0.250000X-0.400000X-0.625000X0.400000X-0.625000X0.400000X0.625000X-0.400000X0.625000X0*%
%TD*%
%TA.AperFunction,SMDPad,CuDef*%
%ADD34RoundRect,0.237500X0.300000X0.237500X-0.300000X0.237500X-0.300000X-0.237500X0.300000X-0.237500X0*%
%TD*%
%TA.AperFunction,ComponentPad*%
%ADD35C,5.700000*%
%TD*%
%TA.AperFunction,ComponentPad*%
%ADD36RoundRect,0.250000X-0.750000X0.750000X-0.750000X-0.750000X0.750000X-0.750000X0.750000X0.750000X0*%
%TD*%
%TA.AperFunction,ComponentPad*%
%ADD37C,2.000000*%
%TD*%
%TA.AperFunction,SMDPad,CuDef*%
%ADD38R,1.000000X1.500000*%
%TD*%
%TA.AperFunction,ComponentPad*%
%ADD39RoundRect,0.250000X0.750000X-0.750000X0.750000X0.750000X-0.750000X0.750000X-0.750000X-0.750000X0*%
%TD*%
%TA.AperFunction,SMDPad,CuDef*%
%ADD40RoundRect,0.250000X-0.325000X-0.450000X0.325000X-0.450000X0.325000X0.450000X-0.325000X0.450000X0*%
%TD*%
%TA.AperFunction,SMDPad,CuDef*%
%ADD41RoundRect,0.150000X0.150000X-0.587500X0.150000X0.587500X-0.150000X0.587500X-0.150000X-0.587500X0*%
%TD*%
%TA.AperFunction,SMDPad,CuDef*%
%ADD42RoundRect,0.150000X-0.512500X-0.150000X0.512500X-0.150000X0.512500X0.150000X-0.512500X0.150000X0*%
%TD*%
%TA.AperFunction,ViaPad*%
%ADD43C,0.550000*%
%TD*%
%TA.AperFunction,Conductor*%
%ADD44C,0.300000*%
%TD*%
%TA.AperFunction,Conductor*%
%ADD45C,0.200000*%
%TD*%
%TA.AperFunction,Conductor*%
%ADD46C,0.350000*%
%TD*%
G04 APERTURE END LIST*
D10*
%TA.AperFunction,NonConductor*%
G36*
X138056908Y-94452259D02*
G01*
X138293162Y-94479528D01*
X138523720Y-94524145D01*
X138747904Y-94585431D01*
X138965034Y-94662705D01*
X139174428Y-94755287D01*
X139375408Y-94862498D01*
X139567293Y-94983657D01*
X139749404Y-95118084D01*
X139921060Y-95265101D01*
X140081581Y-95424026D01*
X140230288Y-95594179D01*
X140366500Y-95774882D01*
X140489538Y-95965453D01*
X140598721Y-96165214D01*
X140693370Y-96373483D01*
X141420260Y-95463540D01*
X141199120Y-95534080D01*
X141193675Y-95535666D01*
X141188215Y-95536961D01*
X141182748Y-95537968D01*
X141177283Y-95538693D01*
X141171829Y-95539140D01*
X141166395Y-95539314D01*
X141160988Y-95539218D01*
X141155619Y-95538857D01*
X141150296Y-95538237D01*
X141145027Y-95537361D01*
X141139821Y-95536234D01*
X141134688Y-95534860D01*
X141129635Y-95533244D01*
X141124671Y-95531391D01*
X141119806Y-95529305D01*
X141115048Y-95526990D01*
X141110405Y-95524451D01*
X141105887Y-95521693D01*
X141101502Y-95518720D01*
X141097259Y-95515536D01*
X141093167Y-95512146D01*
X141089234Y-95508555D01*
X141085469Y-95504767D01*
X141081881Y-95500787D01*
X141078479Y-95496618D01*
X141075270Y-95492266D01*
X141072265Y-95487736D01*
X141069472Y-95483030D01*
X141066900Y-95478155D01*
X141064556Y-95473115D01*
X141062451Y-95467914D01*
X141060593Y-95462556D01*
X141059006Y-95457111D01*
X141057711Y-95451651D01*
X141056703Y-95446184D01*
X141055978Y-95440719D01*
X141055531Y-95435265D01*
X141055358Y-95429830D01*
X141055454Y-95424424D01*
X141055814Y-95419055D01*
X141056435Y-95413732D01*
X141057311Y-95408463D01*
X141058438Y-95403257D01*
X141059811Y-95398124D01*
X141061427Y-95393071D01*
X141063280Y-95388107D01*
X141065367Y-95383242D01*
X141067681Y-95378484D01*
X141070220Y-95373841D01*
X141072978Y-95369323D01*
X141075952Y-95364938D01*
X141079135Y-95360695D01*
X141082525Y-95356603D01*
X141086116Y-95352670D01*
X141089904Y-95348905D01*
X141093885Y-95345317D01*
X141098053Y-95341915D01*
X141102405Y-95338706D01*
X141106936Y-95335701D01*
X141111641Y-95332908D01*
X141116516Y-95330336D01*
X141121557Y-95327992D01*
X141126758Y-95325887D01*
X141132116Y-95324029D01*
X141857706Y-95092599D01*
X141792253Y-95851373D01*
X141791624Y-95857009D01*
X141790719Y-95862547D01*
X141789547Y-95867981D01*
X141788115Y-95873304D01*
X141786430Y-95878510D01*
X141784500Y-95883593D01*
X141782332Y-95888546D01*
X141779935Y-95893363D01*
X141777315Y-95898038D01*
X141774480Y-95902565D01*
X141771437Y-95906936D01*
X141768195Y-95911146D01*
X141764760Y-95915188D01*
X141761140Y-95919057D01*
X141757343Y-95922745D01*
X141753377Y-95926247D01*
X141749248Y-95929555D01*
X141744964Y-95932665D01*
X141740533Y-95935569D01*
X141735962Y-95938261D01*
X141731259Y-95940734D01*
X141726431Y-95942983D01*
X141721486Y-95945002D01*
X141716431Y-95946783D01*
X141711275Y-95948320D01*
X141706024Y-95949607D01*
X141700685Y-95950639D01*
X141695268Y-95951407D01*
X141689778Y-95951907D01*
X141684223Y-95952132D01*
X141678612Y-95952075D01*
X141672951Y-95951730D01*
X141667316Y-95951100D01*
X141661778Y-95950196D01*
X141656344Y-95949024D01*
X141651021Y-95947591D01*
X141645815Y-95945906D01*
X141640732Y-95943977D01*
X141635779Y-95941809D01*
X141630962Y-95939412D01*
X141626287Y-95936792D01*
X141621761Y-95933957D01*
X141617389Y-95930914D01*
X141613179Y-95927672D01*
X141609136Y-95924237D01*
X141605268Y-95920618D01*
X141601579Y-95916821D01*
X141598077Y-95912854D01*
X141594768Y-95908725D01*
X141591658Y-95904441D01*
X141588754Y-95900010D01*
X141586062Y-95895439D01*
X141583587Y-95890736D01*
X141581338Y-95885909D01*
X141579319Y-95880964D01*
X141577537Y-95875909D01*
X141575999Y-95870753D01*
X141574710Y-95865502D01*
X141573678Y-95860164D01*
X141572908Y-95854746D01*
X141572407Y-95849256D01*
X141572181Y-95843702D01*
X141572237Y-95838091D01*
X141572580Y-95832430D01*
X141592524Y-95601167D01*
X140781436Y-96616502D01*
X140814378Y-96728153D01*
X140843206Y-96841501D01*
X140867835Y-96956457D01*
X140888179Y-97072937D01*
X140904152Y-97190853D01*
X140915668Y-97310120D01*
X140922641Y-97430651D01*
X140924984Y-97552359D01*
X140923080Y-97662080D01*
X140917410Y-97770850D01*
X140908038Y-97878609D01*
X140895027Y-97985291D01*
X140878439Y-98090834D01*
X140858339Y-98195176D01*
X140834788Y-98298252D01*
X140807851Y-98400000D01*
X141146958Y-98400000D01*
X141151442Y-98388070D01*
X141156368Y-98376364D01*
X141161726Y-98364890D01*
X141167504Y-98353660D01*
X141173694Y-98342683D01*
X141180284Y-98331971D01*
X141187265Y-98321532D01*
X141194626Y-98311378D01*
X141202357Y-98301518D01*
X141210448Y-98291963D01*
X141218889Y-98282723D01*
X141227669Y-98273808D01*
X141236779Y-98265229D01*
X141246207Y-98256994D01*
X141255945Y-98249116D01*
X141265981Y-98241604D01*
X141276305Y-98234468D01*
X141286908Y-98227718D01*
X141297778Y-98221365D01*
X141308907Y-98215418D01*
X141320282Y-98209889D01*
X141331896Y-98204787D01*
X141343736Y-98200122D01*
X141355793Y-98195905D01*
X141368057Y-98192146D01*
X141380517Y-98188855D01*
X141393164Y-98186042D01*
X141405987Y-98183718D01*
X141418975Y-98181893D01*
X141432119Y-98180576D01*
X141445409Y-98179779D01*
X141458833Y-98179511D01*
X141475842Y-98179941D01*
X141492628Y-98181220D01*
X141509172Y-98183325D01*
X141525452Y-98186235D01*
X141541447Y-98189931D01*
X141557137Y-98194391D01*
X141572501Y-98199594D01*
X141587517Y-98205519D01*
X141602166Y-98212146D01*
X141616425Y-98219454D01*
X141630275Y-98227421D01*
X141643695Y-98236028D01*
X141656663Y-98245252D01*
X141669159Y-98255075D01*
X141681162Y-98265473D01*
X141692651Y-98276427D01*
X141703605Y-98287916D01*
X141714003Y-98299919D01*
X141723825Y-98312415D01*
X141733050Y-98325383D01*
X141741657Y-98338803D01*
X141749624Y-98352653D01*
X141756932Y-98366912D01*
X141763559Y-98381561D01*
X141769485Y-98396577D01*
X141774688Y-98411941D01*
X141779147Y-98427631D01*
X141782843Y-98443626D01*
X141785754Y-98459906D01*
X141787859Y-98476450D01*
X141789137Y-98493237D01*
X141789567Y-98510245D01*
X141789137Y-98527252D01*
X141787859Y-98544038D01*
X141785754Y-98560580D01*
X141782843Y-98576859D01*
X141779147Y-98592853D01*
X141774688Y-98608542D01*
X141769485Y-98623905D01*
X141763559Y-98638920D01*
X141756932Y-98653568D01*
X141749624Y-98667827D01*
X141741657Y-98681676D01*
X141733050Y-98695095D01*
X141723825Y-98708063D01*
X141714003Y-98720558D01*
X141703605Y-98732561D01*
X141692651Y-98744049D01*
X141681162Y-98755003D01*
X141669159Y-98765401D01*
X141656663Y-98775223D01*
X141643695Y-98784448D01*
X141630275Y-98793054D01*
X141616425Y-98801021D01*
X141602166Y-98808329D01*
X141587517Y-98814956D01*
X141572501Y-98820881D01*
X141557137Y-98826084D01*
X141541447Y-98830544D01*
X141525452Y-98834240D01*
X141509172Y-98837150D01*
X141492628Y-98839255D01*
X141475842Y-98840533D01*
X141458833Y-98840964D01*
X141445409Y-98840696D01*
X141432119Y-98839898D01*
X141405987Y-98836756D01*
X141380517Y-98831619D01*
X141355793Y-98824569D01*
X141331896Y-98815688D01*
X141308907Y-98805056D01*
X141286908Y-98792757D01*
X141265981Y-98778871D01*
X141246207Y-98763480D01*
X141227669Y-98746666D01*
X141210448Y-98728511D01*
X141194626Y-98709096D01*
X141180284Y-98688503D01*
X141167504Y-98666814D01*
X141156368Y-98644110D01*
X141146958Y-98620474D01*
X140736360Y-98620474D01*
X140693423Y-98731082D01*
X140646433Y-98839605D01*
X140595482Y-98945949D01*
X140540665Y-99050020D01*
X140482075Y-99151725D01*
X140419806Y-99250970D01*
X140353951Y-99347662D01*
X140284603Y-99441707D01*
X140211857Y-99533012D01*
X140135805Y-99621483D01*
X140056541Y-99707027D01*
X139974159Y-99789551D01*
X139888751Y-99868960D01*
X139800413Y-99945162D01*
X139709236Y-100018062D01*
X139615315Y-100087568D01*
X139518743Y-100153586D01*
X139419614Y-100216022D01*
X139318021Y-100274783D01*
X139214057Y-100329775D01*
X139107817Y-100380906D01*
X138999393Y-100428080D01*
X138888879Y-100471206D01*
X138776369Y-100510189D01*
X138661956Y-100544936D01*
X138545734Y-100575353D01*
X138427796Y-100601347D01*
X138308235Y-100622825D01*
X138187146Y-100639692D01*
X138064621Y-100651856D01*
X137940755Y-100659223D01*
X137815640Y-100661700D01*
X137668016Y-100658250D01*
X137522157Y-100648003D01*
X137378216Y-100631114D01*
X137236348Y-100607735D01*
X137096707Y-100578021D01*
X136959447Y-100542126D01*
X136824721Y-100500205D01*
X136692684Y-100452410D01*
X136563490Y-100398896D01*
X136437292Y-100339817D01*
X136314244Y-100275327D01*
X136194502Y-100205580D01*
X136078218Y-100130731D01*
X135965546Y-100050932D01*
X135856641Y-99966337D01*
X135751656Y-99877102D01*
X135650746Y-99783380D01*
X135554065Y-99685325D01*
X135461766Y-99583090D01*
X135374003Y-99476831D01*
X135290931Y-99366700D01*
X135212703Y-99252853D01*
X135139474Y-99135442D01*
X135071396Y-99014622D01*
X135008626Y-98890547D01*
X134951316Y-98763370D01*
X134899620Y-98633247D01*
X134853692Y-98500330D01*
X134813687Y-98364774D01*
X134779758Y-98226733D01*
X134752059Y-98086361D01*
X134730744Y-97943812D01*
X134953136Y-97943812D01*
X134974029Y-98074991D01*
X135000749Y-98204144D01*
X135033154Y-98331132D01*
X135071105Y-98455814D01*
X135114461Y-98578050D01*
X135163082Y-98697700D01*
X135216828Y-98814623D01*
X135275558Y-98928680D01*
X135339132Y-99039729D01*
X135407410Y-99147630D01*
X135480252Y-99252244D01*
X135557517Y-99353430D01*
X135639064Y-99451048D01*
X135724755Y-99544957D01*
X135814447Y-99635017D01*
X135908002Y-99721088D01*
X136005279Y-99803029D01*
X136106137Y-99880700D01*
X136210436Y-99953962D01*
X136318036Y-100022673D01*
X136428797Y-100086693D01*
X136542578Y-100145882D01*
X136659238Y-100200100D01*
X136778639Y-100249207D01*
X136900639Y-100293062D01*
X137025099Y-100331524D01*
X137151877Y-100364455D01*
X137280833Y-100391712D01*
X137411828Y-100413156D01*
X137544721Y-100428648D01*
X137679372Y-100438045D01*
X137815640Y-100441209D01*
X138041705Y-100432476D01*
X138263025Y-100406711D01*
X138478951Y-100364561D01*
X138688836Y-100306674D01*
X138892031Y-100233699D01*
X139087888Y-100146283D01*
X139275759Y-100045074D01*
X139454996Y-99930721D01*
X139624951Y-99803872D01*
X139784976Y-99665175D01*
X139934423Y-99515278D01*
X140072642Y-99354829D01*
X140198988Y-99184475D01*
X140312810Y-99004867D01*
X140413462Y-98816650D01*
X140500295Y-98620474D01*
X139284513Y-98620474D01*
X139284513Y-99749305D01*
X139284134Y-99760513D01*
X139283009Y-99771579D01*
X139281157Y-99782472D01*
X139278595Y-99793159D01*
X139275344Y-99803610D01*
X139271420Y-99813792D01*
X139266843Y-99823675D01*
X139261632Y-99833227D01*
X139255804Y-99842416D01*
X139249379Y-99851211D01*
X139242374Y-99859580D01*
X139234810Y-99867491D01*
X139226703Y-99874915D01*
X139218072Y-99881817D01*
X139208937Y-99888169D01*
X139199315Y-99893936D01*
X139189326Y-99899038D01*
X139179100Y-99903418D01*
X139168673Y-99907078D01*
X139158082Y-99910019D01*
X139147364Y-99912241D01*
X139136555Y-99913745D01*
X139125691Y-99914533D01*
X139114810Y-99914605D01*
X139103948Y-99913963D01*
X139093140Y-99912606D01*
X139082425Y-99910537D01*
X139071838Y-99907757D01*
X139061416Y-99904265D01*
X139051195Y-99900063D01*
X139041213Y-99895153D01*
X139031505Y-99889534D01*
X137049128Y-98650557D01*
X137048976Y-98650474D01*
X136824086Y-98510229D01*
X137448634Y-98510229D01*
X138953778Y-99450939D01*
X138953778Y-98510245D01*
X141348586Y-98510245D01*
X141348730Y-98515914D01*
X141349156Y-98521508D01*
X141349857Y-98527022D01*
X141350827Y-98532448D01*
X141352059Y-98537779D01*
X141353546Y-98543008D01*
X141355280Y-98548128D01*
X141357255Y-98553133D01*
X141359464Y-98558015D01*
X141361900Y-98562767D01*
X141364555Y-98567383D01*
X141367424Y-98571856D01*
X141370499Y-98576178D01*
X141373773Y-98580343D01*
X141377239Y-98584343D01*
X141380890Y-98588172D01*
X141384720Y-98591823D01*
X141388721Y-98595289D01*
X141392886Y-98598562D01*
X141397209Y-98601637D01*
X141401682Y-98604505D01*
X141406299Y-98607161D01*
X141411052Y-98609597D01*
X141415935Y-98611805D01*
X141420941Y-98613780D01*
X141426062Y-98615514D01*
X141431293Y-98617001D01*
X141436625Y-98618232D01*
X141442052Y-98619203D01*
X141447567Y-98619904D01*
X141453163Y-98620330D01*
X141458833Y-98620474D01*
X141464503Y-98620330D01*
X141470099Y-98619904D01*
X141475614Y-98619203D01*
X141481041Y-98618232D01*
X141486373Y-98617001D01*
X141491603Y-98615514D01*
X141496725Y-98613780D01*
X141501730Y-98611805D01*
X141506613Y-98609597D01*
X141511366Y-98607161D01*
X141515983Y-98604505D01*
X141520456Y-98601637D01*
X141524779Y-98598562D01*
X141528944Y-98595289D01*
X141532945Y-98591823D01*
X141536774Y-98588172D01*
X141540425Y-98584343D01*
X141543891Y-98580343D01*
X141547165Y-98576178D01*
X141550240Y-98571856D01*
X141553109Y-98567383D01*
X141555764Y-98562767D01*
X141558200Y-98558015D01*
X141560409Y-98553133D01*
X141562384Y-98548128D01*
X141564118Y-98543008D01*
X141565604Y-98537779D01*
X141566836Y-98532448D01*
X141567806Y-98527022D01*
X141568508Y-98521508D01*
X141568934Y-98515914D01*
X141569077Y-98510245D01*
X141568934Y-98504575D01*
X141568508Y-98498979D01*
X141567806Y-98493464D01*
X141566836Y-98488038D01*
X141565604Y-98482705D01*
X141564118Y-98477475D01*
X141562384Y-98472354D01*
X141560409Y-98467348D01*
X141558200Y-98462465D01*
X141555764Y-98457712D01*
X141553109Y-98453095D01*
X141550240Y-98448622D01*
X141547165Y-98444299D01*
X141543891Y-98440134D01*
X141540425Y-98436133D01*
X141536774Y-98432304D01*
X141532945Y-98428653D01*
X141528944Y-98425187D01*
X141524779Y-98421913D01*
X141520456Y-98418838D01*
X141515983Y-98415969D01*
X141511366Y-98413314D01*
X141506613Y-98410878D01*
X141501730Y-98408669D01*
X141496725Y-98406694D01*
X141491603Y-98404960D01*
X141486373Y-98403473D01*
X141481041Y-98402241D01*
X141475614Y-98401271D01*
X141470099Y-98400570D01*
X141464503Y-98400144D01*
X141458833Y-98400000D01*
X141453163Y-98400144D01*
X141447567Y-98400570D01*
X141442052Y-98401271D01*
X141436625Y-98402241D01*
X141431293Y-98403473D01*
X141426062Y-98404960D01*
X141420941Y-98406694D01*
X141415935Y-98408669D01*
X141411052Y-98410878D01*
X141406299Y-98413314D01*
X141401682Y-98415969D01*
X141397209Y-98418838D01*
X141392886Y-98421913D01*
X141388721Y-98425187D01*
X141384720Y-98428653D01*
X141380890Y-98432304D01*
X141377239Y-98436133D01*
X141373773Y-98440134D01*
X141370499Y-98444299D01*
X141367424Y-98448622D01*
X141364555Y-98453095D01*
X141361900Y-98457712D01*
X141359464Y-98462465D01*
X141357255Y-98467348D01*
X141355280Y-98472354D01*
X141353546Y-98477475D01*
X141352059Y-98482705D01*
X141350827Y-98488038D01*
X141349857Y-98493464D01*
X141349156Y-98498979D01*
X141348730Y-98504575D01*
X141348586Y-98510245D01*
X138953778Y-98510245D01*
X138953778Y-98400000D01*
X139284513Y-98400000D01*
X140577940Y-98400000D01*
X140607000Y-98298700D01*
X140632425Y-98195922D01*
X140654139Y-98091741D01*
X140672071Y-97986229D01*
X140686145Y-97879462D01*
X140696289Y-97771512D01*
X140702430Y-97662453D01*
X140704493Y-97552359D01*
X140702428Y-97442222D01*
X140696283Y-97333122D01*
X140686131Y-97225133D01*
X140672045Y-97118329D01*
X140654100Y-97012783D01*
X140632368Y-96908569D01*
X140606923Y-96805762D01*
X140577839Y-96704434D01*
X139286547Y-96704618D01*
X139285531Y-97271435D01*
X139285509Y-97273727D01*
X139285456Y-97276012D01*
X139285373Y-97278290D01*
X139285259Y-97280559D01*
X139285116Y-97282820D01*
X139284944Y-97285072D01*
X139284743Y-97287314D01*
X139284513Y-97289546D01*
X139284513Y-98400000D01*
X138953778Y-98400000D01*
X138953778Y-97569502D01*
X137448634Y-98510229D01*
X136824086Y-98510229D01*
X136675434Y-98417527D01*
X136673016Y-99749606D01*
X136672785Y-99758110D01*
X136672131Y-99766502D01*
X136671063Y-99774772D01*
X136669593Y-99782909D01*
X136667731Y-99790903D01*
X136665487Y-99798744D01*
X136662872Y-99806421D01*
X136659896Y-99813924D01*
X136656570Y-99821242D01*
X136652903Y-99828365D01*
X136648907Y-99835282D01*
X136644592Y-99841984D01*
X136639968Y-99848459D01*
X136635046Y-99854698D01*
X136629836Y-99860690D01*
X136624349Y-99866424D01*
X136618595Y-99871890D01*
X136612585Y-99877078D01*
X136606328Y-99881977D01*
X136599836Y-99886578D01*
X136593119Y-99890868D01*
X136586187Y-99894839D01*
X136579051Y-99898480D01*
X136571721Y-99901780D01*
X136564208Y-99904729D01*
X136556521Y-99907316D01*
X136548673Y-99909531D01*
X136540672Y-99911364D01*
X136532529Y-99912805D01*
X136524256Y-99913842D01*
X136515861Y-99914466D01*
X136507357Y-99914665D01*
X136498853Y-99914435D01*
X136490461Y-99913780D01*
X136482191Y-99912713D01*
X136474054Y-99911243D01*
X136466059Y-99909381D01*
X136458219Y-99907137D01*
X136450542Y-99904522D01*
X136443039Y-99901545D01*
X136435721Y-99898219D01*
X136428598Y-99894552D01*
X136421681Y-99890556D01*
X136414979Y-99886241D01*
X136408504Y-99881618D01*
X136402265Y-99876696D01*
X136396273Y-99871486D01*
X136390539Y-99865999D01*
X136385073Y-99860245D01*
X136379885Y-99854234D01*
X136374986Y-99847978D01*
X136370385Y-99841485D01*
X136366095Y-99834768D01*
X136362124Y-99827836D01*
X136358483Y-99820700D01*
X136355183Y-99813370D01*
X136352235Y-99805857D01*
X136349647Y-99798170D01*
X136347432Y-99790322D01*
X136345599Y-99782321D01*
X136344159Y-99774178D01*
X136343122Y-99765905D01*
X136342498Y-99757510D01*
X136342298Y-99749005D01*
X136345398Y-98028210D01*
X136676135Y-98028210D01*
X137136526Y-98315286D01*
X138777692Y-97289546D01*
X138954962Y-97178750D01*
X138955812Y-96704668D01*
X138617206Y-96704701D01*
X138615260Y-96706840D01*
X138613275Y-96708946D01*
X138611251Y-96711019D01*
X138609189Y-96713059D01*
X138607089Y-96715065D01*
X138604951Y-96717036D01*
X138602775Y-96718971D01*
X138600563Y-96720871D01*
X138598314Y-96722734D01*
X138596028Y-96724560D01*
X138593706Y-96726348D01*
X138591349Y-96728098D01*
X138588956Y-96729809D01*
X138586528Y-96731480D01*
X138584066Y-96733111D01*
X138581569Y-96734701D01*
X136676318Y-97925501D01*
X136676135Y-98028210D01*
X136345398Y-98028210D01*
X136345550Y-97943812D01*
X134953136Y-97943812D01*
X134730744Y-97943812D01*
X134286346Y-97943812D01*
X134286346Y-98164302D01*
X133624875Y-98164302D01*
X133624875Y-97943812D01*
X133624875Y-97723338D01*
X133845365Y-97723338D01*
X133845365Y-97943812D01*
X134065855Y-97943812D01*
X134065855Y-97833583D01*
X134065855Y-97723338D01*
X133845365Y-97723338D01*
X133624875Y-97723338D01*
X133624875Y-97502848D01*
X134286346Y-97502848D01*
X134286346Y-97723338D01*
X134710933Y-97723338D01*
X134708907Y-97680805D01*
X134707458Y-97638130D01*
X134706588Y-97595314D01*
X134706297Y-97552359D01*
X134926788Y-97552359D01*
X134927100Y-97595333D01*
X134928036Y-97638155D01*
X134929595Y-97680824D01*
X134931774Y-97723338D01*
X136346033Y-97723338D01*
X136346033Y-97535216D01*
X136346033Y-95653780D01*
X136676769Y-95653780D01*
X136676769Y-97535216D01*
X138181913Y-96594490D01*
X136676769Y-95653780D01*
X136346033Y-95653780D01*
X136346033Y-95355412D01*
X136346413Y-95344204D01*
X136347538Y-95333138D01*
X136349390Y-95322246D01*
X136351952Y-95311558D01*
X136355203Y-95301108D01*
X136359127Y-95290925D01*
X136363704Y-95281042D01*
X136368915Y-95271491D01*
X136374743Y-95262302D01*
X136381168Y-95253507D01*
X136388172Y-95245138D01*
X136395737Y-95237226D01*
X136403844Y-95229803D01*
X136412475Y-95222900D01*
X136421610Y-95216549D01*
X136431232Y-95210781D01*
X136441221Y-95205680D01*
X136451447Y-95201300D01*
X136461874Y-95197640D01*
X136472465Y-95194700D01*
X136483183Y-95192478D01*
X136493992Y-95190974D01*
X136504855Y-95190186D01*
X136515737Y-95190114D01*
X136526599Y-95190756D01*
X136537406Y-95192112D01*
X136548122Y-95194181D01*
X136558709Y-95196962D01*
X136569131Y-95200454D01*
X136579351Y-95204655D01*
X136589334Y-95209565D01*
X136599042Y-95215184D01*
X138581569Y-96454244D01*
X138584066Y-96455837D01*
X138586528Y-96457470D01*
X138588954Y-96459143D01*
X138591346Y-96460854D01*
X138593702Y-96462604D01*
X138596022Y-96464392D01*
X138598305Y-96466217D01*
X138600552Y-96468079D01*
X138602762Y-96469977D01*
X138604935Y-96471911D01*
X138607071Y-96473879D01*
X138609168Y-96475882D01*
X138611227Y-96477919D01*
X138613248Y-96479990D01*
X138617172Y-96484228D01*
X138956213Y-96484178D01*
X138958264Y-95355112D01*
X138958495Y-95346609D01*
X138959149Y-95338216D01*
X138960216Y-95329947D01*
X138961687Y-95321809D01*
X138963549Y-95313815D01*
X138965793Y-95305974D01*
X138968408Y-95298298D01*
X138971384Y-95290795D01*
X138974711Y-95283477D01*
X138978377Y-95276354D01*
X138982373Y-95269436D01*
X138986688Y-95262735D01*
X138991312Y-95256259D01*
X138996234Y-95250021D01*
X139001444Y-95244029D01*
X139006931Y-95238295D01*
X139012685Y-95232829D01*
X139018695Y-95227641D01*
X139024952Y-95222741D01*
X139031444Y-95218141D01*
X139038161Y-95213850D01*
X139045093Y-95209879D01*
X139052229Y-95206239D01*
X139059559Y-95202939D01*
X139067072Y-95199990D01*
X139074758Y-95197403D01*
X139082607Y-95195188D01*
X139090608Y-95193355D01*
X139098750Y-95191914D01*
X139107024Y-95190877D01*
X139115418Y-95190253D01*
X139123923Y-95190053D01*
X139132427Y-95190284D01*
X139140819Y-95190939D01*
X139149089Y-95192006D01*
X139157226Y-95193476D01*
X139165220Y-95195338D01*
X139173061Y-95197582D01*
X139180738Y-95200197D01*
X139188241Y-95203173D01*
X139195559Y-95206500D01*
X139202682Y-95210166D01*
X139209599Y-95214162D01*
X139216301Y-95218477D01*
X139222776Y-95223101D01*
X139229015Y-95228023D01*
X139235006Y-95233233D01*
X139240741Y-95238720D01*
X139246207Y-95244474D01*
X139251395Y-95250485D01*
X139256294Y-95256741D01*
X139260895Y-95263233D01*
X139265185Y-95269950D01*
X139269156Y-95276882D01*
X139272797Y-95284018D01*
X139276097Y-95291348D01*
X139279045Y-95298862D01*
X139281633Y-95306548D01*
X139283848Y-95314397D01*
X139285681Y-95322398D01*
X139287122Y-95330540D01*
X139288159Y-95338814D01*
X139288783Y-95347208D01*
X139288982Y-95355713D01*
X139286948Y-96484128D01*
X140500179Y-96483961D01*
X140458525Y-96384934D01*
X140413336Y-96287816D01*
X140364692Y-96192687D01*
X140312676Y-96099628D01*
X140257368Y-96008722D01*
X140198849Y-95920047D01*
X140137200Y-95833687D01*
X140072502Y-95749721D01*
X140004837Y-95668230D01*
X139934284Y-95589296D01*
X139860925Y-95513000D01*
X139784841Y-95439422D01*
X139706113Y-95368644D01*
X139624822Y-95300747D01*
X139541049Y-95235811D01*
X139454876Y-95173917D01*
X139366382Y-95115148D01*
X139275649Y-95059582D01*
X139182757Y-95007303D01*
X139087789Y-94958389D01*
X138990825Y-94912924D01*
X138891946Y-94870987D01*
X138791232Y-94832660D01*
X138688766Y-94798023D01*
X138584627Y-94767158D01*
X138478897Y-94740145D01*
X138371657Y-94717066D01*
X138262988Y-94698001D01*
X138152971Y-94683032D01*
X138041686Y-94672240D01*
X137929216Y-94665705D01*
X137815640Y-94663509D01*
X137667073Y-94667271D01*
X137520446Y-94678435D01*
X137375941Y-94696820D01*
X137233739Y-94722243D01*
X137094024Y-94754523D01*
X136956977Y-94793476D01*
X136822780Y-94838922D01*
X136691615Y-94890678D01*
X136563665Y-94948561D01*
X136439111Y-95012391D01*
X136318135Y-95081984D01*
X136200921Y-95157158D01*
X136087649Y-95237732D01*
X135978501Y-95323524D01*
X135873661Y-95414351D01*
X135773310Y-95510031D01*
X135677630Y-95610382D01*
X135586803Y-95715222D01*
X135501012Y-95824369D01*
X135420437Y-95937641D01*
X135345263Y-96054856D01*
X135275670Y-96175831D01*
X135211840Y-96300385D01*
X135153957Y-96428335D01*
X135102201Y-96559500D01*
X135056756Y-96693697D01*
X135017802Y-96830744D01*
X134985522Y-96970459D01*
X134960099Y-97112660D01*
X134941714Y-97257166D01*
X134930550Y-97403793D01*
X134926788Y-97552359D01*
X134706297Y-97552359D01*
X134710346Y-97392454D01*
X134722363Y-97234636D01*
X134742151Y-97079102D01*
X134769515Y-96926048D01*
X134804259Y-96775670D01*
X134846186Y-96628163D01*
X134895100Y-96483723D01*
X134950806Y-96342548D01*
X135013108Y-96204832D01*
X135081809Y-96070771D01*
X135156714Y-95940563D01*
X135237627Y-95814402D01*
X135324351Y-95692484D01*
X135416691Y-95575006D01*
X135514450Y-95462164D01*
X135617433Y-95354154D01*
X135725444Y-95251171D01*
X135838286Y-95153412D01*
X135955764Y-95061072D01*
X136077681Y-94974348D01*
X136203842Y-94893435D01*
X136334051Y-94818530D01*
X136468111Y-94749829D01*
X136605827Y-94687527D01*
X136747003Y-94631821D01*
X136891443Y-94582907D01*
X137038950Y-94540980D01*
X137189328Y-94506236D01*
X137342383Y-94478873D01*
X137497917Y-94459084D01*
X137655734Y-94447068D01*
X137815640Y-94443019D01*
X138056908Y-94452259D01*
G37*
%TD.AperFunction*%
D11*
D12*
X143048727Y-99221185D02*
X143120155Y-99149757D01*
X143120155Y-99149757D02*
X143263013Y-99078328D01*
X143263013Y-99078328D02*
X143620155Y-99078328D01*
X143620155Y-99078328D02*
X143763013Y-99149757D01*
X143763013Y-99149757D02*
X143834441Y-99221185D01*
X143834441Y-99221185D02*
X143905870Y-99364042D01*
X143905870Y-99364042D02*
X143905870Y-99506900D01*
X143905870Y-99506900D02*
X143834441Y-99721185D01*
X143834441Y-99721185D02*
X142977298Y-100578328D01*
X142977298Y-100578328D02*
X143905870Y-100578328D01*
X144834441Y-99078328D02*
X144977298Y-99078328D01*
X144977298Y-99078328D02*
X145120155Y-99149757D01*
X145120155Y-99149757D02*
X145191584Y-99221185D01*
X145191584Y-99221185D02*
X145263012Y-99364042D01*
X145263012Y-99364042D02*
X145334441Y-99649757D01*
X145334441Y-99649757D02*
X145334441Y-100006900D01*
X145334441Y-100006900D02*
X145263012Y-100292614D01*
X145263012Y-100292614D02*
X145191584Y-100435471D01*
X145191584Y-100435471D02*
X145120155Y-100506900D01*
X145120155Y-100506900D02*
X144977298Y-100578328D01*
X144977298Y-100578328D02*
X144834441Y-100578328D01*
X144834441Y-100578328D02*
X144691584Y-100506900D01*
X144691584Y-100506900D02*
X144620155Y-100435471D01*
X144620155Y-100435471D02*
X144548726Y-100292614D01*
X144548726Y-100292614D02*
X144477298Y-100006900D01*
X144477298Y-100006900D02*
X144477298Y-99649757D01*
X144477298Y-99649757D02*
X144548726Y-99364042D01*
X144548726Y-99364042D02*
X144620155Y-99221185D01*
X144620155Y-99221185D02*
X144691584Y-99149757D01*
X144691584Y-99149757D02*
X144834441Y-99078328D01*
X145905869Y-99221185D02*
X145977297Y-99149757D01*
X145977297Y-99149757D02*
X146120155Y-99078328D01*
X146120155Y-99078328D02*
X146477297Y-99078328D01*
X146477297Y-99078328D02*
X146620155Y-99149757D01*
X146620155Y-99149757D02*
X146691583Y-99221185D01*
X146691583Y-99221185D02*
X146763012Y-99364042D01*
X146763012Y-99364042D02*
X146763012Y-99506900D01*
X146763012Y-99506900D02*
X146691583Y-99721185D01*
X146691583Y-99721185D02*
X145834440Y-100578328D01*
X145834440Y-100578328D02*
X146763012Y-100578328D01*
X148048726Y-99078328D02*
X147763011Y-99078328D01*
X147763011Y-99078328D02*
X147620154Y-99149757D01*
X147620154Y-99149757D02*
X147548726Y-99221185D01*
X147548726Y-99221185D02*
X147405868Y-99435471D01*
X147405868Y-99435471D02*
X147334440Y-99721185D01*
X147334440Y-99721185D02*
X147334440Y-100292614D01*
X147334440Y-100292614D02*
X147405868Y-100435471D01*
X147405868Y-100435471D02*
X147477297Y-100506900D01*
X147477297Y-100506900D02*
X147620154Y-100578328D01*
X147620154Y-100578328D02*
X147905868Y-100578328D01*
X147905868Y-100578328D02*
X148048726Y-100506900D01*
X148048726Y-100506900D02*
X148120154Y-100435471D01*
X148120154Y-100435471D02*
X148191583Y-100292614D01*
X148191583Y-100292614D02*
X148191583Y-99935471D01*
X148191583Y-99935471D02*
X148120154Y-99792614D01*
X148120154Y-99792614D02*
X148048726Y-99721185D01*
X148048726Y-99721185D02*
X147905868Y-99649757D01*
X147905868Y-99649757D02*
X147620154Y-99649757D01*
X147620154Y-99649757D02*
X147477297Y-99721185D01*
X147477297Y-99721185D02*
X147405868Y-99792614D01*
X147405868Y-99792614D02*
X147334440Y-99935471D01*
D11*
D12*
X143120155Y-96078328D02*
X143120155Y-94578328D01*
X143834441Y-96078328D02*
X143834441Y-94578328D01*
X143834441Y-94578328D02*
X144691584Y-96078328D01*
X144691584Y-96078328D02*
X144691584Y-94578328D01*
X145405870Y-96078328D02*
X145405870Y-94578328D01*
X145405870Y-94578328D02*
X145977299Y-94578328D01*
X145977299Y-94578328D02*
X146120156Y-94649757D01*
X146120156Y-94649757D02*
X146191585Y-94721185D01*
X146191585Y-94721185D02*
X146263013Y-94864042D01*
X146263013Y-94864042D02*
X146263013Y-95078328D01*
X146263013Y-95078328D02*
X146191585Y-95221185D01*
X146191585Y-95221185D02*
X146120156Y-95292614D01*
X146120156Y-95292614D02*
X145977299Y-95364042D01*
X145977299Y-95364042D02*
X145405870Y-95364042D01*
X146905870Y-94578328D02*
X146905870Y-95792614D01*
X146905870Y-95792614D02*
X146977299Y-95935471D01*
X146977299Y-95935471D02*
X147048728Y-96006900D01*
X147048728Y-96006900D02*
X147191585Y-96078328D01*
X147191585Y-96078328D02*
X147477299Y-96078328D01*
X147477299Y-96078328D02*
X147620156Y-96006900D01*
X147620156Y-96006900D02*
X147691585Y-95935471D01*
X147691585Y-95935471D02*
X147763013Y-95792614D01*
X147763013Y-95792614D02*
X147763013Y-94578328D01*
X148263014Y-94578328D02*
X149120157Y-94578328D01*
X148691585Y-96078328D02*
X148691585Y-94578328D01*
X150763013Y-96078328D02*
X150763013Y-94578328D01*
X150763013Y-94578328D02*
X151334442Y-94578328D01*
X151334442Y-94578328D02*
X151477299Y-94649757D01*
X151477299Y-94649757D02*
X151548728Y-94721185D01*
X151548728Y-94721185D02*
X151620156Y-94864042D01*
X151620156Y-94864042D02*
X151620156Y-95078328D01*
X151620156Y-95078328D02*
X151548728Y-95221185D01*
X151548728Y-95221185D02*
X151477299Y-95292614D01*
X151477299Y-95292614D02*
X151334442Y-95364042D01*
X151334442Y-95364042D02*
X150763013Y-95364042D01*
X153120156Y-96078328D02*
X152620156Y-95364042D01*
X152263013Y-96078328D02*
X152263013Y-94578328D01*
X152263013Y-94578328D02*
X152834442Y-94578328D01*
X152834442Y-94578328D02*
X152977299Y-94649757D01*
X152977299Y-94649757D02*
X153048728Y-94721185D01*
X153048728Y-94721185D02*
X153120156Y-94864042D01*
X153120156Y-94864042D02*
X153120156Y-95078328D01*
X153120156Y-95078328D02*
X153048728Y-95221185D01*
X153048728Y-95221185D02*
X152977299Y-95292614D01*
X152977299Y-95292614D02*
X152834442Y-95364042D01*
X152834442Y-95364042D02*
X152263013Y-95364042D01*
X154048728Y-94578328D02*
X154334442Y-94578328D01*
X154334442Y-94578328D02*
X154477299Y-94649757D01*
X154477299Y-94649757D02*
X154620156Y-94792614D01*
X154620156Y-94792614D02*
X154691585Y-95078328D01*
X154691585Y-95078328D02*
X154691585Y-95578328D01*
X154691585Y-95578328D02*
X154620156Y-95864042D01*
X154620156Y-95864042D02*
X154477299Y-96006900D01*
X154477299Y-96006900D02*
X154334442Y-96078328D01*
X154334442Y-96078328D02*
X154048728Y-96078328D01*
X154048728Y-96078328D02*
X153905871Y-96006900D01*
X153905871Y-96006900D02*
X153763013Y-95864042D01*
X153763013Y-95864042D02*
X153691585Y-95578328D01*
X153691585Y-95578328D02*
X153691585Y-95078328D01*
X153691585Y-95078328D02*
X153763013Y-94792614D01*
X153763013Y-94792614D02*
X153905871Y-94649757D01*
X153905871Y-94649757D02*
X154048728Y-94578328D01*
X155120157Y-94578328D02*
X155977300Y-94578328D01*
X155548728Y-96078328D02*
X155548728Y-94578328D01*
X156477299Y-95292614D02*
X156977299Y-95292614D01*
X157191585Y-96078328D02*
X156477299Y-96078328D01*
X156477299Y-96078328D02*
X156477299Y-94578328D01*
X156477299Y-94578328D02*
X157191585Y-94578328D01*
X158691585Y-95935471D02*
X158620157Y-96006900D01*
X158620157Y-96006900D02*
X158405871Y-96078328D01*
X158405871Y-96078328D02*
X158263014Y-96078328D01*
X158263014Y-96078328D02*
X158048728Y-96006900D01*
X158048728Y-96006900D02*
X157905871Y-95864042D01*
X157905871Y-95864042D02*
X157834442Y-95721185D01*
X157834442Y-95721185D02*
X157763014Y-95435471D01*
X157763014Y-95435471D02*
X157763014Y-95221185D01*
X157763014Y-95221185D02*
X157834442Y-94935471D01*
X157834442Y-94935471D02*
X157905871Y-94792614D01*
X157905871Y-94792614D02*
X158048728Y-94649757D01*
X158048728Y-94649757D02*
X158263014Y-94578328D01*
X158263014Y-94578328D02*
X158405871Y-94578328D01*
X158405871Y-94578328D02*
X158620157Y-94649757D01*
X158620157Y-94649757D02*
X158691585Y-94721185D01*
X159120157Y-94578328D02*
X159977300Y-94578328D01*
X159548728Y-96078328D02*
X159548728Y-94578328D01*
X160477299Y-96078328D02*
X160477299Y-94578328D01*
X161477300Y-94578328D02*
X161763014Y-94578328D01*
X161763014Y-94578328D02*
X161905871Y-94649757D01*
X161905871Y-94649757D02*
X162048728Y-94792614D01*
X162048728Y-94792614D02*
X162120157Y-95078328D01*
X162120157Y-95078328D02*
X162120157Y-95578328D01*
X162120157Y-95578328D02*
X162048728Y-95864042D01*
X162048728Y-95864042D02*
X161905871Y-96006900D01*
X161905871Y-96006900D02*
X161763014Y-96078328D01*
X161763014Y-96078328D02*
X161477300Y-96078328D01*
X161477300Y-96078328D02*
X161334443Y-96006900D01*
X161334443Y-96006900D02*
X161191585Y-95864042D01*
X161191585Y-95864042D02*
X161120157Y-95578328D01*
X161120157Y-95578328D02*
X161120157Y-95078328D01*
X161120157Y-95078328D02*
X161191585Y-94792614D01*
X161191585Y-94792614D02*
X161334443Y-94649757D01*
X161334443Y-94649757D02*
X161477300Y-94578328D01*
X162763014Y-96078328D02*
X162763014Y-94578328D01*
X162763014Y-94578328D02*
X163620157Y-96078328D01*
X163620157Y-96078328D02*
X163620157Y-94578328D01*
D11*
G36*
X148304900Y-97749757D02*
G01*
X148006841Y-97749757D01*
X148155870Y-97302669D01*
X148304900Y-97749757D01*
G37*
G36*
X148971360Y-98643818D02*
G01*
X147340381Y-98643818D01*
X147340381Y-98309567D01*
X147507048Y-98309567D01*
X147511197Y-98367948D01*
X147537371Y-98420295D01*
X147581585Y-98458642D01*
X147637109Y-98477150D01*
X147695490Y-98473001D01*
X147747837Y-98446827D01*
X147786184Y-98402613D01*
X147798172Y-98375762D01*
X147906841Y-98049757D01*
X148404900Y-98049757D01*
X148513568Y-98375762D01*
X148525556Y-98402613D01*
X148563903Y-98446828D01*
X148616251Y-98473001D01*
X148674631Y-98477151D01*
X148730155Y-98458642D01*
X148774369Y-98420295D01*
X148800543Y-98367948D01*
X148804693Y-98309568D01*
X148798173Y-98280894D01*
X148298172Y-96780894D01*
X148286184Y-96754043D01*
X148279161Y-96745946D01*
X148274369Y-96736361D01*
X148260160Y-96724037D01*
X148247837Y-96709829D01*
X148238251Y-96705036D01*
X148230155Y-96698014D01*
X148212311Y-96692065D01*
X148195490Y-96683655D01*
X148184801Y-96682895D01*
X148174631Y-96679505D01*
X148155865Y-96680838D01*
X148137109Y-96679506D01*
X148126941Y-96682895D01*
X148116251Y-96683655D01*
X148099427Y-96692066D01*
X148081585Y-96698014D01*
X148073490Y-96705034D01*
X148063903Y-96709828D01*
X148051577Y-96724039D01*
X148037371Y-96736361D01*
X148032578Y-96745945D01*
X148025556Y-96754043D01*
X148013568Y-96780894D01*
X147513568Y-98280894D01*
X147507048Y-98309567D01*
X147340381Y-98309567D01*
X147340381Y-96512838D01*
X148971360Y-96512838D01*
X148971360Y-98643818D01*
G37*
D12*
X143977298Y-98328328D02*
X143477298Y-97614042D01*
X143120155Y-98328328D02*
X143120155Y-96828328D01*
X143120155Y-96828328D02*
X143691584Y-96828328D01*
X143691584Y-96828328D02*
X143834441Y-96899757D01*
X143834441Y-96899757D02*
X143905870Y-96971185D01*
X143905870Y-96971185D02*
X143977298Y-97114042D01*
X143977298Y-97114042D02*
X143977298Y-97328328D01*
X143977298Y-97328328D02*
X143905870Y-97471185D01*
X143905870Y-97471185D02*
X143834441Y-97542614D01*
X143834441Y-97542614D02*
X143691584Y-97614042D01*
X143691584Y-97614042D02*
X143120155Y-97614042D01*
X144620155Y-97542614D02*
X145120155Y-97542614D01*
X145334441Y-98328328D02*
X144620155Y-98328328D01*
X144620155Y-98328328D02*
X144620155Y-96828328D01*
X144620155Y-96828328D02*
X145334441Y-96828328D01*
X145763013Y-96828328D02*
X146263013Y-98328328D01*
X146263013Y-98328328D02*
X146763013Y-96828328D01*
D13*
D14*
X129851359Y-98099619D02*
X129279931Y-98099619D01*
X129565645Y-98099619D02*
X129565645Y-97099619D01*
X129565645Y-97099619D02*
X129470407Y-97242476D01*
X129470407Y-97242476D02*
X129375169Y-97337714D01*
X129375169Y-97337714D02*
X129279931Y-97385333D01*
%TA.AperFunction,EtchedComponent*%
%TO.C,FID902*%
G36*
X125565645Y-97400000D02*
G01*
X127565645Y-97400000D01*
X127565645Y-97900000D01*
X125565645Y-97900000D01*
X125565645Y-97400000D01*
G37*
%TD.AperFunction*%
%TA.AperFunction,EtchedComponent*%
G36*
X126315645Y-96650000D02*
G01*
X126815645Y-96650000D01*
X126815645Y-98650000D01*
X126315645Y-98650000D01*
X126315645Y-96650000D01*
G37*
%TD.AperFunction*%
%TO.C,ID901*%
D15*
X128565645Y-96650000D02*
X130565645Y-96650000D01*
X130565645Y-98650000D01*
X128565645Y-98650000D01*
X128565645Y-96650000D01*
D16*
%TA.AperFunction,EtchedComponent*%
%TO.C,JP503*%
G36*
X158215645Y-64550000D02*
G01*
X157715645Y-64550000D01*
X157715645Y-63950000D01*
X158215645Y-63950000D01*
X158215645Y-64550000D01*
G37*
%TD.AperFunction*%
%TA.AperFunction,EtchedComponent*%
%TO.C,FID903*%
G36*
X187565645Y-55400000D02*
G01*
X189565645Y-55400000D01*
X189565645Y-55900000D01*
X187565645Y-55900000D01*
X187565645Y-55400000D01*
G37*
%TD.AperFunction*%
%TA.AperFunction,EtchedComponent*%
G36*
X188315645Y-54650000D02*
G01*
X188815645Y-54650000D01*
X188815645Y-56650000D01*
X188315645Y-56650000D01*
X188315645Y-54650000D01*
G37*
%TD.AperFunction*%
%TA.AperFunction,EtchedComponent*%
%TO.C,JP502*%
G36*
X158215645Y-68450000D02*
G01*
X157715645Y-68450000D01*
X157715645Y-67850000D01*
X158215645Y-67850000D01*
X158215645Y-68450000D01*
G37*
%TD.AperFunction*%
%TA.AperFunction,EtchedComponent*%
%TO.C,FID901*%
G36*
X125565645Y-55400000D02*
G01*
X127565645Y-55400000D01*
X127565645Y-55900000D01*
X125565645Y-55900000D01*
X125565645Y-55400000D01*
G37*
%TD.AperFunction*%
%TA.AperFunction,EtchedComponent*%
G36*
X126315645Y-54650000D02*
G01*
X126815645Y-54650000D01*
X126815645Y-56650000D01*
X126315645Y-56650000D01*
X126315645Y-54650000D01*
G37*
%TD.AperFunction*%
%TA.AperFunction,EtchedComponent*%
%TO.C,JP501*%
G36*
X158215645Y-89450000D02*
G01*
X157715645Y-89450000D01*
X157715645Y-88850000D01*
X158215645Y-88850000D01*
X158215645Y-89450000D01*
G37*
%TD.AperFunction*%
%TD*%
D17*
%TO.P,D501,1,K*%
%TO.N,/ARCHITECTURE/5. COMPARATOR/~{OC_DETECT}*%
X156615645Y-61150000D03*
%TO.P,D501,2,A*%
%TO.N,/ARCHITECTURE/5. COMPARATOR/LATCH_IN*%
X154515645Y-61150000D03*
%TD*%
D18*
%TO.P,R503,1*%
%TO.N,Net-(U501A--)*%
X156615646Y-85650000D03*
%TO.P,R503,2*%
%TO.N,/ARCHITECTURE/5. COMPARATOR/~{12V_FAULT}*%
X153515644Y-85650000D03*
%TD*%
D19*
%TO.P,C501,1*%
%TO.N,VCC_5V*%
X159665645Y-76550000D03*
%TO.P,C501,2*%
%TO.N,GND*%
X161390645Y-76550000D03*
%TD*%
D20*
%TO.P,Q602,1*%
%TO.N,Net-(D601-A)*%
X175279645Y-78508000D03*
D21*
%TO.P,Q602,2*%
%TO.N,/ARCHITECTURE/1. INTERCONNECTS/VOUT*%
X177565645Y-71650000D03*
D20*
%TO.P,Q602,3*%
%TO.N,/ARCHITECTURE/2. POLARITY PROTECTION/VPROT*%
X179851645Y-78508000D03*
%TD*%
D22*
%TO.P,R402,1*%
%TO.N,GND*%
X171815646Y-56049998D03*
%TO.P,R402,2*%
%TO.N,VREF_2V5*%
X171815646Y-59150000D03*
%TD*%
%TO.P,R506,1*%
%TO.N,/ARCHITECTURE/5. COMPARATOR/LATCH_IN*%
X155065645Y-63099999D03*
%TO.P,R506,2*%
%TO.N,VCC_5V*%
X155065645Y-66200001D03*
%TD*%
%TO.P,R305,1*%
%TO.N,GND*%
X149065645Y-69599999D03*
%TO.P,R305,2*%
%TO.N,/ARCHITECTURE/3. SENSING/VSENSE_17V*%
X149065645Y-72700001D03*
%TD*%
D23*
%TO.P,U501,1*%
%TO.N,/ARCHITECTURE/5. COMPARATOR/~{12V_FAULT}*%
X152590645Y-76745000D03*
%TO.P,U501,2,-*%
%TO.N,Net-(U501A--)*%
X152590645Y-78015000D03*
%TO.P,U501,3,+*%
%TO.N,VREF_2V5*%
X152590645Y-79285000D03*
%TO.P,U501,4,V-*%
%TO.N,GND*%
X152590645Y-80555000D03*
%TO.P,U501,5,+*%
%TO.N,Net-(U501B-+)*%
X157540645Y-80555000D03*
%TO.P,U501,6,-*%
%TO.N,VREF_2V5*%
X157540645Y-79285000D03*
%TO.P,U501,7*%
%TO.N,/ARCHITECTURE/5. COMPARATOR/~{17V_FAULT}*%
X157540645Y-78015000D03*
%TO.P,U501,8,V+*%
%TO.N,VCC_5V*%
X157540645Y-76745000D03*
%TD*%
D24*
%TO.P,TP101,1,1*%
%TO.N,GND*%
X132315645Y-86650000D03*
%TD*%
D25*
%TO.P,TP401,1,1*%
%TO.N,VREF_2V5*%
X175265647Y-59249999D03*
%TD*%
%TO.P,TP103,1,1*%
%TO.N,/ARCHITECTURE/1. INTERCONNECTS/VOUT*%
X182815645Y-80650000D03*
%TD*%
%TO.P,TP302,1,1*%
%TO.N,/ARCHITECTURE/3. SENSING/VSENSE_12V*%
X151315645Y-83650000D03*
%TD*%
%TO.P,TP303,1,1*%
%TO.N,/ARCHITECTURE/3. SENSING/VSENSE_17V*%
X151315645Y-73650000D03*
%TD*%
D26*
%TO.P,R601,1*%
%TO.N,Net-(Q601-B)*%
X166065645Y-83750002D03*
%TO.P,R601,2*%
%TO.N,/ARCHITECTURE/5. COMPARATOR/EN_OK*%
X166065645Y-80650000D03*
%TD*%
D27*
%TO.P,FID902,*%
%TO.N,*%
X126565645Y-97650000D03*
%TD*%
D18*
%TO.P,R511,1*%
%TO.N,GND*%
X145415647Y-69900000D03*
%TO.P,R511,2*%
%TO.N,/ARCHITECTURE/5. COMPARATOR/V_ISENSE*%
X142315645Y-69900000D03*
%TD*%
D25*
%TO.P,TP502,1,1*%
%TO.N,/ARCHITECTURE/5. COMPARATOR/~{OC_DETECT}*%
X145065645Y-55650000D03*
%TD*%
D22*
%TO.P,R508,1*%
%TO.N,/ARCHITECTURE/5. COMPARATOR/LATCH_IN*%
X152565645Y-61150000D03*
%TO.P,R508,2*%
%TO.N,/ARCHITECTURE/5. COMPARATOR/~{OC_FAULT}*%
X152565645Y-64250002D03*
%TD*%
D28*
%TO.P,J101,1*%
%TO.N,/ARCHITECTURE/1. INTERCONNECTS/VIN*%
X132265645Y-71650000D03*
D29*
%TO.P,J101,2*%
%TO.N,GND*%
X126065645Y-71650000D03*
D30*
%TO.P,J101,3*%
%TO.N,unconnected-(J101-Pad3)*%
X129065645Y-76350000D03*
%TD*%
D25*
%TO.P,TP402,1,1*%
%TO.N,VCC_5V*%
X169015645Y-67150000D03*
%TD*%
D31*
%TO.P,C506,1*%
%TO.N,/ARCHITECTURE/5. COMPARATOR/EN_OK*%
X166065645Y-75400000D03*
%TO.P,C506,2*%
%TO.N,GND*%
X166065645Y-73674998D03*
%TD*%
D32*
%TO.P,D201,1,K*%
%TO.N,/ARCHITECTURE/2. POLARITY PROTECTION/VPROT*%
X138815644Y-84650000D03*
%TO.P,D201,2,A*%
%TO.N,Net-(D201-A)*%
X136315646Y-84650000D03*
%TD*%
D19*
%TO.P,C502,1*%
%TO.N,VCC_5V*%
X152165645Y-58400000D03*
%TO.P,C502,2*%
%TO.N,GND*%
X153890647Y-58400000D03*
%TD*%
D33*
%TO.P,R604,1*%
%TO.N,/ARCHITECTURE/1. INTERCONNECTS/VOUT*%
X177565645Y-65400000D03*
%TO.P,R604,2*%
%TO.N,GND*%
X180665647Y-65400000D03*
%TD*%
D25*
%TO.P,TP501,1,1*%
%TO.N,/ARCHITECTURE/5. COMPARATOR/~{12V_FAULT}*%
X158565645Y-85650000D03*
%TD*%
D31*
%TO.P,C402,1*%
%TO.N,VCC_5V*%
X167315646Y-62262501D03*
%TO.P,C402,2*%
%TO.N,GND*%
X167315646Y-60537499D03*
%TD*%
D20*
%TO.P,Q201,1*%
%TO.N,Net-(D201-A)*%
X135279645Y-78508000D03*
D21*
%TO.P,Q201,2*%
%TO.N,/ARCHITECTURE/1. INTERCONNECTS/VIN*%
X137565645Y-71650000D03*
D20*
%TO.P,Q201,3*%
%TO.N,/ARCHITECTURE/2. POLARITY PROTECTION/VPROT*%
X139851645Y-78508000D03*
%TD*%
D34*
%TO.P,C504,1*%
%TO.N,/ARCHITECTURE/5. COMPARATOR/V_ISENSE*%
X140315645Y-63900000D03*
%TO.P,C504,2*%
%TO.N,GND*%
X138590643Y-63900000D03*
%TD*%
D35*
%TO.P,H901,1,1*%
%TO.N,GND*%
X121565645Y-55650000D03*
%TD*%
D33*
%TO.P,R603,1*%
%TO.N,Net-(D601-A)*%
X176015645Y-82150000D03*
%TO.P,R603,2*%
%TO.N,/ARCHITECTURE/2. POLARITY PROTECTION/VPROT*%
X179115645Y-82150000D03*
%TD*%
D26*
%TO.P,R302,1*%
%TO.N,/ARCHITECTURE/3. SENSING/VSENSE_12V*%
X149065645Y-82700001D03*
%TO.P,R302,2*%
%TO.N,/ARCHITECTURE/3. SENSING/ISENSE_N*%
X149065645Y-79599999D03*
%TD*%
D25*
%TO.P,TP506,1,1*%
%TO.N,/ARCHITECTURE/5. COMPARATOR/EN_OK*%
X164065645Y-78650000D03*
%TD*%
%TO.P,TP505,1,1*%
%TO.N,/ARCHITECTURE/5. COMPARATOR/V_ISENSE*%
X142315645Y-66150000D03*
%TD*%
D24*
%TO.P,TP104,1,1*%
%TO.N,GND*%
X182815645Y-86650000D03*
%TD*%
D28*
%TO.P,J104,1*%
%TO.N,/ARCHITECTURE/1. INTERCONNECTS/VOUT*%
X182865645Y-71650000D03*
D29*
%TO.P,J104,2*%
%TO.N,GND*%
X189065645Y-71650000D03*
D30*
%TO.P,J104,3*%
%TO.N,unconnected-(J104-Pad3)*%
X186065645Y-66950000D03*
%TD*%
D33*
%TO.P,R505,1*%
%TO.N,/ARCHITECTURE/3. SENSING/VSENSE_17V*%
X153515644Y-74150000D03*
%TO.P,R505,2*%
%TO.N,Net-(U501B-+)*%
X156615646Y-74150000D03*
%TD*%
D36*
%TO.P,J102,1,Pin_1*%
%TO.N,/ARCHITECTURE/1. INTERCONNECTS/VIN*%
X122565645Y-81650000D03*
D37*
%TO.P,J102,2,Pin_2*%
%TO.N,GND*%
X122565645Y-85460000D03*
%TD*%
D26*
%TO.P,R504,1*%
%TO.N,Net-(U502A-+)*%
X142315645Y-58950001D03*
%TO.P,R504,2*%
%TO.N,/ARCHITECTURE/5. COMPARATOR/~{OC_DETECT}*%
X142315645Y-55849999D03*
%TD*%
D35*
%TO.P,H902,1,1*%
%TO.N,GND*%
X121565645Y-97650000D03*
%TD*%
D34*
%TO.P,C401,1*%
%TO.N,VREF_2V5*%
X169678147Y-57400000D03*
%TO.P,C401,2*%
%TO.N,GND*%
X167953145Y-57400000D03*
%TD*%
D25*
%TO.P,TP102,1,1*%
%TO.N,/ARCHITECTURE/1. INTERCONNECTS/VIN*%
X132315645Y-80650000D03*
%TD*%
D38*
%TO.P,JP503,1,A*%
%TO.N,/ARCHITECTURE/5. COMPARATOR/EN_OK*%
X158615644Y-64250000D03*
%TO.P,JP503,2,B*%
%TO.N,/ARCHITECTURE/5. COMPARATOR/~{OC_FAULT}*%
X157315646Y-64250000D03*
%TD*%
D22*
%TO.P,R304,1*%
%TO.N,/ARCHITECTURE/3. SENSING/VSENSE_17V*%
X149065645Y-74599999D03*
%TO.P,R304,2*%
%TO.N,/ARCHITECTURE/3. SENSING/ISENSE_N*%
X149065645Y-77700001D03*
%TD*%
D25*
%TO.P,TP201,1,1*%
%TO.N,/ARCHITECTURE/2. POLARITY PROTECTION/VPROT*%
X141065645Y-82150000D03*
%TD*%
D18*
%TO.P,R301,1*%
%TO.N,/ARCHITECTURE/3. SENSING/ISENSE_N*%
X145615646Y-78650000D03*
%TO.P,R301,2*%
%TO.N,/ARCHITECTURE/2. POLARITY PROTECTION/VPROT*%
X142515644Y-78650000D03*
%TD*%
D27*
%TO.P,FID903,*%
%TO.N,*%
X188565645Y-55650000D03*
%TD*%
D32*
%TO.P,D601,1,K*%
%TO.N,/ARCHITECTURE/2. POLARITY PROTECTION/VPROT*%
X178815644Y-84650000D03*
%TO.P,D601,2,A*%
%TO.N,Net-(D601-A)*%
X176315646Y-84650000D03*
%TD*%
D33*
%TO.P,R202,1*%
%TO.N,Net-(D201-A)*%
X136015645Y-82150000D03*
%TO.P,R202,2*%
%TO.N,/ARCHITECTURE/2. POLARITY PROTECTION/VPROT*%
X139115645Y-82150000D03*
%TD*%
D39*
%TO.P,J103,1,Pin_1*%
%TO.N,GND*%
X192565645Y-85460000D03*
D37*
%TO.P,J103,2,Pin_2*%
%TO.N,/ARCHITECTURE/1. INTERCONNECTS/VOUT*%
X192565645Y-81650000D03*
%TD*%
D38*
%TO.P,JP502,1,A*%
%TO.N,/ARCHITECTURE/5. COMPARATOR/EN_OK*%
X158615644Y-68150000D03*
%TO.P,JP502,2,B*%
%TO.N,/ARCHITECTURE/5. COMPARATOR/~{17V_FAULT}*%
X157315646Y-68150000D03*
%TD*%
D35*
%TO.P,H903,1,1*%
%TO.N,GND*%
X193565645Y-55650000D03*
%TD*%
D18*
%TO.P,R507,1*%
%TO.N,Net-(U501B-+)*%
X156615646Y-71650000D03*
%TO.P,R507,2*%
%TO.N,/ARCHITECTURE/5. COMPARATOR/~{17V_FAULT}*%
X153515644Y-71650000D03*
%TD*%
D34*
%TO.P,C403,1*%
%TO.N,VCC_5V*%
X168540649Y-64150000D03*
%TO.P,C403,2*%
%TO.N,GND*%
X166815647Y-64150000D03*
%TD*%
D35*
%TO.P,H904,1,1*%
%TO.N,GND*%
X193565645Y-97650000D03*
%TD*%
D24*
%TO.P,TP301,1,1*%
%TO.N,GND*%
X159815645Y-82400000D03*
%TD*%
D40*
%TO.P,D502,1,K*%
%TO.N,/ARCHITECTURE/5. COMPARATOR/EN_OK*%
X166040646Y-78650000D03*
%TO.P,D502,2,A*%
%TO.N,Net-(D502-A)*%
X168090644Y-78650000D03*
%TD*%
D33*
%TO.P,R403,1*%
%TO.N,VCC_5V*%
X170465645Y-64962500D03*
%TO.P,R403,2*%
%TO.N,/ARCHITECTURE/2. POLARITY PROTECTION/VPROT*%
X173565647Y-64962500D03*
%TD*%
D18*
%TO.P,R501,1*%
%TO.N,Net-(U501A--)*%
X156615646Y-83150000D03*
%TO.P,R501,2*%
%TO.N,/ARCHITECTURE/3. SENSING/VSENSE_12V*%
X153515644Y-83150000D03*
%TD*%
D25*
%TO.P,TP503,1,1*%
%TO.N,/ARCHITECTURE/5. COMPARATOR/~{17V_FAULT}*%
X158565645Y-71650000D03*
%TD*%
D41*
%TO.P,Q601,1,B*%
%TO.N,Net-(Q601-B)*%
X175365645Y-88587500D03*
%TO.P,Q601,2,E*%
%TO.N,GND*%
X177265645Y-88587500D03*
%TO.P,Q601,3,C*%
%TO.N,Net-(D601-A)*%
X176315645Y-86712499D03*
%TD*%
D27*
%TO.P,FID901,*%
%TO.N,*%
X126565645Y-55650000D03*
%TD*%
D22*
%TO.P,R509,1*%
%TO.N,/ARCHITECTURE/5. COMPARATOR/EN_OK*%
X168565645Y-80650000D03*
%TO.P,R509,2*%
%TO.N,VCC_5V*%
X168565645Y-83750002D03*
%TD*%
D23*
%TO.P,U502,1*%
%TO.N,/ARCHITECTURE/5. COMPARATOR/~{OC_DETECT}*%
X145065645Y-58610000D03*
%TO.P,U502,2,-*%
%TO.N,VREF_2V5*%
X145065645Y-59880000D03*
%TO.P,U502,3,+*%
%TO.N,Net-(U502A-+)*%
X145065645Y-61150000D03*
%TO.P,U502,4,V-*%
%TO.N,GND*%
X145065645Y-62420000D03*
%TO.P,U502,5,+*%
%TO.N,VREF_2V5*%
X150015645Y-62420000D03*
%TO.P,U502,6,-*%
%TO.N,/ARCHITECTURE/5. COMPARATOR/LATCH_IN*%
X150015645Y-61150000D03*
%TO.P,U502,7*%
%TO.N,/ARCHITECTURE/5. COMPARATOR/~{OC_FAULT}*%
X150015645Y-59880000D03*
%TO.P,U502,8,V+*%
%TO.N,VCC_5V*%
X150015645Y-58610000D03*
%TD*%
D41*
%TO.P,U401,1,K*%
%TO.N,VCC_5V*%
X172565646Y-62650000D03*
%TO.P,U401,2,A*%
%TO.N,GND*%
X174465646Y-62650000D03*
%TO.P,U401,3,NC*%
%TO.N,unconnected-(U401-NC-Pad3)*%
X173515646Y-60774999D03*
%TD*%
D42*
%TO.P,U503,1*%
%TO.N,/ARCHITECTURE/5. COMPARATOR/V_ISENSE*%
X142928145Y-73200000D03*
%TO.P,U503,2,GND*%
%TO.N,GND*%
X142928145Y-74150000D03*
%TO.P,U503,3,+*%
%TO.N,/ARCHITECTURE/2. POLARITY PROTECTION/VPROT*%
X142928145Y-75100000D03*
%TO.P,U503,4,-*%
%TO.N,/ARCHITECTURE/3. SENSING/ISENSE_N*%
X145203145Y-75100000D03*
%TO.P,U503,5,V+*%
%TO.N,VCC_5V*%
X145203145Y-73200000D03*
%TD*%
D31*
%TO.P,C503,1*%
%TO.N,GND*%
X151315645Y-87375002D03*
%TO.P,C503,2*%
%TO.N,/ARCHITECTURE/3. SENSING/VSENSE_12V*%
X151315645Y-85650000D03*
%TD*%
D22*
%TO.P,R510,1*%
%TO.N,Net-(D502-A)*%
X171065645Y-78700001D03*
%TO.P,R510,2*%
%TO.N,VCC_5V*%
X171065645Y-81800003D03*
%TD*%
D33*
%TO.P,R201,1*%
%TO.N,GND*%
X135965643Y-87650000D03*
%TO.P,R201,2*%
%TO.N,Net-(D201-A)*%
X139065645Y-87650000D03*
%TD*%
D22*
%TO.P,R602,1*%
%TO.N,Net-(Q601-B)*%
X175315645Y-90650000D03*
%TO.P,R602,2*%
%TO.N,GND*%
X175315645Y-93750002D03*
%TD*%
D31*
%TO.P,C505,1*%
%TO.N,/ARCHITECTURE/3. SENSING/VSENSE_17V*%
X151315645Y-71762501D03*
%TO.P,C505,2*%
%TO.N,GND*%
X151315645Y-70037499D03*
%TD*%
D22*
%TO.P,R401,1*%
%TO.N,VREF_2V5*%
X169315645Y-59150000D03*
%TO.P,R401,2*%
%TO.N,VCC_5V*%
X169315645Y-62250002D03*
%TD*%
D26*
%TO.P,R502,1*%
%TO.N,/ARCHITECTURE/5. COMPARATOR/V_ISENSE*%
X142315645Y-63850002D03*
%TO.P,R502,2*%
%TO.N,Net-(U502A-+)*%
X142315645Y-60750000D03*
%TD*%
D24*
%TO.P,TP507,1,1*%
%TO.N,GND*%
X156565645Y-55650000D03*
%TD*%
D26*
%TO.P,R303,1*%
%TO.N,GND*%
X149065645Y-87700001D03*
%TO.P,R303,2*%
%TO.N,/ARCHITECTURE/3. SENSING/VSENSE_12V*%
X149065645Y-84599999D03*
%TD*%
D25*
%TO.P,TP504,1,1*%
%TO.N,/ARCHITECTURE/5. COMPARATOR/~{OC_FAULT}*%
X158565645Y-61150000D03*
%TD*%
D38*
%TO.P,JP501,1,A*%
%TO.N,/ARCHITECTURE/5. COMPARATOR/EN_OK*%
X158615644Y-89150000D03*
%TO.P,JP501,2,B*%
%TO.N,/ARCHITECTURE/5. COMPARATOR/~{12V_FAULT}*%
X157315646Y-89150000D03*
%TD*%
D43*
%TO.N,/ARCHITECTURE/2. POLARITY PROTECTION/VPROT*%
X144065645Y-78650000D03*
X178815645Y-78650000D03*
X178815645Y-79150000D03*
X144065645Y-79150000D03*
X144065645Y-78150000D03*
X178815645Y-78150000D03*
%TO.N,VREF_2V5*%
X146190647Y-76650000D03*
X154365645Y-80350000D03*
X155765645Y-80350000D03*
X150065645Y-76650000D03*
X145065645Y-76650000D03*
X151065645Y-77250000D03*
%TO.N,GND*%
X167065645Y-73650000D03*
X181065645Y-66900000D03*
X137565645Y-63900000D03*
X161390645Y-75450000D03*
X167965646Y-58350001D03*
X175565647Y-62650000D03*
X149065645Y-88900000D03*
X177265645Y-89950000D03*
X151065645Y-80550000D03*
X171815645Y-54900000D03*
X141565645Y-74150000D03*
X167315645Y-59400000D03*
X175315645Y-95150000D03*
X165765645Y-64150000D03*
X151315645Y-68900000D03*
X151315645Y-88400000D03*
X145065645Y-63650000D03*
X149065645Y-68400000D03*
X146565645Y-69900000D03*
X155065645Y-58400000D03*
%TO.N,VCC_5V*%
X146565645Y-73650000D03*
X169015645Y-68650000D03*
%TD*%
D44*
%TO.N,/ARCHITECTURE/2. POLARITY PROTECTION/VPROT*%
X142565645Y-75462499D02*
X142565645Y-78650000D01*
X142928145Y-75099999D02*
X142565645Y-75462499D01*
D45*
X177665645Y-75950000D02*
X174615645Y-75950000D01*
X174615645Y-75950000D02*
X173565647Y-74900002D01*
X173565647Y-74900002D02*
X173565647Y-64962500D01*
X179851645Y-78508000D02*
X179851645Y-78136000D01*
X179851645Y-78136000D02*
X177665645Y-75950000D01*
D46*
%TO.N,VREF_2V5*%
X166678147Y-54400000D02*
X169678147Y-57400000D01*
X144065645Y-75650000D02*
X145065645Y-76650000D01*
X143642521Y-59431875D02*
X143642521Y-58257529D01*
X153300645Y-79285000D02*
X154365645Y-80350000D01*
X145065645Y-59880000D02*
X146255645Y-59880000D01*
X140815645Y-56650000D02*
X140815645Y-55150000D01*
X155765645Y-80350000D02*
X156830645Y-79285000D01*
X146255645Y-59880000D02*
X148795645Y-62420000D01*
X148795645Y-62420000D02*
X149015645Y-62420000D01*
X150065645Y-76650000D02*
X146190647Y-76650000D01*
X148795645Y-62420000D02*
X144065645Y-67150000D01*
X144090646Y-59880000D02*
X143642521Y-59431875D01*
X141565645Y-57400000D02*
X140815645Y-56650000D01*
X149015645Y-62420000D02*
X150015645Y-62420000D01*
X152590645Y-79285000D02*
X153300645Y-79285000D01*
X151615646Y-79285000D02*
X152590645Y-79285000D01*
X141565645Y-54400000D02*
X166678147Y-54400000D01*
X143642521Y-58257529D02*
X142784992Y-57400000D01*
X151065645Y-77250000D02*
X151065645Y-78734999D01*
X144065645Y-67150000D02*
X144065645Y-75650000D01*
X145065645Y-59880000D02*
X144090646Y-59880000D01*
X142784992Y-57400000D02*
X141565645Y-57400000D01*
X140815645Y-55150000D02*
X141565645Y-54400000D01*
X156830645Y-79285000D02*
X157540645Y-79285000D01*
X151065645Y-78734999D02*
X151615646Y-79285000D01*
D45*
%TO.N,GND*%
X181065645Y-65799998D02*
X180665647Y-65400000D01*
X171815646Y-56049998D02*
X171815645Y-54900000D01*
X181065645Y-66900000D02*
X181065645Y-65799998D01*
X175565647Y-62650000D02*
X174465646Y-62650000D01*
X151315645Y-88400000D02*
X151315645Y-87375002D01*
X151065645Y-80550000D02*
X152585645Y-80550000D01*
X149065645Y-88900000D02*
X149065645Y-87700001D01*
X165765645Y-64150000D02*
X166815646Y-64150000D01*
X177265645Y-89950000D02*
X177265645Y-88587500D01*
X152595645Y-80550000D02*
X152590645Y-80555000D01*
X145065645Y-63650000D02*
X145065645Y-62420000D01*
X151315645Y-68900000D02*
X151315645Y-70037499D01*
X137565645Y-63900000D02*
X138590643Y-63900000D01*
X155065645Y-58400000D02*
X153890647Y-58400000D01*
X167965646Y-57412501D02*
X167953145Y-57400000D01*
X152585645Y-80550000D02*
X152590645Y-80555000D01*
X167065645Y-73650000D02*
X166090643Y-73650000D01*
X166090643Y-73650000D02*
X166065645Y-73674998D01*
X161390645Y-76550000D02*
X161390645Y-75450000D01*
X167965646Y-58350001D02*
X167965646Y-57412501D01*
D46*
X141565645Y-74150000D02*
X142928145Y-74150000D01*
D45*
X149065645Y-69599999D02*
X149065645Y-68400000D01*
X167315645Y-59400000D02*
X167315647Y-60537499D01*
X175315645Y-95150000D02*
X175315645Y-93750002D01*
X145415647Y-69900000D02*
X146565645Y-69900000D01*
%TO.N,VCC_5V*%
X159065645Y-78650000D02*
X159665645Y-78050000D01*
X151965645Y-58550000D02*
X151905645Y-58610000D01*
X145203145Y-73200001D02*
X147504252Y-70898894D01*
X167203147Y-62150000D02*
X167315646Y-62262501D01*
X148565645Y-59025000D02*
X148565645Y-61375000D01*
X147815645Y-75900000D02*
X153565645Y-75900000D01*
X170415642Y-81800003D02*
X168565645Y-83650000D01*
X149565645Y-63050000D02*
X148965645Y-63650000D01*
X151905645Y-58610000D02*
X150015645Y-58610000D01*
X147504252Y-70898894D02*
X151816751Y-70898894D01*
X155065645Y-67650000D02*
X155065645Y-66200001D01*
X151340645Y-62798887D02*
X151089532Y-63050000D01*
X146565645Y-74650000D02*
X147815645Y-75900000D01*
X150015645Y-58610000D02*
X148980645Y-58610000D01*
X151340645Y-62025000D02*
X151340645Y-62798887D01*
X148980645Y-58610000D02*
X148565645Y-59025000D01*
X148565645Y-61375000D02*
X148965645Y-61775000D01*
X171915642Y-81800003D02*
X172565645Y-81150000D01*
X171065645Y-81800003D02*
X170415642Y-81800003D01*
X151816751Y-70898894D02*
X155065645Y-67650000D01*
X152165645Y-58550000D02*
X151965645Y-58550000D01*
X148965645Y-63650000D02*
X148965645Y-64650000D01*
X153565645Y-75900000D02*
X156315645Y-78650000D01*
X148965645Y-64650000D02*
X150515646Y-66200001D01*
X145653144Y-73650000D02*
X145203145Y-73200001D01*
X146565645Y-73650000D02*
X146565645Y-74650000D01*
X146565645Y-73650000D02*
X145653144Y-73650000D01*
X150515646Y-66200001D02*
X155065645Y-66200001D01*
X151090645Y-61775000D02*
X151340645Y-62025000D01*
X156315645Y-78650000D02*
X159065645Y-78650000D01*
X159665645Y-78050000D02*
X159665645Y-76550000D01*
X172565645Y-81150000D02*
X172565645Y-72200000D01*
X171065645Y-81800003D02*
X171915642Y-81800003D01*
X172565645Y-72200000D02*
X169015645Y-68650000D01*
X148965645Y-61775000D02*
X151090645Y-61775000D01*
X151089532Y-63050000D02*
X149565645Y-63050000D01*
X168565645Y-83650000D02*
X168565645Y-83750002D01*
X157540645Y-76745000D02*
X159470645Y-76745000D01*
X159470645Y-76745000D02*
X159665645Y-76550000D01*
X169015645Y-68650000D02*
X169015645Y-67150000D01*
%TO.N,Net-(Q601-B)*%
X170903143Y-88587500D02*
X175365645Y-88587500D01*
X166065645Y-83750002D02*
X170903143Y-88587500D01*
X175315645Y-90650000D02*
X175315645Y-88637500D01*
X175315645Y-88637500D02*
X175365645Y-88587500D01*
%TO.N,/ARCHITECTURE/3. SENSING/VSENSE_12V*%
X151315645Y-83650000D02*
X153015644Y-83650000D01*
X151315645Y-85650000D02*
X151315645Y-83650000D01*
X153015644Y-83650000D02*
X153515644Y-83150000D01*
%TO.N,/ARCHITECTURE/3. SENSING/VSENSE_17V*%
X151315645Y-73650000D02*
X153015644Y-73650000D01*
X151315645Y-71762501D02*
X151315645Y-73650000D01*
X153015644Y-73650000D02*
X153515644Y-74150000D01*
%TO.N,Net-(U502A-+)*%
X145065645Y-61150000D02*
X142715645Y-61150000D01*
X142315645Y-60750000D02*
X142315645Y-58950001D01*
D44*
%TO.N,/ARCHITECTURE/3. SENSING/ISENSE_N*%
X145665647Y-75562501D02*
X145665647Y-78650000D01*
X145203145Y-75099999D02*
X145665647Y-75562501D01*
D45*
%TO.N,/ARCHITECTURE/5. COMPARATOR/V_ISENSE*%
X142928145Y-73200001D02*
X142315645Y-72587501D01*
X142315645Y-72587501D02*
X142315645Y-69900000D01*
%TO.N,/ARCHITECTURE/5. COMPARATOR/~{12V_FAULT}*%
X151015645Y-81400000D02*
X150565645Y-80950000D01*
X150770645Y-76745000D02*
X152590645Y-76745000D01*
X153515644Y-85650000D02*
X153515644Y-87599999D01*
X150565645Y-76950000D02*
X150770645Y-76745000D01*
X157315646Y-89650000D02*
X157315646Y-87899999D01*
X154565645Y-84599999D02*
X154565645Y-82150000D01*
X155565645Y-89650000D02*
X157315646Y-89650000D01*
X153815645Y-81400000D02*
X151015645Y-81400000D01*
X153515644Y-85650000D02*
X154565645Y-84599999D01*
X150565645Y-80950000D02*
X150565645Y-76950000D01*
X158565645Y-86650000D02*
X158565645Y-85650000D01*
X157315646Y-87899999D02*
X158565645Y-86650000D01*
X153515644Y-87599999D02*
X155565645Y-89650000D01*
X154565645Y-82150000D02*
X153815645Y-81400000D01*
%TO.N,/ARCHITECTURE/5. COMPARATOR/LATCH_IN*%
X150015645Y-61150000D02*
X152065645Y-61150000D01*
X155015645Y-61150000D02*
X155015645Y-63049999D01*
X155015645Y-63049999D02*
X155065645Y-63099999D01*
X152565645Y-61150000D02*
X155015645Y-61150000D01*
%TO.N,/ARCHITECTURE/5. COMPARATOR/~{OC_DETECT}*%
X154065645Y-59900000D02*
X153027052Y-58861407D01*
X150815645Y-55650000D02*
X145065645Y-55650000D01*
X142315645Y-55849999D02*
X142315645Y-55860000D01*
X156615645Y-61150000D02*
X155365645Y-59900000D01*
X155365645Y-59900000D02*
X154065645Y-59900000D01*
X142315645Y-55860000D02*
X145065645Y-58610000D01*
X145025645Y-58650000D02*
X145065645Y-58610000D01*
X153027052Y-58861407D02*
X153027052Y-57861407D01*
X145065645Y-55650000D02*
X145065645Y-58610000D01*
X153027052Y-57861407D02*
X150815645Y-55650000D01*
%TO.N,Net-(D502-A)*%
X171015644Y-78650000D02*
X171065645Y-78700001D01*
X168090644Y-78650000D02*
X171015644Y-78650000D01*
%TO.N,Net-(U501A--)*%
X156615646Y-82300001D02*
X155065645Y-80750000D01*
X156615646Y-85650000D02*
X156741645Y-85775999D01*
X155065645Y-79515001D02*
X153565644Y-78015000D01*
X156615646Y-83150000D02*
X156615646Y-85650000D01*
X153565644Y-78015000D02*
X152590645Y-78015000D01*
X156615646Y-83150000D02*
X156615646Y-82300001D01*
X155065645Y-80750000D02*
X155065645Y-79515001D01*
%TO.N,Net-(U501B-+)*%
X160537855Y-74872210D02*
X160537855Y-78532789D01*
X158515644Y-80555000D02*
X157540645Y-80555000D01*
X159815645Y-74150000D02*
X160537855Y-74872210D01*
X156615646Y-74150000D02*
X159815645Y-74150000D01*
X156615646Y-71650000D02*
X156615646Y-74150000D01*
X160537855Y-78532789D02*
X158515644Y-80555000D01*
%TO.N,/ARCHITECTURE/5. COMPARATOR/EN_OK*%
X163065645Y-71650000D02*
X163065645Y-77650000D01*
X158615644Y-64250000D02*
X158615644Y-65949999D01*
X163065645Y-79650000D02*
X163065645Y-84699999D01*
X164065645Y-71400000D02*
X164065645Y-78650000D01*
X158615644Y-68150000D02*
X159565645Y-68150000D01*
X158615644Y-65949999D02*
X164065645Y-71400000D01*
X163065645Y-77650000D02*
X164065645Y-78650000D01*
X158665643Y-64200001D02*
X158615644Y-64250000D01*
X159565645Y-68150000D02*
X163065645Y-71650000D01*
X163065645Y-84699999D02*
X158615644Y-89150000D01*
X164065645Y-78650000D02*
X163065645Y-79650000D01*
%TO.N,/ARCHITECTURE/5. COMPARATOR/~{17V_FAULT}*%
X155065645Y-76514999D02*
X156565646Y-78015000D01*
X158565645Y-70650000D02*
X158565645Y-71650000D01*
X157315646Y-69400001D02*
X158565645Y-70650000D01*
X156065645Y-68150000D02*
X157315646Y-68150000D01*
X156565646Y-78015000D02*
X157540645Y-78015000D01*
X153515644Y-71650000D02*
X155065645Y-73200001D01*
X157315646Y-68150000D02*
X157315646Y-69400001D01*
X155065645Y-73200001D02*
X155065645Y-76514999D01*
X153515644Y-71650000D02*
X153515644Y-70700001D01*
X153515644Y-70700001D02*
X156065645Y-68150000D01*
%TO.N,/ARCHITECTURE/5. COMPARATOR/~{OC_FAULT}*%
X157315644Y-64250002D02*
X157315646Y-64250000D01*
X158065645Y-62150002D02*
X158065645Y-62150000D01*
X157315646Y-62900001D02*
X157315646Y-64250000D01*
X157315646Y-62900001D02*
X158065645Y-62150002D01*
X152465643Y-64150000D02*
X152565645Y-64250002D01*
X158565645Y-61650000D02*
X158065645Y-62150000D01*
X153866645Y-60451000D02*
X154866645Y-60451000D01*
X153295645Y-59880000D02*
X153866645Y-60451000D01*
X152565645Y-64250002D02*
X157315644Y-64250002D01*
X154866645Y-60451000D02*
X157315646Y-62900001D01*
X150015645Y-59880000D02*
X153295645Y-59880000D01*
X158565645Y-61150000D02*
X158565645Y-61650000D01*
%TD*%
%TA.AperFunction,Conductor*%
%TO.N,/ARCHITECTURE/2. POLARITY PROTECTION/VPROT*%
G36*
X179415645Y-79500000D02*
G01*
X178775243Y-79500000D01*
X178772822Y-79499289D01*
X178770377Y-79499904D01*
X178739482Y-79489499D01*
X178708204Y-79480315D01*
X178705814Y-79478160D01*
X178704161Y-79477604D01*
X178678415Y-79453462D01*
X178542817Y-79283965D01*
X178516309Y-79219319D01*
X178515645Y-79206503D01*
X178515645Y-78093497D01*
X178535330Y-78026458D01*
X178542817Y-78016035D01*
X178678415Y-77846538D01*
X178735666Y-77806486D01*
X178775243Y-77800000D01*
X179415645Y-77800000D01*
X179415645Y-79500000D01*
G37*
%TD.AperFunction*%
%TD*%
%TA.AperFunction,Conductor*%
%TO.N,/ARCHITECTURE/5. COMPARATOR/~{17V_FAULT}*%
G36*
X153859793Y-70230979D02*
G01*
X153859923Y-70231107D01*
X153985681Y-70356865D01*
X153989108Y-70365138D01*
X153987420Y-70371192D01*
X153959422Y-70417495D01*
X153959421Y-70417498D01*
X153935864Y-70478126D01*
X153914486Y-70607226D01*
X153914485Y-70607233D01*
X153927134Y-70722532D01*
X153927136Y-70722539D01*
X153969449Y-70814920D01*
X153969449Y-70814921D01*
X153969450Y-70814922D01*
X154040735Y-70884345D01*
X154088964Y-70910269D01*
X154129858Y-70923789D01*
X154136637Y-70929640D01*
X154137294Y-70938571D01*
X154134987Y-70942606D01*
X153526636Y-71637346D01*
X153518608Y-71641312D01*
X153510126Y-71638440D01*
X153507278Y-71634684D01*
X153104646Y-70792342D01*
X153104170Y-70783400D01*
X153110156Y-70776740D01*
X153113127Y-70775782D01*
X153174180Y-70764778D01*
X153174185Y-70764776D01*
X153174188Y-70764776D01*
X153262797Y-70726774D01*
X153358325Y-70669601D01*
X153497832Y-70565898D01*
X153632702Y-70448462D01*
X153843249Y-70231236D01*
X153851467Y-70227681D01*
X153859793Y-70230979D01*
G37*
%TD.AperFunction*%
%TD*%
%TA.AperFunction,Conductor*%
%TO.N,Net-(U501B-+)*%
G36*
X158366262Y-80258422D02*
G01*
X158370819Y-80262197D01*
X158401276Y-80304559D01*
X158434721Y-80327817D01*
X158471011Y-80339096D01*
X158523709Y-80338644D01*
X158574449Y-80324299D01*
X158622451Y-80299427D01*
X158648903Y-80278587D01*
X158657521Y-80276161D01*
X158664415Y-80279506D01*
X158789440Y-80404531D01*
X158792867Y-80412804D01*
X158789440Y-80421077D01*
X158788671Y-80421781D01*
X158698832Y-80496874D01*
X158698687Y-80496993D01*
X158611091Y-80567864D01*
X158533672Y-80645043D01*
X158519199Y-80677648D01*
X158512710Y-80683819D01*
X158506960Y-80684499D01*
X157587161Y-80561996D01*
X157579413Y-80557507D01*
X157577108Y-80548853D01*
X157581597Y-80541105D01*
X157584697Y-80539406D01*
X158357316Y-80258033D01*
X158366262Y-80258422D01*
G37*
%TD.AperFunction*%
%TD*%
%TA.AperFunction,Conductor*%
%TO.N,/ARCHITECTURE/5. COMPARATOR/~{OC_FAULT}*%
G36*
X158567445Y-61152569D02*
G01*
X158570697Y-61155823D01*
X158837262Y-61556465D01*
X158838992Y-61565251D01*
X158834477Y-61572354D01*
X158758486Y-61628541D01*
X158632549Y-61721657D01*
X158610571Y-61737907D01*
X158610565Y-61737912D01*
X158462928Y-61886240D01*
X158297864Y-62058824D01*
X158289669Y-62062434D01*
X158281322Y-62059192D01*
X158281136Y-62059010D01*
X158155933Y-61933807D01*
X158152506Y-61925534D01*
X158155418Y-61917810D01*
X158197743Y-61869678D01*
X158230037Y-61817623D01*
X158247226Y-61768681D01*
X158251480Y-61721654D01*
X158229857Y-61628541D01*
X158203224Y-61572354D01*
X158182523Y-61528681D01*
X158122940Y-61403051D01*
X158122323Y-61401459D01*
X158079031Y-61259902D01*
X158079888Y-61250990D01*
X158086797Y-61245294D01*
X158087909Y-61245012D01*
X158558662Y-61150831D01*
X158567445Y-61152569D01*
G37*
%TD.AperFunction*%
%TD*%
%TA.AperFunction,Conductor*%
%TO.N,GND*%
G36*
X177270418Y-88604499D02*
G01*
X177276327Y-88610408D01*
X177549295Y-89221364D01*
X177549541Y-89230316D01*
X177543386Y-89236819D01*
X177543035Y-89236969D01*
X177531003Y-89241880D01*
X177530993Y-89241885D01*
X177488824Y-89271207D01*
X177488819Y-89271211D01*
X177453803Y-89311346D01*
X177415350Y-89381312D01*
X177388898Y-89458891D01*
X177371053Y-89549446D01*
X177371052Y-89549459D01*
X177366423Y-89614135D01*
X177362414Y-89622143D01*
X177354753Y-89625000D01*
X177175914Y-89625000D01*
X177167641Y-89621573D01*
X177164313Y-89614818D01*
X177155762Y-89549458D01*
X177145501Y-89471023D01*
X177101613Y-89351048D01*
X177101610Y-89351043D01*
X177044632Y-89273215D01*
X177044629Y-89273212D01*
X176985914Y-89237749D01*
X176980604Y-89230538D01*
X176981280Y-89222962D01*
X177254963Y-88610407D01*
X177261466Y-88604253D01*
X177270418Y-88604499D01*
G37*
%TD.AperFunction*%
%TD*%
%TA.AperFunction,Conductor*%
%TO.N,GND*%
G36*
X145162983Y-63108711D02*
G01*
X145166383Y-63116194D01*
X145171904Y-63197807D01*
X145188737Y-63266964D01*
X145229438Y-63345198D01*
X145242441Y-63370193D01*
X145290462Y-63455103D01*
X145291168Y-63456586D01*
X145314762Y-63516657D01*
X145315203Y-63518018D01*
X145332289Y-63584414D01*
X145331032Y-63593280D01*
X145323874Y-63598661D01*
X145323281Y-63598797D01*
X145067968Y-63650529D01*
X145063322Y-63650529D01*
X144808636Y-63598924D01*
X144801208Y-63593922D01*
X144799492Y-63585134D01*
X144799790Y-63583973D01*
X144838048Y-63461341D01*
X144839002Y-63459125D01*
X144888739Y-63370386D01*
X144888963Y-63370006D01*
X144904374Y-63345202D01*
X144948129Y-63249567D01*
X144960955Y-63186534D01*
X144965008Y-63116308D01*
X144968906Y-63108248D01*
X144976689Y-63105284D01*
X145154710Y-63105284D01*
X145162983Y-63108711D01*
G37*
%TD.AperFunction*%
%TD*%
%TA.AperFunction,Conductor*%
%TO.N,GND*%
G36*
X138207533Y-63453396D02*
G01*
X138210941Y-63456120D01*
X138585110Y-63892383D01*
X138587895Y-63900894D01*
X138585110Y-63907617D01*
X138211719Y-64342971D01*
X138203732Y-64347020D01*
X138195221Y-64344235D01*
X138192181Y-64340181D01*
X138172358Y-64296373D01*
X138130772Y-64239427D01*
X138078104Y-64188175D01*
X138078101Y-64188172D01*
X138078099Y-64188171D01*
X138056686Y-64172722D01*
X138002134Y-64133363D01*
X137917856Y-64087583D01*
X137820315Y-64047731D01*
X137820316Y-64047731D01*
X137724434Y-64019663D01*
X137588284Y-64001363D01*
X137580541Y-63996864D01*
X137578143Y-63989767D01*
X137578143Y-63810913D01*
X137581570Y-63802640D01*
X137588841Y-63799256D01*
X137629355Y-63795779D01*
X137658239Y-63793301D01*
X137658241Y-63793300D01*
X137658247Y-63793300D01*
X137748704Y-63774234D01*
X137923079Y-63709923D01*
X138059507Y-63626853D01*
X138150187Y-63536737D01*
X138191719Y-63458263D01*
X138198618Y-63452555D01*
X138207533Y-63453396D01*
G37*
%TD.AperFunction*%
%TD*%
%TA.AperFunction,Conductor*%
%TO.N,GND*%
G36*
X161487550Y-75603427D02*
G01*
X161490971Y-75611362D01*
X161491187Y-75618838D01*
X161501085Y-75692208D01*
X161511537Y-75731543D01*
X161523128Y-75775164D01*
X161590457Y-75927129D01*
X161673974Y-76040616D01*
X161673976Y-76040618D01*
X161763902Y-76111717D01*
X161839478Y-76137934D01*
X161846172Y-76143883D01*
X161846698Y-76152822D01*
X161843316Y-76157821D01*
X161398317Y-76544336D01*
X161389824Y-76547174D01*
X161382973Y-76544336D01*
X160938716Y-76158467D01*
X160934717Y-76150455D01*
X160937555Y-76141962D01*
X160943005Y-76138433D01*
X160996872Y-76122170D01*
X161052943Y-76088794D01*
X161103501Y-76044566D01*
X161157755Y-75978945D01*
X161203170Y-75904868D01*
X161242964Y-75817764D01*
X161271022Y-75731543D01*
X161289157Y-75609973D01*
X161293767Y-75602297D01*
X161300729Y-75600000D01*
X161479277Y-75600000D01*
X161487550Y-75603427D01*
G37*
%TD.AperFunction*%
%TD*%
%TA.AperFunction,Conductor*%
%TO.N,VREF_2V5*%
G36*
X146439492Y-59816361D02*
G01*
X146381784Y-59804854D01*
X146266124Y-59780983D01*
X146144713Y-59746002D01*
X146045622Y-59695296D01*
X146013218Y-59662604D01*
X145996921Y-59624249D01*
X145064938Y-59879293D01*
X145948048Y-60168582D01*
X145966535Y-60126417D01*
X145990185Y-60095391D01*
X146049299Y-60060305D01*
X146126118Y-60053362D01*
X146192006Y-60063847D01*
X146439492Y-59816361D01*
G37*
%TD.AperFunction*%
%TD*%
%TA.AperFunction,Conductor*%
%TO.N,VREF_2V5*%
G36*
X151535347Y-78955039D02*
G01*
X151628452Y-79023107D01*
X151699704Y-79054083D01*
X151779403Y-79076323D01*
X151878310Y-79091157D01*
X151986734Y-79095618D01*
X152119268Y-79088650D01*
X152262260Y-79069440D01*
X152432771Y-79034207D01*
X152598093Y-78989336D01*
X152606973Y-78990476D01*
X152612447Y-78997562D01*
X152612823Y-79001508D01*
X152592067Y-79276242D01*
X152588026Y-79284234D01*
X152581945Y-79286959D01*
X151623809Y-79414567D01*
X151615155Y-79412262D01*
X151611867Y-79408335D01*
X151600599Y-79386503D01*
X151560908Y-79355709D01*
X151548673Y-79349176D01*
X151440248Y-79291282D01*
X151353535Y-79246833D01*
X151352278Y-79246086D01*
X151291430Y-79204567D01*
X151286527Y-79197073D01*
X151288359Y-79188308D01*
X151289746Y-79186634D01*
X151520170Y-78956210D01*
X151528442Y-78952784D01*
X151535347Y-78955039D01*
G37*
%TD.AperFunction*%
%TD*%
%TA.AperFunction,Conductor*%
%TO.N,/ARCHITECTURE/1. INTERCONNECTS/VOUT*%
G36*
X181865645Y-69400000D02*
G01*
X183741645Y-69400000D01*
X183808684Y-69419685D01*
X183854439Y-69472489D01*
X183865645Y-69524000D01*
X183865645Y-78475000D01*
X186040645Y-80650000D01*
X192441645Y-80650000D01*
X192508684Y-80669685D01*
X192554439Y-80722489D01*
X192565645Y-80774000D01*
X192565645Y-82526000D01*
X192545960Y-82593039D01*
X192493156Y-82638794D01*
X192441645Y-82650000D01*
X183915245Y-82650000D01*
X183848206Y-82630315D01*
X183829728Y-82615793D01*
X181804128Y-80686650D01*
X181769158Y-80626162D01*
X181765645Y-80596857D01*
X181765645Y-76187500D01*
X180278145Y-74700000D01*
X174939645Y-74700000D01*
X174872606Y-74680315D01*
X174826851Y-74627511D01*
X174815645Y-74576000D01*
X174815645Y-68625516D01*
X180315645Y-68625516D01*
X180315645Y-68600000D01*
X181865645Y-69400000D01*
G37*
%TD.AperFunction*%
%TD*%
%TA.AperFunction,Conductor*%
%TO.N,/ARCHITECTURE/3. SENSING/ISENSE_N*%
G36*
X149206322Y-77069685D02*
G01*
X149226964Y-77086319D01*
X149879326Y-77738681D01*
X149912811Y-77800004D01*
X149915645Y-77826362D01*
X149915645Y-79579888D01*
X149895960Y-79646927D01*
X149879326Y-79667569D01*
X149333214Y-80213681D01*
X149271891Y-80247166D01*
X149245533Y-80250000D01*
X147067007Y-80250000D01*
X146999968Y-80230315D01*
X146979326Y-80213681D01*
X146265645Y-79500000D01*
X145342007Y-79500000D01*
X145274968Y-79480315D01*
X145254326Y-79463681D01*
X145001964Y-79211319D01*
X144968479Y-79149996D01*
X144965645Y-79123638D01*
X144965645Y-78176362D01*
X144985330Y-78109323D01*
X145001964Y-78088681D01*
X145254326Y-77836319D01*
X145315649Y-77802834D01*
X145342007Y-77800000D01*
X146265645Y-77800000D01*
X146979326Y-77086319D01*
X147040649Y-77052834D01*
X147067007Y-77050000D01*
X149139283Y-77050000D01*
X149206322Y-77069685D01*
G37*
%TD.AperFunction*%
%TD*%
%TA.AperFunction,Conductor*%
%TO.N,GND*%
G36*
X149073891Y-87707197D02*
G01*
X149539467Y-88169927D01*
X149698172Y-88327662D01*
X149701624Y-88335924D01*
X149698222Y-88344208D01*
X149691144Y-88347596D01*
X149630203Y-88353985D01*
X149630200Y-88353985D01*
X149630198Y-88353986D01*
X149602773Y-88361915D01*
X149559032Y-88374563D01*
X149492518Y-88405366D01*
X149492513Y-88405369D01*
X149423027Y-88450801D01*
X149360613Y-88505075D01*
X149360612Y-88505076D01*
X149300927Y-88572041D01*
X149251170Y-88643784D01*
X149251164Y-88643794D01*
X149185007Y-88787378D01*
X149185007Y-88787380D01*
X149167323Y-88890244D01*
X149167316Y-88890282D01*
X149162537Y-88897855D01*
X149155785Y-88900000D01*
X148975538Y-88900000D01*
X148967265Y-88896573D01*
X148964001Y-88890244D01*
X148947119Y-88790079D01*
X148947118Y-88790073D01*
X148919559Y-88718002D01*
X148919558Y-88718001D01*
X148919558Y-88718000D01*
X148880572Y-88644527D01*
X148781367Y-88515862D01*
X148768188Y-88505078D01*
X148665972Y-88421439D01*
X148665968Y-88421437D01*
X148543230Y-88364681D01*
X148543227Y-88364680D01*
X148543226Y-88364680D01*
X148438546Y-88348555D01*
X148430891Y-88343908D01*
X148428763Y-88335210D01*
X148432077Y-88328695D01*
X149057398Y-87707197D01*
X149065681Y-87703796D01*
X149073891Y-87707197D01*
G37*
%TD.AperFunction*%
%TD*%
%TA.AperFunction,Conductor*%
%TO.N,/ARCHITECTURE/5. COMPARATOR/LATCH_IN*%
G36*
X155112619Y-61803426D02*
G01*
X155116039Y-61811291D01*
X155116419Y-61822216D01*
X155127716Y-61895579D01*
X155151855Y-61976574D01*
X155151857Y-61976579D01*
X155231965Y-62140845D01*
X155336985Y-62277859D01*
X155336986Y-62277860D01*
X155336988Y-62277862D01*
X155391426Y-62323708D01*
X155451969Y-62374697D01*
X155451970Y-62374697D01*
X155451972Y-62374699D01*
X155570266Y-62431314D01*
X155570268Y-62431314D01*
X155570270Y-62431315D01*
X155668887Y-62446638D01*
X155676536Y-62451294D01*
X155678652Y-62459995D01*
X155675527Y-62466306D01*
X155073703Y-63092612D01*
X155065500Y-63096203D01*
X155057211Y-63092990D01*
X154408114Y-62476665D01*
X154404474Y-62468483D01*
X154407685Y-62460124D01*
X154414540Y-62456595D01*
X154472173Y-62448503D01*
X154535773Y-62425032D01*
X154595448Y-62390668D01*
X154660644Y-62338174D01*
X154719491Y-62275479D01*
X154778819Y-62194181D01*
X154828408Y-62107188D01*
X154868098Y-62017282D01*
X154896270Y-61930237D01*
X154912340Y-61822216D01*
X154914161Y-61809977D01*
X154918768Y-61802298D01*
X154925734Y-61799999D01*
X155104346Y-61799999D01*
X155112619Y-61803426D01*
G37*
%TD.AperFunction*%
%TD*%
%TA.AperFunction,Conductor*%
%TO.N,Net-(Q601-B)*%
G36*
X175412478Y-89353427D02*
G01*
X175415902Y-89361436D01*
X175415968Y-89364388D01*
X175425671Y-89438103D01*
X175448291Y-89520645D01*
X175525225Y-89689033D01*
X175626406Y-89829146D01*
X175626405Y-89829146D01*
X175678482Y-89875637D01*
X175736814Y-89927715D01*
X175850022Y-89985330D01*
X175850024Y-89985331D01*
X175943231Y-90001164D01*
X175950814Y-90005928D01*
X175952807Y-90014658D01*
X175949520Y-90020997D01*
X175323893Y-90642802D01*
X175315609Y-90646204D01*
X175307397Y-90642802D01*
X175074656Y-90411483D01*
X174682283Y-90021508D01*
X174678832Y-90013248D01*
X174682234Y-90004964D01*
X174688865Y-90001631D01*
X174763058Y-89990957D01*
X174829280Y-89965771D01*
X174891374Y-89929840D01*
X174958446Y-89876327D01*
X175018907Y-89813056D01*
X175078779Y-89732976D01*
X175128774Y-89647740D01*
X175196283Y-89477030D01*
X175214130Y-89359936D01*
X175218764Y-89352275D01*
X175225696Y-89350000D01*
X175404205Y-89350000D01*
X175412478Y-89353427D01*
G37*
%TD.AperFunction*%
%TD*%
%TA.AperFunction,Conductor*%
%TO.N,GND*%
G36*
X149322653Y-68451075D02*
G01*
X149330081Y-68456077D01*
X149331797Y-68464865D01*
X149331499Y-68466026D01*
X149293245Y-68588646D01*
X149292282Y-68590883D01*
X149242565Y-68679583D01*
X149242298Y-68680036D01*
X149226913Y-68704802D01*
X149183163Y-68800426D01*
X149183160Y-68800435D01*
X149170336Y-68863456D01*
X149170335Y-68863463D01*
X149170335Y-68863466D01*
X149166281Y-68933691D01*
X149162384Y-68941752D01*
X149154601Y-68944716D01*
X148976580Y-68944716D01*
X148968307Y-68941289D01*
X148964907Y-68933806D01*
X148960148Y-68863466D01*
X148959386Y-68852196D01*
X148942553Y-68783037D01*
X148888848Y-68679806D01*
X148840826Y-68594895D01*
X148840120Y-68593412D01*
X148816527Y-68533341D01*
X148816086Y-68531980D01*
X148799000Y-68465584D01*
X148800257Y-68456719D01*
X148807415Y-68451338D01*
X148807987Y-68451206D01*
X149063325Y-68399470D01*
X149067965Y-68399470D01*
X149322653Y-68451075D01*
G37*
%TD.AperFunction*%
%TD*%
%TA.AperFunction,Conductor*%
%TO.N,/ARCHITECTURE/2. POLARITY PROTECTION/VPROT*%
G36*
X173573348Y-64970467D02*
G01*
X173574455Y-64971574D01*
X174185218Y-65670133D01*
X174188084Y-65678617D01*
X174184111Y-65686642D01*
X174180268Y-65688880D01*
X174125480Y-65708015D01*
X174125478Y-65708016D01*
X174057799Y-65745934D01*
X174057786Y-65745944D01*
X173994365Y-65794989D01*
X173994363Y-65794991D01*
X173925665Y-65864423D01*
X173925661Y-65864427D01*
X173863839Y-65943709D01*
X173863837Y-65943712D01*
X173803183Y-66040909D01*
X173752617Y-66142565D01*
X173685019Y-66341153D01*
X173666993Y-66477335D01*
X173662510Y-66485087D01*
X173655394Y-66487500D01*
X173475841Y-66487500D01*
X173467568Y-66484073D01*
X173464251Y-66477403D01*
X173444230Y-66332641D01*
X173444230Y-66332639D01*
X173374331Y-66132842D01*
X173323054Y-66040914D01*
X173274633Y-65954104D01*
X173274627Y-65954095D01*
X173162973Y-65819204D01*
X173162966Y-65819198D01*
X173048784Y-65730423D01*
X173048785Y-65730423D01*
X172949739Y-65689408D01*
X172943406Y-65683076D01*
X172943405Y-65674122D01*
X172945403Y-65670902D01*
X173556839Y-64971573D01*
X173564864Y-64967601D01*
X173573348Y-64970467D01*
G37*
%TD.AperFunction*%
%TD*%
%TA.AperFunction,Conductor*%
%TO.N,GND*%
G36*
X154286068Y-57955764D02*
G01*
X154289109Y-57959819D01*
X154308932Y-58003627D01*
X154350518Y-58060573D01*
X154403186Y-58111825D01*
X154479156Y-58166637D01*
X154563433Y-58212417D01*
X154660974Y-58252269D01*
X154756854Y-58280336D01*
X154893008Y-58298637D01*
X154900748Y-58303135D01*
X154903147Y-58310232D01*
X154903147Y-58489086D01*
X154899720Y-58497359D01*
X154892447Y-58500743D01*
X154823052Y-58506697D01*
X154823042Y-58506699D01*
X154732601Y-58525762D01*
X154732580Y-58525768D01*
X154558211Y-58590077D01*
X154421784Y-58673146D01*
X154331104Y-58763262D01*
X154289571Y-58841735D01*
X154282672Y-58847444D01*
X154273757Y-58846603D01*
X154270349Y-58843879D01*
X153997514Y-58525768D01*
X153896178Y-58407615D01*
X153893394Y-58399106D01*
X153896178Y-58392384D01*
X154269570Y-57957027D01*
X154277557Y-57952979D01*
X154286068Y-57955764D01*
G37*
%TD.AperFunction*%
%TD*%
%TA.AperFunction,Conductor*%
%TO.N,GND*%
G36*
X146059410Y-69267869D02*
G01*
X146062820Y-69275173D01*
X146067257Y-69327224D01*
X146085384Y-69401762D01*
X146085385Y-69401765D01*
X146113517Y-69471296D01*
X146154813Y-69542392D01*
X146154818Y-69542401D01*
X146195740Y-69594859D01*
X146204533Y-69606131D01*
X146264901Y-69665702D01*
X146329890Y-69715315D01*
X146460028Y-69780638D01*
X146556057Y-69798242D01*
X146563574Y-69803103D01*
X146565645Y-69809749D01*
X146565645Y-69989901D01*
X146562218Y-69998174D01*
X146555655Y-70001475D01*
X146483627Y-70012116D01*
X146417832Y-70035902D01*
X146417829Y-70035903D01*
X146350540Y-70071457D01*
X146228570Y-70168274D01*
X146136604Y-70286133D01*
X146136602Y-70286136D01*
X146080345Y-70414703D01*
X146080344Y-70414708D01*
X146064043Y-70526826D01*
X146059462Y-70534520D01*
X146050782Y-70536721D01*
X146044167Y-70533391D01*
X145549718Y-70035902D01*
X145422843Y-69908246D01*
X145419442Y-69899964D01*
X145422843Y-69891753D01*
X146042864Y-69267918D01*
X146051126Y-69264467D01*
X146059410Y-69267869D01*
G37*
%TD.AperFunction*%
%TD*%
%TA.AperFunction,Conductor*%
%TO.N,/ARCHITECTURE/3. SENSING/VSENSE_12V*%
G36*
X151602890Y-83241163D02*
G01*
X151603260Y-83241421D01*
X151786597Y-83374880D01*
X151939746Y-83481570D01*
X151939746Y-83481571D01*
X151939747Y-83481571D01*
X151939748Y-83481572D01*
X152000121Y-83509248D01*
X152069302Y-83529685D01*
X152172651Y-83544961D01*
X152294781Y-83549574D01*
X152302918Y-83553311D01*
X152306038Y-83561266D01*
X152306038Y-83738958D01*
X152302611Y-83747231D01*
X152295015Y-83750638D01*
X152123309Y-83760586D01*
X151994708Y-83792826D01*
X151994706Y-83792826D01*
X151994706Y-83792827D01*
X151891914Y-83847433D01*
X151891912Y-83847434D01*
X151891909Y-83847436D01*
X151786600Y-83925117D01*
X151786541Y-83925160D01*
X151603260Y-84058578D01*
X151594554Y-84060677D01*
X151586915Y-84056005D01*
X151586657Y-84055635D01*
X151319015Y-83656515D01*
X151317253Y-83647735D01*
X151319015Y-83643483D01*
X151586658Y-83244363D01*
X151594110Y-83239401D01*
X151602890Y-83241163D01*
G37*
%TD.AperFunction*%
%TD*%
%TA.AperFunction,Conductor*%
%TO.N,/ARCHITECTURE/5. COMPARATOR/~{17V_FAULT}*%
G36*
X154158749Y-71387313D02*
G01*
X154165072Y-71393654D01*
X154165955Y-71397904D01*
X154166597Y-71433164D01*
X154178183Y-71563402D01*
X154201761Y-71697472D01*
X154240262Y-71848110D01*
X154289862Y-71997722D01*
X154289863Y-71997724D01*
X154350801Y-72148210D01*
X154419417Y-72291025D01*
X154562293Y-72527844D01*
X154685056Y-72676559D01*
X154687680Y-72685119D01*
X154684306Y-72692279D01*
X154557873Y-72818712D01*
X154549600Y-72822139D01*
X154542213Y-72819512D01*
X154443571Y-72739188D01*
X154443569Y-72739186D01*
X154347809Y-72680034D01*
X154296246Y-72654053D01*
X154238971Y-72625194D01*
X154238967Y-72625192D01*
X154238960Y-72625189D01*
X154011478Y-72541928D01*
X153799112Y-72499687D01*
X153799117Y-72499687D01*
X153687807Y-72497459D01*
X153618244Y-72496067D01*
X153618243Y-72496067D01*
X153618239Y-72496067D01*
X153618237Y-72496067D01*
X153486097Y-72522105D01*
X153477317Y-72520342D01*
X153472356Y-72512888D01*
X153472149Y-72510045D01*
X153472844Y-72496067D01*
X153514569Y-71656695D01*
X153518402Y-71648605D01*
X153521788Y-71646465D01*
X154149796Y-71387302D01*
X154158749Y-71387313D01*
G37*
%TD.AperFunction*%
%TD*%
%TA.AperFunction,Conductor*%
%TO.N,GND*%
G36*
X167960769Y-57405164D02*
G01*
X168416745Y-57773796D01*
X168421024Y-57781663D01*
X168418488Y-57790251D01*
X168413134Y-57793979D01*
X168360769Y-57811671D01*
X168360759Y-57811676D01*
X168304225Y-57847231D01*
X168253278Y-57893652D01*
X168198743Y-57961791D01*
X168153124Y-58038257D01*
X168153123Y-58038260D01*
X168113333Y-58127465D01*
X168113323Y-58127490D01*
X168085272Y-58215581D01*
X168085268Y-58215600D01*
X168067107Y-58339990D01*
X168062521Y-58347682D01*
X168055530Y-58350000D01*
X167876937Y-58350000D01*
X167868664Y-58346573D01*
X167865244Y-58338717D01*
X167864824Y-58326923D01*
X167854038Y-58253906D01*
X167831103Y-58172137D01*
X167769185Y-58038258D01*
X167761677Y-58022024D01*
X167761676Y-58022023D01*
X167761675Y-58022020D01*
X167675621Y-57909329D01*
X167582844Y-57838338D01*
X167582840Y-57838336D01*
X167582839Y-57838336D01*
X167504566Y-57811961D01*
X167497820Y-57806072D01*
X167497215Y-57797138D01*
X167500628Y-57792043D01*
X167945742Y-57405429D01*
X167954234Y-57402592D01*
X167960769Y-57405164D01*
G37*
%TD.AperFunction*%
%TD*%
%TA.AperFunction,Conductor*%
%TO.N,/ARCHITECTURE/5. COMPARATOR/LATCH_IN*%
G36*
X151290645Y-61050000D02*
G01*
X151215103Y-61044593D01*
X151124541Y-61026747D01*
X151046955Y-61000293D01*
X150976993Y-60961843D01*
X150936856Y-60926825D01*
X150907527Y-60884646D01*
X150898048Y-60861418D01*
X150014645Y-61150000D01*
X150898048Y-61438582D01*
X150938857Y-61371016D01*
X151016693Y-61314032D01*
X151136668Y-61270144D01*
X151290645Y-61250000D01*
X151290645Y-61050000D01*
G37*
%TD.AperFunction*%
%TD*%
%TA.AperFunction,Conductor*%
%TO.N,GND*%
G36*
X151413004Y-69028426D02*
G01*
X151416388Y-69035699D01*
X151422343Y-69105094D01*
X151422345Y-69105104D01*
X151441407Y-69195545D01*
X151441413Y-69195566D01*
X151505722Y-69369935D01*
X151588791Y-69506362D01*
X151659611Y-69577625D01*
X151678908Y-69597043D01*
X151720795Y-69619212D01*
X151757380Y-69638575D01*
X151763089Y-69645474D01*
X151762248Y-69654389D01*
X151759524Y-69657797D01*
X151323262Y-70031966D01*
X151314751Y-70034751D01*
X151308028Y-70031966D01*
X150872673Y-69658576D01*
X150868624Y-69650589D01*
X150871409Y-69642078D01*
X150875463Y-69639037D01*
X150919273Y-69619214D01*
X150976218Y-69577628D01*
X151027470Y-69524961D01*
X151082282Y-69448990D01*
X151128062Y-69364713D01*
X151167914Y-69267172D01*
X151195981Y-69171293D01*
X151214282Y-69035140D01*
X151218781Y-69027397D01*
X151225878Y-69024999D01*
X151404731Y-69024999D01*
X151413004Y-69028426D01*
G37*
%TD.AperFunction*%
%TD*%
%TA.AperFunction,Conductor*%
%TO.N,/ARCHITECTURE/3. SENSING/VSENSE_12V*%
G36*
X149668822Y-82119685D02*
G01*
X149689464Y-82136319D01*
X149879326Y-82326181D01*
X149912811Y-82387504D01*
X149915645Y-82413862D01*
X149915645Y-82953125D01*
X150112520Y-83150000D01*
X151191645Y-83150000D01*
X151258684Y-83169685D01*
X151304439Y-83222489D01*
X151315645Y-83274000D01*
X151315645Y-84026000D01*
X151295960Y-84093039D01*
X151243156Y-84138794D01*
X151191645Y-84150000D01*
X150112519Y-84150000D01*
X149915645Y-84346874D01*
X149915645Y-84886138D01*
X149895960Y-84953177D01*
X149879326Y-84973819D01*
X149689464Y-85163681D01*
X149628141Y-85197166D01*
X149601783Y-85200000D01*
X148626382Y-85200000D01*
X148559343Y-85180315D01*
X148538701Y-85163681D01*
X148251964Y-84876944D01*
X148218479Y-84815621D01*
X148215645Y-84789263D01*
X148215645Y-82576362D01*
X148235330Y-82509323D01*
X148251964Y-82488681D01*
X148604326Y-82136319D01*
X148665649Y-82102834D01*
X148692007Y-82100000D01*
X149601783Y-82100000D01*
X149668822Y-82119685D01*
G37*
%TD.AperFunction*%
%TD*%
%TA.AperFunction,Conductor*%
%TO.N,VCC_5V*%
G36*
X158421624Y-76460488D02*
G01*
X158427161Y-76466500D01*
X158432523Y-76479638D01*
X158432530Y-76479651D01*
X158461852Y-76521820D01*
X158461856Y-76521825D01*
X158501993Y-76556843D01*
X158571955Y-76595293D01*
X158571957Y-76595294D01*
X158649536Y-76621746D01*
X158740091Y-76639591D01*
X158740094Y-76639591D01*
X158740103Y-76639593D01*
X158804780Y-76644222D01*
X158812788Y-76648231D01*
X158815645Y-76655892D01*
X158815645Y-76834731D01*
X158812218Y-76843004D01*
X158805463Y-76846332D01*
X158661666Y-76865144D01*
X158661664Y-76865145D01*
X158541693Y-76909031D01*
X158541688Y-76909034D01*
X158463860Y-76966012D01*
X158463857Y-76966015D01*
X158427856Y-77025621D01*
X158420645Y-77030931D01*
X158414208Y-77030694D01*
X157849841Y-76846332D01*
X157573690Y-76756121D01*
X157566891Y-76750295D01*
X157566202Y-76741367D01*
X157572029Y-76734567D01*
X157573689Y-76733878D01*
X158412697Y-76459799D01*
X158421624Y-76460488D01*
G37*
%TD.AperFunction*%
%TD*%
%TA.AperFunction,Conductor*%
%TO.N,/ARCHITECTURE/3. SENSING/VSENSE_17V*%
G36*
X149668822Y-72127945D02*
G01*
X149689464Y-72144579D01*
X149879326Y-72334441D01*
X149912811Y-72395764D01*
X149915645Y-72422122D01*
X149915645Y-72961385D01*
X150112520Y-73158260D01*
X151191645Y-73158260D01*
X151258684Y-73177945D01*
X151304439Y-73230749D01*
X151315645Y-73282260D01*
X151315645Y-74034260D01*
X151295960Y-74101299D01*
X151243156Y-74147054D01*
X151191645Y-74158260D01*
X150112519Y-74158260D01*
X149915645Y-74355134D01*
X149915645Y-74894398D01*
X149895960Y-74961437D01*
X149879326Y-74982079D01*
X149689464Y-75171941D01*
X149628141Y-75205426D01*
X149601783Y-75208260D01*
X148626382Y-75208260D01*
X148559343Y-75188575D01*
X148538701Y-75171941D01*
X148251964Y-74885204D01*
X148218479Y-74823881D01*
X148215645Y-74797523D01*
X148215645Y-72584622D01*
X148235330Y-72517583D01*
X148251964Y-72496941D01*
X148604326Y-72144579D01*
X148665649Y-72111094D01*
X148692007Y-72108260D01*
X149601783Y-72108260D01*
X149668822Y-72127945D01*
G37*
%TD.AperFunction*%
%TD*%
%TA.AperFunction,Conductor*%
%TO.N,VCC_5V*%
G36*
X154357245Y-65579759D02*
G01*
X154475484Y-65683138D01*
X155056570Y-66191193D01*
X155060543Y-66199218D01*
X155057677Y-66207702D01*
X155056570Y-66208809D01*
X154358011Y-66819572D01*
X154349527Y-66822438D01*
X154341502Y-66818465D01*
X154339264Y-66814622D01*
X154320131Y-66759836D01*
X154311129Y-66743769D01*
X154282210Y-66692152D01*
X154282208Y-66692149D01*
X154282206Y-66692146D01*
X154233153Y-66628717D01*
X154163723Y-66560020D01*
X154084432Y-66498190D01*
X154042526Y-66472040D01*
X153987235Y-66437537D01*
X153885580Y-66386971D01*
X153686991Y-66319373D01*
X153550810Y-66301346D01*
X153543058Y-66296863D01*
X153540645Y-66289747D01*
X153540645Y-66110194D01*
X153544072Y-66101921D01*
X153550740Y-66098604D01*
X153695507Y-66078583D01*
X153895305Y-66008684D01*
X154074046Y-65908984D01*
X154208944Y-65797325D01*
X154297722Y-65683138D01*
X154338737Y-65584091D01*
X154345068Y-65577760D01*
X154354022Y-65577759D01*
X154357245Y-65579759D01*
G37*
%TD.AperFunction*%
%TD*%
%TA.AperFunction,Conductor*%
%TO.N,Net-(U501B-+)*%
G36*
X157260680Y-73516589D02*
G01*
X157264013Y-73523221D01*
X157274687Y-73597411D01*
X157299875Y-73663635D01*
X157335801Y-73725723D01*
X157335802Y-73725725D01*
X157335805Y-73725729D01*
X157389318Y-73792801D01*
X157389321Y-73792805D01*
X157444012Y-73845066D01*
X157452590Y-73853263D01*
X157532670Y-73913135D01*
X157532673Y-73913137D01*
X157617905Y-73963129D01*
X157788616Y-74030638D01*
X157905709Y-74048485D01*
X157913371Y-74053119D01*
X157915646Y-74060051D01*
X157915646Y-74238560D01*
X157912219Y-74246833D01*
X157904210Y-74250257D01*
X157901257Y-74250323D01*
X157827542Y-74260026D01*
X157745001Y-74282646D01*
X157576612Y-74359579D01*
X157436499Y-74460760D01*
X157337931Y-74571168D01*
X157280314Y-74684378D01*
X157269993Y-74745132D01*
X157264480Y-74777587D01*
X157259716Y-74785169D01*
X157250985Y-74787162D01*
X157244647Y-74783875D01*
X156978237Y-74515828D01*
X156622842Y-74158246D01*
X156619441Y-74149964D01*
X156622842Y-74141753D01*
X157244136Y-73516637D01*
X157252396Y-73513187D01*
X157260680Y-73516589D01*
G37*
%TD.AperFunction*%
%TD*%
%TA.AperFunction,Conductor*%
%TO.N,/ARCHITECTURE/2. POLARITY PROTECTION/VPROT*%
G36*
X141581322Y-77319685D02*
G01*
X141601964Y-77336319D01*
X142065645Y-77800000D01*
X144114283Y-77800000D01*
X144181322Y-77819685D01*
X144201964Y-77836319D01*
X144379326Y-78013681D01*
X144412811Y-78075004D01*
X144415645Y-78101362D01*
X144415645Y-79198638D01*
X144395960Y-79265677D01*
X144379326Y-79286319D01*
X144201964Y-79463681D01*
X144140641Y-79497166D01*
X144114283Y-79500000D01*
X141859394Y-79500000D01*
X141565645Y-79793749D01*
X141565645Y-82047818D01*
X141545960Y-82114857D01*
X141528336Y-82136479D01*
X141039287Y-82614661D01*
X140977591Y-82647455D01*
X140952596Y-82650000D01*
X140015644Y-82650000D01*
X139315645Y-83349999D01*
X139315645Y-84908795D01*
X139307000Y-84938235D01*
X139300477Y-84968222D01*
X139296722Y-84973237D01*
X139295960Y-84975834D01*
X139279326Y-84996476D01*
X139162121Y-85113681D01*
X139100798Y-85147166D01*
X139074440Y-85150000D01*
X138607632Y-85150000D01*
X138540593Y-85130315D01*
X138519951Y-85113681D01*
X138351964Y-84945694D01*
X138318479Y-84884371D01*
X138315645Y-84858013D01*
X138315645Y-84201362D01*
X138335330Y-84134323D01*
X138351964Y-84113681D01*
X138465645Y-84000000D01*
X138465645Y-81588862D01*
X138474289Y-81559421D01*
X138480813Y-81529435D01*
X138484567Y-81524419D01*
X138485330Y-81521823D01*
X138501964Y-81501181D01*
X138666826Y-81336319D01*
X138728149Y-81302834D01*
X138754507Y-81300000D01*
X139237520Y-81300000D01*
X139415645Y-81121875D01*
X139415645Y-77424000D01*
X139435330Y-77356961D01*
X139488134Y-77311206D01*
X139539645Y-77300000D01*
X141514283Y-77300000D01*
X141581322Y-77319685D01*
G37*
%TD.AperFunction*%
%TD*%
%TA.AperFunction,Conductor*%
%TO.N,/ARCHITECTURE/2. POLARITY PROTECTION/VPROT*%
G36*
X180258684Y-77306365D02*
G01*
X180304439Y-77359169D01*
X180315645Y-77410680D01*
X180315645Y-79885318D01*
X180295960Y-79952357D01*
X180279326Y-79972999D01*
X179765645Y-80486679D01*
X179765645Y-82835318D01*
X179745960Y-82902357D01*
X179729326Y-82922999D01*
X179315645Y-83336679D01*
X179315645Y-84898285D01*
X179307110Y-84927348D01*
X179300870Y-84956986D01*
X179296782Y-84962522D01*
X179295960Y-84965324D01*
X179279911Y-84985376D01*
X179163883Y-85102961D01*
X179102784Y-85136853D01*
X179077272Y-85139854D01*
X178617487Y-85145979D01*
X178550191Y-85127189D01*
X178528740Y-85110253D01*
X178352550Y-84936394D01*
X178318657Y-84875295D01*
X178315645Y-84848131D01*
X178315645Y-84188042D01*
X178335330Y-84121003D01*
X178351964Y-84100361D01*
X178465645Y-83986680D01*
X178465645Y-81286680D01*
X178465645Y-80688042D01*
X178485330Y-80621003D01*
X178501964Y-80600361D01*
X178615646Y-80486679D01*
X179415645Y-79686680D01*
X179415645Y-79500000D01*
X179415645Y-77410680D01*
X179435330Y-77343641D01*
X179488134Y-77297886D01*
X179539645Y-77286680D01*
X180191645Y-77286680D01*
X180258684Y-77306365D01*
G37*
%TD.AperFunction*%
%TD*%
%TA.AperFunction,Conductor*%
%TO.N,GND*%
G36*
X151323260Y-87380533D02*
G01*
X151602591Y-87620107D01*
X151758616Y-87753925D01*
X151762665Y-87761912D01*
X151759880Y-87770423D01*
X151755822Y-87773465D01*
X151712022Y-87793284D01*
X151712016Y-87793288D01*
X151655069Y-87834876D01*
X151603825Y-87887535D01*
X151603816Y-87887545D01*
X151549009Y-87963510D01*
X151549006Y-87963515D01*
X151503230Y-88047785D01*
X151463376Y-88145328D01*
X151435308Y-88241210D01*
X151417008Y-88377361D01*
X151412509Y-88385104D01*
X151405412Y-88387502D01*
X151226559Y-88387502D01*
X151218286Y-88384075D01*
X151214902Y-88376802D01*
X151208946Y-88307406D01*
X151208944Y-88307396D01*
X151189882Y-88216955D01*
X151189881Y-88216951D01*
X151189879Y-88216942D01*
X151125568Y-88042568D01*
X151042498Y-87906139D01*
X151024010Y-87887535D01*
X150952384Y-87815460D01*
X150873909Y-87773926D01*
X150868200Y-87767027D01*
X150869041Y-87758112D01*
X150871765Y-87754704D01*
X150872673Y-87753925D01*
X151308029Y-87380533D01*
X151316539Y-87377749D01*
X151323260Y-87380533D01*
G37*
%TD.AperFunction*%
%TD*%
%TA.AperFunction,Conductor*%
%TO.N,VCC_5V*%
G36*
X159673315Y-76555662D02*
G01*
X160117573Y-76941532D01*
X160121572Y-76949544D01*
X160118734Y-76958037D01*
X160113283Y-76961566D01*
X160059414Y-76977831D01*
X160003348Y-77011204D01*
X159952791Y-77055431D01*
X159952783Y-77055439D01*
X159898542Y-77121044D01*
X159898534Y-77121055D01*
X159853119Y-77195134D01*
X159813326Y-77282232D01*
X159785268Y-77368456D01*
X159767133Y-77490026D01*
X159762523Y-77497703D01*
X159755561Y-77500000D01*
X159577013Y-77500000D01*
X159568740Y-77496573D01*
X159565318Y-77488637D01*
X159565103Y-77481162D01*
X159555205Y-77407792D01*
X159533164Y-77324842D01*
X159465834Y-77172873D01*
X159382314Y-77059382D01*
X159321378Y-77011204D01*
X159292388Y-76988283D01*
X159262258Y-76977831D01*
X159216809Y-76962064D01*
X159210117Y-76956116D01*
X159209591Y-76947176D01*
X159212973Y-76942178D01*
X159213717Y-76941532D01*
X159657974Y-76555662D01*
X159666466Y-76552825D01*
X159673315Y-76555662D01*
G37*
%TD.AperFunction*%
%TD*%
%TA.AperFunction,Conductor*%
%TO.N,Net-(D502-A)*%
G36*
X169240644Y-78550000D02*
G01*
X169112833Y-78530587D01*
X169028127Y-78502497D01*
X168941172Y-78462894D01*
X168859171Y-78414243D01*
X168783478Y-78356062D01*
X168726723Y-78299038D01*
X168680264Y-78235846D01*
X168650979Y-78177971D01*
X168632468Y-78116211D01*
X168627017Y-78075000D01*
X168089644Y-78650000D01*
X168627017Y-79225000D01*
X168652992Y-79117143D01*
X168717100Y-79012413D01*
X168822785Y-78911779D01*
X168969169Y-78823124D01*
X169136296Y-78763524D01*
X169240644Y-78750000D01*
X169240644Y-78550000D01*
G37*
%TD.AperFunction*%
%TD*%
%TA.AperFunction,Conductor*%
%TO.N,Net-(D601-A)*%
G36*
X175663782Y-77319685D02*
G01*
X175709537Y-77372489D01*
X175720743Y-77424000D01*
X175720743Y-79700000D01*
X176629639Y-80613800D01*
X176662959Y-80675213D01*
X176665722Y-80701056D01*
X176670743Y-84000000D01*
X176784424Y-84113681D01*
X176817909Y-84175004D01*
X176820743Y-84201362D01*
X176820743Y-84897816D01*
X176818607Y-84920733D01*
X176615645Y-85999997D01*
X176583970Y-87292784D01*
X176574827Y-87321313D01*
X176568103Y-87350502D01*
X176563592Y-87356375D01*
X176562649Y-87359321D01*
X176546608Y-87378495D01*
X176509456Y-87414748D01*
X176447727Y-87447480D01*
X176422855Y-87450000D01*
X176204458Y-87450000D01*
X176137419Y-87430315D01*
X176116624Y-87413528D01*
X176047427Y-87344089D01*
X176014049Y-87282708D01*
X176011262Y-87256133D01*
X176015645Y-86000000D01*
X175822865Y-84971478D01*
X175820743Y-84948634D01*
X175820743Y-83350000D01*
X175407783Y-82987036D01*
X175370424Y-82927993D01*
X175365645Y-82893898D01*
X175365645Y-80500000D01*
X174851964Y-79986319D01*
X174818479Y-79924996D01*
X174815645Y-79898638D01*
X174815645Y-77424000D01*
X174835330Y-77356961D01*
X174888134Y-77311206D01*
X174939645Y-77300000D01*
X175596743Y-77300000D01*
X175663782Y-77319685D01*
G37*
%TD.AperFunction*%
%TD*%
%TA.AperFunction,Conductor*%
%TO.N,Net-(Q601-B)*%
G36*
X175369760Y-88605971D02*
G01*
X175375867Y-88612351D01*
X175628886Y-89252188D01*
X175628742Y-89261141D01*
X175622308Y-89267370D01*
X175621802Y-89267557D01*
X175584675Y-89280290D01*
X175584671Y-89280292D01*
X175540022Y-89311025D01*
X175502923Y-89351990D01*
X175502921Y-89351993D01*
X175502919Y-89351994D01*
X175502918Y-89351997D01*
X175502406Y-89352869D01*
X175464045Y-89418161D01*
X175464044Y-89418163D01*
X175437211Y-89489812D01*
X175437209Y-89489816D01*
X175420840Y-89563082D01*
X175416545Y-89614278D01*
X175412438Y-89622236D01*
X175404886Y-89625000D01*
X175226547Y-89625000D01*
X175218274Y-89621573D01*
X175214876Y-89614125D01*
X175211268Y-89563083D01*
X175205585Y-89482666D01*
X175174589Y-89352869D01*
X175130817Y-89272777D01*
X175084526Y-89238008D01*
X175079968Y-89230300D01*
X175080869Y-89223883D01*
X175354305Y-88611879D01*
X175360808Y-88605725D01*
X175369760Y-88605971D01*
G37*
%TD.AperFunction*%
%TD*%
%TA.AperFunction,Conductor*%
%TO.N,/ARCHITECTURE/5. COMPARATOR/~{OC_DETECT}*%
G36*
X145352890Y-55241163D02*
G01*
X145353260Y-55241421D01*
X145536597Y-55374880D01*
X145689746Y-55481570D01*
X145689746Y-55481571D01*
X145689747Y-55481571D01*
X145689748Y-55481572D01*
X145750121Y-55509248D01*
X145819302Y-55529685D01*
X145922651Y-55544961D01*
X146044781Y-55549574D01*
X146052918Y-55553311D01*
X146056038Y-55561266D01*
X146056038Y-55738958D01*
X146052611Y-55747231D01*
X146045015Y-55750638D01*
X145873309Y-55760586D01*
X145744708Y-55792826D01*
X145744706Y-55792826D01*
X145744706Y-55792827D01*
X145641914Y-55847433D01*
X145641912Y-55847434D01*
X145641909Y-55847436D01*
X145536600Y-55925117D01*
X145536541Y-55925160D01*
X145353260Y-56058578D01*
X145344554Y-56060677D01*
X145336915Y-56056005D01*
X145336657Y-56055635D01*
X145069013Y-55656514D01*
X145067252Y-55647737D01*
X145069013Y-55643486D01*
X145336658Y-55244363D01*
X145344110Y-55239401D01*
X145352890Y-55241163D01*
G37*
%TD.AperFunction*%
%TD*%
%TA.AperFunction,Conductor*%
%TO.N,GND*%
G36*
X166448535Y-73204649D02*
G01*
X166452355Y-73209985D01*
X166468701Y-73256641D01*
X166504264Y-73312516D01*
X166504265Y-73312517D01*
X166550827Y-73362887D01*
X166550830Y-73362889D01*
X166619668Y-73417077D01*
X166619675Y-73417081D01*
X166619679Y-73417084D01*
X166697102Y-73462428D01*
X166788253Y-73502276D01*
X166878317Y-73530349D01*
X166878318Y-73530349D01*
X166878321Y-73530350D01*
X166919526Y-73536245D01*
X167005603Y-73548563D01*
X167013307Y-73553126D01*
X167015645Y-73560144D01*
X167015645Y-73738771D01*
X167012218Y-73747044D01*
X167004426Y-73750461D01*
X166989342Y-73751081D01*
X166953043Y-73756817D01*
X166916749Y-73762552D01*
X166916747Y-73762552D01*
X166916744Y-73762553D01*
X166836014Y-73786164D01*
X166687769Y-73857097D01*
X166687768Y-73857097D01*
X166576244Y-73944909D01*
X166505878Y-74039670D01*
X166479782Y-74119899D01*
X166473964Y-74126706D01*
X166465037Y-74127406D01*
X166459874Y-74124010D01*
X166071071Y-73682298D01*
X166068177Y-73673824D01*
X166070647Y-73667347D01*
X166432110Y-73206630D01*
X166439911Y-73202238D01*
X166448535Y-73204649D01*
G37*
%TD.AperFunction*%
%TD*%
%TA.AperFunction,Conductor*%
%TO.N,Net-(Q601-B)*%
G36*
X166933208Y-83709564D02*
G01*
X166937042Y-83717657D01*
X166936687Y-83721152D01*
X166921387Y-83780639D01*
X166921384Y-83780655D01*
X166910184Y-83874674D01*
X166910323Y-83973177D01*
X166910323Y-83973184D01*
X166922984Y-84089815D01*
X166947299Y-84207323D01*
X166947303Y-84207340D01*
X166984688Y-84332452D01*
X166984689Y-84332454D01*
X166984692Y-84332461D01*
X166984693Y-84332465D01*
X167018017Y-84417866D01*
X167031367Y-84452076D01*
X167031367Y-84452077D01*
X167044980Y-84477617D01*
X167139608Y-84655160D01*
X167235387Y-84776597D01*
X167237819Y-84785215D01*
X167234473Y-84792115D01*
X167108356Y-84918232D01*
X167100083Y-84921659D01*
X167092145Y-84918554D01*
X167047002Y-84876855D01*
X166947350Y-84799384D01*
X166924955Y-84784762D01*
X166830801Y-84723286D01*
X166830796Y-84723283D01*
X166830794Y-84723282D01*
X166556939Y-84582111D01*
X166273842Y-84477617D01*
X166273821Y-84477611D01*
X166015469Y-84417864D01*
X165812387Y-84401305D01*
X165804420Y-84397217D01*
X165801677Y-84388693D01*
X165802523Y-84385181D01*
X165875914Y-84207340D01*
X166062109Y-83756148D01*
X166068432Y-83749809D01*
X166072337Y-83748927D01*
X166924777Y-83706552D01*
X166933208Y-83709564D01*
G37*
%TD.AperFunction*%
%TD*%
%TA.AperFunction,Conductor*%
%TO.N,/ARCHITECTURE/3. SENSING/VSENSE_17V*%
G36*
X153025742Y-73305726D02*
G01*
X153028737Y-73309135D01*
X153278829Y-73740147D01*
X153397342Y-73944394D01*
X153511197Y-74140612D01*
X153512385Y-74149488D01*
X153507691Y-74156135D01*
X152882463Y-74584631D01*
X152873702Y-74586481D01*
X152866198Y-74581594D01*
X152864179Y-74575820D01*
X152856573Y-74470209D01*
X152856573Y-74470206D01*
X152836754Y-74372021D01*
X152807077Y-74278582D01*
X152765918Y-74184891D01*
X152716385Y-74098153D01*
X152657971Y-74016690D01*
X152593802Y-73944390D01*
X152457632Y-73832709D01*
X152392651Y-73801028D01*
X152327671Y-73769348D01*
X152225353Y-73751676D01*
X152217783Y-73746891D01*
X152215644Y-73740147D01*
X152215644Y-73560745D01*
X152219071Y-73552472D01*
X152226348Y-73549087D01*
X152465290Y-73528731D01*
X152707764Y-73478168D01*
X152875330Y-73417138D01*
X152973097Y-73355088D01*
X153009340Y-73307879D01*
X153017093Y-73303407D01*
X153025742Y-73305726D01*
G37*
%TD.AperFunction*%
%TD*%
%TA.AperFunction,Conductor*%
%TO.N,VREF_2V5*%
G36*
X143754770Y-59791611D02*
G01*
X143827883Y-59841499D01*
X143915248Y-59886282D01*
X144035906Y-59950708D01*
X144075599Y-59981503D01*
X144090645Y-60010655D01*
X145066352Y-59880707D01*
X145089071Y-59580000D01*
X144907771Y-59629207D01*
X144737260Y-59664440D01*
X144594268Y-59683650D01*
X144461734Y-59690618D01*
X144353310Y-59686157D01*
X144254403Y-59671323D01*
X144174704Y-59649083D01*
X144103452Y-59618107D01*
X144002257Y-59544124D01*
X143754770Y-59791611D01*
G37*
%TD.AperFunction*%
%TD*%
%TA.AperFunction,Conductor*%
%TO.N,/ARCHITECTURE/3. SENSING/VSENSE_12V*%
G36*
X151413004Y-84640927D02*
G01*
X151416388Y-84648200D01*
X151422343Y-84717595D01*
X151422345Y-84717605D01*
X151441407Y-84808046D01*
X151441413Y-84808067D01*
X151505722Y-84982436D01*
X151588791Y-85118863D01*
X151659611Y-85190126D01*
X151678908Y-85209544D01*
X151720795Y-85231713D01*
X151757380Y-85251076D01*
X151763089Y-85257975D01*
X151762248Y-85266890D01*
X151759524Y-85270298D01*
X151323262Y-85644467D01*
X151314751Y-85647252D01*
X151308028Y-85644467D01*
X150872673Y-85271077D01*
X150868624Y-85263090D01*
X150871409Y-85254579D01*
X150875463Y-85251538D01*
X150919273Y-85231715D01*
X150976218Y-85190129D01*
X151027470Y-85137462D01*
X151082282Y-85061491D01*
X151128062Y-84977214D01*
X151167914Y-84879673D01*
X151195981Y-84783794D01*
X151214282Y-84647641D01*
X151218781Y-84639898D01*
X151225878Y-84637500D01*
X151404731Y-84637500D01*
X151413004Y-84640927D01*
G37*
%TD.AperFunction*%
%TD*%
%TA.AperFunction,Conductor*%
%TO.N,VREF_2V5*%
G36*
X157539462Y-79287833D02*
G01*
X157543189Y-79294491D01*
X157593019Y-79571082D01*
X157591113Y-79579831D01*
X157583578Y-79584671D01*
X157581384Y-79584855D01*
X157302684Y-79582000D01*
X157302672Y-79582001D01*
X157302668Y-79582001D01*
X157180260Y-79596193D01*
X157029583Y-79613664D01*
X156806814Y-79674545D01*
X156806805Y-79674548D01*
X156633913Y-79757277D01*
X156633912Y-79757277D01*
X156515325Y-79849611D01*
X156506692Y-79851989D01*
X156499864Y-79848652D01*
X156269480Y-79618268D01*
X156266053Y-79609995D01*
X156269480Y-79601722D01*
X156270970Y-79600463D01*
X156377060Y-79525171D01*
X156377130Y-79525123D01*
X156498705Y-79442139D01*
X156554501Y-79384098D01*
X156563539Y-79348386D01*
X156568890Y-79341207D01*
X156574212Y-79339576D01*
X157531006Y-79284884D01*
X157539462Y-79287833D01*
G37*
%TD.AperFunction*%
%TD*%
%TA.AperFunction,Conductor*%
%TO.N,Net-(U501A--)*%
G36*
X156210004Y-81752552D02*
G01*
X156293578Y-81832239D01*
X156293582Y-81832242D01*
X156293588Y-81832248D01*
X156367226Y-81894094D01*
X156547406Y-82045421D01*
X156646118Y-82112956D01*
X156754335Y-82186995D01*
X156754337Y-82186996D01*
X156754340Y-82186998D01*
X156897483Y-82256389D01*
X156975594Y-82272157D01*
X156983026Y-82277154D01*
X156984748Y-82285941D01*
X156984042Y-82288214D01*
X156623003Y-83135107D01*
X156616606Y-83141374D01*
X156607652Y-83141282D01*
X156604130Y-83138953D01*
X155976835Y-82535759D01*
X155973247Y-82527554D01*
X155976511Y-82519215D01*
X155979065Y-82517210D01*
X156058322Y-82471209D01*
X156099708Y-82430016D01*
X156130974Y-82383763D01*
X156155741Y-82325133D01*
X156169291Y-82263086D01*
X156172662Y-82187583D01*
X156164359Y-82112953D01*
X156164357Y-82112948D01*
X156164357Y-82112943D01*
X156154797Y-82075499D01*
X156145236Y-82038046D01*
X156118128Y-81971311D01*
X156065744Y-81894094D01*
X156063935Y-81885324D01*
X156067151Y-81879255D01*
X156193659Y-81752747D01*
X156201931Y-81749321D01*
X156210004Y-81752552D01*
G37*
%TD.AperFunction*%
%TD*%
%TA.AperFunction,Conductor*%
%TO.N,/ARCHITECTURE/3. SENSING/VSENSE_17V*%
G36*
X151602890Y-73241163D02*
G01*
X151603260Y-73241421D01*
X151786597Y-73374880D01*
X151939746Y-73481570D01*
X151939746Y-73481571D01*
X151939747Y-73481571D01*
X151939748Y-73481572D01*
X152000121Y-73509248D01*
X152069302Y-73529685D01*
X152172651Y-73544961D01*
X152294781Y-73549574D01*
X152302918Y-73553311D01*
X152306038Y-73561266D01*
X152306038Y-73738958D01*
X152302611Y-73747231D01*
X152295015Y-73750638D01*
X152123309Y-73760586D01*
X151994708Y-73792826D01*
X151994706Y-73792826D01*
X151994706Y-73792827D01*
X151891914Y-73847433D01*
X151891912Y-73847434D01*
X151891909Y-73847436D01*
X151786600Y-73925117D01*
X151786541Y-73925160D01*
X151603260Y-74058578D01*
X151594554Y-74060677D01*
X151586915Y-74056005D01*
X151586657Y-74055635D01*
X151319015Y-73656515D01*
X151317253Y-73647735D01*
X151319015Y-73643483D01*
X151586658Y-73244363D01*
X151594110Y-73239401D01*
X151602890Y-73241163D01*
G37*
%TD.AperFunction*%
%TD*%
%TA.AperFunction,Conductor*%
%TO.N,/ARCHITECTURE/1. INTERCONNECTS/VOUT*%
G36*
X178006379Y-64595201D02*
G01*
X178026951Y-64611765D01*
X178279256Y-64863669D01*
X178312790Y-64924966D01*
X178315645Y-64951420D01*
X178315645Y-66625516D01*
X180274599Y-68388575D01*
X180311258Y-68448050D01*
X180315645Y-68480740D01*
X180315645Y-68625516D01*
X174815645Y-68625516D01*
X174815645Y-68480740D01*
X174835330Y-68413701D01*
X174856686Y-68388578D01*
X176815645Y-66625516D01*
X176815645Y-64947791D01*
X176835330Y-64880752D01*
X176847719Y-64864571D01*
X177072479Y-64616296D01*
X177132064Y-64579808D01*
X177164405Y-64575516D01*
X177939340Y-64575516D01*
X178006379Y-64595201D01*
G37*
%TD.AperFunction*%
%TD*%
%TA.AperFunction,Conductor*%
%TO.N,VREF_2V5*%
G36*
X148795645Y-62595000D02*
G01*
X148837050Y-62593834D01*
X148919550Y-62592544D01*
X149007323Y-62602901D01*
X149084008Y-62637412D01*
X149113079Y-62667633D01*
X149133242Y-62708582D01*
X150016645Y-62420000D01*
X149133242Y-62131418D01*
X149116965Y-62166563D01*
X149094178Y-62193968D01*
X149028577Y-62231091D01*
X148929627Y-62247097D01*
X148837050Y-62246166D01*
X148795645Y-62245000D01*
X148795645Y-62595000D01*
G37*
%TD.AperFunction*%
%TD*%
%TA.AperFunction,Conductor*%
%TO.N,/ARCHITECTURE/3. SENSING/VSENSE_17V*%
G36*
X151323260Y-71768032D02*
G01*
X151602591Y-72007606D01*
X151758616Y-72141424D01*
X151762665Y-72149411D01*
X151759880Y-72157922D01*
X151755822Y-72160964D01*
X151712022Y-72180783D01*
X151712016Y-72180787D01*
X151655069Y-72222375D01*
X151603825Y-72275034D01*
X151603816Y-72275044D01*
X151549009Y-72351009D01*
X151549006Y-72351014D01*
X151503230Y-72435284D01*
X151463376Y-72532827D01*
X151435308Y-72628709D01*
X151417008Y-72764860D01*
X151412509Y-72772603D01*
X151405412Y-72775001D01*
X151226559Y-72775001D01*
X151218286Y-72771574D01*
X151214902Y-72764301D01*
X151208946Y-72694905D01*
X151208944Y-72694895D01*
X151189882Y-72604454D01*
X151189881Y-72604450D01*
X151189879Y-72604441D01*
X151125568Y-72430067D01*
X151042498Y-72293638D01*
X151024010Y-72275034D01*
X150952384Y-72202959D01*
X150873909Y-72161425D01*
X150868200Y-72154526D01*
X150869041Y-72145611D01*
X150871765Y-72142203D01*
X150872673Y-72141424D01*
X151308029Y-71768032D01*
X151316539Y-71765248D01*
X151323260Y-71768032D01*
G37*
%TD.AperFunction*%
%TD*%
%TA.AperFunction,Conductor*%
%TO.N,GND*%
G36*
X145165645Y-63020000D02*
G01*
X145170949Y-62960663D01*
X145188079Y-62889416D01*
X145214244Y-62826690D01*
X145252115Y-62772153D01*
X145286118Y-62743265D01*
X145326832Y-62725049D01*
X145365645Y-62720000D01*
X145065645Y-62419000D01*
X144765645Y-62720000D01*
X144836603Y-62738134D01*
X144894270Y-62790381D01*
X144940022Y-62879911D01*
X144964743Y-62997333D01*
X144965645Y-63020000D01*
X145165645Y-63020000D01*
G37*
%TD.AperFunction*%
%TD*%
%TA.AperFunction,Conductor*%
%TO.N,Net-(U501A--)*%
G36*
X156623347Y-83157967D02*
G01*
X156624454Y-83159074D01*
X157235217Y-83857633D01*
X157238083Y-83866117D01*
X157234110Y-83874142D01*
X157230267Y-83876380D01*
X157175479Y-83895515D01*
X157175477Y-83895516D01*
X157107798Y-83933434D01*
X157107785Y-83933444D01*
X157044364Y-83982489D01*
X157044362Y-83982491D01*
X156975664Y-84051923D01*
X156975660Y-84051927D01*
X156913838Y-84131209D01*
X156913836Y-84131212D01*
X156853182Y-84228409D01*
X156802616Y-84330065D01*
X156735018Y-84528653D01*
X156716992Y-84664835D01*
X156712509Y-84672587D01*
X156705393Y-84675000D01*
X156525840Y-84675000D01*
X156517567Y-84671573D01*
X156514250Y-84664903D01*
X156494229Y-84520141D01*
X156494229Y-84520139D01*
X156424330Y-84320342D01*
X156373053Y-84228414D01*
X156324632Y-84141604D01*
X156324626Y-84141595D01*
X156212972Y-84006704D01*
X156212965Y-84006698D01*
X156098783Y-83917923D01*
X156098784Y-83917923D01*
X155999738Y-83876908D01*
X155993405Y-83870576D01*
X155993404Y-83861622D01*
X155995402Y-83858402D01*
X156606838Y-83159073D01*
X156614863Y-83155101D01*
X156623347Y-83157967D01*
G37*
%TD.AperFunction*%
%TD*%
%TA.AperFunction,Conductor*%
%TO.N,Net-(U502A-+)*%
G36*
X143181554Y-60318585D02*
G01*
X143182822Y-60323231D01*
X143185607Y-60370156D01*
X143185608Y-60370164D01*
X143200736Y-60456872D01*
X143226125Y-60539654D01*
X143245360Y-60582824D01*
X143264309Y-60625353D01*
X143264311Y-60625356D01*
X143264315Y-60625364D01*
X143311718Y-60705074D01*
X143311722Y-60705080D01*
X143338164Y-60739934D01*
X143371193Y-60783470D01*
X143371196Y-60783473D01*
X143371199Y-60783477D01*
X143437439Y-60853382D01*
X143509598Y-60914902D01*
X143584499Y-60965959D01*
X143725295Y-61030659D01*
X143725298Y-61030659D01*
X143725301Y-61030661D01*
X143830881Y-61048363D01*
X143838472Y-61053110D01*
X143840645Y-61059901D01*
X143840645Y-61238442D01*
X143837218Y-61246715D01*
X143829088Y-61250141D01*
X143768449Y-61250884D01*
X143750471Y-61251105D01*
X143407702Y-61271901D01*
X143407698Y-61271901D01*
X143407691Y-61271902D01*
X143157885Y-61310029D01*
X143157884Y-61310030D01*
X143012114Y-61354835D01*
X143012112Y-61354835D01*
X143012112Y-61354836D01*
X142948706Y-61394905D01*
X142939882Y-61396427D01*
X142934029Y-61393130D01*
X142325568Y-60761341D01*
X142322297Y-60753005D01*
X142325879Y-60744798D01*
X142328651Y-60742817D01*
X143165805Y-60313512D01*
X143174729Y-60312787D01*
X143181554Y-60318585D01*
G37*
%TD.AperFunction*%
%TD*%
%TA.AperFunction,Conductor*%
%TO.N,/ARCHITECTURE/5. COMPARATOR/~{OC_DETECT}*%
G36*
X145072158Y-55653368D02*
G01*
X145471280Y-55921012D01*
X145476243Y-55928466D01*
X145474481Y-55937245D01*
X145474223Y-55937615D01*
X145340765Y-56120950D01*
X145234074Y-56274101D01*
X145206399Y-56334471D01*
X145185959Y-56403659D01*
X145185959Y-56403660D01*
X145170684Y-56507001D01*
X145170684Y-56507003D01*
X145166070Y-56629135D01*
X145162333Y-56637273D01*
X145154378Y-56640393D01*
X144976686Y-56640393D01*
X144968413Y-56636966D01*
X144965006Y-56629370D01*
X144964992Y-56629135D01*
X144961616Y-56570862D01*
X144955058Y-56457665D01*
X144955057Y-56457661D01*
X144955057Y-56457658D01*
X144922818Y-56329061D01*
X144868212Y-56226270D01*
X144790525Y-56120952D01*
X144657066Y-55937615D01*
X144654967Y-55928909D01*
X144659639Y-55921270D01*
X144659979Y-55921032D01*
X145059130Y-55653368D01*
X145067909Y-55651607D01*
X145072158Y-55653368D01*
G37*
%TD.AperFunction*%
%TD*%
%TA.AperFunction,Conductor*%
%TO.N,GND*%
G36*
X151131670Y-80284144D02*
G01*
X151254297Y-80322401D01*
X151256525Y-80323360D01*
X151303743Y-80349826D01*
X151345229Y-80373079D01*
X151345682Y-80373347D01*
X151370438Y-80388726D01*
X151370443Y-80388729D01*
X151466078Y-80432484D01*
X151529111Y-80445310D01*
X151599336Y-80449363D01*
X151607397Y-80453261D01*
X151610361Y-80461044D01*
X151610361Y-80639065D01*
X151606934Y-80647338D01*
X151599451Y-80650738D01*
X151517837Y-80656259D01*
X151448680Y-80673092D01*
X151345458Y-80726792D01*
X151260540Y-80774817D01*
X151259057Y-80775523D01*
X151198987Y-80799117D01*
X151197626Y-80799558D01*
X151131230Y-80816644D01*
X151122364Y-80815387D01*
X151116983Y-80808229D01*
X151116847Y-80807636D01*
X151065115Y-80552319D01*
X151065115Y-80547680D01*
X151116720Y-80292990D01*
X151121722Y-80285563D01*
X151130510Y-80283847D01*
X151131670Y-80284144D01*
G37*
%TD.AperFunction*%
%TD*%
%TA.AperFunction,Conductor*%
%TO.N,VCC_5V*%
G36*
X151290645Y-58510000D02*
G01*
X151215103Y-58504593D01*
X151124541Y-58486747D01*
X151046955Y-58460293D01*
X150976993Y-58421843D01*
X150936856Y-58386825D01*
X150907527Y-58344646D01*
X150898048Y-58321418D01*
X150014645Y-58610000D01*
X150898048Y-58898582D01*
X150938857Y-58831016D01*
X151016693Y-58774032D01*
X151136668Y-58730144D01*
X151290645Y-58710000D01*
X151290645Y-58510000D01*
G37*
%TD.AperFunction*%
%TD*%
%TA.AperFunction,Conductor*%
%TO.N,VCC_5V*%
G36*
X169512093Y-82577214D02*
G01*
X169638317Y-82703438D01*
X169641744Y-82711711D01*
X169638933Y-82719318D01*
X169594694Y-82771010D01*
X169594685Y-82771022D01*
X169545357Y-82845629D01*
X169496504Y-82938864D01*
X169453573Y-83042946D01*
X169433823Y-83115623D01*
X169395908Y-83255138D01*
X169377310Y-83450998D01*
X169377310Y-83451001D01*
X169377310Y-83451005D01*
X169393956Y-83617857D01*
X169393958Y-83617867D01*
X169435314Y-83738570D01*
X169434754Y-83747507D01*
X169428038Y-83753430D01*
X169424200Y-83754062D01*
X168572535Y-83750738D01*
X168564276Y-83747279D01*
X168561874Y-83743756D01*
X168506402Y-83617863D01*
X168285102Y-83115622D01*
X168284903Y-83106670D01*
X168291092Y-83100198D01*
X168295071Y-83099228D01*
X168397756Y-83092753D01*
X168397759Y-83092752D01*
X168397765Y-83092752D01*
X168496552Y-83076636D01*
X168517562Y-83073209D01*
X168658885Y-83037445D01*
X168801127Y-82989587D01*
X168951796Y-82927076D01*
X169096097Y-82855903D01*
X169342760Y-82704031D01*
X169496346Y-82576485D01*
X169504899Y-82573837D01*
X169512093Y-82577214D01*
G37*
%TD.AperFunction*%
%TD*%
%TA.AperFunction,Conductor*%
%TO.N,VCC_5V*%
G36*
X170203603Y-81522284D02*
G01*
X171060083Y-81797283D01*
X171066911Y-81803074D01*
X171067884Y-81805700D01*
X171217002Y-82428977D01*
X171215594Y-82437820D01*
X171208345Y-82443078D01*
X171201679Y-82442714D01*
X171084424Y-82400726D01*
X171084419Y-82400725D01*
X170952596Y-82365945D01*
X170952589Y-82365943D01*
X170952583Y-82365942D01*
X170818910Y-82341544D01*
X170818907Y-82341543D01*
X170818899Y-82341542D01*
X170681634Y-82326990D01*
X170613864Y-82324863D01*
X170546097Y-82322737D01*
X170546096Y-82322737D01*
X170546095Y-82322737D01*
X170546078Y-82322737D01*
X170292258Y-82343111D01*
X170078889Y-82395163D01*
X169915713Y-82468731D01*
X169809867Y-82549152D01*
X169801207Y-82551429D01*
X169794516Y-82548109D01*
X169668163Y-82421756D01*
X169664736Y-82413483D01*
X169667738Y-82405658D01*
X169742354Y-82322737D01*
X169789683Y-82270140D01*
X169789691Y-82270130D01*
X169789695Y-82270126D01*
X169977639Y-82017737D01*
X170105883Y-81798763D01*
X170172003Y-81634168D01*
X170188485Y-81531569D01*
X170193180Y-81523946D01*
X170201892Y-81521875D01*
X170203603Y-81522284D01*
G37*
%TD.AperFunction*%
%TD*%
%TA.AperFunction,Conductor*%
%TO.N,Net-(U502A-+)*%
G36*
X142412478Y-59453427D02*
G01*
X142415902Y-59461436D01*
X142415968Y-59464388D01*
X142425671Y-59538103D01*
X142448291Y-59620645D01*
X142525225Y-59789033D01*
X142626406Y-59929146D01*
X142626405Y-59929146D01*
X142678482Y-59975637D01*
X142736814Y-60027715D01*
X142850022Y-60085330D01*
X142850024Y-60085331D01*
X142943231Y-60101164D01*
X142950814Y-60105928D01*
X142952807Y-60114658D01*
X142949520Y-60120997D01*
X142323893Y-60742802D01*
X142315609Y-60746204D01*
X142307397Y-60742802D01*
X142074656Y-60511483D01*
X141682283Y-60121508D01*
X141678832Y-60113248D01*
X141682234Y-60104964D01*
X141688865Y-60101631D01*
X141763058Y-60090957D01*
X141829280Y-60065771D01*
X141891374Y-60029840D01*
X141958446Y-59976327D01*
X142018907Y-59913056D01*
X142078779Y-59832976D01*
X142128774Y-59747740D01*
X142196283Y-59577030D01*
X142214130Y-59459936D01*
X142218764Y-59452275D01*
X142225696Y-59450000D01*
X142404205Y-59450000D01*
X142412478Y-59453427D01*
G37*
%TD.AperFunction*%
%TD*%
%TA.AperFunction,Conductor*%
%TO.N,/ARCHITECTURE/5. COMPARATOR/~{12V_FAULT}*%
G36*
X151717079Y-76459304D02*
G01*
X152291634Y-76646995D01*
X152557598Y-76733878D01*
X152564398Y-76739705D01*
X152565087Y-76748633D01*
X152559260Y-76755433D01*
X152557598Y-76756122D01*
X151718593Y-77030200D01*
X151709665Y-77029511D01*
X151704127Y-77023499D01*
X151698763Y-77010354D01*
X151669434Y-76968174D01*
X151629298Y-76933157D01*
X151629292Y-76933153D01*
X151559338Y-76894707D01*
X151481753Y-76868253D01*
X151391198Y-76850408D01*
X151391188Y-76850407D01*
X151391187Y-76850407D01*
X151379856Y-76849595D01*
X151326510Y-76845777D01*
X151318502Y-76841768D01*
X151315645Y-76834107D01*
X151315645Y-76655268D01*
X151319072Y-76646995D01*
X151325824Y-76643668D01*
X151469624Y-76624855D01*
X151589598Y-76580967D01*
X151667433Y-76523983D01*
X151703435Y-76464376D01*
X151710644Y-76459068D01*
X151717079Y-76459304D01*
G37*
%TD.AperFunction*%
%TD*%
%TA.AperFunction,Conductor*%
%TO.N,/ARCHITECTURE/5. COMPARATOR/~{OC_DETECT}*%
G36*
X143183124Y-55813311D02*
G01*
X143186923Y-55821420D01*
X143186542Y-55824959D01*
X143169794Y-55887908D01*
X143158101Y-55981806D01*
X143158100Y-55981813D01*
X143157718Y-56080148D01*
X143157718Y-56080161D01*
X143169727Y-56196330D01*
X143169728Y-56196337D01*
X143193356Y-56313355D01*
X143229922Y-56437704D01*
X143229924Y-56437710D01*
X143260997Y-56518255D01*
X143275755Y-56556507D01*
X143382366Y-56757919D01*
X143382367Y-56757920D01*
X143382370Y-56757924D01*
X143477062Y-56878256D01*
X143479485Y-56886876D01*
X143476140Y-56893764D01*
X143350027Y-57019877D01*
X143341754Y-57023304D01*
X143333803Y-57020186D01*
X143321244Y-57008549D01*
X143290695Y-56980241D01*
X143263864Y-56959262D01*
X143191218Y-56902458D01*
X143074696Y-56825896D01*
X142801109Y-56683767D01*
X142518895Y-56578522D01*
X142425054Y-56556507D01*
X142262004Y-56518255D01*
X142261997Y-56518254D01*
X142060646Y-56501340D01*
X142052688Y-56497233D01*
X142049966Y-56488702D01*
X142050819Y-56485196D01*
X142312087Y-55856154D01*
X142318425Y-55849829D01*
X142322360Y-55848955D01*
X143174705Y-55810263D01*
X143183124Y-55813311D01*
G37*
%TD.AperFunction*%
%TD*%
%TA.AperFunction,Conductor*%
%TO.N,GND*%
G36*
X166432537Y-63703396D02*
G01*
X166435945Y-63706120D01*
X166810114Y-64142383D01*
X166812899Y-64150894D01*
X166810114Y-64157617D01*
X166436723Y-64592971D01*
X166428736Y-64597020D01*
X166420225Y-64594235D01*
X166417185Y-64590181D01*
X166397362Y-64546373D01*
X166355776Y-64489427D01*
X166303108Y-64438175D01*
X166303105Y-64438172D01*
X166303103Y-64438171D01*
X166281690Y-64422722D01*
X166227138Y-64383363D01*
X166142860Y-64337583D01*
X166045319Y-64297731D01*
X166045320Y-64297731D01*
X165949438Y-64269663D01*
X165813288Y-64251363D01*
X165805545Y-64246864D01*
X165803147Y-64239767D01*
X165803147Y-64060913D01*
X165806574Y-64052640D01*
X165813845Y-64049256D01*
X165854359Y-64045779D01*
X165883243Y-64043301D01*
X165883245Y-64043300D01*
X165883251Y-64043300D01*
X165973708Y-64024234D01*
X166148083Y-63959923D01*
X166284511Y-63876853D01*
X166375191Y-63786737D01*
X166416723Y-63708263D01*
X166423622Y-63702555D01*
X166432537Y-63703396D01*
G37*
%TD.AperFunction*%
%TD*%
%TA.AperFunction,Conductor*%
%TO.N,/ARCHITECTURE/5. COMPARATOR/LATCH_IN*%
G36*
X154090645Y-61050000D02*
G01*
X153944300Y-61030628D01*
X153745710Y-60963029D01*
X153644059Y-60912466D01*
X153546859Y-60851811D01*
X153467567Y-60789981D01*
X153398137Y-60721284D01*
X153349084Y-60657854D01*
X153311159Y-60590164D01*
X153286316Y-60519030D01*
X152564645Y-61150000D01*
X153286316Y-61780970D01*
X153333568Y-61666863D01*
X153422347Y-61552676D01*
X153557246Y-61441016D01*
X153735987Y-61341316D01*
X153935784Y-61271417D01*
X154090645Y-61250000D01*
X154090645Y-61050000D01*
G37*
%TD.AperFunction*%
%TD*%
%TA.AperFunction,Conductor*%
%TO.N,GND*%
G36*
X180674216Y-65407959D02*
G01*
X180677027Y-65409960D01*
X181308283Y-66017908D01*
X181311865Y-66026115D01*
X181309606Y-66033248D01*
X181284726Y-66067220D01*
X181284721Y-66067229D01*
X181258199Y-66125472D01*
X181221789Y-66255325D01*
X181221786Y-66255337D01*
X181195971Y-66408943D01*
X181171936Y-66679068D01*
X181165969Y-66888633D01*
X181162308Y-66896805D01*
X181154274Y-66900000D01*
X180976411Y-66900000D01*
X180968138Y-66896573D01*
X180964751Y-66889272D01*
X180963895Y-66879017D01*
X180961439Y-66849546D01*
X180944401Y-66781492D01*
X180915019Y-66710752D01*
X180873142Y-66637766D01*
X180820098Y-66565981D01*
X180820094Y-66565977D01*
X180820090Y-66565972D01*
X180690712Y-66439425D01*
X180690709Y-66439422D01*
X180542309Y-66344924D01*
X180542306Y-66344923D01*
X180385168Y-66287136D01*
X180385158Y-66287134D01*
X180240707Y-66268845D01*
X180232930Y-66264406D01*
X180230570Y-66255768D01*
X180231747Y-66251938D01*
X180658483Y-65413081D01*
X180665288Y-65407262D01*
X180674216Y-65407959D01*
G37*
%TD.AperFunction*%
%TD*%
%TA.AperFunction,Conductor*%
%TO.N,/ARCHITECTURE/5. COMPARATOR/V_ISENSE*%
G36*
X142931322Y-63269685D02*
G01*
X142951964Y-63286319D01*
X143129326Y-63463681D01*
X143162811Y-63525004D01*
X143165645Y-63551362D01*
X143165645Y-64198638D01*
X143145960Y-64265677D01*
X143129326Y-64286319D01*
X142965645Y-64449999D01*
X142965645Y-70125773D01*
X142956527Y-70172444D01*
X142753310Y-70672671D01*
X142709841Y-70727372D01*
X142643698Y-70749888D01*
X142638428Y-70750000D01*
X142064501Y-70750000D01*
X141997462Y-70730315D01*
X141955469Y-70685059D01*
X141680613Y-70177633D01*
X141665645Y-70118574D01*
X141665645Y-64782812D01*
X141232833Y-64350000D01*
X139985757Y-64350000D01*
X139956316Y-64341355D01*
X139926330Y-64334832D01*
X139921314Y-64331077D01*
X139918718Y-64330315D01*
X139898076Y-64313681D01*
X139801964Y-64217569D01*
X139768479Y-64156246D01*
X139765645Y-64129888D01*
X139765645Y-63726362D01*
X139785330Y-63659323D01*
X139801964Y-63638681D01*
X139954326Y-63486319D01*
X140015649Y-63452834D01*
X140042007Y-63450000D01*
X141465645Y-63450000D01*
X141465645Y-63437544D01*
X141470955Y-63419459D01*
X141471272Y-63400614D01*
X141484835Y-63372187D01*
X141485330Y-63370505D01*
X141486471Y-63368761D01*
X141528834Y-63305217D01*
X141582400Y-63260356D01*
X141632008Y-63250000D01*
X142864283Y-63250000D01*
X142931322Y-63269685D01*
G37*
%TD.AperFunction*%
%TD*%
%TA.AperFunction,Conductor*%
%TO.N,Net-(U501A--)*%
G36*
X156713725Y-84128427D02*
G01*
X156717042Y-84135097D01*
X156737063Y-84279859D01*
X156806965Y-84479665D01*
X156906660Y-84658397D01*
X156906666Y-84658406D01*
X157018320Y-84793297D01*
X157018322Y-84793299D01*
X157132508Y-84882076D01*
X157132509Y-84882077D01*
X157231553Y-84923091D01*
X157237886Y-84929423D01*
X157237887Y-84938377D01*
X157235885Y-84941602D01*
X156624454Y-85640925D01*
X156616429Y-85644898D01*
X156607945Y-85642032D01*
X156606838Y-85640925D01*
X155996074Y-84942366D01*
X155993208Y-84933882D01*
X155997181Y-84925857D01*
X156001021Y-84923620D01*
X156055811Y-84904486D01*
X156123501Y-84866561D01*
X156186930Y-84817508D01*
X156255627Y-84748078D01*
X156317457Y-84668787D01*
X156378112Y-84571586D01*
X156428675Y-84469936D01*
X156496274Y-84271345D01*
X156514300Y-84135164D01*
X156518783Y-84127413D01*
X156525899Y-84125000D01*
X156705452Y-84125000D01*
X156713725Y-84128427D01*
G37*
%TD.AperFunction*%
%TD*%
%TA.AperFunction,Conductor*%
%TO.N,/ARCHITECTURE/5. COMPARATOR/~{OC_FAULT}*%
G36*
X154090645Y-64150002D02*
G01*
X153944300Y-64130630D01*
X153745710Y-64063031D01*
X153644059Y-64012468D01*
X153546859Y-63951813D01*
X153467567Y-63889983D01*
X153398137Y-63821286D01*
X153349084Y-63757856D01*
X153311159Y-63690166D01*
X153286316Y-63619032D01*
X152564645Y-64250002D01*
X153286316Y-64880972D01*
X153333568Y-64766865D01*
X153422347Y-64652678D01*
X153557246Y-64541018D01*
X153735987Y-64441318D01*
X153935784Y-64371419D01*
X154090645Y-64350002D01*
X154090645Y-64150002D01*
G37*
%TD.AperFunction*%
%TD*%
%TA.AperFunction,Conductor*%
%TO.N,GND*%
G36*
X151572653Y-68951075D02*
G01*
X151580081Y-68956077D01*
X151581797Y-68964865D01*
X151581499Y-68966026D01*
X151543245Y-69088646D01*
X151542282Y-69090883D01*
X151492565Y-69179583D01*
X151492298Y-69180036D01*
X151476913Y-69204802D01*
X151433163Y-69300426D01*
X151433160Y-69300435D01*
X151420336Y-69363456D01*
X151420335Y-69363463D01*
X151420335Y-69363466D01*
X151416281Y-69433691D01*
X151412384Y-69441752D01*
X151404601Y-69444716D01*
X151226580Y-69444716D01*
X151218307Y-69441289D01*
X151214907Y-69433806D01*
X151210148Y-69363466D01*
X151209386Y-69352196D01*
X151192553Y-69283037D01*
X151138848Y-69179806D01*
X151090826Y-69094895D01*
X151090120Y-69093412D01*
X151066527Y-69033341D01*
X151066086Y-69031980D01*
X151049000Y-68965584D01*
X151050257Y-68956719D01*
X151057415Y-68951338D01*
X151057987Y-68951206D01*
X151313325Y-68899470D01*
X151317965Y-68899470D01*
X151572653Y-68951075D01*
G37*
%TD.AperFunction*%
%TD*%
%TA.AperFunction,Conductor*%
%TO.N,/ARCHITECTURE/3. SENSING/VSENSE_12V*%
G36*
X152881860Y-82714954D02*
G01*
X153130234Y-82885176D01*
X153507691Y-83143864D01*
X153512578Y-83151368D01*
X153511197Y-83159387D01*
X153029785Y-83989058D01*
X153022669Y-83994494D01*
X153013793Y-83993306D01*
X153010201Y-83990064D01*
X152987205Y-83958423D01*
X152987199Y-83958416D01*
X152943198Y-83921651D01*
X152861902Y-83876574D01*
X152861888Y-83876568D01*
X152763357Y-83838673D01*
X152613745Y-83798421D01*
X152613727Y-83798417D01*
X152460412Y-83770552D01*
X152460398Y-83770550D01*
X152226365Y-83750900D01*
X152218408Y-83746793D01*
X152215644Y-83739241D01*
X152215644Y-83560289D01*
X152219071Y-83552016D01*
X152225848Y-83548685D01*
X152258675Y-83544456D01*
X152296809Y-83539544D01*
X152296810Y-83539543D01*
X152296814Y-83539543D01*
X152365328Y-83516508D01*
X152434896Y-83481309D01*
X152434901Y-83481305D01*
X152434904Y-83481304D01*
X152455545Y-83467350D01*
X152506170Y-83433130D01*
X152575369Y-83373762D01*
X152698230Y-83229128D01*
X152790516Y-83062467D01*
X152846791Y-82885180D01*
X152863611Y-82723393D01*
X152867874Y-82715522D01*
X152876457Y-82712969D01*
X152881860Y-82714954D01*
G37*
%TD.AperFunction*%
%TD*%
%TA.AperFunction,Conductor*%
%TO.N,GND*%
G36*
X146508925Y-69634612D02*
G01*
X146514306Y-69641770D01*
X146514442Y-69642363D01*
X146566174Y-69897677D01*
X146566174Y-69902323D01*
X146514569Y-70157008D01*
X146509567Y-70164436D01*
X146500779Y-70166152D01*
X146499618Y-70165854D01*
X146376997Y-70127600D01*
X146374760Y-70126637D01*
X146286060Y-70076920D01*
X146285607Y-70076652D01*
X146260852Y-70061273D01*
X146260845Y-70061269D01*
X146165218Y-70017518D01*
X146165209Y-70017515D01*
X146102188Y-70004691D01*
X146102182Y-70004690D01*
X146102179Y-70004690D01*
X146066100Y-70002607D01*
X146031955Y-70000636D01*
X146023893Y-69996737D01*
X146020929Y-69988955D01*
X146020929Y-69810934D01*
X146024356Y-69802661D01*
X146031836Y-69799262D01*
X146113449Y-69793741D01*
X146182608Y-69776908D01*
X146285838Y-69723203D01*
X146370753Y-69675179D01*
X146372227Y-69674477D01*
X146432309Y-69650879D01*
X146433656Y-69650443D01*
X146500060Y-69633355D01*
X146508925Y-69634612D01*
G37*
%TD.AperFunction*%
%TD*%
%TA.AperFunction,Conductor*%
%TO.N,Net-(U501B-+)*%
G36*
X156713725Y-72628427D02*
G01*
X156717042Y-72635097D01*
X156737063Y-72779859D01*
X156806965Y-72979665D01*
X156906660Y-73158397D01*
X156906666Y-73158406D01*
X157018320Y-73293297D01*
X157018322Y-73293299D01*
X157132508Y-73382076D01*
X157132509Y-73382077D01*
X157231553Y-73423091D01*
X157237886Y-73429423D01*
X157237887Y-73438377D01*
X157235885Y-73441602D01*
X156624454Y-74140925D01*
X156616429Y-74144898D01*
X156607945Y-74142032D01*
X156606838Y-74140925D01*
X155996074Y-73442366D01*
X155993208Y-73433882D01*
X155997181Y-73425857D01*
X156001021Y-73423620D01*
X156055811Y-73404486D01*
X156123501Y-73366561D01*
X156186930Y-73317508D01*
X156255627Y-73248078D01*
X156317457Y-73168787D01*
X156378112Y-73071586D01*
X156428675Y-72969936D01*
X156496274Y-72771345D01*
X156514300Y-72635164D01*
X156518783Y-72627413D01*
X156525899Y-72625000D01*
X156705452Y-72625000D01*
X156713725Y-72628427D01*
G37*
%TD.AperFunction*%
%TD*%
%TA.AperFunction,Conductor*%
%TO.N,VCC_5V*%
G36*
X171696429Y-81160868D02*
G01*
X171698438Y-81163429D01*
X171744434Y-81242676D01*
X171744436Y-81242678D01*
X171785629Y-81284064D01*
X171831882Y-81315330D01*
X171890512Y-81340097D01*
X171952558Y-81353647D01*
X171982759Y-81354995D01*
X172028052Y-81357018D01*
X172028055Y-81357017D01*
X172028061Y-81357018D01*
X172102691Y-81348714D01*
X172177598Y-81329591D01*
X172177599Y-81329590D01*
X172177601Y-81329590D01*
X172185648Y-81326321D01*
X172244334Y-81302484D01*
X172321551Y-81250098D01*
X172330320Y-81248290D01*
X172336391Y-81251508D01*
X172462896Y-81378013D01*
X172466323Y-81386286D01*
X172463091Y-81394360D01*
X172383396Y-81477943D01*
X172170234Y-81731748D01*
X172170226Y-81731758D01*
X172028649Y-81938690D01*
X172028647Y-81938695D01*
X171959256Y-82081838D01*
X171952184Y-82116869D01*
X171943487Y-82159949D01*
X171938490Y-82167381D01*
X171929703Y-82169103D01*
X171927430Y-82168397D01*
X171080537Y-81807360D01*
X171074270Y-81800963D01*
X171074362Y-81792009D01*
X171076691Y-81788487D01*
X171131238Y-81731761D01*
X171679886Y-81161191D01*
X171688090Y-81157604D01*
X171696429Y-81160868D01*
G37*
%TD.AperFunction*%
%TD*%
%TA.AperFunction,Conductor*%
%TO.N,Net-(U502A-+)*%
G36*
X143790645Y-61250000D02*
G01*
X143866187Y-61255407D01*
X143956749Y-61273253D01*
X144034336Y-61299707D01*
X144104297Y-61338157D01*
X144144434Y-61373174D01*
X144173763Y-61415354D01*
X144183242Y-61438582D01*
X145066645Y-61150000D01*
X144183242Y-60861418D01*
X144142433Y-60928983D01*
X144064598Y-60985967D01*
X143944624Y-61029855D01*
X143790645Y-61050000D01*
X143790645Y-61250000D01*
G37*
%TD.AperFunction*%
%TD*%
%TA.AperFunction,Conductor*%
%TO.N,/ARCHITECTURE/5. COMPARATOR/LATCH_IN*%
G36*
X151040645Y-61250000D02*
G01*
X151186990Y-61269372D01*
X151385581Y-61336971D01*
X151487231Y-61387534D01*
X151584432Y-61448189D01*
X151663723Y-61510019D01*
X151733153Y-61578716D01*
X151782206Y-61642145D01*
X151820131Y-61709835D01*
X151844974Y-61780970D01*
X152566645Y-61150000D01*
X151844974Y-60519030D01*
X151797722Y-60633137D01*
X151708944Y-60747324D01*
X151574046Y-60858983D01*
X151395305Y-60958683D01*
X151195507Y-61028582D01*
X151040645Y-61050000D01*
X151040645Y-61250000D01*
G37*
%TD.AperFunction*%
%TD*%
%TA.AperFunction,Conductor*%
%TO.N,GND*%
G36*
X151716999Y-80269278D02*
G01*
X152211703Y-80430884D01*
X152557598Y-80543878D01*
X152564398Y-80549705D01*
X152565087Y-80558633D01*
X152559260Y-80565433D01*
X152557598Y-80566122D01*
X151718535Y-80840219D01*
X151709607Y-80839530D01*
X151704094Y-80833578D01*
X151696925Y-80816287D01*
X151696922Y-80816282D01*
X151684710Y-80799184D01*
X151666377Y-80773515D01*
X151666374Y-80773512D01*
X151666371Y-80773508D01*
X151625122Y-80738021D01*
X151625115Y-80738016D01*
X151585737Y-80716468D01*
X151554569Y-80699413D01*
X151476932Y-80672862D01*
X151476929Y-80672861D01*
X151476925Y-80672860D01*
X151389094Y-80655359D01*
X151389071Y-80655356D01*
X151326494Y-80650791D01*
X151318492Y-80646771D01*
X151315645Y-80639122D01*
X151315645Y-80460329D01*
X151319072Y-80452056D01*
X151325892Y-80448720D01*
X151468701Y-80430885D01*
X151562060Y-80397914D01*
X151589480Y-80388232D01*
X151589480Y-80388231D01*
X151589482Y-80388231D01*
X151667482Y-80332575D01*
X151703408Y-80274262D01*
X151710664Y-80269018D01*
X151716999Y-80269278D01*
G37*
%TD.AperFunction*%
%TD*%
%TA.AperFunction,Conductor*%
%TO.N,GND*%
G36*
X137631670Y-63634144D02*
G01*
X137754297Y-63672401D01*
X137756525Y-63673360D01*
X137803743Y-63699826D01*
X137845229Y-63723079D01*
X137845682Y-63723347D01*
X137870438Y-63738726D01*
X137870443Y-63738729D01*
X137966078Y-63782484D01*
X138029111Y-63795310D01*
X138099336Y-63799363D01*
X138107397Y-63803261D01*
X138110361Y-63811044D01*
X138110361Y-63989065D01*
X138106934Y-63997338D01*
X138099451Y-64000738D01*
X138017837Y-64006259D01*
X137948680Y-64023092D01*
X137845458Y-64076792D01*
X137760540Y-64124817D01*
X137759057Y-64125523D01*
X137698987Y-64149117D01*
X137697626Y-64149558D01*
X137631230Y-64166644D01*
X137622364Y-64165387D01*
X137616983Y-64158229D01*
X137616847Y-64157636D01*
X137565115Y-63902319D01*
X137565115Y-63897680D01*
X137616720Y-63642990D01*
X137621722Y-63635563D01*
X137630510Y-63633847D01*
X137631670Y-63634144D01*
G37*
%TD.AperFunction*%
%TD*%
%TA.AperFunction,Conductor*%
%TO.N,/ARCHITECTURE/5. COMPARATOR/~{17V_FAULT}*%
G36*
X156724423Y-77718196D02*
G01*
X157496587Y-77999404D01*
X157503188Y-78005455D01*
X157503577Y-78014402D01*
X157497526Y-78021003D01*
X157494128Y-78021996D01*
X156574434Y-78144484D01*
X156565780Y-78142179D01*
X156562141Y-78137509D01*
X156548966Y-78106880D01*
X156548965Y-78106877D01*
X156548963Y-78106874D01*
X156548962Y-78106873D01*
X156505912Y-78059769D01*
X156505909Y-78059767D01*
X156505907Y-78059765D01*
X156505905Y-78059763D01*
X156382521Y-77956928D01*
X156382508Y-77956917D01*
X156292618Y-77881781D01*
X156288468Y-77873846D01*
X156291145Y-77865300D01*
X156291838Y-77864542D01*
X156416543Y-77739837D01*
X156424815Y-77736411D01*
X156432452Y-77739247D01*
X156443082Y-77748406D01*
X156524519Y-77790679D01*
X156524520Y-77790680D01*
X156601009Y-77800279D01*
X156601009Y-77800278D01*
X156601012Y-77800279D01*
X156664414Y-77777349D01*
X156691948Y-77751791D01*
X156710585Y-77722854D01*
X156717944Y-77717756D01*
X156724423Y-77718196D01*
G37*
%TD.AperFunction*%
%TD*%
%TA.AperFunction,Conductor*%
%TO.N,Net-(U501A--)*%
G36*
X153565509Y-77887819D02*
G01*
X153569148Y-77892489D01*
X153582323Y-77923119D01*
X153582327Y-77923126D01*
X153625378Y-77970230D01*
X153625381Y-77970233D01*
X153748770Y-78073073D01*
X153748783Y-78073084D01*
X153838671Y-78148218D01*
X153842821Y-78156153D01*
X153840144Y-78164699D01*
X153839440Y-78165468D01*
X153714747Y-78290161D01*
X153706474Y-78293588D01*
X153698837Y-78290752D01*
X153688208Y-78281594D01*
X153606771Y-78239321D01*
X153606770Y-78239320D01*
X153530280Y-78229721D01*
X153530279Y-78229722D01*
X153530278Y-78229722D01*
X153503739Y-78239320D01*
X153466875Y-78252652D01*
X153439341Y-78278210D01*
X153420704Y-78307144D01*
X153413343Y-78312243D01*
X153406864Y-78311802D01*
X152634702Y-78030595D01*
X152628101Y-78024544D01*
X152627712Y-78015597D01*
X152633763Y-78008996D01*
X152637157Y-78008004D01*
X153556856Y-77885514D01*
X153565509Y-77887819D01*
G37*
%TD.AperFunction*%
%TD*%
%TA.AperFunction,Conductor*%
%TO.N,Net-(U501B-+)*%
G36*
X156623347Y-71657967D02*
G01*
X156624454Y-71659074D01*
X157235217Y-72357633D01*
X157238083Y-72366117D01*
X157234110Y-72374142D01*
X157230267Y-72376380D01*
X157175479Y-72395515D01*
X157175477Y-72395516D01*
X157107798Y-72433434D01*
X157107785Y-72433444D01*
X157044364Y-72482489D01*
X157044362Y-72482491D01*
X156975664Y-72551923D01*
X156975660Y-72551927D01*
X156913838Y-72631209D01*
X156913836Y-72631212D01*
X156853182Y-72728409D01*
X156802616Y-72830065D01*
X156735018Y-73028653D01*
X156716992Y-73164835D01*
X156712509Y-73172587D01*
X156705393Y-73175000D01*
X156525840Y-73175000D01*
X156517567Y-73171573D01*
X156514250Y-73164903D01*
X156494229Y-73020141D01*
X156494229Y-73020139D01*
X156424330Y-72820342D01*
X156373053Y-72728414D01*
X156324632Y-72641604D01*
X156324626Y-72641595D01*
X156212972Y-72506704D01*
X156212965Y-72506698D01*
X156098783Y-72417923D01*
X156098784Y-72417923D01*
X155999738Y-72376908D01*
X155993405Y-72370576D01*
X155993404Y-72361622D01*
X155995402Y-72358402D01*
X156606838Y-71659073D01*
X156614863Y-71655101D01*
X156623347Y-71657967D01*
G37*
%TD.AperFunction*%
%TD*%
%TA.AperFunction,Conductor*%
%TO.N,VCC_5V*%
G36*
X148881651Y-58850416D02*
G01*
X148967760Y-58812955D01*
X149020856Y-58806332D01*
X149075633Y-58812647D01*
X149115937Y-58828721D01*
X149152758Y-58856540D01*
X149190645Y-58910000D01*
X150016352Y-58609293D01*
X149043868Y-58443792D01*
X149024865Y-58490373D01*
X148953944Y-58560422D01*
X148810337Y-58661421D01*
X148740229Y-58708994D01*
X148881651Y-58850416D01*
G37*
%TD.AperFunction*%
%TD*%
%TA.AperFunction,Conductor*%
%TO.N,/ARCHITECTURE/5. COMPARATOR/~{OC_DETECT}*%
G36*
X144482803Y-58168579D02*
G01*
X144500662Y-58193939D01*
X144509483Y-58226986D01*
X144504834Y-58252702D01*
X144486494Y-58276448D01*
X144458383Y-58292698D01*
X144416307Y-58304302D01*
X144341382Y-58310001D01*
X145066352Y-58610707D01*
X145189909Y-58310000D01*
X145062032Y-58291772D01*
X144911625Y-58232985D01*
X144746682Y-58131042D01*
X144624224Y-58027158D01*
X144482803Y-58168579D01*
G37*
%TD.AperFunction*%
%TD*%
%TA.AperFunction,Conductor*%
%TO.N,GND*%
G36*
X133081322Y-85919685D02*
G01*
X133101964Y-85936319D01*
X133965645Y-86800000D01*
X136491645Y-86800000D01*
X136558684Y-86819685D01*
X136604439Y-86872489D01*
X136615645Y-86924000D01*
X136615645Y-88376000D01*
X136595960Y-88443039D01*
X136543156Y-88488794D01*
X136491645Y-88500000D01*
X132668705Y-88500000D01*
X132601666Y-88480315D01*
X132579009Y-88461619D01*
X131599949Y-87435937D01*
X131567899Y-87373852D01*
X131565645Y-87350318D01*
X131565645Y-86024000D01*
X131585330Y-85956961D01*
X131638134Y-85911206D01*
X131689645Y-85900000D01*
X133014283Y-85900000D01*
X133081322Y-85919685D01*
G37*
%TD.AperFunction*%
%TD*%
%TA.AperFunction,Conductor*%
%TO.N,GND*%
G36*
X151412983Y-87858711D02*
G01*
X151416383Y-87866194D01*
X151421904Y-87947807D01*
X151438737Y-88016964D01*
X151479438Y-88095198D01*
X151492441Y-88120193D01*
X151540462Y-88205103D01*
X151541168Y-88206586D01*
X151564762Y-88266657D01*
X151565203Y-88268018D01*
X151582289Y-88334414D01*
X151581032Y-88343280D01*
X151573874Y-88348661D01*
X151573281Y-88348797D01*
X151317968Y-88400529D01*
X151313322Y-88400529D01*
X151058636Y-88348924D01*
X151051208Y-88343922D01*
X151049492Y-88335134D01*
X151049790Y-88333973D01*
X151088048Y-88211341D01*
X151089002Y-88209125D01*
X151138739Y-88120386D01*
X151138963Y-88120006D01*
X151154374Y-88095202D01*
X151198129Y-87999567D01*
X151210955Y-87936534D01*
X151215008Y-87866308D01*
X151218906Y-87858248D01*
X151226689Y-87855284D01*
X151404710Y-87855284D01*
X151412983Y-87858711D01*
G37*
%TD.AperFunction*%
%TD*%
%TA.AperFunction,Conductor*%
%TO.N,VCC_5V*%
G36*
X170181323Y-61669685D02*
G01*
X170201964Y-61686318D01*
X170465646Y-61950000D01*
X172548659Y-61950000D01*
X172615698Y-61969685D01*
X172636340Y-61986319D01*
X172829327Y-62179305D01*
X172862812Y-62240628D01*
X172865646Y-62266986D01*
X172865646Y-62961138D01*
X172845961Y-63028177D01*
X172829327Y-63048819D01*
X172564465Y-63313681D01*
X172503142Y-63347166D01*
X172476784Y-63350000D01*
X171515646Y-63350000D01*
X171065646Y-63800000D01*
X171065646Y-65546412D01*
X171064879Y-65549023D01*
X171065535Y-65551666D01*
X171055090Y-65582359D01*
X171045961Y-65613451D01*
X171043635Y-65616022D01*
X171043027Y-65617811D01*
X171018805Y-65643482D01*
X170972835Y-65680021D01*
X170855774Y-65773071D01*
X170791048Y-65799375D01*
X170778618Y-65800000D01*
X170065645Y-65800000D01*
X169515646Y-66350000D01*
X169515646Y-67026000D01*
X169495961Y-67093039D01*
X169443157Y-67138794D01*
X169391646Y-67150000D01*
X168639646Y-67150000D01*
X168572607Y-67130315D01*
X168526852Y-67077511D01*
X168515646Y-67026000D01*
X168515646Y-64849999D01*
X168265646Y-64600000D01*
X168115246Y-64487200D01*
X168073425Y-64431229D01*
X168065646Y-64388000D01*
X168065646Y-63250001D01*
X168065645Y-63250000D01*
X167565646Y-62750000D01*
X167092008Y-62750000D01*
X167062567Y-62741355D01*
X167032581Y-62734832D01*
X167027565Y-62731077D01*
X167024969Y-62730315D01*
X167004327Y-62713681D01*
X166901964Y-62611317D01*
X166868480Y-62549996D01*
X166865646Y-62523646D01*
X166865646Y-62007610D01*
X166885331Y-61940572D01*
X166901960Y-61919935D01*
X167035579Y-61786316D01*
X167096900Y-61752833D01*
X167123249Y-61749999D01*
X168465645Y-61749999D01*
X168529327Y-61686317D01*
X168590651Y-61652834D01*
X168617008Y-61650000D01*
X170114284Y-61650000D01*
X170181323Y-61669685D01*
G37*
%TD.AperFunction*%
%TD*%
%TA.AperFunction,Conductor*%
%TO.N,Net-(Q601-B)*%
G36*
X175080164Y-88301971D02*
G01*
X175358330Y-88579213D01*
X175361771Y-88587481D01*
X175358358Y-88595759D01*
X175358330Y-88595787D01*
X175082446Y-88870754D01*
X175074168Y-88874167D01*
X175065900Y-88870726D01*
X175062585Y-88863976D01*
X175062261Y-88861493D01*
X175060596Y-88848687D01*
X175049176Y-88823164D01*
X175042382Y-88807976D01*
X175042380Y-88807974D01*
X175042380Y-88807973D01*
X175013492Y-88773970D01*
X175013491Y-88773969D01*
X174958955Y-88736098D01*
X174958951Y-88736096D01*
X174896233Y-88709935D01*
X174896229Y-88709934D01*
X174824982Y-88692804D01*
X174819430Y-88692307D01*
X174776303Y-88688452D01*
X174768368Y-88684301D01*
X174765645Y-88676798D01*
X174765645Y-88498743D01*
X174769072Y-88490470D01*
X174776877Y-88487053D01*
X174788312Y-88486598D01*
X174905734Y-88461877D01*
X174995264Y-88416125D01*
X175047511Y-88358458D01*
X175060569Y-88307360D01*
X175065938Y-88300194D01*
X175074802Y-88298922D01*
X175080164Y-88301971D01*
G37*
%TD.AperFunction*%
%TD*%
%TA.AperFunction,Conductor*%
%TO.N,/ARCHITECTURE/5. COMPARATOR/EN_OK*%
G36*
X166393822Y-74869685D02*
G01*
X166414464Y-74886319D01*
X166529326Y-75001181D01*
X166562811Y-75062504D01*
X166565645Y-75088862D01*
X166565645Y-79406250D01*
X167209395Y-80050000D01*
X169089283Y-80050000D01*
X169118723Y-80058644D01*
X169148710Y-80065168D01*
X169153725Y-80068922D01*
X169156322Y-80069685D01*
X169176964Y-80086319D01*
X169329326Y-80238681D01*
X169362811Y-80300004D01*
X169365645Y-80326362D01*
X169365645Y-80898638D01*
X169345960Y-80965677D01*
X169329326Y-80986319D01*
X169101964Y-81213681D01*
X169040641Y-81247166D01*
X169014283Y-81250000D01*
X165598257Y-81250000D01*
X165531218Y-81230315D01*
X165510576Y-81213681D01*
X165301964Y-81005069D01*
X165268479Y-80943746D01*
X165265645Y-80917388D01*
X165265645Y-80101362D01*
X165285330Y-80034323D01*
X165301964Y-80013681D01*
X165565645Y-79750000D01*
X165565645Y-79375000D01*
X165340645Y-79150000D01*
X164189645Y-79150000D01*
X164122606Y-79130315D01*
X164076851Y-79077511D01*
X164065645Y-79026000D01*
X164065645Y-78274000D01*
X164085330Y-78206961D01*
X164138134Y-78161206D01*
X164189645Y-78150000D01*
X165128145Y-78150000D01*
X165565645Y-77712500D01*
X165565645Y-75151362D01*
X165585330Y-75084323D01*
X165601964Y-75063681D01*
X165779326Y-74886319D01*
X165840649Y-74852834D01*
X165867007Y-74850000D01*
X166326783Y-74850000D01*
X166393822Y-74869685D01*
G37*
%TD.AperFunction*%
%TD*%
%TA.AperFunction,Conductor*%
%TO.N,VREF_2V5*%
G36*
X169993823Y-56969685D02*
G01*
X170014456Y-56986311D01*
X170129327Y-57101181D01*
X170162811Y-57162504D01*
X170165645Y-57188862D01*
X170165645Y-58150000D01*
X170565646Y-58550000D01*
X172414284Y-58550000D01*
X172481323Y-58569685D01*
X172501964Y-58586317D01*
X172665645Y-58750000D01*
X175141646Y-58750000D01*
X175208685Y-58769685D01*
X175254440Y-58822489D01*
X175265646Y-58874000D01*
X175265646Y-59626000D01*
X175245961Y-59693039D01*
X175193157Y-59738794D01*
X175141646Y-59750000D01*
X168784195Y-59750000D01*
X168717156Y-59730315D01*
X168696514Y-59713681D01*
X168501964Y-59519131D01*
X168468479Y-59457808D01*
X168465645Y-59431458D01*
X168465645Y-58732612D01*
X168474288Y-58703176D01*
X168480812Y-58673187D01*
X168484567Y-58668170D01*
X168485330Y-58665574D01*
X168501963Y-58644933D01*
X168531269Y-58615625D01*
X168560577Y-58586318D01*
X168621899Y-58552833D01*
X168648249Y-58549999D01*
X168990646Y-58549999D01*
X169165645Y-58375000D01*
X169165645Y-57251358D01*
X169185330Y-57184323D01*
X169201959Y-57163686D01*
X169379328Y-56986317D01*
X169440649Y-56952834D01*
X169467006Y-56950000D01*
X169926787Y-56950000D01*
X169993823Y-56969685D01*
G37*
%TD.AperFunction*%
%TD*%
%TA.AperFunction,Conductor*%
%TO.N,GND*%
G36*
X149162983Y-88358711D02*
G01*
X149166383Y-88366194D01*
X149171904Y-88447807D01*
X149188737Y-88516964D01*
X149229438Y-88595198D01*
X149242441Y-88620193D01*
X149290462Y-88705103D01*
X149291168Y-88706586D01*
X149314762Y-88766657D01*
X149315203Y-88768018D01*
X149332289Y-88834414D01*
X149331032Y-88843280D01*
X149323874Y-88848661D01*
X149323281Y-88848797D01*
X149067968Y-88900529D01*
X149063322Y-88900529D01*
X148808636Y-88848924D01*
X148801208Y-88843922D01*
X148799492Y-88835134D01*
X148799790Y-88833973D01*
X148838048Y-88711341D01*
X148839002Y-88709125D01*
X148888739Y-88620386D01*
X148888963Y-88620006D01*
X148904374Y-88595202D01*
X148948129Y-88499567D01*
X148960955Y-88436534D01*
X148965008Y-88366308D01*
X148968906Y-88358248D01*
X148976689Y-88355284D01*
X149154710Y-88355284D01*
X149162983Y-88358711D01*
G37*
%TD.AperFunction*%
%TD*%
%TA.AperFunction,Conductor*%
%TO.N,GND*%
G36*
X141631245Y-73883399D02*
G01*
X141816548Y-73931705D01*
X141816726Y-73931754D01*
X141907435Y-73957382D01*
X141991662Y-73970298D01*
X142099126Y-73974554D01*
X142107255Y-73978306D01*
X142110361Y-73986245D01*
X142110361Y-74314082D01*
X142106934Y-74322355D01*
X142099469Y-74325754D01*
X141935116Y-74337131D01*
X141935112Y-74337132D01*
X141816640Y-74368270D01*
X141816617Y-74368276D01*
X141631257Y-74416597D01*
X141622387Y-74415368D01*
X141616984Y-74408226D01*
X141616844Y-74407620D01*
X141565115Y-74152319D01*
X141565115Y-74147680D01*
X141616840Y-73892399D01*
X141621841Y-73884973D01*
X141630629Y-73883257D01*
X141631245Y-73883399D01*
G37*
%TD.AperFunction*%
%TD*%
%TA.AperFunction,Conductor*%
%TO.N,/ARCHITECTURE/3. SENSING/VSENSE_12V*%
G36*
X151721280Y-83921012D02*
G01*
X151726243Y-83928465D01*
X151724481Y-83937245D01*
X151724223Y-83937615D01*
X151590765Y-84120950D01*
X151484074Y-84274101D01*
X151456399Y-84334471D01*
X151435959Y-84403659D01*
X151435959Y-84403660D01*
X151420684Y-84507001D01*
X151420684Y-84507003D01*
X151416070Y-84629135D01*
X151412333Y-84637273D01*
X151404378Y-84640393D01*
X151226686Y-84640393D01*
X151218413Y-84636966D01*
X151215006Y-84629370D01*
X151214992Y-84629135D01*
X151211616Y-84570862D01*
X151205058Y-84457665D01*
X151205057Y-84457661D01*
X151205057Y-84457658D01*
X151172818Y-84329061D01*
X151118212Y-84226270D01*
X151061952Y-84150000D01*
X151040525Y-84120952D01*
X150899910Y-83927785D01*
X151315645Y-83649000D01*
X151721280Y-83921012D01*
G37*
%TD.AperFunction*%
%TD*%
%TA.AperFunction,Conductor*%
%TO.N,Net-(D502-A)*%
G36*
X170353960Y-78077552D02*
G01*
X170356838Y-78079404D01*
X171055543Y-78690294D01*
X171059516Y-78698319D01*
X171056650Y-78706803D01*
X171054669Y-78708604D01*
X170278123Y-79266535D01*
X170269405Y-79268579D01*
X170261794Y-79263860D01*
X170259899Y-79259678D01*
X170246115Y-79200283D01*
X170246115Y-79200282D01*
X170216593Y-79135058D01*
X170216590Y-79135052D01*
X170176073Y-79073888D01*
X170176069Y-79073884D01*
X170116355Y-79007216D01*
X170046543Y-78947110D01*
X170046533Y-78947103D01*
X169958239Y-78887187D01*
X169958226Y-78887179D01*
X169864737Y-78837150D01*
X169678003Y-78769374D01*
X169678002Y-78769373D01*
X169550711Y-78751419D01*
X169542997Y-78746871D01*
X169540645Y-78739834D01*
X169540645Y-78560437D01*
X169544072Y-78552164D01*
X169551013Y-78548813D01*
X169676874Y-78534412D01*
X169884888Y-78471603D01*
X170070449Y-78379878D01*
X170208488Y-78277316D01*
X170297927Y-78173008D01*
X170338477Y-78083388D01*
X170345010Y-78077264D01*
X170353960Y-78077552D01*
G37*
%TD.AperFunction*%
%TD*%
%TA.AperFunction,Conductor*%
%TO.N,/ARCHITECTURE/5. COMPARATOR/~{12V_FAULT}*%
G36*
X154649328Y-84524979D02*
G01*
X154652755Y-84533252D01*
X154650134Y-84540632D01*
X154647398Y-84543997D01*
X154647393Y-84544003D01*
X154598542Y-84612770D01*
X154571546Y-84650771D01*
X154571540Y-84650780D01*
X154571538Y-84650784D01*
X154496340Y-84777347D01*
X154421588Y-84924576D01*
X154421584Y-84924583D01*
X154352114Y-85084141D01*
X154352101Y-85084174D01*
X154244330Y-85400592D01*
X154183433Y-85680600D01*
X154166884Y-85890718D01*
X154162818Y-85898696D01*
X154154301Y-85901463D01*
X154150940Y-85900688D01*
X153590954Y-85680599D01*
X153522416Y-85653661D01*
X153515971Y-85647447D01*
X153515038Y-85643749D01*
X153443865Y-84791036D01*
X153446591Y-84782509D01*
X153454551Y-84778406D01*
X153458195Y-84778674D01*
X153554887Y-84801347D01*
X153658320Y-84811574D01*
X153764008Y-84810743D01*
X153878873Y-84798541D01*
X153991667Y-84775853D01*
X154100730Y-84743713D01*
X154202687Y-84703587D01*
X154364146Y-84612770D01*
X154462309Y-84524549D01*
X154470130Y-84521552D01*
X154641055Y-84521552D01*
X154649328Y-84524979D01*
G37*
%TD.AperFunction*%
%TD*%
%TA.AperFunction,Conductor*%
%TO.N,Net-(U502A-+)*%
G36*
X142323891Y-58957197D02*
G01*
X142949005Y-59578490D01*
X142952457Y-59586751D01*
X142949055Y-59595035D01*
X142942423Y-59598368D01*
X142868233Y-59609042D01*
X142802009Y-59634230D01*
X142739921Y-59670156D01*
X142672843Y-59723673D01*
X142672839Y-59723676D01*
X142612385Y-59786941D01*
X142552507Y-59867028D01*
X142502515Y-59952260D01*
X142435006Y-60122971D01*
X142429073Y-60161900D01*
X142417839Y-60235612D01*
X142417160Y-60240064D01*
X142412526Y-60247726D01*
X142405594Y-60250001D01*
X142227085Y-60250001D01*
X142218812Y-60246574D01*
X142215388Y-60238565D01*
X142215321Y-60235612D01*
X142215321Y-60235608D01*
X142205619Y-60161900D01*
X142182999Y-60079358D01*
X142106067Y-59910970D01*
X142004885Y-59770855D01*
X142004884Y-59770854D01*
X142004885Y-59770854D01*
X141946553Y-59718777D01*
X141894477Y-59672286D01*
X141781267Y-59614669D01*
X141704880Y-59601692D01*
X141688057Y-59598835D01*
X141680475Y-59594071D01*
X141678482Y-59585340D01*
X141681768Y-59579003D01*
X142307398Y-58957197D01*
X142315681Y-58953796D01*
X142323891Y-58957197D01*
G37*
%TD.AperFunction*%
%TD*%
%TA.AperFunction,Conductor*%
%TO.N,VCC_5V*%
G36*
X151698463Y-58026335D02*
G01*
X152157170Y-58392438D01*
X152161499Y-58400278D01*
X152159017Y-58408881D01*
X152158753Y-58409200D01*
X151783656Y-58846545D01*
X151775669Y-58850594D01*
X151767158Y-58847809D01*
X151765879Y-58846528D01*
X151749990Y-58827930D01*
X151713850Y-58802889D01*
X151627114Y-58767153D01*
X151521246Y-58741596D01*
X151521232Y-58741593D01*
X151319310Y-58716448D01*
X151164391Y-58710436D01*
X151156257Y-58706691D01*
X151153145Y-58698745D01*
X151153145Y-58520627D01*
X151156572Y-58512354D01*
X151163722Y-58508981D01*
X151208831Y-58504637D01*
X151276892Y-58486554D01*
X151348506Y-58456388D01*
X151482241Y-58369062D01*
X151586228Y-58260099D01*
X151653599Y-58140660D01*
X151679795Y-58032720D01*
X151685076Y-58025489D01*
X151693924Y-58024110D01*
X151698463Y-58026335D01*
G37*
%TD.AperFunction*%
%TD*%
%TA.AperFunction,Conductor*%
%TO.N,/ARCHITECTURE/5. COMPARATOR/~{OC_DETECT}*%
G36*
X144965645Y-58010000D02*
G01*
X144960341Y-58069337D01*
X144943211Y-58140584D01*
X144917046Y-58203310D01*
X144879175Y-58257847D01*
X144845172Y-58286735D01*
X144804458Y-58304951D01*
X144765645Y-58310000D01*
X145065645Y-58611000D01*
X145365645Y-58310000D01*
X145294687Y-58291866D01*
X145237020Y-58239619D01*
X145191268Y-58150089D01*
X145166547Y-58032667D01*
X145165645Y-58010000D01*
X144965645Y-58010000D01*
G37*
%TD.AperFunction*%
%TD*%
%TA.AperFunction,Conductor*%
%TO.N,Net-(D201-A)*%
G36*
X135658684Y-77319685D02*
G01*
X135704439Y-77372489D01*
X135715645Y-77424000D01*
X135715645Y-79700000D01*
X136629326Y-80613681D01*
X136662811Y-80675004D01*
X136665645Y-80701362D01*
X136665645Y-84000000D01*
X136779326Y-84113681D01*
X136812811Y-84175004D01*
X136815645Y-84201362D01*
X136815645Y-84650001D01*
X137615645Y-85700000D01*
X138415645Y-86750000D01*
X139339283Y-86750000D01*
X139406322Y-86769685D01*
X139426964Y-86786319D01*
X139679326Y-87038681D01*
X139712811Y-87100004D01*
X139715645Y-87126362D01*
X139715645Y-88173638D01*
X139695960Y-88240677D01*
X139679326Y-88261319D01*
X139426964Y-88513681D01*
X139365641Y-88547166D01*
X139339283Y-88550000D01*
X138476922Y-88550000D01*
X138409883Y-88530315D01*
X138378422Y-88501324D01*
X138167115Y-88225000D01*
X135841145Y-85183346D01*
X135816058Y-85118135D01*
X135815645Y-85108022D01*
X135815645Y-83350000D01*
X135401964Y-82936319D01*
X135368479Y-82874996D01*
X135365645Y-82848638D01*
X135365645Y-80500000D01*
X134851964Y-79986319D01*
X134818479Y-79924996D01*
X134815645Y-79898638D01*
X134815645Y-77424000D01*
X134835330Y-77356961D01*
X134888134Y-77311206D01*
X134939645Y-77300000D01*
X135591645Y-77300000D01*
X135658684Y-77319685D01*
G37*
%TD.AperFunction*%
%TD*%
%TA.AperFunction,Conductor*%
%TO.N,/ARCHITECTURE/5. COMPARATOR/~{12V_FAULT}*%
G36*
X153523345Y-85657967D02*
G01*
X153524452Y-85659074D01*
X154135215Y-86357633D01*
X154138081Y-86366117D01*
X154134108Y-86374142D01*
X154130265Y-86376380D01*
X154075477Y-86395515D01*
X154075475Y-86395516D01*
X154007796Y-86433434D01*
X154007783Y-86433444D01*
X153944362Y-86482489D01*
X153944360Y-86482491D01*
X153875662Y-86551923D01*
X153875658Y-86551927D01*
X153813836Y-86631209D01*
X153813834Y-86631212D01*
X153753180Y-86728409D01*
X153702614Y-86830065D01*
X153635016Y-87028653D01*
X153616990Y-87164835D01*
X153612507Y-87172587D01*
X153605391Y-87175000D01*
X153425838Y-87175000D01*
X153417565Y-87171573D01*
X153414248Y-87164903D01*
X153394227Y-87020141D01*
X153394227Y-87020139D01*
X153324328Y-86820342D01*
X153273051Y-86728414D01*
X153224630Y-86641604D01*
X153224624Y-86641595D01*
X153112970Y-86506704D01*
X153112963Y-86506698D01*
X152998781Y-86417923D01*
X152998782Y-86417923D01*
X152899736Y-86376908D01*
X152893403Y-86370576D01*
X152893402Y-86361622D01*
X152895400Y-86358402D01*
X153506836Y-85659073D01*
X153514861Y-85655101D01*
X153523345Y-85657967D01*
G37*
%TD.AperFunction*%
%TD*%
%TA.AperFunction,Conductor*%
%TO.N,VREF_2V5*%
G36*
X153557190Y-79339581D02*
G01*
X153565253Y-79343474D01*
X153567826Y-79348249D01*
X153577818Y-79385737D01*
X153577819Y-79385739D01*
X153621231Y-79432729D01*
X153754192Y-79525145D01*
X153860307Y-79600455D01*
X153865071Y-79608036D01*
X153863077Y-79616766D01*
X153861809Y-79618268D01*
X153631653Y-79848424D01*
X153623380Y-79851851D01*
X153615913Y-79849158D01*
X153533544Y-79780871D01*
X153533534Y-79780864D01*
X153533535Y-79780864D01*
X153533532Y-79780862D01*
X153452468Y-79731570D01*
X153452466Y-79731569D01*
X153452461Y-79731566D01*
X153452457Y-79731564D01*
X153360766Y-79688661D01*
X153253035Y-79650617D01*
X153253022Y-79650613D01*
X153253019Y-79650612D01*
X153241093Y-79647560D01*
X153134587Y-79620311D01*
X153001039Y-79597415D01*
X152857353Y-79583589D01*
X152857322Y-79583587D01*
X152701159Y-79579202D01*
X152701143Y-79579203D01*
X152701137Y-79579203D01*
X152701131Y-79579203D01*
X152650817Y-79580966D01*
X152550259Y-79584491D01*
X152541871Y-79581356D01*
X152538156Y-79573208D01*
X152538333Y-79570732D01*
X152588101Y-79294489D01*
X152592940Y-79286956D01*
X152600282Y-79284884D01*
X153557190Y-79339581D01*
G37*
%TD.AperFunction*%
%TD*%
%TA.AperFunction,Conductor*%
%TO.N,GND*%
G36*
X175323891Y-93757198D02*
G01*
X175949005Y-94378491D01*
X175952457Y-94386752D01*
X175949055Y-94395036D01*
X175942423Y-94398369D01*
X175868233Y-94409043D01*
X175802009Y-94434231D01*
X175739921Y-94470157D01*
X175672843Y-94523674D01*
X175672839Y-94523677D01*
X175612385Y-94586942D01*
X175552507Y-94667029D01*
X175502515Y-94752261D01*
X175435006Y-94922972D01*
X175429073Y-94961901D01*
X175417839Y-95035613D01*
X175417160Y-95040065D01*
X175412526Y-95047727D01*
X175405594Y-95050002D01*
X175227085Y-95050002D01*
X175218812Y-95046575D01*
X175215388Y-95038566D01*
X175215321Y-95035613D01*
X175215321Y-95035609D01*
X175205619Y-94961901D01*
X175182999Y-94879359D01*
X175106067Y-94710971D01*
X175004885Y-94570856D01*
X175004884Y-94570855D01*
X175004885Y-94570855D01*
X174946553Y-94518778D01*
X174894477Y-94472287D01*
X174781267Y-94414670D01*
X174704880Y-94401693D01*
X174688057Y-94398836D01*
X174680475Y-94394072D01*
X174678482Y-94385341D01*
X174681768Y-94379004D01*
X175307398Y-93757198D01*
X175315681Y-93753797D01*
X175323891Y-93757198D01*
G37*
%TD.AperFunction*%
%TD*%
%TA.AperFunction,Conductor*%
%TO.N,VCC_5V*%
G36*
X155073891Y-66207197D02*
G01*
X155699005Y-66828490D01*
X155702457Y-66836751D01*
X155699055Y-66845035D01*
X155692423Y-66848368D01*
X155618233Y-66859042D01*
X155552009Y-66884230D01*
X155489921Y-66920156D01*
X155422843Y-66973673D01*
X155422839Y-66973676D01*
X155362385Y-67036941D01*
X155302507Y-67117028D01*
X155252515Y-67202260D01*
X155185006Y-67372971D01*
X155179073Y-67411900D01*
X155167839Y-67485612D01*
X155167160Y-67490064D01*
X155162526Y-67497726D01*
X155155594Y-67500001D01*
X154977085Y-67500001D01*
X154968812Y-67496574D01*
X154965388Y-67488565D01*
X154965321Y-67485612D01*
X154965321Y-67485608D01*
X154955619Y-67411900D01*
X154932999Y-67329358D01*
X154856067Y-67160970D01*
X154754885Y-67020855D01*
X154754884Y-67020854D01*
X154754885Y-67020854D01*
X154696553Y-66968777D01*
X154644477Y-66922286D01*
X154531267Y-66864669D01*
X154454880Y-66851692D01*
X154438057Y-66848835D01*
X154430475Y-66844071D01*
X154428482Y-66835340D01*
X154431768Y-66829003D01*
X155057398Y-66207197D01*
X155065681Y-66203796D01*
X155073891Y-66207197D01*
G37*
%TD.AperFunction*%
%TD*%
%TA.AperFunction,Conductor*%
%TO.N,/ARCHITECTURE/5. COMPARATOR/~{12V_FAULT}*%
G36*
X158572158Y-85653368D02*
G01*
X158971280Y-85921012D01*
X158976243Y-85928466D01*
X158974481Y-85937245D01*
X158974223Y-85937615D01*
X158840765Y-86120950D01*
X158734074Y-86274101D01*
X158706399Y-86334471D01*
X158685959Y-86403659D01*
X158685959Y-86403660D01*
X158670684Y-86507001D01*
X158670684Y-86507003D01*
X158666070Y-86629135D01*
X158662333Y-86637273D01*
X158654378Y-86640393D01*
X158476686Y-86640393D01*
X158468413Y-86636966D01*
X158465006Y-86629370D01*
X158464992Y-86629135D01*
X158461616Y-86570862D01*
X158455058Y-86457665D01*
X158455057Y-86457661D01*
X158455057Y-86457658D01*
X158422818Y-86329061D01*
X158368212Y-86226270D01*
X158290525Y-86120952D01*
X158157066Y-85937615D01*
X158154967Y-85928909D01*
X158159639Y-85921270D01*
X158159979Y-85921032D01*
X158559130Y-85653368D01*
X158567909Y-85651607D01*
X158572158Y-85653368D01*
G37*
%TD.AperFunction*%
%TD*%
%TA.AperFunction,Conductor*%
%TO.N,/ARCHITECTURE/5. COMPARATOR/~{OC_DETECT}*%
G36*
X156167058Y-60842834D02*
G01*
X156250253Y-60939124D01*
X156289738Y-61001756D01*
X156316651Y-61068907D01*
X156323525Y-61116510D01*
X156317280Y-61163118D01*
X156315645Y-61168198D01*
X156616352Y-61150707D01*
X156708843Y-60925000D01*
X156609676Y-60909012D01*
X156494589Y-60853737D01*
X156366061Y-60755906D01*
X156308479Y-60701413D01*
X156167058Y-60842834D01*
G37*
%TD.AperFunction*%
%TD*%
%TA.AperFunction,Conductor*%
%TO.N,/ARCHITECTURE/1. INTERCONNECTS/VIN*%
G36*
X140258684Y-68619685D02*
G01*
X140304439Y-68672489D01*
X140315645Y-68724000D01*
X140315645Y-74576000D01*
X140295960Y-74643039D01*
X140243156Y-74688794D01*
X140191645Y-74700000D01*
X134853144Y-74700000D01*
X133365645Y-76187499D01*
X133365645Y-80596857D01*
X133345960Y-80663896D01*
X133327162Y-80686650D01*
X131301562Y-82615793D01*
X131239441Y-82647773D01*
X131216045Y-82650000D01*
X122689645Y-82650000D01*
X122622606Y-82630315D01*
X122576851Y-82577511D01*
X122565645Y-82526000D01*
X122565645Y-80774000D01*
X122585330Y-80706961D01*
X122638134Y-80661206D01*
X122689645Y-80650000D01*
X129090645Y-80650000D01*
X131265645Y-78475000D01*
X131265645Y-76447637D01*
X131266145Y-76444481D01*
X131266145Y-76255519D01*
X131265645Y-76252362D01*
X131265645Y-69524000D01*
X131285330Y-69456961D01*
X131338134Y-69411206D01*
X131389645Y-69400000D01*
X133265644Y-69400000D01*
X133265645Y-69400000D01*
X134788886Y-68613810D01*
X134845758Y-68600000D01*
X140191645Y-68600000D01*
X140258684Y-68619685D01*
G37*
%TD.AperFunction*%
%TD*%
%TA.AperFunction,Conductor*%
%TO.N,GND*%
G36*
X149164025Y-68403427D02*
G01*
X149167289Y-68409755D01*
X149184171Y-68509922D01*
X149184172Y-68509926D01*
X149211730Y-68581998D01*
X149211731Y-68581999D01*
X149211732Y-68582001D01*
X149250718Y-68655473D01*
X149306607Y-68727958D01*
X149349924Y-68784138D01*
X149465318Y-68878559D01*
X149465321Y-68878560D01*
X149465323Y-68878562D01*
X149588060Y-68935319D01*
X149692743Y-68951443D01*
X149700398Y-68956090D01*
X149702526Y-68964788D01*
X149699210Y-68971305D01*
X149073893Y-69592801D01*
X149065609Y-69596203D01*
X149057397Y-69592801D01*
X148433117Y-68972336D01*
X148429665Y-68964074D01*
X148433067Y-68955790D01*
X148440142Y-68952403D01*
X148501092Y-68946014D01*
X148572259Y-68925435D01*
X148638777Y-68894630D01*
X148708261Y-68849199D01*
X148770679Y-68794922D01*
X148830364Y-68727956D01*
X148880123Y-68656211D01*
X148946283Y-68512620D01*
X148963974Y-68409717D01*
X148968753Y-68402145D01*
X148975505Y-68400000D01*
X149155752Y-68400000D01*
X149164025Y-68403427D01*
G37*
%TD.AperFunction*%
%TD*%
%TA.AperFunction,Conductor*%
%TO.N,GND*%
G36*
X167413004Y-59528426D02*
G01*
X167416388Y-59535699D01*
X167422343Y-59605094D01*
X167422345Y-59605104D01*
X167441407Y-59695545D01*
X167441413Y-59695566D01*
X167505722Y-59869935D01*
X167588792Y-60006362D01*
X167659612Y-60077625D01*
X167678909Y-60097043D01*
X167720796Y-60119212D01*
X167757381Y-60138575D01*
X167763090Y-60145474D01*
X167762249Y-60154389D01*
X167759525Y-60157797D01*
X167323263Y-60531965D01*
X167314752Y-60534750D01*
X167308029Y-60531965D01*
X166872674Y-60158576D01*
X166868625Y-60150589D01*
X166871410Y-60142078D01*
X166875464Y-60139037D01*
X166919274Y-60119214D01*
X166976219Y-60077628D01*
X167027471Y-60024961D01*
X167082283Y-59948990D01*
X167128063Y-59864713D01*
X167167915Y-59767173D01*
X167195982Y-59671293D01*
X167214283Y-59535137D01*
X167218781Y-59527398D01*
X167225875Y-59524999D01*
X167404731Y-59524999D01*
X167413004Y-59528426D01*
G37*
%TD.AperFunction*%
%TD*%
%TA.AperFunction,Conductor*%
%TO.N,VCC_5V*%
G36*
X159202766Y-76169928D02*
G01*
X159657388Y-76542416D01*
X159661616Y-76550310D01*
X159659023Y-76558881D01*
X159658854Y-76559083D01*
X159284206Y-76995904D01*
X159276219Y-76999953D01*
X159267708Y-76997168D01*
X159266858Y-76996361D01*
X159236866Y-76964859D01*
X159236865Y-76964858D01*
X159236863Y-76964856D01*
X159203385Y-76944466D01*
X159187292Y-76934664D01*
X159187284Y-76934661D01*
X159187282Y-76934660D01*
X159086616Y-76897691D01*
X158969315Y-76871898D01*
X158844687Y-76856872D01*
X158794839Y-76850862D01*
X158664361Y-76845464D01*
X158656237Y-76841698D01*
X158653145Y-76833774D01*
X158653145Y-76655681D01*
X158656572Y-76647408D01*
X158663780Y-76644029D01*
X158706625Y-76640120D01*
X158775296Y-76622575D01*
X158847843Y-76592929D01*
X158983358Y-76506844D01*
X159088711Y-76399478D01*
X159157104Y-76281952D01*
X159184013Y-76176094D01*
X159189371Y-76168922D01*
X159198233Y-76167639D01*
X159202766Y-76169928D01*
G37*
%TD.AperFunction*%
%TD*%
%TA.AperFunction,Conductor*%
%TO.N,GND*%
G36*
X171913820Y-54903427D02*
G01*
X171917121Y-54909990D01*
X171927761Y-54982018D01*
X171951548Y-55047812D01*
X171951549Y-55047815D01*
X171951551Y-55047818D01*
X171987102Y-55115106D01*
X172083920Y-55237075D01*
X172201781Y-55329043D01*
X172330352Y-55385300D01*
X172442472Y-55401601D01*
X172450165Y-55406181D01*
X172452366Y-55414861D01*
X172449036Y-55421476D01*
X171823893Y-56042800D01*
X171815609Y-56046202D01*
X171807398Y-56042800D01*
X171183563Y-55422779D01*
X171180112Y-55414518D01*
X171183514Y-55406234D01*
X171190817Y-55402824D01*
X171242873Y-55398387D01*
X171317410Y-55380259D01*
X171386935Y-55352130D01*
X171458044Y-55310828D01*
X171521776Y-55261112D01*
X171581347Y-55200744D01*
X171630960Y-55135755D01*
X171696283Y-55005617D01*
X171713887Y-54909590D01*
X171718749Y-54902071D01*
X171725395Y-54900000D01*
X171905547Y-54900000D01*
X171913820Y-54903427D01*
G37*
%TD.AperFunction*%
%TD*%
%TA.AperFunction,Conductor*%
%TO.N,/ARCHITECTURE/3. SENSING/VSENSE_17V*%
G36*
X151412877Y-72663034D02*
G01*
X151416283Y-72670629D01*
X151417941Y-72699242D01*
X151426231Y-72842334D01*
X151426232Y-72842341D01*
X151426233Y-72842342D01*
X151458472Y-72970939D01*
X151513078Y-73073730D01*
X151513081Y-73073734D01*
X151590765Y-73179048D01*
X151590808Y-73179107D01*
X151724223Y-73362384D01*
X151726322Y-73371090D01*
X151721650Y-73378729D01*
X151721280Y-73378987D01*
X151315645Y-73650999D01*
X151315645Y-73651000D01*
X150899910Y-73372215D01*
X151040526Y-73179047D01*
X151147217Y-73025896D01*
X151174893Y-72965524D01*
X151195330Y-72896343D01*
X151210606Y-72792994D01*
X151215220Y-72670865D01*
X151218957Y-72662727D01*
X151226912Y-72659607D01*
X151404604Y-72659607D01*
X151412877Y-72663034D01*
G37*
%TD.AperFunction*%
%TD*%
%TA.AperFunction,Conductor*%
%TO.N,/ARCHITECTURE/5. COMPARATOR/~{OC_FAULT}*%
G36*
X151290645Y-59780000D02*
G01*
X151215103Y-59774593D01*
X151124541Y-59756747D01*
X151046955Y-59730293D01*
X150976993Y-59691843D01*
X150936856Y-59656825D01*
X150907527Y-59614646D01*
X150898048Y-59591418D01*
X150014645Y-59880000D01*
X150898048Y-60168582D01*
X150938857Y-60101016D01*
X151016693Y-60044032D01*
X151136668Y-60000144D01*
X151290645Y-59980000D01*
X151290645Y-59780000D01*
G37*
%TD.AperFunction*%
%TD*%
%TA.AperFunction,Conductor*%
%TO.N,GND*%
G36*
X174765390Y-62366773D02*
G01*
X174768705Y-62373522D01*
X174770694Y-62388807D01*
X174770695Y-62388813D01*
X174776404Y-62401574D01*
X174788908Y-62429523D01*
X174817799Y-62463530D01*
X174872335Y-62501401D01*
X174872339Y-62501403D01*
X174935057Y-62527564D01*
X174935062Y-62527566D01*
X175006309Y-62544696D01*
X175054988Y-62549047D01*
X175062923Y-62553197D01*
X175065646Y-62560701D01*
X175065646Y-62738756D01*
X175062219Y-62747029D01*
X175054412Y-62750447D01*
X175042977Y-62750902D01*
X175042975Y-62750902D01*
X174925554Y-62775623D01*
X174836030Y-62821372D01*
X174836029Y-62821373D01*
X174783780Y-62879042D01*
X174770721Y-62930138D01*
X174765352Y-62937305D01*
X174756488Y-62938577D01*
X174751126Y-62935528D01*
X174636589Y-62821372D01*
X174472959Y-62658285D01*
X174469519Y-62650019D01*
X174472931Y-62641741D01*
X174748846Y-62366744D01*
X174757122Y-62363332D01*
X174765390Y-62366773D01*
G37*
%TD.AperFunction*%
%TD*%
M02*
