%TF.GenerationSoftware,KiCad,Pcbnew,9.0.6+1*%
%TF.CreationDate,Date%
%TF.ProjectId,Input-Protection,496e7075-742d-4507-926f-74656374696f,+ (Unreleased)*%
%TF.SameCoordinates,Original*%
%TF.FileFunction,Paste,Top*%
%TF.FilePolarity,Positive*%
%FSLAX46Y46*%
G04 Gerber Fmt 4.6, Leading zero omitted, Abs format (unit mm)*
G04 Created by KiCad*
%MOMM*%
%LPD*%
G01*
G04 APERTURE LIST*
G04 Aperture macros list*
%AMRoundRect*
0 Rectangle with rounded corners*
0 $1 Rounding radius*
0 $2 $3 $4 $5 $6 $7 $8 $9 X,Y pos of 4 corners*
0 Add a 4 corners polygon primitive as box body*
4,1,4,$2,$3,$4,$5,$6,$7,$8,$9,$2,$3,0*
0 Add four circle primitives for the rounded corners*
1,1,$1+$1,$2,$3*
1,1,$1+$1,$4,$5*
1,1,$1+$1,$6,$7*
1,1,$1+$1,$8,$9*
0 Add four rect primitives between the rounded corners*
20,1,$1+$1,$2,$3,$4,$5,0*
20,1,$1+$1,$4,$5,$6,$7,0*
20,1,$1+$1,$6,$7,$8,$9,0*
20,1,$1+$1,$8,$9,$2,$3,0*%
G04 Aperture macros list end*
%ADD10RoundRect,0.250000X0.625000X-0.400000X0.625000X0.400000X-0.625000X0.400000X-0.625000X-0.400000X0*%
%ADD11RoundRect,0.250000X-0.625000X0.400000X-0.625000X-0.400000X0.625000X-0.400000X0.625000X0.400000X0*%
%ADD12R,0.914400X2.413000*%
%ADD13R,5.511800X6.070600*%
%ADD14RoundRect,0.150000X-0.587500X-0.150000X0.587500X-0.150000X0.587500X0.150000X-0.587500X0.150000X0*%
%ADD15RoundRect,0.237500X-0.300000X-0.237500X0.300000X-0.237500X0.300000X0.237500X-0.300000X0.237500X0*%
%ADD16RoundRect,0.250000X-0.400000X-0.625000X0.400000X-0.625000X0.400000X0.625000X-0.400000X0.625000X0*%
%ADD17R,0.802000X1.505000*%
%ADD18RoundRect,0.250000X0.250000X0.250000X-0.250000X0.250000X-0.250000X-0.250000X0.250000X-0.250000X0*%
%ADD19RoundRect,0.112500X0.112500X-0.187500X0.112500X0.187500X-0.112500X0.187500X-0.112500X-0.187500X0*%
%ADD20RoundRect,0.112500X-0.112500X0.187500X-0.112500X-0.187500X0.112500X-0.187500X0.112500X0.187500X0*%
%ADD21RoundRect,0.237500X0.237500X-0.300000X0.237500X0.300000X-0.237500X0.300000X-0.237500X-0.300000X0*%
%ADD22RoundRect,0.237500X-0.237500X0.300000X-0.237500X-0.300000X0.237500X-0.300000X0.237500X0.300000X0*%
%ADD23RoundRect,0.250000X0.400000X0.625000X-0.400000X0.625000X-0.400000X-0.625000X0.400000X-0.625000X0*%
G04 APERTURE END LIST*
D10*
%TO.C,R302*%
X143815645Y-91750002D03*
X143815645Y-88650000D03*
%TD*%
D11*
%TO.C,R401*%
X154565645Y-76099999D03*
X154565645Y-79200001D03*
%TD*%
%TO.C,R503*%
X161565645Y-74349998D03*
X161565645Y-77450000D03*
%TD*%
D12*
%TO.C,Q602*%
X175279645Y-82543500D03*
D13*
X177565645Y-75685500D03*
D12*
X179851645Y-82543500D03*
%TD*%
D14*
%TO.C,Q601*%
X174190645Y-93900000D03*
X174190645Y-95800000D03*
X176065645Y-94850000D03*
%TD*%
D10*
%TO.C,R505*%
X154565645Y-90800001D03*
X154565645Y-87699999D03*
%TD*%
D11*
%TO.C,R304*%
X143815645Y-73349999D03*
X143815645Y-76450001D03*
%TD*%
D15*
%TO.C,C502*%
X166103145Y-77450000D03*
X167828145Y-77450000D03*
%TD*%
%TO.C,C501*%
X166103145Y-87650000D03*
X167828145Y-87650000D03*
%TD*%
D10*
%TO.C,R602*%
X171965645Y-93850000D03*
X171965645Y-90749998D03*
%TD*%
%TO.C,R604*%
X177565645Y-69700001D03*
X177565645Y-66599999D03*
%TD*%
D16*
%TO.C,R201*%
X132915644Y-94650000D03*
X136015646Y-94650000D03*
%TD*%
D12*
%TO.C,Q201*%
X135279645Y-82543500D03*
D13*
X137565645Y-75685500D03*
D12*
X139851645Y-82543500D03*
%TD*%
D10*
%TO.C,R504*%
X161565645Y-90750002D03*
X161565645Y-87650000D03*
%TD*%
D17*
%TO.C,U501*%
X161410645Y-85047500D03*
X162680645Y-85047500D03*
X163950645Y-85047500D03*
X165220645Y-85047500D03*
X165220645Y-80052500D03*
X163950645Y-80052500D03*
X162680645Y-80052500D03*
X161410645Y-80052500D03*
%TD*%
D16*
%TO.C,R603*%
X176015645Y-90650000D03*
X179115645Y-90650000D03*
%TD*%
D11*
%TO.C,R601*%
X171965645Y-95850000D03*
X171965645Y-98950002D03*
%TD*%
%TO.C,R507*%
X158565645Y-74349999D03*
X158565645Y-77450001D03*
%TD*%
%TO.C,R402*%
X154565645Y-71099999D03*
X154565645Y-74200001D03*
%TD*%
%TO.C,R501*%
X163965645Y-87650000D03*
X163965645Y-90750002D03*
%TD*%
D18*
%TO.C,D201*%
X138815644Y-85650000D03*
X136315646Y-85650000D03*
%TD*%
D16*
%TO.C,R202*%
X136015645Y-90650000D03*
X139115645Y-90650000D03*
%TD*%
D19*
%TO.C,D501*%
X161565645Y-72750000D03*
X161565645Y-70650000D03*
%TD*%
D10*
%TO.C,R506*%
X158565645Y-90750002D03*
X158565645Y-87650000D03*
%TD*%
%TO.C,R301*%
X143815645Y-86750002D03*
X143815645Y-83650000D03*
%TD*%
D20*
%TO.C,D502*%
X161565645Y-92300000D03*
X161565645Y-94400000D03*
%TD*%
D21*
%TO.C,C401*%
X152565645Y-75150000D03*
X152565645Y-73424998D03*
%TD*%
D22*
%TO.C,C402*%
X152365645Y-82550000D03*
X152365645Y-84275002D03*
%TD*%
D14*
%TO.C,U401*%
X154465645Y-82550000D03*
X154465645Y-84450000D03*
X156340645Y-83500000D03*
%TD*%
D23*
%TO.C,R403*%
X150365646Y-82550000D03*
X147265644Y-82550000D03*
%TD*%
D10*
%TO.C,R502*%
X163965645Y-77450000D03*
X163965645Y-74349998D03*
%TD*%
D11*
%TO.C,R303*%
X143815645Y-78349999D03*
X143815645Y-81450001D03*
%TD*%
D18*
%TO.C,D601*%
X178815644Y-85650000D03*
X176315646Y-85650000D03*
%TD*%
M02*
