%TF.GenerationSoftware,KiCad,Pcbnew,9.0.7+1*%
%TF.CreationDate,Date%
%TF.ProjectId,Input-Protection,496e7075-742d-4507-926f-74656374696f,1.0.0+ (Unreleased)*%
%TF.SameCoordinates,Original*%
%TF.FileFunction,Soldermask,Top*%
%TF.FilePolarity,Negative*%
%FSLAX46Y46*%
G04 Gerber Fmt 4.6, Leading zero omitted, Abs format (unit mm)*
G04 Created by KiCad*
%MOMM*%
%LPD*%
G01*
G04 APERTURE LIST*
G04 Aperture macros list*
%AMRoundRect*
0 Rectangle with rounded corners*
0 $1 Rounding radius*
0 $2 $3 $4 $5 $6 $7 $8 $9 X,Y pos of 4 corners*
0 Add a 4 corners polygon primitive as box body*
4,1,4,$2,$3,$4,$5,$6,$7,$8,$9,$2,$3,0*
0 Add four circle primitives for the rounded corners*
1,1,$1+$1,$2,$3*
1,1,$1+$1,$4,$5*
1,1,$1+$1,$6,$7*
1,1,$1+$1,$8,$9*
0 Add four rect primitives between the rounded corners*
20,1,$1+$1,$2,$3,$4,$5,0*
20,1,$1+$1,$4,$5,$6,$7,0*
20,1,$1+$1,$6,$7,$8,$9,0*
20,1,$1+$1,$8,$9,$2,$3,0*%
G04 Aperture macros list end*
%ADD10C,0.000000*%
%ADD11RoundRect,0.137500X0.212500X0.137500X-0.212500X0.137500X-0.212500X-0.137500X0.212500X-0.137500X0*%
%ADD12RoundRect,0.269231X0.430769X0.655769X-0.430769X0.655769X-0.430769X-0.655769X0.430769X-0.655769X0*%
%ADD13RoundRect,0.262500X-0.325000X-0.262500X0.325000X-0.262500X0.325000X0.262500X-0.325000X0.262500X0*%
%ADD14RoundRect,0.050000X-0.457200X-1.206500X0.457200X-1.206500X0.457200X1.206500X-0.457200X1.206500X0*%
%ADD15RoundRect,0.050000X-2.755900X-3.035300X2.755900X-3.035300X2.755900X3.035300X-2.755900X3.035300X0*%
%ADD16RoundRect,0.269231X-0.655769X0.430769X-0.655769X-0.430769X0.655769X-0.430769X0.655769X0.430769X0*%
%ADD17RoundRect,0.175000X-0.850000X-0.175000X0.850000X-0.175000X0.850000X0.175000X-0.850000X0.175000X0*%
%ADD18RoundRect,0.050000X-0.750000X-0.750000X0.750000X-0.750000X0.750000X0.750000X-0.750000X0.750000X0*%
%ADD19C,1.100000*%
%ADD20RoundRect,0.269231X0.655769X-0.430769X0.655769X0.430769X-0.655769X0.430769X-0.655769X-0.430769X0*%
%ADD21C,2.000000*%
%ADD22RoundRect,0.050000X-1.000000X-2.250000X1.000000X-2.250000X1.000000X2.250000X-1.000000X2.250000X0*%
%ADD23O,2.100000X4.100000*%
%ADD24O,4.100000X2.100000*%
%ADD25RoundRect,0.262500X0.262500X-0.325000X0.262500X0.325000X-0.262500X0.325000X-0.262500X-0.325000X0*%
%ADD26RoundRect,0.275000X0.275000X0.275000X-0.275000X0.275000X-0.275000X-0.275000X0.275000X-0.275000X0*%
%ADD27RoundRect,0.269231X-0.430769X-0.655769X0.430769X-0.655769X0.430769X0.655769X-0.430769X0.655769X0*%
%ADD28RoundRect,0.262500X0.325000X0.262500X-0.325000X0.262500X-0.325000X-0.262500X0.325000X-0.262500X0*%
%ADD29C,5.800000*%
%ADD30RoundRect,0.050000X1.000000X2.250000X-1.000000X2.250000X-1.000000X-2.250000X1.000000X-2.250000X0*%
%ADD31RoundRect,0.262500X-0.787500X0.787500X-0.787500X-0.787500X0.787500X-0.787500X0.787500X0.787500X0*%
%ADD32C,2.100000*%
%ADD33RoundRect,0.050000X0.500000X0.750000X-0.500000X0.750000X-0.500000X-0.750000X0.500000X-0.750000X0*%
%ADD34RoundRect,0.262500X0.787500X-0.787500X0.787500X0.787500X-0.787500X0.787500X-0.787500X-0.787500X0*%
%ADD35RoundRect,0.050000X0.750000X0.750000X-0.750000X0.750000X-0.750000X-0.750000X0.750000X-0.750000X0*%
%ADD36RoundRect,0.271739X-0.353261X-0.478261X0.353261X-0.478261X0.353261X0.478261X-0.353261X0.478261X0*%
%ADD37RoundRect,0.175000X0.175000X-0.612500X0.175000X0.612500X-0.175000X0.612500X-0.175000X-0.612500X0*%
%ADD38RoundRect,0.175000X-0.537500X-0.175000X0.537500X-0.175000X0.537500X0.175000X-0.537500X0.175000X0*%
G04 APERTURE END LIST*
D10*
%TO.C,JP503*%
G36*
X158115645Y-65000000D02*
G01*
X157815645Y-65000000D01*
X157815645Y-63500000D01*
X158115645Y-63500000D01*
X158115645Y-65000000D01*
G37*
%TO.C,JP502*%
G36*
X158115645Y-68900000D02*
G01*
X157815645Y-68900000D01*
X157815645Y-67400000D01*
X158115645Y-67400000D01*
X158115645Y-68900000D01*
G37*
%TO.C,JP501*%
G36*
X158115645Y-89900000D02*
G01*
X157815645Y-89900000D01*
X157815645Y-88400000D01*
X158115645Y-88400000D01*
X158115645Y-89900000D01*
G37*
%TD*%
D11*
%TO.C,D501*%
X156615645Y-61150000D03*
X154515645Y-61150000D03*
%TD*%
D12*
%TO.C,R503*%
X156615646Y-85650000D03*
X153515644Y-85650000D03*
%TD*%
D13*
%TO.C,C501*%
X159665645Y-76550000D03*
X161390645Y-76550000D03*
%TD*%
D14*
%TO.C,Q602*%
X175279645Y-78508000D03*
D15*
X177565645Y-71650000D03*
D14*
X179851645Y-78508000D03*
%TD*%
D16*
%TO.C,R402*%
X171815646Y-56049998D03*
X171815646Y-59150000D03*
%TD*%
%TO.C,R506*%
X155065645Y-63099999D03*
X155065645Y-66200001D03*
%TD*%
%TO.C,R305*%
X149065645Y-69599999D03*
X149065645Y-72700001D03*
%TD*%
D17*
%TO.C,U501*%
X152590645Y-76745000D03*
X152590645Y-78015000D03*
X152590645Y-79285000D03*
X152590645Y-80555000D03*
X157540645Y-80555000D03*
X157540645Y-79285000D03*
X157540645Y-78015000D03*
X157540645Y-76745000D03*
%TD*%
D18*
%TO.C,TP101*%
X132315645Y-86650000D03*
%TD*%
D19*
%TO.C,TP401*%
X175265647Y-59249999D03*
%TD*%
%TO.C,TP103*%
X182815645Y-80650000D03*
%TD*%
%TO.C,TP302*%
X151315645Y-83650000D03*
%TD*%
%TO.C,TP303*%
X151315645Y-73650000D03*
%TD*%
D20*
%TO.C,R601*%
X166065645Y-83750002D03*
X166065645Y-80650000D03*
%TD*%
D21*
%TO.C,FID902*%
X126565645Y-97650000D03*
%TD*%
D12*
%TO.C,R511*%
X145415647Y-69900000D03*
X142315645Y-69900000D03*
%TD*%
D19*
%TO.C,TP502*%
X145064645Y-55650000D03*
%TD*%
D16*
%TO.C,R508*%
X152565645Y-61150000D03*
X152565645Y-64250002D03*
%TD*%
D22*
%TO.C,J101*%
X132265645Y-71650000D03*
D23*
X126065645Y-71650000D03*
D24*
X129065645Y-76350000D03*
%TD*%
D19*
%TO.C,TP402*%
X169015645Y-67150000D03*
%TD*%
D25*
%TO.C,C506*%
X166065645Y-75400000D03*
X166065645Y-73674998D03*
%TD*%
D26*
%TO.C,D201*%
X138815644Y-84650000D03*
X136315646Y-84650000D03*
%TD*%
D13*
%TO.C,C502*%
X152165645Y-58400000D03*
X153890647Y-58400000D03*
%TD*%
D27*
%TO.C,R604*%
X177565645Y-65400000D03*
X180665647Y-65400000D03*
%TD*%
D19*
%TO.C,TP501*%
X158565645Y-85650000D03*
%TD*%
D25*
%TO.C,C402*%
X167315646Y-62262501D03*
X167315646Y-60537499D03*
%TD*%
D14*
%TO.C,Q201*%
X135279645Y-78508000D03*
D15*
X137565645Y-71650000D03*
D14*
X139851645Y-78508000D03*
%TD*%
D28*
%TO.C,C504*%
X140315645Y-63900000D03*
X138590643Y-63900000D03*
%TD*%
D29*
%TO.C,H901*%
X121565645Y-55650000D03*
%TD*%
D27*
%TO.C,R603*%
X176015645Y-82150000D03*
X179115645Y-82150000D03*
%TD*%
D20*
%TO.C,R302*%
X149065645Y-82700001D03*
X149065645Y-79599999D03*
%TD*%
D19*
%TO.C,TP506*%
X164065645Y-78650000D03*
%TD*%
%TO.C,TP505*%
X142315645Y-66150000D03*
%TD*%
D18*
%TO.C,TP104*%
X182815645Y-86650000D03*
%TD*%
D30*
%TO.C,J104*%
X182865645Y-71650000D03*
D23*
X189065645Y-71650000D03*
D24*
X186065645Y-66950000D03*
%TD*%
D27*
%TO.C,R505*%
X153515644Y-74150000D03*
X156615646Y-74150000D03*
%TD*%
D31*
%TO.C,J102*%
X122565645Y-81650000D03*
D32*
X122565645Y-85460000D03*
%TD*%
D20*
%TO.C,R504*%
X142315645Y-58950001D03*
X142315645Y-55849999D03*
%TD*%
D29*
%TO.C,H902*%
X121565645Y-97650000D03*
%TD*%
D28*
%TO.C,C401*%
X169678147Y-57400000D03*
X167953145Y-57400000D03*
%TD*%
D19*
%TO.C,TP102*%
X132315645Y-80650000D03*
%TD*%
D33*
%TO.C,JP503*%
X158615644Y-64250000D03*
X157315646Y-64250000D03*
%TD*%
D16*
%TO.C,R304*%
X149065645Y-74599999D03*
X149065645Y-77700001D03*
%TD*%
D19*
%TO.C,TP201*%
X141065645Y-82150000D03*
%TD*%
D12*
%TO.C,R301*%
X145615646Y-78650000D03*
X142515644Y-78650000D03*
%TD*%
D21*
%TO.C,FID903*%
X188565645Y-55650000D03*
%TD*%
D26*
%TO.C,D601*%
X178815644Y-84650000D03*
X176315646Y-84650000D03*
%TD*%
D27*
%TO.C,R202*%
X136015645Y-82150000D03*
X139115645Y-82150000D03*
%TD*%
D34*
%TO.C,J103*%
X192565645Y-85460000D03*
D32*
X192565645Y-81650000D03*
%TD*%
D33*
%TO.C,JP502*%
X158615644Y-68150000D03*
X157315646Y-68150000D03*
%TD*%
D29*
%TO.C,H903*%
X193565645Y-55650000D03*
%TD*%
D12*
%TO.C,R507*%
X156615646Y-71650000D03*
X153515644Y-71650000D03*
%TD*%
D28*
%TO.C,C403*%
X168540649Y-64150000D03*
X166815647Y-64150000D03*
%TD*%
D29*
%TO.C,H904*%
X193565645Y-97650000D03*
%TD*%
D35*
%TO.C,TP301*%
X159815645Y-82400000D03*
%TD*%
D36*
%TO.C,D502*%
X166040646Y-78650000D03*
X168090644Y-78650000D03*
%TD*%
D27*
%TO.C,R403*%
X170465645Y-64962500D03*
X173565647Y-64962500D03*
%TD*%
D12*
%TO.C,R501*%
X156615646Y-83150000D03*
X153515644Y-83150000D03*
%TD*%
D19*
%TO.C,TP503*%
X158565645Y-71650000D03*
%TD*%
D37*
%TO.C,Q601*%
X175365645Y-88587500D03*
X177265645Y-88587500D03*
X176315645Y-86712499D03*
%TD*%
D21*
%TO.C,FID901*%
X126565645Y-55650000D03*
%TD*%
D16*
%TO.C,R509*%
X168565645Y-80650000D03*
X168565645Y-83750002D03*
%TD*%
D17*
%TO.C,U502*%
X145065645Y-58610000D03*
X145065645Y-59880000D03*
X145065645Y-61150000D03*
X145065645Y-62420000D03*
X150015645Y-62420000D03*
X150015645Y-61150000D03*
X150015645Y-59880000D03*
X150015645Y-58610000D03*
%TD*%
D37*
%TO.C,U401*%
X172565646Y-62650000D03*
X174465646Y-62650000D03*
X173515646Y-60774999D03*
%TD*%
D38*
%TO.C,U503*%
X142928145Y-73200000D03*
X142928145Y-74150000D03*
X142928145Y-75100000D03*
X145203145Y-75100000D03*
X145203145Y-73200000D03*
%TD*%
D25*
%TO.C,C503*%
X151315645Y-87375002D03*
X151315645Y-85650000D03*
%TD*%
D16*
%TO.C,R510*%
X171065645Y-78700001D03*
X171065645Y-81800003D03*
%TD*%
D27*
%TO.C,R201*%
X135965643Y-87650000D03*
X139065645Y-87650000D03*
%TD*%
D16*
%TO.C,R602*%
X175315645Y-90650000D03*
X175315645Y-93750002D03*
%TD*%
D25*
%TO.C,C505*%
X151315645Y-71762501D03*
X151315645Y-70037499D03*
%TD*%
D16*
%TO.C,R401*%
X169315645Y-59150000D03*
X169315645Y-62250002D03*
%TD*%
D20*
%TO.C,R502*%
X142315645Y-63850002D03*
X142315645Y-60750000D03*
%TD*%
D18*
%TO.C,TP507*%
X156565645Y-55650000D03*
%TD*%
D20*
%TO.C,R303*%
X149065645Y-87700001D03*
X149065645Y-84599999D03*
%TD*%
D19*
%TO.C,TP504*%
X158565645Y-61150000D03*
%TD*%
D33*
%TO.C,JP501*%
X158615644Y-89150000D03*
X157315646Y-89150000D03*
%TD*%
M02*
